<?xml version="1.0" encoding="utf-8" standalone="no"?>
<!DOCTYPE svg PUBLIC "-//W3C//DTD SVG 1.1//EN"
  "http://www.w3.org/Graphics/SVG/1.1/DTD/svg11.dtd">
<!-- Created with matplotlib (http://matplotlib.org/) -->
<svg height="432pt" version="1.1" viewBox="0 0 576 432" width="576pt" xmlns="http://www.w3.org/2000/svg" xmlns:xlink="http://www.w3.org/1999/xlink">
 <defs>
  <style type="text/css">
*{stroke-linecap:square;stroke-linejoin:round;}
  </style>
 </defs>
 <g id="figure_1">
  <g id="patch_1">
   <path d="
M0 432
L576 432
L576 0
L0 0
z
" style="fill:#ffffff;"/>
  </g>
  <g id="axes_1">
   <g id="patch_2">
    <path d="
M72 388.8
L518.4 388.8
L518.4 43.2
L72 43.2
z
" style="fill:#ffffff;"/>
   </g>
   <g id="line2d_1">
    <path clip-path="url(#p7ff5b81e1d)" d="
M72 324.311
L73.4971 323.984
L74.4498 323.811
L74.722 323.699
L75.2663 321.676
L76.4912 321.781
L77.9883 321.722
L78.941 321.503
L79.0771 321.455
L79.6215 320.4
L80.302 320.2
L80.8463 319.619
L81.3907 318.916
L81.799 318.87
L82.8878 316.845
L83.4322 316.631
L83.9766 302.792
L84.6571 302.965
L85.0654 303.217
L85.882 300.865
L86.4263 299.985
L86.9707 299.228
L87.2429 298.792
L87.7873 308.283
L88.3317 308.172
L88.8761 308.747
L89.4205 308.268
L89.9649 308.489
L90.5093 308.006
L91.0537 308.636
L91.598 308.425
L92.1424 303.105
L92.6868 303.278
L93.3673 302.822
L93.7756 302.768
L94.32 304.207
L94.8644 302.94
L95.4088 304.349
L95.9532 302.757
L96.4976 306.962
L97.042 304.465
L97.5863 305.374
L98.6751 300.605
L99.2195 301.02
L99.7639 298.377
L100.308 291.561
L100.989 293.259
L101.397 294.814
L101.941 290.542
L102.486 294.438
L103.03 291.707
L103.575 294.364
L104.119 292.952
L104.8 287.175
L105.344 285.87
L106.297 284.54
L107.249 287.714
L107.658 289.636
L108.202 291.917
L108.474 292.782
L109.019 306.073
L109.835 298.269
L110.107 296.222
L111.196 295.052
L111.74 293.437
L112.285 294.582
L112.829 307.376
L113.646 302.899
L113.918 301.845
L114.462 302.779
L115.007 302.518
L115.823 300.98
L116.096 300.641
L116.64 301.162
L117.184 316.357
L117.729 317.244
L118.273 319.086
L118.954 317.58
L119.362 317.306
L119.906 318.715
L120.451 318.3
L120.995 320.516
L121.54 316.984
L122.356 320.083
L122.628 321.327
L123.173 318.609
L123.717 321.517
L124.261 319.742
L124.806 322.126
L125.35 308.387
L126.575 309.933
L126.983 309.741
L127.528 311.193
L128.208 309.645
L128.617 309.398
L129.161 305.162
L130.25 306.86
L130.794 304.936
L131.883 293.161
L132.427 292.594
L132.972 296.801
L133.516 307.879
L134.333 305.355
L134.605 304.738
L135.149 305.858
L135.694 305.897
L136.238 306.646
L136.782 304.223
L137.599 306.589
L138.143 307.457
L138.416 307.768
L138.96 305.271
L139.504 308.926
L140.049 307.005
L140.593 307.349
L141.138 306.872
L141.682 302.093
L142.499 301.883
L143.043 301.527
L143.315 301.299
L143.996 302.922
L144.404 303.507
L144.948 307.515
L145.493 304.573
L146.037 310.417
L146.581 306.968
L147.126 309.756
L147.67 307.902
L148.215 311.04
L148.759 311.27
L149.576 304.924
L149.848 303.302
L150.392 303.912
L150.937 300.279
L151.481 301.11
L152.025 299.73
L152.706 295.129
L153.25 293.68
L153.659 293.434
L154.339 281.238
L154.747 278.286
L155.292 278.933
L155.836 278.419
L156.38 279.958
L157.469 278.284
L158.014 274.221
L158.558 275.712
L159.375 266.906
L159.783 264.308
L160.191 262.803
L162.369 283.464
L162.913 284.102
L163.594 290.097
L164.002 295.728
L164.546 296.839
L165.227 307.22
L165.771 317.412
L166.18 319.937
L166.724 315.237
L167.268 315.24
L167.949 318.699
L168.357 319.895
L168.901 317.64
L169.582 321.305
L169.99 322.01
L170.535 321.833
L171.215 322.2
L171.623 322.183
L172.168 322.982
L173.257 322.129
L174.073 322.596
L174.345 322.675
L175.026 319.132
L175.57 318.287
L176.115 317.866
L176.523 317.351
L177.067 317.554
L177.612 315.409
L178.156 315.746
L178.7 315.141
L179.245 313.103
L179.789 313.56
L180.334 313.392
L181.014 311.662
L181.422 311.319
L182.375 311.699
L182.511 311.77
L183.192 306.511
L183.6 305.543
L184.144 305.565
L185.097 304.512
L185.233 304.389
L186.05 304.827
L186.322 305.044
L186.866 304.574
L187.955 306.815
L188.5 305.555
L189.452 305.788
L189.86 305.857
L190.269 305.773
L190.677 305.473
L191.358 298.723
L191.902 296.27
L192.31 293.872
L192.855 286.331
L193.535 284.677
L193.943 283.249
L194.488 285.567
L195.032 283.136
L195.713 276.357
L196.121 274.598
L196.665 276.595
L197.21 276.17
L197.754 272.86
L198.299 259.84
L198.843 261.524
L199.387 264.752
L199.932 276.421
L200.612 268.653
L201.02 266.497
L201.565 271.041
L202.109 267.157
L202.654 281.74
L203.198 270.46
L203.742 274.077
L204.287 267.06
L204.831 275.653
L205.376 273.22
L205.92 268.72
L206.464 273.647
L207.145 271.355
L207.553 270.505
L208.098 273.013
L208.642 272.671
L209.186 270.859
L209.731 273.309
L210.275 272.332
L210.82 276.402
L211.364 268.918
L211.908 274.882
L212.453 275.821
L213.541 282.785
L214.494 294.735
L215.311 302.515
L215.719 304.854
L216.263 313.645
L216.808 314.222
L217.352 314.138
L218.033 316.625
L219.121 317.593
L219.938 317.506
L220.346 317.428
L220.619 317.349
L221.163 316.424
L221.843 317.424
L222.252 317.655
L222.932 316.992
L223.34 316.894
L223.885 318.57
L224.429 324.375
L225.11 324.596
L226.062 324.396
L227.832 324.954
L228.24 324.634
L228.784 319.341
L229.329 318.809
L229.873 319.366
L230.418 317.929
L231.098 319.721
L231.506 320.256
L232.187 322.041
L232.595 322.432
L233.14 327.874
L234.773 328.39
L235.317 328.62
L235.998 327.916
L236.406 327.719
L236.95 326.059
L237.495 326.295
L238.175 323.749
L238.583 323.164
L239.128 323.749
L239.808 323.298
L240.217 322.743
L240.761 323.015
L241.305 329.746
L241.85 329.416
L242.394 329.67
L242.939 329.181
L244.027 329.389
L244.708 329.377
L245.116 329.549
L245.66 333.767
L246.885 334.092
L247.702 334.333
L247.838 334.356
L248.519 333.886
L248.927 333.816
L249.471 328.257
L250.016 327.82
L250.696 328.952
L251.104 329.085
L251.649 327.944
L252.738 328.815
L253.282 328.283
L254.099 329.633
L254.371 329.96
L255.051 329.811
L255.596 329.578
L256.004 329.675
L256.548 329.139
L257.093 329.56
L257.637 329.227
L258.181 326.995
L258.726 328.148
L259.406 327.675
L259.815 327.208
L260.631 325.459
L261.448 324.327
L261.992 320.745
L262.945 321.72
L263.353 322.189
L263.625 322.546
L264.306 322.192
L264.986 321.379
L265.395 320.972
L265.803 320.925
L266.347 322.629
L267.028 321.521
L268.389 321.19
L268.661 320.974
L269.069 320.531
L269.614 320.947
L270.158 320.73
L270.839 325.714
L271.247 327.075
L271.791 326.762
L272.472 327.506
L272.88 327.644
L273.424 329.273
L273.969 328.757
L274.513 315.22
L275.33 313.854
L275.602 313.504
L276.282 314.622
L276.691 315.613
L277.235 315.22
L277.916 314.096
L278.46 313.756
L278.868 313.69
L279.685 296.242
L281.046 262.892
L281.862 267.673
L282.135 269.556
L282.679 256.503
L283.768 260.291
L284.312 259.763
L284.993 268.285
L285.401 275.078
L285.945 269.664
L286.49 273.331
L287.034 265.094
L287.579 268.181
L288.123 264.628
L288.667 265.104
L289.212 262.821
L289.756 265.862
L290.437 260.992
L291.117 254.913
L291.934 248.976
L292.614 250.455
L293.022 251.665
L293.703 251.524
L294.111 251.182
L294.656 247.964
L295.744 234.702
L296.289 234.114
L296.833 234.262
L297.378 235.203
L298.466 227.483
L299.011 231.167
L299.555 220.767
L300.1 219.417
L301.324 208.506
L302.277 204.153
L302.821 199.535
L303.366 204.951
L303.91 200.655
L304.591 206.601
L305.543 208.934
L306.088 212.254
L306.632 210.452
L307.721 203.982
L308.265 204.141
L308.81 202.333
L309.762 203.222
L309.899 203.318
L310.715 201.588
L310.987 200.882
L311.532 235.644
L312.348 238.924
L312.62 239.746
L313.165 236.693
L313.709 238.955
L314.254 250.22
L314.798 237.992
L315.342 241.55
L315.887 283.903
L316.431 286.998
L316.976 282.741
L317.656 288.793
L318.064 290.266
L318.609 290.427
L319.153 295.144
L319.698 295.629
L320.242 319.432
L320.786 317.314
L321.331 320.399
L321.875 319.809
L322.556 319.993
L322.964 319.842
L323.508 320.352
L324.053 301.926
L324.597 302.506
L325.141 306.484
L325.686 303.697
L326.23 304.415
L326.775 306.824
L327.319 306.651
L327.863 305.788
L328.408 310.814
L328.952 311.286
L329.633 307.381
L330.041 306.012
L330.585 306.027
L331.13 307.562
L332.082 303.151
L332.355 302.053
L332.763 300.876
L333.852 293.021
L334.396 296.056
L334.94 294.333
L335.485 291.077
L336.029 294.602
L336.71 283.179
L337.118 280.186
L337.662 281.231
L338.207 289.015
L338.751 284.933
L339.84 289.421
L340.384 304.429
L340.929 292.603
L341.473 304.592
L342.018 306.372
L342.562 310.65
L343.106 302.799
L343.651 308.717
L344.195 289.769
L344.74 293.843
L345.284 289.502
L345.828 294.436
L346.373 291.729
L346.917 294.343
L347.461 293.389
L348.006 297.511
L348.55 294.326
L349.095 304.542
L349.775 305.41
L350.183 305.682
L350.728 311.516
L351.272 311.531
L351.817 316.086
L352.361 314.498
L353.041 304.37
L353.586 300.614
L354.539 299.004
L355.219 293.141
L355.763 285.398
L356.444 274.629
L356.716 271.386
L357.26 277.822
L357.805 276.002
L358.349 263.718
L358.894 267.292
L359.438 263.633
L360.799 220.543
L361.071 215.702
L361.616 259.939
L362.704 264.438
L363.249 269.178
L363.793 264.873
L364.61 268.832
L364.882 270.379
L365.562 289.076
L366.379 297.26
L366.787 300.051
L367.74 305.052
L368.148 305.973
L368.829 309.235
L369.237 310.113
L369.781 295.165
L370.326 298.474
L370.87 298.61
L371.551 300.445
L371.959 301.127
L372.503 302.904
L373.184 301.919
L373.592 301.645
L374.137 296.436
L374.817 299.366
L375.77 301.554
L376.314 300.481
L376.859 300.71
L377.403 299.818
L377.947 292.2
L378.492 294.639
L379.172 292.993
L379.58 292.461
L380.125 290.671
L380.669 290.584
L381.35 288.682
L382.302 287.183
L382.847 287.476
L383.391 284.85
L383.936 284.498
L384.752 275.482
L385.16 272.807
L385.569 271.246
L386.113 274.712
L386.658 273.489
L387.202 277.775
L387.746 268.538
L388.291 267.206
L388.835 270.671
L389.38 270.885
L389.924 272.319
L390.468 279.586
L391.013 278.087
L391.693 280.419
L392.101 280.906
L392.646 282.449
L393.19 281.462
L393.735 279.173
L394.415 290.435
L395.096 294.031
L395.504 296.061
L396.184 299.811
L396.457 300.976
L397.001 300.888
L397.545 299.745
L398.09 299.882
L398.634 305.475
L399.179 306.205
L400.267 312.957
L400.812 314.03
L401.356 312.448
L402.173 312.086
L402.445 311.894
L402.989 301.555
L403.806 299.82
L404.078 299.385
L404.895 300.098
L405.167 300.248
L405.711 301.663
L406.256 301.626
L406.8 306.727
L407.344 306.048
L408.025 309.546
L408.433 310.685
L408.978 310.858
L409.522 313.062
L410.066 311.712
L411.019 320.802
L411.155 322.276
L411.836 323.435
L412.38 324.594
L412.924 325.128
L413.877 325.21
L414.421 327.051
L414.966 327.312
L415.51 320.101
L416.055 322.15
L416.599 318.558
L417.28 319.164
L417.688 319.307
L418.504 318.102
L418.777 317.605
L419.321 318.338
L419.865 312.865
L420.546 315.993
L420.954 317.003
L421.499 313.163
L422.043 313.646
L422.587 319.697
L423.132 313.807
L423.676 293.304
L424.357 296.487
L424.765 297.366
L425.309 296.441
L425.854 296.624
L426.398 295.07
L426.942 294.956
L427.487 283.513
L428.031 282.998
L428.576 278.745
L429.664 256.582
L430.345 240.853
L431.025 235.558
L431.298 234.012
L431.978 239.328
L432.522 241.262
L432.931 241.903
L433.611 236.928
L434.02 235.746
L434.564 242.598
L435.244 235.962
L436.197 231.325
L436.741 237.448
L437.286 235.797
L437.83 237.275
L438.375 234.853
L438.919 236.548
L439.463 234.675
L440.008 225.934
L440.552 224.615
L441.913 215.677
L442.594 212.234
L443.274 209.314
L443.819 210.562
L444.363 219.415
L444.907 205.119
L445.452 208.242
L445.996 202.15
L446.54 204.122
L447.085 200.795
L447.629 209.17
L448.174 206.985
L448.718 199.994
L449.262 212.225
L449.807 209.624
L450.351 218.058
L450.896 209.327
L451.44 218.599
L451.984 218.677
L452.665 243.553
L453.481 249.712
L453.618 250.612
L454.298 241.955
L454.706 240.236
L455.251 240.258
L455.795 246.285
L456.476 242.547
L457.428 235.463
L457.973 234.015
L458.653 234.07
L459.061 234.362
L459.606 229.473
L460.15 230.513
L460.695 250.517
L461.239 251.972
L461.783 260.595
L462.328 257.577
L463.008 260.607
L463.417 261.297
L464.233 270.013
L464.914 276.469
L465.594 283.465
L466.139 277.357
L466.683 283.497
L467.227 276.511
L467.908 289.867
L468.316 293.733
L468.86 291.976
L469.405 282.787
L469.949 281.482
L470.494 287.281
L471.174 287.275
L471.582 287.063
L472.399 291.509
L472.671 292.527
L473.216 279.97
L473.76 280.342
L474.304 279.59
L474.849 280.867
L475.393 280.481
L476.21 280.685
L476.482 280.681
L477.026 278.357
L477.571 269.737
L478.115 271.294
L478.932 260.579
L479.476 256.215
L479.748 254.507
L480.565 241.295
L480.973 235.499
L481.381 233.839
L482.47 217.887
L483.015 217.2
L483.559 219.567
L484.103 224.144
L484.648 224.149
L485.464 216.299
L485.737 214.416
L486.281 216.212
L486.825 215.764
L487.506 211.497
L487.914 207.579
L488.595 210.608
L489.003 213.257
L489.547 226.121
L490.092 226.597
L490.636 226.235
L491.18 228.819
L491.725 223.218
L492.269 227.988
L493.222 227.291
L493.358 227.17
L494.039 215.792
L494.447 212.243
L494.991 213.155
L495.536 212.487
L496.216 206.31
L496.624 203.974
L497.169 207.511
L497.713 206.402
L498.258 220.032
L498.802 220.717
L499.346 216.211
L499.891 217.505
L500.435 215.166
L500.98 218.934
L501.524 213.229
L502.068 216.312
L502.613 212.282
L503.293 214.59
L503.701 215.153
L505.062 204.485
L505.879 195.718
L506.56 201.459
L506.968 203.666
L507.512 201.673
L508.057 195.744
L508.737 177.706
L509.145 171.572
L509.826 172.34
L510.234 172.349
L511.323 203.558
L512.003 198.715
L512.548 196.187
L512.956 193.589
L513.5 198.342
L514.045 217.777
L514.725 215.556
L515.406 211.701
L515.678 209.895
L516.222 227.185
L516.903 262.409
L517.447 274.424
L518.4 282.175
L518.4 282.175" style="fill:none;stroke:#008000;"/>
   </g>
   <g id="line2d_2">
    <path clip-path="url(#p7ff5b81e1d)" d="
M72 336.96
L73.7693 336.96
L74.3137 336.269
L74.5859 337.319
L75.1302 338.757
L75.2663 338.342
L75.4024 330.048
L75.6746 338.757
L76.3551 336.96
L76.4912 337.651
L77.3078 336.96
L77.9883 330.048
L78.1244 323.136
L78.2605 336.96
L78.941 332.122
L79.0771 333.504
L79.2132 330.048
L79.3493 330.048
L79.8937 323.136
L80.0298 324.933
L80.302 320.371
L80.8463 324.933
L81.1185 318.528
L81.799 313.632
L81.9351 312.768
L82.0712 316.224
L82.8878 316.224
L83.0239 317.606
L83.16 309.312
L83.2961 316.224
L84.9293 311.109
L85.0654 310.003
L85.2015 310.003
L85.7459 311.109
L85.882 311.109
L86.018 302.4
L86.4263 310.464
L86.5624 312.768
L86.6985 309.312
L86.8346 309.312
L87.5151 312.768
L87.7873 312.768
L87.9234 316.224
L88.0595 312.768
L88.4678 312.768
L88.6039 307.653
L88.74 315.533
L88.8761 312.077
L89.0122 312.768
L89.4205 311.109
L89.5566 312.768
L89.6927 312.768
L89.8288 311.109
L89.9649 312.768
L90.7815 312.768
L91.3259 305.856
L91.462 312.768
L91.598 300.741
L91.7341 308.621
L92.2785 310.971
L92.4146 295.488
L92.6868 304.704
L92.959 309.312
L93.0951 309.312
L93.2312 307.653
L93.3673 316.224
L93.6395 309.312
L93.7756 309.312
L94.1839 312.768
L94.32 311.109
L94.4561 316.224
L94.5922 312.768
L95.681 312.768
L96.0893 309.312
L96.2254 312.768
L96.6337 302.4
L97.042 309.312
L97.178 302.4
L97.3141 314.427
L97.4502 312.768
L97.5863 295.488
L98.1307 295.488
L98.2668 298.944
L98.9473 295.488
L99.3556 298.944
L99.9 295.488
L100.172 295.488
L100.444 312.768
L100.989 298.944
L101.397 302.4
L103.711 302.4
L103.847 309.312
L103.983 302.4
L104.255 302.4
L104.663 304.197
L105.072 300.096
L105.616 295.488
L106.433 307.607
L106.569 309.312
L106.705 309.312
L106.841 312.768
L107.113 312.768
L107.521 316.224
L108.066 316.224
L109.427 292.032
L109.563 292.032
L109.699 295.488
L111.332 292.032
L111.468 288.576
L111.604 295.488
L111.877 295.488
L112.285 290.373
L112.421 285.12
L112.557 295.488
L112.829 285.466
L113.238 278.208
L113.374 288.576
L113.782 288.576
L114.19 302.4
L114.326 288.576
L114.599 288.576
L114.735 267.84
L115.143 295.488
L115.415 295.488
L115.551 285.12
L115.687 302.4
L116.096 295.488
L116.232 302.4
L116.504 302.4
L116.64 309.312
L117.048 298.944
L117.184 302.4
L117.32 302.4
L117.593 309.312
L118.137 301.248
L118.409 298.944
L118.954 302.4
L119.09 301.709
L119.226 309.312
L119.498 309.312
L119.906 298.944
L120.042 309.312
L120.451 305.856
L120.859 308.621
L120.995 305.856
L121.131 316.224
L125.895 316.224
L126.031 319.68
L126.167 319.68
L126.575 323.136
L126.983 312.768
L127.12 316.224
L127.528 312.768
L127.664 316.224
L127.936 316.224
L128.072 315.533
L128.48 326.592
L128.753 321.984
L129.433 316.224
L129.569 298.944
L129.978 295.488
L130.658 298.944
L131.339 295.488
L131.475 293.829
L131.611 295.488
L131.747 298.944
L132.7 298.944
L132.836 297.285
L133.244 298.944
L133.38 298.944
L133.516 295.488
L134.333 298.944
L135.149 305.856
L135.285 298.944
L135.421 305.856
L135.694 288.576
L136.102 298.944
L136.646 298.944
L137.191 295.488
L137.327 298.944
L137.463 292.032
L138.007 298.944
L138.143 295.488
L138.28 295.488
L138.416 302.4
L138.552 298.944
L138.96 302.4
L139.913 302.4
L140.049 298.944
L140.185 298.944
L140.321 295.488
L140.457 298.944
L141.818 298.944
L141.954 302.4
L142.09 298.944
L142.226 288.576
L142.362 298.944
L142.771 302.4
L142.907 298.944
L143.723 298.944
L143.86 305.856
L143.996 305.856
L144.132 298.944
L144.268 312.768
L145.22 298.944
L145.765 298.944
L145.901 305.856
L146.037 302.4
L146.173 305.856
L146.581 298.944
L147.126 298.944
L147.942 305.856
L148.487 302.4
L148.623 281.664
L148.759 292.032
L149.576 285.12
L149.712 280.005
L149.848 292.032
L149.984 285.12
L151.345 285.12
L151.481 281.664
L151.617 285.12
L151.753 285.12
L151.889 281.664
L152.57 281.664
L152.706 285.12
L153.522 285.12
L153.795 274.752
L155.292 283.461
L155.428 280.005
L155.564 280.005
L155.7 281.664
L156.38 281.664
L156.517 274.752
L157.333 274.752
L157.469 269.914
L157.741 254.273
L158.558 235.077
L158.966 243.648
L159.239 243.648
L159.511 260.928
L159.919 271.296
L160.055 264.384
L160.463 285.12
L161.008 271.296
L161.144 271.296
L161.28 285.12
L161.416 285.12
L161.824 288.576
L161.96 281.664
L162.777 285.12
L163.049 285.12
L163.185 288.576
L163.321 285.12
L163.73 288.576
L163.866 281.664
L164.002 285.12
L164.274 280.005
L165.091 336.96
L165.227 326.592
L168.629 326.592
L168.765 333.504
L168.901 333.504
L169.038 331.43
L169.446 333.504
L169.582 326.592
L169.718 326.592
L170.671 323.136
L170.807 336.96
L170.943 330.048
L171.623 330.048
L171.76 336.96
L171.896 330.048
L173.393 323.136
L173.529 323.136
L174.209 330.048
L174.345 316.224
L175.298 316.224
L175.434 314.427
L175.57 319.68
L176.115 316.224
L176.251 302.4
L178.292 312.768
L178.973 309.312
L179.109 309.312
L179.245 302.4
L179.925 302.4
L180.061 305.856
L180.198 292.032
L180.334 305.856
L180.878 305.856
L181.422 302.4
L181.831 305.856
L181.967 305.856
L182.103 302.4
L183.328 302.4
L183.736 305.856
L183.872 302.4
L184.008 302.4
L184.144 293.829
L184.28 302.4
L184.961 302.4
L185.097 305.856
L185.233 305.856
L185.641 302.4
L185.778 298.944
L185.914 298.944
L186.05 295.488
L186.594 302.4
L186.73 302.4
L186.866 301.709
L187.002 300.326
L187.139 300.741
L187.547 295.488
L187.683 298.944
L187.955 298.944
L188.5 295.488
L188.636 295.488
L188.772 298.944
L189.724 298.944
L190.405 302.4
L190.541 298.944
L191.494 298.944
L191.63 295.488
L191.766 281.664
L191.902 281.664
L192.31 274.752
L192.446 281.664
L192.719 281.664
L192.991 277.056
L193.263 274.752
L193.399 278.208
L193.535 274.752
L193.807 274.752
L194.216 281.664
L194.352 281.664
L194.488 278.208
L194.624 260.928
L194.76 260.928
L195.44 281.664
L195.577 281.664
L195.713 278.208
L196.257 278.208
L196.393 281.664
L196.529 278.208
L196.665 278.208
L196.938 257.472
L197.618 257.472
L197.754 243.648
L197.89 243.648
L198.026 257.472
L198.162 254.016
L198.571 278.208
L199.251 278.208
L199.387 288.576
L199.523 281.664
L199.66 281.664
L199.932 243.648
L200.204 274.752
L200.34 274.752
L200.476 285.12
L201.02 285.12
L201.565 267.84
L201.701 236.736
L201.837 274.752
L201.973 281.664
L202.109 278.208
L202.245 278.208
L202.926 271.296
L203.334 278.208
L203.47 278.208
L203.606 276.826
L203.742 271.296
L204.015 271.296
L204.151 278.208
L204.287 278.208
L204.423 271.296
L204.559 278.208
L204.695 264.384
L204.831 271.296
L205.512 271.296
L205.648 274.752
L205.784 264.384
L205.92 278.208
L206.6 278.208
L206.737 257.472
L206.873 264.384
L207.009 259.269
L207.145 267.84
L207.553 271.296
L207.689 257.472
L207.825 264.384
L207.961 257.472
L208.098 257.472
L208.506 274.752
L208.642 271.296
L210.003 271.296
L210.683 269.637
L210.82 267.149
L210.956 274.752
L211.364 274.752
L211.5 278.208
L211.636 285.12
L211.772 278.208
L211.908 278.208
L212.044 271.296
L212.589 271.296
L212.861 281.664
L213.269 292.032
L213.405 292.032
L213.541 305.856
L213.95 305.856
L214.358 312.768
L214.63 312.768
L214.766 311.386
L214.902 311.386
L215.039 312.768
L215.175 311.386
L215.311 312.768
L215.719 312.768
L215.855 310.694
L215.991 312.768
L216.672 312.768
L216.808 311.386
L216.944 312.768
L218.169 312.768
L218.305 313.459
L218.441 312.768
L218.713 312.768
L218.849 314.15
L218.985 312.768
L219.938 312.768
L220.074 305.856
L220.346 305.856
L220.619 316.224
L220.755 319.68
L221.843 319.68
L221.98 316.224
L222.116 316.224
L222.252 319.68
L223.613 319.68
L223.749 312.768
L224.157 323.136
L224.293 319.68
L224.429 323.136
L224.565 319.68
L224.701 319.68
L224.838 323.136
L224.974 319.68
L225.11 326.592
L225.246 326.592
L225.518 323.136
L225.654 327.974
L225.79 326.592
L225.926 327.974
L226.062 319.68
L226.335 327.974
L226.471 325.21
L226.607 330.048
L226.879 323.136
L227.015 326.592
L227.56 327.974
L227.696 326.592
L227.832 328.389
L227.968 328.666
L228.104 330.048
L228.24 326.592
L228.376 326.592
L228.512 328.666
L228.648 327.974
L228.784 329.357
L228.92 328.666
L229.057 329.357
L229.193 328.666
L229.329 329.357
L229.465 329.357
L229.601 330.048
L229.737 330.048
L230.009 328.666
L230.145 333.504
L230.281 333.919
L230.418 336.269
L230.554 343.872
L230.69 344.563
L230.826 350.784
L230.962 344.563
L231.098 350.784
L231.234 336.96
L231.37 349.125
L231.506 340.416
L231.779 350.784
L231.915 343.181
L232.051 347.328
L232.187 347.328
L232.323 343.872
L232.595 349.125
L232.731 350.784
L232.867 347.328
L233.003 347.328
L233.14 350.784
L233.276 357.696
L233.548 357.696
L233.684 354.24
L234.228 354.24
L234.364 350.784
L234.773 350.784
L234.909 354.24
L235.181 354.24
L235.317 350.784
L235.453 354.24
L235.861 336.96
L235.998 345.669
L236.134 343.872
L236.27 347.328
L236.406 347.328
L236.542 319.68
L236.814 330.048
L236.95 323.136
L237.086 323.136
L237.222 326.592
L237.767 326.592
L238.039 340.416
L238.175 340.416
L238.311 327.974
L238.447 326.592
L238.583 326.592
L238.992 323.136
L239.128 326.592
L239.536 326.592
L239.944 325.901
L240.08 328.251
L240.217 326.592
L240.353 333.504
L240.489 333.504
L240.625 323.136
L240.897 333.504
L241.033 333.504
L241.305 319.68
L241.578 321.754
L241.85 323.136
L241.986 330.048
L242.258 330.048
L242.394 326.592
L243.211 326.592
L243.347 329.357
L243.755 326.592
L244.163 326.592
L244.3 328.666
L244.708 326.592
L244.844 333.504
L244.98 326.592
L245.524 326.592
L245.66 327.974
L245.797 327.974
L245.933 326.592
L246.069 327.283
L246.205 333.504
L246.341 326.592
L246.477 326.592
L246.613 336.96
L246.749 333.504
L246.885 333.504
L247.021 323.136
L247.158 326.592
L247.294 319.68
L247.566 333.504
L247.702 323.136
L247.838 323.136
L248.11 336.096
L248.519 343.872
L248.655 327.974
L248.791 330.048
L248.927 330.048
L249.063 328.389
L249.199 323.136
L249.335 328.389
L249.471 319.68
L249.607 328.389
L249.743 328.389
L249.88 340.416
L250.016 340.416
L250.152 328.389
L250.288 330.048
L250.424 330.048
L250.56 331.845
L250.696 328.666
L250.832 328.666
L250.968 329.357
L251.377 328.389
L251.513 333.504
L251.921 321.062
L252.057 321.477
L252.193 323.136
L252.601 323.136
L252.738 333.504
L253.01 323.136
L253.146 326.592
L253.282 323.136
L253.418 330.048
L253.554 330.048
L253.69 323.136
L253.826 330.048
L253.962 323.136
L254.099 326.592
L254.235 323.136
L254.371 330.048
L254.507 330.048
L254.643 318.298
L254.779 318.989
L254.915 323.136
L255.46 323.136
L255.732 319.68
L255.868 323.136
L256.004 323.136
L256.14 326.592
L256.684 326.592
L256.82 325.21
L257.501 331.2
L257.773 333.504
L258.045 326.592
L258.318 326.592
L258.726 318.021
L258.998 318.021
L259.134 319.68
L259.27 312.768
L259.951 316.224
L260.631 316.224
L260.767 312.768
L261.04 320.371
L261.176 326.592
L261.856 326.592
L261.992 336.96
L262.128 326.592
L262.264 326.592
L262.4 323.136
L262.945 323.136
L263.081 326.592
L264.306 326.592
L264.714 325.901
L264.85 326.592
L264.986 326.592
L265.803 321.754
L265.939 319.68
L266.075 326.592
L266.211 323.136
L266.347 326.592
L266.62 326.592
L266.756 312.768
L266.892 312.768
L267.028 316.224
L267.436 316.224
L267.572 312.768
L267.98 312.768
L268.117 326.592
L269.069 326.592
L269.205 330.048
L269.478 328.389
L270.022 339.034
L270.43 336.96
L270.566 340.416
L270.702 336.96
L270.839 340.416
L270.975 340.416
L271.247 333.504
L271.519 340.416
L271.655 326.592
L271.791 333.504
L271.927 326.592
L272.336 333.504
L272.472 330.048
L272.744 330.048
L272.88 326.592
L273.016 330.048
L273.152 330.048
L273.56 326.592
L274.785 326.592
L275.194 330.048
L275.602 330.048
L275.738 333.504
L276.146 326.592
L276.282 326.592
L276.419 325.901
L276.555 326.592
L276.691 323.136
L277.099 326.592
L277.916 326.592
L278.052 324.933
L278.188 267.84
L278.324 274.752
L278.46 274.752
L278.596 271.296
L279.004 278.208
L279.277 278.208
L279.549 260.928
L279.685 278.208
L279.821 278.208
L279.957 257.472
L280.229 257.472
L280.365 264.384
L280.501 264.384
L280.774 271.296
L280.91 267.84
L281.046 267.84
L281.182 271.296
L281.318 260.928
L281.454 260.928
L281.59 250.56
L281.726 253.325
L281.862 251.942
L281.999 260.928
L282.271 260.928
L282.407 257.472
L282.543 260.928
L282.815 260.928
L282.951 274.752
L283.087 274.752
L283.223 271.296
L283.36 278.208
L283.496 273.37
L283.632 274.752
L283.904 274.752
L284.04 278.208
L284.312 278.208
L284.72 271.296
L284.857 274.752
L284.993 267.84
L285.129 267.84
L285.265 278.208
L285.809 278.208
L285.945 271.296
L286.081 281.664
L286.218 271.296
L286.626 271.296
L286.762 264.384
L286.898 267.84
L287.034 264.384
L287.17 264.384
L287.579 257.472
L287.715 267.84
L287.851 257.472
L287.987 264.384
L289.484 264.384
L289.62 257.472
L289.756 264.384
L289.892 250.56
L290.028 257.472
L290.437 257.472
L290.573 256.781
L290.709 248.486
L290.981 257.472
L291.253 257.472
L291.525 243.648
L291.661 257.472
L291.934 257.472
L292.342 264.384
L292.478 257.472
L293.295 257.472
L293.431 250.56
L293.839 257.472
L294.111 257.472
L294.247 236.736
L294.383 233.28
L294.52 243.648
L294.656 236.736
L295.2 233.971
L295.336 222.912
L295.744 232.589
L295.88 231.621
L296.017 231.898
L296.153 232.589
L296.289 231.206
L296.425 239.501
L297.378 225.677
L298.194 260.928
L298.33 260.928
L298.466 246.413
L298.602 246.413
L299.011 221.53
L299.147 220.147
L299.963 220.147
L300.1 227.059
L300.236 221.53
L300.372 221.53
L300.508 220.147
L300.644 216
L300.78 216
L301.052 201.485
L301.188 201.485
L301.324 200.794
L301.46 200.794
L301.869 200.102
L302.005 202.176
L302.277 200.102
L302.413 202.176
L302.821 181.44
L303.23 210.47
L303.366 210.47
L303.774 209.088
L303.91 207.014
L304.046 207.014
L304.455 195.264
L304.727 192.499
L305.135 209.088
L306.768 191.117
L306.904 188.352
L307.04 191.808
L307.177 191.808
L307.585 195.264
L307.721 188.352
L307.857 188.352
L308.129 192.499
L308.538 188.352
L309.762 188.352
L309.899 181.44
L310.035 191.117
L310.443 188.352
L310.579 188.352
L310.715 195.264
L310.851 195.264
L310.987 236.736
L311.668 264.384
L311.804 264.384
L311.94 222.912
L312.62 222.912
L312.757 217.382
L312.893 218.765
L313.301 250.56
L313.437 243.648
L313.709 195.264
L313.981 233.28
L314.254 254.016
L314.39 250.56
L315.615 267.84
L316.159 250.56
L316.431 250.56
L316.567 254.016
L316.703 298.944
L317.112 295.488
L317.248 298.944
L317.656 292.032
L318.609 292.032
L318.745 298.944
L318.881 295.488
L319.425 298.944
L319.834 282.816
L319.97 278.208
L320.106 298.944
L320.242 298.944
L320.378 292.032
L320.514 303.091
L320.65 303.091
L320.786 298.944
L321.059 305.165
L321.195 292.032
L321.603 292.032
L321.739 302.4
L321.875 301.709
L322.147 301.709
L322.283 298.944
L322.42 292.032
L322.556 302.4
L322.964 300.326
L323.1 312.768
L323.236 312.768
L323.372 305.856
L323.917 319.68
L324.325 310.003
L324.461 310.003
L324.733 304.474
L324.869 304.474
L325.005 300.326
L325.278 303.091
L325.55 301.709
L325.958 312.768
L326.094 309.312
L326.23 309.312
L326.639 305.856
L326.775 307.238
L326.911 306.547
L327.047 312.768
L327.183 310.003
L327.319 302.4
L327.455 301.709
L327.591 298.944
L327.727 305.856
L327.863 305.856
L328 306.547
L328.136 295.488
L328.272 297.562
L328.408 297.562
L328.544 295.488
L329.633 295.488
L329.769 297.562
L329.905 295.488
L330.041 301.709
L330.449 298.944
L331.402 298.944
L331.538 290.65
L331.674 296.179
L331.81 288.576
L331.946 294.797
L332.355 279.59
L332.491 281.664
L332.899 279.59
L333.307 289.267
L333.443 288.576
L333.58 287.194
L333.716 288.576
L333.988 288.576
L334.124 281.664
L334.26 282.355
L334.396 282.355
L334.532 274.752
L334.668 274.752
L334.94 289.267
L335.757 286.502
L335.893 285.12
L336.029 288.576
L336.165 287.885
L336.301 290.65
L336.438 285.811
L336.574 288.576
L336.71 300.326
L337.118 298.944
L337.254 298.944
L337.39 296.87
L337.526 300.326
L337.662 295.488
L338.479 300.326
L338.615 300.326
L338.751 302.4
L339.023 302.4
L339.16 298.944
L339.432 302.4
L339.84 250.56
L339.976 292.032
L340.248 281.664
L340.384 288.576
L341.065 288.576
L341.201 286.917
L341.337 271.296
L341.473 298.944
L341.609 283.738
L341.745 283.046
L342.154 295.488
L342.29 298.944
L342.426 292.032
L342.834 295.488
L342.97 278.899
L343.515 290.419
L343.787 294.106
L343.923 292.032
L344.195 292.032
L344.331 288.576
L344.74 288.576
L345.284 292.032
L345.556 302.4
L345.828 297.562
L345.964 298.944
L346.237 298.944
L346.645 292.032
L346.781 302.4
L346.917 298.944
L347.053 302.4
L347.325 302.4
L347.461 301.709
L348.006 289.958
L348.278 302.4
L348.414 305.856
L348.686 305.856
L349.095 298.944
L349.231 298.944
L349.367 302.4
L349.503 302.4
L349.639 301.709
L349.775 302.4
L349.911 319.68
L350.047 312.768
L350.183 312.768
L350.32 319.68
L350.456 319.68
L350.592 326.592
L350.728 316.224
L350.864 323.136
L351 322.168
L351.408 316.224
L351.953 316.224
L352.361 314.842
L352.497 318.021
L352.769 312.768
L352.905 319.68
L353.314 316.224
L353.45 319.68
L353.586 319.68
L353.722 314.565
L353.858 318.298
L354.13 298.944
L354.266 295.488
L354.402 297.562
L354.539 297.562
L354.675 271.296
L354.811 298.944
L354.947 294.797
L355.083 295.488
L355.219 301.709
L355.491 298.944
L356.308 274.752
L356.444 285.12
L356.716 285.12
L357.124 288.576
L357.669 282.948
L358.349 277.517
L358.485 278.208
L358.758 264.384
L359.03 278.208
L359.166 243.648
L359.302 250.56
L359.574 222.912
L361.343 229.824
L361.48 231.898
L361.888 251.942
L362.024 252.357
L362.568 260.237
L362.84 264.384
L362.977 278.208
L364.065 271.296
L364.201 271.296
L364.338 274.752
L364.474 271.296
L364.61 278.208
L364.746 278.208
L364.882 257.472
L365.018 271.296
L365.154 271.296
L365.29 260.928
L365.426 285.12
L365.562 285.12
L365.699 257.472
L366.107 292.032
L366.243 274.752
L366.651 285.12
L366.787 292.032
L366.923 285.12
L367.468 285.12
L367.604 305.856
L368.012 305.856
L368.148 304.474
L368.284 305.856
L368.693 305.856
L368.829 305.165
L369.101 312.768
L369.237 305.165
L369.373 303.782
L369.645 303.782
L369.781 301.709
L369.918 302.4
L370.054 318.989
L370.598 314.15
L370.734 314.842
L370.87 309.312
L371.006 312.768
L371.415 305.856
L371.551 292.032
L372.095 292.032
L372.367 295.488
L372.503 295.488
L372.64 292.032
L372.776 298.944
L372.912 298.944
L373.184 285.12
L373.32 292.032
L373.456 292.032
L373.592 298.944
L373.728 294.106
L373.864 298.944
L374 298.944
L374.137 295.488
L374.273 298.944
L374.409 292.032
L374.545 295.488
L374.681 292.032
L374.817 292.032
L374.953 295.488
L375.089 295.488
L375.225 292.032
L375.361 292.032
L375.498 293.829
L375.634 293.414
L376.042 298.944
L376.314 296.87
L376.45 297.562
L376.586 295.488
L376.722 295.488
L377.131 293.414
L377.403 298.944
L377.539 290.65
L377.675 291.341
L378.356 298.944
L378.492 295.488
L378.628 297.562
L379.036 290.373
L379.172 292.032
L380.533 292.032
L380.669 288.576
L381.078 288.576
L381.214 290.373
L381.35 288.576
L381.486 292.032
L381.894 285.12
L382.439 285.12
L382.711 280.973
L382.847 285.12
L382.983 285.12
L383.119 267.84
L383.255 265.766
L383.527 265.766
L383.663 267.84
L384.072 268.531
L384.208 269.914
L384.344 269.914
L384.752 267.84
L385.024 267.84
L385.297 278.208
L385.705 273.093
L386.113 276.826
L386.249 274.476
L386.385 276.549
L386.521 276.826
L386.658 271.296
L386.794 282.355
L386.93 278.208
L387.066 278.208
L387.338 274.061
L387.474 274.752
L387.61 274.752
L387.746 275.443
L387.882 274.061
L388.019 274.752
L388.155 278.208
L388.835 278.208
L388.971 276.134
L389.107 277.24
L389.243 276.826
L389.652 278.208
L389.788 276.826
L389.924 278.208
L390.06 281.664
L390.332 278.208
L390.468 280.973
L390.604 280.005
L390.74 274.752
L390.877 278.899
L391.693 281.664
L392.374 274.752
L392.782 274.752
L392.918 271.296
L393.462 274.752
L393.599 274.752
L393.735 278.208
L393.871 278.208
L394.279 285.12
L394.415 285.12
L394.551 283.461
L394.823 290.373
L395.368 302.4
L395.504 303.091
L395.64 298.944
L396.048 297.562
L396.184 298.944
L396.32 295.488
L396.457 296.179
L396.593 298.944
L396.865 289.958
L397.273 290.65
L397.409 290.65
L397.545 290.373
L398.09 305.856
L398.226 301.018
L398.362 305.856
L398.498 305.856
L398.634 298.944
L398.906 298.944
L399.042 305.856
L400.267 305.856
L400.676 295.488
L400.812 298.944
L400.948 292.032
L401.084 302.4
L401.22 300.326
L401.356 305.856
L401.492 305.856
L401.628 298.944
L401.764 305.856
L401.9 298.944
L402.037 298.253
L402.173 292.032
L402.445 292.032
L402.581 295.488
L402.853 288.576
L403.125 298.253
L403.398 305.856
L403.534 302.4
L403.67 305.856
L404.078 302.4
L404.214 298.944
L404.35 300.741
L404.486 298.944
L404.759 298.944
L404.895 302.4
L405.031 302.4
L405.167 300.741
L405.303 301.709
L405.711 294.797
L405.847 305.856
L406.664 305.856
L406.8 294.797
L406.936 298.944
L407.072 312.768
L407.208 305.856
L407.344 307.238
L407.48 305.856
L407.753 301.709
L408.161 311.386
L408.297 305.856
L408.433 309.312
L408.569 305.856
L408.705 305.856
L408.841 307.238
L408.978 305.856
L409.25 310.464
L409.522 312.768
L409.658 311.109
L409.794 311.109
L410.066 330.048
L410.475 330.048
L410.611 326.592
L410.747 330.739
L411.019 332.122
L411.155 334.61
L411.291 334.886
L411.427 333.504
L411.563 333.504
L411.7 327.974
L411.836 328.666
L412.244 305.856
L412.38 316.224
L412.516 339.034
L412.652 340.416
L412.788 340.416
L412.924 339.034
L413.06 333.504
L413.197 334.886
L413.469 340.416
L413.741 341.798
L413.877 333.504
L414.013 344.563
L414.149 335.578
L414.285 340.416
L414.421 337.651
L414.558 339.034
L414.694 336.96
L414.83 337.651
L415.51 319.68
L415.782 336.96
L416.327 312.768
L416.463 323.136
L416.599 316.224
L417.007 323.136
L417.143 298.944
L417.688 298.944
L417.824 302.4
L417.96 298.944
L418.64 298.944
L418.913 216
L419.049 292.032
L419.185 292.032
L419.729 319.68
L420.001 297.792
L420.274 288.576
L420.41 295.488
L420.546 312.768
L420.682 298.944
L420.954 316.224
L421.226 303.552
L421.499 298.944
L421.635 305.856
L421.771 302.4
L421.907 312.768
L422.043 309.312
L422.179 309.312
L422.315 312.768
L422.723 312.768
L422.996 305.856
L423.132 305.856
L423.268 309.312
L423.404 318.298
L423.676 312.768
L423.812 312.768
L423.948 298.944
L424.357 298.944
L424.493 302.4
L424.629 298.944
L426.126 298.944
L426.262 303.091
L426.398 301.709
L426.67 303.091
L426.806 298.944
L426.942 285.12
L427.079 288.576
L427.215 288.576
L427.351 287.885
L427.487 288.576
L427.895 271.296
L428.44 257.472
L428.712 257.472
L428.848 236.736
L428.984 238.118
L429.12 236.736
L429.528 236.736
L429.664 233.28
L429.8 236.736
L429.937 243.648
L430.073 240.192
L430.209 254.016
L430.345 250.56
L430.481 236.46
L430.617 236.736
L430.753 243.648
L430.889 240.192
L431.025 247.104
L431.161 243.648
L431.434 243.648
L431.706 247.795
L431.842 236.736
L432.114 245.952
L432.386 250.56
L432.522 243.648
L432.659 243.648
L432.795 247.104
L432.931 243.648
L433.747 243.648
L434.292 229.824
L434.428 229.824
L434.564 240.192
L434.7 229.824
L434.836 229.824
L435.244 228.442
L435.38 243.648
L435.653 243.648
L435.789 236.736
L435.925 240.192
L436.333 240.192
L436.469 243.648
L436.605 243.648
L436.741 236.736
L437.15 243.648
L437.286 240.192
L437.422 243.648
L437.558 241.989
L437.694 243.648
L437.83 240.192
L437.966 243.648
L438.102 241.574
L438.239 243.648
L438.375 243.648
L438.511 242.266
L438.647 243.648
L438.783 236.736
L438.919 243.648
L439.191 226.368
L439.327 240.192
L439.463 236.736
L439.6 240.192
L439.736 236.736
L439.872 240.192
L440.28 236.736
L440.416 239.501
L440.552 216
L440.96 229.824
L441.233 195.264
L441.369 222.912
L441.641 212.544
L441.777 216
L441.913 212.544
L442.049 212.544
L442.185 216
L442.321 202.176
L442.458 209.088
L442.594 198.72
L442.73 198.72
L442.866 191.808
L443.002 198.72
L443.138 250.56
L443.546 195.264
L443.682 205.632
L444.091 192.96
L444.363 181.44
L444.635 216
L444.771 198.72
L444.907 205.632
L445.043 203.973
L445.452 191.808
L445.588 202.176
L445.724 198.029
L445.86 202.176
L446.132 202.176
L446.404 191.808
L446.54 188.352
L446.677 233.28
L446.813 233.28
L446.949 229.824
L447.221 212.544
L447.357 209.088
L447.493 202.176
L447.629 209.088
L447.901 209.088
L448.31 216
L448.446 209.088
L448.582 219.456
L448.854 219.456
L449.126 209.088
L449.262 226.368
L449.535 195.264
L449.807 216
L449.943 212.544
L450.079 216
L450.487 216
L450.623 226.368
L450.76 216
L450.896 216
L451.304 212.544
L451.44 236.736
L451.576 226.368
L451.712 226.368
L451.848 222.912
L451.984 229.824
L452.393 229.824
L452.529 233.28
L452.665 222.912
L452.801 222.912
L452.937 216
L453.073 228.165
L453.345 219.456
L453.481 219.456
L453.618 218.074
L453.754 229.824
L453.89 216
L454.026 216
L454.162 218.765
L454.298 216
L454.434 217.382
L454.57 216
L454.842 233.28
L454.979 219.456
L455.115 218.765
L455.251 219.456
L455.387 219.456
L455.523 222.912
L455.659 219.456
L455.795 221.53
L455.931 226.368
L456.34 224.294
L456.476 220.147
L456.612 226.368
L456.748 219.456
L456.884 220.147
L457.02 219.456
L457.156 220.838
L457.292 216
L457.428 226.368
L457.564 222.912
L457.7 216
L458.109 216.691
L458.245 216
L459.061 216
L459.198 236.736
L459.47 236.736
L459.606 229.824
L460.422 229.824
L460.559 222.912
L460.831 227.059
L460.967 229.824
L461.103 226.368
L461.239 243.648
L461.375 229.824
L461.511 236.736
L462.056 236.736
L462.192 233.28
L462.328 236.736
L462.736 257.472
L462.872 229.824
L463.008 250.56
L463.28 252.689
L463.825 254.016
L463.961 257.472
L464.505 254.016
L464.641 254.016
L464.778 222.912
L464.914 243.648
L465.322 243.648
L465.73 247.104
L465.866 236.736
L466.002 271.296
L466.139 267.84
L466.275 267.84
L466.411 243.648
L466.819 236.736
L466.955 240.192
L467.091 236.736
L467.227 260.928
L467.363 264.384
L467.5 250.56
L467.636 260.928
L467.772 285.12
L467.908 278.208
L468.044 264.384
L468.18 278.208
L468.588 267.84
L468.724 271.296
L468.86 271.296
L468.997 278.208
L469.133 292.032
L469.405 281.664
L469.541 285.12
L469.677 285.12
L469.813 288.576
L469.949 285.12
L470.085 285.12
L470.358 280.973
L470.494 290.65
L470.63 285.12
L470.766 285.12
L470.902 295.488
L471.038 296.87
L471.174 292.032
L471.31 298.944
L471.446 292.032
L471.582 293.829
L471.719 298.944
L471.991 298.944
L472.127 292.032
L472.535 292.032
L472.807 309.312
L473.08 288.576
L473.216 292.032
L473.352 292.032
L473.488 288.576
L473.624 292.032
L473.76 298.944
L474.032 290.373
L474.168 290.65
L474.44 289.267
L474.577 298.944
L474.713 292.032
L474.849 298.944
L474.985 297.285
L475.121 298.944
L475.257 288.576
L475.393 292.032
L475.529 290.373
L475.665 290.65
L475.938 281.664
L476.074 286.502
L476.482 264.384
L476.618 292.032
L476.754 292.032
L476.89 278.208
L477.026 285.12
L477.435 271.296
L477.571 271.296
L477.707 264.384
L477.979 236.736
L478.251 257.472
L478.387 250.56
L478.66 250.56
L478.796 243.648
L478.932 243.648
L479.068 236.736
L479.204 243.648
L479.34 236.736
L479.476 247.104
L479.612 243.648
L479.748 243.648
L479.884 250.56
L480.02 236.736
L480.157 243.648
L480.565 233.28
L480.701 216
L480.973 212.544
L481.109 216
L481.245 216
L481.79 229.824
L482.062 222.912
L482.198 226.368
L482.334 222.912
L482.606 233.28
L482.742 233.28
L482.879 222.912
L483.015 226.368
L483.151 222.912
L483.287 229.824
L483.423 222.912
L483.559 222.912
L483.831 236.736
L483.967 236.736
L484.103 226.368
L484.24 236.736
L484.648 236.736
L484.784 229.824
L484.92 236.736
L485.056 229.824
L485.192 231.621
L485.328 229.824
L485.6 219.456
L485.873 226.368
L486.009 233.28
L486.281 224.986
L486.417 236.736
L486.553 229.824
L486.825 229.824
L486.961 226.368
L487.098 226.368
L487.234 229.824
L487.37 209.088
L487.642 216
L487.914 229.824
L488.186 222.912
L488.595 229.824
L488.867 222.912
L489.003 226.368
L489.139 222.912
L489.547 236.736
L489.683 222.912
L490.5 229.824
L490.636 229.824
L490.772 226.368
L490.908 233.28
L491.18 233.28
L491.453 240.192
L491.725 226.368
L491.861 229.824
L491.997 226.368
L492.133 226.368
L492.269 227.059
L492.405 233.28
L492.541 229.824
L492.678 236.736
L492.814 236.736
L492.95 225.677
L493.63 232.589
L493.766 216
L493.902 229.824
L494.039 225.677
L494.175 226.368
L494.311 225.677
L494.447 229.824
L494.583 228.442
L494.719 225.677
L494.855 226.368
L495.127 219.456
L495.263 219.456
L495.4 212.544
L495.672 226.368
L495.808 216
L496.08 219.456
L496.216 216
L496.624 229.824
L496.897 219.456
L497.033 218.074
L497.169 219.456
L497.577 216
L497.713 219.456
L498.121 219.456
L498.258 216
L498.394 229.824
L498.53 222.912
L498.802 222.912
L498.938 221.253
L499.074 221.53
L499.21 222.912
L499.346 222.912
L499.482 216
L499.619 217.797
L499.755 217.797
L499.891 216
L500.027 217.382
L500.163 216
L500.299 217.382
L500.435 216
L500.571 216
L500.843 212.544
L501.116 214.341
L501.252 213.235
L501.388 209.088
L501.524 211.853
L501.66 205.632
L501.796 209.088
L501.932 209.088
L502.068 202.176
L502.204 205.632
L502.34 202.176
L502.477 202.176
L502.613 222.912
L502.749 222.912
L502.885 209.088
L503.021 209.088
L503.157 212.544
L503.293 209.088
L503.429 212.544
L503.701 191.808
L503.838 202.176
L503.974 185.587
L504.11 184.896
L504.654 198.72
L504.79 198.72
L504.926 188.352
L505.199 195.264
L505.471 184.896
L505.607 188.352
L505.879 183.514
L506.015 188.352
L506.151 188.352
L506.287 195.264
L506.696 186.094
L506.968 184.896
L507.104 84.672
L507.24 91.584
L507.376 84.672
L507.512 91.584
L507.784 77.76
L508.057 84.672
L508.193 91.584
L508.601 91.584
L508.737 98.496
L509.009 94.3488
L509.145 91.584
L509.554 95.04
L509.69 146.88
L509.826 119.232
L509.962 121.029
L510.37 160.704
L510.642 160.704
L511.051 136.512
L511.187 136.512
L511.323 139.968
L511.459 139.968
L511.595 181.44
L511.867 146.88
L512.003 143.424
L512.14 181.44
L512.276 181.44
L512.956 188.352
L513.092 181.44
L513.364 188.352
L513.5 195.264
L513.637 191.808
L513.909 174.528
L514.045 171.072
L514.181 174.528
L514.317 186.97
L514.453 188.352
L514.589 186.97
L514.725 192.499
L514.861 191.808
L514.998 188.352
L515.134 188.352
L515.27 229.824
L515.406 225.677
L515.542 229.824
L515.678 229.824
L515.814 222.912
L515.95 229.824
L516.086 229.824
L516.631 257.472
L516.767 249.178
L517.039 252.357
L517.175 250.56
L517.311 273.37
L517.447 275.443
L517.583 271.296
L517.72 216
L517.856 276.549
L518.128 274.752
L518.264 274.752
L518.4 280.005
L518.4 280.005" style="fill:none;stroke:#0000ff;"/>
   </g>
   <g id="line2d_3">
    <path clip-path="url(#p7ff5b81e1d)" d="
M451.984 218.677
L452.665 243.553
L453.481 249.712
L453.618 250.612
L454.298 241.955
L454.706 240.236
L455.251 240.258
L455.795 246.285
L456.476 242.547
L457.428 235.463
L457.973 234.015
L458.653 234.07
L459.061 234.362
L459.606 229.473
L460.15 230.513
L460.695 250.517
L461.239 251.972
L461.783 260.595
L462.328 257.577
L463.008 260.607
L463.417 261.297
L464.233 270.013
L464.914 276.469
L465.594 283.465
L466.139 277.357
L466.683 283.497
L467.227 276.511
L467.908 289.867
L468.316 293.733
L468.86 291.976
L469.405 282.787
L469.949 281.482
L470.494 287.281
L471.174 287.275
L471.582 287.063
L472.399 291.509
L472.671 292.527
L473.216 279.97
L473.76 280.342
L474.304 279.59
L474.849 280.867
L475.393 280.481
L476.21 280.685
L476.482 280.681
L477.026 278.357
L477.571 269.737
L478.115 271.294
L478.932 260.579
L479.476 256.215
L479.748 254.507
L480.565 241.295
L480.973 235.499
L481.381 233.839
L482.47 217.887
L483.015 217.2
L483.559 219.567
L484.103 224.144
L484.648 224.149
L485.464 216.299
L485.737 214.416
L486.281 216.212
L486.825 215.764
L487.506 211.497
L487.914 207.579
L488.595 210.608
L489.003 213.257
L489.547 226.121
L490.092 226.597
L490.636 226.235
L491.18 228.819
L491.725 223.218
L492.269 227.988
L493.222 227.291
L493.358 227.17
L494.039 215.792
L494.447 212.243
L494.991 213.155
L495.536 212.487
L496.216 206.31
L496.624 203.974
L497.169 207.511
L497.713 206.402
L498.258 220.032
L498.802 220.717
L499.346 216.211
L499.891 217.505
L500.435 215.166
L500.98 218.934
L501.524 213.229
L502.068 216.312
L502.613 212.282
L503.293 214.59
L503.701 215.153
L505.062 204.485
L505.879 195.718
L506.56 201.459
L506.968 203.666
L507.512 201.673
L508.057 195.744
L508.737 177.706
L509.145 171.572
L509.826 172.34
L510.234 172.349
L511.323 203.558
L512.003 198.715
L512.548 196.187
L512.956 193.589
L513.5 198.342
L514.045 217.777
L514.725 215.556
L515.406 211.701
L515.678 209.895
L516.222 227.185
L516.903 262.409
L517.447 274.424
L518.4 282.175
L518.4 282.175" style="fill:none;stroke:#ff0000;"/>
   </g>
   <g id="matplotlib.axis_1">
    <g id="xtick_1">
     <g id="line2d_4">
      <path clip-path="url(#p7ff5b81e1d)" d="
M116.776 388.8
L116.776 43.2" style="fill:none;stroke:#000000;stroke-dasharray:1.000000,3.000000;stroke-dashoffset:0.0;stroke-linecap:butt;stroke-width:0.5;"/>
     </g>
     <g id="line2d_5">
      <defs>
       <path d="
M0 0
L0 -4" id="mcb557df647" style="stroke:#000000;stroke-linecap:butt;stroke-width:0.5;"/>
      </defs>
      <g>
       <use style="stroke:#000000;stroke-linecap:butt;stroke-width:0.5;" x="116.776097561" xlink:href="#mcb557df647" y="388.8"/>
      </g>
     </g>
     <g id="line2d_6">
      <defs>
       <path d="
M0 0
L0 4" id="mdad270ee8e" style="stroke:#000000;stroke-linecap:butt;stroke-width:0.5;"/>
      </defs>
      <g>
       <use style="stroke:#000000;stroke-linecap:butt;stroke-width:0.5;" x="116.776097561" xlink:href="#mdad270ee8e" y="43.2"/>
      </g>
     </g>
     <g id="text_1">
      <!-- 2006 -->
      <defs>
       <path d="
M31.7812 66.4062
Q24.1719 66.4062 20.3281 58.9062
Q16.5 51.4219 16.5 36.375
Q16.5 21.3906 20.3281 13.8906
Q24.1719 6.39062 31.7812 6.39062
Q39.4531 6.39062 43.2812 13.8906
Q47.125 21.3906 47.125 36.375
Q47.125 51.4219 43.2812 58.9062
Q39.4531 66.4062 31.7812 66.4062
M31.7812 74.2188
Q44.0469 74.2188 50.5156 64.5156
Q56.9844 54.8281 56.9844 36.375
Q56.9844 17.9688 50.5156 8.26562
Q44.0469 -1.42188 31.7812 -1.42188
Q19.5312 -1.42188 13.0625 8.26562
Q6.59375 17.9688 6.59375 36.375
Q6.59375 54.8281 13.0625 64.5156
Q19.5312 74.2188 31.7812 74.2188" id="DejaVuSans-30"/>
       <path d="
M19.1875 8.29688
L53.6094 8.29688
L53.6094 0
L7.32812 0
L7.32812 8.29688
Q12.9375 14.1094 22.625 23.8906
Q32.3281 33.6875 34.8125 36.5312
Q39.5469 41.8438 41.4219 45.5312
Q43.3125 49.2188 43.3125 52.7812
Q43.3125 58.5938 39.2344 62.25
Q35.1562 65.9219 28.6094 65.9219
Q23.9688 65.9219 18.8125 64.3125
Q13.6719 62.7031 7.8125 59.4219
L7.8125 69.3906
Q13.7656 71.7812 18.9375 73
Q24.125 74.2188 28.4219 74.2188
Q39.75 74.2188 46.4844 68.5469
Q53.2188 62.8906 53.2188 53.4219
Q53.2188 48.9219 51.5312 44.8906
Q49.8594 40.875 45.4062 35.4062
Q44.1875 33.9844 37.6406 27.2188
Q31.1094 20.4531 19.1875 8.29688" id="DejaVuSans-32"/>
       <path d="
M33.0156 40.375
Q26.375 40.375 22.4844 35.8281
Q18.6094 31.2969 18.6094 23.3906
Q18.6094 15.5312 22.4844 10.9531
Q26.375 6.39062 33.0156 6.39062
Q39.6562 6.39062 43.5312 10.9531
Q47.4062 15.5312 47.4062 23.3906
Q47.4062 31.2969 43.5312 35.8281
Q39.6562 40.375 33.0156 40.375
M52.5938 71.2969
L52.5938 62.3125
Q48.875 64.0625 45.0938 64.9844
Q41.3125 65.9219 37.5938 65.9219
Q27.8281 65.9219 22.6719 59.3281
Q17.5312 52.7344 16.7969 39.4062
Q19.6719 43.6562 24.0156 45.9219
Q28.375 48.1875 33.5938 48.1875
Q44.5781 48.1875 50.9531 41.5156
Q57.3281 34.8594 57.3281 23.3906
Q57.3281 12.1562 50.6875 5.35938
Q44.0469 -1.42188 33.0156 -1.42188
Q20.3594 -1.42188 13.6719 8.26562
Q6.98438 17.9688 6.98438 36.375
Q6.98438 53.6562 15.1875 63.9375
Q23.3906 74.2188 37.2031 74.2188
Q40.9219 74.2188 44.7031 73.4844
Q48.4844 72.75 52.5938 71.2969" id="DejaVuSans-36"/>
      </defs>
      <g transform="translate(102.323597561 401.70625)scale(0.12 -0.12)">
       <use xlink:href="#DejaVuSans-32"/>
       <use x="63.623046875" xlink:href="#DejaVuSans-30"/>
       <use x="127.24609375" xlink:href="#DejaVuSans-30"/>
       <use x="190.869140625" xlink:href="#DejaVuSans-36"/>
      </g>
     </g>
    </g>
    <g id="xtick_2">
     <g id="line2d_7">
      <path clip-path="url(#p7ff5b81e1d)" d="
M166.452 388.8
L166.452 43.2" style="fill:none;stroke:#000000;stroke-dasharray:1.000000,3.000000;stroke-dashoffset:0.0;stroke-linecap:butt;stroke-width:0.5;"/>
     </g>
     <g id="line2d_8">
      <g>
       <use style="stroke:#000000;stroke-linecap:butt;stroke-width:0.5;" x="166.451707317" xlink:href="#mcb557df647" y="388.8"/>
      </g>
     </g>
     <g id="line2d_9">
      <g>
       <use style="stroke:#000000;stroke-linecap:butt;stroke-width:0.5;" x="166.451707317" xlink:href="#mdad270ee8e" y="43.2"/>
      </g>
     </g>
     <g id="text_2">
      <!-- 2007 -->
      <defs>
       <path d="
M8.20312 72.9062
L55.0781 72.9062
L55.0781 68.7031
L28.6094 0
L18.3125 0
L43.2188 64.5938
L8.20312 64.5938
z
" id="DejaVuSans-37"/>
      </defs>
      <g transform="translate(152.134207317 401.70625)scale(0.12 -0.12)">
       <use xlink:href="#DejaVuSans-32"/>
       <use x="63.623046875" xlink:href="#DejaVuSans-30"/>
       <use x="127.24609375" xlink:href="#DejaVuSans-30"/>
       <use x="190.869140625" xlink:href="#DejaVuSans-37"/>
      </g>
     </g>
    </g>
    <g id="xtick_3">
     <g id="line2d_10">
      <path clip-path="url(#p7ff5b81e1d)" d="
M216.127 388.8
L216.127 43.2" style="fill:none;stroke:#000000;stroke-dasharray:1.000000,3.000000;stroke-dashoffset:0.0;stroke-linecap:butt;stroke-width:0.5;"/>
     </g>
     <g id="line2d_11">
      <g>
       <use style="stroke:#000000;stroke-linecap:butt;stroke-width:0.5;" x="216.127317073" xlink:href="#mcb557df647" y="388.8"/>
      </g>
     </g>
     <g id="line2d_12">
      <g>
       <use style="stroke:#000000;stroke-linecap:butt;stroke-width:0.5;" x="216.127317073" xlink:href="#mdad270ee8e" y="43.2"/>
      </g>
     </g>
     <g id="text_3">
      <!-- 2008 -->
      <defs>
       <path d="
M31.7812 34.625
Q24.75 34.625 20.7188 30.8594
Q16.7031 27.0938 16.7031 20.5156
Q16.7031 13.9219 20.7188 10.1562
Q24.75 6.39062 31.7812 6.39062
Q38.8125 6.39062 42.8594 10.1719
Q46.9219 13.9688 46.9219 20.5156
Q46.9219 27.0938 42.8906 30.8594
Q38.875 34.625 31.7812 34.625
M21.9219 38.8125
Q15.5781 40.375 12.0312 44.7188
Q8.5 49.0781 8.5 55.3281
Q8.5 64.0625 14.7188 69.1406
Q20.9531 74.2188 31.7812 74.2188
Q42.6719 74.2188 48.875 69.1406
Q55.0781 64.0625 55.0781 55.3281
Q55.0781 49.0781 51.5312 44.7188
Q48 40.375 41.7031 38.8125
Q48.8281 37.1562 52.7969 32.3125
Q56.7812 27.4844 56.7812 20.5156
Q56.7812 9.90625 50.3125 4.23438
Q43.8438 -1.42188 31.7812 -1.42188
Q19.7344 -1.42188 13.25 4.23438
Q6.78125 9.90625 6.78125 20.5156
Q6.78125 27.4844 10.7812 32.3125
Q14.7969 37.1562 21.9219 38.8125
M18.3125 54.3906
Q18.3125 48.7344 21.8438 45.5625
Q25.3906 42.3906 31.7812 42.3906
Q38.1406 42.3906 41.7188 45.5625
Q45.3125 48.7344 45.3125 54.3906
Q45.3125 60.0625 41.7188 63.2344
Q38.1406 66.4062 31.7812 66.4062
Q25.3906 66.4062 21.8438 63.2344
Q18.3125 60.0625 18.3125 54.3906" id="DejaVuSans-38"/>
      </defs>
      <g transform="translate(201.707629573 401.70625)scale(0.12 -0.12)">
       <use xlink:href="#DejaVuSans-32"/>
       <use x="63.623046875" xlink:href="#DejaVuSans-30"/>
       <use x="127.24609375" xlink:href="#DejaVuSans-30"/>
       <use x="190.869140625" xlink:href="#DejaVuSans-38"/>
      </g>
     </g>
    </g>
    <g id="xtick_4">
     <g id="line2d_13">
      <path clip-path="url(#p7ff5b81e1d)" d="
M265.939 388.8
L265.939 43.2" style="fill:none;stroke:#000000;stroke-dasharray:1.000000,3.000000;stroke-dashoffset:0.0;stroke-linecap:butt;stroke-width:0.5;"/>
     </g>
     <g id="line2d_14">
      <g>
       <use style="stroke:#000000;stroke-linecap:butt;stroke-width:0.5;" x="265.93902439" xlink:href="#mcb557df647" y="388.8"/>
      </g>
     </g>
     <g id="line2d_15">
      <g>
       <use style="stroke:#000000;stroke-linecap:butt;stroke-width:0.5;" x="265.93902439" xlink:href="#mdad270ee8e" y="43.2"/>
      </g>
     </g>
     <g id="text_4">
      <!-- 2009 -->
      <defs>
       <path d="
M10.9844 1.51562
L10.9844 10.5
Q14.7031 8.73438 18.5 7.8125
Q22.3125 6.89062 25.9844 6.89062
Q35.75 6.89062 40.8906 13.4531
Q46.0469 20.0156 46.7812 33.4062
Q43.9531 29.2031 39.5938 26.9531
Q35.25 24.7031 29.9844 24.7031
Q19.0469 24.7031 12.6719 31.3125
Q6.29688 37.9375 6.29688 49.4219
Q6.29688 60.6406 12.9375 67.4219
Q19.5781 74.2188 30.6094 74.2188
Q43.2656 74.2188 49.9219 64.5156
Q56.5938 54.8281 56.5938 36.375
Q56.5938 19.1406 48.4062 8.85938
Q40.2344 -1.42188 26.4219 -1.42188
Q22.7031 -1.42188 18.8906 -0.6875
Q15.0938 0.046875 10.9844 1.51562
M30.6094 32.4219
Q37.25 32.4219 41.125 36.9531
Q45.0156 41.5 45.0156 49.4219
Q45.0156 57.2812 41.125 61.8438
Q37.25 66.4062 30.6094 66.4062
Q23.9688 66.4062 20.0938 61.8438
Q16.2188 57.2812 16.2188 49.4219
Q16.2188 41.5 20.0938 36.9531
Q23.9688 32.4219 30.6094 32.4219" id="DejaVuSans-39"/>
      </defs>
      <g transform="translate(251.53058689 401.70625)scale(0.12 -0.12)">
       <use xlink:href="#DejaVuSans-32"/>
       <use x="63.623046875" xlink:href="#DejaVuSans-30"/>
       <use x="127.24609375" xlink:href="#DejaVuSans-30"/>
       <use x="190.869140625" xlink:href="#DejaVuSans-39"/>
      </g>
     </g>
    </g>
    <g id="xtick_5">
     <g id="line2d_16">
      <path clip-path="url(#p7ff5b81e1d)" d="
M315.615 388.8
L315.615 43.2" style="fill:none;stroke:#000000;stroke-dasharray:1.000000,3.000000;stroke-dashoffset:0.0;stroke-linecap:butt;stroke-width:0.5;"/>
     </g>
     <g id="line2d_17">
      <g>
       <use style="stroke:#000000;stroke-linecap:butt;stroke-width:0.5;" x="315.614634146" xlink:href="#mcb557df647" y="388.8"/>
      </g>
     </g>
     <g id="line2d_18">
      <g>
       <use style="stroke:#000000;stroke-linecap:butt;stroke-width:0.5;" x="315.614634146" xlink:href="#mdad270ee8e" y="43.2"/>
      </g>
     </g>
     <g id="text_5">
      <!-- 2010 -->
      <defs>
       <path d="
M12.4062 8.29688
L28.5156 8.29688
L28.5156 63.9219
L10.9844 60.4062
L10.9844 69.3906
L28.4219 72.9062
L38.2812 72.9062
L38.2812 8.29688
L54.3906 8.29688
L54.3906 0
L12.4062 0
z
" id="DejaVuSans-31"/>
      </defs>
      <g transform="translate(301.182759146 401.70625)scale(0.12 -0.12)">
       <use xlink:href="#DejaVuSans-32"/>
       <use x="63.623046875" xlink:href="#DejaVuSans-30"/>
       <use x="127.24609375" xlink:href="#DejaVuSans-31"/>
       <use x="190.869140625" xlink:href="#DejaVuSans-30"/>
      </g>
     </g>
    </g>
    <g id="xtick_6">
     <g id="line2d_19">
      <path clip-path="url(#p7ff5b81e1d)" d="
M365.29 388.8
L365.29 43.2" style="fill:none;stroke:#000000;stroke-dasharray:1.000000,3.000000;stroke-dashoffset:0.0;stroke-linecap:butt;stroke-width:0.5;"/>
     </g>
     <g id="line2d_20">
      <g>
       <use style="stroke:#000000;stroke-linecap:butt;stroke-width:0.5;" x="365.290243902" xlink:href="#mcb557df647" y="388.8"/>
      </g>
     </g>
     <g id="line2d_21">
      <g>
       <use style="stroke:#000000;stroke-linecap:butt;stroke-width:0.5;" x="365.290243902" xlink:href="#mdad270ee8e" y="43.2"/>
      </g>
     </g>
     <g id="text_6">
      <!-- 2011 -->
      <g transform="translate(351.013993902 401.70625)scale(0.12 -0.12)">
       <use xlink:href="#DejaVuSans-32"/>
       <use x="63.623046875" xlink:href="#DejaVuSans-30"/>
       <use x="127.24609375" xlink:href="#DejaVuSans-31"/>
       <use x="190.869140625" xlink:href="#DejaVuSans-31"/>
      </g>
     </g>
    </g>
    <g id="xtick_7">
     <g id="line2d_22">
      <path clip-path="url(#p7ff5b81e1d)" d="
M414.966 388.8
L414.966 43.2" style="fill:none;stroke:#000000;stroke-dasharray:1.000000,3.000000;stroke-dashoffset:0.0;stroke-linecap:butt;stroke-width:0.5;"/>
     </g>
     <g id="line2d_23">
      <g>
       <use style="stroke:#000000;stroke-linecap:butt;stroke-width:0.5;" x="414.965853659" xlink:href="#mcb557df647" y="388.8"/>
      </g>
     </g>
     <g id="line2d_24">
      <g>
       <use style="stroke:#000000;stroke-linecap:butt;stroke-width:0.5;" x="414.965853659" xlink:href="#mdad270ee8e" y="43.2"/>
      </g>
     </g>
     <g id="text_7">
      <!-- 2012 -->
      <g transform="translate(400.736478659 401.70625)scale(0.12 -0.12)">
       <use xlink:href="#DejaVuSans-32"/>
       <use x="63.623046875" xlink:href="#DejaVuSans-30"/>
       <use x="127.24609375" xlink:href="#DejaVuSans-31"/>
       <use x="190.869140625" xlink:href="#DejaVuSans-32"/>
      </g>
     </g>
    </g>
    <g id="xtick_8">
     <g id="line2d_25">
      <path clip-path="url(#p7ff5b81e1d)" d="
M464.778 388.8
L464.778 43.2" style="fill:none;stroke:#000000;stroke-dasharray:1.000000,3.000000;stroke-dashoffset:0.0;stroke-linecap:butt;stroke-width:0.5;"/>
     </g>
     <g id="line2d_26">
      <g>
       <use style="stroke:#000000;stroke-linecap:butt;stroke-width:0.5;" x="464.777560976" xlink:href="#mcb557df647" y="388.8"/>
      </g>
     </g>
     <g id="line2d_27">
      <g>
       <use style="stroke:#000000;stroke-linecap:butt;stroke-width:0.5;" x="464.777560976" xlink:href="#mdad270ee8e" y="43.2"/>
      </g>
     </g>
     <g id="text_8">
      <!-- 2013 -->
      <defs>
       <path d="
M40.5781 39.3125
Q47.6562 37.7969 51.625 33
Q55.6094 28.2188 55.6094 21.1875
Q55.6094 10.4062 48.1875 4.48438
Q40.7656 -1.42188 27.0938 -1.42188
Q22.5156 -1.42188 17.6562 -0.515625
Q12.7969 0.390625 7.625 2.20312
L7.625 11.7188
Q11.7188 9.32812 16.5938 8.10938
Q21.4844 6.89062 26.8125 6.89062
Q36.0781 6.89062 40.9375 10.5469
Q45.7969 14.2031 45.7969 21.1875
Q45.7969 27.6406 41.2812 31.2656
Q36.7656 34.9062 28.7188 34.9062
L20.2188 34.9062
L20.2188 43.0156
L29.1094 43.0156
Q36.375 43.0156 40.2344 45.9219
Q44.0938 48.8281 44.0938 54.2969
Q44.0938 59.9062 40.1094 62.9062
Q36.1406 65.9219 28.7188 65.9219
Q24.6562 65.9219 20.0156 65.0312
Q15.375 64.1562 9.8125 62.3125
L9.8125 71.0938
Q15.4375 72.6562 20.3438 73.4375
Q25.25 74.2188 29.5938 74.2188
Q40.8281 74.2188 47.3594 69.1094
Q53.9062 64.0156 53.9062 55.3281
Q53.9062 49.2656 50.4375 45.0938
Q46.9688 40.9219 40.5781 39.3125" id="DejaVuSans-33"/>
      </defs>
      <g transform="translate(450.428185976 401.70625)scale(0.12 -0.12)">
       <use xlink:href="#DejaVuSans-32"/>
       <use x="63.623046875" xlink:href="#DejaVuSans-30"/>
       <use x="127.24609375" xlink:href="#DejaVuSans-31"/>
       <use x="190.869140625" xlink:href="#DejaVuSans-33"/>
      </g>
     </g>
    </g>
    <g id="xtick_9">
     <g id="line2d_28">
      <path clip-path="url(#p7ff5b81e1d)" d="
M514.453 388.8
L514.453 43.2" style="fill:none;stroke:#000000;stroke-dasharray:1.000000,3.000000;stroke-dashoffset:0.0;stroke-linecap:butt;stroke-width:0.5;"/>
     </g>
     <g id="line2d_29">
      <g>
       <use style="stroke:#000000;stroke-linecap:butt;stroke-width:0.5;" x="514.453170732" xlink:href="#mcb557df647" y="388.8"/>
      </g>
     </g>
     <g id="line2d_30">
      <g>
       <use style="stroke:#000000;stroke-linecap:butt;stroke-width:0.5;" x="514.453170732" xlink:href="#mdad270ee8e" y="43.2"/>
      </g>
     </g>
     <g id="text_9">
      <!-- 2014 -->
      <defs>
       <path d="
M37.7969 64.3125
L12.8906 25.3906
L37.7969 25.3906
z

M35.2031 72.9062
L47.6094 72.9062
L47.6094 25.3906
L58.0156 25.3906
L58.0156 17.1875
L47.6094 17.1875
L47.6094 0
L37.7969 0
L37.7969 17.1875
L4.89062 17.1875
L4.89062 26.7031
z
" id="DejaVuSans-34"/>
      </defs>
      <g transform="translate(499.959420732 401.70625)scale(0.12 -0.12)">
       <use xlink:href="#DejaVuSans-32"/>
       <use x="63.623046875" xlink:href="#DejaVuSans-30"/>
       <use x="127.24609375" xlink:href="#DejaVuSans-31"/>
       <use x="190.869140625" xlink:href="#DejaVuSans-34"/>
      </g>
     </g>
    </g>
   </g>
   <g id="matplotlib.axis_2">
    <g id="ytick_1">
     <g id="line2d_31">
      <path clip-path="url(#p7ff5b81e1d)" d="
M72 388.8
L518.4 388.8" style="fill:none;stroke:#000000;stroke-dasharray:1.000000,3.000000;stroke-dashoffset:0.0;stroke-linecap:butt;stroke-width:0.5;"/>
     </g>
     <g id="line2d_32">
      <defs>
       <path d="
M0 0
L4 0" id="mc8fcea1516" style="stroke:#000000;stroke-linecap:butt;stroke-width:0.5;"/>
      </defs>
      <g>
       <use style="stroke:#000000;stroke-linecap:butt;stroke-width:0.5;" x="72.0" xlink:href="#mc8fcea1516" y="388.8"/>
      </g>
     </g>
     <g id="line2d_33">
      <defs>
       <path d="
M0 0
L-4 0" id="m0d5b0a6425" style="stroke:#000000;stroke-linecap:butt;stroke-width:0.5;"/>
      </defs>
      <g>
       <use style="stroke:#000000;stroke-linecap:butt;stroke-width:0.5;" x="518.4" xlink:href="#m0d5b0a6425" y="388.8"/>
      </g>
     </g>
     <g id="text_10">
      <!-- 0 -->
      <g transform="translate(61.953125 393.1678125)scale(0.12 -0.12)">
       <use xlink:href="#DejaVuSans-30"/>
      </g>
     </g>
    </g>
    <g id="ytick_2">
     <g id="line2d_34">
      <path clip-path="url(#p7ff5b81e1d)" d="
M72 319.68
L518.4 319.68" style="fill:none;stroke:#000000;stroke-dasharray:1.000000,3.000000;stroke-dashoffset:0.0;stroke-linecap:butt;stroke-width:0.5;"/>
     </g>
     <g id="line2d_35">
      <g>
       <use style="stroke:#000000;stroke-linecap:butt;stroke-width:0.5;" x="72.0" xlink:href="#mc8fcea1516" y="319.68"/>
      </g>
     </g>
     <g id="line2d_36">
      <g>
       <use style="stroke:#000000;stroke-linecap:butt;stroke-width:0.5;" x="518.4" xlink:href="#m0d5b0a6425" y="319.68"/>
      </g>
     </g>
     <g id="text_11">
      <!-- 5 -->
      <defs>
       <path d="
M10.7969 72.9062
L49.5156 72.9062
L49.5156 64.5938
L19.8281 64.5938
L19.8281 46.7344
Q21.9688 47.4688 24.1094 47.8281
Q26.2656 48.1875 28.4219 48.1875
Q40.625 48.1875 47.75 41.5
Q54.8906 34.8125 54.8906 23.3906
Q54.8906 11.625 47.5625 5.09375
Q40.2344 -1.42188 26.9062 -1.42188
Q22.3125 -1.42188 17.5469 -0.640625
Q12.7969 0.140625 7.71875 1.70312
L7.71875 11.625
Q12.1094 9.23438 16.7969 8.0625
Q21.4844 6.89062 26.7031 6.89062
Q35.1562 6.89062 40.0781 11.3281
Q45.0156 15.7656 45.0156 23.3906
Q45.0156 31 40.0781 35.4375
Q35.1562 39.8906 26.7031 39.8906
Q22.75 39.8906 18.8125 39.0156
Q14.8906 38.1406 10.7969 36.2812
z
" id="DejaVuSans-35"/>
      </defs>
      <g transform="translate(62.339375 323.9690625)scale(0.12 -0.12)">
       <use xlink:href="#DejaVuSans-35"/>
      </g>
     </g>
    </g>
    <g id="ytick_3">
     <g id="line2d_37">
      <path clip-path="url(#p7ff5b81e1d)" d="
M72 250.56
L518.4 250.56" style="fill:none;stroke:#000000;stroke-dasharray:1.000000,3.000000;stroke-dashoffset:0.0;stroke-linecap:butt;stroke-width:0.5;"/>
     </g>
     <g id="line2d_38">
      <g>
       <use style="stroke:#000000;stroke-linecap:butt;stroke-width:0.5;" x="72.0" xlink:href="#mc8fcea1516" y="250.56"/>
      </g>
     </g>
     <g id="line2d_39">
      <g>
       <use style="stroke:#000000;stroke-linecap:butt;stroke-width:0.5;" x="518.4" xlink:href="#m0d5b0a6425" y="250.56"/>
      </g>
     </g>
     <g id="text_12">
      <!-- 10 -->
      <g transform="translate(54.845 254.9278125)scale(0.12 -0.12)">
       <use xlink:href="#DejaVuSans-31"/>
       <use x="63.623046875" xlink:href="#DejaVuSans-30"/>
      </g>
     </g>
    </g>
    <g id="ytick_4">
     <g id="line2d_40">
      <path clip-path="url(#p7ff5b81e1d)" d="
M72 181.44
L518.4 181.44" style="fill:none;stroke:#000000;stroke-dasharray:1.000000,3.000000;stroke-dashoffset:0.0;stroke-linecap:butt;stroke-width:0.5;"/>
     </g>
     <g id="line2d_41">
      <g>
       <use style="stroke:#000000;stroke-linecap:butt;stroke-width:0.5;" x="72.0" xlink:href="#mc8fcea1516" y="181.44"/>
      </g>
     </g>
     <g id="line2d_42">
      <g>
       <use style="stroke:#000000;stroke-linecap:butt;stroke-width:0.5;" x="518.4" xlink:href="#m0d5b0a6425" y="181.44"/>
      </g>
     </g>
     <g id="text_13">
      <!-- 15 -->
      <g transform="translate(55.09625 185.7290625)scale(0.12 -0.12)">
       <use xlink:href="#DejaVuSans-31"/>
       <use x="63.623046875" xlink:href="#DejaVuSans-35"/>
      </g>
     </g>
    </g>
    <g id="ytick_5">
     <g id="line2d_43">
      <path clip-path="url(#p7ff5b81e1d)" d="
M72 112.32
L518.4 112.32" style="fill:none;stroke:#000000;stroke-dasharray:1.000000,3.000000;stroke-dashoffset:0.0;stroke-linecap:butt;stroke-width:0.5;"/>
     </g>
     <g id="line2d_44">
      <g>
       <use style="stroke:#000000;stroke-linecap:butt;stroke-width:0.5;" x="72.0" xlink:href="#mc8fcea1516" y="112.32"/>
      </g>
     </g>
     <g id="line2d_45">
      <g>
       <use style="stroke:#000000;stroke-linecap:butt;stroke-width:0.5;" x="518.4" xlink:href="#m0d5b0a6425" y="112.32"/>
      </g>
     </g>
     <g id="text_14">
      <!-- 20 -->
      <g transform="translate(54.40625 116.6878125)scale(0.12 -0.12)">
       <use xlink:href="#DejaVuSans-32"/>
       <use x="63.623046875" xlink:href="#DejaVuSans-30"/>
      </g>
     </g>
    </g>
    <g id="ytick_6">
     <g id="line2d_46">
      <path clip-path="url(#p7ff5b81e1d)" d="
M72 43.2
L518.4 43.2" style="fill:none;stroke:#000000;stroke-dasharray:1.000000,3.000000;stroke-dashoffset:0.0;stroke-linecap:butt;stroke-width:0.5;"/>
     </g>
     <g id="line2d_47">
      <g>
       <use style="stroke:#000000;stroke-linecap:butt;stroke-width:0.5;" x="72.0" xlink:href="#mc8fcea1516" y="43.2"/>
      </g>
     </g>
     <g id="line2d_48">
      <g>
       <use style="stroke:#000000;stroke-linecap:butt;stroke-width:0.5;" x="518.4" xlink:href="#m0d5b0a6425" y="43.2"/>
      </g>
     </g>
     <g id="text_15">
      <!-- 25 -->
      <g transform="translate(54.6575 47.5678125)scale(0.12 -0.12)">
       <use xlink:href="#DejaVuSans-32"/>
       <use x="63.623046875" xlink:href="#DejaVuSans-35"/>
      </g>
     </g>
    </g>
   </g>
   <g id="patch_3">
    <path d="
M72 43.2
L518.4 43.2" style="fill:none;stroke:#000000;"/>
   </g>
   <g id="patch_4">
    <path d="
M518.4 388.8
L518.4 43.2" style="fill:none;stroke:#000000;"/>
   </g>
   <g id="patch_5">
    <path d="
M72 388.8
L518.4 388.8" style="fill:none;stroke:#000000;"/>
   </g>
   <g id="patch_6">
    <path d="
M72 388.8
L72 43.2" style="fill:none;stroke:#000000;"/>
   </g>
   <g id="text_16">
    <!--  -->
    <g transform="translate(295.2 -22.6589)scale(0.144 -0.144)"/>
    <!-- model: (10, 10, 5) - ../data/csv/19-05/wholesale-daily-('Gujarat', 'Vadhvan', 'Potato', 'Potato', 0.83).csv,  -->
    <defs>
     <path d="
M19.6719 64.7969
L19.6719 37.4062
L32.0781 37.4062
Q38.9688 37.4062 42.7188 40.9688
Q46.4844 44.5312 46.4844 51.125
Q46.4844 57.6719 42.7188 61.2344
Q38.9688 64.7969 32.0781 64.7969
z

M9.8125 72.9062
L32.0781 72.9062
Q44.3438 72.9062 50.6094 67.3594
Q56.8906 61.8125 56.8906 51.125
Q56.8906 40.3281 50.6094 34.8125
Q44.3438 29.2969 32.0781 29.2969
L19.6719 29.2969
L19.6719 0
L9.8125 0
z
" id="DejaVuSans-50"/>
     <path d="
M11.7188 12.4062
L22.0156 12.4062
L22.0156 0
L11.7188 0
z

M11.7188 51.7031
L22.0156 51.7031
L22.0156 39.3125
L11.7188 39.3125
z
" id="DejaVuSans-3a"/>
     <path id="DejaVuSans-20"/>
     <path d="
M59.5156 10.4062
L59.5156 29.9844
L43.4062 29.9844
L43.4062 38.0938
L69.2812 38.0938
L69.2812 6.78125
Q63.5781 2.73438 56.6875 0.65625
Q49.8125 -1.42188 42 -1.42188
Q24.9062 -1.42188 15.25 8.5625
Q5.60938 18.5625 5.60938 36.375
Q5.60938 54.25 15.25 64.2344
Q24.9062 74.2188 42 74.2188
Q49.125 74.2188 55.5469 72.4531
Q61.9688 70.7031 67.3906 67.2812
L67.3906 56.7812
Q61.9219 61.4219 55.7656 63.7656
Q49.6094 66.1094 42.8281 66.1094
Q29.4375 66.1094 22.7188 58.6406
Q16.0156 51.1719 16.0156 36.375
Q16.0156 21.625 22.7188 14.1562
Q29.4375 6.6875 42.8281 6.6875
Q48.0469 6.6875 52.1406 7.59375
Q56.25 8.5 59.5156 10.4062" id="DejaVuSans-47"/>
     <path d="
M17.9219 72.9062
L17.9219 45.7969
L9.625 45.7969
L9.625 72.9062
z
" id="DejaVuSans-27"/>
     <path d="
M54.8906 33.0156
L54.8906 0
L45.9062 0
L45.9062 32.7188
Q45.9062 40.4844 42.875 44.3281
Q39.8438 48.1875 33.7969 48.1875
Q26.5156 48.1875 22.3125 43.5469
Q18.1094 38.9219 18.1094 30.9062
L18.1094 0
L9.07812 0
L9.07812 75.9844
L18.1094 75.9844
L18.1094 46.1875
Q21.3438 51.125 25.7031 53.5625
Q30.0781 56 35.7969 56
Q45.2188 56 50.0469 50.1719
Q54.8906 44.3438 54.8906 33.0156" id="DejaVuSans-68"/>
     <path d="
M9.42188 54.6875
L18.4062 54.6875
L18.4062 0
L9.42188 0
z

M9.42188 75.9844
L18.4062 75.9844
L18.4062 64.5938
L9.42188 64.5938
z
" id="DejaVuSans-69"/>
     <path d="
M45.4062 46.3906
L45.4062 75.9844
L54.3906 75.9844
L54.3906 0
L45.4062 0
L45.4062 8.20312
Q42.5781 3.32812 38.25 0.953125
Q33.9375 -1.42188 27.875 -1.42188
Q17.9688 -1.42188 11.7344 6.48438
Q5.51562 14.4062 5.51562 27.2969
Q5.51562 40.1875 11.7344 48.0938
Q17.9688 56 27.875 56
Q33.9375 56 38.25 53.625
Q42.5781 51.2656 45.4062 46.3906
M14.7969 27.2969
Q14.7969 17.3906 18.875 11.75
Q22.9531 6.10938 30.0781 6.10938
Q37.2031 6.10938 41.2969 11.75
Q45.4062 17.3906 45.4062 27.2969
Q45.4062 37.2031 41.2969 42.8438
Q37.2031 48.4844 30.0781 48.4844
Q22.9531 48.4844 18.875 42.8438
Q14.7969 37.2031 14.7969 27.2969" id="DejaVuSans-64"/>
     <path d="
M8.01562 75.875
L15.8281 75.875
Q23.1406 64.3594 26.7812 53.3125
Q30.4219 42.2812 30.4219 31.3906
Q30.4219 20.4531 26.7812 9.375
Q23.1406 -1.70312 15.8281 -13.1875
L8.01562 -13.1875
Q14.5 -2 17.7031 9.0625
Q20.9062 20.125 20.9062 31.3906
Q20.9062 42.6719 17.7031 53.6562
Q14.5 64.6562 8.01562 75.875" id="DejaVuSans-29"/>
     <path d="
M48.7812 52.5938
L48.7812 44.1875
Q44.9688 46.2969 41.1406 47.3438
Q37.3125 48.3906 33.4062 48.3906
Q24.6562 48.3906 19.8125 42.8438
Q14.9844 37.3125 14.9844 27.2969
Q14.9844 17.2812 19.8125 11.7344
Q24.6562 6.20312 33.4062 6.20312
Q37.3125 6.20312 41.1406 7.25
Q44.9688 8.29688 48.7812 10.4062
L48.7812 2.09375
Q45.0156 0.34375 40.9844 -0.53125
Q36.9688 -1.42188 32.4219 -1.42188
Q20.0625 -1.42188 12.7812 6.34375
Q5.51562 14.1094 5.51562 27.2969
Q5.51562 40.6719 12.8594 48.3281
Q20.2188 56 33.0156 56
Q37.1562 56 41.1094 55.1406
Q45.0625 54.2969 48.7812 52.5938" id="DejaVuSans-63"/>
     <path d="
M34.2812 27.4844
Q23.3906 27.4844 19.1875 25
Q14.9844 22.5156 14.9844 16.5
Q14.9844 11.7188 18.1406 8.90625
Q21.2969 6.10938 26.7031 6.10938
Q34.1875 6.10938 38.7031 11.4062
Q43.2188 16.7031 43.2188 25.4844
L43.2188 27.4844
z

M52.2031 31.2031
L52.2031 0
L43.2188 0
L43.2188 8.29688
Q40.1406 3.32812 35.5469 0.953125
Q30.9531 -1.42188 24.3125 -1.42188
Q15.9219 -1.42188 10.9531 3.29688
Q6 8.01562 6 15.9219
Q6 25.1406 12.1719 29.8281
Q18.3594 34.5156 30.6094 34.5156
L43.2188 34.5156
L43.2188 35.4062
Q43.2188 41.6094 39.1406 45
Q35.0625 48.3906 27.6875 48.3906
Q23 48.3906 18.5469 47.2656
Q14.1094 46.1406 10.0156 43.8906
L10.0156 52.2031
Q14.9375 54.1094 19.5781 55.0469
Q24.2188 56 28.6094 56
Q40.4844 56 46.3438 49.8438
Q52.2031 43.7031 52.2031 31.2031" id="DejaVuSans-61"/>
     <path d="
M31 75.875
Q24.4688 64.6562 21.2812 53.6562
Q18.1094 42.6719 18.1094 31.3906
Q18.1094 20.125 21.3125 9.0625
Q24.5156 -2 31 -13.1875
L23.1875 -13.1875
Q15.875 -1.70312 12.2344 9.375
Q8.59375 20.4531 8.59375 31.3906
Q8.59375 42.2812 12.2031 53.3125
Q15.8281 64.3594 23.1875 75.875
z
" id="DejaVuSans-28"/>
     <path d="
M11.7188 12.4062
L22.0156 12.4062
L22.0156 4
L14.0156 -11.625
L7.71875 -11.625
L11.7188 4
z
" id="DejaVuSans-2c"/>
     <path d="
M56.2031 29.5938
L56.2031 25.2031
L14.8906 25.2031
Q15.4844 15.9219 20.4844 11.0625
Q25.4844 6.20312 34.4219 6.20312
Q39.5938 6.20312 44.4531 7.46875
Q49.3125 8.73438 54.1094 11.2812
L54.1094 2.78125
Q49.2656 0.734375 44.1875 -0.34375
Q39.1094 -1.42188 33.8906 -1.42188
Q20.7969 -1.42188 13.1562 6.1875
Q5.51562 13.8125 5.51562 26.8125
Q5.51562 40.2344 12.7656 48.1094
Q20.0156 56 32.3281 56
Q43.3594 56 49.7812 48.8906
Q56.2031 41.7969 56.2031 29.5938
M47.2188 32.2344
Q47.125 39.5938 43.0938 43.9844
Q39.0625 48.3906 32.4219 48.3906
Q24.9062 48.3906 20.3906 44.1406
Q15.875 39.8906 15.1875 32.1719
z
" id="DejaVuSans-65"/>
     <path d="
M25.3906 72.9062
L33.6875 72.9062
L8.29688 -9.28125
L0 -9.28125
z
" id="DejaVuSans-2f"/>
     <path d="
M4.89062 31.3906
L31.2031 31.3906
L31.2031 23.3906
L4.89062 23.3906
z
" id="DejaVuSans-2d"/>
     <path d="
M10.6875 12.4062
L21 12.4062
L21 0
L10.6875 0
z
" id="DejaVuSans-2e"/>
     <path d="
M30.6094 48.3906
Q23.3906 48.3906 19.1875 42.75
Q14.9844 37.1094 14.9844 27.2969
Q14.9844 17.4844 19.1562 11.8438
Q23.3438 6.20312 30.6094 6.20312
Q37.7969 6.20312 41.9844 11.8594
Q46.1875 17.5312 46.1875 27.2969
Q46.1875 37.0156 41.9844 42.7031
Q37.7969 48.3906 30.6094 48.3906
M30.6094 56
Q42.3281 56 49.0156 48.375
Q55.7188 40.7656 55.7188 27.2969
Q55.7188 13.875 49.0156 6.21875
Q42.3281 -1.42188 30.6094 -1.42188
Q18.8438 -1.42188 12.1719 6.21875
Q5.51562 13.875 5.51562 27.2969
Q5.51562 40.7656 12.1719 48.375
Q18.8438 56 30.6094 56" id="DejaVuSans-6f"/>
     <path d="
M52 44.1875
Q55.375 50.25 60.0625 53.125
Q64.75 56 71.0938 56
Q79.6406 56 84.2812 50.0156
Q88.9219 44.0469 88.9219 33.0156
L88.9219 0
L79.8906 0
L79.8906 32.7188
Q79.8906 40.5781 77.0938 44.375
Q74.3125 48.1875 68.6094 48.1875
Q61.625 48.1875 57.5625 43.5469
Q53.5156 38.9219 53.5156 30.9062
L53.5156 0
L44.4844 0
L44.4844 32.7188
Q44.4844 40.625 41.7031 44.4062
Q38.9219 48.1875 33.1094 48.1875
Q26.2188 48.1875 22.1562 43.5312
Q18.1094 38.875 18.1094 30.9062
L18.1094 0
L9.07812 0
L9.07812 54.6875
L18.1094 54.6875
L18.1094 46.1875
Q21.1875 51.2188 25.4844 53.6094
Q29.7812 56 35.6875 56
Q41.6562 56 45.8281 52.9688
Q50 49.9531 52 44.1875" id="DejaVuSans-6d"/>
     <path d="
M54.8906 33.0156
L54.8906 0
L45.9062 0
L45.9062 32.7188
Q45.9062 40.4844 42.875 44.3281
Q39.8438 48.1875 33.7969 48.1875
Q26.5156 48.1875 22.3125 43.5469
Q18.1094 38.9219 18.1094 30.9062
L18.1094 0
L9.07812 0
L9.07812 54.6875
L18.1094 54.6875
L18.1094 46.1875
Q21.3438 51.125 25.7031 53.5625
Q30.0781 56 35.7969 56
Q45.2188 56 50.0469 50.1719
Q54.8906 44.3438 54.8906 33.0156" id="DejaVuSans-6e"/>
     <path d="
M9.42188 75.9844
L18.4062 75.9844
L18.4062 0
L9.42188 0
z
" id="DejaVuSans-6c"/>
     <path d="
M9.42188 54.6875
L18.4062 54.6875
L18.4062 -0.984375
Q18.4062 -11.4219 14.4219 -16.1094
Q10.4531 -20.7969 1.60938 -20.7969
L-1.8125 -20.7969
L-1.8125 -13.1875
L0.59375 -13.1875
Q5.71875 -13.1875 7.5625 -10.8125
Q9.42188 -8.45312 9.42188 -0.984375
z

M9.42188 75.9844
L18.4062 75.9844
L18.4062 64.5938
L9.42188 64.5938
z
" id="DejaVuSans-6a"/>
     <path d="
M32.1719 -5.07812
Q28.375 -14.8438 24.75 -17.8125
Q21.1406 -20.7969 15.0938 -20.7969
L7.90625 -20.7969
L7.90625 -13.2812
L13.1875 -13.2812
Q16.8906 -13.2812 18.9375 -11.5156
Q21 -9.76562 23.4844 -3.21875
L25.0938 0.875
L2.98438 54.6875
L12.5 54.6875
L29.5938 11.9219
L46.6875 54.6875
L56.2031 54.6875
z
" id="DejaVuSans-79"/>
     <path d="
M8.5 21.5781
L8.5 54.6875
L17.4844 54.6875
L17.4844 21.9219
Q17.4844 14.1562 20.5 10.2656
Q23.5312 6.39062 29.5938 6.39062
Q36.8594 6.39062 41.0781 11.0312
Q45.3125 15.6719 45.3125 23.6875
L45.3125 54.6875
L54.2969 54.6875
L54.2969 0
L45.3125 0
L45.3125 8.40625
Q42.0469 3.42188 37.7188 1
Q33.4062 -1.42188 27.6875 -1.42188
Q18.2656 -1.42188 13.375 4.4375
Q8.5 10.2969 8.5 21.5781
M31.1094 56
z
" id="DejaVuSans-75"/>
     <path d="
M18.3125 70.2188
L18.3125 54.6875
L36.8125 54.6875
L36.8125 47.7031
L18.3125 47.7031
L18.3125 18.0156
Q18.3125 11.3281 20.1406 9.42188
Q21.9688 7.51562 27.5938 7.51562
L36.8125 7.51562
L36.8125 0
L27.5938 0
Q17.1875 0 13.2344 3.875
Q9.28125 7.76562 9.28125 18.0156
L9.28125 47.7031
L2.6875 47.7031
L2.6875 54.6875
L9.28125 54.6875
L9.28125 70.2188
z
" id="DejaVuSans-74"/>
     <path d="
M4.20312 54.6875
L13.1875 54.6875
L24.4219 12.0156
L35.5938 54.6875
L46.1875 54.6875
L57.4219 12.0156
L68.6094 54.6875
L77.5938 54.6875
L63.2812 0
L52.6875 0
L40.9219 44.8281
L29.1094 0
L18.5 0
z
" id="DejaVuSans-77"/>
     <path d="
M2.98438 54.6875
L12.5 54.6875
L29.5938 8.79688
L46.6875 54.6875
L56.2031 54.6875
L35.6875 0
L23.4844 0
z
" id="DejaVuSans-76"/>
     <path d="
M28.6094 0
L0.78125 72.9062
L11.0781 72.9062
L34.1875 11.5312
L57.3281 72.9062
L67.5781 72.9062
L39.7969 0
z
" id="DejaVuSans-56"/>
     <path d="
M44.2812 53.0781
L44.2812 44.5781
Q40.4844 46.5312 36.375 47.5
Q32.2812 48.4844 27.875 48.4844
Q21.1875 48.4844 17.8438 46.4375
Q14.5 44.3906 14.5 40.2812
Q14.5 37.1562 16.8906 35.375
Q19.2812 33.5938 26.5156 31.9844
L29.5938 31.2969
Q39.1562 29.25 43.1875 25.5156
Q47.2188 21.7812 47.2188 15.0938
Q47.2188 7.46875 41.1875 3.01562
Q35.1562 -1.42188 24.6094 -1.42188
Q20.2188 -1.42188 15.4531 -0.5625
Q10.6875 0.296875 5.42188 2
L5.42188 11.2812
Q10.4062 8.6875 15.2344 7.39062
Q20.0625 6.10938 24.8125 6.10938
Q31.1562 6.10938 34.5625 8.28125
Q37.9844 10.4531 37.9844 14.4062
Q37.9844 18.0625 35.5156 20.0156
Q33.0625 21.9688 24.7031 23.7812
L21.5781 24.5156
Q13.2344 26.2656 9.51562 29.9062
Q5.8125 33.5469 5.8125 39.8906
Q5.8125 47.6094 11.2812 51.7969
Q16.75 56 26.8125 56
Q31.7812 56 36.1719 55.2656
Q40.5781 54.5469 44.2812 53.0781" id="DejaVuSans-73"/>
     <path d="
M41.1094 46.2969
Q39.5938 47.1719 37.8125 47.5781
Q36.0312 48 33.8906 48
Q26.2656 48 22.1875 43.0469
Q18.1094 38.0938 18.1094 28.8125
L18.1094 0
L9.07812 0
L9.07812 54.6875
L18.1094 54.6875
L18.1094 46.1875
Q20.9531 51.1719 25.4844 53.5781
Q30.0312 56 36.5312 56
Q37.4531 56 38.5781 55.875
Q39.7031 55.7656 41.0625 55.5156
z
" id="DejaVuSans-72"/>
    </defs>
    <g transform="translate(-73.796625 -5.9351)scale(0.144 -0.144)">
     <use xlink:href="#DejaVuSans-6d"/>
     <use x="97.412109375" xlink:href="#DejaVuSans-6f"/>
     <use x="158.59375" xlink:href="#DejaVuSans-64"/>
     <use x="222.0703125" xlink:href="#DejaVuSans-65"/>
     <use x="283.59375" xlink:href="#DejaVuSans-6c"/>
     <use x="311.376953125" xlink:href="#DejaVuSans-3a"/>
     <use x="345.068359375" xlink:href="#DejaVuSans-20"/>
     <use x="376.85546875" xlink:href="#DejaVuSans-28"/>
     <use x="415.869140625" xlink:href="#DejaVuSans-31"/>
     <use x="479.4921875" xlink:href="#DejaVuSans-30"/>
     <use x="543.115234375" xlink:href="#DejaVuSans-2c"/>
     <use x="574.90234375" xlink:href="#DejaVuSans-20"/>
     <use x="606.689453125" xlink:href="#DejaVuSans-31"/>
     <use x="670.3125" xlink:href="#DejaVuSans-30"/>
     <use x="733.935546875" xlink:href="#DejaVuSans-2c"/>
     <use x="765.72265625" xlink:href="#DejaVuSans-20"/>
     <use x="797.509765625" xlink:href="#DejaVuSans-35"/>
     <use x="861.1328125" xlink:href="#DejaVuSans-29"/>
     <use x="900.146484375" xlink:href="#DejaVuSans-20"/>
     <use x="931.93359375" xlink:href="#DejaVuSans-2d"/>
     <use x="968.017578125" xlink:href="#DejaVuSans-20"/>
     <use x="999.8046875" xlink:href="#DejaVuSans-2e"/>
     <use x="1031.59179688" xlink:href="#DejaVuSans-2e"/>
     <use x="1063.37890625" xlink:href="#DejaVuSans-2f"/>
     <use x="1097.0703125" xlink:href="#DejaVuSans-64"/>
     <use x="1160.546875" xlink:href="#DejaVuSans-61"/>
     <use x="1221.82617188" xlink:href="#DejaVuSans-74"/>
     <use x="1261.03515625" xlink:href="#DejaVuSans-61"/>
     <use x="1322.31445312" xlink:href="#DejaVuSans-2f"/>
     <use x="1356.00585938" xlink:href="#DejaVuSans-63"/>
     <use x="1410.98632812" xlink:href="#DejaVuSans-73"/>
     <use x="1463.0859375" xlink:href="#DejaVuSans-76"/>
     <use x="1522.265625" xlink:href="#DejaVuSans-2f"/>
     <use x="1555.95703125" xlink:href="#DejaVuSans-31"/>
     <use x="1619.58007812" xlink:href="#DejaVuSans-39"/>
     <use x="1683.203125" xlink:href="#DejaVuSans-2d"/>
     <use x="1719.28710938" xlink:href="#DejaVuSans-30"/>
     <use x="1782.91015625" xlink:href="#DejaVuSans-35"/>
     <use x="1846.53320312" xlink:href="#DejaVuSans-2f"/>
     <use x="1880.22460938" xlink:href="#DejaVuSans-77"/>
     <use x="1962.01171875" xlink:href="#DejaVuSans-68"/>
     <use x="2025.390625" xlink:href="#DejaVuSans-6f"/>
     <use x="2086.57226562" xlink:href="#DejaVuSans-6c"/>
     <use x="2114.35546875" xlink:href="#DejaVuSans-65"/>
     <use x="2175.87890625" xlink:href="#DejaVuSans-73"/>
     <use x="2227.97851562" xlink:href="#DejaVuSans-61"/>
     <use x="2289.2578125" xlink:href="#DejaVuSans-6c"/>
     <use x="2317.04101562" xlink:href="#DejaVuSans-65"/>
     <use x="2378.56445312" xlink:href="#DejaVuSans-2d"/>
     <use x="2414.6484375" xlink:href="#DejaVuSans-64"/>
     <use x="2478.125" xlink:href="#DejaVuSans-61"/>
     <use x="2539.40429688" xlink:href="#DejaVuSans-69"/>
     <use x="2567.1875" xlink:href="#DejaVuSans-6c"/>
     <use x="2594.97070312" xlink:href="#DejaVuSans-79"/>
     <use x="2652.40039062" xlink:href="#DejaVuSans-2d"/>
     <use x="2688.484375" xlink:href="#DejaVuSans-28"/>
     <use x="2727.49804688" xlink:href="#DejaVuSans-27"/>
     <use x="2754.98828125" xlink:href="#DejaVuSans-47"/>
     <use x="2832.47851562" xlink:href="#DejaVuSans-75"/>
     <use x="2895.85742188" xlink:href="#DejaVuSans-6a"/>
     <use x="2923.640625" xlink:href="#DejaVuSans-61"/>
     <use x="2984.91992188" xlink:href="#DejaVuSans-72"/>
     <use x="3026.03320312" xlink:href="#DejaVuSans-61"/>
     <use x="3087.3125" xlink:href="#DejaVuSans-74"/>
     <use x="3126.52148438" xlink:href="#DejaVuSans-27"/>
     <use x="3154.01171875" xlink:href="#DejaVuSans-2c"/>
     <use x="3185.79882812" xlink:href="#DejaVuSans-20"/>
     <use x="3217.5859375" xlink:href="#DejaVuSans-27"/>
     <use x="3245.07617188" xlink:href="#DejaVuSans-56"/>
     <use x="3305.734375" xlink:href="#DejaVuSans-61"/>
     <use x="3367.01367188" xlink:href="#DejaVuSans-64"/>
     <use x="3430.49023438" xlink:href="#DejaVuSans-68"/>
     <use x="3493.86914062" xlink:href="#DejaVuSans-76"/>
     <use x="3553.04882812" xlink:href="#DejaVuSans-61"/>
     <use x="3614.328125" xlink:href="#DejaVuSans-6e"/>
     <use x="3677.70703125" xlink:href="#DejaVuSans-27"/>
     <use x="3705.19726562" xlink:href="#DejaVuSans-2c"/>
     <use x="3736.984375" xlink:href="#DejaVuSans-20"/>
     <use x="3768.77148438" xlink:href="#DejaVuSans-27"/>
     <use x="3796.26171875" xlink:href="#DejaVuSans-50"/>
     <use x="3852.93945312" xlink:href="#DejaVuSans-6f"/>
     <use x="3914.12109375" xlink:href="#DejaVuSans-74"/>
     <use x="3953.33007812" xlink:href="#DejaVuSans-61"/>
     <use x="4014.609375" xlink:href="#DejaVuSans-74"/>
     <use x="4053.81835938" xlink:href="#DejaVuSans-6f"/>
     <use x="4115.0" xlink:href="#DejaVuSans-27"/>
     <use x="4142.49023438" xlink:href="#DejaVuSans-2c"/>
     <use x="4174.27734375" xlink:href="#DejaVuSans-20"/>
     <use x="4206.06445312" xlink:href="#DejaVuSans-27"/>
     <use x="4233.5546875" xlink:href="#DejaVuSans-50"/>
     <use x="4290.23242188" xlink:href="#DejaVuSans-6f"/>
     <use x="4351.4140625" xlink:href="#DejaVuSans-74"/>
     <use x="4390.62304688" xlink:href="#DejaVuSans-61"/>
     <use x="4451.90234375" xlink:href="#DejaVuSans-74"/>
     <use x="4491.11132812" xlink:href="#DejaVuSans-6f"/>
     <use x="4552.29296875" xlink:href="#DejaVuSans-27"/>
     <use x="4579.78320312" xlink:href="#DejaVuSans-2c"/>
     <use x="4611.5703125" xlink:href="#DejaVuSans-20"/>
     <use x="4643.35742188" xlink:href="#DejaVuSans-30"/>
     <use x="4706.98046875" xlink:href="#DejaVuSans-2e"/>
     <use x="4738.76757812" xlink:href="#DejaVuSans-38"/>
     <use x="4802.390625" xlink:href="#DejaVuSans-33"/>
     <use x="4866.01367188" xlink:href="#DejaVuSans-29"/>
     <use x="4905.02734375" xlink:href="#DejaVuSans-2e"/>
     <use x="4936.81445312" xlink:href="#DejaVuSans-63"/>
     <use x="4991.79492188" xlink:href="#DejaVuSans-73"/>
     <use x="5043.89453125" xlink:href="#DejaVuSans-76"/>
     <use x="5103.07421875" xlink:href="#DejaVuSans-2c"/>
     <use x="5134.86132812" xlink:href="#DejaVuSans-20"/>
    </g>
    <!-- epoch: 291 -->
    <defs>
     <path d="
M18.1094 8.20312
L18.1094 -20.7969
L9.07812 -20.7969
L9.07812 54.6875
L18.1094 54.6875
L18.1094 46.3906
Q20.9531 51.2656 25.2656 53.625
Q29.5938 56 35.5938 56
Q45.5625 56 51.7812 48.0938
Q58.0156 40.1875 58.0156 27.2969
Q58.0156 14.4062 51.7812 6.48438
Q45.5625 -1.42188 35.5938 -1.42188
Q29.5938 -1.42188 25.2656 0.953125
Q20.9531 3.32812 18.1094 8.20312
M48.6875 27.2969
Q48.6875 37.2031 44.6094 42.8438
Q40.5312 48.4844 33.4062 48.4844
Q26.2656 48.4844 22.1875 42.8438
Q18.1094 37.2031 18.1094 27.2969
Q18.1094 17.3906 22.1875 11.75
Q26.2656 6.10938 33.4062 6.10938
Q40.5312 6.10938 44.6094 11.75
Q48.6875 17.3906 48.6875 27.2969" id="DejaVuSans-70"/>
    </defs>
    <g transform="translate(255.479625 10.7887)scale(0.144 -0.144)">
     <use xlink:href="#DejaVuSans-65"/>
     <use x="61.5234375" xlink:href="#DejaVuSans-70"/>
     <use x="125.0" xlink:href="#DejaVuSans-6f"/>
     <use x="186.181640625" xlink:href="#DejaVuSans-63"/>
     <use x="241.162109375" xlink:href="#DejaVuSans-68"/>
     <use x="304.541015625" xlink:href="#DejaVuSans-3a"/>
     <use x="338.232421875" xlink:href="#DejaVuSans-20"/>
     <use x="370.01953125" xlink:href="#DejaVuSans-32"/>
     <use x="433.642578125" xlink:href="#DejaVuSans-39"/>
     <use x="497.265625" xlink:href="#DejaVuSans-31"/>
    </g>
    <!-- test err: 0.0316 -->
    <g transform="translate(239.533875 27.5125)scale(0.144 -0.144)">
     <use xlink:href="#DejaVuSans-74"/>
     <use x="39.208984375" xlink:href="#DejaVuSans-65"/>
     <use x="100.732421875" xlink:href="#DejaVuSans-73"/>
     <use x="152.83203125" xlink:href="#DejaVuSans-74"/>
     <use x="192.041015625" xlink:href="#DejaVuSans-20"/>
     <use x="223.828125" xlink:href="#DejaVuSans-65"/>
     <use x="285.3515625" xlink:href="#DejaVuSans-72"/>
     <use x="324.71484375" xlink:href="#DejaVuSans-72"/>
     <use x="364.078125" xlink:href="#DejaVuSans-3a"/>
     <use x="397.76953125" xlink:href="#DejaVuSans-20"/>
     <use x="429.556640625" xlink:href="#DejaVuSans-30"/>
     <use x="493.1796875" xlink:href="#DejaVuSans-2e"/>
     <use x="524.966796875" xlink:href="#DejaVuSans-30"/>
     <use x="588.58984375" xlink:href="#DejaVuSans-33"/>
     <use x="652.212890625" xlink:href="#DejaVuSans-31"/>
     <use x="715.8359375" xlink:href="#DejaVuSans-36"/>
    </g>
   </g>
   <g id="legend_1">
    <g id="patch_7">
     <path d="
M79.2 115.339
L162.947 115.339
L162.947 50.4
L79.2 50.4
L79.2 115.339
z
" style="fill:#ffffff;stroke:#000000;"/>
    </g>
    <g id="line2d_49">
     <path d="
M89.28 62.0617
L109.44 62.0617" style="fill:none;stroke:#008000;"/>
    </g>
    <g id="line2d_50"/>
    <g id="text_17">
     <!-- pred -->
     <g transform="translate(125.28 67.10175)scale(0.144 -0.144)">
      <use xlink:href="#DejaVuSans-70"/>
      <use x="63.4765625" xlink:href="#DejaVuSans-72"/>
      <use x="102.33984375" xlink:href="#DejaVuSans-65"/>
      <use x="163.86328125" xlink:href="#DejaVuSans-64"/>
     </g>
    </g>
    <g id="line2d_51">
     <path d="
M89.28 83.1983
L109.44 83.1983" style="fill:none;stroke:#0000ff;"/>
    </g>
    <g id="line2d_52"/>
    <g id="text_18">
     <!-- train -->
     <g transform="translate(125.28 88.23825)scale(0.144 -0.144)">
      <use xlink:href="#DejaVuSans-74"/>
      <use x="39.208984375" xlink:href="#DejaVuSans-72"/>
      <use x="80.322265625" xlink:href="#DejaVuSans-61"/>
      <use x="141.6015625" xlink:href="#DejaVuSans-69"/>
      <use x="169.384765625" xlink:href="#DejaVuSans-6e"/>
     </g>
    </g>
    <g id="line2d_53">
     <path d="
M89.28 104.335
L109.44 104.335" style="fill:none;stroke:#ff0000;"/>
    </g>
    <g id="line2d_54"/>
    <g id="text_19">
     <!-- test -->
     <g transform="translate(125.28 109.37475)scale(0.144 -0.144)">
      <use xlink:href="#DejaVuSans-74"/>
      <use x="39.208984375" xlink:href="#DejaVuSans-65"/>
      <use x="100.732421875" xlink:href="#DejaVuSans-73"/>
      <use x="152.83203125" xlink:href="#DejaVuSans-74"/>
     </g>
    </g>
   </g>
  </g>
 </g>
 <defs>
  <clipPath id="p7ff5b81e1d">
   <rect height="345.6" width="446.4" x="72.0" y="43.2"/>
  </clipPath>
 </defs>
</svg>
