<?xml version="1.0" encoding="utf-8" standalone="no"?>
<!DOCTYPE svg PUBLIC "-//W3C//DTD SVG 1.1//EN"
  "http://www.w3.org/Graphics/SVG/1.1/DTD/svg11.dtd">
<!-- Created with matplotlib (http://matplotlib.org/) -->
<svg height="432pt" version="1.1" viewBox="0 0 576 432" width="576pt" xmlns="http://www.w3.org/2000/svg" xmlns:xlink="http://www.w3.org/1999/xlink">
 <defs>
  <style type="text/css">
*{stroke-linecap:square;stroke-linejoin:round;}
  </style>
 </defs>
 <g id="figure_1">
  <g id="patch_1">
   <path d="
M0 432
L576 432
L576 0
L0 0
z
" style="fill:#ffffff;"/>
  </g>
  <g id="axes_1">
   <g id="patch_2">
    <path d="
M72 388.8
L518.4 388.8
L518.4 43.2
L72 43.2
z
" style="fill:#ffffff;"/>
   </g>
   <g id="line2d_1">
    <path clip-path="url(#p7ff5b81e1d)" d="
M72 350.659
L74.722 350.659
L75.2663 347.393
L77.4439 347.393
L77.9883 345.178
L78.5327 340.504
L79.0771 341.502
L79.7576 339.499
L80.7102 338.05
L82.3434 332.197
L82.4795 332.304
L82.8878 332.624
L83.5683 331.927
L83.9766 331.853
L84.521 330.262
L85.2015 335.135
L85.6098 336.062
L86.2902 340.02
L86.6985 340.883
L87.2429 345.364
L87.7873 345.845
L89.0122 351.334
L89.4205 351.473
L89.9649 352.889
L90.5093 356.245
L91.0537 356.046
L91.598 354.745
L92.1424 354.98
L92.6868 354.589
L94.0478 350.096
L94.32 349.735
L95.0005 346.795
L95.4088 344.02
L95.9532 344.062
L96.4976 339.743
L97.042 340.078
L97.7224 342.968
L98.1307 343.393
L98.6751 345.921
L99.2195 345.746
L99.7639 343.665
L101.125 346.901
L101.669 347.497
L101.941 347.719
L102.622 345.56
L103.03 344.896
L103.575 345.969
L104.119 345.416
L104.8 348.601
L105.48 349.665
L106.024 350.51
L106.297 350.83
L106.841 353.594
L107.385 353.598
L107.93 352.419
L108.474 352.779
L109.019 354.596
L109.563 353.438
L110.107 354.095
L110.652 353.498
L111.877 354.839
L112.285 355.846
L112.829 354.093
L113.374 354.542
L113.918 351.289
L114.462 350.77
L115.143 348.548
L115.687 347.909
L116.232 347.833
L116.64 347.987
L117.184 351.236
L117.729 351.101
L118.273 347.972
L118.818 349.174
L120.042 348.343
L120.723 348.367
L120.995 348.329
L121.54 343.474
L122.084 344.533
L123.173 344.533
L123.853 345.76
L124.261 346.891
L124.806 346.723
L125.35 345.113
L125.895 346.325
L126.575 346.282
L127.12 346.588
L127.528 347.003
L128.617 343.159
L129.161 347.244
L129.705 345.298
L131.475 344.8
L131.883 344.333
L132.427 345.279
L132.972 344.939
L134.06 340.369
L134.605 340.673
L136.238 339.524
L136.782 338.355
L137.327 338.461
L137.871 336.594
L139.64 344.004
L140.049 344.968
L140.729 348.079
L141.138 348.485
L141.818 351.682
L142.226 352.291
L142.771 352.179
L143.315 350.724
L143.86 350.684
L144.676 349.333
L144.948 349.016
L145.493 347.564
L146.037 352.408
L146.581 352.413
L147.67 349.036
L148.215 348.75
L148.759 347.122
L149.303 347.043
L149.848 346.436
L150.528 337.549
L151.073 334.877
L151.753 331.102
L152.161 329.719
L152.57 328.841
L153.659 323.56
L154.203 325.579
L154.747 324.069
L155.292 324.129
L155.836 323.464
L156.38 323.586
L157.469 321.127
L158.014 321.454
L158.558 327.643
L159.102 327.156
L160.191 329.312
L160.736 328.939
L161.416 330.798
L161.824 331.312
L162.369 326.602
L163.049 329.367
L163.594 332.201
L164.274 334.572
L164.819 336.458
L165.091 337.237
L165.635 337.328
L166.18 338.941
L166.86 337.011
L167.54 336.008
L167.949 335.5
L168.357 334.826
L169.718 326.542
L171.215 318.968
L171.623 319.04
L172.848 313.661
L173.257 313.026
L173.801 310.314
L174.345 310.521
L174.89 317.555
L175.57 314.892
L175.979 312.402
L176.523 313.873
L177.067 312.214
L177.748 312.72
L178.7 312.754
L179.245 301.986
L180.334 303.871
L180.878 305.495
L181.559 302.902
L182.103 300.267
L182.511 299.288
L183.056 305.938
L183.736 304.837
L184.144 304.567
L184.825 302.944
L185.505 302.493
L185.778 302.375
L186.73 303.577
L186.866 303.78
L187.411 302.156
L187.955 305.267
L188.5 311.558
L189.044 310.268
L190.677 314.312
L191.221 323.527
L191.766 323.373
L192.446 317.155
L192.991 315.752
L194.488 313.788
L195.032 311.488
L195.577 302.432
L196.393 302.292
L196.801 302.251
L197.21 302.077
L197.754 301.304
L198.571 296.283
L198.843 295.13
L199.387 295.736
L199.932 295.625
L200.476 294.604
L201.02 294.857
L201.565 294.211
L202.245 291.219
L203.334 288.138
L203.742 285.914
L204.287 285.625
L204.831 288.305
L205.376 287.633
L206.192 290.001
L206.464 290.537
L207.009 290.058
L207.553 291.3
L208.506 289.81
L208.642 289.633
L209.867 291.824
L210.275 293.255
L210.82 292.663
L212.044 294.488
L212.725 294.4
L212.997 294.425
L213.541 295.327
L214.086 294.638
L215.583 294.852
L215.719 294.894
L216.263 293.89
L216.808 293.89
L217.897 289.99
L218.441 290.632
L219.121 288.182
L220.074 286.11
L220.619 292.52
L221.299 291.873
L221.707 291.882
L222.388 289.958
L222.796 288.232
L223.34 288.134
L223.885 286.683
L224.429 280.132
L224.974 279.877
L225.654 277.077
L226.199 274.255
L226.607 273.332
L227.151 270.597
L227.696 270.357
L228.24 269.103
L228.784 274.789
L229.329 272.161
L229.873 272.894
L230.418 270.807
L230.962 271.058
L231.642 270.613
L232.051 270.565
L232.867 269.679
L233.14 269.497
L233.684 270.418
L234.228 270.128
L234.909 271.298
L235.453 271.848
L235.861 272.492
L236.406 272.314
L237.222 286.414
L238.039 296.945
L238.583 295.667
L239.128 301.605
L239.672 299.477
L240.353 300.169
L240.761 300.271
L241.305 297.135
L241.85 297.018
L242.53 294.832
L243.483 293.922
L244.572 291.45
L245.116 290.026
L245.66 286.396
L246.205 287.325
L246.749 284.117
L247.294 284.876
L247.974 282.538
L248.382 281.994
L248.927 279.23
L249.471 270.167
L250.016 269.877
L250.696 268.211
L251.104 266.647
L251.649 266.806
L252.193 264.633
L252.738 265.772
L253.282 265.279
L254.099 262.042
L254.371 260.706
L255.051 263.409
L255.46 264.402
L256.004 264.214
L256.548 265.497
L257.637 262.405
L258.454 264.659
L258.726 265.161
L259.27 264.611
L259.951 266.415
L260.631 268.45
L261.176 269.458
L261.448 269.868
L262.128 278.641
L262.537 279.808
L263.217 283.337
L263.761 284.879
L264.85 289.052
L265.259 289.634
L265.803 291.459
L266.347 289.727
L267.572 291.475
L268.525 292.11
L269.614 293.336
L270.158 293.042
L270.702 289.902
L271.655 290.475
L272.336 291.031
L273.424 290.187
L273.969 290.682
L274.513 284.524
L275.602 283.875
L276.282 283.299
L276.963 282.371
L277.235 282.098
L277.78 282.484
L279.004 281.467
L279.549 280.639
L279.957 280.349
L280.501 279.184
L281.046 279.441
L281.862 278.357
L282.135 277.914
L282.679 266.543
L283.223 267.365
L284.04 265.795
L285.945 263.485
L286.49 263.141
L287.442 288.422
L287.579 291.518
L288.123 284.815
L288.667 293.638
L289.212 295.004
L289.756 292.377
L290.3 292.189
L290.845 294.47
L291.389 288.99
L291.934 288.214
L293.022 281.781
L293.567 283.815
L294.111 281.533
L294.656 281.818
L295.608 279.099
L295.88 278.269
L296.289 276.757
L296.833 276.807
L297.65 273.844
L297.922 273.121
L298.602 268.322
L299.011 266.717
L299.555 271.727
L300.644 262.226
L301.188 264.678
L302.277 255.482
L302.958 257.425
L303.366 258.088
L303.91 253.113
L304.455 255.475
L304.999 254.593
L305.68 249.479
L306.088 248.321
L306.632 249.83
L307.313 247.657
L307.857 247.148
L308.265 246.484
L308.946 244.626
L309.354 244.336
L309.899 245.892
L310.579 250.185
L310.987 253.681
L311.532 251.95
L312.076 244.857
L312.62 246.415
L313.165 243.632
L313.981 230.151
L314.662 222.648
L316.567 204.992
L317.112 204.089
L317.52 203.184
L318.064 198.037
L318.609 199.047
L319.153 197.894
L319.698 194.448
L320.242 187.324
L320.786 186.414
L321.467 179.598
L321.875 177.745
L322.42 179.986
L323.508 165.639
L324.053 176.465
L324.733 167.596
L325.141 160.594
L325.686 168.011
L326.23 165.907
L326.775 158.793
L327.455 162.06
L327.863 162.842
L328.544 157.467
L328.952 155.664
L329.497 158.734
L330.041 157.79
L330.585 155.454
L331.13 158.061
L331.674 154.098
L332.219 153.561
L332.763 151.785
L333.307 145.815
L333.852 147.754
L335.213 167.068
L335.485 172.728
L336.029 174.724
L336.574 173.264
L337.118 174.226
L337.662 173.598
L338.207 180.862
L339.023 176.816
L339.296 175.839
L339.84 181.845
L340.52 171.421
L340.929 169.225
L341.473 171.792
L342.018 171.637
L342.698 169.169
L343.106 168.623
L343.651 170.654
L344.195 166.185
L344.74 166.365
L345.284 169.188
L346.373 156.763
L347.053 163.512
L347.461 165.027
L348.006 164.241
L348.686 168.5
L349.095 171.919
L349.639 170.737
L350.32 162.866
L350.728 160.128
L351.272 161.201
L351.953 153.341
L352.497 148.737
L352.905 143.899
L353.586 148.173
L353.994 151.853
L354.539 148.893
L355.627 163.262
L356.172 154.309
L356.716 157.126
L357.26 166.658
L357.805 161.378
L358.349 161.566
L358.894 164.007
L359.438 162.821
L360.119 162.915
L360.527 163.197
L361.071 165.117
L361.616 151.616
L362.296 152.939
L362.704 153.269
L363.793 139.716
L363.929 140.226
L364.338 141.754
L364.882 139.014
L365.562 145.974
L365.971 152.241
L366.515 152.909
L367.06 149.173
L368.148 157.947
L368.693 155.63
L369.237 157.472
L369.781 152.079
L370.326 151.878
L370.87 155.64
L371.959 145.501
L372.095 145.842
L372.503 146.863
L373.184 141.324
L373.592 136.441
L374.137 137.98
L374.681 142.167
L375.225 141.577
L375.906 140.126
L376.45 139.904
L377.403 139.904
L377.947 145.153
L380.125 145.153
L381.214 138.581
L381.758 148.76
L382.302 146.158
L382.847 147.153
L383.391 153.805
L383.936 152.441
L385.024 155.476
L385.705 151.219
L386.113 147.337
L386.658 151.55
L387.746 185.419
L388.291 181.888
L388.835 189.433
L389.38 188.202
L389.924 182.649
L390.468 181.692
L391.149 187.133
L391.557 188.252
L392.374 193.914
L392.646 195.253
L393.19 195.29
L393.735 198.01
L394.415 193.661
L394.823 192.82
L395.368 189.554
L395.912 194.417
L396.457 209.222
L397.137 204.349
L397.545 202.794
L398.09 209.866
L398.77 190.168
L399.179 184.892
L399.859 187.349
L400.267 188.074
L400.812 182.657
L401.356 182.288
L401.9 183.9
L402.445 179.867
L403.125 189.932
L403.534 191.862
L404.214 189.175
L404.622 188.225
L405.167 190.168
L405.711 189.712
L406.392 191.542
L406.936 192.21
L407.344 192.999
L407.889 197.995
L408.433 198.31
L408.978 198.059
L409.522 199.245
L410.066 197.936
L410.747 189.859
L411.291 186.668
L411.836 181.7
L412.244 176.441
L412.788 176.785
L413.333 176.388
L413.877 173.828
L414.966 175.819
L415.51 169.672
L416.191 169.983
L417.688 169.983
L418.777 162.579
L419.321 177.028
L420.138 173.62
L420.41 172.76
L420.954 174.426
L421.635 169.961
L422.179 165.73
L422.587 164.1
L423.132 157.757
L423.676 144.145
L424.22 143.598
L424.765 145.288
L425.309 150.607
L425.854 148.863
L426.67 151.537
L426.942 152.172
L427.487 161.044
L428.031 160.955
L428.712 161.999
L429.12 162.302
L430.209 154.722
L430.345 155.05
L430.753 156.036
L431.298 153.241
L431.842 147.689
L432.386 150.277
L433.067 146.005
L433.475 142.652
L434.428 143.866
L434.564 144.009
L435.38 146.669
L435.653 147.332
L436.197 153.006
L436.741 153.035
L437.286 149.964
L437.83 150.517
L438.375 152.214
L438.919 152.138
L440.008 145.118
L440.552 154.26
L441.097 149.161
L441.641 150.871
L442.185 155.668
L442.73 145.186
L443.274 144.987
L444.227 148.889
L444.363 149.352
L445.18 148.602
L445.996 147.657
L447.085 141.25
L447.629 143.596
L448.174 142.235
L448.718 142.361
L449.262 144.54
L449.807 144.295
L450.351 143.259
L451.44 137.026
L451.984 138.658
L452.529 147.036
L453.073 144.787
L454.162 151.238
L454.706 153.197
L455.251 151.896
L456.067 154.388
L456.34 155.401
L456.884 144.215
L457.428 144.637
L457.973 146.09
L459.061 139.009
L459.606 140.667
L460.15 139.427
L460.695 133.513
L461.239 137.031
L461.783 136.434
L462.328 135.027
L462.872 134.978
L463.961 142.113
L464.505 140.305
L465.05 134.224
L465.594 136.531
L466.275 128.32
L466.683 126.137
L467.227 129.404
L467.908 127.478
L468.316 125.669
L468.86 129.466
L469.405 139.229
L469.949 134.051
L470.494 135.834
L471.038 133.959
L471.719 124.473
L472.127 122.847
L472.671 126.584
L473.488 117.44
L473.76 113.665
L474.304 122.989
L474.849 121.329
L475.393 116.5
L475.938 119.691
L476.482 119.389
L477.026 117.798
L477.843 117.911
L478.115 117.998
L478.66 110.592
L479.34 111.138
L479.748 111.278
L480.293 102.742
L480.837 106.12
L481.518 102.996
L481.926 100.471
L482.47 102.095
L483.559 95.8153
L484.648 105.194
L485.192 99.2456
L486.145 111.064
L486.281 112.942
L487.37 106.537
L487.914 110.017
L488.459 109.85
L489.003 102.232
L489.547 105.244
L490.092 103.912
L491.18 110.137
L492.133 107.078
L492.405 106.411
L492.814 105.901
L493.358 103.645
L494.039 107.298
L494.447 108.51
L494.991 106.944
L495.672 102.682
L496.624 100.712
L497.169 101.433
L497.713 100.624
L498.258 98.6329
L498.802 102.692
L499.346 102.461
L499.891 97.6343
L500.435 99.2768
L500.98 102.886
L501.524 101.955
L502.204 105.34
L502.613 106.374
L503.293 100.516
L503.701 99.2252
L504.246 99.776
L504.79 97.1528
L505.335 97.3536
L505.879 99.0141
L506.423 89.6763
L507.376 89.2673
L507.512 89.1914
L508.601 85.0728
L509.281 89.7
L509.69 90.5329
L510.234 87.3721
L510.779 88.2188
L511.323 91.9444
L511.867 86.7751
L512.548 89.6889
L512.956 90.4227
L513.5 84.8318
L514.045 85.7628
L514.725 85.0175
L515.134 84.3071
L516.222 90.8291
L516.903 86.742
L517.311 85.8664
L517.856 86.2274
L518.4 82.9292
L518.4 82.9292" style="fill:none;stroke:#008000;"/>
   </g>
   <g id="line2d_2">
    <path clip-path="url(#p7ff5b81e1d)" d="
M72 350.4
L77.0356 350.4
L77.1717 340.8
L79.6215 340.8
L79.7576 336.96
L80.7102 336.96
L80.8463 331.2
L83.16 331.2
L83.2961 326.4
L83.8405 326.4
L83.9766 331.2
L84.1127 331.2
L84.2488 335.04
L84.521 335.04
L84.6571 340.8
L86.018 340.8
L86.1541 344.64
L86.2902 344.64
L86.4263 350.4
L87.379 350.4
L87.5151 354.24
L88.8761 354.24
L89.0122 356.16
L89.2844 356.16
L89.4205 360
L90.7815 360
L90.9176 355.2
L92.4146 355.2
L92.5507 350.4
L93.9117 350.4
L94.0478 345.6
L95.0005 345.6
L95.1366 340.8
L96.2254 340.8
L96.3615 344.64
L97.042 344.64
L97.178 350.4
L98.539 350.4
L98.6751 346.56
L100.036 346.56
L100.172 350.4
L101.669 350.4
L101.805 348.48
L103.302 348.48
L103.439 346.56
L103.847 346.56
L104.255 348.48
L104.391 348.48
L104.527 350.4
L105.208 350.4
L105.344 354.24
L106.841 354.24
L106.977 350.4
L107.658 350.4
L107.794 354.24
L110.243 354.24
L110.38 356.16
L111.877 356.16
L112.013 360
L112.285 360
L112.421 354.24
L113.374 354.24
L113.51 350.4
L117.048 350.4
L117.184 345.6
L122.628 345.6
L122.764 348.48
L124.67 348.48
L124.806 350.4
L127.392 350.4
L127.528 346.56
L128.48 346.56
L128.617 344.64
L132.836 344.64
L132.972 340.8
L135.285 340.8
L135.421 338.88
L136.51 338.88
L136.646 340.8
L136.782 340.8
L136.919 344.64
L137.599 344.64
L137.735 346.56
L138.007 346.56
L138.143 350.4
L139.368 350.4
L139.504 354.24
L141.001 354.24
L141.138 356.16
L142.362 356.16
L142.499 354.24
L143.86 354.24
L144.268 352.32
L144.404 352.32
L144.54 350.4
L146.037 350.4
L146.173 346.56
L147.398 346.56
L147.534 344.64
L149.031 344.64
L149.167 340.8
L149.848 340.8
L150.256 335.04
L150.664 335.04
L151.073 331.2
L151.481 331.2
L152.025 329.28
L152.161 326.4
L154.475 326.4
L154.611 324.48
L155.836 324.48
L155.972 321.6
L158.966 321.6
L159.102 323.52
L159.919 323.52
L160.6 325.44
L161.688 325.44
L162.505 331.2
L162.777 331.2
L162.913 333.12
L163.321 333.12
L163.458 335.04
L163.594 335.04
L163.73 336.96
L165.091 336.96
L165.227 338.88
L165.363 338.88
L165.499 340.8
L166.316 340.8
L166.452 338.88
L167.404 338.88
L167.54 335.04
L167.949 335.04
L168.085 331.2
L168.357 331.2
L168.493 326.4
L168.901 326.4
L169.038 324.48
L169.582 324.48
L169.718 321.6
L171.351 321.6
L171.487 316.8
L172.168 316.8
L172.304 312
L174.754 312
L174.89 307.2
L179.245 307.2
L179.381 310.08
L180.334 310.08
L180.47 308.16
L180.606 308.16
L180.742 306.24
L181.286 306.24
L181.422 302.4
L183.328 302.4
L183.464 300.48
L185.914 300.48
L186.05 302.4
L186.866 302.4
L187.002 312
L189.997 312
L190.133 315.84
L190.677 315.84
L191.221 312
L191.358 308.16
L191.902 308.16
L192.038 307.2
L193.399 307.2
L193.535 305.28
L195.713 305.28
L195.849 304.32
L196.938 304.32
L197.074 302.4
L197.346 302.4
L197.482 297.6
L201.293 297.6
L201.429 292.8
L202.381 292.8
L202.518 288
L202.926 288
L203.062 283.2
L203.334 283.2
L203.47 288
L204.423 288
L204.559 292.8
L208.642 292.8
L208.778 296.64
L211.092 296.64
L211.228 297.6
L216.536 297.6
L216.672 292.8
L218.169 292.8
L218.305 290.88
L219.121 290.88
L219.258 288
L221.571 288
L221.707 285.12
L221.843 285.12
L222.388 283.2
L224.565 283.2
L224.701 278.4
L225.246 278.4
L225.382 276.48
L225.79 276.48
L225.926 273.6
L227.832 273.6
L227.968 268.8
L232.459 268.8
L232.595 271.68
L234.5 271.68
L234.637 273.6
L235.861 273.6
L235.998 277.44
L236.678 277.44
L236.814 308.16
L238.039 308.16
L238.175 306.24
L238.856 306.24
L238.992 302.4
L239.264 302.4
L239.4 306.24
L239.808 306.24
L239.944 302.4
L241.305 302.4
L241.441 298.56
L242.802 298.56
L242.939 297.6
L243.347 297.6
L243.483 292.8
L244.163 292.8
L244.3 288
L244.436 288
L244.572 283.2
L245.797 283.2
L247.974 273.6
L249.471 273.6
L249.607 268.8
L252.601 268.8
L253.01 264
L254.099 264
L254.235 268.8
L256.684 268.8
L256.82 265.92
L257.229 265.92
L257.365 264
L258.318 264
L258.454 265.92
L258.726 265.92
L258.862 267.84
L259.134 267.84
L260.087 273.6
L260.495 273.6
L260.631 277.44
L261.584 277.44
L261.72 281.28
L261.992 281.28
L262.128 283.2
L263.353 283.2
L263.489 287.04
L264.306 287.04
L264.442 288.96
L268.253 288.96
L268.389 292.8
L271.791 292.8
L271.927 288
L275.602 288
L275.738 283.2
L277.099 283.2
L277.235 281.28
L278.052 281.28
L278.188 279.36
L278.868 279.36
L279.004 277.44
L281.318 277.44
L281.454 273.6
L283.496 273.6
L283.632 271.68
L283.904 271.68
L284.04 269.76
L286.354 269.76
L286.49 297.6
L288.123 297.6
L288.259 292.8
L289.62 292.8
L289.756 288
L291.661 288
L291.798 283.2
L294.656 283.2
L294.792 281.28
L296.153 281.28
L296.289 277.44
L296.969 277.44
L297.105 273.6
L297.65 273.6
L297.786 269.76
L299.147 269.76
L299.283 264
L301.052 264
L301.188 260.16
L301.46 260.16
L301.597 258.24
L302.549 258.24
L302.685 254.4
L304.727 254.4
L304.863 249.6
L307.585 249.6
L307.721 246.72
L308.946 246.72
L309.082 248.64
L309.354 248.64
L309.899 254.4
L310.307 254.4
L310.443 258.24
L310.851 258.24
L310.987 250.56
L311.26 250.56
L311.396 244.8
L312.212 244.8
L312.348 240
L312.757 240
L312.893 235.2
L313.029 235.2
L313.573 220.8
L313.981 220.8
L314.118 216
L314.934 216
L315.07 211.2
L315.479 211.2
L315.615 206.4
L316.703 206.4
L316.84 202.56
L317.792 202.56
L317.928 200.64
L318.064 200.64
L318.2 196.8
L320.242 196.8
L320.378 187.2
L322.147 187.2
L322.283 177.6
L323.917 177.6
L324.053 168
L325.822 168
L325.958 163.2
L327.591 163.2
L327.727 158.4
L330.585 158.4
L330.721 148.8
L331.81 148.8
L331.946 139.2
L332.763 139.2
L333.58 148.8
L334.26 148.8
L334.396 168
L335.213 168
L335.349 177.6
L336.71 177.6
L336.846 187.2
L337.799 187.2
L337.935 182.4
L339.976 182.4
L340.112 177.6
L343.106 177.6
L343.242 168
L344.74 168
L344.876 158.4
L346.781 158.4
L346.917 168
L349.095 168
L349.231 158.4
L350.592 158.4
L350.728 148.8
L351.544 148.8
L351.68 139.2
L352.633 139.2
L352.769 148.8
L354.402 148.8
L354.539 158.4
L359.846 158.4
L361.207 168
L361.752 168
L361.888 177.6
L362.024 177.6
L362.16 168
L362.296 168
L362.432 148.8
L366.515 148.8
L366.651 158.4
L369.237 158.4
L369.373 168
L370.734 168
L370.87 158.4
L371.142 158.4
L371.279 148.8
L379.989 148.8
L380.125 139.2
L382.166 139.2
L382.302 148.8
L385.977 148.8
L386.113 158.4
L386.249 158.4
L386.385 196.8
L387.882 196.8
L388.019 187.2
L390.877 187.2
L391.557 196.8
L394.687 196.8
L394.823 187.2
L395.232 187.2
L395.368 206.4
L395.504 206.4
L395.64 216
L396.048 216
L396.184 206.4
L398.362 206.4
L398.498 196.8
L401.356 196.8
L401.492 187.2
L405.167 187.2
L405.303 196.8
L406.528 196.8
L406.664 202.56
L409.114 202.56
L409.25 196.8
L409.522 196.8
L409.658 191.04
L409.93 191.04
L410.066 187.2
L411.019 187.2
L411.155 177.6
L417.28 177.6
L417.416 168
L420.818 168
L420.954 158.4
L421.635 158.4
L421.771 148.8
L423.812 148.8
L423.948 158.4
L428.848 158.4
L428.984 148.8
L431.842 148.8
L431.978 139.2
L433.611 139.2
L433.747 148.8
L438.511 148.8
L438.647 139.2
L439.327 139.2
L439.463 158.4
L441.369 158.4
L441.505 152.64
L442.049 152.64
L442.185 148.8
L444.091 148.8
L444.227 144.96
L445.588 144.96
L445.724 139.2
L450.215 139.2
L450.351 129.6
L453.209 129.6
L453.345 139.2
L457.428 139.2
L457.564 129.6
L462.328 129.6
L462.464 139.2
L465.186 139.2
L465.322 129.6
L468.724 129.6
L468.86 120
L470.766 120
L470.902 100.8
L472.399 100.8
L472.535 91.2
L476.89 91.2
L477.026 100.8
L477.435 91.2
L477.843 91.2
L477.979 81.6
L479.068 81.6
L479.204 72
L482.334 72
L482.47 62.4
L483.287 62.4
L483.423 81.6
L485.192 81.6
L485.328 100.8
L486.825 100.8
L486.961 91.2
L487.778 91.2
L487.914 81.6
L492.405 81.6
L492.541 72
L494.583 72
L494.719 62.4
L495.4 62.4
L495.536 52.8
L496.08 52.8
L496.216 62.4
L499.482 62.4
L499.619 72
L502.477 72
L502.613 62.4
L503.565 62.4
L503.701 52.8
L505.743 52.8
L505.879 43.2
L508.057 43.2
L508.193 52.8
L510.098 52.8
L510.234 62.4
L512.14 62.4
L512.276 52.8
L512.548 52.8
L513.092 43.2
L514.725 43.2
L514.861 52.8
L518.4 52.8
L518.4 52.8" style="fill:none;stroke:#0000ff;"/>
   </g>
   <g id="line2d_3">
    <path clip-path="url(#p7ff5b81e1d)" d="
M451.984 138.658
L452.529 147.036
L453.073 144.787
L454.162 151.238
L454.706 153.197
L455.251 151.896
L456.067 154.388
L456.34 155.401
L456.884 144.215
L457.428 144.637
L457.973 146.09
L459.061 139.009
L459.606 140.667
L460.15 139.427
L460.695 133.513
L461.239 137.031
L461.783 136.434
L462.328 135.027
L462.872 134.978
L463.961 142.113
L464.505 140.305
L465.05 134.224
L465.594 136.531
L466.275 128.32
L466.683 126.137
L467.227 129.404
L467.908 127.478
L468.316 125.669
L468.86 129.466
L469.405 139.229
L469.949 134.051
L470.494 135.834
L471.038 133.959
L471.719 124.473
L472.127 122.847
L472.671 126.584
L473.488 117.44
L473.76 113.665
L474.304 122.989
L474.849 121.329
L475.393 116.5
L475.938 119.691
L476.482 119.389
L477.026 117.798
L477.843 117.911
L478.115 117.998
L478.66 110.592
L479.34 111.138
L479.748 111.278
L480.293 102.742
L480.837 106.12
L481.518 102.996
L481.926 100.471
L482.47 102.095
L483.559 95.8153
L484.648 105.194
L485.192 99.2456
L486.145 111.064
L486.281 112.942
L487.37 106.537
L487.914 110.017
L488.459 109.85
L489.003 102.232
L489.547 105.244
L490.092 103.912
L491.18 110.137
L492.133 107.078
L492.405 106.411
L492.814 105.901
L493.358 103.645
L494.039 107.298
L494.447 108.51
L494.991 106.944
L495.672 102.682
L496.624 100.712
L497.169 101.433
L497.713 100.624
L498.258 98.6329
L498.802 102.692
L499.346 102.461
L499.891 97.6343
L500.435 99.2768
L500.98 102.886
L501.524 101.955
L502.204 105.34
L502.613 106.374
L503.293 100.516
L503.701 99.2252
L504.246 99.776
L504.79 97.1528
L505.335 97.3536
L505.879 99.0141
L506.423 89.6763
L507.376 89.2673
L507.512 89.1914
L508.601 85.0728
L509.281 89.7
L509.69 90.5329
L510.234 87.3721
L510.779 88.2188
L511.323 91.9444
L511.867 86.7751
L512.548 89.6889
L512.956 90.4227
L513.5 84.8318
L514.045 85.7628
L514.725 85.0175
L515.134 84.3071
L516.222 90.8291
L516.903 86.742
L517.311 85.8664
L517.856 86.2274
L518.4 82.9292
L518.4 82.9292" style="fill:none;stroke:#ff0000;"/>
   </g>
   <g id="matplotlib.axis_1">
    <g id="xtick_1">
     <g id="line2d_4">
      <path clip-path="url(#p7ff5b81e1d)" d="
M116.776 388.8
L116.776 43.2" style="fill:none;stroke:#000000;stroke-dasharray:1.000000,3.000000;stroke-dashoffset:0.0;stroke-linecap:butt;stroke-width:0.5;"/>
     </g>
     <g id="line2d_5">
      <defs>
       <path d="
M0 0
L0 -4" id="mcb557df647" style="stroke:#000000;stroke-linecap:butt;stroke-width:0.5;"/>
      </defs>
      <g>
       <use style="stroke:#000000;stroke-linecap:butt;stroke-width:0.5;" x="116.776097561" xlink:href="#mcb557df647" y="388.8"/>
      </g>
     </g>
     <g id="line2d_6">
      <defs>
       <path d="
M0 0
L0 4" id="mdad270ee8e" style="stroke:#000000;stroke-linecap:butt;stroke-width:0.5;"/>
      </defs>
      <g>
       <use style="stroke:#000000;stroke-linecap:butt;stroke-width:0.5;" x="116.776097561" xlink:href="#mdad270ee8e" y="43.2"/>
      </g>
     </g>
     <g id="text_1">
      <!-- 2006 -->
      <defs>
       <path d="
M31.7812 66.4062
Q24.1719 66.4062 20.3281 58.9062
Q16.5 51.4219 16.5 36.375
Q16.5 21.3906 20.3281 13.8906
Q24.1719 6.39062 31.7812 6.39062
Q39.4531 6.39062 43.2812 13.8906
Q47.125 21.3906 47.125 36.375
Q47.125 51.4219 43.2812 58.9062
Q39.4531 66.4062 31.7812 66.4062
M31.7812 74.2188
Q44.0469 74.2188 50.5156 64.5156
Q56.9844 54.8281 56.9844 36.375
Q56.9844 17.9688 50.5156 8.26562
Q44.0469 -1.42188 31.7812 -1.42188
Q19.5312 -1.42188 13.0625 8.26562
Q6.59375 17.9688 6.59375 36.375
Q6.59375 54.8281 13.0625 64.5156
Q19.5312 74.2188 31.7812 74.2188" id="DejaVuSans-30"/>
       <path d="
M19.1875 8.29688
L53.6094 8.29688
L53.6094 0
L7.32812 0
L7.32812 8.29688
Q12.9375 14.1094 22.625 23.8906
Q32.3281 33.6875 34.8125 36.5312
Q39.5469 41.8438 41.4219 45.5312
Q43.3125 49.2188 43.3125 52.7812
Q43.3125 58.5938 39.2344 62.25
Q35.1562 65.9219 28.6094 65.9219
Q23.9688 65.9219 18.8125 64.3125
Q13.6719 62.7031 7.8125 59.4219
L7.8125 69.3906
Q13.7656 71.7812 18.9375 73
Q24.125 74.2188 28.4219 74.2188
Q39.75 74.2188 46.4844 68.5469
Q53.2188 62.8906 53.2188 53.4219
Q53.2188 48.9219 51.5312 44.8906
Q49.8594 40.875 45.4062 35.4062
Q44.1875 33.9844 37.6406 27.2188
Q31.1094 20.4531 19.1875 8.29688" id="DejaVuSans-32"/>
       <path d="
M33.0156 40.375
Q26.375 40.375 22.4844 35.8281
Q18.6094 31.2969 18.6094 23.3906
Q18.6094 15.5312 22.4844 10.9531
Q26.375 6.39062 33.0156 6.39062
Q39.6562 6.39062 43.5312 10.9531
Q47.4062 15.5312 47.4062 23.3906
Q47.4062 31.2969 43.5312 35.8281
Q39.6562 40.375 33.0156 40.375
M52.5938 71.2969
L52.5938 62.3125
Q48.875 64.0625 45.0938 64.9844
Q41.3125 65.9219 37.5938 65.9219
Q27.8281 65.9219 22.6719 59.3281
Q17.5312 52.7344 16.7969 39.4062
Q19.6719 43.6562 24.0156 45.9219
Q28.375 48.1875 33.5938 48.1875
Q44.5781 48.1875 50.9531 41.5156
Q57.3281 34.8594 57.3281 23.3906
Q57.3281 12.1562 50.6875 5.35938
Q44.0469 -1.42188 33.0156 -1.42188
Q20.3594 -1.42188 13.6719 8.26562
Q6.98438 17.9688 6.98438 36.375
Q6.98438 53.6562 15.1875 63.9375
Q23.3906 74.2188 37.2031 74.2188
Q40.9219 74.2188 44.7031 73.4844
Q48.4844 72.75 52.5938 71.2969" id="DejaVuSans-36"/>
      </defs>
      <g transform="translate(102.323597561 401.70625)scale(0.12 -0.12)">
       <use xlink:href="#DejaVuSans-32"/>
       <use x="63.623046875" xlink:href="#DejaVuSans-30"/>
       <use x="127.24609375" xlink:href="#DejaVuSans-30"/>
       <use x="190.869140625" xlink:href="#DejaVuSans-36"/>
      </g>
     </g>
    </g>
    <g id="xtick_2">
     <g id="line2d_7">
      <path clip-path="url(#p7ff5b81e1d)" d="
M166.452 388.8
L166.452 43.2" style="fill:none;stroke:#000000;stroke-dasharray:1.000000,3.000000;stroke-dashoffset:0.0;stroke-linecap:butt;stroke-width:0.5;"/>
     </g>
     <g id="line2d_8">
      <g>
       <use style="stroke:#000000;stroke-linecap:butt;stroke-width:0.5;" x="166.451707317" xlink:href="#mcb557df647" y="388.8"/>
      </g>
     </g>
     <g id="line2d_9">
      <g>
       <use style="stroke:#000000;stroke-linecap:butt;stroke-width:0.5;" x="166.451707317" xlink:href="#mdad270ee8e" y="43.2"/>
      </g>
     </g>
     <g id="text_2">
      <!-- 2007 -->
      <defs>
       <path d="
M8.20312 72.9062
L55.0781 72.9062
L55.0781 68.7031
L28.6094 0
L18.3125 0
L43.2188 64.5938
L8.20312 64.5938
z
" id="DejaVuSans-37"/>
      </defs>
      <g transform="translate(152.134207317 401.70625)scale(0.12 -0.12)">
       <use xlink:href="#DejaVuSans-32"/>
       <use x="63.623046875" xlink:href="#DejaVuSans-30"/>
       <use x="127.24609375" xlink:href="#DejaVuSans-30"/>
       <use x="190.869140625" xlink:href="#DejaVuSans-37"/>
      </g>
     </g>
    </g>
    <g id="xtick_3">
     <g id="line2d_10">
      <path clip-path="url(#p7ff5b81e1d)" d="
M216.127 388.8
L216.127 43.2" style="fill:none;stroke:#000000;stroke-dasharray:1.000000,3.000000;stroke-dashoffset:0.0;stroke-linecap:butt;stroke-width:0.5;"/>
     </g>
     <g id="line2d_11">
      <g>
       <use style="stroke:#000000;stroke-linecap:butt;stroke-width:0.5;" x="216.127317073" xlink:href="#mcb557df647" y="388.8"/>
      </g>
     </g>
     <g id="line2d_12">
      <g>
       <use style="stroke:#000000;stroke-linecap:butt;stroke-width:0.5;" x="216.127317073" xlink:href="#mdad270ee8e" y="43.2"/>
      </g>
     </g>
     <g id="text_3">
      <!-- 2008 -->
      <defs>
       <path d="
M31.7812 34.625
Q24.75 34.625 20.7188 30.8594
Q16.7031 27.0938 16.7031 20.5156
Q16.7031 13.9219 20.7188 10.1562
Q24.75 6.39062 31.7812 6.39062
Q38.8125 6.39062 42.8594 10.1719
Q46.9219 13.9688 46.9219 20.5156
Q46.9219 27.0938 42.8906 30.8594
Q38.875 34.625 31.7812 34.625
M21.9219 38.8125
Q15.5781 40.375 12.0312 44.7188
Q8.5 49.0781 8.5 55.3281
Q8.5 64.0625 14.7188 69.1406
Q20.9531 74.2188 31.7812 74.2188
Q42.6719 74.2188 48.875 69.1406
Q55.0781 64.0625 55.0781 55.3281
Q55.0781 49.0781 51.5312 44.7188
Q48 40.375 41.7031 38.8125
Q48.8281 37.1562 52.7969 32.3125
Q56.7812 27.4844 56.7812 20.5156
Q56.7812 9.90625 50.3125 4.23438
Q43.8438 -1.42188 31.7812 -1.42188
Q19.7344 -1.42188 13.25 4.23438
Q6.78125 9.90625 6.78125 20.5156
Q6.78125 27.4844 10.7812 32.3125
Q14.7969 37.1562 21.9219 38.8125
M18.3125 54.3906
Q18.3125 48.7344 21.8438 45.5625
Q25.3906 42.3906 31.7812 42.3906
Q38.1406 42.3906 41.7188 45.5625
Q45.3125 48.7344 45.3125 54.3906
Q45.3125 60.0625 41.7188 63.2344
Q38.1406 66.4062 31.7812 66.4062
Q25.3906 66.4062 21.8438 63.2344
Q18.3125 60.0625 18.3125 54.3906" id="DejaVuSans-38"/>
      </defs>
      <g transform="translate(201.707629573 401.70625)scale(0.12 -0.12)">
       <use xlink:href="#DejaVuSans-32"/>
       <use x="63.623046875" xlink:href="#DejaVuSans-30"/>
       <use x="127.24609375" xlink:href="#DejaVuSans-30"/>
       <use x="190.869140625" xlink:href="#DejaVuSans-38"/>
      </g>
     </g>
    </g>
    <g id="xtick_4">
     <g id="line2d_13">
      <path clip-path="url(#p7ff5b81e1d)" d="
M265.939 388.8
L265.939 43.2" style="fill:none;stroke:#000000;stroke-dasharray:1.000000,3.000000;stroke-dashoffset:0.0;stroke-linecap:butt;stroke-width:0.5;"/>
     </g>
     <g id="line2d_14">
      <g>
       <use style="stroke:#000000;stroke-linecap:butt;stroke-width:0.5;" x="265.93902439" xlink:href="#mcb557df647" y="388.8"/>
      </g>
     </g>
     <g id="line2d_15">
      <g>
       <use style="stroke:#000000;stroke-linecap:butt;stroke-width:0.5;" x="265.93902439" xlink:href="#mdad270ee8e" y="43.2"/>
      </g>
     </g>
     <g id="text_4">
      <!-- 2009 -->
      <defs>
       <path d="
M10.9844 1.51562
L10.9844 10.5
Q14.7031 8.73438 18.5 7.8125
Q22.3125 6.89062 25.9844 6.89062
Q35.75 6.89062 40.8906 13.4531
Q46.0469 20.0156 46.7812 33.4062
Q43.9531 29.2031 39.5938 26.9531
Q35.25 24.7031 29.9844 24.7031
Q19.0469 24.7031 12.6719 31.3125
Q6.29688 37.9375 6.29688 49.4219
Q6.29688 60.6406 12.9375 67.4219
Q19.5781 74.2188 30.6094 74.2188
Q43.2656 74.2188 49.9219 64.5156
Q56.5938 54.8281 56.5938 36.375
Q56.5938 19.1406 48.4062 8.85938
Q40.2344 -1.42188 26.4219 -1.42188
Q22.7031 -1.42188 18.8906 -0.6875
Q15.0938 0.046875 10.9844 1.51562
M30.6094 32.4219
Q37.25 32.4219 41.125 36.9531
Q45.0156 41.5 45.0156 49.4219
Q45.0156 57.2812 41.125 61.8438
Q37.25 66.4062 30.6094 66.4062
Q23.9688 66.4062 20.0938 61.8438
Q16.2188 57.2812 16.2188 49.4219
Q16.2188 41.5 20.0938 36.9531
Q23.9688 32.4219 30.6094 32.4219" id="DejaVuSans-39"/>
      </defs>
      <g transform="translate(251.53058689 401.70625)scale(0.12 -0.12)">
       <use xlink:href="#DejaVuSans-32"/>
       <use x="63.623046875" xlink:href="#DejaVuSans-30"/>
       <use x="127.24609375" xlink:href="#DejaVuSans-30"/>
       <use x="190.869140625" xlink:href="#DejaVuSans-39"/>
      </g>
     </g>
    </g>
    <g id="xtick_5">
     <g id="line2d_16">
      <path clip-path="url(#p7ff5b81e1d)" d="
M315.615 388.8
L315.615 43.2" style="fill:none;stroke:#000000;stroke-dasharray:1.000000,3.000000;stroke-dashoffset:0.0;stroke-linecap:butt;stroke-width:0.5;"/>
     </g>
     <g id="line2d_17">
      <g>
       <use style="stroke:#000000;stroke-linecap:butt;stroke-width:0.5;" x="315.614634146" xlink:href="#mcb557df647" y="388.8"/>
      </g>
     </g>
     <g id="line2d_18">
      <g>
       <use style="stroke:#000000;stroke-linecap:butt;stroke-width:0.5;" x="315.614634146" xlink:href="#mdad270ee8e" y="43.2"/>
      </g>
     </g>
     <g id="text_5">
      <!-- 2010 -->
      <defs>
       <path d="
M12.4062 8.29688
L28.5156 8.29688
L28.5156 63.9219
L10.9844 60.4062
L10.9844 69.3906
L28.4219 72.9062
L38.2812 72.9062
L38.2812 8.29688
L54.3906 8.29688
L54.3906 0
L12.4062 0
z
" id="DejaVuSans-31"/>
      </defs>
      <g transform="translate(301.182759146 401.70625)scale(0.12 -0.12)">
       <use xlink:href="#DejaVuSans-32"/>
       <use x="63.623046875" xlink:href="#DejaVuSans-30"/>
       <use x="127.24609375" xlink:href="#DejaVuSans-31"/>
       <use x="190.869140625" xlink:href="#DejaVuSans-30"/>
      </g>
     </g>
    </g>
    <g id="xtick_6">
     <g id="line2d_19">
      <path clip-path="url(#p7ff5b81e1d)" d="
M365.29 388.8
L365.29 43.2" style="fill:none;stroke:#000000;stroke-dasharray:1.000000,3.000000;stroke-dashoffset:0.0;stroke-linecap:butt;stroke-width:0.5;"/>
     </g>
     <g id="line2d_20">
      <g>
       <use style="stroke:#000000;stroke-linecap:butt;stroke-width:0.5;" x="365.290243902" xlink:href="#mcb557df647" y="388.8"/>
      </g>
     </g>
     <g id="line2d_21">
      <g>
       <use style="stroke:#000000;stroke-linecap:butt;stroke-width:0.5;" x="365.290243902" xlink:href="#mdad270ee8e" y="43.2"/>
      </g>
     </g>
     <g id="text_6">
      <!-- 2011 -->
      <g transform="translate(351.013993902 401.70625)scale(0.12 -0.12)">
       <use xlink:href="#DejaVuSans-32"/>
       <use x="63.623046875" xlink:href="#DejaVuSans-30"/>
       <use x="127.24609375" xlink:href="#DejaVuSans-31"/>
       <use x="190.869140625" xlink:href="#DejaVuSans-31"/>
      </g>
     </g>
    </g>
    <g id="xtick_7">
     <g id="line2d_22">
      <path clip-path="url(#p7ff5b81e1d)" d="
M414.966 388.8
L414.966 43.2" style="fill:none;stroke:#000000;stroke-dasharray:1.000000,3.000000;stroke-dashoffset:0.0;stroke-linecap:butt;stroke-width:0.5;"/>
     </g>
     <g id="line2d_23">
      <g>
       <use style="stroke:#000000;stroke-linecap:butt;stroke-width:0.5;" x="414.965853659" xlink:href="#mcb557df647" y="388.8"/>
      </g>
     </g>
     <g id="line2d_24">
      <g>
       <use style="stroke:#000000;stroke-linecap:butt;stroke-width:0.5;" x="414.965853659" xlink:href="#mdad270ee8e" y="43.2"/>
      </g>
     </g>
     <g id="text_7">
      <!-- 2012 -->
      <g transform="translate(400.736478659 401.70625)scale(0.12 -0.12)">
       <use xlink:href="#DejaVuSans-32"/>
       <use x="63.623046875" xlink:href="#DejaVuSans-30"/>
       <use x="127.24609375" xlink:href="#DejaVuSans-31"/>
       <use x="190.869140625" xlink:href="#DejaVuSans-32"/>
      </g>
     </g>
    </g>
    <g id="xtick_8">
     <g id="line2d_25">
      <path clip-path="url(#p7ff5b81e1d)" d="
M464.778 388.8
L464.778 43.2" style="fill:none;stroke:#000000;stroke-dasharray:1.000000,3.000000;stroke-dashoffset:0.0;stroke-linecap:butt;stroke-width:0.5;"/>
     </g>
     <g id="line2d_26">
      <g>
       <use style="stroke:#000000;stroke-linecap:butt;stroke-width:0.5;" x="464.777560976" xlink:href="#mcb557df647" y="388.8"/>
      </g>
     </g>
     <g id="line2d_27">
      <g>
       <use style="stroke:#000000;stroke-linecap:butt;stroke-width:0.5;" x="464.777560976" xlink:href="#mdad270ee8e" y="43.2"/>
      </g>
     </g>
     <g id="text_8">
      <!-- 2013 -->
      <defs>
       <path d="
M40.5781 39.3125
Q47.6562 37.7969 51.625 33
Q55.6094 28.2188 55.6094 21.1875
Q55.6094 10.4062 48.1875 4.48438
Q40.7656 -1.42188 27.0938 -1.42188
Q22.5156 -1.42188 17.6562 -0.515625
Q12.7969 0.390625 7.625 2.20312
L7.625 11.7188
Q11.7188 9.32812 16.5938 8.10938
Q21.4844 6.89062 26.8125 6.89062
Q36.0781 6.89062 40.9375 10.5469
Q45.7969 14.2031 45.7969 21.1875
Q45.7969 27.6406 41.2812 31.2656
Q36.7656 34.9062 28.7188 34.9062
L20.2188 34.9062
L20.2188 43.0156
L29.1094 43.0156
Q36.375 43.0156 40.2344 45.9219
Q44.0938 48.8281 44.0938 54.2969
Q44.0938 59.9062 40.1094 62.9062
Q36.1406 65.9219 28.7188 65.9219
Q24.6562 65.9219 20.0156 65.0312
Q15.375 64.1562 9.8125 62.3125
L9.8125 71.0938
Q15.4375 72.6562 20.3438 73.4375
Q25.25 74.2188 29.5938 74.2188
Q40.8281 74.2188 47.3594 69.1094
Q53.9062 64.0156 53.9062 55.3281
Q53.9062 49.2656 50.4375 45.0938
Q46.9688 40.9219 40.5781 39.3125" id="DejaVuSans-33"/>
      </defs>
      <g transform="translate(450.428185976 401.70625)scale(0.12 -0.12)">
       <use xlink:href="#DejaVuSans-32"/>
       <use x="63.623046875" xlink:href="#DejaVuSans-30"/>
       <use x="127.24609375" xlink:href="#DejaVuSans-31"/>
       <use x="190.869140625" xlink:href="#DejaVuSans-33"/>
      </g>
     </g>
    </g>
    <g id="xtick_9">
     <g id="line2d_28">
      <path clip-path="url(#p7ff5b81e1d)" d="
M514.453 388.8
L514.453 43.2" style="fill:none;stroke:#000000;stroke-dasharray:1.000000,3.000000;stroke-dashoffset:0.0;stroke-linecap:butt;stroke-width:0.5;"/>
     </g>
     <g id="line2d_29">
      <g>
       <use style="stroke:#000000;stroke-linecap:butt;stroke-width:0.5;" x="514.453170732" xlink:href="#mcb557df647" y="388.8"/>
      </g>
     </g>
     <g id="line2d_30">
      <g>
       <use style="stroke:#000000;stroke-linecap:butt;stroke-width:0.5;" x="514.453170732" xlink:href="#mdad270ee8e" y="43.2"/>
      </g>
     </g>
     <g id="text_9">
      <!-- 2014 -->
      <defs>
       <path d="
M37.7969 64.3125
L12.8906 25.3906
L37.7969 25.3906
z

M35.2031 72.9062
L47.6094 72.9062
L47.6094 25.3906
L58.0156 25.3906
L58.0156 17.1875
L47.6094 17.1875
L47.6094 0
L37.7969 0
L37.7969 17.1875
L4.89062 17.1875
L4.89062 26.7031
z
" id="DejaVuSans-34"/>
      </defs>
      <g transform="translate(499.959420732 401.70625)scale(0.12 -0.12)">
       <use xlink:href="#DejaVuSans-32"/>
       <use x="63.623046875" xlink:href="#DejaVuSans-30"/>
       <use x="127.24609375" xlink:href="#DejaVuSans-31"/>
       <use x="190.869140625" xlink:href="#DejaVuSans-34"/>
      </g>
     </g>
    </g>
   </g>
   <g id="matplotlib.axis_2">
    <g id="ytick_1">
     <g id="line2d_31">
      <path clip-path="url(#p7ff5b81e1d)" d="
M72 388.8
L518.4 388.8" style="fill:none;stroke:#000000;stroke-dasharray:1.000000,3.000000;stroke-dashoffset:0.0;stroke-linecap:butt;stroke-width:0.5;"/>
     </g>
     <g id="line2d_32">
      <defs>
       <path d="
M0 0
L4 0" id="mc8fcea1516" style="stroke:#000000;stroke-linecap:butt;stroke-width:0.5;"/>
      </defs>
      <g>
       <use style="stroke:#000000;stroke-linecap:butt;stroke-width:0.5;" x="72.0" xlink:href="#mc8fcea1516" y="388.8"/>
      </g>
     </g>
     <g id="line2d_33">
      <defs>
       <path d="
M0 0
L-4 0" id="m0d5b0a6425" style="stroke:#000000;stroke-linecap:butt;stroke-width:0.5;"/>
      </defs>
      <g>
       <use style="stroke:#000000;stroke-linecap:butt;stroke-width:0.5;" x="518.4" xlink:href="#m0d5b0a6425" y="388.8"/>
      </g>
     </g>
     <g id="text_10">
      <!-- 10 -->
      <g transform="translate(54.845 393.1678125)scale(0.12 -0.12)">
       <use xlink:href="#DejaVuSans-31"/>
       <use x="63.623046875" xlink:href="#DejaVuSans-30"/>
      </g>
     </g>
    </g>
    <g id="ytick_2">
     <g id="line2d_34">
      <path clip-path="url(#p7ff5b81e1d)" d="
M72 350.4
L518.4 350.4" style="fill:none;stroke:#000000;stroke-dasharray:1.000000,3.000000;stroke-dashoffset:0.0;stroke-linecap:butt;stroke-width:0.5;"/>
     </g>
     <g id="line2d_35">
      <g>
       <use style="stroke:#000000;stroke-linecap:butt;stroke-width:0.5;" x="72.0" xlink:href="#mc8fcea1516" y="350.4"/>
      </g>
     </g>
     <g id="line2d_36">
      <g>
       <use style="stroke:#000000;stroke-linecap:butt;stroke-width:0.5;" x="518.4" xlink:href="#m0d5b0a6425" y="350.4"/>
      </g>
     </g>
     <g id="text_11">
      <!-- 12 -->
      <g transform="translate(55.25 354.853125)scale(0.12 -0.12)">
       <use xlink:href="#DejaVuSans-31"/>
       <use x="63.623046875" xlink:href="#DejaVuSans-32"/>
      </g>
     </g>
    </g>
    <g id="ytick_3">
     <g id="line2d_37">
      <path clip-path="url(#p7ff5b81e1d)" d="
M72 312
L518.4 312" style="fill:none;stroke:#000000;stroke-dasharray:1.000000,3.000000;stroke-dashoffset:0.0;stroke-linecap:butt;stroke-width:0.5;"/>
     </g>
     <g id="line2d_38">
      <g>
       <use style="stroke:#000000;stroke-linecap:butt;stroke-width:0.5;" x="72.0" xlink:href="#mc8fcea1516" y="312.0"/>
      </g>
     </g>
     <g id="line2d_39">
      <g>
       <use style="stroke:#000000;stroke-linecap:butt;stroke-width:0.5;" x="518.4" xlink:href="#m0d5b0a6425" y="312.0"/>
      </g>
     </g>
     <g id="text_12">
      <!-- 14 -->
      <g transform="translate(54.72125 316.374375)scale(0.12 -0.12)">
       <use xlink:href="#DejaVuSans-31"/>
       <use x="63.623046875" xlink:href="#DejaVuSans-34"/>
      </g>
     </g>
    </g>
    <g id="ytick_4">
     <g id="line2d_40">
      <path clip-path="url(#p7ff5b81e1d)" d="
M72 273.6
L518.4 273.6" style="fill:none;stroke:#000000;stroke-dasharray:1.000000,3.000000;stroke-dashoffset:0.0;stroke-linecap:butt;stroke-width:0.5;"/>
     </g>
     <g id="line2d_41">
      <g>
       <use style="stroke:#000000;stroke-linecap:butt;stroke-width:0.5;" x="72.0" xlink:href="#mc8fcea1516" y="273.6"/>
      </g>
     </g>
     <g id="line2d_42">
      <g>
       <use style="stroke:#000000;stroke-linecap:butt;stroke-width:0.5;" x="518.4" xlink:href="#m0d5b0a6425" y="273.6"/>
      </g>
     </g>
     <g id="text_13">
      <!-- 16 -->
      <g transform="translate(54.80375 277.9678125)scale(0.12 -0.12)">
       <use xlink:href="#DejaVuSans-31"/>
       <use x="63.623046875" xlink:href="#DejaVuSans-36"/>
      </g>
     </g>
    </g>
    <g id="ytick_5">
     <g id="line2d_43">
      <path clip-path="url(#p7ff5b81e1d)" d="
M72 235.2
L518.4 235.2" style="fill:none;stroke:#000000;stroke-dasharray:1.000000,3.000000;stroke-dashoffset:0.0;stroke-linecap:butt;stroke-width:0.5;"/>
     </g>
     <g id="line2d_44">
      <g>
       <use style="stroke:#000000;stroke-linecap:butt;stroke-width:0.5;" x="72.0" xlink:href="#mc8fcea1516" y="235.2"/>
      </g>
     </g>
     <g id="line2d_45">
      <g>
       <use style="stroke:#000000;stroke-linecap:butt;stroke-width:0.5;" x="518.4" xlink:href="#m0d5b0a6425" y="235.2"/>
      </g>
     </g>
     <g id="text_14">
      <!-- 18 -->
      <g transform="translate(54.869375 239.5678125)scale(0.12 -0.12)">
       <use xlink:href="#DejaVuSans-31"/>
       <use x="63.623046875" xlink:href="#DejaVuSans-38"/>
      </g>
     </g>
    </g>
    <g id="ytick_6">
     <g id="line2d_46">
      <path clip-path="url(#p7ff5b81e1d)" d="
M72 196.8
L518.4 196.8" style="fill:none;stroke:#000000;stroke-dasharray:1.000000,3.000000;stroke-dashoffset:0.0;stroke-linecap:butt;stroke-width:0.5;"/>
     </g>
     <g id="line2d_47">
      <g>
       <use style="stroke:#000000;stroke-linecap:butt;stroke-width:0.5;" x="72.0" xlink:href="#mc8fcea1516" y="196.8"/>
      </g>
     </g>
     <g id="line2d_48">
      <g>
       <use style="stroke:#000000;stroke-linecap:butt;stroke-width:0.5;" x="518.4" xlink:href="#m0d5b0a6425" y="196.8"/>
      </g>
     </g>
     <g id="text_15">
      <!-- 20 -->
      <g transform="translate(54.40625 201.1678125)scale(0.12 -0.12)">
       <use xlink:href="#DejaVuSans-32"/>
       <use x="63.623046875" xlink:href="#DejaVuSans-30"/>
      </g>
     </g>
    </g>
    <g id="ytick_7">
     <g id="line2d_49">
      <path clip-path="url(#p7ff5b81e1d)" d="
M72 158.4
L518.4 158.4" style="fill:none;stroke:#000000;stroke-dasharray:1.000000,3.000000;stroke-dashoffset:0.0;stroke-linecap:butt;stroke-width:0.5;"/>
     </g>
     <g id="line2d_50">
      <g>
       <use style="stroke:#000000;stroke-linecap:butt;stroke-width:0.5;" x="72.0" xlink:href="#mc8fcea1516" y="158.4"/>
      </g>
     </g>
     <g id="line2d_51">
      <g>
       <use style="stroke:#000000;stroke-linecap:butt;stroke-width:0.5;" x="518.4" xlink:href="#m0d5b0a6425" y="158.4"/>
      </g>
     </g>
     <g id="text_16">
      <!-- 22 -->
      <g transform="translate(54.81125 162.853125)scale(0.12 -0.12)">
       <use xlink:href="#DejaVuSans-32"/>
       <use x="63.623046875" xlink:href="#DejaVuSans-32"/>
      </g>
     </g>
    </g>
    <g id="ytick_8">
     <g id="line2d_52">
      <path clip-path="url(#p7ff5b81e1d)" d="
M72 120
L518.4 120" style="fill:none;stroke:#000000;stroke-dasharray:1.000000,3.000000;stroke-dashoffset:0.0;stroke-linecap:butt;stroke-width:0.5;"/>
     </g>
     <g id="line2d_53">
      <g>
       <use style="stroke:#000000;stroke-linecap:butt;stroke-width:0.5;" x="72.0" xlink:href="#mc8fcea1516" y="120.0"/>
      </g>
     </g>
     <g id="line2d_54">
      <g>
       <use style="stroke:#000000;stroke-linecap:butt;stroke-width:0.5;" x="518.4" xlink:href="#m0d5b0a6425" y="120.0"/>
      </g>
     </g>
     <g id="text_17">
      <!-- 24 -->
      <g transform="translate(54.2825 124.453125)scale(0.12 -0.12)">
       <use xlink:href="#DejaVuSans-32"/>
       <use x="63.623046875" xlink:href="#DejaVuSans-34"/>
      </g>
     </g>
    </g>
    <g id="ytick_9">
     <g id="line2d_55">
      <path clip-path="url(#p7ff5b81e1d)" d="
M72 81.6
L518.4 81.6" style="fill:none;stroke:#000000;stroke-dasharray:1.000000,3.000000;stroke-dashoffset:0.0;stroke-linecap:butt;stroke-width:0.5;"/>
     </g>
     <g id="line2d_56">
      <g>
       <use style="stroke:#000000;stroke-linecap:butt;stroke-width:0.5;" x="72.0" xlink:href="#mc8fcea1516" y="81.6"/>
      </g>
     </g>
     <g id="line2d_57">
      <g>
       <use style="stroke:#000000;stroke-linecap:butt;stroke-width:0.5;" x="518.4" xlink:href="#m0d5b0a6425" y="81.6"/>
      </g>
     </g>
     <g id="text_18">
      <!-- 26 -->
      <g transform="translate(54.365 85.9678125)scale(0.12 -0.12)">
       <use xlink:href="#DejaVuSans-32"/>
       <use x="63.623046875" xlink:href="#DejaVuSans-36"/>
      </g>
     </g>
    </g>
    <g id="ytick_10">
     <g id="line2d_58">
      <path clip-path="url(#p7ff5b81e1d)" d="
M72 43.2
L518.4 43.2" style="fill:none;stroke:#000000;stroke-dasharray:1.000000,3.000000;stroke-dashoffset:0.0;stroke-linecap:butt;stroke-width:0.5;"/>
     </g>
     <g id="line2d_59">
      <g>
       <use style="stroke:#000000;stroke-linecap:butt;stroke-width:0.5;" x="72.0" xlink:href="#mc8fcea1516" y="43.2"/>
      </g>
     </g>
     <g id="line2d_60">
      <g>
       <use style="stroke:#000000;stroke-linecap:butt;stroke-width:0.5;" x="518.4" xlink:href="#m0d5b0a6425" y="43.2"/>
      </g>
     </g>
     <g id="text_19">
      <!-- 28 -->
      <g transform="translate(54.430625 47.5678125)scale(0.12 -0.12)">
       <use xlink:href="#DejaVuSans-32"/>
       <use x="63.623046875" xlink:href="#DejaVuSans-38"/>
      </g>
     </g>
    </g>
   </g>
   <g id="patch_3">
    <path d="
M72 43.2
L518.4 43.2" style="fill:none;stroke:#000000;"/>
   </g>
   <g id="patch_4">
    <path d="
M518.4 388.8
L518.4 43.2" style="fill:none;stroke:#000000;"/>
   </g>
   <g id="patch_5">
    <path d="
M72 388.8
L518.4 388.8" style="fill:none;stroke:#000000;"/>
   </g>
   <g id="patch_6">
    <path d="
M72 388.8
L72 43.2" style="fill:none;stroke:#000000;"/>
   </g>
   <g id="text_20">
    <!--  -->
    <g transform="translate(295.2 -22.6589)scale(0.144 -0.144)"/>
    <!-- model: (10, 10) - ../data/csv/19-05/wholesale-daily-('West Bengal', 'Champadanga', 'Rice', 'Ratnachudi (718 5-749)', 0.94).csv,  -->
    <defs>
     <path d="
M11.7188 12.4062
L22.0156 12.4062
L22.0156 0
L11.7188 0
z

M11.7188 51.7031
L22.0156 51.7031
L22.0156 39.3125
L11.7188 39.3125
z
" id="DejaVuSans-3a"/>
     <path d="
M44.3906 34.1875
Q47.5625 33.1094 50.5625 29.5938
Q53.5625 26.0781 56.5938 19.9219
L66.6094 0
L56 0
L46.6875 18.7031
Q43.0625 26.0312 39.6719 28.4219
Q36.2812 30.8125 30.4219 30.8125
L19.6719 30.8125
L19.6719 0
L9.8125 0
L9.8125 72.9062
L32.0781 72.9062
Q44.5781 72.9062 50.7344 67.6719
Q56.8906 62.4531 56.8906 51.9062
Q56.8906 45.0156 53.6875 40.4688
Q50.4844 35.9375 44.3906 34.1875
M19.6719 64.7969
L19.6719 38.9219
L32.0781 38.9219
Q39.2031 38.9219 42.8438 42.2188
Q46.4844 45.5156 46.4844 51.9062
Q46.4844 58.2969 42.8438 61.5469
Q39.2031 64.7969 32.0781 64.7969
z
" id="DejaVuSans-52"/>
     <path id="DejaVuSans-20"/>
     <path d="
M17.9219 72.9062
L17.9219 45.7969
L9.625 45.7969
L9.625 72.9062
z
" id="DejaVuSans-27"/>
     <path d="
M54.8906 33.0156
L54.8906 0
L45.9062 0
L45.9062 32.7188
Q45.9062 40.4844 42.875 44.3281
Q39.8438 48.1875 33.7969 48.1875
Q26.5156 48.1875 22.3125 43.5469
Q18.1094 38.9219 18.1094 30.9062
L18.1094 0
L9.07812 0
L9.07812 75.9844
L18.1094 75.9844
L18.1094 46.1875
Q21.3438 51.125 25.7031 53.5625
Q30.0781 56 35.7969 56
Q45.2188 56 50.0469 50.1719
Q54.8906 44.3438 54.8906 33.0156" id="DejaVuSans-68"/>
     <path d="
M9.42188 54.6875
L18.4062 54.6875
L18.4062 0
L9.42188 0
z

M9.42188 75.9844
L18.4062 75.9844
L18.4062 64.5938
L9.42188 64.5938
z
" id="DejaVuSans-69"/>
     <path d="
M32.1719 -5.07812
Q28.375 -14.8438 24.75 -17.8125
Q21.1406 -20.7969 15.0938 -20.7969
L7.90625 -20.7969
L7.90625 -13.2812
L13.1875 -13.2812
Q16.8906 -13.2812 18.9375 -11.5156
Q21 -9.76562 23.4844 -3.21875
L25.0938 0.875
L2.98438 54.6875
L12.5 54.6875
L29.5938 11.9219
L46.6875 54.6875
L56.2031 54.6875
z
" id="DejaVuSans-79"/>
     <path d="
M45.4062 46.3906
L45.4062 75.9844
L54.3906 75.9844
L54.3906 0
L45.4062 0
L45.4062 8.20312
Q42.5781 3.32812 38.25 0.953125
Q33.9375 -1.42188 27.875 -1.42188
Q17.9688 -1.42188 11.7344 6.48438
Q5.51562 14.4062 5.51562 27.2969
Q5.51562 40.1875 11.7344 48.0938
Q17.9688 56 27.875 56
Q33.9375 56 38.25 53.625
Q42.5781 51.2656 45.4062 46.3906
M14.7969 27.2969
Q14.7969 17.3906 18.875 11.75
Q22.9531 6.10938 30.0781 6.10938
Q37.2031 6.10938 41.2969 11.75
Q45.4062 17.3906 45.4062 27.2969
Q45.4062 37.2031 41.2969 42.8438
Q37.2031 48.4844 30.0781 48.4844
Q22.9531 48.4844 18.875 42.8438
Q14.7969 37.2031 14.7969 27.2969" id="DejaVuSans-64"/>
     <path d="
M8.01562 75.875
L15.8281 75.875
Q23.1406 64.3594 26.7812 53.3125
Q30.4219 42.2812 30.4219 31.3906
Q30.4219 20.4531 26.7812 9.375
Q23.1406 -1.70312 15.8281 -13.1875
L8.01562 -13.1875
Q14.5 -2 17.7031 9.0625
Q20.9062 20.125 20.9062 31.3906
Q20.9062 42.6719 17.7031 53.6562
Q14.5 64.6562 8.01562 75.875" id="DejaVuSans-29"/>
     <path d="
M48.7812 52.5938
L48.7812 44.1875
Q44.9688 46.2969 41.1406 47.3438
Q37.3125 48.3906 33.4062 48.3906
Q24.6562 48.3906 19.8125 42.8438
Q14.9844 37.3125 14.9844 27.2969
Q14.9844 17.2812 19.8125 11.7344
Q24.6562 6.20312 33.4062 6.20312
Q37.3125 6.20312 41.1406 7.25
Q44.9688 8.29688 48.7812 10.4062
L48.7812 2.09375
Q45.0156 0.34375 40.9844 -0.53125
Q36.9688 -1.42188 32.4219 -1.42188
Q20.0625 -1.42188 12.7812 6.34375
Q5.51562 14.1094 5.51562 27.2969
Q5.51562 40.6719 12.8594 48.3281
Q20.2188 56 33.0156 56
Q37.1562 56 41.1094 55.1406
Q45.0625 54.2969 48.7812 52.5938" id="DejaVuSans-63"/>
     <path d="
M34.2812 27.4844
Q23.3906 27.4844 19.1875 25
Q14.9844 22.5156 14.9844 16.5
Q14.9844 11.7188 18.1406 8.90625
Q21.2969 6.10938 26.7031 6.10938
Q34.1875 6.10938 38.7031 11.4062
Q43.2188 16.7031 43.2188 25.4844
L43.2188 27.4844
z

M52.2031 31.2031
L52.2031 0
L43.2188 0
L43.2188 8.29688
Q40.1406 3.32812 35.5469 0.953125
Q30.9531 -1.42188 24.3125 -1.42188
Q15.9219 -1.42188 10.9531 3.29688
Q6 8.01562 6 15.9219
Q6 25.1406 12.1719 29.8281
Q18.3594 34.5156 30.6094 34.5156
L43.2188 34.5156
L43.2188 35.4062
Q43.2188 41.6094 39.1406 45
Q35.0625 48.3906 27.6875 48.3906
Q23 48.3906 18.5469 47.2656
Q14.1094 46.1406 10.0156 43.8906
L10.0156 52.2031
Q14.9375 54.1094 19.5781 55.0469
Q24.2188 56 28.6094 56
Q40.4844 56 46.3438 49.8438
Q52.2031 43.7031 52.2031 31.2031" id="DejaVuSans-61"/>
     <path d="
M19.6719 34.8125
L19.6719 8.10938
L35.5 8.10938
Q43.4531 8.10938 47.2812 11.4062
Q51.125 14.7031 51.125 21.4844
Q51.125 28.3281 47.2812 31.5625
Q43.4531 34.8125 35.5 34.8125
z

M19.6719 64.7969
L19.6719 42.8281
L34.2812 42.8281
Q41.5 42.8281 45.0312 45.5312
Q48.5781 48.25 48.5781 53.8125
Q48.5781 59.3281 45.0312 62.0625
Q41.5 64.7969 34.2812 64.7969
z

M9.8125 72.9062
L35.0156 72.9062
Q46.2969 72.9062 52.3906 68.2188
Q58.5 63.5312 58.5 54.8906
Q58.5 48.1875 55.375 44.2344
Q52.25 40.2812 46.1875 39.3125
Q53.4688 37.75 57.5 32.7812
Q61.5312 27.8281 61.5312 20.4062
Q61.5312 10.6406 54.8906 5.3125
Q48.25 0 35.9844 0
L9.8125 0
z
" id="DejaVuSans-42"/>
     <path d="
M64.4062 67.2812
L64.4062 56.8906
Q59.4219 61.5312 53.7812 63.8125
Q48.1406 66.1094 41.7969 66.1094
Q29.2969 66.1094 22.6562 58.4688
Q16.0156 50.8281 16.0156 36.375
Q16.0156 21.9688 22.6562 14.3281
Q29.2969 6.6875 41.7969 6.6875
Q48.1406 6.6875 53.7812 8.98438
Q59.4219 11.2812 64.4062 15.9219
L64.4062 5.60938
Q59.2344 2.09375 53.4375 0.328125
Q47.6562 -1.42188 41.2188 -1.42188
Q24.6562 -1.42188 15.125 8.70312
Q5.60938 18.8438 5.60938 36.375
Q5.60938 53.9531 15.125 64.0781
Q24.6562 74.2188 41.2188 74.2188
Q47.75 74.2188 53.5312 72.4844
Q59.3281 70.75 64.4062 67.2812" id="DejaVuSans-43"/>
     <path d="
M45.4062 27.9844
Q45.4062 37.75 41.375 43.1094
Q37.3594 48.4844 30.0781 48.4844
Q22.8594 48.4844 18.8281 43.1094
Q14.7969 37.75 14.7969 27.9844
Q14.7969 18.2656 18.8281 12.8906
Q22.8594 7.51562 30.0781 7.51562
Q37.3594 7.51562 41.375 12.8906
Q45.4062 18.2656 45.4062 27.9844
M54.3906 6.78125
Q54.3906 -7.17188 48.1875 -13.9844
Q42 -20.7969 29.2031 -20.7969
Q24.4688 -20.7969 20.2656 -20.0938
Q16.0625 -19.3906 12.1094 -17.9219
L12.1094 -9.1875
Q16.0625 -11.3281 19.9219 -12.3438
Q23.7812 -13.375 27.7812 -13.375
Q36.625 -13.375 41.0156 -8.76562
Q45.4062 -4.15625 45.4062 5.17188
L45.4062 9.625
Q42.625 4.78125 38.2812 2.39062
Q33.9375 0 27.875 0
Q17.8281 0 11.6719 7.65625
Q5.51562 15.3281 5.51562 27.9844
Q5.51562 40.6719 11.6719 48.3281
Q17.8281 56 27.875 56
Q33.9375 56 38.2812 53.6094
Q42.625 51.2188 45.4062 46.3906
L45.4062 54.6875
L54.3906 54.6875
z
" id="DejaVuSans-67"/>
     <path d="
M31 75.875
Q24.4688 64.6562 21.2812 53.6562
Q18.1094 42.6719 18.1094 31.3906
Q18.1094 20.125 21.3125 9.0625
Q24.5156 -2 31 -13.1875
L23.1875 -13.1875
Q15.875 -1.70312 12.2344 9.375
Q8.59375 20.4531 8.59375 31.3906
Q8.59375 42.2812 12.2031 53.3125
Q15.8281 64.3594 23.1875 75.875
z
" id="DejaVuSans-28"/>
     <path d="
M11.7188 12.4062
L22.0156 12.4062
L22.0156 4
L14.0156 -11.625
L7.71875 -11.625
L11.7188 4
z
" id="DejaVuSans-2c"/>
     <path d="
M56.2031 29.5938
L56.2031 25.2031
L14.8906 25.2031
Q15.4844 15.9219 20.4844 11.0625
Q25.4844 6.20312 34.4219 6.20312
Q39.5938 6.20312 44.4531 7.46875
Q49.3125 8.73438 54.1094 11.2812
L54.1094 2.78125
Q49.2656 0.734375 44.1875 -0.34375
Q39.1094 -1.42188 33.8906 -1.42188
Q20.7969 -1.42188 13.1562 6.1875
Q5.51562 13.8125 5.51562 26.8125
Q5.51562 40.2344 12.7656 48.1094
Q20.0156 56 32.3281 56
Q43.3594 56 49.7812 48.8906
Q56.2031 41.7969 56.2031 29.5938
M47.2188 32.2344
Q47.125 39.5938 43.0938 43.9844
Q39.0625 48.3906 32.4219 48.3906
Q24.9062 48.3906 20.3906 44.1406
Q15.875 39.8906 15.1875 32.1719
z
" id="DejaVuSans-65"/>
     <path d="
M25.3906 72.9062
L33.6875 72.9062
L8.29688 -9.28125
L0 -9.28125
z
" id="DejaVuSans-2f"/>
     <path d="
M4.89062 31.3906
L31.2031 31.3906
L31.2031 23.3906
L4.89062 23.3906
z
" id="DejaVuSans-2d"/>
     <path d="
M10.6875 12.4062
L21 12.4062
L21 0
L10.6875 0
z
" id="DejaVuSans-2e"/>
     <path d="
M30.6094 48.3906
Q23.3906 48.3906 19.1875 42.75
Q14.9844 37.1094 14.9844 27.2969
Q14.9844 17.4844 19.1562 11.8438
Q23.3438 6.20312 30.6094 6.20312
Q37.7969 6.20312 41.9844 11.8594
Q46.1875 17.5312 46.1875 27.2969
Q46.1875 37.0156 41.9844 42.7031
Q37.7969 48.3906 30.6094 48.3906
M30.6094 56
Q42.3281 56 49.0156 48.375
Q55.7188 40.7656 55.7188 27.2969
Q55.7188 13.875 49.0156 6.21875
Q42.3281 -1.42188 30.6094 -1.42188
Q18.8438 -1.42188 12.1719 6.21875
Q5.51562 13.875 5.51562 27.2969
Q5.51562 40.7656 12.1719 48.375
Q18.8438 56 30.6094 56" id="DejaVuSans-6f"/>
     <path d="
M52 44.1875
Q55.375 50.25 60.0625 53.125
Q64.75 56 71.0938 56
Q79.6406 56 84.2812 50.0156
Q88.9219 44.0469 88.9219 33.0156
L88.9219 0
L79.8906 0
L79.8906 32.7188
Q79.8906 40.5781 77.0938 44.375
Q74.3125 48.1875 68.6094 48.1875
Q61.625 48.1875 57.5625 43.5469
Q53.5156 38.9219 53.5156 30.9062
L53.5156 0
L44.4844 0
L44.4844 32.7188
Q44.4844 40.625 41.7031 44.4062
Q38.9219 48.1875 33.1094 48.1875
Q26.2188 48.1875 22.1562 43.5312
Q18.1094 38.875 18.1094 30.9062
L18.1094 0
L9.07812 0
L9.07812 54.6875
L18.1094 54.6875
L18.1094 46.1875
Q21.1875 51.2188 25.4844 53.6094
Q29.7812 56 35.6875 56
Q41.6562 56 45.8281 52.9688
Q50 49.9531 52 44.1875" id="DejaVuSans-6d"/>
     <path d="
M54.8906 33.0156
L54.8906 0
L45.9062 0
L45.9062 32.7188
Q45.9062 40.4844 42.875 44.3281
Q39.8438 48.1875 33.7969 48.1875
Q26.5156 48.1875 22.3125 43.5469
Q18.1094 38.9219 18.1094 30.9062
L18.1094 0
L9.07812 0
L9.07812 54.6875
L18.1094 54.6875
L18.1094 46.1875
Q21.3438 51.125 25.7031 53.5625
Q30.0781 56 35.7969 56
Q45.2188 56 50.0469 50.1719
Q54.8906 44.3438 54.8906 33.0156" id="DejaVuSans-6e"/>
     <path d="
M9.42188 75.9844
L18.4062 75.9844
L18.4062 0
L9.42188 0
z
" id="DejaVuSans-6c"/>
     <path d="
M10.7969 72.9062
L49.5156 72.9062
L49.5156 64.5938
L19.8281 64.5938
L19.8281 46.7344
Q21.9688 47.4688 24.1094 47.8281
Q26.2656 48.1875 28.4219 48.1875
Q40.625 48.1875 47.75 41.5
Q54.8906 34.8125 54.8906 23.3906
Q54.8906 11.625 47.5625 5.09375
Q40.2344 -1.42188 26.9062 -1.42188
Q22.3125 -1.42188 17.5469 -0.640625
Q12.7969 0.140625 7.71875 1.70312
L7.71875 11.625
Q12.1094 9.23438 16.7969 8.0625
Q21.4844 6.89062 26.7031 6.89062
Q35.1562 6.89062 40.0781 11.3281
Q45.0156 15.7656 45.0156 23.3906
Q45.0156 31 40.0781 35.4375
Q35.1562 39.8906 26.7031 39.8906
Q22.75 39.8906 18.8125 39.0156
Q14.8906 38.1406 10.7969 36.2812
z
" id="DejaVuSans-35"/>
     <path d="
M8.5 21.5781
L8.5 54.6875
L17.4844 54.6875
L17.4844 21.9219
Q17.4844 14.1562 20.5 10.2656
Q23.5312 6.39062 29.5938 6.39062
Q36.8594 6.39062 41.0781 11.0312
Q45.3125 15.6719 45.3125 23.6875
L45.3125 54.6875
L54.2969 54.6875
L54.2969 0
L45.3125 0
L45.3125 8.40625
Q42.0469 3.42188 37.7188 1
Q33.4062 -1.42188 27.6875 -1.42188
Q18.2656 -1.42188 13.375 4.4375
Q8.5 10.2969 8.5 21.5781
M31.1094 56
z
" id="DejaVuSans-75"/>
     <path d="
M18.3125 70.2188
L18.3125 54.6875
L36.8125 54.6875
L36.8125 47.7031
L18.3125 47.7031
L18.3125 18.0156
Q18.3125 11.3281 20.1406 9.42188
Q21.9688 7.51562 27.5938 7.51562
L36.8125 7.51562
L36.8125 0
L27.5938 0
Q17.1875 0 13.2344 3.875
Q9.28125 7.76562 9.28125 18.0156
L9.28125 47.7031
L2.6875 47.7031
L2.6875 54.6875
L9.28125 54.6875
L9.28125 70.2188
z
" id="DejaVuSans-74"/>
     <path d="
M4.20312 54.6875
L13.1875 54.6875
L24.4219 12.0156
L35.5938 54.6875
L46.1875 54.6875
L57.4219 12.0156
L68.6094 54.6875
L77.5938 54.6875
L63.2812 0
L52.6875 0
L40.9219 44.8281
L29.1094 0
L18.5 0
z
" id="DejaVuSans-77"/>
     <path d="
M2.98438 54.6875
L12.5 54.6875
L29.5938 8.79688
L46.6875 54.6875
L56.2031 54.6875
L35.6875 0
L23.4844 0
z
" id="DejaVuSans-76"/>
     <path d="
M3.32812 72.9062
L13.2812 72.9062
L28.6094 11.2812
L43.8906 72.9062
L54.9844 72.9062
L70.3125 11.2812
L85.5938 72.9062
L95.6094 72.9062
L77.2969 0
L64.8906 0
L49.5156 63.2812
L33.9844 0
L21.5781 0
z
" id="DejaVuSans-57"/>
     <path d="
M18.1094 8.20312
L18.1094 -20.7969
L9.07812 -20.7969
L9.07812 54.6875
L18.1094 54.6875
L18.1094 46.3906
Q20.9531 51.2656 25.2656 53.625
Q29.5938 56 35.5938 56
Q45.5625 56 51.7812 48.0938
Q58.0156 40.1875 58.0156 27.2969
Q58.0156 14.4062 51.7812 6.48438
Q45.5625 -1.42188 35.5938 -1.42188
Q29.5938 -1.42188 25.2656 0.953125
Q20.9531 3.32812 18.1094 8.20312
M48.6875 27.2969
Q48.6875 37.2031 44.6094 42.8438
Q40.5312 48.4844 33.4062 48.4844
Q26.2656 48.4844 22.1875 42.8438
Q18.1094 37.2031 18.1094 27.2969
Q18.1094 17.3906 22.1875 11.75
Q26.2656 6.10938 33.4062 6.10938
Q40.5312 6.10938 44.6094 11.75
Q48.6875 17.3906 48.6875 27.2969" id="DejaVuSans-70"/>
     <path d="
M44.2812 53.0781
L44.2812 44.5781
Q40.4844 46.5312 36.375 47.5
Q32.2812 48.4844 27.875 48.4844
Q21.1875 48.4844 17.8438 46.4375
Q14.5 44.3906 14.5 40.2812
Q14.5 37.1562 16.8906 35.375
Q19.2812 33.5938 26.5156 31.9844
L29.5938 31.2969
Q39.1562 29.25 43.1875 25.5156
Q47.2188 21.7812 47.2188 15.0938
Q47.2188 7.46875 41.1875 3.01562
Q35.1562 -1.42188 24.6094 -1.42188
Q20.2188 -1.42188 15.4531 -0.5625
Q10.6875 0.296875 5.42188 2
L5.42188 11.2812
Q10.4062 8.6875 15.2344 7.39062
Q20.0625 6.10938 24.8125 6.10938
Q31.1562 6.10938 34.5625 8.28125
Q37.9844 10.4531 37.9844 14.4062
Q37.9844 18.0625 35.5156 20.0156
Q33.0625 21.9688 24.7031 23.7812
L21.5781 24.5156
Q13.2344 26.2656 9.51562 29.9062
Q5.8125 33.5469 5.8125 39.8906
Q5.8125 47.6094 11.2812 51.7969
Q16.75 56 26.8125 56
Q31.7812 56 36.1719 55.2656
Q40.5781 54.5469 44.2812 53.0781" id="DejaVuSans-73"/>
    </defs>
    <g transform="translate(-159.233625 -5.9351)scale(0.144 -0.144)">
     <use xlink:href="#DejaVuSans-6d"/>
     <use x="97.412109375" xlink:href="#DejaVuSans-6f"/>
     <use x="158.59375" xlink:href="#DejaVuSans-64"/>
     <use x="222.0703125" xlink:href="#DejaVuSans-65"/>
     <use x="283.59375" xlink:href="#DejaVuSans-6c"/>
     <use x="311.376953125" xlink:href="#DejaVuSans-3a"/>
     <use x="345.068359375" xlink:href="#DejaVuSans-20"/>
     <use x="376.85546875" xlink:href="#DejaVuSans-28"/>
     <use x="415.869140625" xlink:href="#DejaVuSans-31"/>
     <use x="479.4921875" xlink:href="#DejaVuSans-30"/>
     <use x="543.115234375" xlink:href="#DejaVuSans-2c"/>
     <use x="574.90234375" xlink:href="#DejaVuSans-20"/>
     <use x="606.689453125" xlink:href="#DejaVuSans-31"/>
     <use x="670.3125" xlink:href="#DejaVuSans-30"/>
     <use x="733.935546875" xlink:href="#DejaVuSans-29"/>
     <use x="772.94921875" xlink:href="#DejaVuSans-20"/>
     <use x="804.736328125" xlink:href="#DejaVuSans-2d"/>
     <use x="840.8203125" xlink:href="#DejaVuSans-20"/>
     <use x="872.607421875" xlink:href="#DejaVuSans-2e"/>
     <use x="904.39453125" xlink:href="#DejaVuSans-2e"/>
     <use x="936.181640625" xlink:href="#DejaVuSans-2f"/>
     <use x="969.873046875" xlink:href="#DejaVuSans-64"/>
     <use x="1033.34960938" xlink:href="#DejaVuSans-61"/>
     <use x="1094.62890625" xlink:href="#DejaVuSans-74"/>
     <use x="1133.83789062" xlink:href="#DejaVuSans-61"/>
     <use x="1195.1171875" xlink:href="#DejaVuSans-2f"/>
     <use x="1228.80859375" xlink:href="#DejaVuSans-63"/>
     <use x="1283.7890625" xlink:href="#DejaVuSans-73"/>
     <use x="1335.88867188" xlink:href="#DejaVuSans-76"/>
     <use x="1395.06835938" xlink:href="#DejaVuSans-2f"/>
     <use x="1428.75976562" xlink:href="#DejaVuSans-31"/>
     <use x="1492.3828125" xlink:href="#DejaVuSans-39"/>
     <use x="1556.00585938" xlink:href="#DejaVuSans-2d"/>
     <use x="1592.08984375" xlink:href="#DejaVuSans-30"/>
     <use x="1655.71289062" xlink:href="#DejaVuSans-35"/>
     <use x="1719.3359375" xlink:href="#DejaVuSans-2f"/>
     <use x="1753.02734375" xlink:href="#DejaVuSans-77"/>
     <use x="1834.81445312" xlink:href="#DejaVuSans-68"/>
     <use x="1898.19335938" xlink:href="#DejaVuSans-6f"/>
     <use x="1959.375" xlink:href="#DejaVuSans-6c"/>
     <use x="1987.15820312" xlink:href="#DejaVuSans-65"/>
     <use x="2048.68164062" xlink:href="#DejaVuSans-73"/>
     <use x="2100.78125" xlink:href="#DejaVuSans-61"/>
     <use x="2162.06054688" xlink:href="#DejaVuSans-6c"/>
     <use x="2189.84375" xlink:href="#DejaVuSans-65"/>
     <use x="2251.3671875" xlink:href="#DejaVuSans-2d"/>
     <use x="2287.45117188" xlink:href="#DejaVuSans-64"/>
     <use x="2350.92773438" xlink:href="#DejaVuSans-61"/>
     <use x="2412.20703125" xlink:href="#DejaVuSans-69"/>
     <use x="2439.99023438" xlink:href="#DejaVuSans-6c"/>
     <use x="2467.7734375" xlink:href="#DejaVuSans-79"/>
     <use x="2525.203125" xlink:href="#DejaVuSans-2d"/>
     <use x="2561.28710938" xlink:href="#DejaVuSans-28"/>
     <use x="2600.30078125" xlink:href="#DejaVuSans-27"/>
     <use x="2627.79101562" xlink:href="#DejaVuSans-57"/>
     <use x="2720.79296875" xlink:href="#DejaVuSans-65"/>
     <use x="2782.31640625" xlink:href="#DejaVuSans-73"/>
     <use x="2834.41601562" xlink:href="#DejaVuSans-74"/>
     <use x="2873.625" xlink:href="#DejaVuSans-20"/>
     <use x="2905.41210938" xlink:href="#DejaVuSans-42"/>
     <use x="2974.015625" xlink:href="#DejaVuSans-65"/>
     <use x="3035.5390625" xlink:href="#DejaVuSans-6e"/>
     <use x="3098.91796875" xlink:href="#DejaVuSans-67"/>
     <use x="3162.39453125" xlink:href="#DejaVuSans-61"/>
     <use x="3223.67382812" xlink:href="#DejaVuSans-6c"/>
     <use x="3251.45703125" xlink:href="#DejaVuSans-27"/>
     <use x="3278.94726562" xlink:href="#DejaVuSans-2c"/>
     <use x="3310.734375" xlink:href="#DejaVuSans-20"/>
     <use x="3342.52148438" xlink:href="#DejaVuSans-27"/>
     <use x="3370.01171875" xlink:href="#DejaVuSans-43"/>
     <use x="3439.8359375" xlink:href="#DejaVuSans-68"/>
     <use x="3503.21484375" xlink:href="#DejaVuSans-61"/>
     <use x="3564.49414062" xlink:href="#DejaVuSans-6d"/>
     <use x="3661.90625" xlink:href="#DejaVuSans-70"/>
     <use x="3725.3828125" xlink:href="#DejaVuSans-61"/>
     <use x="3786.66210938" xlink:href="#DejaVuSans-64"/>
     <use x="3850.13867188" xlink:href="#DejaVuSans-61"/>
     <use x="3911.41796875" xlink:href="#DejaVuSans-6e"/>
     <use x="3974.796875" xlink:href="#DejaVuSans-67"/>
     <use x="4038.2734375" xlink:href="#DejaVuSans-61"/>
     <use x="4099.55273438" xlink:href="#DejaVuSans-27"/>
     <use x="4127.04296875" xlink:href="#DejaVuSans-2c"/>
     <use x="4158.83007812" xlink:href="#DejaVuSans-20"/>
     <use x="4190.6171875" xlink:href="#DejaVuSans-27"/>
     <use x="4218.10742188" xlink:href="#DejaVuSans-52"/>
     <use x="4287.58984375" xlink:href="#DejaVuSans-69"/>
     <use x="4315.37304688" xlink:href="#DejaVuSans-63"/>
     <use x="4370.35351562" xlink:href="#DejaVuSans-65"/>
     <use x="4431.87695312" xlink:href="#DejaVuSans-27"/>
     <use x="4459.3671875" xlink:href="#DejaVuSans-2c"/>
     <use x="4491.15429688" xlink:href="#DejaVuSans-20"/>
     <use x="4522.94140625" xlink:href="#DejaVuSans-27"/>
     <use x="4550.43164062" xlink:href="#DejaVuSans-52"/>
     <use x="4617.6640625" xlink:href="#DejaVuSans-61"/>
     <use x="4678.94335938" xlink:href="#DejaVuSans-74"/>
     <use x="4718.15234375" xlink:href="#DejaVuSans-6e"/>
     <use x="4781.53125" xlink:href="#DejaVuSans-61"/>
     <use x="4842.81054688" xlink:href="#DejaVuSans-63"/>
     <use x="4897.79101562" xlink:href="#DejaVuSans-68"/>
     <use x="4961.16992188" xlink:href="#DejaVuSans-75"/>
     <use x="5024.54882812" xlink:href="#DejaVuSans-64"/>
     <use x="5088.02539062" xlink:href="#DejaVuSans-69"/>
     <use x="5115.80859375" xlink:href="#DejaVuSans-20"/>
     <use x="5147.59570312" xlink:href="#DejaVuSans-28"/>
     <use x="5186.609375" xlink:href="#DejaVuSans-37"/>
     <use x="5250.23242188" xlink:href="#DejaVuSans-31"/>
     <use x="5313.85546875" xlink:href="#DejaVuSans-38"/>
     <use x="5377.47851562" xlink:href="#DejaVuSans-20"/>
     <use x="5409.265625" xlink:href="#DejaVuSans-35"/>
     <use x="5472.88867188" xlink:href="#DejaVuSans-2d"/>
     <use x="5508.97265625" xlink:href="#DejaVuSans-37"/>
     <use x="5572.59570312" xlink:href="#DejaVuSans-34"/>
     <use x="5636.21875" xlink:href="#DejaVuSans-39"/>
     <use x="5699.84179688" xlink:href="#DejaVuSans-29"/>
     <use x="5738.85546875" xlink:href="#DejaVuSans-27"/>
     <use x="5766.34570312" xlink:href="#DejaVuSans-2c"/>
     <use x="5798.1328125" xlink:href="#DejaVuSans-20"/>
     <use x="5829.91992188" xlink:href="#DejaVuSans-30"/>
     <use x="5893.54296875" xlink:href="#DejaVuSans-2e"/>
     <use x="5925.33007812" xlink:href="#DejaVuSans-39"/>
     <use x="5988.953125" xlink:href="#DejaVuSans-34"/>
     <use x="6052.57617188" xlink:href="#DejaVuSans-29"/>
     <use x="6091.58984375" xlink:href="#DejaVuSans-2e"/>
     <use x="6123.37695312" xlink:href="#DejaVuSans-63"/>
     <use x="6178.35742188" xlink:href="#DejaVuSans-73"/>
     <use x="6230.45703125" xlink:href="#DejaVuSans-76"/>
     <use x="6289.63671875" xlink:href="#DejaVuSans-2c"/>
     <use x="6321.42382812" xlink:href="#DejaVuSans-20"/>
    </g>
    <!-- epoch: 291 -->
    <g transform="translate(255.479625 10.7887)scale(0.144 -0.144)">
     <use xlink:href="#DejaVuSans-65"/>
     <use x="61.5234375" xlink:href="#DejaVuSans-70"/>
     <use x="125.0" xlink:href="#DejaVuSans-6f"/>
     <use x="186.181640625" xlink:href="#DejaVuSans-63"/>
     <use x="241.162109375" xlink:href="#DejaVuSans-68"/>
     <use x="304.541015625" xlink:href="#DejaVuSans-3a"/>
     <use x="338.232421875" xlink:href="#DejaVuSans-20"/>
     <use x="370.01953125" xlink:href="#DejaVuSans-32"/>
     <use x="433.642578125" xlink:href="#DejaVuSans-39"/>
     <use x="497.265625" xlink:href="#DejaVuSans-31"/>
    </g>
    <!-- test err: 0.0340 -->
    <defs>
     <path d="
M41.1094 46.2969
Q39.5938 47.1719 37.8125 47.5781
Q36.0312 48 33.8906 48
Q26.2656 48 22.1875 43.0469
Q18.1094 38.0938 18.1094 28.8125
L18.1094 0
L9.07812 0
L9.07812 54.6875
L18.1094 54.6875
L18.1094 46.1875
Q20.9531 51.1719 25.4844 53.5781
Q30.0312 56 36.5312 56
Q37.4531 56 38.5781 55.875
Q39.7031 55.7656 41.0625 55.5156
z
" id="DejaVuSans-72"/>
    </defs>
    <g transform="translate(239.558625 27.5125)scale(0.144 -0.144)">
     <use xlink:href="#DejaVuSans-74"/>
     <use x="39.208984375" xlink:href="#DejaVuSans-65"/>
     <use x="100.732421875" xlink:href="#DejaVuSans-73"/>
     <use x="152.83203125" xlink:href="#DejaVuSans-74"/>
     <use x="192.041015625" xlink:href="#DejaVuSans-20"/>
     <use x="223.828125" xlink:href="#DejaVuSans-65"/>
     <use x="285.3515625" xlink:href="#DejaVuSans-72"/>
     <use x="324.71484375" xlink:href="#DejaVuSans-72"/>
     <use x="364.078125" xlink:href="#DejaVuSans-3a"/>
     <use x="397.76953125" xlink:href="#DejaVuSans-20"/>
     <use x="429.556640625" xlink:href="#DejaVuSans-30"/>
     <use x="493.1796875" xlink:href="#DejaVuSans-2e"/>
     <use x="524.966796875" xlink:href="#DejaVuSans-30"/>
     <use x="588.58984375" xlink:href="#DejaVuSans-33"/>
     <use x="652.212890625" xlink:href="#DejaVuSans-34"/>
     <use x="715.8359375" xlink:href="#DejaVuSans-30"/>
    </g>
   </g>
   <g id="legend_1">
    <g id="patch_7">
     <path d="
M79.2 115.339
L162.947 115.339
L162.947 50.4
L79.2 50.4
L79.2 115.339
z
" style="fill:#ffffff;stroke:#000000;"/>
    </g>
    <g id="line2d_61">
     <path d="
M89.28 62.0617
L109.44 62.0617" style="fill:none;stroke:#008000;"/>
    </g>
    <g id="line2d_62"/>
    <g id="text_21">
     <!-- pred -->
     <g transform="translate(125.28 67.10175)scale(0.144 -0.144)">
      <use xlink:href="#DejaVuSans-70"/>
      <use x="63.4765625" xlink:href="#DejaVuSans-72"/>
      <use x="102.33984375" xlink:href="#DejaVuSans-65"/>
      <use x="163.86328125" xlink:href="#DejaVuSans-64"/>
     </g>
    </g>
    <g id="line2d_63">
     <path d="
M89.28 83.1983
L109.44 83.1983" style="fill:none;stroke:#0000ff;"/>
    </g>
    <g id="line2d_64"/>
    <g id="text_22">
     <!-- train -->
     <g transform="translate(125.28 88.23825)scale(0.144 -0.144)">
      <use xlink:href="#DejaVuSans-74"/>
      <use x="39.208984375" xlink:href="#DejaVuSans-72"/>
      <use x="80.322265625" xlink:href="#DejaVuSans-61"/>
      <use x="141.6015625" xlink:href="#DejaVuSans-69"/>
      <use x="169.384765625" xlink:href="#DejaVuSans-6e"/>
     </g>
    </g>
    <g id="line2d_65">
     <path d="
M89.28 104.335
L109.44 104.335" style="fill:none;stroke:#ff0000;"/>
    </g>
    <g id="line2d_66"/>
    <g id="text_23">
     <!-- test -->
     <g transform="translate(125.28 109.37475)scale(0.144 -0.144)">
      <use xlink:href="#DejaVuSans-74"/>
      <use x="39.208984375" xlink:href="#DejaVuSans-65"/>
      <use x="100.732421875" xlink:href="#DejaVuSans-73"/>
      <use x="152.83203125" xlink:href="#DejaVuSans-74"/>
     </g>
    </g>
   </g>
  </g>
 </g>
 <defs>
  <clipPath id="p7ff5b81e1d">
   <rect height="345.6" width="446.4" x="72.0" y="43.2"/>
  </clipPath>
 </defs>
</svg>
