<?xml version="1.0" encoding="utf-8" standalone="no"?>
<!DOCTYPE svg PUBLIC "-//W3C//DTD SVG 1.1//EN"
  "http://www.w3.org/Graphics/SVG/1.1/DTD/svg11.dtd">
<!-- Created with matplotlib (http://matplotlib.org/) -->
<svg height="432pt" version="1.1" viewBox="0 0 576 432" width="576pt" xmlns="http://www.w3.org/2000/svg" xmlns:xlink="http://www.w3.org/1999/xlink">
 <defs>
  <style type="text/css">
*{stroke-linecap:square;stroke-linejoin:round;}
  </style>
 </defs>
 <g id="figure_1">
  <g id="patch_1">
   <path d="
M0 432
L576 432
L576 0
L0 0
z
" style="fill:#ffffff;"/>
  </g>
  <g id="axes_1">
   <g id="patch_2">
    <path d="
M72 388.8
L518.4 388.8
L518.4 43.2
L72 43.2
z
" style="fill:#ffffff;"/>
   </g>
   <g id="line2d_1">
    <path clip-path="url(#p7ff5b81e1d)" d="
M72 359.514
L72.5444 359.304
L73.0888 359.685
L73.7693 358.839
L74.3137 358.812
L74.722 359.031
L75.4024 360.417
L75.8107 360.834
L76.3551 359.388
L77.0356 360.043
L77.8522 360.148
L77.9883 360.182
L78.6688 359.583
L79.0771 359.493
L80.302 358.025
L80.7102 358.031
L81.2546 357.11
L81.9351 357.074
L82.3434 356.849
L83.0239 357.59
L83.4322 357.689
L84.2488 358.936
L84.7932 359.344
L85.4737 359.781
L85.6098 359.883
L86.6985 358.417
L87.2429 359.069
L87.9234 360.694
L88.3317 361.048
L88.8761 360.287
L89.8288 362.026
L89.9649 362.309
L90.6454 361.809
L91.1898 361.771
L91.598 361.491
L92.1424 363.352
L92.8229 362.992
L93.2312 362.495
L93.7756 363.152
L94.32 362.466
L94.8644 362.693
L95.681 362.213
L95.9532 362.132
L96.4976 363.236
L97.042 362.143
L97.5863 362.735
L98.2668 361.772
L98.6751 361.65
L99.4917 359.447
L99.9 357.93
L100.308 355.989
L101.261 347.524
L101.397 346.483
L101.941 333.865
L102.486 332.465
L103.302 326.684
L103.711 324.088
L104.255 320.24
L104.663 319.484
L105.208 329.817
L105.752 327.848
L106.297 330.331
L106.841 327.595
L107.385 330.578
L107.93 313.461
L108.474 318.56
L109.019 331.19
L109.563 329.476
L110.516 320.119
L110.652 318.615
L111.196 337.758
L111.74 334.83
L112.285 334.697
L112.965 341.638
L113.51 347.588
L113.918 348.614
L114.599 352.372
L115.007 353.357
L115.551 353.239
L116.096 357.89
L116.64 355.898
L117.184 357.88
L117.729 358.012
L118.273 358.825
L118.954 360.946
L119.362 361.358
L119.906 361.223
L120.451 359.321
L121.676 365.541
L122.22 365.944
L123.173 367.285
L123.717 368.546
L124.261 366.609
L124.942 366.984
L125.35 367.01
L125.895 366.272
L126.439 367.455
L126.983 366.476
L128.072 367.573
L128.617 368.465
L129.297 367.022
L129.705 366.572
L130.386 367.795
L131.066 368.124
L131.339 368.194
L131.883 367.636
L132.972 369.022
L133.924 369.024
L134.197 369.042
L134.877 369.139
L136.238 369.059
L136.919 369.455
L137.327 369.511
L138.007 372.333
L138.416 372.769
L138.96 372.655
L140.049 371.252
L140.593 370.882
L141.138 371.73
L142.362 368.415
L142.907 368.548
L143.315 368.861
L143.86 368.698
L144.404 366.501
L145.084 366.893
L145.493 367.368
L146.173 366.702
L146.718 366.528
L147.126 366.608
L147.67 366.207
L148.215 366.872
L148.895 364.691
L149.44 363.854
L149.848 363.781
L150.528 367.683
L150.937 368.906
L151.481 366.953
L152.025 368.929
L152.57 368.811
L153.25 370.137
L153.659 370.357
L154.203 369.495
L154.883 370.098
L155.836 370.076
L156.517 369.63
L156.925 369.602
L157.741 367.683
L158.014 366.887
L158.558 359.668
L159.102 361.167
L159.783 360.189
L160.191 359.859
L160.872 362.437
L161.28 363.086
L161.824 366.003
L162.913 363.316
L163.458 365.317
L164.002 361.785
L164.546 361.852
L165.363 357.817
L165.635 356.854
L167.132 359.731
L167.268 360.116
L167.813 345.804
L168.493 349.961
L168.901 351.059
L169.446 342.345
L169.99 346.942
L170.535 338.186
L171.079 347.066
L171.623 340.729
L172.168 327.778
L172.712 341.848
L173.257 332.609
L173.801 338.234
L174.345 336.645
L174.89 327.596
L175.434 338.055
L176.115 338.946
L176.523 339.217
L177.203 344.958
L177.612 346.341
L178.156 346.032
L178.973 350.987
L179.245 352.184
L179.789 358.117
L180.334 351.788
L180.878 352.454
L181.559 356.299
L182.511 358.382
L183.056 355.535
L183.6 359.28
L184.28 359.006
L184.689 358.577
L185.369 360.338
L185.778 362.036
L186.322 361.475
L187.411 364.158
L188.5 363.154
L189.588 363.2
L190.677 352.656
L191.494 348.089
L192.31 344.478
L192.855 336.806
L193.535 341.824
L193.943 343.211
L194.488 343.263
L195.032 342.101
L195.577 343.299
L196.121 349.134
L196.801 343.358
L197.89 339.103
L198.571 333.077
L198.843 330.215
L199.387 318.266
L200.068 315.856
L200.476 314.947
L201.157 308.108
L201.565 305.519
L202.109 306.868
L202.654 312.953
L203.198 310.697
L203.879 302.054
L204.287 299.749
L204.831 300.648
L205.376 304.585
L205.92 317.222
L206.464 316.71
L207.009 329.139
L207.553 331.39
L208.234 338.964
L208.778 341.687
L209.186 342.305
L209.731 345.457
L210.275 341.516
L210.82 350.121
L211.364 349.653
L212.044 355.169
L212.453 359.677
L213.133 360.528
L213.541 361.316
L214.766 367.323
L215.175 368.776
L215.719 367.067
L216.944 368.9
L217.352 369.15
L217.897 368.129
L218.441 369.233
L218.985 368.999
L219.938 370.411
L220.074 370.578
L220.619 369.47
L221.163 369.659
L221.707 368.388
L222.252 370.498
L223.477 368.984
L223.885 368.665
L224.429 371.428
L224.974 371.145
L225.654 369.867
L226.199 369.227
L226.607 368.535
L227.151 369.682
L227.696 369.171
L228.784 369.86
L229.329 369.193
L229.873 370.678
L230.69 370.331
L230.962 370.275
L232.595 371.249
L233.14 363.461
L233.684 362.588
L234.228 363.007
L234.909 364.986
L235.317 365.596
L235.861 365.227
L236.406 365.506
L236.95 358.701
L237.495 359.219
L238.039 356.585
L238.583 357.83
L239.128 356.183
L239.672 356.253
L240.761 353.007
L241.305 354.33
L242.53 347.052
L243.075 345.16
L243.483 344.808
L244.027 345.173
L244.572 340.4
L245.116 340.849
L245.66 351.974
L246.205 352.98
L246.749 352.168
L247.43 346.839
L247.838 345.126
L248.519 346.162
L248.927 346.37
L249.471 347.912
L250.016 347.867
L250.696 350.267
L251.104 352.408
L251.649 352.368
L252.329 353.646
L252.738 354.044
L253.282 355.4
L253.826 351.417
L254.371 350.801
L254.915 346.44
L255.46 347.435
L256.14 346.232
L256.548 345.974
L257.093 347.328
L257.637 345.812
L258.181 338.882
L258.726 339.846
L259.406 335.71
L260.087 333.159
L260.359 331.938
L260.903 331.602
L261.448 330.301
L261.992 321.456
L262.537 323.798
L263.081 321.961
L263.625 323.204
L264.17 316.059
L264.714 318.432
L265.259 316.74
L266.892 304.077
L267.436 310.567
L267.98 305.841
L268.525 305.746
L269.75 312.227
L270.839 320.422
L271.383 322.441
L271.791 324.401
L272.336 324.315
L273.424 318.156
L273.969 309.738
L274.513 330.71
L275.058 334.078
L275.602 333.726
L276.282 337.8
L276.691 339.35
L277.371 345.91
L277.78 347.82
L278.46 346.117
L279.004 345.552
L279.413 344.926
L280.093 345.896
L280.774 346.058
L281.046 346.052
L281.59 345.368
L282.135 347.502
L282.815 352.007
L283.223 352.996
L283.768 352.768
L284.312 354.649
L284.993 352.521
L285.401 352.28
L286.081 354.104
L286.49 355.698
L287.034 347.57
L287.579 347.776
L288.123 348.777
L288.94 347.174
L289.212 346.786
L289.756 343.594
L290.573 348.908
L290.845 350.158
L291.389 348.891
L291.934 348.788
L292.478 346.655
L293.022 348.165
L293.567 343.529
L294.111 346.435
L294.656 345.039
L295.2 338.075
L295.744 339.84
L296.425 338.522
L296.969 337.244
L297.378 336.675
L297.922 337.34
L298.602 335.442
L299.011 334.775
L299.555 343.299
L300.372 344.788
L300.644 345.165
L301.188 344.882
L302.277 345.441
L302.821 345.381
L303.502 334.684
L304.455 329.707
L305.68 320.052
L306.088 316.904
L306.632 319.318
L307.177 309.978
L307.857 320.43
L308.265 323.716
L308.81 323.347
L309.354 320.998
L309.899 316.588
L310.715 323.352
L311.123 325.443
L311.532 326.376
L312.076 329.227
L312.62 336.498
L313.165 328.931
L313.845 339.54
L314.254 341.184
L314.798 327.499
L315.342 325.666
L315.887 308.556
L316.431 319.726
L316.976 317.497
L317.52 307.887
L318.2 322.061
L318.609 324.252
L319.153 324.012
L319.698 313.665
L320.242 329.106
L320.786 320.138
L321.467 329.518
L321.875 332.689
L322.42 329.758
L322.964 336.005
L323.508 333.558
L324.053 327.632
L324.733 326.672
L325.141 325.87
L325.822 329.834
L326.23 331.209
L326.775 330.509
L327.455 335.567
L327.863 336.959
L328.544 346.933
L328.952 349.596
L329.497 349.481
L330.585 354.284
L331.13 354.788
L332.219 360.906
L332.763 360.436
L333.307 362.267
L333.852 362.48
L334.396 364.152
L335.213 363.506
L335.485 363.392
L336.029 364.022
L336.574 355.674
L337.526 355.812
L337.799 355.88
L338.343 356.048
L339.16 355.704
L339.296 355.632
L339.84 354.745
L340.384 359.598
L341.065 359.2
L341.473 359.162
L342.018 357.301
L342.562 357.128
L343.106 357.685
L343.651 357.226
L344.195 358.024
L344.74 351.767
L345.828 352.133
L346.373 352.516
L347.053 351.851
L347.461 351.767
L348.006 349.37
L348.55 349.827
L349.095 358.099
L350.183 355.434
L350.728 352.769
L351.272 352.804
L351.817 345.746
L352.361 345.905
L353.586 340.62
L353.994 340.234
L354.539 335.781
L355.083 341.283
L356.036 330.666
L356.172 329.371
L356.716 329.967
L357.26 318.472
L357.805 318.194
L358.349 316.1
L359.03 317.461
L359.438 317.887
L359.982 311.812
L360.527 317.749
L361.071 312.246
L361.752 324.364
L362.16 328.828
L362.704 324.167
L363.249 325.24
L363.793 317.991
L364.338 264.067
L365.018 257.304
L365.426 255.529
L365.971 246.877
L367.06 186.854
L367.604 225.51
L368.148 227.434
L369.237 282.788
L369.781 279.521
L370.326 283.444
L371.006 328.856
L371.415 336.685
L372.095 304.661
L372.503 296.772
L373.184 326.283
L374.137 338.314
L374.681 335.803
L375.361 337.67
L375.77 338.321
L376.586 343.78
L376.859 345.114
L377.403 344.133
L377.947 358.119
L378.492 357.132
L379.172 358.617
L379.58 359.974
L380.261 360.145
L380.669 360.469
L381.214 359.437
L381.758 366.231
L382.439 365.972
L382.983 365.587
L383.663 365.557
L383.936 365.498
L384.48 366.277
L385.024 365.865
L385.569 366.061
L386.249 367.387
L386.794 367.96
L387.202 368.679
L388.291 367.114
L388.835 368.617
L389.38 368.487
L389.924 367.322
L390.468 354.98
L391.149 355.54
L391.557 356.074
L392.238 354.429
L392.782 353.641
L393.735 351.731
L394.279 347.397
L394.823 347.472
L395.64 345.845
L397.137 341.789
L397.954 339.727
L398.09 339.432
L398.634 348.675
L399.179 348.313
L399.995 346.714
L400.267 346.305
L401.084 347.865
L401.356 348.492
L402.445 343.863
L402.989 338.474
L403.534 340.081
L404.078 339.091
L404.622 332.899
L406.256 337.922
L406.8 324.189
L407.344 323.684
L407.889 324.143
L408.569 323.138
L409.114 322.912
L409.522 322.935
L410.202 326.452
L410.611 327.293
L411.155 347.09
L411.7 347.761
L412.244 347.167
L412.924 350.876
L413.333 352.125
L413.877 351.764
L414.558 353.619
L414.966 355.295
L415.51 363.078
L416.599 360.743
L417.143 363.688
L417.688 363.133
L418.368 363.886
L418.777 364.106
L419.321 350.085
L419.865 351.398
L420.41 350.224
L420.954 350.765
L421.499 350.421
L422.043 351.168
L422.587 350.994
L423.132 350.122
L423.676 355.133
L424.22 355.012
L424.765 356.086
L425.309 353.871
L425.854 354.854
L426.398 354.556
L427.487 355.774
L428.031 352.834
L428.848 354.046
L429.12 354.562
L429.664 354.035
L430.209 355.072
L430.753 354.18
L431.298 355.084
L431.842 364.019
L432.659 364.697
L432.931 364.985
L433.475 363.927
L434.564 364.344
L435.108 366.147
L435.653 365.394
L436.197 353.269
L436.741 354.353
L437.422 353.907
L437.83 353.825
L438.375 352.412
L438.919 352.714
L439.463 354.465
L440.008 337.489
L440.688 338.563
L441.097 338.851
L441.641 338.418
L442.321 334.54
L442.73 333.74
L443.274 333.89
L443.819 331.482
L444.363 333.373
L444.907 331.783
L445.452 335.487
L445.996 335.376
L446.54 333.118
L447.221 334.648
L447.629 335.147
L448.174 334.588
L448.718 349.644
L449.262 349.258
L449.807 349.981
L450.351 349.213
L451.032 349.748
L451.576 349.79
L451.984 349.671
L452.529 350.176
L453.073 350.057
L453.618 351.109
L454.162 349.383
L454.706 350.9
L455.251 351.09
L455.795 349.609
L456.34 350.504
L456.884 338.758
L457.564 337.031
L458.381 333.384
L458.517 332.711
L459.061 336.276
L459.606 335.98
L460.15 333.742
L460.831 317.868
L461.239 315.285
L461.783 307.072
L462.328 309.271
L462.872 302.872
L463.417 303.074
L463.961 305.717
L464.505 303.568
L465.05 325.465
L465.594 323.417
L466.275 318.757
L466.683 317.956
L467.227 318.9
L467.908 318.119
L468.316 317.922
L468.86 315.162
L469.541 319.026
L469.949 320.199
L470.494 302.78
L471.31 307.526
L471.582 308.618
L472.127 304.476
L472.671 308.064
L473.216 303.168
L473.76 323.351
L474.304 319.965
L474.849 306.144
L475.393 313.36
L475.938 309.925
L476.482 312.156
L477.026 316.693
L477.707 310.388
L478.251 308.75
L478.66 308.22
L479.204 309.015
L479.748 312.012
L480.293 310.759
L480.837 311.968
L481.381 308.332
L481.926 311.133
L482.47 307.88
L483.015 308.258
L483.559 314.355
L484.103 310.156
L484.648 319.726
L485.192 317.596
L485.737 320.8
L486.281 321.207
L486.825 311.365
L487.914 320.003
L488.459 318.637
L489.003 314.998
L489.547 319.811
L490.228 313.763
L490.636 308.159
L491.18 308.401
L493.222 280.317
L493.494 278.649
L493.902 277.367
L494.583 263.484
L494.991 258.285
L495.808 190.449
L496.216 170.958
L497.305 155.994
L497.849 148.63
L498.258 145.763
L498.938 183.32
L499.346 193.416
L500.435 169.053
L500.98 131.944
L501.524 176.191
L502.068 169.758
L502.613 200.829
L503.157 175.828
L503.838 205.506
L504.246 233.113
L504.79 158.266
L505.879 133.299
L506.56 175.069
L506.968 182.126
L507.512 155.075
L508.465 192.263
L508.737 199.439
L509.69 218.796
L510.234 184.532
L510.779 187.017
L511.323 220.778
L511.867 197.532
L512.412 205.035
L512.956 231.934
L513.5 228.832
L514.045 240.146
L514.725 266.285
L515.406 285.174
L515.678 294.203
L516.359 285.144
L516.767 283.367
L517.311 299.746
L517.856 300.811
L518.4 303.389
L518.4 303.389" style="fill:none;stroke:#008000;"/>
   </g>
   <g id="line2d_2">
    <path clip-path="url(#p7ff5b81e1d)" d="
M72 367.546
L72.5444 368.928
L72.6805 368.64
L73.2249 368.64
L73.4971 368.064
L73.6332 368.064
L73.7693 367.776
L74.1776 367.776
L74.3137 367.488
L74.858 368.424
L75.2663 368.64
L75.4024 367.2
L75.5385 367.488
L76.0829 367.2
L76.219 367.488
L76.4912 368.64
L76.7634 367.872
L77.1717 367.2
L77.3078 368.064
L77.4439 367.776
L77.58 368.064
L77.9883 367.2
L78.1244 367.776
L78.941 367.2
L79.0771 366.624
L79.8937 366.336
L80.0298 365.76
L80.1659 365.76
L80.302 364.896
L80.8463 364.32
L80.9824 363.456
L81.5268 364.416
L81.799 364.608
L82.0712 365.76
L82.2073 365.184
L82.4795 365.952
L82.7517 366.336
L82.8878 367.2
L83.0239 366.912
L83.2961 367.776
L83.7044 368.064
L83.8405 368.352
L84.1127 367.488
L84.2488 367.776
L84.7932 366.912
L85.0654 367.776
L85.2015 368.064
L85.7459 366.048
L86.1541 365.184
L86.5624 366.048
L86.8346 367.488
L87.379 368.448
L87.5151 368.64
L87.6512 368.352
L87.7873 369.216
L87.9234 368.928
L88.0595 369.216
L88.4678 368.352
L88.74 369.216
L88.8761 368.928
L89.8288 370.08
L89.9649 369.792
L90.3732 370.656
L90.7815 369.792
L90.9176 370.08
L91.3259 370.08
L91.598 370.656
L91.8702 370.08
L92.2785 370.368
L92.5507 369.216
L92.6868 368.928
L92.8229 369.792
L93.2312 370.08
L93.3673 370.368
L93.5034 370.368
L93.7756 369.216
L94.1839 369.504
L94.32 369.216
L94.4561 368.64
L94.8644 369.312
L95.1366 369.504
L95.4088 368.928
L95.681 369.504
L96.0893 369.216
L96.2254 369.504
L96.4976 368.928
L96.6337 369.216
L97.042 368.928
L97.178 368.64
L97.3141 368.928
L97.4502 366.336
L97.5863 367.2
L98.1307 366.912
L98.2668 364.032
L98.4029 364.608
L98.539 364.32
L99.7639 356.832
L100.172 353.664
L100.444 345.6
L100.853 341.568
L101.125 328.32
L101.397 325.44
L101.805 324.288
L101.941 325.44
L102.078 323.712
L103.03 329.472
L103.166 331.2
L103.302 326.592
L103.711 326.88
L103.847 328.32
L104.119 327.456
L104.663 326.592
L104.936 327.744
L105.072 327.168
L105.344 327.744
L105.48 328.32
L105.752 327.168
L106.024 328.32
L106.16 328.32
L106.297 327.168
L106.569 327.744
L106.705 327.168
L106.841 327.456
L106.977 315.936
L107.113 313.92
L107.521 302.4
L107.794 309.888
L107.93 310.464
L108.066 319.68
L109.155 320.256
L109.291 320.832
L109.563 318.816
L109.699 320.832
L109.971 318.816
L110.107 319.104
L110.243 318.528
L110.516 319.104
L110.652 319.68
L110.788 319.68
L110.924 322.56
L111.196 323.136
L111.332 325.44
L111.468 325.44
L111.877 331.2
L112.013 330.336
L112.149 330.624
L112.285 330.048
L112.421 331.2
L112.965 340.992
L113.101 340.992
L113.374 341.568
L113.51 339.84
L113.646 340.416
L113.782 344.16
L113.918 344.16
L114.054 345.6
L114.326 344.448
L114.462 345.024
L114.599 344.736
L114.735 345.312
L114.871 345.312
L115.007 345.6
L115.415 347.328
L115.551 348.48
L115.687 347.904
L116.232 354.24
L116.504 357.984
L117.048 359.424
L117.32 358.272
L117.457 358.56
L117.593 358.272
L117.865 358.56
L118.001 358.272
L118.409 359.424
L118.545 358.848
L118.818 360
L118.954 359.424
L119.09 359.712
L119.498 358.848
L119.634 360
L119.77 360
L119.906 359.424
L120.042 362.88
L120.587 364.32
L121.131 364.32
L121.267 364.896
L121.403 364.608
L121.54 365.184
L121.676 364.608
L121.812 365.76
L121.948 364.896
L122.084 366.912
L122.22 367.2
L122.356 367.2
L122.764 365.76
L123.173 367.2
L123.309 366.912
L123.445 367.2
L123.989 365.184
L124.125 364.896
L124.261 365.184
L124.534 364.608
L124.942 364.608
L125.078 365.184
L125.35 364.608
L125.622 365.76
L125.759 365.76
L125.895 366.336
L126.031 366.336
L126.303 366.912
L126.439 366.048
L126.711 366.432
L126.983 366.624
L127.12 366.336
L127.936 368.064
L128.072 368.64
L128.208 368.64
L128.344 368.352
L129.161 368.352
L129.297 368.64
L129.433 368.64
L129.569 368.928
L129.841 369.792
L129.978 369.504
L130.25 370.368
L130.386 369.792
L130.658 370.368
L130.794 370.368
L130.93 370.656
L131.202 369.504
L131.475 370.944
L131.747 370.368
L132.019 370.944
L132.155 371.52
L132.291 371.232
L132.427 371.52
L132.563 370.944
L132.7 371.52
L132.836 371.232
L133.244 371.52
L133.38 370.944
L133.516 371.52
L133.652 371.52
L133.788 371.232
L133.924 371.232
L134.06 371.52
L134.197 371.232
L134.333 370.656
L134.469 370.944
L134.605 370.656
L134.741 371.52
L135.013 370.944
L135.149 370.944
L135.285 370.656
L135.421 370.944
L135.558 371.808
L135.966 370.944
L136.238 372.096
L136.374 371.52
L136.51 372.096
L136.646 372.096
L136.782 372.672
L136.919 372.384
L137.055 372.672
L137.463 372.384
L137.599 372.672
L137.735 372.384
L137.871 372.672
L138.007 372.096
L138.28 372.672
L138.552 372.096
L138.688 372.672
L138.824 372.384
L138.96 370.368
L139.096 370.656
L139.232 370.368
L139.504 368.928
L139.64 368.64
L139.777 370.368
L140.049 368.64
L140.185 369.792
L140.321 368.64
L140.457 369.216
L140.593 370.944
L140.729 370.368
L141.001 368.64
L141.138 368.928
L141.41 366.624
L141.546 366.912
L141.818 365.472
L142.226 364.608
L142.362 365.184
L142.499 364.896
L142.635 365.184
L142.771 364.896
L142.907 364.32
L143.043 364.608
L143.179 365.184
L143.587 364.32
L143.723 364.896
L143.996 363.744
L144.132 364.032
L144.268 363.744
L144.54 364.32
L144.812 363.744
L144.948 364.032
L145.084 363.744
L145.357 365.184
L145.493 365.76
L145.765 364.896
L146.037 365.76
L146.173 365.184
L146.309 365.184
L146.581 366.048
L146.718 366.336
L147.398 363.744
L147.67 365.184
L147.942 360.576
L148.215 360
L148.351 359.424
L148.487 360
L148.623 359.136
L148.759 359.424
L148.895 358.848
L149.576 360
L149.712 359.424
L149.848 360
L150.12 361.44
L150.392 362.88
L150.528 362.304
L150.664 362.88
L150.8 362.016
L151.073 362.592
L151.209 362.304
L151.345 362.88
L151.481 361.728
L151.617 362.016
L151.753 361.728
L151.889 361.152
L152.025 361.44
L152.161 362.88
L152.298 362.304
L152.434 364.32
L152.57 364.032
L152.706 364.32
L152.842 363.744
L152.978 364.032
L153.114 364.032
L153.25 364.32
L153.386 364.32
L153.659 363.744
L153.795 364.032
L153.931 363.744
L154.067 363.168
L154.203 363.744
L154.611 362.304
L154.883 363.456
L155.02 361.728
L155.156 361.44
L155.292 361.44
L155.428 361.152
L155.836 362.88
L156.38 362.88
L156.653 360
L157.061 360
L157.333 355.68
L157.469 356.544
L157.605 355.68
L157.878 350.208
L158.15 352.8
L158.286 351.36
L158.83 355.68
L158.966 354.24
L159.102 354.24
L159.647 356.256
L159.783 356.544
L159.919 357.12
L160.191 360
L160.327 360
L160.6 362.88
L160.736 361.44
L160.872 362.88
L161.008 362.88
L161.416 362.304
L162.369 358.272
L162.641 358.848
L162.777 358.56
L162.913 361.728
L163.049 358.56
L163.185 358.56
L163.321 358.272
L163.73 355.392
L164.002 357.12
L164.274 352.8
L164.41 351.36
L164.546 351.36
L164.682 348.48
L164.819 371.52
L165.091 347.328
L165.227 347.04
L165.907 344.16
L166.316 347.904
L166.452 347.904
L166.588 348.48
L166.86 346.464
L167.132 331.2
L167.404 325.44
L167.54 325.44
L167.677 328.896
L167.813 328.608
L168.221 331.2
L168.357 330.624
L168.765 331.2
L168.901 319.68
L169.038 331.2
L169.31 329.76
L169.446 331.2
L169.582 330.624
L169.854 328.32
L169.99 328.32
L170.126 327.744
L170.262 328.32
L170.943 326.592
L171.079 325.44
L171.351 321.696
L171.487 322.56
L171.623 311.04
L171.76 309.312
L172.304 315.072
L172.44 323.712
L172.576 315.936
L173.12 322.56
L173.393 324
L173.529 323.712
L173.665 325.44
L173.801 325.44
L173.937 324.864
L174.209 324.864
L174.345 325.44
L174.481 325.44
L174.618 323.712
L174.754 323.424
L175.162 324
L175.298 328.32
L175.434 327.744
L175.57 328.32
L175.706 328.32
L175.979 328.896
L176.115 329.472
L176.251 331.2
L176.523 339.84
L176.795 343.296
L176.931 343.008
L177.067 343.872
L177.203 345.6
L177.34 345.888
L177.612 341.856
L177.884 341.28
L178.02 341.568
L178.292 340.992
L178.428 342.144
L178.7 341.28
L178.837 341.28
L178.973 342.72
L179.109 346.176
L179.245 346.752
L179.517 345.024
L179.789 343.872
L180.061 345.6
L180.334 346.176
L180.47 346.752
L180.742 348.48
L181.15 350.592
L181.286 351.36
L181.422 350.784
L181.695 352.512
L181.967 350.496
L182.239 351.936
L182.375 351.36
L182.647 352.224
L182.783 353.664
L182.92 353.376
L183.056 352.8
L183.328 354.24
L183.464 354.24
L183.736 353.376
L183.872 354.24
L184.008 354.24
L184.144 353.664
L184.28 354.24
L184.553 356.544
L184.689 356.256
L184.825 358.272
L185.369 359.424
L185.505 360
L185.641 358.56
L185.778 358.848
L185.914 360
L186.05 359.424
L186.186 360
L186.458 362.88
L186.594 362.304
L186.73 362.88
L186.866 362.88
L187.002 363.168
L187.139 362.88
L187.411 359.136
L187.683 358.272
L187.819 358.848
L187.955 358.56
L188.091 359.424
L188.227 359.136
L188.5 360
L188.636 357.696
L188.908 358.56
L189.044 357.984
L189.316 349.92
L189.452 350.784
L189.86 345.6
L190.405 339.84
L190.677 338.112
L190.813 337.536
L190.949 338.4
L191.221 336.96
L191.358 336.096
L191.494 338.976
L191.63 339.264
L191.766 339.84
L192.038 338.112
L192.174 337.824
L192.31 332.64
L192.446 333.504
L192.582 332.64
L192.719 335.52
L193.127 336.384
L193.535 337.824
L193.807 336.096
L193.943 336.672
L194.08 336.384
L194.216 336.96
L195.032 332.064
L195.168 332.352
L195.304 331.2
L195.44 331.2
L195.577 331.776
L195.849 331.2
L196.393 326.304
L196.529 325.44
L196.801 328.32
L197.074 328.32
L197.482 321.408
L197.618 321.12
L197.754 319.68
L197.89 320.832
L198.026 319.68
L198.162 312.192
L198.435 309.024
L198.571 309.6
L198.843 298.08
L199.115 299.52
L199.251 302.4
L199.387 299.52
L199.66 302.976
L199.796 303.552
L200.068 302.4
L200.204 300.96
L200.476 302.976
L200.884 300.96
L201.157 302.976
L201.429 303.552
L201.701 302.4
L201.837 303.84
L202.109 298.08
L202.381 300.384
L203.062 296.64
L203.198 293.76
L203.47 295.2
L203.606 288
L203.879 290.88
L204.015 293.76
L204.151 292.32
L204.287 292.896
L204.831 302.4
L205.376 316.8
L205.648 319.68
L205.784 319.68
L206.328 330.048
L206.464 331.2
L206.6 322.56
L207.009 323.136
L207.145 322.56
L207.281 325.44
L207.417 324.864
L207.689 328.32
L207.825 327.744
L207.961 328.32
L208.234 332.928
L208.37 335.232
L208.506 335.52
L208.642 336.384
L209.05 340.8
L209.322 342.72
L209.459 342.72
L209.595 344.448
L209.731 343.584
L209.867 344.16
L210.003 344.16
L210.275 342.72
L210.411 345.024
L210.683 343.987
L211.228 345.6
L211.364 346.752
L211.636 353.088
L211.772 353.376
L211.908 353.088
L212.18 357.12
L212.317 357.408
L212.453 356.544
L212.589 357.12
L212.725 356.832
L212.861 357.12
L213.269 358.56
L213.405 358.56
L213.814 361.728
L213.95 362.304
L214.222 364.032
L214.358 364.608
L214.63 364.032
L214.902 362.88
L215.447 360.576
L215.583 362.304
L215.719 361.728
L215.855 362.304
L216.263 362.304
L216.4 361.728
L216.536 364.032
L216.672 364.032
L216.944 364.608
L217.08 364.032
L217.488 366.912
L217.624 365.76
L217.76 366.336
L217.897 368.64
L218.169 366.336
L218.305 366.624
L218.577 365.184
L218.985 366.912
L219.121 368.64
L219.258 367.2
L219.394 367.488
L219.666 366.624
L219.802 367.2
L220.074 364.896
L220.482 364.032
L221.027 366.912
L221.163 366.048
L221.299 366.336
L221.571 367.488
L221.843 368.64
L221.98 370.08
L222.116 368.64
L222.252 368.928
L223.204 364.896
L223.34 362.88
L223.477 362.592
L223.613 362.016
L223.749 362.304
L223.885 362.88
L224.021 362.016
L224.701 362.88
L224.838 362.304
L224.974 362.304
L225.518 364.32
L225.79 363.744
L226.062 362.304
L226.199 362.016
L226.335 362.88
L226.471 362.016
L226.607 362.304
L226.743 362.016
L226.879 362.016
L227.015 361.728
L227.56 361.728
L227.696 361.44
L227.832 361.728
L227.968 362.304
L228.24 361.44
L228.648 364.032
L228.784 362.88
L228.92 363.168
L229.057 362.88
L229.193 364.896
L229.329 364.608
L229.465 365.184
L229.601 364.32
L229.737 365.76
L230.418 363.168
L230.554 362.88
L230.69 363.168
L230.826 363.168
L230.962 362.88
L231.098 362.88
L231.234 362.304
L231.37 362.592
L231.642 362.016
L231.779 362.304
L232.051 363.744
L232.187 363.168
L232.323 364.032
L232.731 363.744
L232.867 364.032
L233.003 363.744
L233.14 363.168
L233.412 364.32
L233.684 363.456
L233.956 365.76
L234.228 368.64
L234.364 368.352
L234.773 367.488
L234.909 367.488
L235.181 366.912
L235.453 367.776
L235.589 368.064
L235.861 366.624
L235.998 367.2
L236.27 366.624
L236.406 366.912
L236.542 366.336
L237.222 367.776
L237.631 365.76
L237.767 366.624
L237.903 366.048
L238.039 366.336
L238.311 367.2
L238.856 364.896
L238.992 365.184
L239.128 364.608
L239.4 362.304
L239.536 362.88
L239.808 361.44
L239.944 362.88
L240.217 359.424
L240.353 359.136
L240.625 361.152
L241.033 362.88
L241.169 360.864
L241.441 354.24
L241.714 352.8
L242.122 351.36
L242.258 352.8
L242.53 350.784
L242.802 351.936
L242.939 351.36
L243.075 351.936
L243.211 351.936
L243.347 354.24
L243.619 353.376
L243.755 349.92
L244.027 351.36
L244.163 367.776
L244.3 350.784
L244.436 349.632
L244.844 344.16
L245.252 345.024
L245.66 347.04
L245.797 346.752
L245.933 348.48
L246.069 347.04
L246.477 339.84
L246.613 339.264
L246.749 339.552
L246.885 339.264
L247.566 336.384
L247.838 341.568
L247.974 341.28
L248.11 342.144
L248.246 341.856
L248.519 340.992
L248.791 340.416
L248.927 342.72
L249.335 341.376
L249.471 340.992
L249.607 341.568
L249.88 343.296
L250.016 342.72
L250.288 343.584
L250.696 348.48
L250.968 347.616
L251.377 346.752
L251.649 345.6
L252.057 348.48
L252.193 349.056
L252.329 348.768
L252.601 347.616
L252.874 348.192
L253.146 347.04
L253.418 343.872
L253.826 345.024
L253.962 342.72
L254.099 338.112
L254.235 337.536
L254.371 337.536
L254.507 338.112
L254.779 336.96
L255.051 338.112
L255.323 339.84
L255.596 341.28
L255.732 342.72
L256.14 342.432
L256.276 341.28
L256.412 341.568
L256.548 342.72
L256.684 342.72
L256.957 341.856
L257.093 342.144
L257.501 343.872
L257.773 342.72
L257.909 344.16
L258.181 343.008
L258.454 338.4
L258.998 334.656
L259.134 335.232
L259.542 332.928
L259.815 330.048
L259.951 330.624
L260.087 328.32
L260.223 331.2
L260.495 329.472
L260.767 328.704
L261.176 327.456
L261.312 327.744
L261.448 328.32
L261.856 327.744
L261.992 328.32
L262.264 326.88
L262.673 324.288
L263.081 325.44
L263.625 313.92
L264.034 317.376
L264.17 317.952
L264.442 316.8
L264.714 315.072
L264.85 315.36
L265.259 313.344
L265.531 309.312
L266.075 308.16
L266.211 307.008
L266.347 307.584
L266.483 307.296
L266.62 306.72
L266.756 308.16
L267.436 305.28
L267.708 307.296
L267.844 307.008
L268.117 305.856
L268.389 306.72
L268.525 310.464
L268.797 311.616
L269.341 317.146
L269.75 321.984
L269.886 328.896
L270.294 329.76
L270.566 332.64
L270.839 330.048
L271.111 333.504
L271.247 332.64
L271.655 334.368
L271.791 334.08
L272.608 326.4
L272.88 324
L273.288 318.528
L273.56 315.648
L274.105 317.952
L274.513 321.984
L274.785 323.616
L275.874 332.064
L276.01 331.776
L276.146 331.2
L276.282 329.76
L276.555 334.656
L276.963 335.52
L277.235 338.688
L277.371 342.72
L277.507 343.296
L277.643 344.448
L277.916 348.48
L278.324 346.752
L278.596 347.328
L279.004 344.448
L279.14 343.872
L279.277 342.72
L279.549 343.296
L279.821 344.16
L280.365 341.856
L280.501 342.72
L280.774 345.6
L281.182 349.056
L281.862 352.224
L282.135 351.168
L282.407 350.784
L282.679 349.92
L282.815 350.496
L283.087 349.344
L283.223 350.208
L283.36 349.056
L283.632 349.632
L283.768 350.496
L284.176 350.784
L284.312 350.496
L284.448 350.784
L284.584 351.36
L284.72 350.784
L284.857 351.648
L285.129 354.24
L285.265 353.376
L285.401 353.664
L285.673 355.104
L285.809 356.544
L286.49 354.024
L286.626 353.664
L286.898 354.816
L287.17 352.8
L287.306 352.8
L287.715 354.528
L287.987 352.8
L288.395 351.36
L288.667 351.36
L288.803 350.784
L288.94 350.784
L289.212 347.616
L289.484 351.36
L289.62 365.472
L289.756 351.936
L289.892 351.36
L290.164 348.48
L290.437 347.616
L290.709 347.04
L290.845 347.04
L290.981 347.616
L291.389 345.6
L291.525 342.72
L291.661 343.296
L292.07 341.856
L292.206 341.568
L292.342 340.704
L292.478 340.992
L292.75 339.84
L292.886 340.128
L293.159 341.28
L293.295 341.856
L293.431 341.28
L293.567 342.144
L293.839 340.992
L294.656 345.6
L294.792 346.176
L294.928 345.6
L295.2 347.04
L295.608 345.024
L295.744 345.6
L295.88 345.6
L296.017 346.176
L296.153 346.176
L296.425 340.992
L299.555 341.28
L301.324 345.6
L301.597 342.72
L301.733 345.6
L301.869 345.6
L302.005 345.024
L302.141 345.888
L302.821 339.387
L305.271 312.48
L305.407 312.48
L305.543 312.192
L305.68 315.072
L305.816 315.36
L305.952 316.8
L306.224 315.36
L306.904 302.4
L307.177 303.84
L307.585 309.12
L307.721 311.04
L307.857 309.6
L308.129 311.616
L308.401 312.48
L308.946 309.6
L309.354 313.92
L309.899 308.16
L310.171 311.04
L310.307 310.464
L310.443 311.04
L310.715 313.92
L310.851 313.344
L311.123 313.344
L311.26 312.48
L311.396 313.92
L311.532 316.8
L311.668 316.224
L311.804 316.8
L312.348 327.168
L312.484 325.44
L312.757 318.24
L312.893 321.12
L313.029 328.32
L313.165 324
L313.301 325.44
L313.437 328.32
L313.573 326.88
L313.709 331.2
L313.845 331.776
L314.254 308.16
L314.39 296.64
L314.526 299.52
L314.798 298.368
L314.934 300.096
L315.342 296.64
L315.479 296.64
L315.615 298.08
L316.023 308.16
L316.159 308.16
L316.431 312.48
L316.703 316.224
L316.976 319.68
L317.248 315.36
L317.52 313.92
L317.656 313.92
L317.928 308.16
L318.337 312.48
L318.745 309.312
L319.289 305.28
L319.425 308.16
L319.698 308.16
L319.834 305.28
L319.97 308.16
L320.242 302.4
L320.378 302.4
L320.514 305.28
L320.65 305.28
L320.786 306.72
L320.922 306.72
L321.059 308.16
L321.195 311.04
L321.331 311.04
L321.603 313.056
L321.739 313.344
L321.875 312.48
L322.011 313.92
L322.147 313.92
L322.692 319.68
L322.828 319.68
L323.236 316.8
L323.917 316.8
L324.053 317.664
L324.189 319.68
L324.325 318.528
L324.597 319.68
L324.733 319.68
L325.005 322.56
L325.141 322.56
L325.278 331.2
L325.55 331.2
L325.686 328.32
L325.822 328.32
L325.958 326.88
L326.094 329.76
L326.23 328.32
L326.502 331.2
L326.639 331.2
L326.911 328.32
L327.183 331.776
L327.319 331.776
L327.591 333.504
L327.727 333.504
L327.863 332.928
L328.136 336.96
L328.408 339.264
L328.544 342.72
L328.68 341.28
L328.952 344.16
L329.088 344.16
L329.224 345.024
L329.36 345.024
L329.497 345.6
L329.633 345.6
L329.769 345.024
L330.177 347.904
L330.449 349.056
L330.585 347.04
L330.721 347.04
L330.994 349.92
L331.13 349.92
L331.402 352.512
L331.538 351.648
L331.674 352.8
L331.946 352.8
L332.082 353.664
L332.219 353.664
L332.355 354.24
L332.491 353.664
L332.627 354.24
L332.763 354.24
L332.899 353.664
L333.035 353.664
L333.171 352.8
L333.307 352.8
L333.443 353.664
L333.58 352.8
L333.716 352.8
L333.852 353.664
L333.988 352.8
L334.26 352.8
L334.396 353.664
L334.532 352.8
L335.077 355.68
L335.485 355.68
L335.621 357.12
L335.757 357.12
L335.893 356.544
L336.029 356.544
L336.301 355.104
L336.438 354.816
L336.574 354.24
L336.71 353.088
L336.982 353.952
L337.118 354.24
L337.254 352.8
L337.39 352.8
L337.662 354.816
L337.799 355.68
L337.935 355.68
L338.071 355.392
L338.207 355.68
L338.343 355.392
L338.479 355.68
L338.615 355.392
L338.751 355.392
L339.023 354.24
L339.16 354.528
L339.296 354.24
L339.568 354.24
L339.704 353.664
L339.84 353.664
L339.976 352.8
L340.248 352.8
L340.384 352.512
L340.52 352.8
L340.657 352.8
L340.793 352.512
L340.929 353.664
L341.473 350.784
L341.609 351.36
L341.745 351.36
L342.018 349.92
L342.29 351.36
L342.426 349.92
L342.834 349.92
L342.97 350.208
L343.106 349.92
L343.242 351.36
L343.379 350.208
L343.923 351.936
L344.331 354.24
L344.74 352.8
L344.876 352.8
L345.012 351.936
L345.148 351.936
L345.284 351.36
L345.42 351.36
L345.556 352.8
L345.692 352.512
L345.964 353.088
L346.1 354.24
L346.373 351.936
L346.509 351.36
L346.645 349.92
L346.917 351.36
L347.189 349.056
L347.325 349.92
L347.461 349.632
L347.598 349.92
L347.734 349.92
L348.006 348.48
L348.142 349.344
L348.414 345.6
L348.55 345.6
L348.822 349.92
L348.959 345.6
L349.095 345.6
L349.231 344.16
L349.367 345.6
L349.639 342.72
L349.775 342.72
L350.047 338.4
L350.183 336.96
L350.32 337.536
L350.456 334.08
L350.592 335.52
L350.728 335.52
L351.136 324
L351.272 323.424
L351.408 319.68
L351.68 319.68
L352.089 323.712
L352.225 324
L352.361 325.44
L352.497 324
L352.633 324
L352.769 325.44
L352.905 325.44
L353.314 324
L353.45 322.56
L353.586 319.68
L353.722 319.68
L353.994 320.256
L354.266 321.984
L354.539 319.68
L355.083 308.16
L355.219 308.16
L355.355 306.72
L355.491 308.16
L355.627 307.008
L355.763 308.16
L355.9 308.16
L356.172 310.464
L356.444 308.16
L356.58 309.6
L356.852 306.432
L357.124 307.008
L357.397 309.6
L357.533 306.72
L357.669 306.72
L357.805 311.04
L357.941 308.16
L358.077 309.6
L358.213 308.16
L358.349 302.4
L358.485 303.84
L358.621 302.4
L358.894 302.4
L359.03 305.28
L359.166 305.28
L359.438 302.4
L359.71 302.4
L359.982 309.6
L360.119 308.16
L360.391 303.84
L360.663 302.4
L360.935 302.4
L361.207 305.28
L361.48 302.4
L361.616 302.4
L361.888 300.96
L362.024 296.64
L362.296 296.64
L363.113 298.08
L363.249 298.08
L363.385 299.52
L363.929 216
L364.065 216
L364.201 221.76
L364.338 216
L364.474 221.76
L364.746 217.44
L364.882 224.64
L365.018 221.76
L365.154 221.76
L365.426 224.64
L365.562 227.52
L365.699 226.08
L365.835 227.52
L365.971 224.64
L366.243 226.656
L366.379 227.52
L366.515 227.52
L366.651 224.64
L367.196 195.84
L367.332 192.96
L367.468 192.96
L367.604 204.48
L367.876 244.8
L368.148 256.32
L368.42 253.44
L368.557 306.72
L368.693 305.28
L368.965 299.52
L369.237 311.04
L369.373 311.04
L369.509 309.6
L369.781 311.616
L369.918 311.04
L370.054 312.48
L370.19 312.48
L370.462 310.464
L370.734 313.92
L370.87 319.68
L371.006 319.68
L371.279 322.56
L371.415 325.44
L371.551 331.2
L371.687 331.2
L371.823 332.64
L371.959 332.64
L372.231 331.488
L372.367 331.2
L372.64 334.08
L372.776 332.64
L373.048 335.232
L373.184 335.232
L373.32 334.656
L373.592 339.84
L373.728 339.264
L373.864 342.72
L374.273 339.84
L374.409 342.72
L374.545 342.72
L374.681 344.736
L374.817 345.024
L374.953 345.024
L375.089 345.6
L375.361 348.48
L375.634 348.48
L375.77 347.904
L376.45 351.36
L376.722 349.92
L377.131 352.512
L377.267 354.24
L377.539 354.24
L377.675 352.8
L377.811 352.8
L377.947 351.936
L378.356 352.8
L378.492 352.512
L378.764 353.952
L378.9 354.24
L379.172 355.392
L379.308 355.392
L379.58 355.968
L379.717 354.816
L379.853 354.816
L380.261 356.256
L380.533 355.392
L380.669 355.392
L380.805 354.816
L380.941 355.68
L381.078 355.68
L381.214 356.544
L381.35 355.68
L381.486 355.68
L381.622 356.544
L381.758 355.68
L382.03 358.56
L382.302 356.544
L382.439 356.256
L382.575 355.68
L382.711 355.68
L382.847 357.12
L382.983 355.68
L383.119 355.68
L383.255 354.816
L383.527 354.816
L383.663 354.24
L384.072 357.12
L384.208 355.68
L384.344 357.12
L384.752 355.392
L384.888 355.68
L385.024 355.68
L385.16 357.12
L385.297 355.68
L385.433 356.544
L385.569 355.68
L385.705 355.68
L385.841 357.12
L385.977 357.12
L386.113 358.56
L386.249 357.984
L386.385 358.56
L386.521 358.272
L386.658 358.848
L386.794 358.56
L387.474 355.68
L387.61 355.68
L387.746 355.392
L388.019 355.968
L388.427 358.56
L388.563 359.424
L388.835 357.12
L388.971 357.12
L389.107 356.544
L389.243 357.12
L389.38 357.12
L389.516 355.68
L389.652 356.544
L389.788 356.544
L389.924 357.12
L390.196 355.104
L390.332 354.24
L390.468 355.68
L390.604 354.816
L390.74 355.68
L390.877 354.24
L391.013 354.528
L391.149 354.24
L391.285 354.816
L391.421 354.24
L391.557 354.24
L391.693 353.664
L391.829 352.224
L391.965 352.8
L392.101 352.8
L392.374 349.92
L392.51 349.92
L392.646 349.056
L392.782 349.92
L393.054 347.616
L393.326 346.176
L393.462 344.16
L393.599 345.6
L393.735 344.16
L393.871 345.024
L394.279 344.16
L394.415 345.6
L394.551 345.6
L394.823 344.16
L395.232 341.28
L395.504 343.872
L395.64 342.72
L396.048 335.913
L397.409 325.44
L397.545 328.32
L397.681 328.32
L397.954 331.2
L398.09 330.048
L398.498 330.624
L398.634 332.352
L398.77 332.064
L398.906 331.2
L399.179 326.88
L399.451 324
L399.587 324
L399.995 319.68
L400.131 319.68
L400.267 322.56
L400.403 320.832
L400.54 326.88
L400.676 326.88
L400.812 328.32
L400.948 325.44
L401.084 325.44
L401.356 328.32
L401.492 326.88
L401.764 328.32
L401.9 327.744
L402.173 325.44
L402.309 325.44
L402.445 322.56
L402.581 322.56
L402.717 324
L402.853 319.68
L402.989 319.68
L403.398 319.104
L403.534 318.24
L403.67 318.24
L403.942 316.8
L404.078 315.36
L404.214 316.8
L404.35 319.68
L404.486 318.24
L404.622 318.24
L404.759 319.68
L404.895 322.56
L405.303 322.56
L405.575 324.288
L405.711 324
L406.12 324.288
L406.256 324
L406.392 325.44
L406.528 324
L406.664 325.44
L406.8 324
L406.936 325.44
L407.48 320.64
L407.753 319.68
L408.297 323.712
L408.705 327.744
L408.841 327.744
L408.978 326.88
L409.25 328.896
L409.522 331.2
L409.658 329.76
L409.794 329.76
L409.93 331.2
L410.202 335.52
L410.611 338.88
L410.883 339.84
L411.291 336.96
L411.7 339.84
L411.972 344.16
L412.38 347.04
L412.924 351.648
L413.06 349.92
L413.197 351.36
L413.333 349.92
L413.469 351.36
L413.605 349.92
L414.013 353.376
L414.149 354.24
L414.285 351.36
L414.421 352.8
L414.558 351.36
L414.694 351.936
L414.83 354.24
L415.102 351.36
L415.238 352.8
L415.374 351.36
L415.51 352.8
L415.646 352.512
L415.782 351.36
L416.055 352.8
L416.191 351.648
L416.327 354.24
L416.463 352.8
L416.599 354.24
L416.735 352.8
L416.871 353.664
L417.007 353.088
L417.143 354.24
L417.28 354.24
L417.416 354.816
L417.552 354.816
L417.688 355.68
L417.824 355.392
L417.96 354.816
L418.096 355.392
L418.232 355.392
L418.368 355.68
L418.504 336.96
L418.64 354.816
L418.777 354.24
L418.913 354.24
L419.457 357.12
L419.729 357.12
L419.865 355.68
L420.001 357.12
L420.274 354.816
L420.41 355.68
L420.546 355.68
L420.818 354.24
L420.954 355.68
L421.09 354.816
L421.499 357.12
L421.907 355.68
L422.043 354.24
L422.179 354.24
L422.315 355.68
L422.451 354.24
L422.587 354.24
L422.723 352.8
L422.86 353.664
L422.996 353.664
L423.268 350.208
L423.676 349.92
L423.948 352.08
L424.357 354.24
L424.629 351.36
L424.765 352.224
L424.901 351.36
L425.037 352.8
L425.173 352.8
L425.309 351.36
L425.445 351.36
L425.581 352.8
L425.718 352.512
L425.854 351.36
L425.99 351.36
L426.126 351.936
L426.262 351.936
L426.398 351.36
L426.534 351.36
L426.67 352.512
L426.806 352.512
L426.942 352.8
L427.079 352.8
L427.487 351.936
L427.623 351.36
L427.759 352.8
L427.895 352.512
L428.167 351.36
L428.303 351.936
L428.44 351.36
L428.576 351.936
L428.712 351.36
L428.848 352.8
L428.984 352.8
L429.12 351.36
L429.256 352.8
L429.392 351.36
L429.528 354.24
L429.664 354.24
L429.8 353.664
L429.937 354.24
L430.073 354.24
L430.481 355.68
L430.753 355.68
L430.889 356.544
L431.161 354.816
L431.57 354.816
L431.842 355.68
L431.978 355.68
L432.114 355.392
L432.25 354.24
L432.386 355.68
L432.522 355.392
L432.659 355.68
L432.795 355.68
L432.931 355.392
L433.067 355.68
L433.203 356.544
L433.339 355.68
L433.475 355.68
L433.611 356.544
L433.747 356.544
L433.883 355.968
L434.02 355.968
L434.156 356.544
L434.292 357.696
L434.428 357.696
L434.564 360
L434.972 358.848
L435.244 360
L435.38 360
L435.789 358.56
L436.197 360
L436.333 359.136
L436.469 360
L436.605 360
L436.741 359.136
L436.878 360
L437.014 359.136
L437.15 360
L437.422 355.68
L437.558 357.12
L437.694 356.544
L437.83 357.12
L437.966 357.12
L438.102 354.24
L438.511 357.696
L438.647 358.56
L438.783 358.56
L438.919 359.424
L439.191 358.08
L439.463 357.12
L439.872 358.848
L440.008 358.56
L440.144 357.12
L440.28 357.12
L440.416 356.544
L440.552 357.12
L440.96 355.68
L441.097 356.544
L441.369 355.392
L441.641 347.904
L441.777 345.024
L441.913 345.6
L442.049 348.48
L442.185 347.04
L442.321 348.48
L442.594 345.6
L442.73 345.6
L443.41 342.72
L444.771 342.72
L445.043 345.6
L445.18 344.448
L445.452 345.6
L445.588 345.6
L445.724 345.024
L445.86 343.872
L445.996 345.6
L446.132 345.024
L446.268 345.6
L446.404 345.6
L446.813 348.48
L447.357 348.48
L447.493 347.328
L447.629 348.48
L448.854 348.48
L448.99 349.92
L449.126 348.48
L449.399 348.48
L449.535 347.904
L449.671 348.48
L449.807 345.6
L450.215 348.48
L450.351 347.904
L450.487 348.48
L451.032 348.48
L451.168 345.6
L451.304 345.6
L451.44 347.328
L451.576 345.6
L451.712 347.328
L452.393 348.48
L452.529 348.48
L452.665 345.6
L452.801 345.6
L453.073 347.328
L453.209 345.6
L453.345 345.6
L453.481 344.736
L453.618 345.6
L453.89 351.36
L454.162 351.36
L454.57 354.24
L454.706 351.36
L454.842 351.36
L454.979 348.48
L455.115 348.48
L455.251 347.04
L455.387 348.48
L455.523 348.48
L455.659 349.056
L455.795 348.48
L456.203 348.48
L456.612 334.944
L456.748 336.96
L456.884 335.808
L457.02 336.96
L457.156 334.08
L457.428 336.96
L457.564 336.96
L457.973 335.52
L458.109 334.08
L458.517 336.96
L458.653 336.96
L458.789 335.808
L458.925 336.96
L459.061 342.72
L459.198 339.84
L459.334 339.84
L459.47 342.72
L459.606 339.84
L459.742 339.84
L459.878 342.72
L460.014 336.96
L460.695 333.504
L460.831 331.2
L460.967 325.44
L461.103 325.44
L461.239 319.68
L461.511 319.68
L461.647 320.256
L461.783 319.68
L462.056 319.68
L462.192 313.92
L462.328 319.68
L462.464 319.68
L462.6 316.8
L462.736 316.8
L462.872 319.68
L463.008 319.68
L463.144 318.24
L463.553 322.56
L463.961 322.56
L464.097 319.68
L464.369 325.44
L464.505 324
L464.914 324.288
L465.05 325.44
L465.594 325.44
L466.002 322.56
L466.411 320.832
L466.547 319.68
L466.683 322.56
L466.819 322.56
L467.5 323.136
L467.636 316.224
L467.772 323.136
L467.908 322.56
L468.452 316.8
L468.724 316.8
L469.405 313.92
L469.541 313.92
L469.813 296.64
L469.949 285.12
L470.085 285.12
L470.221 273.6
L470.358 285.12
L470.494 285.12
L470.63 288
L470.766 286.272
L470.902 296.64
L471.31 296.64
L471.446 298.08
L471.582 296.64
L471.719 298.08
L471.855 300.96
L471.991 301.248
L472.263 313.92
L472.399 313.92
L472.671 312
L472.943 311.04
L473.08 313.92
L473.896 313.92
L474.168 315.36
L474.304 315.072
L474.44 313.92
L474.577 313.92
L474.849 319.68
L475.257 319.68
L475.393 318.24
L475.665 320.544
L475.801 319.68
L476.074 319.68
L476.346 320.448
L476.754 321.12
L477.162 319.68
L477.299 316.8
L477.435 316.8
L477.571 313.92
L477.979 313.92
L478.115 315.36
L478.251 313.92
L478.66 313.92
L478.796 311.04
L479.204 319.68
L479.34 319.68
L479.476 321.984
L479.612 321.984
L479.748 322.56
L479.884 325.44
L480.02 322.56
L480.157 325.44
L480.429 325.44
L480.565 319.68
L480.837 319.68
L481.245 325.44
L481.518 325.44
L481.654 319.68
L481.79 319.68
L481.926 321.12
L482.198 326.88
L482.334 326.88
L482.47 325.44
L482.742 325.44
L482.879 331.2
L483.015 342.72
L483.151 339.84
L483.287 340.704
L483.695 339.84
L483.831 339.84
L483.967 338.4
L484.103 342.72
L485.056 342.72
L485.464 336.96
L485.737 336.96
L486.145 338.4
L486.281 338.112
L486.417 338.112
L486.553 338.4
L486.825 335.52
L487.098 335.52
L487.234 335.232
L487.506 334.08
L487.642 334.656
L487.778 334.08
L487.914 334.08
L488.186 326.88
L488.595 323.712
L489.139 318.24
L489.275 316.8
L489.411 318.24
L489.82 315.072
L489.956 302.4
L490.092 303.84
L490.228 302.4
L490.636 302.4
L490.908 298.08
L491.044 296.64
L491.317 296.64
L491.453 282.24
L491.589 282.24
L491.725 273.6
L491.997 273.6
L492.405 259.2
L492.541 262.08
L492.678 260.64
L492.814 262.08
L493.902 262.08
L494.039 262.656
L494.175 262.08
L494.311 262.08
L494.447 264.96
L495.4 129.6
L495.672 129.6
L495.808 126.72
L496.216 129.6
L496.488 120.96
L496.624 123.84
L496.76 120.96
L497.033 135.36
L497.169 135.36
L497.305 136.8
L497.441 136.8
L497.577 138.24
L497.985 146.88
L498.394 146.88
L498.666 152.64
L498.938 152.64
L499.21 158.4
L499.482 158.4
L499.891 129.6
L500.027 109.44
L500.163 72
L500.299 66.24
L500.435 54.72
L500.571 54.72
L500.707 100.8
L501.116 100.8
L501.388 106.56
L501.524 106.56
L501.66 112.32
L502.068 169.92
L502.477 169.92
L502.749 175.68
L503.021 216
L503.293 216
L503.701 217.44
L503.838 218.88
L504.654 100.8
L504.79 89.28
L504.926 66.24
L505.335 66.24
L505.471 72
L505.607 72
L505.743 77.76
L505.879 77.76
L506.287 158.4
L506.423 158.4
L506.968 129.6
L507.104 158.4
L507.24 141.12
L507.376 146.88
L507.512 129.6
L507.648 146.88
L507.784 149.76
L508.057 160.8
L508.601 171.072
L509.418 192.96
L509.554 216
L509.69 216
L509.826 221.76
L509.962 221.76
L510.37 227.52
L510.506 227.52
L510.779 256.32
L511.051 256.32
L511.187 255.456
L511.323 256.32
L511.459 256.32
L511.731 260.64
L511.867 262.08
L512.003 262.08
L512.14 273.6
L512.276 273.6
L512.412 285.12
L512.548 285.12
L512.82 290.88
L512.956 302.4
L513.364 302.4
L513.5 303.552
L513.637 302.4
L513.773 313.92
L513.909 313.92
L514.045 315.072
L514.317 315.168
L514.589 315.36
L514.725 319.68
L514.861 319.68
L514.998 318.24
L515.134 319.68
L515.406 319.68
L515.542 321.12
L515.678 320.832
L515.814 321.12
L516.086 320.544
L516.495 321.12
L516.631 320.832
L516.767 322.56
L516.903 322.56
L517.039 321.984
L517.175 325.44
L517.311 324
L517.447 325.44
L517.72 322.56
L518.128 322.56
L518.264 325.44
L518.4 325.44
L518.4 325.44" style="fill:none;stroke:#0000ff;"/>
   </g>
   <g id="line2d_3">
    <path clip-path="url(#p7ff5b81e1d)" d="
M451.984 349.671
L452.529 350.176
L453.073 350.057
L453.618 351.109
L454.162 349.383
L454.706 350.9
L455.251 351.09
L455.795 349.609
L456.34 350.504
L456.884 338.758
L457.564 337.031
L458.381 333.384
L458.517 332.711
L459.061 336.276
L459.606 335.98
L460.15 333.742
L460.831 317.868
L461.239 315.285
L461.783 307.072
L462.328 309.271
L462.872 302.872
L463.417 303.074
L463.961 305.717
L464.505 303.568
L465.05 325.465
L465.594 323.417
L466.275 318.757
L466.683 317.956
L467.227 318.9
L467.908 318.119
L468.316 317.922
L468.86 315.162
L469.541 319.026
L469.949 320.199
L470.494 302.78
L471.31 307.526
L471.582 308.618
L472.127 304.476
L472.671 308.064
L473.216 303.168
L473.76 323.351
L474.304 319.965
L474.849 306.144
L475.393 313.36
L475.938 309.925
L476.482 312.156
L477.026 316.693
L477.707 310.388
L478.251 308.75
L478.66 308.22
L479.204 309.015
L479.748 312.012
L480.293 310.759
L480.837 311.968
L481.381 308.332
L481.926 311.133
L482.47 307.88
L483.015 308.258
L483.559 314.355
L484.103 310.156
L484.648 319.726
L485.192 317.596
L485.737 320.8
L486.281 321.207
L486.825 311.365
L487.914 320.003
L488.459 318.637
L489.003 314.998
L489.547 319.811
L490.228 313.763
L490.636 308.159
L491.18 308.401
L493.222 280.317
L493.494 278.649
L493.902 277.367
L494.583 263.484
L494.991 258.285
L495.808 190.449
L496.216 170.958
L497.305 155.994
L497.849 148.63
L498.258 145.763
L498.938 183.32
L499.346 193.416
L500.435 169.053
L500.98 131.944
L501.524 176.191
L502.068 169.758
L502.613 200.829
L503.157 175.828
L503.838 205.506
L504.246 233.113
L504.79 158.266
L505.879 133.299
L506.56 175.069
L506.968 182.126
L507.512 155.075
L508.465 192.263
L508.737 199.439
L509.69 218.796
L510.234 184.532
L510.779 187.017
L511.323 220.778
L511.867 197.532
L512.412 205.035
L512.956 231.934
L513.5 228.832
L514.045 240.146
L514.725 266.285
L515.406 285.174
L515.678 294.203
L516.359 285.144
L516.767 283.367
L517.311 299.746
L517.856 300.811
L518.4 303.389
L518.4 303.389" style="fill:none;stroke:#ff0000;"/>
   </g>
   <g id="matplotlib.axis_1">
    <g id="xtick_1">
     <g id="line2d_4">
      <path clip-path="url(#p7ff5b81e1d)" d="
M116.776 388.8
L116.776 43.2" style="fill:none;stroke:#000000;stroke-dasharray:1.000000,3.000000;stroke-dashoffset:0.0;stroke-linecap:butt;stroke-width:0.5;"/>
     </g>
     <g id="line2d_5">
      <defs>
       <path d="
M0 0
L0 -4" id="mcb557df647" style="stroke:#000000;stroke-linecap:butt;stroke-width:0.5;"/>
      </defs>
      <g>
       <use style="stroke:#000000;stroke-linecap:butt;stroke-width:0.5;" x="116.776097561" xlink:href="#mcb557df647" y="388.8"/>
      </g>
     </g>
     <g id="line2d_6">
      <defs>
       <path d="
M0 0
L0 4" id="mdad270ee8e" style="stroke:#000000;stroke-linecap:butt;stroke-width:0.5;"/>
      </defs>
      <g>
       <use style="stroke:#000000;stroke-linecap:butt;stroke-width:0.5;" x="116.776097561" xlink:href="#mdad270ee8e" y="43.2"/>
      </g>
     </g>
     <g id="text_1">
      <!-- 2006 -->
      <defs>
       <path d="
M31.7812 66.4062
Q24.1719 66.4062 20.3281 58.9062
Q16.5 51.4219 16.5 36.375
Q16.5 21.3906 20.3281 13.8906
Q24.1719 6.39062 31.7812 6.39062
Q39.4531 6.39062 43.2812 13.8906
Q47.125 21.3906 47.125 36.375
Q47.125 51.4219 43.2812 58.9062
Q39.4531 66.4062 31.7812 66.4062
M31.7812 74.2188
Q44.0469 74.2188 50.5156 64.5156
Q56.9844 54.8281 56.9844 36.375
Q56.9844 17.9688 50.5156 8.26562
Q44.0469 -1.42188 31.7812 -1.42188
Q19.5312 -1.42188 13.0625 8.26562
Q6.59375 17.9688 6.59375 36.375
Q6.59375 54.8281 13.0625 64.5156
Q19.5312 74.2188 31.7812 74.2188" id="DejaVuSans-30"/>
       <path d="
M19.1875 8.29688
L53.6094 8.29688
L53.6094 0
L7.32812 0
L7.32812 8.29688
Q12.9375 14.1094 22.625 23.8906
Q32.3281 33.6875 34.8125 36.5312
Q39.5469 41.8438 41.4219 45.5312
Q43.3125 49.2188 43.3125 52.7812
Q43.3125 58.5938 39.2344 62.25
Q35.1562 65.9219 28.6094 65.9219
Q23.9688 65.9219 18.8125 64.3125
Q13.6719 62.7031 7.8125 59.4219
L7.8125 69.3906
Q13.7656 71.7812 18.9375 73
Q24.125 74.2188 28.4219 74.2188
Q39.75 74.2188 46.4844 68.5469
Q53.2188 62.8906 53.2188 53.4219
Q53.2188 48.9219 51.5312 44.8906
Q49.8594 40.875 45.4062 35.4062
Q44.1875 33.9844 37.6406 27.2188
Q31.1094 20.4531 19.1875 8.29688" id="DejaVuSans-32"/>
       <path d="
M33.0156 40.375
Q26.375 40.375 22.4844 35.8281
Q18.6094 31.2969 18.6094 23.3906
Q18.6094 15.5312 22.4844 10.9531
Q26.375 6.39062 33.0156 6.39062
Q39.6562 6.39062 43.5312 10.9531
Q47.4062 15.5312 47.4062 23.3906
Q47.4062 31.2969 43.5312 35.8281
Q39.6562 40.375 33.0156 40.375
M52.5938 71.2969
L52.5938 62.3125
Q48.875 64.0625 45.0938 64.9844
Q41.3125 65.9219 37.5938 65.9219
Q27.8281 65.9219 22.6719 59.3281
Q17.5312 52.7344 16.7969 39.4062
Q19.6719 43.6562 24.0156 45.9219
Q28.375 48.1875 33.5938 48.1875
Q44.5781 48.1875 50.9531 41.5156
Q57.3281 34.8594 57.3281 23.3906
Q57.3281 12.1562 50.6875 5.35938
Q44.0469 -1.42188 33.0156 -1.42188
Q20.3594 -1.42188 13.6719 8.26562
Q6.98438 17.9688 6.98438 36.375
Q6.98438 53.6562 15.1875 63.9375
Q23.3906 74.2188 37.2031 74.2188
Q40.9219 74.2188 44.7031 73.4844
Q48.4844 72.75 52.5938 71.2969" id="DejaVuSans-36"/>
      </defs>
      <g transform="translate(102.323597561 401.70625)scale(0.12 -0.12)">
       <use xlink:href="#DejaVuSans-32"/>
       <use x="63.623046875" xlink:href="#DejaVuSans-30"/>
       <use x="127.24609375" xlink:href="#DejaVuSans-30"/>
       <use x="190.869140625" xlink:href="#DejaVuSans-36"/>
      </g>
     </g>
    </g>
    <g id="xtick_2">
     <g id="line2d_7">
      <path clip-path="url(#p7ff5b81e1d)" d="
M166.452 388.8
L166.452 43.2" style="fill:none;stroke:#000000;stroke-dasharray:1.000000,3.000000;stroke-dashoffset:0.0;stroke-linecap:butt;stroke-width:0.5;"/>
     </g>
     <g id="line2d_8">
      <g>
       <use style="stroke:#000000;stroke-linecap:butt;stroke-width:0.5;" x="166.451707317" xlink:href="#mcb557df647" y="388.8"/>
      </g>
     </g>
     <g id="line2d_9">
      <g>
       <use style="stroke:#000000;stroke-linecap:butt;stroke-width:0.5;" x="166.451707317" xlink:href="#mdad270ee8e" y="43.2"/>
      </g>
     </g>
     <g id="text_2">
      <!-- 2007 -->
      <defs>
       <path d="
M8.20312 72.9062
L55.0781 72.9062
L55.0781 68.7031
L28.6094 0
L18.3125 0
L43.2188 64.5938
L8.20312 64.5938
z
" id="DejaVuSans-37"/>
      </defs>
      <g transform="translate(152.134207317 401.70625)scale(0.12 -0.12)">
       <use xlink:href="#DejaVuSans-32"/>
       <use x="63.623046875" xlink:href="#DejaVuSans-30"/>
       <use x="127.24609375" xlink:href="#DejaVuSans-30"/>
       <use x="190.869140625" xlink:href="#DejaVuSans-37"/>
      </g>
     </g>
    </g>
    <g id="xtick_3">
     <g id="line2d_10">
      <path clip-path="url(#p7ff5b81e1d)" d="
M216.127 388.8
L216.127 43.2" style="fill:none;stroke:#000000;stroke-dasharray:1.000000,3.000000;stroke-dashoffset:0.0;stroke-linecap:butt;stroke-width:0.5;"/>
     </g>
     <g id="line2d_11">
      <g>
       <use style="stroke:#000000;stroke-linecap:butt;stroke-width:0.5;" x="216.127317073" xlink:href="#mcb557df647" y="388.8"/>
      </g>
     </g>
     <g id="line2d_12">
      <g>
       <use style="stroke:#000000;stroke-linecap:butt;stroke-width:0.5;" x="216.127317073" xlink:href="#mdad270ee8e" y="43.2"/>
      </g>
     </g>
     <g id="text_3">
      <!-- 2008 -->
      <defs>
       <path d="
M31.7812 34.625
Q24.75 34.625 20.7188 30.8594
Q16.7031 27.0938 16.7031 20.5156
Q16.7031 13.9219 20.7188 10.1562
Q24.75 6.39062 31.7812 6.39062
Q38.8125 6.39062 42.8594 10.1719
Q46.9219 13.9688 46.9219 20.5156
Q46.9219 27.0938 42.8906 30.8594
Q38.875 34.625 31.7812 34.625
M21.9219 38.8125
Q15.5781 40.375 12.0312 44.7188
Q8.5 49.0781 8.5 55.3281
Q8.5 64.0625 14.7188 69.1406
Q20.9531 74.2188 31.7812 74.2188
Q42.6719 74.2188 48.875 69.1406
Q55.0781 64.0625 55.0781 55.3281
Q55.0781 49.0781 51.5312 44.7188
Q48 40.375 41.7031 38.8125
Q48.8281 37.1562 52.7969 32.3125
Q56.7812 27.4844 56.7812 20.5156
Q56.7812 9.90625 50.3125 4.23438
Q43.8438 -1.42188 31.7812 -1.42188
Q19.7344 -1.42188 13.25 4.23438
Q6.78125 9.90625 6.78125 20.5156
Q6.78125 27.4844 10.7812 32.3125
Q14.7969 37.1562 21.9219 38.8125
M18.3125 54.3906
Q18.3125 48.7344 21.8438 45.5625
Q25.3906 42.3906 31.7812 42.3906
Q38.1406 42.3906 41.7188 45.5625
Q45.3125 48.7344 45.3125 54.3906
Q45.3125 60.0625 41.7188 63.2344
Q38.1406 66.4062 31.7812 66.4062
Q25.3906 66.4062 21.8438 63.2344
Q18.3125 60.0625 18.3125 54.3906" id="DejaVuSans-38"/>
      </defs>
      <g transform="translate(201.707629573 401.70625)scale(0.12 -0.12)">
       <use xlink:href="#DejaVuSans-32"/>
       <use x="63.623046875" xlink:href="#DejaVuSans-30"/>
       <use x="127.24609375" xlink:href="#DejaVuSans-30"/>
       <use x="190.869140625" xlink:href="#DejaVuSans-38"/>
      </g>
     </g>
    </g>
    <g id="xtick_4">
     <g id="line2d_13">
      <path clip-path="url(#p7ff5b81e1d)" d="
M265.939 388.8
L265.939 43.2" style="fill:none;stroke:#000000;stroke-dasharray:1.000000,3.000000;stroke-dashoffset:0.0;stroke-linecap:butt;stroke-width:0.5;"/>
     </g>
     <g id="line2d_14">
      <g>
       <use style="stroke:#000000;stroke-linecap:butt;stroke-width:0.5;" x="265.93902439" xlink:href="#mcb557df647" y="388.8"/>
      </g>
     </g>
     <g id="line2d_15">
      <g>
       <use style="stroke:#000000;stroke-linecap:butt;stroke-width:0.5;" x="265.93902439" xlink:href="#mdad270ee8e" y="43.2"/>
      </g>
     </g>
     <g id="text_4">
      <!-- 2009 -->
      <defs>
       <path d="
M10.9844 1.51562
L10.9844 10.5
Q14.7031 8.73438 18.5 7.8125
Q22.3125 6.89062 25.9844 6.89062
Q35.75 6.89062 40.8906 13.4531
Q46.0469 20.0156 46.7812 33.4062
Q43.9531 29.2031 39.5938 26.9531
Q35.25 24.7031 29.9844 24.7031
Q19.0469 24.7031 12.6719 31.3125
Q6.29688 37.9375 6.29688 49.4219
Q6.29688 60.6406 12.9375 67.4219
Q19.5781 74.2188 30.6094 74.2188
Q43.2656 74.2188 49.9219 64.5156
Q56.5938 54.8281 56.5938 36.375
Q56.5938 19.1406 48.4062 8.85938
Q40.2344 -1.42188 26.4219 -1.42188
Q22.7031 -1.42188 18.8906 -0.6875
Q15.0938 0.046875 10.9844 1.51562
M30.6094 32.4219
Q37.25 32.4219 41.125 36.9531
Q45.0156 41.5 45.0156 49.4219
Q45.0156 57.2812 41.125 61.8438
Q37.25 66.4062 30.6094 66.4062
Q23.9688 66.4062 20.0938 61.8438
Q16.2188 57.2812 16.2188 49.4219
Q16.2188 41.5 20.0938 36.9531
Q23.9688 32.4219 30.6094 32.4219" id="DejaVuSans-39"/>
      </defs>
      <g transform="translate(251.53058689 401.70625)scale(0.12 -0.12)">
       <use xlink:href="#DejaVuSans-32"/>
       <use x="63.623046875" xlink:href="#DejaVuSans-30"/>
       <use x="127.24609375" xlink:href="#DejaVuSans-30"/>
       <use x="190.869140625" xlink:href="#DejaVuSans-39"/>
      </g>
     </g>
    </g>
    <g id="xtick_5">
     <g id="line2d_16">
      <path clip-path="url(#p7ff5b81e1d)" d="
M315.615 388.8
L315.615 43.2" style="fill:none;stroke:#000000;stroke-dasharray:1.000000,3.000000;stroke-dashoffset:0.0;stroke-linecap:butt;stroke-width:0.5;"/>
     </g>
     <g id="line2d_17">
      <g>
       <use style="stroke:#000000;stroke-linecap:butt;stroke-width:0.5;" x="315.614634146" xlink:href="#mcb557df647" y="388.8"/>
      </g>
     </g>
     <g id="line2d_18">
      <g>
       <use style="stroke:#000000;stroke-linecap:butt;stroke-width:0.5;" x="315.614634146" xlink:href="#mdad270ee8e" y="43.2"/>
      </g>
     </g>
     <g id="text_5">
      <!-- 2010 -->
      <defs>
       <path d="
M12.4062 8.29688
L28.5156 8.29688
L28.5156 63.9219
L10.9844 60.4062
L10.9844 69.3906
L28.4219 72.9062
L38.2812 72.9062
L38.2812 8.29688
L54.3906 8.29688
L54.3906 0
L12.4062 0
z
" id="DejaVuSans-31"/>
      </defs>
      <g transform="translate(301.182759146 401.70625)scale(0.12 -0.12)">
       <use xlink:href="#DejaVuSans-32"/>
       <use x="63.623046875" xlink:href="#DejaVuSans-30"/>
       <use x="127.24609375" xlink:href="#DejaVuSans-31"/>
       <use x="190.869140625" xlink:href="#DejaVuSans-30"/>
      </g>
     </g>
    </g>
    <g id="xtick_6">
     <g id="line2d_19">
      <path clip-path="url(#p7ff5b81e1d)" d="
M365.29 388.8
L365.29 43.2" style="fill:none;stroke:#000000;stroke-dasharray:1.000000,3.000000;stroke-dashoffset:0.0;stroke-linecap:butt;stroke-width:0.5;"/>
     </g>
     <g id="line2d_20">
      <g>
       <use style="stroke:#000000;stroke-linecap:butt;stroke-width:0.5;" x="365.290243902" xlink:href="#mcb557df647" y="388.8"/>
      </g>
     </g>
     <g id="line2d_21">
      <g>
       <use style="stroke:#000000;stroke-linecap:butt;stroke-width:0.5;" x="365.290243902" xlink:href="#mdad270ee8e" y="43.2"/>
      </g>
     </g>
     <g id="text_6">
      <!-- 2011 -->
      <g transform="translate(351.013993902 401.70625)scale(0.12 -0.12)">
       <use xlink:href="#DejaVuSans-32"/>
       <use x="63.623046875" xlink:href="#DejaVuSans-30"/>
       <use x="127.24609375" xlink:href="#DejaVuSans-31"/>
       <use x="190.869140625" xlink:href="#DejaVuSans-31"/>
      </g>
     </g>
    </g>
    <g id="xtick_7">
     <g id="line2d_22">
      <path clip-path="url(#p7ff5b81e1d)" d="
M414.966 388.8
L414.966 43.2" style="fill:none;stroke:#000000;stroke-dasharray:1.000000,3.000000;stroke-dashoffset:0.0;stroke-linecap:butt;stroke-width:0.5;"/>
     </g>
     <g id="line2d_23">
      <g>
       <use style="stroke:#000000;stroke-linecap:butt;stroke-width:0.5;" x="414.965853659" xlink:href="#mcb557df647" y="388.8"/>
      </g>
     </g>
     <g id="line2d_24">
      <g>
       <use style="stroke:#000000;stroke-linecap:butt;stroke-width:0.5;" x="414.965853659" xlink:href="#mdad270ee8e" y="43.2"/>
      </g>
     </g>
     <g id="text_7">
      <!-- 2012 -->
      <g transform="translate(400.736478659 401.70625)scale(0.12 -0.12)">
       <use xlink:href="#DejaVuSans-32"/>
       <use x="63.623046875" xlink:href="#DejaVuSans-30"/>
       <use x="127.24609375" xlink:href="#DejaVuSans-31"/>
       <use x="190.869140625" xlink:href="#DejaVuSans-32"/>
      </g>
     </g>
    </g>
    <g id="xtick_8">
     <g id="line2d_25">
      <path clip-path="url(#p7ff5b81e1d)" d="
M464.778 388.8
L464.778 43.2" style="fill:none;stroke:#000000;stroke-dasharray:1.000000,3.000000;stroke-dashoffset:0.0;stroke-linecap:butt;stroke-width:0.5;"/>
     </g>
     <g id="line2d_26">
      <g>
       <use style="stroke:#000000;stroke-linecap:butt;stroke-width:0.5;" x="464.777560976" xlink:href="#mcb557df647" y="388.8"/>
      </g>
     </g>
     <g id="line2d_27">
      <g>
       <use style="stroke:#000000;stroke-linecap:butt;stroke-width:0.5;" x="464.777560976" xlink:href="#mdad270ee8e" y="43.2"/>
      </g>
     </g>
     <g id="text_8">
      <!-- 2013 -->
      <defs>
       <path d="
M40.5781 39.3125
Q47.6562 37.7969 51.625 33
Q55.6094 28.2188 55.6094 21.1875
Q55.6094 10.4062 48.1875 4.48438
Q40.7656 -1.42188 27.0938 -1.42188
Q22.5156 -1.42188 17.6562 -0.515625
Q12.7969 0.390625 7.625 2.20312
L7.625 11.7188
Q11.7188 9.32812 16.5938 8.10938
Q21.4844 6.89062 26.8125 6.89062
Q36.0781 6.89062 40.9375 10.5469
Q45.7969 14.2031 45.7969 21.1875
Q45.7969 27.6406 41.2812 31.2656
Q36.7656 34.9062 28.7188 34.9062
L20.2188 34.9062
L20.2188 43.0156
L29.1094 43.0156
Q36.375 43.0156 40.2344 45.9219
Q44.0938 48.8281 44.0938 54.2969
Q44.0938 59.9062 40.1094 62.9062
Q36.1406 65.9219 28.7188 65.9219
Q24.6562 65.9219 20.0156 65.0312
Q15.375 64.1562 9.8125 62.3125
L9.8125 71.0938
Q15.4375 72.6562 20.3438 73.4375
Q25.25 74.2188 29.5938 74.2188
Q40.8281 74.2188 47.3594 69.1094
Q53.9062 64.0156 53.9062 55.3281
Q53.9062 49.2656 50.4375 45.0938
Q46.9688 40.9219 40.5781 39.3125" id="DejaVuSans-33"/>
      </defs>
      <g transform="translate(450.428185976 401.70625)scale(0.12 -0.12)">
       <use xlink:href="#DejaVuSans-32"/>
       <use x="63.623046875" xlink:href="#DejaVuSans-30"/>
       <use x="127.24609375" xlink:href="#DejaVuSans-31"/>
       <use x="190.869140625" xlink:href="#DejaVuSans-33"/>
      </g>
     </g>
    </g>
    <g id="xtick_9">
     <g id="line2d_28">
      <path clip-path="url(#p7ff5b81e1d)" d="
M514.453 388.8
L514.453 43.2" style="fill:none;stroke:#000000;stroke-dasharray:1.000000,3.000000;stroke-dashoffset:0.0;stroke-linecap:butt;stroke-width:0.5;"/>
     </g>
     <g id="line2d_29">
      <g>
       <use style="stroke:#000000;stroke-linecap:butt;stroke-width:0.5;" x="514.453170732" xlink:href="#mcb557df647" y="388.8"/>
      </g>
     </g>
     <g id="line2d_30">
      <g>
       <use style="stroke:#000000;stroke-linecap:butt;stroke-width:0.5;" x="514.453170732" xlink:href="#mdad270ee8e" y="43.2"/>
      </g>
     </g>
     <g id="text_9">
      <!-- 2014 -->
      <defs>
       <path d="
M37.7969 64.3125
L12.8906 25.3906
L37.7969 25.3906
z

M35.2031 72.9062
L47.6094 72.9062
L47.6094 25.3906
L58.0156 25.3906
L58.0156 17.1875
L47.6094 17.1875
L47.6094 0
L37.7969 0
L37.7969 17.1875
L4.89062 17.1875
L4.89062 26.7031
z
" id="DejaVuSans-34"/>
      </defs>
      <g transform="translate(499.959420732 401.70625)scale(0.12 -0.12)">
       <use xlink:href="#DejaVuSans-32"/>
       <use x="63.623046875" xlink:href="#DejaVuSans-30"/>
       <use x="127.24609375" xlink:href="#DejaVuSans-31"/>
       <use x="190.869140625" xlink:href="#DejaVuSans-34"/>
      </g>
     </g>
    </g>
   </g>
   <g id="matplotlib.axis_2">
    <g id="ytick_1">
     <g id="line2d_31">
      <path clip-path="url(#p7ff5b81e1d)" d="
M72 388.8
L518.4 388.8" style="fill:none;stroke:#000000;stroke-dasharray:1.000000,3.000000;stroke-dashoffset:0.0;stroke-linecap:butt;stroke-width:0.5;"/>
     </g>
     <g id="line2d_32">
      <defs>
       <path d="
M0 0
L4 0" id="mc8fcea1516" style="stroke:#000000;stroke-linecap:butt;stroke-width:0.5;"/>
      </defs>
      <g>
       <use style="stroke:#000000;stroke-linecap:butt;stroke-width:0.5;" x="72.0" xlink:href="#mc8fcea1516" y="388.8"/>
      </g>
     </g>
     <g id="line2d_33">
      <defs>
       <path d="
M0 0
L-4 0" id="m0d5b0a6425" style="stroke:#000000;stroke-linecap:butt;stroke-width:0.5;"/>
      </defs>
      <g>
       <use style="stroke:#000000;stroke-linecap:butt;stroke-width:0.5;" x="518.4" xlink:href="#m0d5b0a6425" y="388.8"/>
      </g>
     </g>
     <g id="text_10">
      <!-- 0 -->
      <g transform="translate(61.953125 393.1678125)scale(0.12 -0.12)">
       <use xlink:href="#DejaVuSans-30"/>
      </g>
     </g>
    </g>
    <g id="ytick_2">
     <g id="line2d_34">
      <path clip-path="url(#p7ff5b81e1d)" d="
M72 331.2
L518.4 331.2" style="fill:none;stroke:#000000;stroke-dasharray:1.000000,3.000000;stroke-dashoffset:0.0;stroke-linecap:butt;stroke-width:0.5;"/>
     </g>
     <g id="line2d_35">
      <g>
       <use style="stroke:#000000;stroke-linecap:butt;stroke-width:0.5;" x="72.0" xlink:href="#mc8fcea1516" y="331.2"/>
      </g>
     </g>
     <g id="line2d_36">
      <g>
       <use style="stroke:#000000;stroke-linecap:butt;stroke-width:0.5;" x="518.4" xlink:href="#m0d5b0a6425" y="331.2"/>
      </g>
     </g>
     <g id="text_11">
      <!-- 10 -->
      <g transform="translate(54.845 335.5678125)scale(0.12 -0.12)">
       <use xlink:href="#DejaVuSans-31"/>
       <use x="63.623046875" xlink:href="#DejaVuSans-30"/>
      </g>
     </g>
    </g>
    <g id="ytick_3">
     <g id="line2d_37">
      <path clip-path="url(#p7ff5b81e1d)" d="
M72 273.6
L518.4 273.6" style="fill:none;stroke:#000000;stroke-dasharray:1.000000,3.000000;stroke-dashoffset:0.0;stroke-linecap:butt;stroke-width:0.5;"/>
     </g>
     <g id="line2d_38">
      <g>
       <use style="stroke:#000000;stroke-linecap:butt;stroke-width:0.5;" x="72.0" xlink:href="#mc8fcea1516" y="273.6"/>
      </g>
     </g>
     <g id="line2d_39">
      <g>
       <use style="stroke:#000000;stroke-linecap:butt;stroke-width:0.5;" x="518.4" xlink:href="#m0d5b0a6425" y="273.6"/>
      </g>
     </g>
     <g id="text_12">
      <!-- 20 -->
      <g transform="translate(54.40625 277.9678125)scale(0.12 -0.12)">
       <use xlink:href="#DejaVuSans-32"/>
       <use x="63.623046875" xlink:href="#DejaVuSans-30"/>
      </g>
     </g>
    </g>
    <g id="ytick_4">
     <g id="line2d_40">
      <path clip-path="url(#p7ff5b81e1d)" d="
M72 216
L518.4 216" style="fill:none;stroke:#000000;stroke-dasharray:1.000000,3.000000;stroke-dashoffset:0.0;stroke-linecap:butt;stroke-width:0.5;"/>
     </g>
     <g id="line2d_41">
      <g>
       <use style="stroke:#000000;stroke-linecap:butt;stroke-width:0.5;" x="72.0" xlink:href="#mc8fcea1516" y="216.0"/>
      </g>
     </g>
     <g id="line2d_42">
      <g>
       <use style="stroke:#000000;stroke-linecap:butt;stroke-width:0.5;" x="518.4" xlink:href="#m0d5b0a6425" y="216.0"/>
      </g>
     </g>
     <g id="text_13">
      <!-- 30 -->
      <g transform="translate(54.441875 220.3678125)scale(0.12 -0.12)">
       <use xlink:href="#DejaVuSans-33"/>
       <use x="63.623046875" xlink:href="#DejaVuSans-30"/>
      </g>
     </g>
    </g>
    <g id="ytick_5">
     <g id="line2d_43">
      <path clip-path="url(#p7ff5b81e1d)" d="
M72 158.4
L518.4 158.4" style="fill:none;stroke:#000000;stroke-dasharray:1.000000,3.000000;stroke-dashoffset:0.0;stroke-linecap:butt;stroke-width:0.5;"/>
     </g>
     <g id="line2d_44">
      <g>
       <use style="stroke:#000000;stroke-linecap:butt;stroke-width:0.5;" x="72.0" xlink:href="#mc8fcea1516" y="158.4"/>
      </g>
     </g>
     <g id="line2d_45">
      <g>
       <use style="stroke:#000000;stroke-linecap:butt;stroke-width:0.5;" x="518.4" xlink:href="#m0d5b0a6425" y="158.4"/>
      </g>
     </g>
     <g id="text_14">
      <!-- 40 -->
      <g transform="translate(54.11375 162.7678125)scale(0.12 -0.12)">
       <use xlink:href="#DejaVuSans-34"/>
       <use x="63.623046875" xlink:href="#DejaVuSans-30"/>
      </g>
     </g>
    </g>
    <g id="ytick_6">
     <g id="line2d_46">
      <path clip-path="url(#p7ff5b81e1d)" d="
M72 100.8
L518.4 100.8" style="fill:none;stroke:#000000;stroke-dasharray:1.000000,3.000000;stroke-dashoffset:0.0;stroke-linecap:butt;stroke-width:0.5;"/>
     </g>
     <g id="line2d_47">
      <g>
       <use style="stroke:#000000;stroke-linecap:butt;stroke-width:0.5;" x="72.0" xlink:href="#mc8fcea1516" y="100.8"/>
      </g>
     </g>
     <g id="line2d_48">
      <g>
       <use style="stroke:#000000;stroke-linecap:butt;stroke-width:0.5;" x="518.4" xlink:href="#m0d5b0a6425" y="100.8"/>
      </g>
     </g>
     <g id="text_15">
      <!-- 50 -->
      <defs>
       <path d="
M10.7969 72.9062
L49.5156 72.9062
L49.5156 64.5938
L19.8281 64.5938
L19.8281 46.7344
Q21.9688 47.4688 24.1094 47.8281
Q26.2656 48.1875 28.4219 48.1875
Q40.625 48.1875 47.75 41.5
Q54.8906 34.8125 54.8906 23.3906
Q54.8906 11.625 47.5625 5.09375
Q40.2344 -1.42188 26.9062 -1.42188
Q22.3125 -1.42188 17.5469 -0.640625
Q12.7969 0.140625 7.71875 1.70312
L7.71875 11.625
Q12.1094 9.23438 16.7969 8.0625
Q21.4844 6.89062 26.7031 6.89062
Q35.1562 6.89062 40.0781 11.3281
Q45.0156 15.7656 45.0156 23.3906
Q45.0156 31 40.0781 35.4375
Q35.1562 39.8906 26.7031 39.8906
Q22.75 39.8906 18.8125 39.0156
Q14.8906 38.1406 10.7969 36.2812
z
" id="DejaVuSans-35"/>
      </defs>
      <g transform="translate(54.453125 105.1678125)scale(0.12 -0.12)">
       <use xlink:href="#DejaVuSans-35"/>
       <use x="63.623046875" xlink:href="#DejaVuSans-30"/>
      </g>
     </g>
    </g>
    <g id="ytick_7">
     <g id="line2d_49">
      <path clip-path="url(#p7ff5b81e1d)" d="
M72 43.2
L518.4 43.2" style="fill:none;stroke:#000000;stroke-dasharray:1.000000,3.000000;stroke-dashoffset:0.0;stroke-linecap:butt;stroke-width:0.5;"/>
     </g>
     <g id="line2d_50">
      <g>
       <use style="stroke:#000000;stroke-linecap:butt;stroke-width:0.5;" x="72.0" xlink:href="#mc8fcea1516" y="43.2"/>
      </g>
     </g>
     <g id="line2d_51">
      <g>
       <use style="stroke:#000000;stroke-linecap:butt;stroke-width:0.5;" x="518.4" xlink:href="#m0d5b0a6425" y="43.2"/>
      </g>
     </g>
     <g id="text_16">
      <!-- 60 -->
      <g transform="translate(54.365 47.5678125)scale(0.12 -0.12)">
       <use xlink:href="#DejaVuSans-36"/>
       <use x="63.623046875" xlink:href="#DejaVuSans-30"/>
      </g>
     </g>
    </g>
   </g>
   <g id="patch_3">
    <path d="
M72 43.2
L518.4 43.2" style="fill:none;stroke:#000000;"/>
   </g>
   <g id="patch_4">
    <path d="
M518.4 388.8
L518.4 43.2" style="fill:none;stroke:#000000;"/>
   </g>
   <g id="patch_5">
    <path d="
M72 388.8
L518.4 388.8" style="fill:none;stroke:#000000;"/>
   </g>
   <g id="patch_6">
    <path d="
M72 388.8
L72 43.2" style="fill:none;stroke:#000000;"/>
   </g>
   <g id="text_17">
    <!--  -->
    <g transform="translate(295.2 -22.6589)scale(0.144 -0.144)"/>
    <!-- model: (10, 10) - ../data/csv/19-05/wholesale-daily-('Uttar Pradesh', 'Bareilly', 'Onion', 'Red', 0.91).csv,  -->
    <defs>
     <path d="
M19.6719 64.7969
L19.6719 37.4062
L32.0781 37.4062
Q38.9688 37.4062 42.7188 40.9688
Q46.4844 44.5312 46.4844 51.125
Q46.4844 57.6719 42.7188 61.2344
Q38.9688 64.7969 32.0781 64.7969
z

M9.8125 72.9062
L32.0781 72.9062
Q44.3438 72.9062 50.6094 67.3594
Q56.8906 61.8125 56.8906 51.125
Q56.8906 40.3281 50.6094 34.8125
Q44.3438 29.2969 32.0781 29.2969
L19.6719 29.2969
L19.6719 0
L9.8125 0
z
" id="DejaVuSans-50"/>
     <path d="
M11.7188 12.4062
L22.0156 12.4062
L22.0156 0
L11.7188 0
z

M11.7188 51.7031
L22.0156 51.7031
L22.0156 39.3125
L11.7188 39.3125
z
" id="DejaVuSans-3a"/>
     <path id="DejaVuSans-20"/>
     <path d="
M17.9219 72.9062
L17.9219 45.7969
L9.625 45.7969
L9.625 72.9062
z
" id="DejaVuSans-27"/>
     <path d="
M54.8906 33.0156
L54.8906 0
L45.9062 0
L45.9062 32.7188
Q45.9062 40.4844 42.875 44.3281
Q39.8438 48.1875 33.7969 48.1875
Q26.5156 48.1875 22.3125 43.5469
Q18.1094 38.9219 18.1094 30.9062
L18.1094 0
L9.07812 0
L9.07812 75.9844
L18.1094 75.9844
L18.1094 46.1875
Q21.3438 51.125 25.7031 53.5625
Q30.0781 56 35.7969 56
Q45.2188 56 50.0469 50.1719
Q54.8906 44.3438 54.8906 33.0156" id="DejaVuSans-68"/>
     <path d="
M9.42188 54.6875
L18.4062 54.6875
L18.4062 0
L9.42188 0
z

M9.42188 75.9844
L18.4062 75.9844
L18.4062 64.5938
L9.42188 64.5938
z
" id="DejaVuSans-69"/>
     <path d="
M45.4062 46.3906
L45.4062 75.9844
L54.3906 75.9844
L54.3906 0
L45.4062 0
L45.4062 8.20312
Q42.5781 3.32812 38.25 0.953125
Q33.9375 -1.42188 27.875 -1.42188
Q17.9688 -1.42188 11.7344 6.48438
Q5.51562 14.4062 5.51562 27.2969
Q5.51562 40.1875 11.7344 48.0938
Q17.9688 56 27.875 56
Q33.9375 56 38.25 53.625
Q42.5781 51.2656 45.4062 46.3906
M14.7969 27.2969
Q14.7969 17.3906 18.875 11.75
Q22.9531 6.10938 30.0781 6.10938
Q37.2031 6.10938 41.2969 11.75
Q45.4062 17.3906 45.4062 27.2969
Q45.4062 37.2031 41.2969 42.8438
Q37.2031 48.4844 30.0781 48.4844
Q22.9531 48.4844 18.875 42.8438
Q14.7969 37.2031 14.7969 27.2969" id="DejaVuSans-64"/>
     <path d="
M8.01562 75.875
L15.8281 75.875
Q23.1406 64.3594 26.7812 53.3125
Q30.4219 42.2812 30.4219 31.3906
Q30.4219 20.4531 26.7812 9.375
Q23.1406 -1.70312 15.8281 -13.1875
L8.01562 -13.1875
Q14.5 -2 17.7031 9.0625
Q20.9062 20.125 20.9062 31.3906
Q20.9062 42.6719 17.7031 53.6562
Q14.5 64.6562 8.01562 75.875" id="DejaVuSans-29"/>
     <path d="
M48.7812 52.5938
L48.7812 44.1875
Q44.9688 46.2969 41.1406 47.3438
Q37.3125 48.3906 33.4062 48.3906
Q24.6562 48.3906 19.8125 42.8438
Q14.9844 37.3125 14.9844 27.2969
Q14.9844 17.2812 19.8125 11.7344
Q24.6562 6.20312 33.4062 6.20312
Q37.3125 6.20312 41.1406 7.25
Q44.9688 8.29688 48.7812 10.4062
L48.7812 2.09375
Q45.0156 0.34375 40.9844 -0.53125
Q36.9688 -1.42188 32.4219 -1.42188
Q20.0625 -1.42188 12.7812 6.34375
Q5.51562 14.1094 5.51562 27.2969
Q5.51562 40.6719 12.8594 48.3281
Q20.2188 56 33.0156 56
Q37.1562 56 41.1094 55.1406
Q45.0625 54.2969 48.7812 52.5938" id="DejaVuSans-63"/>
     <path d="
M34.2812 27.4844
Q23.3906 27.4844 19.1875 25
Q14.9844 22.5156 14.9844 16.5
Q14.9844 11.7188 18.1406 8.90625
Q21.2969 6.10938 26.7031 6.10938
Q34.1875 6.10938 38.7031 11.4062
Q43.2188 16.7031 43.2188 25.4844
L43.2188 27.4844
z

M52.2031 31.2031
L52.2031 0
L43.2188 0
L43.2188 8.29688
Q40.1406 3.32812 35.5469 0.953125
Q30.9531 -1.42188 24.3125 -1.42188
Q15.9219 -1.42188 10.9531 3.29688
Q6 8.01562 6 15.9219
Q6 25.1406 12.1719 29.8281
Q18.3594 34.5156 30.6094 34.5156
L43.2188 34.5156
L43.2188 35.4062
Q43.2188 41.6094 39.1406 45
Q35.0625 48.3906 27.6875 48.3906
Q23 48.3906 18.5469 47.2656
Q14.1094 46.1406 10.0156 43.8906
L10.0156 52.2031
Q14.9375 54.1094 19.5781 55.0469
Q24.2188 56 28.6094 56
Q40.4844 56 46.3438 49.8438
Q52.2031 43.7031 52.2031 31.2031" id="DejaVuSans-61"/>
     <path d="
M19.6719 34.8125
L19.6719 8.10938
L35.5 8.10938
Q43.4531 8.10938 47.2812 11.4062
Q51.125 14.7031 51.125 21.4844
Q51.125 28.3281 47.2812 31.5625
Q43.4531 34.8125 35.5 34.8125
z

M19.6719 64.7969
L19.6719 42.8281
L34.2812 42.8281
Q41.5 42.8281 45.0312 45.5312
Q48.5781 48.25 48.5781 53.8125
Q48.5781 59.3281 45.0312 62.0625
Q41.5 64.7969 34.2812 64.7969
z

M9.8125 72.9062
L35.0156 72.9062
Q46.2969 72.9062 52.3906 68.2188
Q58.5 63.5312 58.5 54.8906
Q58.5 48.1875 55.375 44.2344
Q52.25 40.2812 46.1875 39.3125
Q53.4688 37.75 57.5 32.7812
Q61.5312 27.8281 61.5312 20.4062
Q61.5312 10.6406 54.8906 5.3125
Q48.25 0 35.9844 0
L9.8125 0
z
" id="DejaVuSans-42"/>
     <path d="
M44.3906 34.1875
Q47.5625 33.1094 50.5625 29.5938
Q53.5625 26.0781 56.5938 19.9219
L66.6094 0
L56 0
L46.6875 18.7031
Q43.0625 26.0312 39.6719 28.4219
Q36.2812 30.8125 30.4219 30.8125
L19.6719 30.8125
L19.6719 0
L9.8125 0
L9.8125 72.9062
L32.0781 72.9062
Q44.5781 72.9062 50.7344 67.6719
Q56.8906 62.4531 56.8906 51.9062
Q56.8906 45.0156 53.6875 40.4688
Q50.4844 35.9375 44.3906 34.1875
M19.6719 64.7969
L19.6719 38.9219
L32.0781 38.9219
Q39.2031 38.9219 42.8438 42.2188
Q46.4844 45.5156 46.4844 51.9062
Q46.4844 58.2969 42.8438 61.5469
Q39.2031 64.7969 32.0781 64.7969
z
" id="DejaVuSans-52"/>
     <path d="
M31 75.875
Q24.4688 64.6562 21.2812 53.6562
Q18.1094 42.6719 18.1094 31.3906
Q18.1094 20.125 21.3125 9.0625
Q24.5156 -2 31 -13.1875
L23.1875 -13.1875
Q15.875 -1.70312 12.2344 9.375
Q8.59375 20.4531 8.59375 31.3906
Q8.59375 42.2812 12.2031 53.3125
Q15.8281 64.3594 23.1875 75.875
z
" id="DejaVuSans-28"/>
     <path d="
M11.7188 12.4062
L22.0156 12.4062
L22.0156 4
L14.0156 -11.625
L7.71875 -11.625
L11.7188 4
z
" id="DejaVuSans-2c"/>
     <path d="
M39.4062 66.2188
Q28.6562 66.2188 22.3281 58.2031
Q16.0156 50.2031 16.0156 36.375
Q16.0156 22.6094 22.3281 14.5938
Q28.6562 6.59375 39.4062 6.59375
Q50.1406 6.59375 56.4219 14.5938
Q62.7031 22.6094 62.7031 36.375
Q62.7031 50.2031 56.4219 58.2031
Q50.1406 66.2188 39.4062 66.2188
M39.4062 74.2188
Q54.7344 74.2188 63.9062 63.9375
Q73.0938 53.6562 73.0938 36.375
Q73.0938 19.1406 63.9062 8.85938
Q54.7344 -1.42188 39.4062 -1.42188
Q24.0312 -1.42188 14.8125 8.82812
Q5.60938 19.0938 5.60938 36.375
Q5.60938 53.6562 14.8125 63.9375
Q24.0312 74.2188 39.4062 74.2188" id="DejaVuSans-4f"/>
     <path d="
M56.2031 29.5938
L56.2031 25.2031
L14.8906 25.2031
Q15.4844 15.9219 20.4844 11.0625
Q25.4844 6.20312 34.4219 6.20312
Q39.5938 6.20312 44.4531 7.46875
Q49.3125 8.73438 54.1094 11.2812
L54.1094 2.78125
Q49.2656 0.734375 44.1875 -0.34375
Q39.1094 -1.42188 33.8906 -1.42188
Q20.7969 -1.42188 13.1562 6.1875
Q5.51562 13.8125 5.51562 26.8125
Q5.51562 40.2344 12.7656 48.1094
Q20.0156 56 32.3281 56
Q43.3594 56 49.7812 48.8906
Q56.2031 41.7969 56.2031 29.5938
M47.2188 32.2344
Q47.125 39.5938 43.0938 43.9844
Q39.0625 48.3906 32.4219 48.3906
Q24.9062 48.3906 20.3906 44.1406
Q15.875 39.8906 15.1875 32.1719
z
" id="DejaVuSans-65"/>
     <path d="
M25.3906 72.9062
L33.6875 72.9062
L8.29688 -9.28125
L0 -9.28125
z
" id="DejaVuSans-2f"/>
     <path d="
M4.89062 31.3906
L31.2031 31.3906
L31.2031 23.3906
L4.89062 23.3906
z
" id="DejaVuSans-2d"/>
     <path d="
M10.6875 12.4062
L21 12.4062
L21 0
L10.6875 0
z
" id="DejaVuSans-2e"/>
     <path d="
M30.6094 48.3906
Q23.3906 48.3906 19.1875 42.75
Q14.9844 37.1094 14.9844 27.2969
Q14.9844 17.4844 19.1562 11.8438
Q23.3438 6.20312 30.6094 6.20312
Q37.7969 6.20312 41.9844 11.8594
Q46.1875 17.5312 46.1875 27.2969
Q46.1875 37.0156 41.9844 42.7031
Q37.7969 48.3906 30.6094 48.3906
M30.6094 56
Q42.3281 56 49.0156 48.375
Q55.7188 40.7656 55.7188 27.2969
Q55.7188 13.875 49.0156 6.21875
Q42.3281 -1.42188 30.6094 -1.42188
Q18.8438 -1.42188 12.1719 6.21875
Q5.51562 13.875 5.51562 27.2969
Q5.51562 40.7656 12.1719 48.375
Q18.8438 56 30.6094 56" id="DejaVuSans-6f"/>
     <path d="
M52 44.1875
Q55.375 50.25 60.0625 53.125
Q64.75 56 71.0938 56
Q79.6406 56 84.2812 50.0156
Q88.9219 44.0469 88.9219 33.0156
L88.9219 0
L79.8906 0
L79.8906 32.7188
Q79.8906 40.5781 77.0938 44.375
Q74.3125 48.1875 68.6094 48.1875
Q61.625 48.1875 57.5625 43.5469
Q53.5156 38.9219 53.5156 30.9062
L53.5156 0
L44.4844 0
L44.4844 32.7188
Q44.4844 40.625 41.7031 44.4062
Q38.9219 48.1875 33.1094 48.1875
Q26.2188 48.1875 22.1562 43.5312
Q18.1094 38.875 18.1094 30.9062
L18.1094 0
L9.07812 0
L9.07812 54.6875
L18.1094 54.6875
L18.1094 46.1875
Q21.1875 51.2188 25.4844 53.6094
Q29.7812 56 35.6875 56
Q41.6562 56 45.8281 52.9688
Q50 49.9531 52 44.1875" id="DejaVuSans-6d"/>
     <path d="
M54.8906 33.0156
L54.8906 0
L45.9062 0
L45.9062 32.7188
Q45.9062 40.4844 42.875 44.3281
Q39.8438 48.1875 33.7969 48.1875
Q26.5156 48.1875 22.3125 43.5469
Q18.1094 38.9219 18.1094 30.9062
L18.1094 0
L9.07812 0
L9.07812 54.6875
L18.1094 54.6875
L18.1094 46.1875
Q21.3438 51.125 25.7031 53.5625
Q30.0781 56 35.7969 56
Q45.2188 56 50.0469 50.1719
Q54.8906 44.3438 54.8906 33.0156" id="DejaVuSans-6e"/>
     <path d="
M9.42188 75.9844
L18.4062 75.9844
L18.4062 0
L9.42188 0
z
" id="DejaVuSans-6c"/>
     <path d="
M32.1719 -5.07812
Q28.375 -14.8438 24.75 -17.8125
Q21.1406 -20.7969 15.0938 -20.7969
L7.90625 -20.7969
L7.90625 -13.2812
L13.1875 -13.2812
Q16.8906 -13.2812 18.9375 -11.5156
Q21 -9.76562 23.4844 -3.21875
L25.0938 0.875
L2.98438 54.6875
L12.5 54.6875
L29.5938 11.9219
L46.6875 54.6875
L56.2031 54.6875
z
" id="DejaVuSans-79"/>
     <path d="
M8.6875 72.9062
L18.6094 72.9062
L18.6094 28.6094
Q18.6094 16.8906 22.8438 11.7344
Q27.0938 6.59375 36.625 6.59375
Q46.0938 6.59375 50.3438 11.7344
Q54.5938 16.8906 54.5938 28.6094
L54.5938 72.9062
L64.5 72.9062
L64.5 27.3906
Q64.5 13.1406 57.4375 5.85938
Q50.3906 -1.42188 36.625 -1.42188
Q22.7969 -1.42188 15.7344 5.85938
Q8.6875 13.1406 8.6875 27.3906
z
" id="DejaVuSans-55"/>
     <path d="
M18.3125 70.2188
L18.3125 54.6875
L36.8125 54.6875
L36.8125 47.7031
L18.3125 47.7031
L18.3125 18.0156
Q18.3125 11.3281 20.1406 9.42188
Q21.9688 7.51562 27.5938 7.51562
L36.8125 7.51562
L36.8125 0
L27.5938 0
Q17.1875 0 13.2344 3.875
Q9.28125 7.76562 9.28125 18.0156
L9.28125 47.7031
L2.6875 47.7031
L2.6875 54.6875
L9.28125 54.6875
L9.28125 70.2188
z
" id="DejaVuSans-74"/>
     <path d="
M4.20312 54.6875
L13.1875 54.6875
L24.4219 12.0156
L35.5938 54.6875
L46.1875 54.6875
L57.4219 12.0156
L68.6094 54.6875
L77.5938 54.6875
L63.2812 0
L52.6875 0
L40.9219 44.8281
L29.1094 0
L18.5 0
z
" id="DejaVuSans-77"/>
     <path d="
M2.98438 54.6875
L12.5 54.6875
L29.5938 8.79688
L46.6875 54.6875
L56.2031 54.6875
L35.6875 0
L23.4844 0
z
" id="DejaVuSans-76"/>
     <path d="
M44.2812 53.0781
L44.2812 44.5781
Q40.4844 46.5312 36.375 47.5
Q32.2812 48.4844 27.875 48.4844
Q21.1875 48.4844 17.8438 46.4375
Q14.5 44.3906 14.5 40.2812
Q14.5 37.1562 16.8906 35.375
Q19.2812 33.5938 26.5156 31.9844
L29.5938 31.2969
Q39.1562 29.25 43.1875 25.5156
Q47.2188 21.7812 47.2188 15.0938
Q47.2188 7.46875 41.1875 3.01562
Q35.1562 -1.42188 24.6094 -1.42188
Q20.2188 -1.42188 15.4531 -0.5625
Q10.6875 0.296875 5.42188 2
L5.42188 11.2812
Q10.4062 8.6875 15.2344 7.39062
Q20.0625 6.10938 24.8125 6.10938
Q31.1562 6.10938 34.5625 8.28125
Q37.9844 10.4531 37.9844 14.4062
Q37.9844 18.0625 35.5156 20.0156
Q33.0625 21.9688 24.7031 23.7812
L21.5781 24.5156
Q13.2344 26.2656 9.51562 29.9062
Q5.8125 33.5469 5.8125 39.8906
Q5.8125 47.6094 11.2812 51.7969
Q16.75 56 26.8125 56
Q31.7812 56 36.1719 55.2656
Q40.5781 54.5469 44.2812 53.0781" id="DejaVuSans-73"/>
     <path d="
M41.1094 46.2969
Q39.5938 47.1719 37.8125 47.5781
Q36.0312 48 33.8906 48
Q26.2656 48 22.1875 43.0469
Q18.1094 38.0938 18.1094 28.8125
L18.1094 0
L9.07812 0
L9.07812 54.6875
L18.1094 54.6875
L18.1094 46.1875
Q20.9531 51.1719 25.4844 53.5781
Q30.0312 56 36.5312 56
Q37.4531 56 38.5781 55.875
Q39.7031 55.7656 41.0625 55.5156
z
" id="DejaVuSans-72"/>
    </defs>
    <g transform="translate(-72.041625 -5.9351)scale(0.144 -0.144)">
     <use xlink:href="#DejaVuSans-6d"/>
     <use x="97.412109375" xlink:href="#DejaVuSans-6f"/>
     <use x="158.59375" xlink:href="#DejaVuSans-64"/>
     <use x="222.0703125" xlink:href="#DejaVuSans-65"/>
     <use x="283.59375" xlink:href="#DejaVuSans-6c"/>
     <use x="311.376953125" xlink:href="#DejaVuSans-3a"/>
     <use x="345.068359375" xlink:href="#DejaVuSans-20"/>
     <use x="376.85546875" xlink:href="#DejaVuSans-28"/>
     <use x="415.869140625" xlink:href="#DejaVuSans-31"/>
     <use x="479.4921875" xlink:href="#DejaVuSans-30"/>
     <use x="543.115234375" xlink:href="#DejaVuSans-2c"/>
     <use x="574.90234375" xlink:href="#DejaVuSans-20"/>
     <use x="606.689453125" xlink:href="#DejaVuSans-31"/>
     <use x="670.3125" xlink:href="#DejaVuSans-30"/>
     <use x="733.935546875" xlink:href="#DejaVuSans-29"/>
     <use x="772.94921875" xlink:href="#DejaVuSans-20"/>
     <use x="804.736328125" xlink:href="#DejaVuSans-2d"/>
     <use x="840.8203125" xlink:href="#DejaVuSans-20"/>
     <use x="872.607421875" xlink:href="#DejaVuSans-2e"/>
     <use x="904.39453125" xlink:href="#DejaVuSans-2e"/>
     <use x="936.181640625" xlink:href="#DejaVuSans-2f"/>
     <use x="969.873046875" xlink:href="#DejaVuSans-64"/>
     <use x="1033.34960938" xlink:href="#DejaVuSans-61"/>
     <use x="1094.62890625" xlink:href="#DejaVuSans-74"/>
     <use x="1133.83789062" xlink:href="#DejaVuSans-61"/>
     <use x="1195.1171875" xlink:href="#DejaVuSans-2f"/>
     <use x="1228.80859375" xlink:href="#DejaVuSans-63"/>
     <use x="1283.7890625" xlink:href="#DejaVuSans-73"/>
     <use x="1335.88867188" xlink:href="#DejaVuSans-76"/>
     <use x="1395.06835938" xlink:href="#DejaVuSans-2f"/>
     <use x="1428.75976562" xlink:href="#DejaVuSans-31"/>
     <use x="1492.3828125" xlink:href="#DejaVuSans-39"/>
     <use x="1556.00585938" xlink:href="#DejaVuSans-2d"/>
     <use x="1592.08984375" xlink:href="#DejaVuSans-30"/>
     <use x="1655.71289062" xlink:href="#DejaVuSans-35"/>
     <use x="1719.3359375" xlink:href="#DejaVuSans-2f"/>
     <use x="1753.02734375" xlink:href="#DejaVuSans-77"/>
     <use x="1834.81445312" xlink:href="#DejaVuSans-68"/>
     <use x="1898.19335938" xlink:href="#DejaVuSans-6f"/>
     <use x="1959.375" xlink:href="#DejaVuSans-6c"/>
     <use x="1987.15820312" xlink:href="#DejaVuSans-65"/>
     <use x="2048.68164062" xlink:href="#DejaVuSans-73"/>
     <use x="2100.78125" xlink:href="#DejaVuSans-61"/>
     <use x="2162.06054688" xlink:href="#DejaVuSans-6c"/>
     <use x="2189.84375" xlink:href="#DejaVuSans-65"/>
     <use x="2251.3671875" xlink:href="#DejaVuSans-2d"/>
     <use x="2287.45117188" xlink:href="#DejaVuSans-64"/>
     <use x="2350.92773438" xlink:href="#DejaVuSans-61"/>
     <use x="2412.20703125" xlink:href="#DejaVuSans-69"/>
     <use x="2439.99023438" xlink:href="#DejaVuSans-6c"/>
     <use x="2467.7734375" xlink:href="#DejaVuSans-79"/>
     <use x="2525.203125" xlink:href="#DejaVuSans-2d"/>
     <use x="2561.28710938" xlink:href="#DejaVuSans-28"/>
     <use x="2600.30078125" xlink:href="#DejaVuSans-27"/>
     <use x="2627.79101562" xlink:href="#DejaVuSans-55"/>
     <use x="2700.984375" xlink:href="#DejaVuSans-74"/>
     <use x="2740.19335938" xlink:href="#DejaVuSans-74"/>
     <use x="2779.40234375" xlink:href="#DejaVuSans-61"/>
     <use x="2840.68164062" xlink:href="#DejaVuSans-72"/>
     <use x="2881.79492188" xlink:href="#DejaVuSans-20"/>
     <use x="2913.58203125" xlink:href="#DejaVuSans-50"/>
     <use x="2972.13476562" xlink:href="#DejaVuSans-72"/>
     <use x="3013.24804688" xlink:href="#DejaVuSans-61"/>
     <use x="3074.52734375" xlink:href="#DejaVuSans-64"/>
     <use x="3138.00390625" xlink:href="#DejaVuSans-65"/>
     <use x="3199.52734375" xlink:href="#DejaVuSans-73"/>
     <use x="3251.62695312" xlink:href="#DejaVuSans-68"/>
     <use x="3315.00585938" xlink:href="#DejaVuSans-27"/>
     <use x="3342.49609375" xlink:href="#DejaVuSans-2c"/>
     <use x="3374.28320312" xlink:href="#DejaVuSans-20"/>
     <use x="3406.0703125" xlink:href="#DejaVuSans-27"/>
     <use x="3433.56054688" xlink:href="#DejaVuSans-42"/>
     <use x="3502.1640625" xlink:href="#DejaVuSans-61"/>
     <use x="3563.44335938" xlink:href="#DejaVuSans-72"/>
     <use x="3602.30664062" xlink:href="#DejaVuSans-65"/>
     <use x="3663.83007812" xlink:href="#DejaVuSans-69"/>
     <use x="3691.61328125" xlink:href="#DejaVuSans-6c"/>
     <use x="3719.39648438" xlink:href="#DejaVuSans-6c"/>
     <use x="3747.1796875" xlink:href="#DejaVuSans-79"/>
     <use x="3806.359375" xlink:href="#DejaVuSans-27"/>
     <use x="3833.84960938" xlink:href="#DejaVuSans-2c"/>
     <use x="3865.63671875" xlink:href="#DejaVuSans-20"/>
     <use x="3897.42382812" xlink:href="#DejaVuSans-27"/>
     <use x="3924.9140625" xlink:href="#DejaVuSans-4f"/>
     <use x="4003.625" xlink:href="#DejaVuSans-6e"/>
     <use x="4067.00390625" xlink:href="#DejaVuSans-69"/>
     <use x="4094.78710938" xlink:href="#DejaVuSans-6f"/>
     <use x="4155.96875" xlink:href="#DejaVuSans-6e"/>
     <use x="4219.34765625" xlink:href="#DejaVuSans-27"/>
     <use x="4246.83789062" xlink:href="#DejaVuSans-2c"/>
     <use x="4278.625" xlink:href="#DejaVuSans-20"/>
     <use x="4310.41210938" xlink:href="#DejaVuSans-27"/>
     <use x="4337.90234375" xlink:href="#DejaVuSans-52"/>
     <use x="4402.88476562" xlink:href="#DejaVuSans-65"/>
     <use x="4464.40820312" xlink:href="#DejaVuSans-64"/>
     <use x="4527.88476562" xlink:href="#DejaVuSans-27"/>
     <use x="4555.375" xlink:href="#DejaVuSans-2c"/>
     <use x="4587.16210938" xlink:href="#DejaVuSans-20"/>
     <use x="4618.94921875" xlink:href="#DejaVuSans-30"/>
     <use x="4682.57226562" xlink:href="#DejaVuSans-2e"/>
     <use x="4714.359375" xlink:href="#DejaVuSans-39"/>
     <use x="4777.98242188" xlink:href="#DejaVuSans-31"/>
     <use x="4841.60546875" xlink:href="#DejaVuSans-29"/>
     <use x="4880.61914062" xlink:href="#DejaVuSans-2e"/>
     <use x="4912.40625" xlink:href="#DejaVuSans-63"/>
     <use x="4967.38671875" xlink:href="#DejaVuSans-73"/>
     <use x="5019.48632812" xlink:href="#DejaVuSans-76"/>
     <use x="5078.66601562" xlink:href="#DejaVuSans-2c"/>
     <use x="5110.453125" xlink:href="#DejaVuSans-20"/>
    </g>
    <!-- epoch: 121 -->
    <defs>
     <path d="
M18.1094 8.20312
L18.1094 -20.7969
L9.07812 -20.7969
L9.07812 54.6875
L18.1094 54.6875
L18.1094 46.3906
Q20.9531 51.2656 25.2656 53.625
Q29.5938 56 35.5938 56
Q45.5625 56 51.7812 48.0938
Q58.0156 40.1875 58.0156 27.2969
Q58.0156 14.4062 51.7812 6.48438
Q45.5625 -1.42188 35.5938 -1.42188
Q29.5938 -1.42188 25.2656 0.953125
Q20.9531 3.32812 18.1094 8.20312
M48.6875 27.2969
Q48.6875 37.2031 44.6094 42.8438
Q40.5312 48.4844 33.4062 48.4844
Q26.2656 48.4844 22.1875 42.8438
Q18.1094 37.2031 18.1094 27.2969
Q18.1094 17.3906 22.1875 11.75
Q26.2656 6.10938 33.4062 6.10938
Q40.5312 6.10938 44.6094 11.75
Q48.6875 17.3906 48.6875 27.2969" id="DejaVuSans-70"/>
    </defs>
    <g transform="translate(255.479625 10.7887)scale(0.144 -0.144)">
     <use xlink:href="#DejaVuSans-65"/>
     <use x="61.5234375" xlink:href="#DejaVuSans-70"/>
     <use x="125.0" xlink:href="#DejaVuSans-6f"/>
     <use x="186.181640625" xlink:href="#DejaVuSans-63"/>
     <use x="241.162109375" xlink:href="#DejaVuSans-68"/>
     <use x="304.541015625" xlink:href="#DejaVuSans-3a"/>
     <use x="338.232421875" xlink:href="#DejaVuSans-20"/>
     <use x="370.01953125" xlink:href="#DejaVuSans-31"/>
     <use x="433.642578125" xlink:href="#DejaVuSans-32"/>
     <use x="497.265625" xlink:href="#DejaVuSans-31"/>
    </g>
    <!-- test err: 0.0407 -->
    <g transform="translate(239.695875 27.5125)scale(0.144 -0.144)">
     <use xlink:href="#DejaVuSans-74"/>
     <use x="39.208984375" xlink:href="#DejaVuSans-65"/>
     <use x="100.732421875" xlink:href="#DejaVuSans-73"/>
     <use x="152.83203125" xlink:href="#DejaVuSans-74"/>
     <use x="192.041015625" xlink:href="#DejaVuSans-20"/>
     <use x="223.828125" xlink:href="#DejaVuSans-65"/>
     <use x="285.3515625" xlink:href="#DejaVuSans-72"/>
     <use x="324.71484375" xlink:href="#DejaVuSans-72"/>
     <use x="364.078125" xlink:href="#DejaVuSans-3a"/>
     <use x="397.76953125" xlink:href="#DejaVuSans-20"/>
     <use x="429.556640625" xlink:href="#DejaVuSans-30"/>
     <use x="493.1796875" xlink:href="#DejaVuSans-2e"/>
     <use x="524.966796875" xlink:href="#DejaVuSans-30"/>
     <use x="588.58984375" xlink:href="#DejaVuSans-34"/>
     <use x="652.212890625" xlink:href="#DejaVuSans-30"/>
     <use x="715.8359375" xlink:href="#DejaVuSans-37"/>
    </g>
   </g>
   <g id="legend_1">
    <g id="patch_7">
     <path d="
M79.2 115.339
L162.947 115.339
L162.947 50.4
L79.2 50.4
L79.2 115.339
z
" style="fill:#ffffff;stroke:#000000;"/>
    </g>
    <g id="line2d_52">
     <path d="
M89.28 62.0617
L109.44 62.0617" style="fill:none;stroke:#008000;"/>
    </g>
    <g id="line2d_53"/>
    <g id="text_18">
     <!-- pred -->
     <g transform="translate(125.28 67.10175)scale(0.144 -0.144)">
      <use xlink:href="#DejaVuSans-70"/>
      <use x="63.4765625" xlink:href="#DejaVuSans-72"/>
      <use x="102.33984375" xlink:href="#DejaVuSans-65"/>
      <use x="163.86328125" xlink:href="#DejaVuSans-64"/>
     </g>
    </g>
    <g id="line2d_54">
     <path d="
M89.28 83.1983
L109.44 83.1983" style="fill:none;stroke:#0000ff;"/>
    </g>
    <g id="line2d_55"/>
    <g id="text_19">
     <!-- train -->
     <g transform="translate(125.28 88.23825)scale(0.144 -0.144)">
      <use xlink:href="#DejaVuSans-74"/>
      <use x="39.208984375" xlink:href="#DejaVuSans-72"/>
      <use x="80.322265625" xlink:href="#DejaVuSans-61"/>
      <use x="141.6015625" xlink:href="#DejaVuSans-69"/>
      <use x="169.384765625" xlink:href="#DejaVuSans-6e"/>
     </g>
    </g>
    <g id="line2d_56">
     <path d="
M89.28 104.335
L109.44 104.335" style="fill:none;stroke:#ff0000;"/>
    </g>
    <g id="line2d_57"/>
    <g id="text_20">
     <!-- test -->
     <g transform="translate(125.28 109.37475)scale(0.144 -0.144)">
      <use xlink:href="#DejaVuSans-74"/>
      <use x="39.208984375" xlink:href="#DejaVuSans-65"/>
      <use x="100.732421875" xlink:href="#DejaVuSans-73"/>
      <use x="152.83203125" xlink:href="#DejaVuSans-74"/>
     </g>
    </g>
   </g>
  </g>
 </g>
 <defs>
  <clipPath id="p7ff5b81e1d">
   <rect height="345.6" width="446.4" x="72.0" y="43.2"/>
  </clipPath>
 </defs>
</svg>
