<?xml version="1.0" encoding="utf-8" standalone="no"?>
<!DOCTYPE svg PUBLIC "-//W3C//DTD SVG 1.1//EN"
  "http://www.w3.org/Graphics/SVG/1.1/DTD/svg11.dtd">
<!-- Created with matplotlib (http://matplotlib.org/) -->
<svg height="432pt" version="1.1" viewBox="0 0 576 432" width="576pt" xmlns="http://www.w3.org/2000/svg" xmlns:xlink="http://www.w3.org/1999/xlink">
 <defs>
  <style type="text/css">
*{stroke-linecap:square;stroke-linejoin:round;}
  </style>
 </defs>
 <g id="figure_1">
  <g id="patch_1">
   <path d="
M0 432
L576 432
L576 0
L0 0
z
" style="fill:#ffffff;"/>
  </g>
  <g id="axes_1">
   <g id="patch_2">
    <path d="
M72 388.8
L518.4 388.8
L518.4 43.2
L72 43.2
z
" style="fill:#ffffff;"/>
   </g>
   <g id="line2d_1">
    <path clip-path="url(#p7ff5b81e1d)" d="
M72 270.094
L72.5444 262.545
L73.0888 265.842
L73.7693 262.321
L74.3137 261.335
L74.9941 259.715
L75.2663 259.231
L75.8107 254.683
L76.3551 256.376
L77.1717 251.141
L77.58 248.719
L77.9883 247.909
L79.2132 241.346
L79.6215 237.149
L80.1659 236.27
L80.8463 231.746
L81.2546 231.02
L82.0712 224.394
L82.7517 216.831
L83.7044 204.433
L84.521 189.864
L85.6098 177.99
L86.1541 175.637
L86.6985 176.029
L87.379 179.165
L87.7873 180.14
L88.3317 184.924
L88.8761 185.185
L89.4205 186.117
L89.9649 185.484
L90.6454 186.502
L91.1898 187.48
L91.598 187.691
L92.1424 193.587
L92.8229 193.618
L93.3673 193.405
L93.9117 193.543
L94.4561 193.844
L94.8644 193.847
L95.5449 197.108
L95.9532 197.775
L96.4976 208.712
L97.3141 239.211
L98.6751 275.725
L99.3556 283.723
L99.7639 284.842
L100.308 284.421
L100.989 278.686
L101.397 276.51
L101.941 277.163
L104.255 285.543
L104.663 286.268
L105.208 284.898
L106.297 279.65
L106.841 278.871
L107.93 278.878
L108.474 278.064
L109.155 275.777
L110.652 273.257
L110.788 273.383
L111.468 273.874
L111.74 273.985
L112.421 275.471
L112.829 276.894
L113.374 276.284
L114.462 276.628
L115.143 275.806
L115.96 275.381
L116.232 275.2
L116.64 274.815
L117.184 275.088
L118.545 272.749
L120.042 270.8
L120.995 269.119
L121.676 265.5
L122.9 262.557
L123.445 261.765
L124.125 260.863
L124.261 260.665
L124.806 260.862
L125.35 261.54
L126.031 263.577
L126.711 264.651
L127.12 265.241
L127.528 266.019
L128.617 262.62
L129.297 256.199
L129.841 254.793
L130.25 254.536
L130.93 255.121
L131.339 255.087
L131.883 255.641
L132.427 255.4
L132.972 253.126
L133.516 252.963
L135.013 243.291
L135.421 241.068
L136.374 237.126
L136.919 234.702
L137.327 232.128
L137.871 233.178
L138.416 232.805
L138.96 233.063
L139.64 229.247
L140.049 228.217
L140.729 221.931
L141.274 215.696
L141.682 213.641
L142.907 203.193
L143.315 201.644
L143.86 204.575
L144.948 217.241
L145.629 220.945
L146.309 223.619
L146.581 224.874
L147.126 224.542
L148.215 216.791
L149.303 226.067
L149.984 235.066
L150.392 238.299
L151.617 257.478
L152.161 262.927
L153.114 268.281
L153.659 268.316
L154.203 269.053
L155.02 265.416
L156.244 259.264
L156.653 257.714
L157.197 256.238
L158.15 254.046
L158.694 252.003
L161.688 245.987
L161.824 245.703
L162.505 241.007
L163.594 238.75
L164.41 236.618
L164.546 236.316
L165.771 230.668
L166.18 228.655
L166.86 221.455
L167.404 217.743
L168.221 211.276
L168.901 207.283
L169.854 202.232
L170.126 201.445
L170.807 200.504
L171.079 200.057
L171.76 201.172
L172.168 201.428
L172.848 197.248
L173.257 196.483
L174.345 190.049
L174.89 175.518
L175.706 171.941
L175.979 170.519
L176.523 170.173
L177.203 166.743
L177.748 165.511
L178.292 164.982
L178.7 164.331
L179.245 165.187
L179.925 160.478
L180.47 158.612
L181.014 155.589
L181.831 149.491
L181.967 148.593
L182.511 150.421
L183.056 149.564
L183.6 149.557
L184.144 148.761
L184.689 149.586
L185.505 144.571
L186.186 140.381
L186.458 139.465
L186.866 138.9
L187.411 134.744
L187.955 134.165
L188.5 135.556
L189.18 138.528
L190.133 140.018
L190.677 140.062
L191.221 139.294
L191.766 139.416
L192.31 141.57
L193.127 141.913
L193.535 142.289
L193.943 142.849
L194.624 145.361
L195.032 145.721
L195.577 147.186
L196.121 145.974
L196.665 148.593
L197.346 176.433
L198.026 225.078
L198.435 254.524
L198.979 276.717
L199.523 287.167
L199.932 291.139
L200.476 291.634
L201.837 280.721
L202.245 277.549
L202.654 276.25
L203.198 277.954
L203.742 278.157
L204.831 275.712
L205.376 275.717
L206.464 268.484
L207.009 268.601
L207.553 267.631
L208.234 271.005
L209.322 273.418
L210.003 274.366
L211.228 275.465
L211.636 275.653
L211.908 275.747
L212.589 278.172
L213.133 280.588
L213.541 281.043
L214.222 281.063
L214.63 281.308
L215.175 280.893
L216.127 278.811
L216.944 277.043
L218.033 276.416
L219.258 274.196
L220.074 272.899
L220.755 268.888
L221.299 267.378
L221.843 265.769
L222.252 265.355
L222.796 265.473
L223.885 268.465
L224.429 270.889
L225.518 268.534
L227.423 258.43
L227.696 257.647
L228.24 257.453
L228.784 259.04
L229.737 248.913
L229.873 247.673
L230.418 238.368
L232.323 180.052
L232.731 173.597
L233.14 165.435
L233.684 164.119
L234.228 164.848
L234.773 167.137
L235.589 161.723
L235.998 159.284
L236.678 153.282
L237.086 150.062
L237.495 148.843
L238.039 150.216
L238.583 149.846
L239.536 142.146
L239.672 140.921
L241.033 118.66
L241.305 115.354
L241.85 115.018
L242.394 114.078
L243.483 120.347
L244.163 129.635
L244.708 141.832
L245.252 161.873
L245.797 185.53
L246.205 191.347
L247.43 233.385
L247.838 240.95
L248.382 238.403
L249.063 243.199
L249.471 244.658
L250.016 242.736
L250.56 234.173
L251.24 238.994
L252.193 248.164
L252.738 249.018
L253.962 254.142
L254.371 256.666
L255.46 250.083
L256.004 238.23
L256.548 243.172
L257.093 236.866
L257.637 238.098
L258.181 231.678
L258.726 241.25
L259.406 241.254
L259.815 241.475
L260.359 240.417
L261.04 235.064
L261.448 230.345
L262.128 215.606
L262.945 208.108
L263.489 204.407
L263.898 202.435
L264.17 201.329
L264.714 203.083
L265.531 208.453
L265.803 209.674
L266.483 218.895
L267.028 220.444
L267.436 220.854
L268.661 215.188
L269.069 214.799
L270.158 215.913
L270.702 214.103
L271.383 216.586
L272.063 219.361
L272.336 220.147
L272.88 219.208
L273.56 215.85
L274.105 211.879
L274.649 207.669
L275.194 206.419
L275.874 204.433
L276.146 203.865
L276.827 204.975
L277.235 205.92
L277.78 205.997
L278.324 192.605
L279.277 188.843
L279.821 187.386
L280.093 186.955
L280.501 186.674
L281.046 185.147
L281.59 180.188
L282.135 179.963
L282.815 169.071
L283.632 163.789
L284.04 162.143
L284.312 161.249
L284.993 157.488
L285.401 156.828
L286.081 152.698
L286.49 148.987
L287.715 115.769
L288.667 104.342
L289.62 102.835
L290.437 101.787
L290.845 101.815
L291.525 109.153
L291.934 110.142
L292.478 109.998
L293.022 108.92
L294.111 112.857
L294.656 112.731
L295.2 113.343
L295.88 112.396
L296.833 112.055
L297.378 114.469
L298.194 128.838
L298.739 142.429
L299.555 168.548
L300.78 215.148
L301.46 230.683
L301.733 235.636
L302.277 234.482
L303.23 228.437
L303.366 227.726
L304.455 203.006
L304.999 202.513
L305.543 205.145
L306.768 219.421
L307.177 226.013
L307.721 226.936
L308.401 231.64
L308.81 232.797
L309.49 237.906
L309.899 238.571
L310.443 237.693
L310.987 235.968
L311.532 236.984
L312.348 228.763
L313.165 217.576
L314.118 199.533
L315.206 177.954
L315.615 173.213
L315.887 170.447
L316.431 170.09
L317.112 172.879
L317.52 173.246
L318.064 172.096
L319.834 150.554
L320.242 143.179
L320.786 142.706
L321.875 152.174
L322.964 156.709
L323.508 154.231
L324.053 162.134
L325.141 157.031
L325.686 151.182
L326.502 135.602
L327.047 129.584
L327.319 127.293
L327.863 130.153
L328.408 127.716
L328.952 132.827
L329.905 148.299
L330.041 150.173
L330.585 151.276
L331.266 147.27
L331.674 146.076
L332.355 148.931
L332.763 149.388
L333.307 148.541
L333.852 149.279
L334.396 147.986
L336.574 136.783
L337.39 130.386
L337.799 127.55
L338.207 123.791
L338.751 124.982
L339.296 124.716
L339.84 127.017
L340.384 126.246
L341.065 128.847
L341.473 129.615
L342.018 129.094
L342.97 126.621
L343.242 126.179
L343.651 125.718
L344.195 126.159
L344.876 138.278
L345.556 141.839
L345.828 142.898
L346.509 151.966
L346.917 154.013
L347.598 167.542
L348.142 174.283
L348.686 182.267
L349.095 184.729
L349.775 197.964
L350.183 200.14
L350.728 210.081
L351.272 210.837
L351.817 214.832
L352.361 214.841
L352.905 216.936
L353.45 216.375
L354.13 221.097
L354.539 221.838
L355.627 234.651
L356.308 239.743
L356.852 241.597
L357.26 242.482
L358.349 241.292
L359.438 232.746
L359.982 228.539
L360.527 228.29
L361.207 223.652
L361.888 221.919
L362.704 219.651
L363.249 218.772
L363.929 215.712
L364.474 212.807
L364.882 212.25
L365.426 218.706
L365.971 219.002
L366.651 222.626
L367.06 223.769
L367.876 207.305
L368.148 203.428
L369.237 176.276
L369.781 175.082
L370.326 175.368
L370.87 180.067
L371.551 197.857
L372.231 204.033
L372.64 206.078
L373.048 206.942
L373.728 199.226
L374.137 198.029
L374.817 192.773
L375.77 183.415
L376.314 180.567
L376.859 173.864
L377.403 173.576
L377.947 174.771
L378.628 169.29
L379.036 167.273
L379.717 157.676
L380.805 148.5
L381.214 142.781
L381.758 143.214
L382.439 140.25
L382.847 137.617
L383.391 139.425
L384.072 137.667
L384.616 135.692
L385.024 134.809
L385.569 131.26
L386.249 122.192
L386.658 120.656
L387.202 120.515
L387.746 119.573
L388.291 120.463
L388.971 118.57
L389.38 118.356
L390.06 116.062
L390.604 114.882
L391.149 113.548
L391.557 113.116
L392.101 114.063
L392.646 113.705
L393.326 115.763
L393.735 117.478
L394.551 129.873
L395.368 137.965
L396.048 144.548
L396.593 152.442
L397.001 160.099
L397.545 180.176
L398.09 179.462
L398.634 190.844
L399.179 189.351
L400.403 177.674
L400.812 172.316
L401.356 171.022
L402.037 181.482
L402.581 184.041
L402.989 184.836
L403.534 184.473
L404.214 180.129
L404.622 179.525
L405.167 174.683
L405.711 175.756
L406.392 179.023
L406.936 181.969
L407.889 184.208
L408.433 183.548
L409.522 185.162
L410.747 195.318
L412.516 215.628
L412.788 216.683
L413.333 214.594
L414.013 207.938
L414.421 205.431
L414.966 198.556
L415.51 199.544
L416.055 198.758
L416.871 199.619
L417.143 199.818
L418.777 190.357
L419.457 183.339
L419.865 182.286
L420.41 183.427
L420.954 182.598
L422.043 187.09
L422.587 185.332
L423.132 186.367
L423.812 181.035
L424.22 179.792
L424.901 176.217
L425.309 175.156
L426.126 167.001
L426.398 164.859
L426.942 156
L427.487 154.761
L428.576 141.628
L429.256 136.625
L429.937 129.714
L430.617 124.862
L431.434 120.005
L431.842 119.42
L432.659 117.018
L432.931 116.415
L433.747 116.36
L434.02 116.269
L434.7 114.562
L435.38 112.635
L435.653 112.071
L436.197 112.016
L436.741 111.345
L437.422 112.109
L437.83 112.314
L438.511 111.914
L439.327 111.171
L439.463 111.073
L440.144 111.64
L440.688 111.693
L441.233 111.826
L441.641 111.728
L442.185 110.302
L442.73 110.269
L443.41 106.972
L443.819 105.94
L444.363 106.608
L445.043 105.433
L445.452 105.203
L446.54 106.425
L447.085 111.771
L448.582 150.225
L448.99 162.109
L450.351 195.429
L450.896 199.718
L451.44 199.214
L451.984 200.406
L452.801 195.339
L453.073 194.161
L453.754 187.918
L454.162 186.324
L454.706 188.507
L455.387 183.929
L455.795 183.203
L456.34 180.659
L456.884 171.763
L457.564 170.88
L457.973 170.851
L458.517 167.332
L459.061 169.153
L460.15 165.354
L460.695 160.599
L461.239 163.061
L461.783 162.249
L462.328 162.961
L463.961 153.655
L464.505 149.902
L465.186 153.131
L466.275 155.799
L467.227 157.764
L468.044 157.603
L468.86 157.601
L469.405 164.664
L470.221 161.821
L470.902 159.49
L471.038 159.085
L471.855 153.262
L472.399 150.921
L472.807 149.767
L473.216 149.119
L473.76 149.798
L474.304 149.572
L474.849 148.3
L475.529 143.015
L476.074 140.666
L476.754 137.031
L477.026 135.956
L477.571 128.969
L478.115 130.047
L478.66 129.404
L479.476 129.973
L479.748 130.09
L480.293 126.362
L480.973 118.59
L481.79 115.05
L482.062 114.057
L482.47 113.028
L483.015 112.955
L484.103 114.22
L484.648 106.939
L485.192 118.241
L485.873 108.995
L486.281 101.413
L486.825 104.048
L487.778 92.2465
L487.914 90.7832
L488.459 91.8707
L489.003 86.6547
L489.547 86.6555
L490.092 89.0802
L490.772 89.0818
L491.317 89.422
L492.405 90.7179
L492.814 91.5185
L494.447 167.841
L495.536 231.736
L496.216 238.223
L496.624 239.861
L497.577 221.276
L497.849 217.988
L498.258 214.736
L498.802 217.291
L499.346 213.344
L499.891 213.633
L500.435 213.322
L500.98 211.344
L501.66 218.369
L502.068 219.861
L502.885 227.496
L503.293 229.615
L503.701 230.432
L504.79 224.148
L505.471 214.873
L505.879 212.085
L506.56 218.221
L507.104 220.938
L507.92 226.45
L508.193 227.401
L508.601 227.82
L509.145 227.528
L509.826 226.363
L510.234 225.261
L510.779 219.317
L511.323 220.766
L512.276 220.076
L512.412 219.955
L513.909 202.175
L514.317 197.162
L514.998 191.031
L515.27 189.537
L515.814 188.239
L516.222 187.891
L516.767 190.002
L517.447 188.027
L517.856 187.715
L518.4 185.486
L518.4 185.486" style="fill:none;stroke:#008000;"/>
   </g>
   <g id="line2d_2">
    <path clip-path="url(#p7ff5b81e1d)" d="
M72 264.686
L72.5444 283.176
L72.6805 282.96
L72.9527 274.176
L73.2249 269.568
L73.4971 270.432
L73.6332 270
L73.7693 265.248
L74.1776 265.68
L74.3137 266.112
L74.858 263.304
L75.4024 260.28
L75.5385 260.496
L76.0829 260.928
L76.219 261.36
L76.3551 260.928
L76.6273 250.56
L77.0356 247.968
L77.1717 248.4
L77.3078 248.4
L77.4439 247.968
L77.8522 244.8
L77.9883 243.648
L78.1244 244.08
L78.941 244.08
L79.2132 243
L79.8937 239.76
L80.0298 237.6
L80.302 231.12
L81.2546 224.784
L82.8878 212.76
L83.5683 194.4
L83.8405 187.92
L83.9766 188.784
L84.2488 187.488
L84.6571 187.488
L84.7932 186.624
L84.9293 186.84
L85.0654 186.408
L85.3376 188.64
L85.6098 190.08
L85.7459 189.648
L85.882 190.08
L86.018 189.216
L86.1541 189.648
L86.5624 188.784
L86.6985 187.92
L86.8346 188.352
L86.9707 188.352
L87.2429 187.776
L87.5151 187.488
L87.7873 188.352
L88.0595 187.488
L88.4678 187.488
L88.6039 187.92
L88.8761 190.512
L89.6927 188.784
L89.8288 190.08
L89.9649 190.08
L90.5093 190.728
L90.9176 189
L91.462 190.512
L92.2785 190.08
L92.5507 190.944
L92.6868 190.944
L92.8229 191.16
L93.3673 190.944
L93.5034 190.512
L93.7756 191.16
L94.1839 191.808
L94.32 191.16
L94.4561 191.376
L94.7283 196.56
L95.1366 194.832
L95.4088 195.48
L95.5449 195.696
L95.8171 199.44
L96.0893 200.88
L96.2254 207.36
L96.4976 237.6
L96.6337 238.464
L97.5863 261.36
L98.539 272.16
L99.0834 273.888
L99.2195 273.456
L99.3556 273.888
L100.172 270.432
L100.444 272.592
L100.989 273.24
L101.261 277.56
L101.533 289.8
L102.078 298.08
L102.214 298.944
L102.486 298.368
L102.758 298.08
L102.894 297.648
L103.03 298.08
L103.302 295.92
L103.983 293.76
L104.663 293.328
L104.8 293.76
L105.072 292.896
L105.344 292.464
L105.48 292.032
L105.616 292.032
L105.888 292.464
L106.024 292.248
L106.16 292.248
L106.433 292.68
L106.569 292.464
L106.705 292.032
L106.841 292.248
L106.977 292.248
L107.113 292.464
L107.521 289.44
L107.794 286.848
L107.93 286.632
L108.202 286.092
L109.427 285.12
L109.563 285.768
L109.699 285.12
L109.835 283.824
L110.107 283.392
L110.243 282.96
L110.652 285.12
L110.788 283.824
L110.924 283.824
L111.196 284.256
L111.332 285.12
L111.604 285.12
L111.74 285.552
L112.013 284.472
L112.149 284.688
L112.285 284.256
L112.421 284.256
L112.829 280.8
L112.965 283.824
L113.101 283.824
L113.374 283.392
L113.646 282.528
L114.054 284.126
L114.326 282.96
L114.735 281.664
L114.871 281.664
L115.143 281.232
L115.551 280.152
L115.96 279.648
L116.776 278.64
L117.048 278.208
L117.32 277.344
L117.457 277.128
L117.865 275.616
L118.273 274.608
L118.409 274.32
L118.545 274.536
L118.681 274.32
L119.362 272.376
L119.498 272.16
L119.634 271.728
L119.906 270.432
L120.315 269.424
L121.131 267.84
L121.403 266.112
L121.54 265.248
L121.948 212.112
L122.084 263.088
L122.356 262.656
L122.492 262.656
L122.628 262.44
L123.037 261.36
L123.173 262.224
L123.309 261.792
L123.445 261.792
L123.717 260.928
L123.989 261.792
L124.125 261.36
L124.261 261.36
L124.534 266.112
L124.942 267.84
L125.214 266.976
L125.35 267.192
L126.031 265.248
L126.167 265.68
L126.439 264.6
L126.711 265.464
L127.12 266.112
L127.528 262.224
L127.664 261.36
L127.8 261.36
L127.936 260.928
L128.072 261.36
L128.208 261.36
L129.161 258.12
L129.433 256.608
L129.705 260.064
L129.841 261.36
L129.978 260.496
L130.25 260.928
L130.658 259.632
L130.794 260.28
L130.93 260.064
L131.066 260.496
L131.202 260.28
L131.339 259.2
L131.475 259.2
L131.611 257.04
L131.747 257.04
L131.883 256.608
L132.019 255.744
L132.155 252.72
L132.291 252.72
L132.563 251.64
L132.7 250.56
L132.836 250.56
L133.38 249.048
L134.06 246.24
L134.197 245.808
L134.877 240.192
L135.013 240.192
L135.285 239.328
L135.421 239.76
L135.558 237.6
L135.694 237.6
L135.83 238.032
L136.374 233.28
L136.51 233.28
L136.646 231.12
L136.782 231.12
L136.919 230.688
L137.463 230.688
L137.599 231.12
L137.735 230.688
L137.871 231.552
L138.143 230.688
L138.28 231.552
L138.416 231.12
L138.96 223.56
L139.368 221.184
L139.504 222.48
L139.777 222.048
L139.913 221.4
L140.049 216
L140.185 216
L140.321 207.36
L140.457 206.496
L140.593 207.36
L140.865 211.68
L141.001 210.6
L141.138 210.816
L141.546 209.52
L141.682 207.36
L141.818 207.36
L142.499 201.744
L142.771 200.88
L143.043 199.584
L143.315 206.496
L143.587 213.84
L143.723 213.408
L143.86 214.056
L144.132 210.816
L144.268 213.84
L144.54 214.488
L144.676 214.704
L144.812 214.272
L144.948 214.488
L145.084 213.84
L145.22 210.6
L145.357 211.68
L145.765 212.112
L146.037 212.76
L146.173 211.68
L146.309 211.68
L146.581 213.84
L146.854 211.68
L146.99 209.52
L147.262 210.384
L147.398 210.816
L147.534 209.52
L147.806 211.68
L148.079 214.92
L148.351 221.4
L148.623 222.912
L148.895 224.64
L149.712 236.16
L149.984 237.6
L150.937 250.992
L151.209 251.64
L151.345 254.88
L151.481 254.88
L151.617 257.04
L151.753 257.04
L152.025 259.2
L152.161 261.36
L152.298 261.36
L163.049 236.304
L163.594 233.28
L163.73 233.28
L163.866 235.44
L164.274 230.688
L164.546 229.824
L164.682 228.96
L164.819 228.96
L165.091 226.8
L165.227 227.232
L165.635 224.64
L165.771 224.64
L166.043 222.048
L166.18 220.32
L166.588 220.32
L166.86 217.728
L166.996 216
L167.132 216
L167.404 209.52
L167.54 209.52
L167.677 209.088
L167.813 209.52
L168.221 208.224
L169.038 203.04
L169.174 203.472
L169.31 203.04
L169.446 203.04
L169.582 200.88
L169.718 200.88
L170.126 201.96
L170.807 201.96
L170.943 203.04
L171.215 200.88
L171.351 200.88
L171.487 203.04
L171.76 198.72
L172.032 190.08
L172.168 192.24
L172.304 190.08
L172.712 193.104
L172.848 194.4
L173.12 190.08
L173.257 190.08
L173.393 189
L173.529 190.08
L173.665 187.92
L173.801 187.92
L174.345 184.32
L174.754 183.168
L175.162 183.6
L175.434 179.28
L175.706 179.28
L175.842 178.848
L175.979 178.848
L176.115 177.12
L176.251 177.12
L176.387 174.96
L176.523 174.96
L176.659 174.528
L176.795 174.528
L177.067 173.88
L177.203 173.664
L177.34 172.8
L177.476 172.8
L177.612 174.96
L177.884 170.64
L178.156 171.72
L178.292 171.504
L178.428 164.16
L178.837 164.16
L178.973 162.864
L179.245 157.68
L179.381 157.248
L179.517 157.248
L179.789 159.84
L179.925 157.68
L180.061 157.68
L180.198 155.52
L180.334 155.52
L180.606 153.36
L180.878 150.336
L181.422 148.608
L181.695 155.52
L181.967 152.928
L182.375 151.2
L182.511 148.608
L182.92 149.04
L183.056 148.608
L183.192 149.04
L183.464 147.312
L183.6 146.88
L183.736 144.72
L184.008 144.72
L184.144 144.288
L184.689 136.08
L184.825 133.92
L184.961 133.92
L185.233 131.328
L185.369 130.68
L185.505 131.328
L185.641 131.328
L185.778 131.76
L185.914 129.6
L186.05 129.6
L186.186 131.76
L186.322 131.76
L186.458 131.328
L186.594 129.6
L186.73 129.6
L187.275 130.68
L187.683 129.6
L187.955 129.6
L188.091 128.736
L188.5 130.248
L188.636 129.6
L188.772 130.464
L188.908 130.464
L189.044 129.6
L189.316 131.76
L189.452 131.76
L189.724 130.68
L189.86 131.328
L190.133 130.032
L190.269 129.6
L190.541 129.6
L190.677 127.44
L190.949 129.6
L191.085 129.6
L191.358 131.76
L191.494 135.648
L191.63 136.08
L191.766 135.648
L192.174 131.76
L192.446 129.6
L192.582 130.68
L192.855 134.568
L193.399 135.432
L193.535 136.08
L193.807 133.92
L194.08 136.08
L194.216 135.648
L194.352 136.08
L194.488 138.24
L194.624 138.24
L194.896 136.512
L195.168 135.36
L195.577 132.84
L195.713 134.352
L196.121 144.72
L196.801 198.72
L196.938 198.72
L197.21 224.64
L197.346 233.28
L197.482 259.2
L197.89 272.16
L198.026 272.16
L198.162 274.32
L198.299 274.32
L198.435 273.024
L198.571 273.024
L198.707 272.16
L198.979 272.16
L199.387 274.32
L199.796 274.32
L199.932 274.536
L200.068 273.888
L200.204 274.536
L200.476 277.344
L200.748 278.64
L200.884 280.8
L201.02 280.8
L201.157 278.208
L201.293 278.64
L201.429 277.56
L201.701 279.72
L201.837 278.64
L201.973 280.8
L202.109 279.504
L202.245 280.8
L202.381 280.8
L202.654 285.12
L203.062 281.88
L203.198 282.528
L203.47 280.8
L204.015 277.344
L204.151 277.344
L204.423 278.64
L204.559 280.8
L204.695 278.64
L204.831 280.8
L205.376 268.704
L205.648 267.84
L205.92 266.544
L206.056 265.68
L206.328 274.32
L206.464 276.48
L206.6 272.16
L207.009 270
L207.145 270.432
L207.417 268.704
L207.553 272.16
L207.961 273.456
L208.098 274.752
L208.234 273.888
L208.37 272.16
L208.506 272.16
L208.642 270.864
L209.05 271.872
L209.459 272.16
L209.595 272.808
L209.731 272.592
L209.867 272.16
L210.003 272.16
L210.275 277.344
L210.411 276.48
L210.547 274.752
L210.683 274.752
L210.956 275.904
L211.228 276.48
L211.364 274.32
L211.636 282.96
L212.044 284.256
L212.18 287.28
L212.317 286.848
L212.453 288.144
L212.725 286.848
L212.861 287.28
L213.269 282.528
L213.405 285.12
L213.678 282.96
L213.814 282.96
L213.95 283.392
L214.086 285.12
L214.222 285.12
L214.494 282.528
L214.63 282.96
L214.766 284.04
L214.902 282.96
L215.039 283.824
L215.719 279.504
L215.855 279.936
L216.263 278.208
L216.672 279.504
L216.808 279.504
L216.944 279.72
L217.08 279.504
L217.216 280.8
L217.488 278.208
L217.76 276.48
L218.169 274.32
L218.305 272.16
L218.713 274.32
L219.258 270
L219.394 269.568
L219.53 270
L219.666 270
L220.074 268.704
L220.482 270.432
L220.891 262.44
L221.027 262.224
L221.163 262.656
L221.299 262.224
L221.571 263.52
L221.707 263.52
L221.98 264.672
L222.252 265.248
L222.388 265.032
L222.66 266.76
L222.932 268.704
L223.204 269.136
L223.34 269.568
L223.613 269.136
L223.885 267.84
L224.021 267.84
L224.565 259.2
L224.701 260.28
L224.838 259.632
L224.974 259.848
L225.11 260.28
L225.654 256.392
L225.79 256.608
L226.199 254.448
L226.335 254.88
L226.471 254.88
L226.743 253.152
L226.879 253.152
L227.423 252.45
L227.696 252.288
L227.968 251.424
L228.24 250.56
L228.784 235.008
L228.92 235.008
L229.057 231.12
L229.193 233.28
L229.329 233.28
L229.465 232.2
L229.601 233.28
L229.737 224.64
L229.873 224.64
L230.281 203.616
L230.69 194.4
L230.962 190.08
L231.234 183.6
L231.37 183.168
L231.506 183.168
L231.642 182.952
L232.187 180.36
L232.323 181.008
L232.867 178.848
L233.003 179.28
L233.14 178.632
L233.276 172.8
L233.412 172.8
L233.684 171.504
L233.956 167.616
L234.637 162
L234.773 160.92
L234.909 161.136
L235.045 161.568
L235.317 160.92
L235.453 159.84
L235.725 155.52
L235.998 155.52
L236.134 154.44
L236.27 154.44
L236.406 154.656
L236.542 154.224
L236.95 154.224
L237.086 154.44
L237.222 154.224
L237.495 152.928
L237.631 153.36
L238.175 149.04
L238.311 142.56
L238.447 142.56
L238.72 137.376
L238.856 136.944
L238.992 136.944
L239.128 136.08
L239.264 129.6
L239.4 129.6
L239.672 103.68
L239.808 98.064
L239.944 97.2
L240.08 99.36
L240.217 98.496
L240.353 99.36
L240.489 98.28
L241.033 100.224
L241.169 103.68
L241.305 102.816
L241.441 348.624
M241.714 110.16
L241.85 110.16
L242.122 104.76
L242.258 108
L242.394 108
L242.53 107.352
L242.666 108
L242.802 107.568
L242.939 108
L243.347 115.56
L243.483 114.48
L243.619 112.32
L243.891 129.6
L244.163 172.8
L244.3 172.8
L244.572 168.48
L245.116 171.504
L245.252 171.936
L245.388 172.8
L245.797 178.2
L245.933 190.08
L246.069 216
L246.205 218.16
L246.613 228.96
L246.885 230.688
L247.43 237.6
L247.566 236.088
L247.702 237.168
L247.838 233.28
L248.11 234.36
L248.246 235.008
L248.382 234.792
L248.519 235.44
L248.655 235.44
L248.791 234.576
L248.927 237.6
L249.063 235.872
L249.471 235.872
L249.607 237.6
L249.88 235.872
L250.016 236.52
L250.152 241.92
L250.288 241.92
L250.424 250.56
L250.56 249.696
L250.832 251.856
L250.968 252.288
L251.377 254.448
L251.513 254.448
L251.649 254.88
L251.785 253.8
L251.921 254.016
L252.057 254.88
L252.329 257.472
L252.601 255.312
L252.738 255.744
L252.874 254.88
L253.146 244.08
L253.418 248.832
L253.826 277.128
L253.962 246.24
L254.371 243.648
L254.507 244.08
L254.915 242.568
L255.46 239.904
L255.732 237.6
L256.14 238.464
L256.548 241.92
L256.82 243.648
L256.957 244.512
L257.093 244.08
L257.501 245.808
L257.773 244.512
L257.909 244.944
L258.045 244.08
L258.181 244.08
L258.318 245.16
L258.454 244.08
L258.59 244.08
L258.862 244.512
L258.998 244.08
L259.134 244.08
L259.815 240.84
L259.951 240.84
L260.087 237.6
L260.359 236.52
L260.495 235.872
L260.631 235.872
L261.176 218.16
L261.312 217.728
L261.448 217.728
L261.992 215.136
L262.128 213.84
L262.264 213.84
L262.537 210.816
L262.673 210.816
L263.081 210.384
L263.217 211.68
L263.761 207.36
L263.898 211.68
L264.034 210.6
L264.306 214.92
L264.85 219.024
L264.986 218.16
L265.259 216
L265.531 214.272
L265.667 214.056
L266.075 218.16
L266.62 216.432
L266.756 217.08
L267.3 211.68
L267.436 209.52
L267.572 209.52
L267.708 209.088
L267.844 209.52
L267.98 209.088
L268.117 210.6
L268.253 210.384
L268.389 210.816
L268.525 210.6
L268.797 206.28
L268.933 206.928
L269.069 211.68
L269.886 216
L270.294 215.568
L270.702 218.16
L270.975 221.184
L271.111 222.264
L271.247 221.616
L271.655 223.776
L271.927 222.048
L272.2 221.4
L272.472 216.864
L272.744 214.272
L273.288 204.336
L273.424 204.336
L273.56 203.904
L273.833 205.2
L274.105 206.064
L274.377 208.008
L274.649 209.52
L276.146 205.2
L276.419 204.768
L276.963 203.04
L277.507 199.8
L277.643 200.88
L278.324 196.128
L278.868 194.4
L279.277 191.808
L279.549 192.672
L279.685 193.536
L279.957 193.464
L280.229 193.32
L280.365 192.24
L280.501 190.08
L280.91 174.96
L281.318 178.416
L281.999 176.04
L282.407 171.72
L282.543 171.504
L282.815 170.64
L283.223 166.32
L283.36 165.456
L283.496 165.888
L283.632 165.456
L283.768 168.048
L284.584 159.84
L285.401 152.064
L285.537 151.2
L285.809 148.176
L286.49 142.398
L286.762 140.832
L286.898 108
L287.034 108
L287.306 105.408
L287.579 103.896
L287.715 99.792
L287.851 99.792
L288.123 107.136
L288.259 106.488
L288.667 110.16
L288.803 108
L288.94 108
L289.212 104.76
L289.62 104.76
L289.892 103.68
L290.164 100.872
L290.3 101.52
L290.709 101.736
L290.981 106.92
L291.117 105.84
L291.389 102.6
L291.525 101.52
L292.07 104.544
L292.206 105.84
L292.478 102.816
L292.75 105.84
L293.022 106.704
L293.159 106.056
L293.295 108
L293.431 107.136
L293.567 108.864
L293.703 108
L293.975 105.192
L294.111 104.76
L294.247 103.68
L294.52 99.36
L294.928 100.656
L295.064 101.52
L295.2 100.224
L295.336 100.44
L295.472 99.36
L295.608 102.6
L295.744 102.6
L296.017 103.68
L296.153 102.6
L296.289 103.68
L296.425 111.024
L296.561 111.24
L296.969 112.752
L297.378 129.6
L298.739 151.2
L299.147 177.12
L299.283 176.04
L299.555 181.44
L299.827 192.24
L300.1 194.4
L300.78 205.2
L301.052 211.68
L301.188 210.6
L301.324 211.68
L301.597 209.52
L301.733 203.04
L301.869 203.04
L302.141 198.72
L302.277 198.72
L302.549 196.128
L302.821 194.4
L302.958 193.32
L303.094 193.32
L303.23 192.24
L303.638 186.192
L303.774 185.76
L303.91 190.08
L304.046 187.92
L304.182 190.08
L304.455 201.96
L304.863 213.84
L305.135 205.2
L305.271 203.04
L305.407 203.04
L305.816 206.28
L305.952 207.36
L306.088 203.04
L306.632 210.816
L306.768 211.68
L306.904 211.68
L307.04 216
L307.177 216
L307.449 219.24
L307.857 222.48
L307.993 221.184
L308.265 223.344
L308.538 226.8
L308.674 225.72
L308.81 226.8
L309.218 221.832
L309.354 220.32
L309.626 222.48
L309.899 218.16
L310.035 219.24
L310.171 224.64
L310.307 224.208
L310.443 224.64
L310.579 226.8
L310.987 223.704
L311.26 223.56
L311.396 222.48
L311.94 207.36
L312.076 207.36
L312.484 201.96
L312.62 200.88
L313.029 195.48
L313.165 194.4
L313.573 187.92
L313.709 187.92
L313.845 188.568
L313.981 187.92
L314.254 183.6
L314.39 185.328
L314.798 180.576
L315.07 182.88
L315.342 185.76
L315.615 181.44
L315.751 181.44
L316.023 180.36
L316.159 181.44
L316.295 181.44
L316.567 179.28
L316.703 179.28
L317.112 176.76
L317.248 176.04
L317.52 172.8
L317.656 172.8
L317.928 166.32
L318.064 164.16
L318.2 164.16
L318.473 159.84
L318.609 159.84
L318.881 164.16
L319.017 164.16
L319.153 159.84
L319.289 162
L319.425 155.52
L319.561 157.68
L319.698 157.68
L319.97 154.224
L320.106 155.52
L320.378 162
L320.514 164.16
L320.65 168.48
L320.786 168.48
L320.922 172.8
L321.467 165.888
L321.875 159.84
L322.011 160.272
L322.147 164.16
L322.283 164.16
L322.42 159.84
L322.556 159.84
L322.828 155.52
L323.236 162
L323.917 162
L324.053 161.784
L324.189 160.92
L324.325 161.136
L324.461 160.92
L324.597 159.84
L324.869 159.84
L325.686 125.28
L325.958 125.28
L326.094 123.12
L326.23 124.2
L326.502 129.6
L326.639 129.6
L326.911 138.24
L327.319 149.04
L327.455 151.2
L327.591 146.88
L327.727 146.88
L328 145.8
L328.136 144.72
L328.272 144.72
L328.408 143.64
L328.544 144.72
L328.68 144.72
L328.952 146.88
L329.088 146.88
L329.224 144.72
L329.36 144.72
L329.497 143.64
L329.633 143.64
L329.769 143.856
L329.905 145.8
L330.041 144.72
L330.313 144.72
L330.449 146.88
L330.585 146.88
L330.858 150.336
L331.402 153.36
L331.538 152.928
L331.674 151.2
L331.946 151.2
L332.082 146.88
L332.219 146.88
L332.355 146.016
L332.627 146.88
L332.763 145.8
L332.899 146.88
L333.035 146.88
L333.307 148.608
L333.443 149.04
L333.58 150.12
L333.988 147.312
L334.124 146.88
L334.26 146.88
L334.396 144.72
L334.532 144.72
L335.077 142.56
L335.213 142.56
L335.485 140.4
L335.621 138.24
L335.757 138.24
L335.893 137.16
L336.029 137.16
L336.301 135.864
L336.438 135.648
L336.574 129.6
L336.71 134.352
L336.846 134.136
L336.982 129.6
L337.118 129.6
L337.254 120.96
L337.39 120.96
L337.526 119.88
L338.071 131.76
L338.207 129.6
L338.479 129.6
L338.615 130.68
L338.751 130.68
L338.887 129.6
L339.023 129.6
L339.704 133.92
L339.84 133.92
L339.976 131.76
L340.112 131.76
L340.248 130.68
L340.384 131.328
L340.657 130.464
L340.793 130.464
L340.929 129.6
L341.065 129.6
L341.201 127.44
L341.337 129.6
L341.473 127.872
L341.745 129.6
L342.154 127.44
L342.29 129.6
L342.698 129.6
L342.834 127.44
L343.242 130.68
L343.379 130.032
L343.787 131.76
L343.923 130.464
L344.467 136.08
L344.603 138.24
L344.876 136.08
L345.012 138.24
L345.148 138.24
L345.284 137.16
L345.556 144.72
L345.692 146.88
L345.828 151.2
L345.964 143.64
L346.237 150.12
L346.373 150.12
L346.509 151.2
L347.053 166.32
L347.189 168.48
L347.325 166.32
L347.461 166.32
L347.598 166.752
L347.734 166.752
L347.87 168.48
L348.278 179.28
L348.414 181.44
L348.55 181.44
L348.686 194.4
L348.822 187.92
L348.959 190.08
L349.095 194.4
L349.367 190.08
L349.911 198.72
L350.047 198.72
L350.183 203.04
L350.32 200.88
L350.456 201.312
L350.592 203.04
L350.728 201.528
L350.864 201.96
L351 203.04
L351.136 203.04
L351.272 204.12
L351.408 207.36
L351.544 207.36
L351.68 209.52
L351.817 207.36
L351.953 208.44
L352.089 208.44
L352.225 209.088
L352.497 213.84
L352.633 213.84
L352.769 216
L352.905 216
L353.178 218.16
L353.314 217.08
L353.586 222.48
L353.722 220.752
L353.858 221.4
L353.994 220.32
L354.13 220.32
L354.402 224.64
L354.675 237.6
L354.811 237.6
L355.355 241.92
L355.491 239.76
L355.627 240.84
L355.763 239.76
L356.036 241.92
L356.172 240.84
L356.444 243
L356.58 242.784
L356.852 244.512
L357.397 240.84
L357.533 242.352
L357.669 242.352
L357.805 243
L357.941 241.92
L358.077 241.92
L358.485 238.68
L358.621 239.76
L358.894 237.6
L359.166 237.6
L359.302 237.168
L359.438 233.28
L359.574 234.36
L359.71 234.36
L359.846 235.44
L359.982 237.6
L360.255 233.28
L360.391 233.28
L360.663 231.12
L361.071 231.12
L361.207 233.28
L361.343 233.28
L361.48 231.12
L361.616 231.12
L361.752 228.96
L361.888 228.96
L362.024 239.76
L362.16 225.72
L362.296 228.96
L363.113 224.64
L363.249 222.48
L363.521 222.48
L363.793 219.24
L363.929 220.32
L364.201 219.24
L364.338 220.32
L364.474 219.24
L364.61 220.32
L364.746 219.24
L365.018 226.8
L365.426 224.64
L365.562 222.48
L365.699 223.56
L365.835 222.48
L365.971 224.64
L366.107 223.56
L366.243 223.56
L366.379 224.64
L366.515 224.64
L366.651 222.48
L366.923 207.36
L367.06 194.4
L367.332 190.08
L367.468 190.08
L367.604 189
L367.876 183.6
L368.148 186.84
L368.284 186.84
L368.557 184.68
L368.965 192.24
L369.101 194.4
L369.237 198.72
L369.373 198.72
L369.509 196.56
L369.645 196.56
L369.781 196.128
L370.054 199.8
L370.19 194.4
L370.326 194.4
L370.462 192.24
L370.87 198.72
L371.006 198.72
L371.279 196.56
L371.551 203.04
L371.687 203.04
L371.823 205.2
L372.095 203.04
L372.231 200.88
L372.503 203.04
L372.64 203.04
L372.776 201.96
L373.048 196.56
L373.184 196.56
L373.32 197.64
L373.456 196.56
L373.592 194.4
L373.728 195.264
L374.137 192.24
L374.273 194.4
L374.545 190.08
L374.681 191.16
L374.817 191.16
L374.953 190.08
L375.089 190.08
L375.361 187.92
L375.498 190.08
L375.634 190.08
L376.178 185.76
L376.314 179.28
L376.45 181.44
L376.586 180.36
L376.722 180.36
L376.859 179.28
L376.995 179.28
L377.267 176.04
L377.403 176.04
L377.539 177.12
L377.675 177.12
L377.947 172.8
L378.492 172.8
L378.764 162
L378.9 159.84
L379.172 162
L379.308 162
L379.58 158.76
L379.717 157.68
L379.853 157.68
L379.989 155.52
L380.125 155.52
L380.397 151.2
L380.533 151.2
L380.805 146.88
L380.941 146.88
L381.078 147.96
L381.214 146.88
L381.486 146.88
L381.758 147.744
L382.03 146.88
L382.166 146.88
L382.302 144.72
L382.439 144.72
L382.575 143.64
L382.847 143.64
L382.983 142.56
L383.119 142.56
L383.936 136.08
L384.072 138.24
L384.208 136.08
L384.344 136.08
L384.752 129.6
L385.024 129.6
L385.16 130.68
L385.297 129.6
L385.705 129.6
L385.841 127.44
L385.977 128.52
L386.113 127.44
L386.249 127.44
L386.521 127.872
L386.658 128.304
L386.794 127.44
L386.93 125.28
L387.202 125.28
L387.338 124.2
L387.474 124.2
L387.61 125.28
L387.746 125.28
L388.019 123.12
L388.291 119.88
L388.427 118.8
L388.563 120.96
L388.835 118.8
L388.971 118.8
L389.107 117.72
L389.243 117.72
L389.38 116.64
L389.652 116.64
L390.06 114.48
L390.196 112.32
L390.332 112.32
L390.604 114.48
L390.74 114.48
L390.877 112.32
L391.013 112.32
L391.285 113.4
L391.421 114.48
L391.557 116.64
L391.693 115.56
L391.965 112.32
L392.101 112.32
L392.238 113.4
L392.374 112.32
L392.51 112.32
L392.646 114.48
L392.782 113.4
L392.918 114.48
L393.054 116.64
L393.462 129.6
L393.599 129.6
L394.143 136.8
L394.279 138.24
L394.415 138.24
L394.551 135.648
L395.096 142.56
L395.232 141.48
L395.368 142.56
L395.504 141.696
L395.64 142.56
L396.457 166.32
L396.593 168.48
L396.729 168.48
L396.865 207.36
L397.273 168.48
L397.545 170.64
L397.681 170.64
L397.954 172.8
L398.09 171.72
L398.498 171.72
L398.634 173.88
L398.77 173.88
L398.906 172.8
L399.179 169.56
L399.451 172.8
L399.587 172.8
L399.723 174.96
L399.995 170.64
L400.267 172.8
L400.403 174.96
L400.54 185.76
L400.812 181.44
L400.948 183.6
L401.084 181.44
L401.356 183.6
L401.492 183.6
L401.628 182.52
L401.764 182.52
L402.173 179.28
L402.309 179.28
L402.445 177.12
L402.717 177.12
L402.853 174.96
L402.989 174.96
L403.398 174.528
L403.534 174.96
L403.67 177.12
L403.942 174.96
L404.078 177.12
L404.35 172.8
L404.486 172.8
L404.759 174.96
L404.895 173.88
L405.575 181.44
L405.711 180.36
L406.664 179.28
L406.8 178.2
L407.072 183.6
L407.208 180.36
L407.344 180.36
L407.753 179.28
L408.161 181.44
L408.433 179.28
L408.569 181.44
L408.841 181.44
L408.978 183.6
L409.114 183.6
L409.386 185.76
L409.522 194.4
L409.658 192.24
L409.794 194.4
L409.93 193.32
L410.066 196.56
L410.339 216
L410.475 213.84
L410.883 212.76
L411.155 217.08
L411.291 218.16
L411.7 214.92
L411.836 216
L412.108 212.76
L412.516 209.52
L412.652 210.6
L412.788 207.36
L412.924 207.36
L413.06 205.2
L413.197 207.36
L413.333 206.28
L413.469 207.36
L413.605 209.52
L413.877 207.36
L414.149 207.36
L414.421 205.2
L414.558 207.36
L414.694 206.28
L414.83 207.36
L415.102 207.36
L415.51 204.336
L415.646 204.12
L415.919 204.12
L416.055 203.04
L416.191 203.04
L416.327 205.2
L416.599 203.04
L416.735 198.72
L416.871 198.72
L417.143 196.56
L417.28 194.4
L417.416 194.4
L417.552 193.32
L417.688 194.4
L417.824 194.4
L417.96 192.24
L418.096 192.24
L418.232 191.16
L418.368 191.16
L418.504 172.8
L418.64 190.08
L418.913 187.92
L419.321 190.08
L419.457 192.24
L419.593 191.16
L419.729 191.16
L419.865 194.4
L420.138 192.24
L420.274 194.4
L420.546 190.08
L420.682 190.08
L420.818 187.92
L420.954 189
L421.09 187.92
L421.226 190.08
L421.362 190.08
L421.499 191.16
L421.635 191.16
L421.771 190.08
L421.907 190.08
L422.179 185.76
L422.315 185.76
L422.587 190.08
L422.723 190.08
L422.86 189
L422.996 189
L423.268 186.84
L423.676 187.92
L423.948 184.68
L424.357 181.44
L424.629 181.44
L424.765 180.36
L424.901 177.12
L425.037 177.12
L425.173 174.96
L425.309 176.04
L425.445 176.04
L425.581 174.96
L425.718 172.8
L425.854 172.8
L425.99 170.64
L426.262 165.24
L426.398 164.16
L426.67 159.84
L426.806 159.84
L427.351 156.24
L427.487 155.52
L427.623 153.36
L427.759 153.36
L428.031 151.2
L428.167 151.2
L428.303 153.36
L428.44 149.04
L428.576 150.12
L428.712 149.04
L428.848 140.4
L428.984 146.88
L429.12 140.4
L429.256 140.4
L429.528 138.24
L429.664 133.92
L429.937 133.92
L430.209 129.6
L430.345 129.6
L430.889 125.28
L431.57 125.28
L431.842 123.12
L431.978 123.12
L432.114 124.2
L432.25 120.96
L432.386 120.96
L432.659 117.72
L432.795 117.504
L432.931 117.72
L433.067 116.64
L433.203 116.64
L433.339 117.504
L433.611 112.32
L433.883 112.32
L434.156 110.16
L434.428 110.16
L434.564 108
L435.108 108
L435.38 112.32
L435.789 110.16
L435.925 110.16
L436.197 108
L436.333 108
L436.605 105.84
L436.741 106.92
L436.878 105.84
L437.15 108
L437.422 103.68
L437.558 103.68
L437.694 104.76
L437.83 103.68
L437.966 103.68
L438.102 103.248
L438.239 101.52
L438.375 101.52
L438.511 100.44
L438.647 101.52
L438.783 101.52
L438.919 102.6
L439.055 101.52
L439.463 101.52
L439.872 101.088
L440.008 101.52
L440.28 100.44
L440.416 101.52
L440.552 101.52
L440.824 99.36
L440.96 99.36
L441.097 100.44
L441.233 99.36
L441.641 94.608
L441.777 94.608
L441.913 94.176
L442.049 94.176
L442.185 95.04
L442.594 89.856
L442.866 88.128
L443.41 86.4
L444.363 87.264
L444.499 88.56
L444.635 88.56
L444.771 86.4
L445.588 86.4
L445.724 84.24
L445.86 84.24
L445.996 86.4
L446.404 86.4
L446.813 127.44
L447.085 129.6
L447.221 133.92
L447.493 133.92
L447.629 138.24
L448.31 138.24
L448.582 146.88
L448.718 146.88
L448.854 151.2
L449.126 169.344
L449.671 185.76
L449.943 179.28
L450.079 181.44
L450.351 179.28
L450.487 181.44
L451.032 181.44
L451.168 183.6
L451.304 181.44
L451.576 183.6
L451.712 185.76
L452.665 185.76
L452.801 186.192
L452.937 187.92
L453.073 186.624
L453.209 187.92
L453.345 187.92
L453.618 186.624
L453.754 190.08
L454.162 190.08
L454.434 185.76
L454.57 178.848
L454.842 177.12
L454.979 177.12
L455.115 173.664
L455.523 181.44
L455.659 182.304
L455.795 181.44
L455.931 181.44
L456.067 179.28
L456.203 180.144
L456.612 180.36
L456.748 177.984
L456.884 178.416
L457.02 179.28
L457.292 174.96
L457.428 177.12
L457.564 177.12
L457.837 173.88
L457.973 172.8
L458.653 172.8
L458.789 170.64
L458.925 172.8
L459.061 170.64
L459.198 172.8
L459.334 172.8
L459.47 171.936
L459.878 172.8
L460.014 172.8
L460.695 177.12
L460.831 172.8
L460.967 173.664
L461.103 173.232
L461.375 170.64
L461.647 174.96
L461.783 168.48
L461.92 167.4
L462.056 164.16
L462.328 164.16
L462.464 165.024
L462.6 164.16
L462.736 164.16
L463.008 160.704
L463.28 164.16
L463.417 162
L463.689 162
L463.961 159.84
L464.914 159.84
L465.05 162
L465.186 330.48
M465.458 162
L465.594 162
L465.73 160.704
L466.002 160.704
L466.139 160.272
L466.275 160.704
L466.411 160.704
L466.547 159.84
L466.683 159.84
L466.819 162
L466.955 159.84
L467.091 160.704
L467.227 159.84
L468.044 159.948
L468.452 160.272
L468.588 160.704
L469.405 155.52
L469.541 153.36
L469.813 153.36
L469.949 151.2
L470.494 151.2
L470.766 144.72
L470.902 146.88
L471.31 146.88
L471.446 144.72
L471.582 144.72
L471.855 146.88
L471.991 146.88
L472.127 144.72
L472.399 144.72
L472.535 146.88
L472.943 144.72
L473.08 146.88
L473.352 146.88
L473.624 142.56
L473.76 142.56
L474.032 139.32
L474.168 138.24
L474.304 138.24
L474.577 129.6
L474.713 129.6
L474.985 127.44
L475.121 127.44
L475.257 129.6
L475.393 128.52
L475.665 130.68
L475.801 130.68
L475.938 129.6
L476.21 129.6
L476.754 133.92
L477.162 129.6
L477.707 129.6
L477.843 125.28
L477.979 125.28
L478.115 124.2
L478.251 125.28
L478.387 123.12
L478.523 125.28
L478.66 120.96
L478.932 120.96
L479.068 123.12
L479.204 123.12
L479.34 120.96
L479.476 122.04
L479.612 122.04
L479.748 120.96
L479.884 120.96
L480.02 116.64
L480.157 108
L480.701 108
L480.837 106.92
L481.245 108
L481.79 108
L481.926 110.16
L482.198 108.432
L482.334 109.08
L482.47 108
L482.606 110.16
L482.742 108
L483.151 108
L483.287 109.08
L483.695 108
L483.831 109.08
L483.967 108
L484.103 86.4
L484.24 108
L485.056 108
L485.464 86.4
L485.6 86.4
L485.737 77.76
L485.873 79.92
L486.009 77.76
L486.553 77.76
L486.689 75.6
L486.961 69.12
L487.098 69.12
L487.37 63.72
L487.506 62.64
L487.778 64.8
L487.914 64.8
L488.186 59.4
L488.322 58.32
L488.595 54
L488.731 55.08
L488.867 54
L489.139 50.76
L489.275 51.84
L489.547 51.84
L489.683 49.68
L489.82 51.84
L489.956 51.84
L490.092 50.76
L490.228 51.84
L490.636 51.84
L490.772 49.68
L490.908 49.68
L491.044 48.6
L491.18 49.68
L491.317 47.52
L491.453 47.52
L491.589 49.68
L491.725 49.248
L491.861 47.52
L491.997 48.6
L492.133 51.84
L492.269 49.68
L492.541 86.4
L492.814 108
L493.086 138.24
L493.358 156.6
L493.766 172.8
L494.583 172.8
L494.991 194.4
L495.4 194.4
L495.672 198.72
L495.808 198.72
L496.216 203.04
L496.488 203.04
L496.624 207.36
L497.169 207.36
L497.985 216
L498.938 216
L499.074 218.16
L499.346 216
L499.482 216
L499.619 211.68
L499.755 211.68
L499.891 216
L500.571 216
L500.707 237.6
L501.116 237.6
L501.252 239.76
L501.388 237.6
L503.021 237.6
L503.157 231.12
L503.293 233.28
L503.565 230.04
L503.701 228.96
L504.382 228.96
L504.654 226.8
L504.79 228.96
L504.926 224.64
L505.062 224.64
L505.199 222.48
L505.335 224.64
L505.471 237.6
L505.607 228.96
L505.743 231.12
L505.879 231.12
L506.287 237.6
L507.512 237.6
L507.784 232.2
L507.92 231.12
L508.329 232.2
L508.465 231.12
L509.145 233.28
L509.418 237.6
L509.962 237.6
L510.37 233.28
L510.642 235.44
L511.187 231.984
L511.323 232.2
L511.731 228.96
L511.867 226.8
L512.003 227.88
L512.14 220.32
L512.276 224.64
L512.412 216
L512.684 216
L512.82 213.84
L512.956 213.84
L513.228 212.544
L513.364 211.68
L513.5 207.36
L513.637 207.36
L513.773 205.2
L514.181 205.2
L514.589 203.04
L514.861 203.04
L514.998 201.96
L515.134 202.176
L515.27 202.176
L515.542 199.8
L515.678 200.88
L515.95 200.232
L516.086 200.232
L516.495 198.72
L516.631 194.4
L516.767 194.4
L517.039 193.32
L517.311 191.808
L517.583 190.08
L517.72 190.512
L517.856 190.08
L518.128 190.08
L518.4 192.24
L518.4 192.24" style="fill:none;stroke:#0000ff;"/>
   </g>
   <g id="line2d_3">
    <path clip-path="url(#p7ff5b81e1d)" d="
M451.984 200.406
L452.801 195.339
L453.073 194.161
L453.754 187.918
L454.162 186.324
L454.706 188.507
L455.387 183.929
L455.795 183.203
L456.34 180.659
L456.884 171.763
L457.564 170.88
L457.973 170.851
L458.517 167.332
L459.061 169.153
L460.15 165.354
L460.695 160.599
L461.239 163.061
L461.783 162.249
L462.328 162.961
L463.961 153.655
L464.505 149.902
L465.186 153.131
L466.275 155.799
L467.227 157.764
L468.044 157.603
L468.86 157.601
L469.405 164.664
L470.221 161.821
L470.902 159.49
L471.038 159.085
L471.855 153.262
L472.399 150.921
L472.807 149.767
L473.216 149.119
L473.76 149.798
L474.304 149.572
L474.849 148.3
L475.529 143.015
L476.074 140.666
L476.754 137.031
L477.026 135.956
L477.571 128.969
L478.115 130.047
L478.66 129.404
L479.476 129.973
L479.748 130.09
L480.293 126.362
L480.973 118.59
L481.79 115.05
L482.062 114.057
L482.47 113.028
L483.015 112.955
L484.103 114.22
L484.648 106.939
L485.192 118.241
L485.873 108.995
L486.281 101.413
L486.825 104.048
L487.778 92.2465
L487.914 90.7832
L488.459 91.8707
L489.003 86.6547
L489.547 86.6555
L490.092 89.0802
L490.772 89.0818
L491.317 89.422
L492.405 90.7179
L492.814 91.5185
L494.447 167.841
L495.536 231.736
L496.216 238.223
L496.624 239.861
L497.577 221.276
L497.849 217.988
L498.258 214.736
L498.802 217.291
L499.346 213.344
L499.891 213.633
L500.435 213.322
L500.98 211.344
L501.66 218.369
L502.068 219.861
L502.885 227.496
L503.293 229.615
L503.701 230.432
L504.79 224.148
L505.471 214.873
L505.879 212.085
L506.56 218.221
L507.104 220.938
L507.92 226.45
L508.193 227.401
L508.601 227.82
L509.145 227.528
L509.826 226.363
L510.234 225.261
L510.779 219.317
L511.323 220.766
L512.276 220.076
L512.412 219.955
L513.909 202.175
L514.317 197.162
L514.998 191.031
L515.27 189.537
L515.814 188.239
L516.222 187.891
L516.767 190.002
L517.447 188.027
L517.856 187.715
L518.4 185.486
L518.4 185.486" style="fill:none;stroke:#ff0000;"/>
   </g>
   <g id="matplotlib.axis_1">
    <g id="xtick_1">
     <g id="line2d_4">
      <path clip-path="url(#p7ff5b81e1d)" d="
M116.776 388.8
L116.776 43.2" style="fill:none;stroke:#000000;stroke-dasharray:1.000000,3.000000;stroke-dashoffset:0.0;stroke-linecap:butt;stroke-width:0.5;"/>
     </g>
     <g id="line2d_5">
      <defs>
       <path d="
M0 0
L0 -4" id="mcb557df647" style="stroke:#000000;stroke-linecap:butt;stroke-width:0.5;"/>
      </defs>
      <g>
       <use style="stroke:#000000;stroke-linecap:butt;stroke-width:0.5;" x="116.776097561" xlink:href="#mcb557df647" y="388.8"/>
      </g>
     </g>
     <g id="line2d_6">
      <defs>
       <path d="
M0 0
L0 4" id="mdad270ee8e" style="stroke:#000000;stroke-linecap:butt;stroke-width:0.5;"/>
      </defs>
      <g>
       <use style="stroke:#000000;stroke-linecap:butt;stroke-width:0.5;" x="116.776097561" xlink:href="#mdad270ee8e" y="43.2"/>
      </g>
     </g>
     <g id="text_1">
      <!-- 2006 -->
      <defs>
       <path d="
M31.7812 66.4062
Q24.1719 66.4062 20.3281 58.9062
Q16.5 51.4219 16.5 36.375
Q16.5 21.3906 20.3281 13.8906
Q24.1719 6.39062 31.7812 6.39062
Q39.4531 6.39062 43.2812 13.8906
Q47.125 21.3906 47.125 36.375
Q47.125 51.4219 43.2812 58.9062
Q39.4531 66.4062 31.7812 66.4062
M31.7812 74.2188
Q44.0469 74.2188 50.5156 64.5156
Q56.9844 54.8281 56.9844 36.375
Q56.9844 17.9688 50.5156 8.26562
Q44.0469 -1.42188 31.7812 -1.42188
Q19.5312 -1.42188 13.0625 8.26562
Q6.59375 17.9688 6.59375 36.375
Q6.59375 54.8281 13.0625 64.5156
Q19.5312 74.2188 31.7812 74.2188" id="DejaVuSans-30"/>
       <path d="
M19.1875 8.29688
L53.6094 8.29688
L53.6094 0
L7.32812 0
L7.32812 8.29688
Q12.9375 14.1094 22.625 23.8906
Q32.3281 33.6875 34.8125 36.5312
Q39.5469 41.8438 41.4219 45.5312
Q43.3125 49.2188 43.3125 52.7812
Q43.3125 58.5938 39.2344 62.25
Q35.1562 65.9219 28.6094 65.9219
Q23.9688 65.9219 18.8125 64.3125
Q13.6719 62.7031 7.8125 59.4219
L7.8125 69.3906
Q13.7656 71.7812 18.9375 73
Q24.125 74.2188 28.4219 74.2188
Q39.75 74.2188 46.4844 68.5469
Q53.2188 62.8906 53.2188 53.4219
Q53.2188 48.9219 51.5312 44.8906
Q49.8594 40.875 45.4062 35.4062
Q44.1875 33.9844 37.6406 27.2188
Q31.1094 20.4531 19.1875 8.29688" id="DejaVuSans-32"/>
       <path d="
M33.0156 40.375
Q26.375 40.375 22.4844 35.8281
Q18.6094 31.2969 18.6094 23.3906
Q18.6094 15.5312 22.4844 10.9531
Q26.375 6.39062 33.0156 6.39062
Q39.6562 6.39062 43.5312 10.9531
Q47.4062 15.5312 47.4062 23.3906
Q47.4062 31.2969 43.5312 35.8281
Q39.6562 40.375 33.0156 40.375
M52.5938 71.2969
L52.5938 62.3125
Q48.875 64.0625 45.0938 64.9844
Q41.3125 65.9219 37.5938 65.9219
Q27.8281 65.9219 22.6719 59.3281
Q17.5312 52.7344 16.7969 39.4062
Q19.6719 43.6562 24.0156 45.9219
Q28.375 48.1875 33.5938 48.1875
Q44.5781 48.1875 50.9531 41.5156
Q57.3281 34.8594 57.3281 23.3906
Q57.3281 12.1562 50.6875 5.35938
Q44.0469 -1.42188 33.0156 -1.42188
Q20.3594 -1.42188 13.6719 8.26562
Q6.98438 17.9688 6.98438 36.375
Q6.98438 53.6562 15.1875 63.9375
Q23.3906 74.2188 37.2031 74.2188
Q40.9219 74.2188 44.7031 73.4844
Q48.4844 72.75 52.5938 71.2969" id="DejaVuSans-36"/>
      </defs>
      <g transform="translate(102.323597561 401.70625)scale(0.12 -0.12)">
       <use xlink:href="#DejaVuSans-32"/>
       <use x="63.623046875" xlink:href="#DejaVuSans-30"/>
       <use x="127.24609375" xlink:href="#DejaVuSans-30"/>
       <use x="190.869140625" xlink:href="#DejaVuSans-36"/>
      </g>
     </g>
    </g>
    <g id="xtick_2">
     <g id="line2d_7">
      <path clip-path="url(#p7ff5b81e1d)" d="
M166.452 388.8
L166.452 43.2" style="fill:none;stroke:#000000;stroke-dasharray:1.000000,3.000000;stroke-dashoffset:0.0;stroke-linecap:butt;stroke-width:0.5;"/>
     </g>
     <g id="line2d_8">
      <g>
       <use style="stroke:#000000;stroke-linecap:butt;stroke-width:0.5;" x="166.451707317" xlink:href="#mcb557df647" y="388.8"/>
      </g>
     </g>
     <g id="line2d_9">
      <g>
       <use style="stroke:#000000;stroke-linecap:butt;stroke-width:0.5;" x="166.451707317" xlink:href="#mdad270ee8e" y="43.2"/>
      </g>
     </g>
     <g id="text_2">
      <!-- 2007 -->
      <defs>
       <path d="
M8.20312 72.9062
L55.0781 72.9062
L55.0781 68.7031
L28.6094 0
L18.3125 0
L43.2188 64.5938
L8.20312 64.5938
z
" id="DejaVuSans-37"/>
      </defs>
      <g transform="translate(152.134207317 401.70625)scale(0.12 -0.12)">
       <use xlink:href="#DejaVuSans-32"/>
       <use x="63.623046875" xlink:href="#DejaVuSans-30"/>
       <use x="127.24609375" xlink:href="#DejaVuSans-30"/>
       <use x="190.869140625" xlink:href="#DejaVuSans-37"/>
      </g>
     </g>
    </g>
    <g id="xtick_3">
     <g id="line2d_10">
      <path clip-path="url(#p7ff5b81e1d)" d="
M216.127 388.8
L216.127 43.2" style="fill:none;stroke:#000000;stroke-dasharray:1.000000,3.000000;stroke-dashoffset:0.0;stroke-linecap:butt;stroke-width:0.5;"/>
     </g>
     <g id="line2d_11">
      <g>
       <use style="stroke:#000000;stroke-linecap:butt;stroke-width:0.5;" x="216.127317073" xlink:href="#mcb557df647" y="388.8"/>
      </g>
     </g>
     <g id="line2d_12">
      <g>
       <use style="stroke:#000000;stroke-linecap:butt;stroke-width:0.5;" x="216.127317073" xlink:href="#mdad270ee8e" y="43.2"/>
      </g>
     </g>
     <g id="text_3">
      <!-- 2008 -->
      <defs>
       <path d="
M31.7812 34.625
Q24.75 34.625 20.7188 30.8594
Q16.7031 27.0938 16.7031 20.5156
Q16.7031 13.9219 20.7188 10.1562
Q24.75 6.39062 31.7812 6.39062
Q38.8125 6.39062 42.8594 10.1719
Q46.9219 13.9688 46.9219 20.5156
Q46.9219 27.0938 42.8906 30.8594
Q38.875 34.625 31.7812 34.625
M21.9219 38.8125
Q15.5781 40.375 12.0312 44.7188
Q8.5 49.0781 8.5 55.3281
Q8.5 64.0625 14.7188 69.1406
Q20.9531 74.2188 31.7812 74.2188
Q42.6719 74.2188 48.875 69.1406
Q55.0781 64.0625 55.0781 55.3281
Q55.0781 49.0781 51.5312 44.7188
Q48 40.375 41.7031 38.8125
Q48.8281 37.1562 52.7969 32.3125
Q56.7812 27.4844 56.7812 20.5156
Q56.7812 9.90625 50.3125 4.23438
Q43.8438 -1.42188 31.7812 -1.42188
Q19.7344 -1.42188 13.25 4.23438
Q6.78125 9.90625 6.78125 20.5156
Q6.78125 27.4844 10.7812 32.3125
Q14.7969 37.1562 21.9219 38.8125
M18.3125 54.3906
Q18.3125 48.7344 21.8438 45.5625
Q25.3906 42.3906 31.7812 42.3906
Q38.1406 42.3906 41.7188 45.5625
Q45.3125 48.7344 45.3125 54.3906
Q45.3125 60.0625 41.7188 63.2344
Q38.1406 66.4062 31.7812 66.4062
Q25.3906 66.4062 21.8438 63.2344
Q18.3125 60.0625 18.3125 54.3906" id="DejaVuSans-38"/>
      </defs>
      <g transform="translate(201.707629573 401.70625)scale(0.12 -0.12)">
       <use xlink:href="#DejaVuSans-32"/>
       <use x="63.623046875" xlink:href="#DejaVuSans-30"/>
       <use x="127.24609375" xlink:href="#DejaVuSans-30"/>
       <use x="190.869140625" xlink:href="#DejaVuSans-38"/>
      </g>
     </g>
    </g>
    <g id="xtick_4">
     <g id="line2d_13">
      <path clip-path="url(#p7ff5b81e1d)" d="
M265.939 388.8
L265.939 43.2" style="fill:none;stroke:#000000;stroke-dasharray:1.000000,3.000000;stroke-dashoffset:0.0;stroke-linecap:butt;stroke-width:0.5;"/>
     </g>
     <g id="line2d_14">
      <g>
       <use style="stroke:#000000;stroke-linecap:butt;stroke-width:0.5;" x="265.93902439" xlink:href="#mcb557df647" y="388.8"/>
      </g>
     </g>
     <g id="line2d_15">
      <g>
       <use style="stroke:#000000;stroke-linecap:butt;stroke-width:0.5;" x="265.93902439" xlink:href="#mdad270ee8e" y="43.2"/>
      </g>
     </g>
     <g id="text_4">
      <!-- 2009 -->
      <defs>
       <path d="
M10.9844 1.51562
L10.9844 10.5
Q14.7031 8.73438 18.5 7.8125
Q22.3125 6.89062 25.9844 6.89062
Q35.75 6.89062 40.8906 13.4531
Q46.0469 20.0156 46.7812 33.4062
Q43.9531 29.2031 39.5938 26.9531
Q35.25 24.7031 29.9844 24.7031
Q19.0469 24.7031 12.6719 31.3125
Q6.29688 37.9375 6.29688 49.4219
Q6.29688 60.6406 12.9375 67.4219
Q19.5781 74.2188 30.6094 74.2188
Q43.2656 74.2188 49.9219 64.5156
Q56.5938 54.8281 56.5938 36.375
Q56.5938 19.1406 48.4062 8.85938
Q40.2344 -1.42188 26.4219 -1.42188
Q22.7031 -1.42188 18.8906 -0.6875
Q15.0938 0.046875 10.9844 1.51562
M30.6094 32.4219
Q37.25 32.4219 41.125 36.9531
Q45.0156 41.5 45.0156 49.4219
Q45.0156 57.2812 41.125 61.8438
Q37.25 66.4062 30.6094 66.4062
Q23.9688 66.4062 20.0938 61.8438
Q16.2188 57.2812 16.2188 49.4219
Q16.2188 41.5 20.0938 36.9531
Q23.9688 32.4219 30.6094 32.4219" id="DejaVuSans-39"/>
      </defs>
      <g transform="translate(251.53058689 401.70625)scale(0.12 -0.12)">
       <use xlink:href="#DejaVuSans-32"/>
       <use x="63.623046875" xlink:href="#DejaVuSans-30"/>
       <use x="127.24609375" xlink:href="#DejaVuSans-30"/>
       <use x="190.869140625" xlink:href="#DejaVuSans-39"/>
      </g>
     </g>
    </g>
    <g id="xtick_5">
     <g id="line2d_16">
      <path clip-path="url(#p7ff5b81e1d)" d="
M315.615 388.8
L315.615 43.2" style="fill:none;stroke:#000000;stroke-dasharray:1.000000,3.000000;stroke-dashoffset:0.0;stroke-linecap:butt;stroke-width:0.5;"/>
     </g>
     <g id="line2d_17">
      <g>
       <use style="stroke:#000000;stroke-linecap:butt;stroke-width:0.5;" x="315.614634146" xlink:href="#mcb557df647" y="388.8"/>
      </g>
     </g>
     <g id="line2d_18">
      <g>
       <use style="stroke:#000000;stroke-linecap:butt;stroke-width:0.5;" x="315.614634146" xlink:href="#mdad270ee8e" y="43.2"/>
      </g>
     </g>
     <g id="text_5">
      <!-- 2010 -->
      <defs>
       <path d="
M12.4062 8.29688
L28.5156 8.29688
L28.5156 63.9219
L10.9844 60.4062
L10.9844 69.3906
L28.4219 72.9062
L38.2812 72.9062
L38.2812 8.29688
L54.3906 8.29688
L54.3906 0
L12.4062 0
z
" id="DejaVuSans-31"/>
      </defs>
      <g transform="translate(301.182759146 401.70625)scale(0.12 -0.12)">
       <use xlink:href="#DejaVuSans-32"/>
       <use x="63.623046875" xlink:href="#DejaVuSans-30"/>
       <use x="127.24609375" xlink:href="#DejaVuSans-31"/>
       <use x="190.869140625" xlink:href="#DejaVuSans-30"/>
      </g>
     </g>
    </g>
    <g id="xtick_6">
     <g id="line2d_19">
      <path clip-path="url(#p7ff5b81e1d)" d="
M365.29 388.8
L365.29 43.2" style="fill:none;stroke:#000000;stroke-dasharray:1.000000,3.000000;stroke-dashoffset:0.0;stroke-linecap:butt;stroke-width:0.5;"/>
     </g>
     <g id="line2d_20">
      <g>
       <use style="stroke:#000000;stroke-linecap:butt;stroke-width:0.5;" x="365.290243902" xlink:href="#mcb557df647" y="388.8"/>
      </g>
     </g>
     <g id="line2d_21">
      <g>
       <use style="stroke:#000000;stroke-linecap:butt;stroke-width:0.5;" x="365.290243902" xlink:href="#mdad270ee8e" y="43.2"/>
      </g>
     </g>
     <g id="text_6">
      <!-- 2011 -->
      <g transform="translate(351.013993902 401.70625)scale(0.12 -0.12)">
       <use xlink:href="#DejaVuSans-32"/>
       <use x="63.623046875" xlink:href="#DejaVuSans-30"/>
       <use x="127.24609375" xlink:href="#DejaVuSans-31"/>
       <use x="190.869140625" xlink:href="#DejaVuSans-31"/>
      </g>
     </g>
    </g>
    <g id="xtick_7">
     <g id="line2d_22">
      <path clip-path="url(#p7ff5b81e1d)" d="
M414.966 388.8
L414.966 43.2" style="fill:none;stroke:#000000;stroke-dasharray:1.000000,3.000000;stroke-dashoffset:0.0;stroke-linecap:butt;stroke-width:0.5;"/>
     </g>
     <g id="line2d_23">
      <g>
       <use style="stroke:#000000;stroke-linecap:butt;stroke-width:0.5;" x="414.965853659" xlink:href="#mcb557df647" y="388.8"/>
      </g>
     </g>
     <g id="line2d_24">
      <g>
       <use style="stroke:#000000;stroke-linecap:butt;stroke-width:0.5;" x="414.965853659" xlink:href="#mdad270ee8e" y="43.2"/>
      </g>
     </g>
     <g id="text_7">
      <!-- 2012 -->
      <g transform="translate(400.736478659 401.70625)scale(0.12 -0.12)">
       <use xlink:href="#DejaVuSans-32"/>
       <use x="63.623046875" xlink:href="#DejaVuSans-30"/>
       <use x="127.24609375" xlink:href="#DejaVuSans-31"/>
       <use x="190.869140625" xlink:href="#DejaVuSans-32"/>
      </g>
     </g>
    </g>
    <g id="xtick_8">
     <g id="line2d_25">
      <path clip-path="url(#p7ff5b81e1d)" d="
M464.778 388.8
L464.778 43.2" style="fill:none;stroke:#000000;stroke-dasharray:1.000000,3.000000;stroke-dashoffset:0.0;stroke-linecap:butt;stroke-width:0.5;"/>
     </g>
     <g id="line2d_26">
      <g>
       <use style="stroke:#000000;stroke-linecap:butt;stroke-width:0.5;" x="464.777560976" xlink:href="#mcb557df647" y="388.8"/>
      </g>
     </g>
     <g id="line2d_27">
      <g>
       <use style="stroke:#000000;stroke-linecap:butt;stroke-width:0.5;" x="464.777560976" xlink:href="#mdad270ee8e" y="43.2"/>
      </g>
     </g>
     <g id="text_8">
      <!-- 2013 -->
      <defs>
       <path d="
M40.5781 39.3125
Q47.6562 37.7969 51.625 33
Q55.6094 28.2188 55.6094 21.1875
Q55.6094 10.4062 48.1875 4.48438
Q40.7656 -1.42188 27.0938 -1.42188
Q22.5156 -1.42188 17.6562 -0.515625
Q12.7969 0.390625 7.625 2.20312
L7.625 11.7188
Q11.7188 9.32812 16.5938 8.10938
Q21.4844 6.89062 26.8125 6.89062
Q36.0781 6.89062 40.9375 10.5469
Q45.7969 14.2031 45.7969 21.1875
Q45.7969 27.6406 41.2812 31.2656
Q36.7656 34.9062 28.7188 34.9062
L20.2188 34.9062
L20.2188 43.0156
L29.1094 43.0156
Q36.375 43.0156 40.2344 45.9219
Q44.0938 48.8281 44.0938 54.2969
Q44.0938 59.9062 40.1094 62.9062
Q36.1406 65.9219 28.7188 65.9219
Q24.6562 65.9219 20.0156 65.0312
Q15.375 64.1562 9.8125 62.3125
L9.8125 71.0938
Q15.4375 72.6562 20.3438 73.4375
Q25.25 74.2188 29.5938 74.2188
Q40.8281 74.2188 47.3594 69.1094
Q53.9062 64.0156 53.9062 55.3281
Q53.9062 49.2656 50.4375 45.0938
Q46.9688 40.9219 40.5781 39.3125" id="DejaVuSans-33"/>
      </defs>
      <g transform="translate(450.428185976 401.70625)scale(0.12 -0.12)">
       <use xlink:href="#DejaVuSans-32"/>
       <use x="63.623046875" xlink:href="#DejaVuSans-30"/>
       <use x="127.24609375" xlink:href="#DejaVuSans-31"/>
       <use x="190.869140625" xlink:href="#DejaVuSans-33"/>
      </g>
     </g>
    </g>
    <g id="xtick_9">
     <g id="line2d_28">
      <path clip-path="url(#p7ff5b81e1d)" d="
M514.453 388.8
L514.453 43.2" style="fill:none;stroke:#000000;stroke-dasharray:1.000000,3.000000;stroke-dashoffset:0.0;stroke-linecap:butt;stroke-width:0.5;"/>
     </g>
     <g id="line2d_29">
      <g>
       <use style="stroke:#000000;stroke-linecap:butt;stroke-width:0.5;" x="514.453170732" xlink:href="#mcb557df647" y="388.8"/>
      </g>
     </g>
     <g id="line2d_30">
      <g>
       <use style="stroke:#000000;stroke-linecap:butt;stroke-width:0.5;" x="514.453170732" xlink:href="#mdad270ee8e" y="43.2"/>
      </g>
     </g>
     <g id="text_9">
      <!-- 2014 -->
      <defs>
       <path d="
M37.7969 64.3125
L12.8906 25.3906
L37.7969 25.3906
z

M35.2031 72.9062
L47.6094 72.9062
L47.6094 25.3906
L58.0156 25.3906
L58.0156 17.1875
L47.6094 17.1875
L47.6094 0
L37.7969 0
L37.7969 17.1875
L4.89062 17.1875
L4.89062 26.7031
z
" id="DejaVuSans-34"/>
      </defs>
      <g transform="translate(499.959420732 401.70625)scale(0.12 -0.12)">
       <use xlink:href="#DejaVuSans-32"/>
       <use x="63.623046875" xlink:href="#DejaVuSans-30"/>
       <use x="127.24609375" xlink:href="#DejaVuSans-31"/>
       <use x="190.869140625" xlink:href="#DejaVuSans-34"/>
      </g>
     </g>
    </g>
   </g>
   <g id="matplotlib.axis_2">
    <g id="ytick_1">
     <g id="line2d_31">
      <path clip-path="url(#p7ff5b81e1d)" d="
M72 388.8
L518.4 388.8" style="fill:none;stroke:#000000;stroke-dasharray:1.000000,3.000000;stroke-dashoffset:0.0;stroke-linecap:butt;stroke-width:0.5;"/>
     </g>
     <g id="line2d_32">
      <defs>
       <path d="
M0 0
L4 0" id="mc8fcea1516" style="stroke:#000000;stroke-linecap:butt;stroke-width:0.5;"/>
      </defs>
      <g>
       <use style="stroke:#000000;stroke-linecap:butt;stroke-width:0.5;" x="72.0" xlink:href="#mc8fcea1516" y="388.8"/>
      </g>
     </g>
     <g id="line2d_33">
      <defs>
       <path d="
M0 0
L-4 0" id="m0d5b0a6425" style="stroke:#000000;stroke-linecap:butt;stroke-width:0.5;"/>
      </defs>
      <g>
       <use style="stroke:#000000;stroke-linecap:butt;stroke-width:0.5;" x="518.4" xlink:href="#m0d5b0a6425" y="388.8"/>
      </g>
     </g>
     <g id="text_10">
      <!-- 0 -->
      <g transform="translate(61.953125 393.1678125)scale(0.12 -0.12)">
       <use xlink:href="#DejaVuSans-30"/>
      </g>
     </g>
    </g>
    <g id="ytick_2">
     <g id="line2d_34">
      <path clip-path="url(#p7ff5b81e1d)" d="
M72 345.6
L518.4 345.6" style="fill:none;stroke:#000000;stroke-dasharray:1.000000,3.000000;stroke-dashoffset:0.0;stroke-linecap:butt;stroke-width:0.5;"/>
     </g>
     <g id="line2d_35">
      <g>
       <use style="stroke:#000000;stroke-linecap:butt;stroke-width:0.5;" x="72.0" xlink:href="#mc8fcea1516" y="345.6"/>
      </g>
     </g>
     <g id="line2d_36">
      <g>
       <use style="stroke:#000000;stroke-linecap:butt;stroke-width:0.5;" x="518.4" xlink:href="#m0d5b0a6425" y="345.6"/>
      </g>
     </g>
     <g id="text_11">
      <!-- 10 -->
      <g transform="translate(54.845 349.9678125)scale(0.12 -0.12)">
       <use xlink:href="#DejaVuSans-31"/>
       <use x="63.623046875" xlink:href="#DejaVuSans-30"/>
      </g>
     </g>
    </g>
    <g id="ytick_3">
     <g id="line2d_37">
      <path clip-path="url(#p7ff5b81e1d)" d="
M72 302.4
L518.4 302.4" style="fill:none;stroke:#000000;stroke-dasharray:1.000000,3.000000;stroke-dashoffset:0.0;stroke-linecap:butt;stroke-width:0.5;"/>
     </g>
     <g id="line2d_38">
      <g>
       <use style="stroke:#000000;stroke-linecap:butt;stroke-width:0.5;" x="72.0" xlink:href="#mc8fcea1516" y="302.4"/>
      </g>
     </g>
     <g id="line2d_39">
      <g>
       <use style="stroke:#000000;stroke-linecap:butt;stroke-width:0.5;" x="518.4" xlink:href="#m0d5b0a6425" y="302.4"/>
      </g>
     </g>
     <g id="text_12">
      <!-- 20 -->
      <g transform="translate(54.40625 306.7678125)scale(0.12 -0.12)">
       <use xlink:href="#DejaVuSans-32"/>
       <use x="63.623046875" xlink:href="#DejaVuSans-30"/>
      </g>
     </g>
    </g>
    <g id="ytick_4">
     <g id="line2d_40">
      <path clip-path="url(#p7ff5b81e1d)" d="
M72 259.2
L518.4 259.2" style="fill:none;stroke:#000000;stroke-dasharray:1.000000,3.000000;stroke-dashoffset:0.0;stroke-linecap:butt;stroke-width:0.5;"/>
     </g>
     <g id="line2d_41">
      <g>
       <use style="stroke:#000000;stroke-linecap:butt;stroke-width:0.5;" x="72.0" xlink:href="#mc8fcea1516" y="259.2"/>
      </g>
     </g>
     <g id="line2d_42">
      <g>
       <use style="stroke:#000000;stroke-linecap:butt;stroke-width:0.5;" x="518.4" xlink:href="#m0d5b0a6425" y="259.2"/>
      </g>
     </g>
     <g id="text_13">
      <!-- 30 -->
      <g transform="translate(54.441875 263.5678125)scale(0.12 -0.12)">
       <use xlink:href="#DejaVuSans-33"/>
       <use x="63.623046875" xlink:href="#DejaVuSans-30"/>
      </g>
     </g>
    </g>
    <g id="ytick_5">
     <g id="line2d_43">
      <path clip-path="url(#p7ff5b81e1d)" d="
M72 216
L518.4 216" style="fill:none;stroke:#000000;stroke-dasharray:1.000000,3.000000;stroke-dashoffset:0.0;stroke-linecap:butt;stroke-width:0.5;"/>
     </g>
     <g id="line2d_44">
      <g>
       <use style="stroke:#000000;stroke-linecap:butt;stroke-width:0.5;" x="72.0" xlink:href="#mc8fcea1516" y="216.0"/>
      </g>
     </g>
     <g id="line2d_45">
      <g>
       <use style="stroke:#000000;stroke-linecap:butt;stroke-width:0.5;" x="518.4" xlink:href="#m0d5b0a6425" y="216.0"/>
      </g>
     </g>
     <g id="text_14">
      <!-- 40 -->
      <g transform="translate(54.11375 220.3678125)scale(0.12 -0.12)">
       <use xlink:href="#DejaVuSans-34"/>
       <use x="63.623046875" xlink:href="#DejaVuSans-30"/>
      </g>
     </g>
    </g>
    <g id="ytick_6">
     <g id="line2d_46">
      <path clip-path="url(#p7ff5b81e1d)" d="
M72 172.8
L518.4 172.8" style="fill:none;stroke:#000000;stroke-dasharray:1.000000,3.000000;stroke-dashoffset:0.0;stroke-linecap:butt;stroke-width:0.5;"/>
     </g>
     <g id="line2d_47">
      <g>
       <use style="stroke:#000000;stroke-linecap:butt;stroke-width:0.5;" x="72.0" xlink:href="#mc8fcea1516" y="172.8"/>
      </g>
     </g>
     <g id="line2d_48">
      <g>
       <use style="stroke:#000000;stroke-linecap:butt;stroke-width:0.5;" x="518.4" xlink:href="#m0d5b0a6425" y="172.8"/>
      </g>
     </g>
     <g id="text_15">
      <!-- 50 -->
      <defs>
       <path d="
M10.7969 72.9062
L49.5156 72.9062
L49.5156 64.5938
L19.8281 64.5938
L19.8281 46.7344
Q21.9688 47.4688 24.1094 47.8281
Q26.2656 48.1875 28.4219 48.1875
Q40.625 48.1875 47.75 41.5
Q54.8906 34.8125 54.8906 23.3906
Q54.8906 11.625 47.5625 5.09375
Q40.2344 -1.42188 26.9062 -1.42188
Q22.3125 -1.42188 17.5469 -0.640625
Q12.7969 0.140625 7.71875 1.70312
L7.71875 11.625
Q12.1094 9.23438 16.7969 8.0625
Q21.4844 6.89062 26.7031 6.89062
Q35.1562 6.89062 40.0781 11.3281
Q45.0156 15.7656 45.0156 23.3906
Q45.0156 31 40.0781 35.4375
Q35.1562 39.8906 26.7031 39.8906
Q22.75 39.8906 18.8125 39.0156
Q14.8906 38.1406 10.7969 36.2812
z
" id="DejaVuSans-35"/>
      </defs>
      <g transform="translate(54.453125 177.1678125)scale(0.12 -0.12)">
       <use xlink:href="#DejaVuSans-35"/>
       <use x="63.623046875" xlink:href="#DejaVuSans-30"/>
      </g>
     </g>
    </g>
    <g id="ytick_7">
     <g id="line2d_49">
      <path clip-path="url(#p7ff5b81e1d)" d="
M72 129.6
L518.4 129.6" style="fill:none;stroke:#000000;stroke-dasharray:1.000000,3.000000;stroke-dashoffset:0.0;stroke-linecap:butt;stroke-width:0.5;"/>
     </g>
     <g id="line2d_50">
      <g>
       <use style="stroke:#000000;stroke-linecap:butt;stroke-width:0.5;" x="72.0" xlink:href="#mc8fcea1516" y="129.6"/>
      </g>
     </g>
     <g id="line2d_51">
      <g>
       <use style="stroke:#000000;stroke-linecap:butt;stroke-width:0.5;" x="518.4" xlink:href="#m0d5b0a6425" y="129.6"/>
      </g>
     </g>
     <g id="text_16">
      <!-- 60 -->
      <g transform="translate(54.365 133.9678125)scale(0.12 -0.12)">
       <use xlink:href="#DejaVuSans-36"/>
       <use x="63.623046875" xlink:href="#DejaVuSans-30"/>
      </g>
     </g>
    </g>
    <g id="ytick_8">
     <g id="line2d_52">
      <path clip-path="url(#p7ff5b81e1d)" d="
M72 86.4
L518.4 86.4" style="fill:none;stroke:#000000;stroke-dasharray:1.000000,3.000000;stroke-dashoffset:0.0;stroke-linecap:butt;stroke-width:0.5;"/>
     </g>
     <g id="line2d_53">
      <g>
       <use style="stroke:#000000;stroke-linecap:butt;stroke-width:0.5;" x="72.0" xlink:href="#mc8fcea1516" y="86.4"/>
      </g>
     </g>
     <g id="line2d_54">
      <g>
       <use style="stroke:#000000;stroke-linecap:butt;stroke-width:0.5;" x="518.4" xlink:href="#m0d5b0a6425" y="86.4"/>
      </g>
     </g>
     <g id="text_17">
      <!-- 70 -->
      <g transform="translate(54.51125 90.7678125)scale(0.12 -0.12)">
       <use xlink:href="#DejaVuSans-37"/>
       <use x="63.623046875" xlink:href="#DejaVuSans-30"/>
      </g>
     </g>
    </g>
    <g id="ytick_9">
     <g id="line2d_55">
      <path clip-path="url(#p7ff5b81e1d)" d="
M72 43.2
L518.4 43.2" style="fill:none;stroke:#000000;stroke-dasharray:1.000000,3.000000;stroke-dashoffset:0.0;stroke-linecap:butt;stroke-width:0.5;"/>
     </g>
     <g id="line2d_56">
      <g>
       <use style="stroke:#000000;stroke-linecap:butt;stroke-width:0.5;" x="72.0" xlink:href="#mc8fcea1516" y="43.2"/>
      </g>
     </g>
     <g id="line2d_57">
      <g>
       <use style="stroke:#000000;stroke-linecap:butt;stroke-width:0.5;" x="518.4" xlink:href="#m0d5b0a6425" y="43.2"/>
      </g>
     </g>
     <g id="text_18">
      <!-- 80 -->
      <g transform="translate(54.340625 47.5678125)scale(0.12 -0.12)">
       <use xlink:href="#DejaVuSans-38"/>
       <use x="63.623046875" xlink:href="#DejaVuSans-30"/>
      </g>
     </g>
    </g>
   </g>
   <g id="patch_3">
    <path d="
M72 43.2
L518.4 43.2" style="fill:none;stroke:#000000;"/>
   </g>
   <g id="patch_4">
    <path d="
M518.4 388.8
L518.4 43.2" style="fill:none;stroke:#000000;"/>
   </g>
   <g id="patch_5">
    <path d="
M72 388.8
L518.4 388.8" style="fill:none;stroke:#000000;"/>
   </g>
   <g id="patch_6">
    <path d="
M72 388.8
L72 43.2" style="fill:none;stroke:#000000;"/>
   </g>
   <g id="text_19">
    <!--  -->
    <g transform="translate(295.2 -22.6589)scale(0.144 -0.144)"/>
    <!-- model: (10, 10, 5) - ../data/csv/19-05/wholesale-daily-('Uttar Pradesh', 'Bareilly', 'Apple', 'Delicious', 0.9).csv,  -->
    <defs>
     <path d="
M19.6719 64.7969
L19.6719 37.4062
L32.0781 37.4062
Q38.9688 37.4062 42.7188 40.9688
Q46.4844 44.5312 46.4844 51.125
Q46.4844 57.6719 42.7188 61.2344
Q38.9688 64.7969 32.0781 64.7969
z

M9.8125 72.9062
L32.0781 72.9062
Q44.3438 72.9062 50.6094 67.3594
Q56.8906 61.8125 56.8906 51.125
Q56.8906 40.3281 50.6094 34.8125
Q44.3438 29.2969 32.0781 29.2969
L19.6719 29.2969
L19.6719 0
L9.8125 0
z
" id="DejaVuSans-50"/>
     <path d="
M11.7188 12.4062
L22.0156 12.4062
L22.0156 0
L11.7188 0
z

M11.7188 51.7031
L22.0156 51.7031
L22.0156 39.3125
L11.7188 39.3125
z
" id="DejaVuSans-3a"/>
     <path d="
M19.6719 64.7969
L19.6719 8.10938
L31.5938 8.10938
Q46.6875 8.10938 53.6875 14.9375
Q60.6875 21.7812 60.6875 36.5312
Q60.6875 51.1719 53.6875 57.9844
Q46.6875 64.7969 31.5938 64.7969
z

M9.8125 72.9062
L30.0781 72.9062
Q51.2656 72.9062 61.1719 64.0938
Q71.0938 55.2812 71.0938 36.5312
Q71.0938 17.6719 61.125 8.82812
Q51.1719 0 30.0781 0
L9.8125 0
z
" id="DejaVuSans-44"/>
     <path id="DejaVuSans-20"/>
     <path d="
M17.9219 72.9062
L17.9219 45.7969
L9.625 45.7969
L9.625 72.9062
z
" id="DejaVuSans-27"/>
     <path d="
M54.8906 33.0156
L54.8906 0
L45.9062 0
L45.9062 32.7188
Q45.9062 40.4844 42.875 44.3281
Q39.8438 48.1875 33.7969 48.1875
Q26.5156 48.1875 22.3125 43.5469
Q18.1094 38.9219 18.1094 30.9062
L18.1094 0
L9.07812 0
L9.07812 75.9844
L18.1094 75.9844
L18.1094 46.1875
Q21.3438 51.125 25.7031 53.5625
Q30.0781 56 35.7969 56
Q45.2188 56 50.0469 50.1719
Q54.8906 44.3438 54.8906 33.0156" id="DejaVuSans-68"/>
     <path d="
M9.42188 54.6875
L18.4062 54.6875
L18.4062 0
L9.42188 0
z

M9.42188 75.9844
L18.4062 75.9844
L18.4062 64.5938
L9.42188 64.5938
z
" id="DejaVuSans-69"/>
     <path d="
M45.4062 46.3906
L45.4062 75.9844
L54.3906 75.9844
L54.3906 0
L45.4062 0
L45.4062 8.20312
Q42.5781 3.32812 38.25 0.953125
Q33.9375 -1.42188 27.875 -1.42188
Q17.9688 -1.42188 11.7344 6.48438
Q5.51562 14.4062 5.51562 27.2969
Q5.51562 40.1875 11.7344 48.0938
Q17.9688 56 27.875 56
Q33.9375 56 38.25 53.625
Q42.5781 51.2656 45.4062 46.3906
M14.7969 27.2969
Q14.7969 17.3906 18.875 11.75
Q22.9531 6.10938 30.0781 6.10938
Q37.2031 6.10938 41.2969 11.75
Q45.4062 17.3906 45.4062 27.2969
Q45.4062 37.2031 41.2969 42.8438
Q37.2031 48.4844 30.0781 48.4844
Q22.9531 48.4844 18.875 42.8438
Q14.7969 37.2031 14.7969 27.2969" id="DejaVuSans-64"/>
     <path d="
M8.01562 75.875
L15.8281 75.875
Q23.1406 64.3594 26.7812 53.3125
Q30.4219 42.2812 30.4219 31.3906
Q30.4219 20.4531 26.7812 9.375
Q23.1406 -1.70312 15.8281 -13.1875
L8.01562 -13.1875
Q14.5 -2 17.7031 9.0625
Q20.9062 20.125 20.9062 31.3906
Q20.9062 42.6719 17.7031 53.6562
Q14.5 64.6562 8.01562 75.875" id="DejaVuSans-29"/>
     <path d="
M48.7812 52.5938
L48.7812 44.1875
Q44.9688 46.2969 41.1406 47.3438
Q37.3125 48.3906 33.4062 48.3906
Q24.6562 48.3906 19.8125 42.8438
Q14.9844 37.3125 14.9844 27.2969
Q14.9844 17.2812 19.8125 11.7344
Q24.6562 6.20312 33.4062 6.20312
Q37.3125 6.20312 41.1406 7.25
Q44.9688 8.29688 48.7812 10.4062
L48.7812 2.09375
Q45.0156 0.34375 40.9844 -0.53125
Q36.9688 -1.42188 32.4219 -1.42188
Q20.0625 -1.42188 12.7812 6.34375
Q5.51562 14.1094 5.51562 27.2969
Q5.51562 40.6719 12.8594 48.3281
Q20.2188 56 33.0156 56
Q37.1562 56 41.1094 55.1406
Q45.0625 54.2969 48.7812 52.5938" id="DejaVuSans-63"/>
     <path d="
M34.2812 27.4844
Q23.3906 27.4844 19.1875 25
Q14.9844 22.5156 14.9844 16.5
Q14.9844 11.7188 18.1406 8.90625
Q21.2969 6.10938 26.7031 6.10938
Q34.1875 6.10938 38.7031 11.4062
Q43.2188 16.7031 43.2188 25.4844
L43.2188 27.4844
z

M52.2031 31.2031
L52.2031 0
L43.2188 0
L43.2188 8.29688
Q40.1406 3.32812 35.5469 0.953125
Q30.9531 -1.42188 24.3125 -1.42188
Q15.9219 -1.42188 10.9531 3.29688
Q6 8.01562 6 15.9219
Q6 25.1406 12.1719 29.8281
Q18.3594 34.5156 30.6094 34.5156
L43.2188 34.5156
L43.2188 35.4062
Q43.2188 41.6094 39.1406 45
Q35.0625 48.3906 27.6875 48.3906
Q23 48.3906 18.5469 47.2656
Q14.1094 46.1406 10.0156 43.8906
L10.0156 52.2031
Q14.9375 54.1094 19.5781 55.0469
Q24.2188 56 28.6094 56
Q40.4844 56 46.3438 49.8438
Q52.2031 43.7031 52.2031 31.2031" id="DejaVuSans-61"/>
     <path d="
M19.6719 34.8125
L19.6719 8.10938
L35.5 8.10938
Q43.4531 8.10938 47.2812 11.4062
Q51.125 14.7031 51.125 21.4844
Q51.125 28.3281 47.2812 31.5625
Q43.4531 34.8125 35.5 34.8125
z

M19.6719 64.7969
L19.6719 42.8281
L34.2812 42.8281
Q41.5 42.8281 45.0312 45.5312
Q48.5781 48.25 48.5781 53.8125
Q48.5781 59.3281 45.0312 62.0625
Q41.5 64.7969 34.2812 64.7969
z

M9.8125 72.9062
L35.0156 72.9062
Q46.2969 72.9062 52.3906 68.2188
Q58.5 63.5312 58.5 54.8906
Q58.5 48.1875 55.375 44.2344
Q52.25 40.2812 46.1875 39.3125
Q53.4688 37.75 57.5 32.7812
Q61.5312 27.8281 61.5312 20.4062
Q61.5312 10.6406 54.8906 5.3125
Q48.25 0 35.9844 0
L9.8125 0
z
" id="DejaVuSans-42"/>
     <path d="
M31 75.875
Q24.4688 64.6562 21.2812 53.6562
Q18.1094 42.6719 18.1094 31.3906
Q18.1094 20.125 21.3125 9.0625
Q24.5156 -2 31 -13.1875
L23.1875 -13.1875
Q15.875 -1.70312 12.2344 9.375
Q8.59375 20.4531 8.59375 31.3906
Q8.59375 42.2812 12.2031 53.3125
Q15.8281 64.3594 23.1875 75.875
z
" id="DejaVuSans-28"/>
     <path d="
M11.7188 12.4062
L22.0156 12.4062
L22.0156 4
L14.0156 -11.625
L7.71875 -11.625
L11.7188 4
z
" id="DejaVuSans-2c"/>
     <path d="
M56.2031 29.5938
L56.2031 25.2031
L14.8906 25.2031
Q15.4844 15.9219 20.4844 11.0625
Q25.4844 6.20312 34.4219 6.20312
Q39.5938 6.20312 44.4531 7.46875
Q49.3125 8.73438 54.1094 11.2812
L54.1094 2.78125
Q49.2656 0.734375 44.1875 -0.34375
Q39.1094 -1.42188 33.8906 -1.42188
Q20.7969 -1.42188 13.1562 6.1875
Q5.51562 13.8125 5.51562 26.8125
Q5.51562 40.2344 12.7656 48.1094
Q20.0156 56 32.3281 56
Q43.3594 56 49.7812 48.8906
Q56.2031 41.7969 56.2031 29.5938
M47.2188 32.2344
Q47.125 39.5938 43.0938 43.9844
Q39.0625 48.3906 32.4219 48.3906
Q24.9062 48.3906 20.3906 44.1406
Q15.875 39.8906 15.1875 32.1719
z
" id="DejaVuSans-65"/>
     <path d="
M25.3906 72.9062
L33.6875 72.9062
L8.29688 -9.28125
L0 -9.28125
z
" id="DejaVuSans-2f"/>
     <path d="
M34.1875 63.1875
L20.7969 26.9062
L47.6094 26.9062
z

M28.6094 72.9062
L39.7969 72.9062
L67.5781 0
L57.3281 0
L50.6875 18.7031
L17.8281 18.7031
L11.1875 0
L0.78125 0
z
" id="DejaVuSans-41"/>
     <path d="
M4.89062 31.3906
L31.2031 31.3906
L31.2031 23.3906
L4.89062 23.3906
z
" id="DejaVuSans-2d"/>
     <path d="
M10.6875 12.4062
L21 12.4062
L21 0
L10.6875 0
z
" id="DejaVuSans-2e"/>
     <path d="
M30.6094 48.3906
Q23.3906 48.3906 19.1875 42.75
Q14.9844 37.1094 14.9844 27.2969
Q14.9844 17.4844 19.1562 11.8438
Q23.3438 6.20312 30.6094 6.20312
Q37.7969 6.20312 41.9844 11.8594
Q46.1875 17.5312 46.1875 27.2969
Q46.1875 37.0156 41.9844 42.7031
Q37.7969 48.3906 30.6094 48.3906
M30.6094 56
Q42.3281 56 49.0156 48.375
Q55.7188 40.7656 55.7188 27.2969
Q55.7188 13.875 49.0156 6.21875
Q42.3281 -1.42188 30.6094 -1.42188
Q18.8438 -1.42188 12.1719 6.21875
Q5.51562 13.875 5.51562 27.2969
Q5.51562 40.7656 12.1719 48.375
Q18.8438 56 30.6094 56" id="DejaVuSans-6f"/>
     <path d="
M52 44.1875
Q55.375 50.25 60.0625 53.125
Q64.75 56 71.0938 56
Q79.6406 56 84.2812 50.0156
Q88.9219 44.0469 88.9219 33.0156
L88.9219 0
L79.8906 0
L79.8906 32.7188
Q79.8906 40.5781 77.0938 44.375
Q74.3125 48.1875 68.6094 48.1875
Q61.625 48.1875 57.5625 43.5469
Q53.5156 38.9219 53.5156 30.9062
L53.5156 0
L44.4844 0
L44.4844 32.7188
Q44.4844 40.625 41.7031 44.4062
Q38.9219 48.1875 33.1094 48.1875
Q26.2188 48.1875 22.1562 43.5312
Q18.1094 38.875 18.1094 30.9062
L18.1094 0
L9.07812 0
L9.07812 54.6875
L18.1094 54.6875
L18.1094 46.1875
Q21.1875 51.2188 25.4844 53.6094
Q29.7812 56 35.6875 56
Q41.6562 56 45.8281 52.9688
Q50 49.9531 52 44.1875" id="DejaVuSans-6d"/>
     <path d="
M9.42188 75.9844
L18.4062 75.9844
L18.4062 0
L9.42188 0
z
" id="DejaVuSans-6c"/>
     <path d="
M32.1719 -5.07812
Q28.375 -14.8438 24.75 -17.8125
Q21.1406 -20.7969 15.0938 -20.7969
L7.90625 -20.7969
L7.90625 -13.2812
L13.1875 -13.2812
Q16.8906 -13.2812 18.9375 -11.5156
Q21 -9.76562 23.4844 -3.21875
L25.0938 0.875
L2.98438 54.6875
L12.5 54.6875
L29.5938 11.9219
L46.6875 54.6875
L56.2031 54.6875
z
" id="DejaVuSans-79"/>
     <path d="
M8.6875 72.9062
L18.6094 72.9062
L18.6094 28.6094
Q18.6094 16.8906 22.8438 11.7344
Q27.0938 6.59375 36.625 6.59375
Q46.0938 6.59375 50.3438 11.7344
Q54.5938 16.8906 54.5938 28.6094
L54.5938 72.9062
L64.5 72.9062
L64.5 27.3906
Q64.5 13.1406 57.4375 5.85938
Q50.3906 -1.42188 36.625 -1.42188
Q22.7969 -1.42188 15.7344 5.85938
Q8.6875 13.1406 8.6875 27.3906
z
" id="DejaVuSans-55"/>
     <path d="
M8.5 21.5781
L8.5 54.6875
L17.4844 54.6875
L17.4844 21.9219
Q17.4844 14.1562 20.5 10.2656
Q23.5312 6.39062 29.5938 6.39062
Q36.8594 6.39062 41.0781 11.0312
Q45.3125 15.6719 45.3125 23.6875
L45.3125 54.6875
L54.2969 54.6875
L54.2969 0
L45.3125 0
L45.3125 8.40625
Q42.0469 3.42188 37.7188 1
Q33.4062 -1.42188 27.6875 -1.42188
Q18.2656 -1.42188 13.375 4.4375
Q8.5 10.2969 8.5 21.5781
M31.1094 56
z
" id="DejaVuSans-75"/>
     <path d="
M18.3125 70.2188
L18.3125 54.6875
L36.8125 54.6875
L36.8125 47.7031
L18.3125 47.7031
L18.3125 18.0156
Q18.3125 11.3281 20.1406 9.42188
Q21.9688 7.51562 27.5938 7.51562
L36.8125 7.51562
L36.8125 0
L27.5938 0
Q17.1875 0 13.2344 3.875
Q9.28125 7.76562 9.28125 18.0156
L9.28125 47.7031
L2.6875 47.7031
L2.6875 54.6875
L9.28125 54.6875
L9.28125 70.2188
z
" id="DejaVuSans-74"/>
     <path d="
M4.20312 54.6875
L13.1875 54.6875
L24.4219 12.0156
L35.5938 54.6875
L46.1875 54.6875
L57.4219 12.0156
L68.6094 54.6875
L77.5938 54.6875
L63.2812 0
L52.6875 0
L40.9219 44.8281
L29.1094 0
L18.5 0
z
" id="DejaVuSans-77"/>
     <path d="
M2.98438 54.6875
L12.5 54.6875
L29.5938 8.79688
L46.6875 54.6875
L56.2031 54.6875
L35.6875 0
L23.4844 0
z
" id="DejaVuSans-76"/>
     <path d="
M18.1094 8.20312
L18.1094 -20.7969
L9.07812 -20.7969
L9.07812 54.6875
L18.1094 54.6875
L18.1094 46.3906
Q20.9531 51.2656 25.2656 53.625
Q29.5938 56 35.5938 56
Q45.5625 56 51.7812 48.0938
Q58.0156 40.1875 58.0156 27.2969
Q58.0156 14.4062 51.7812 6.48438
Q45.5625 -1.42188 35.5938 -1.42188
Q29.5938 -1.42188 25.2656 0.953125
Q20.9531 3.32812 18.1094 8.20312
M48.6875 27.2969
Q48.6875 37.2031 44.6094 42.8438
Q40.5312 48.4844 33.4062 48.4844
Q26.2656 48.4844 22.1875 42.8438
Q18.1094 37.2031 18.1094 27.2969
Q18.1094 17.3906 22.1875 11.75
Q26.2656 6.10938 33.4062 6.10938
Q40.5312 6.10938 44.6094 11.75
Q48.6875 17.3906 48.6875 27.2969" id="DejaVuSans-70"/>
     <path d="
M44.2812 53.0781
L44.2812 44.5781
Q40.4844 46.5312 36.375 47.5
Q32.2812 48.4844 27.875 48.4844
Q21.1875 48.4844 17.8438 46.4375
Q14.5 44.3906 14.5 40.2812
Q14.5 37.1562 16.8906 35.375
Q19.2812 33.5938 26.5156 31.9844
L29.5938 31.2969
Q39.1562 29.25 43.1875 25.5156
Q47.2188 21.7812 47.2188 15.0938
Q47.2188 7.46875 41.1875 3.01562
Q35.1562 -1.42188 24.6094 -1.42188
Q20.2188 -1.42188 15.4531 -0.5625
Q10.6875 0.296875 5.42188 2
L5.42188 11.2812
Q10.4062 8.6875 15.2344 7.39062
Q20.0625 6.10938 24.8125 6.10938
Q31.1562 6.10938 34.5625 8.28125
Q37.9844 10.4531 37.9844 14.4062
Q37.9844 18.0625 35.5156 20.0156
Q33.0625 21.9688 24.7031 23.7812
L21.5781 24.5156
Q13.2344 26.2656 9.51562 29.9062
Q5.8125 33.5469 5.8125 39.8906
Q5.8125 47.6094 11.2812 51.7969
Q16.75 56 26.8125 56
Q31.7812 56 36.1719 55.2656
Q40.5781 54.5469 44.2812 53.0781" id="DejaVuSans-73"/>
     <path d="
M41.1094 46.2969
Q39.5938 47.1719 37.8125 47.5781
Q36.0312 48 33.8906 48
Q26.2656 48 22.1875 43.0469
Q18.1094 38.0938 18.1094 28.8125
L18.1094 0
L9.07812 0
L9.07812 54.6875
L18.1094 54.6875
L18.1094 46.1875
Q20.9531 51.1719 25.4844 53.5781
Q30.0312 56 36.5312 56
Q37.4531 56 38.5781 55.875
Q39.7031 55.7656 41.0625 55.5156
z
" id="DejaVuSans-72"/>
    </defs>
    <g transform="translate(-94.88925 -5.9351)scale(0.144 -0.144)">
     <use xlink:href="#DejaVuSans-6d"/>
     <use x="97.412109375" xlink:href="#DejaVuSans-6f"/>
     <use x="158.59375" xlink:href="#DejaVuSans-64"/>
     <use x="222.0703125" xlink:href="#DejaVuSans-65"/>
     <use x="283.59375" xlink:href="#DejaVuSans-6c"/>
     <use x="311.376953125" xlink:href="#DejaVuSans-3a"/>
     <use x="345.068359375" xlink:href="#DejaVuSans-20"/>
     <use x="376.85546875" xlink:href="#DejaVuSans-28"/>
     <use x="415.869140625" xlink:href="#DejaVuSans-31"/>
     <use x="479.4921875" xlink:href="#DejaVuSans-30"/>
     <use x="543.115234375" xlink:href="#DejaVuSans-2c"/>
     <use x="574.90234375" xlink:href="#DejaVuSans-20"/>
     <use x="606.689453125" xlink:href="#DejaVuSans-31"/>
     <use x="670.3125" xlink:href="#DejaVuSans-30"/>
     <use x="733.935546875" xlink:href="#DejaVuSans-2c"/>
     <use x="765.72265625" xlink:href="#DejaVuSans-20"/>
     <use x="797.509765625" xlink:href="#DejaVuSans-35"/>
     <use x="861.1328125" xlink:href="#DejaVuSans-29"/>
     <use x="900.146484375" xlink:href="#DejaVuSans-20"/>
     <use x="931.93359375" xlink:href="#DejaVuSans-2d"/>
     <use x="968.017578125" xlink:href="#DejaVuSans-20"/>
     <use x="999.8046875" xlink:href="#DejaVuSans-2e"/>
     <use x="1031.59179688" xlink:href="#DejaVuSans-2e"/>
     <use x="1063.37890625" xlink:href="#DejaVuSans-2f"/>
     <use x="1097.0703125" xlink:href="#DejaVuSans-64"/>
     <use x="1160.546875" xlink:href="#DejaVuSans-61"/>
     <use x="1221.82617188" xlink:href="#DejaVuSans-74"/>
     <use x="1261.03515625" xlink:href="#DejaVuSans-61"/>
     <use x="1322.31445312" xlink:href="#DejaVuSans-2f"/>
     <use x="1356.00585938" xlink:href="#DejaVuSans-63"/>
     <use x="1410.98632812" xlink:href="#DejaVuSans-73"/>
     <use x="1463.0859375" xlink:href="#DejaVuSans-76"/>
     <use x="1522.265625" xlink:href="#DejaVuSans-2f"/>
     <use x="1555.95703125" xlink:href="#DejaVuSans-31"/>
     <use x="1619.58007812" xlink:href="#DejaVuSans-39"/>
     <use x="1683.203125" xlink:href="#DejaVuSans-2d"/>
     <use x="1719.28710938" xlink:href="#DejaVuSans-30"/>
     <use x="1782.91015625" xlink:href="#DejaVuSans-35"/>
     <use x="1846.53320312" xlink:href="#DejaVuSans-2f"/>
     <use x="1880.22460938" xlink:href="#DejaVuSans-77"/>
     <use x="1962.01171875" xlink:href="#DejaVuSans-68"/>
     <use x="2025.390625" xlink:href="#DejaVuSans-6f"/>
     <use x="2086.57226562" xlink:href="#DejaVuSans-6c"/>
     <use x="2114.35546875" xlink:href="#DejaVuSans-65"/>
     <use x="2175.87890625" xlink:href="#DejaVuSans-73"/>
     <use x="2227.97851562" xlink:href="#DejaVuSans-61"/>
     <use x="2289.2578125" xlink:href="#DejaVuSans-6c"/>
     <use x="2317.04101562" xlink:href="#DejaVuSans-65"/>
     <use x="2378.56445312" xlink:href="#DejaVuSans-2d"/>
     <use x="2414.6484375" xlink:href="#DejaVuSans-64"/>
     <use x="2478.125" xlink:href="#DejaVuSans-61"/>
     <use x="2539.40429688" xlink:href="#DejaVuSans-69"/>
     <use x="2567.1875" xlink:href="#DejaVuSans-6c"/>
     <use x="2594.97070312" xlink:href="#DejaVuSans-79"/>
     <use x="2652.40039062" xlink:href="#DejaVuSans-2d"/>
     <use x="2688.484375" xlink:href="#DejaVuSans-28"/>
     <use x="2727.49804688" xlink:href="#DejaVuSans-27"/>
     <use x="2754.98828125" xlink:href="#DejaVuSans-55"/>
     <use x="2828.18164062" xlink:href="#DejaVuSans-74"/>
     <use x="2867.390625" xlink:href="#DejaVuSans-74"/>
     <use x="2906.59960938" xlink:href="#DejaVuSans-61"/>
     <use x="2967.87890625" xlink:href="#DejaVuSans-72"/>
     <use x="3008.9921875" xlink:href="#DejaVuSans-20"/>
     <use x="3040.77929688" xlink:href="#DejaVuSans-50"/>
     <use x="3099.33203125" xlink:href="#DejaVuSans-72"/>
     <use x="3140.4453125" xlink:href="#DejaVuSans-61"/>
     <use x="3201.72460938" xlink:href="#DejaVuSans-64"/>
     <use x="3265.20117188" xlink:href="#DejaVuSans-65"/>
     <use x="3326.72460938" xlink:href="#DejaVuSans-73"/>
     <use x="3378.82421875" xlink:href="#DejaVuSans-68"/>
     <use x="3442.203125" xlink:href="#DejaVuSans-27"/>
     <use x="3469.69335938" xlink:href="#DejaVuSans-2c"/>
     <use x="3501.48046875" xlink:href="#DejaVuSans-20"/>
     <use x="3533.26757812" xlink:href="#DejaVuSans-27"/>
     <use x="3560.7578125" xlink:href="#DejaVuSans-42"/>
     <use x="3629.36132812" xlink:href="#DejaVuSans-61"/>
     <use x="3690.640625" xlink:href="#DejaVuSans-72"/>
     <use x="3729.50390625" xlink:href="#DejaVuSans-65"/>
     <use x="3791.02734375" xlink:href="#DejaVuSans-69"/>
     <use x="3818.81054688" xlink:href="#DejaVuSans-6c"/>
     <use x="3846.59375" xlink:href="#DejaVuSans-6c"/>
     <use x="3874.37695312" xlink:href="#DejaVuSans-79"/>
     <use x="3933.55664062" xlink:href="#DejaVuSans-27"/>
     <use x="3961.046875" xlink:href="#DejaVuSans-2c"/>
     <use x="3992.83398438" xlink:href="#DejaVuSans-20"/>
     <use x="4024.62109375" xlink:href="#DejaVuSans-27"/>
     <use x="4052.11132812" xlink:href="#DejaVuSans-41"/>
     <use x="4120.51953125" xlink:href="#DejaVuSans-70"/>
     <use x="4183.99609375" xlink:href="#DejaVuSans-70"/>
     <use x="4247.47265625" xlink:href="#DejaVuSans-6c"/>
     <use x="4275.25585938" xlink:href="#DejaVuSans-65"/>
     <use x="4336.77929688" xlink:href="#DejaVuSans-27"/>
     <use x="4364.26953125" xlink:href="#DejaVuSans-2c"/>
     <use x="4396.05664062" xlink:href="#DejaVuSans-20"/>
     <use x="4427.84375" xlink:href="#DejaVuSans-27"/>
     <use x="4455.33398438" xlink:href="#DejaVuSans-44"/>
     <use x="4532.3359375" xlink:href="#DejaVuSans-65"/>
     <use x="4593.859375" xlink:href="#DejaVuSans-6c"/>
     <use x="4621.64257812" xlink:href="#DejaVuSans-69"/>
     <use x="4649.42578125" xlink:href="#DejaVuSans-63"/>
     <use x="4704.40625" xlink:href="#DejaVuSans-69"/>
     <use x="4732.18945312" xlink:href="#DejaVuSans-6f"/>
     <use x="4793.37109375" xlink:href="#DejaVuSans-75"/>
     <use x="4856.75" xlink:href="#DejaVuSans-73"/>
     <use x="4908.84960938" xlink:href="#DejaVuSans-27"/>
     <use x="4936.33984375" xlink:href="#DejaVuSans-2c"/>
     <use x="4968.12695312" xlink:href="#DejaVuSans-20"/>
     <use x="4999.9140625" xlink:href="#DejaVuSans-30"/>
     <use x="5063.53710938" xlink:href="#DejaVuSans-2e"/>
     <use x="5095.32421875" xlink:href="#DejaVuSans-39"/>
     <use x="5158.94726562" xlink:href="#DejaVuSans-29"/>
     <use x="5197.9609375" xlink:href="#DejaVuSans-2e"/>
     <use x="5229.74804688" xlink:href="#DejaVuSans-63"/>
     <use x="5284.72851562" xlink:href="#DejaVuSans-73"/>
     <use x="5336.828125" xlink:href="#DejaVuSans-76"/>
     <use x="5396.0078125" xlink:href="#DejaVuSans-2c"/>
     <use x="5427.79492188" xlink:href="#DejaVuSans-20"/>
    </g>
    <!-- epoch: 291 -->
    <g transform="translate(255.479625 10.7887)scale(0.144 -0.144)">
     <use xlink:href="#DejaVuSans-65"/>
     <use x="61.5234375" xlink:href="#DejaVuSans-70"/>
     <use x="125.0" xlink:href="#DejaVuSans-6f"/>
     <use x="186.181640625" xlink:href="#DejaVuSans-63"/>
     <use x="241.162109375" xlink:href="#DejaVuSans-68"/>
     <use x="304.541015625" xlink:href="#DejaVuSans-3a"/>
     <use x="338.232421875" xlink:href="#DejaVuSans-20"/>
     <use x="370.01953125" xlink:href="#DejaVuSans-32"/>
     <use x="433.642578125" xlink:href="#DejaVuSans-39"/>
     <use x="497.265625" xlink:href="#DejaVuSans-31"/>
    </g>
    <!-- test err: 0.0117 -->
    <g transform="translate(239.695875 27.5125)scale(0.144 -0.144)">
     <use xlink:href="#DejaVuSans-74"/>
     <use x="39.208984375" xlink:href="#DejaVuSans-65"/>
     <use x="100.732421875" xlink:href="#DejaVuSans-73"/>
     <use x="152.83203125" xlink:href="#DejaVuSans-74"/>
     <use x="192.041015625" xlink:href="#DejaVuSans-20"/>
     <use x="223.828125" xlink:href="#DejaVuSans-65"/>
     <use x="285.3515625" xlink:href="#DejaVuSans-72"/>
     <use x="324.71484375" xlink:href="#DejaVuSans-72"/>
     <use x="364.078125" xlink:href="#DejaVuSans-3a"/>
     <use x="397.76953125" xlink:href="#DejaVuSans-20"/>
     <use x="429.556640625" xlink:href="#DejaVuSans-30"/>
     <use x="493.1796875" xlink:href="#DejaVuSans-2e"/>
     <use x="524.966796875" xlink:href="#DejaVuSans-30"/>
     <use x="588.58984375" xlink:href="#DejaVuSans-31"/>
     <use x="652.212890625" xlink:href="#DejaVuSans-31"/>
     <use x="715.8359375" xlink:href="#DejaVuSans-37"/>
    </g>
   </g>
   <g id="legend_1">
    <g id="patch_7">
     <path d="
M79.2 115.339
L162.947 115.339
L162.947 50.4
L79.2 50.4
L79.2 115.339
z
" style="fill:#ffffff;stroke:#000000;"/>
    </g>
    <g id="line2d_58">
     <path d="
M89.28 62.0617
L109.44 62.0617" style="fill:none;stroke:#008000;"/>
    </g>
    <g id="line2d_59"/>
    <g id="text_20">
     <!-- pred -->
     <g transform="translate(125.28 67.10175)scale(0.144 -0.144)">
      <use xlink:href="#DejaVuSans-70"/>
      <use x="63.4765625" xlink:href="#DejaVuSans-72"/>
      <use x="102.33984375" xlink:href="#DejaVuSans-65"/>
      <use x="163.86328125" xlink:href="#DejaVuSans-64"/>
     </g>
    </g>
    <g id="line2d_60">
     <path d="
M89.28 83.1983
L109.44 83.1983" style="fill:none;stroke:#0000ff;"/>
    </g>
    <g id="line2d_61"/>
    <g id="text_21">
     <!-- train -->
     <defs>
      <path d="
M54.8906 33.0156
L54.8906 0
L45.9062 0
L45.9062 32.7188
Q45.9062 40.4844 42.875 44.3281
Q39.8438 48.1875 33.7969 48.1875
Q26.5156 48.1875 22.3125 43.5469
Q18.1094 38.9219 18.1094 30.9062
L18.1094 0
L9.07812 0
L9.07812 54.6875
L18.1094 54.6875
L18.1094 46.1875
Q21.3438 51.125 25.7031 53.5625
Q30.0781 56 35.7969 56
Q45.2188 56 50.0469 50.1719
Q54.8906 44.3438 54.8906 33.0156" id="DejaVuSans-6e"/>
     </defs>
     <g transform="translate(125.28 88.23825)scale(0.144 -0.144)">
      <use xlink:href="#DejaVuSans-74"/>
      <use x="39.208984375" xlink:href="#DejaVuSans-72"/>
      <use x="80.322265625" xlink:href="#DejaVuSans-61"/>
      <use x="141.6015625" xlink:href="#DejaVuSans-69"/>
      <use x="169.384765625" xlink:href="#DejaVuSans-6e"/>
     </g>
    </g>
    <g id="line2d_62">
     <path d="
M89.28 104.335
L109.44 104.335" style="fill:none;stroke:#ff0000;"/>
    </g>
    <g id="line2d_63"/>
    <g id="text_22">
     <!-- test -->
     <g transform="translate(125.28 109.37475)scale(0.144 -0.144)">
      <use xlink:href="#DejaVuSans-74"/>
      <use x="39.208984375" xlink:href="#DejaVuSans-65"/>
      <use x="100.732421875" xlink:href="#DejaVuSans-73"/>
      <use x="152.83203125" xlink:href="#DejaVuSans-74"/>
     </g>
    </g>
   </g>
  </g>
 </g>
 <defs>
  <clipPath id="p7ff5b81e1d">
   <rect height="345.6" width="446.4" x="72.0" y="43.2"/>
  </clipPath>
 </defs>
</svg>
