<?xml version="1.0" encoding="utf-8" standalone="no"?>
<!DOCTYPE svg PUBLIC "-//W3C//DTD SVG 1.1//EN"
  "http://www.w3.org/Graphics/SVG/1.1/DTD/svg11.dtd">
<!-- Created with matplotlib (http://matplotlib.org/) -->
<svg height="432pt" version="1.1" viewBox="0 0 576 432" width="576pt" xmlns="http://www.w3.org/2000/svg" xmlns:xlink="http://www.w3.org/1999/xlink">
 <defs>
  <style type="text/css">
*{stroke-linecap:square;stroke-linejoin:round;}
  </style>
 </defs>
 <g id="figure_1">
  <g id="patch_1">
   <path d="
M0 432
L576 432
L576 0
L0 0
z
" style="fill:#ffffff;"/>
  </g>
  <g id="axes_1">
   <g id="patch_2">
    <path d="
M72 388.8
L518.4 388.8
L518.4 43.2
L72 43.2
z
" style="fill:#ffffff;"/>
   </g>
   <g id="line2d_1">
    <path clip-path="url(#p7ff5b81e1d)" d="
M72 309.683
L74.722 309.683
L75.2663 311.179
L76.8995 311.179
L77.4439 310.297
L78.5327 303.916
L79.0771 303.496
L79.6215 304.712
L80.1659 304.02
L80.8463 300.136
L82.0712 290.933
L82.7517 288.518
L82.8878 288.095
L83.4322 289.126
L84.1127 279.137
L85.0654 271.944
L86.018 275.058
L86.1541 275.555
L86.6985 273.75
L87.2429 273.648
L88.3317 276.624
L88.8761 275.943
L89.4205 276.428
L89.9649 275.721
L90.5093 276.026
L91.0537 277.296
L91.598 275.796
L92.1424 281.351
L92.6868 281.247
L93.2312 282.983
L93.7756 283.164
L94.32 284.053
L94.8644 283.32
L95.4088 283.464
L96.4976 288.999
L96.6337 288.94
L97.042 288.764
L97.5863 286.415
L98.1307 288.104
L98.6751 287.861
L99.2195 289.54
L99.7639 289.727
L100.308 288.711
L100.853 289.273
L101.397 288.752
L101.941 290.418
L102.486 288.815
L103.03 289.426
L103.983 288.414
L104.119 288.298
L105.208 279.957
L105.888 277.224
L106.297 274.736
L106.977 276.002
L107.385 277.242
L108.066 263.563
L108.882 258.107
L109.019 257.335
L109.563 260.302
L110.107 259.183
L110.652 253.095
L111.196 252.864
L111.74 246.264
L112.285 245.209
L113.238 257.947
L113.782 264.921
L114.19 271.068
L114.462 275.578
L115.007 275.866
L115.687 248.419
L116.096 242.651
L116.64 250.251
L117.184 266.05
L117.729 266.063
L118.409 285.884
L118.818 304.003
L119.362 307.92
L119.906 322.12
L120.451 307.738
L120.995 311.374
L121.54 307.335
L122.084 315.337
L122.764 312.185
L123.173 311.534
L123.717 315.125
L124.261 314.831
L125.35 304.842
L125.895 303.387
L126.439 307.153
L127.256 300.79
L127.528 298.222
L128.617 297.968
L129.161 295.783
L130.386 277.271
L130.794 276.462
L131.475 281.106
L131.883 285.455
L132.427 282.229
L133.108 274.401
L133.516 272.955
L134.06 273.035
L134.605 273.843
L135.694 270.031
L136.238 271.673
L137.191 276.613
L137.871 279.631
L138.688 274.75
L138.96 273.47
L139.504 273.052
L140.593 276.1
L141.138 276.307
L141.682 279.277
L142.362 279.342
L142.771 279.212
L143.86 276.394
L144.676 277.207
L144.948 277.556
L145.493 279.935
L146.037 273.18
L146.581 273.144
L147.126 271.94
L147.67 271.866
L148.215 272.371
L148.895 269.614
L149.303 268.863
L149.848 269.632
L150.392 271.239
L151.073 265.74
L151.617 260.377
L152.025 258.716
L152.57 259.724
L153.114 263.999
L153.659 263.541
L154.203 266.959
L154.747 263.268
L155.836 265.027
L155.972 264.913
L156.38 264.573
L156.925 266.502
L157.469 262.985
L158.014 262.618
L158.83 260.014
L159.102 258.97
L159.647 259.29
L160.191 261.513
L160.872 267.91
L161.28 268.994
L162.097 266.229
L162.641 264.647
L162.913 263.717
L163.458 266.506
L164.138 279.234
L165.227 305.879
L165.635 308.198
L166.588 332.787
L166.724 336.698
L167.268 331.662
L167.949 314.341
L168.357 309.919
L169.038 315.468
L169.446 317.207
L170.126 323.564
L170.671 325.972
L171.079 326.499
L171.623 322.707
L172.168 324.861
L172.848 322.596
L173.257 321.999
L174.89 303.622
L175.434 302.955
L175.979 305.128
L176.795 297.36
L177.067 295.361
L177.612 287.718
L178.156 287.665
L178.7 286.313
L179.245 283.188
L179.789 275.283
L180.334 275.288
L180.878 274.507
L181.422 275.565
L182.103 269.799
L182.511 268.527
L183.192 259
L183.736 255.089
L184.28 253.156
L184.689 252.539
L185.233 256.128
L185.778 254.661
L186.322 254.876
L186.866 253.285
L187.411 256.989
L187.955 254.953
L188.5 249.166
L189.044 248.211
L189.86 250.94
L190.269 251.736
L190.677 251.979
L191.221 244.207
L191.766 244.928
L192.31 241.846
L192.855 242.138
L193.399 243.167
L193.943 241.695
L194.488 242.889
L195.032 242.416
L195.577 246.451
L196.121 245.77
L196.801 247.641
L197.21 248.125
L197.89 243.695
L198.299 242.452
L198.979 244.164
L199.387 244.466
L199.932 250.325
L200.476 250.395
L201.565 248.509
L202.109 248.485
L202.654 249.411
L203.198 246.807
L203.742 239.139
L204.423 241.752
L204.831 244.013
L205.512 250.725
L205.92 253.151
L206.6 249.083
L207.281 242.437
L207.553 239.24
L208.098 246.472
L208.642 247.079
L209.186 249.166
L209.731 249.323
L210.275 250.283
L210.956 244.831
L211.5 242.544
L211.908 240.262
L212.453 225.627
L213.133 230.946
L214.086 241.446
L214.902 227.326
L215.175 223.918
L215.719 228.556
L216.808 254.056
L217.352 252.57
L217.897 253.971
L218.441 257.339
L219.121 270.794
L219.666 275.929
L220.346 278.53
L220.619 279.287
L221.435 288.198
L223.885 308.78
L224.565 325.94
L226.607 339.475
L227.151 345.549
L227.696 345.747
L228.24 345.271
L228.784 337.532
L229.329 336.477
L230.281 328.537
L230.418 327.586
L230.962 327.835
L231.506 323.537
L232.051 324.075
L232.595 323.622
L233.14 328.265
L233.684 323.238
L234.228 323.483
L234.773 317.606
L235.317 318.056
L235.861 316.289
L236.406 320.381
L236.95 314.308
L237.495 313.466
L238.175 310.557
L238.583 309.796
L239.536 316.068
L239.808 317.618
L240.217 319.217
L240.761 319.301
L241.85 323.637
L242.394 324.381
L243.075 321.964
L243.483 319.892
L244.027 319.995
L244.844 322.664
L245.116 323.318
L246.205 320.838
L246.885 324.431
L247.294 325.649
L247.974 324.951
L248.382 324.829
L248.927 322.47
L249.471 333.264
L250.016 333.68
L250.832 330.404
L251.24 328.862
L251.649 328.117
L252.329 328.533
L253.01 329.498
L253.282 329.959
L253.826 318.681
L254.371 320.764
L254.915 318.515
L255.46 313.128
L256.004 313.861
L256.82 321.433
L257.093 324.436
L257.637 322.734
L258.181 332.341
L258.726 331.175
L259.27 328.938
L259.815 330.072
L260.359 325.223
L260.903 324.944
L261.448 320.574
L261.992 311.726
L262.673 316.199
L263.217 320.977
L263.625 323.078
L264.306 323.457
L264.714 323.948
L265.395 322.194
L265.803 320.578
L266.483 310.214
L267.164 305.544
L267.572 303.987
L267.98 303.603
L268.525 306.156
L269.069 305.076
L269.75 302.034
L270.158 299.212
L270.975 290.23
L271.519 286.686
L271.927 284.933
L272.336 283.987
L273.288 278.604
L273.969 274.155
L274.513 275.479
L275.194 271.233
L276.146 269.748
L278.324 231.656
L278.46 232.317
L278.868 234.299
L279.957 225.475
L280.638 211.27
L281.182 197.169
L281.59 190.406
L282.135 193.334
L282.679 202.972
L283.223 201.276
L283.768 196.414
L284.448 182.857
L284.857 178.532
L285.401 182.278
L286.081 189.723
L286.49 191.235
L287.306 181.181
L287.579 178.753
L288.667 158.287
L289.484 154.292
L289.756 153.243
L290.437 148.104
L291.117 145.259
L291.661 141.928
L292.478 136.539
L293.022 134.927
L293.567 140.247
L294.111 139.03
L294.656 145.064
L295.2 145.87
L295.744 143.631
L296.289 139.427
L296.833 140.047
L297.378 139.35
L298.058 124.171
L298.739 105.097
L299.147 94.6678
L299.555 80.7937
L300.1 83.6063
L300.916 101.022
L301.188 105.375
L301.733 99.9378
L302.413 81.4977
L302.958 74.8798
L303.366 72.8969
L303.91 75.5744
L304.455 82.395
L305.271 81.5005
L305.543 81.3002
L306.224 75.7504
L307.04 72.4355
L307.313 71.5728
L307.721 70.8041
L308.265 72.9669
L308.81 79.677
L309.49 93.6673
L310.307 101.13
L310.443 102.517
L310.987 127.604
L311.94 82.1113
L312.212 75.273
L312.62 71.4146
L313.165 76.5338
L313.981 91.619
L314.254 95.4694
L315.206 174.386
L315.479 200.404
L316.023 256.123
L316.703 289.525
L316.976 305.556
L317.52 282.506
L318.064 299.683
L318.609 292.821
L319.153 318.205
L321.059 331.447
L321.331 332.037
L322.42 322.435
L322.964 325
L323.78 334.927
L324.325 341.632
L324.597 344.403
L325.141 344.335
L325.686 344.981
L326.23 343.524
L326.775 345.608
L327.319 343.763
L327.863 340.175
L328.544 340.817
L328.952 340.85
L329.497 343.982
L330.177 340.009
L330.721 337.745
L331.266 334.798
L331.674 333.701
L332.491 314.044
L332.899 308.197
L333.307 305.818
L333.852 309.096
L334.396 318.088
L334.94 318.486
L335.757 310.23
L336.029 306.985
L336.71 312.546
L337.39 314.954
L337.799 315.833
L338.207 316.2
L338.887 314.348
L339.296 313.677
L339.84 314.147
L340.384 313.775
L342.154 315.463
L342.562 315.358
L343.379 313.362
L344.059 311.591
L344.467 310.895
L344.74 310.517
L345.284 310.837
L345.828 310.335
L346.373 310.808
L347.053 310.174
L347.461 310.089
L348.414 304.752
L348.686 302.362
L349.095 297.737
L349.639 297.244
L350.183 297.924
L351 288.904
L351.68 284.006
L351.817 283.128
L352.633 263.272
L352.905 258.602
L353.45 260.14
L354.402 273.145
L354.539 275.206
L355.083 272.683
L356.036 251.816
L356.172 249.308
L357.26 264.429
L357.941 275.978
L358.349 278.084
L358.894 271.518
L359.438 245.218
L359.982 246.465
L360.527 248.967
L361.071 256.215
L361.616 277.86
L362.16 271.5
L362.704 277.057
L363.249 266.014
L363.929 274.193
L364.882 278.693
L365.562 268.808
L366.243 265.677
L366.515 264.178
L367.196 279.548
L368.148 292.137
L368.693 291.404
L369.237 286.861
L369.781 290.939
L370.326 288.139
L370.87 293.69
L371.415 293.216
L371.959 296.389
L372.503 296.116
L373.048 297.12
L373.592 303.279
L374.137 302.606
L374.817 297.08
L375.225 295.485
L375.906 304.57
L376.314 312.956
L376.859 314.955
L377.403 313.267
L378.22 298.955
L378.492 295.655
L379.036 296.645
L379.58 299.092
L380.397 292.341
L380.805 288.748
L381.214 286.348
L381.758 275.626
L382.302 280.07
L382.983 268.629
L384.072 258.16
L384.48 257.922
L385.16 263.698
L385.977 266.273
L386.113 266.648
L386.658 265.974
L387.338 267.784
L387.882 268.506
L388.291 269.314
L388.835 268.661
L389.516 265.738
L389.924 264.698
L390.468 275.162
L391.013 275.417
L391.965 273.054
L392.101 272.673
L392.646 275.725
L393.19 281.91
L393.735 282.125
L394.279 290.213
L394.823 291.581
L395.368 291.054
L396.184 282.65
L396.593 280.122
L397.409 276.666
L397.545 276.021
L398.498 284.043
L398.634 285.335
L399.179 285.003
L400.267 285.785
L400.812 290.925
L401.356 290.847
L401.9 297.562
L402.445 298.093
L403.125 275.932
L404.078 266.406
L404.622 272.629
L405.711 297.684
L406.392 295.127
L406.8 293.092
L407.344 294.417
L407.889 294.219
L408.705 301.972
L408.978 303.808
L409.522 303.833
L410.202 295.123
L410.611 293.593
L411.155 294.904
L412.244 320.219
L413.877 312.888
L414.694 320.927
L415.782 333.114
L416.055 334.563
L416.599 326.283
L417.143 325.783
L417.688 327.293
L418.368 310.066
L418.913 305.165
L419.321 303.122
L420.41 312.761
L421.499 293.988
L422.043 287.437
L422.587 289.535
L423.132 288.224
L423.676 291.145
L424.22 289.561
L425.037 272.082
L425.445 266.822
L425.854 263.992
L426.806 253.171
L426.942 251.862
L428.031 200.219
L428.576 190.644
L429.392 202.855
L429.664 205.847
L430.209 205.29
L430.753 202.522
L431.298 203.988
L432.25 198.288
L432.386 197.589
L433.339 182.252
L433.475 179.767
L434.02 191.872
L434.836 192.203
L435.108 192.388
L435.653 189.512
L436.197 172.739
L436.741 171.18
L437.286 174.128
L438.102 161.933
L438.511 156.345
L439.463 138.899
L440.144 149.557
L440.552 151.91
L441.097 160.614
L441.641 159.811
L442.321 164.397
L442.866 166.734
L443.546 169.945
L444.363 172.631
L444.907 164.915
L445.588 165.837
L445.996 166.689
L446.677 170.568
L447.085 171.987
L447.629 171.119
L448.174 174.187
L448.718 171.823
L449.262 172.525
L449.943 177.737
L450.351 182.291
L450.896 181.908
L451.44 179.504
L452.529 153.895
L452.665 154.105
L453.073 154.735
L453.754 162.82
L454.162 163.917
L454.979 157.406
L455.387 154.567
L455.931 150.417
L456.34 149.053
L456.884 149.977
L457.428 149.147
L457.973 147.178
L458.517 149.539
L459.061 144.822
L459.606 132.723
L460.15 133.702
L460.967 154.519
L461.239 159.478
L461.92 184.224
L462.328 191.668
L463.008 217.987
L463.553 241.322
L463.961 248.388
L465.594 194.05
L466.139 209.637
L466.683 212.411
L467.227 239.114
L467.772 215.041
L468.452 229.453
L468.86 231.925
L469.405 224.797
L469.949 245.207
L470.494 241.521
L471.174 255.365
L471.582 257.454
L472.535 269.236
L472.671 270.656
L473.216 268.67
L473.76 273.304
L474.304 273.515
L474.849 282.137
L475.393 277.901
L476.21 264.864
L476.89 255.6
L477.026 253.582
L477.571 253.622
L478.115 242.559
L478.66 242.605
L479.34 234.52
L479.748 231.556
L480.837 208.964
L481.381 219.173
L481.926 219.545
L482.47 226.545
L483.151 215.573
L483.559 213.865
L484.103 216.572
L485.328 236.626
L486.281 242.235
L486.825 239.163
L487.37 239.11
L487.914 242.132
L488.459 241.459
L489.003 247.906
L489.547 246.001
L490.092 247.249
L490.772 244.338
L491.317 243.228
L491.725 242.921
L492.269 238.397
L492.95 242.876
L493.358 244.591
L493.902 236.738
L494.447 236.832
L494.991 236.274
L495.536 234.341
L496.216 234.127
L496.624 233.787
L497.305 232.325
L497.713 231.906
L498.394 237.875
L498.802 239.298
L499.346 239.349
L499.891 241.891
L501.252 242.471
L501.66 243.063
L502.613 245.245
L503.157 239.701
L504.654 194.008
L505.199 179.389
L505.335 175.958
L505.879 145.466
L506.423 140.953
L507.104 146.2
L507.512 150.52
L508.057 147.27
L508.601 129.253
L509.145 140.328
L509.69 126.366
L510.234 152.085
L510.779 150.616
L511.323 158.664
L512.003 138.154
L512.412 135.228
L513.092 140.772
L513.5 145.961
L514.589 128.685
L515.134 127.136
L515.678 110.869
L516.767 132.904
L517.311 138.111
L517.856 137.439
L518.4 146.088
L518.4 146.088" style="fill:none;stroke:#008000;"/>
   </g>
   <g id="line2d_2">
    <path clip-path="url(#p7ff5b81e1d)" d="
M72 319.68
L76.6273 319.68
L76.7634 313.92
L77.0356 319.68
L77.3078 315.84
L77.58 308.16
L77.8522 312
L77.9883 310.08
L78.1244 310.08
L79.0771 309.12
L79.2132 308.16
L79.4854 308.16
L79.6215 306.24
L79.8937 306.24
L80.0298 304.32
L80.302 304.32
L80.8463 296.64
L80.9824 296.64
L81.9351 290.88
L82.0712 290.88
L82.2073 288.96
L82.3434 288.96
L82.6156 287.04
L82.7517 287.04
L82.8878 290.88
L83.16 290.88
L83.4322 285.12
L83.7044 281.28
L84.1127 281.28
L84.2488 283.2
L84.3849 281.28
L84.521 281.28
L84.6571 283.2
L84.7932 283.2
L84.9293 285.12
L85.0654 285.12
L85.3376 283.2
L86.1541 283.2
L86.2902 285.12
L87.1068 285.12
L87.2429 283.2
L87.379 283.2
L87.5151 285.12
L87.7873 285.12
L87.9234 287.04
L88.0595 287.04
L88.3317 283.2
L88.4678 285.12
L88.74 285.12
L88.8761 283.2
L89.4205 283.2
L89.5566 285.12
L89.6927 285.12
L90.101 283.2
L91.3259 283.2
L91.462 285.12
L92.5507 285.12
L92.6868 287.04
L93.5034 287.04
L93.6395 288.96
L93.7756 288.96
L93.9117 287.04
L94.32 287.04
L94.4561 288.96
L95.0005 288.96
L95.1366 290.88
L96.2254 290.88
L96.3615 288.96
L97.042 288.96
L97.178 290.88
L97.7224 290.88
L97.8585 288.96
L98.1307 288.96
L98.2668 290.88
L99.2195 290.88
L99.3556 292.8
L100.989 292.8
L101.125 294.72
L101.805 294.72
L101.941 292.8
L103.302 292.8
L103.439 290.88
L103.847 290.88
L104.255 288.96
L104.527 285.12
L104.8 285.12
L104.936 283.2
L105.344 283.2
L105.616 279.36
L105.752 279.36
L105.888 281.28
L106.841 281.28
L107.249 267.84
L107.385 262.08
L107.521 264
L107.794 269.76
L108.202 264
L108.474 264
L108.61 262.08
L109.427 262.08
L109.563 258.24
L109.699 258.24
L109.835 260.16
L109.971 260.16
L110.107 258.24
L110.243 258.24
L110.38 254.4
L110.516 254.4
L110.652 256.32
L111.196 256.32
L111.332 254.4
L111.604 246.72
L111.74 246.72
L111.877 248.64
L112.013 248.64
L112.965 262.08
L113.51 262.08
L113.646 264
L113.918 269.76
L114.19 273.6
L114.462 273.6
L114.599 269.76
L114.871 246.72
L115.007 242.88
L115.143 227.52
L115.687 254.4
L115.823 256.32
L116.232 256.32
L116.368 265.92
L116.504 262.08
L116.64 262.08
L116.912 258.24
L117.048 249.6
L117.184 250.56
L117.32 250.56
L117.729 290.88
L117.865 292.8
L118.001 302.4
L118.409 292.8
L118.818 304.32
L118.954 304.32
L119.09 315.84
L119.226 317.76
L119.498 310.08
L119.634 310.08
L119.77 312
L120.042 312
L120.723 321.6
L121.131 321.6
L121.267 325.44
L121.676 315.84
L121.812 313.92
L121.948 319.68
L122.084 319.68
L122.22 321.6
L122.356 321.6
L122.628 317.76
L122.764 319.68
L122.9 319.68
L123.037 321.6
L123.309 321.6
L123.445 319.68
L123.581 319.68
L123.717 317.76
L123.989 312
L124.398 306.24
L124.534 308.16
L124.67 308.16
L124.806 307.2
L124.942 308.16
L125.078 306.24
L125.214 306.24
L125.35 308.16
L125.622 308.16
L125.759 306.24
L126.031 306.24
L126.439 300.48
L126.575 300.48
L126.847 296.64
L126.983 296.64
L127.256 300.48
L127.392 300.48
L127.528 302.4
L127.936 302.4
L128.344 292.8
L128.48 292.8
L129.297 281.28
L129.433 281.28
L129.705 273.6
L129.841 273.6
L129.978 271.68
L130.114 273.6
L130.25 273.6
L130.522 277.44
L130.93 277.44
L131.066 279.36
L131.747 279.36
L132.019 275.52
L132.7 275.52
L132.836 277.44
L133.652 277.44
L133.788 275.52
L133.924 275.52
L134.06 273.6
L134.469 273.6
L134.605 271.68
L135.421 271.68
L135.558 273.6
L135.966 273.6
L136.102 275.52
L136.374 275.52
L136.51 277.44
L136.919 277.44
L137.055 279.36
L137.191 277.44
L137.327 277.44
L137.463 275.52
L138.143 275.52
L138.28 273.6
L141.001 273.6
L141.138 275.52
L142.635 275.52
L142.771 273.6
L144.812 273.6
L144.948 275.52
L147.942 275.52
L148.215 271.68
L148.759 271.68
L148.895 272.64
L149.031 272.64
L149.167 273.6
L149.44 273.6
L149.848 271.68
L150.256 265.92
L150.392 265.92
L150.528 264
L150.664 264
L151.073 262.08
L152.161 262.08
L152.298 264
L152.706 264
L152.842 262.08
L153.114 262.08
L153.25 260.16
L153.386 262.08
L153.931 262.08
L154.067 260.16
L154.339 260.16
L154.475 262.08
L154.747 262.08
L154.883 260.16
L155.428 260.16
L155.564 258.24
L155.7 258.24
L155.836 260.16
L156.108 260.16
L156.244 262.08
L156.517 262.08
L156.789 259.2
L156.925 258.24
L157.878 258.24
L158.286 252.48
L158.558 252.48
L158.694 254.4
L159.102 254.4
L159.239 256.32
L159.783 256.32
L159.919 260.16
L160.6 262.08
L160.872 262.08
L161.008 260.16
L161.144 260.16
L161.552 259.2
L161.688 259.2
L162.641 260.16
L162.913 260.16
L163.185 264
L163.594 273.6
L163.73 275.52
L164.819 304.32
L164.955 302.4
L165.091 296.64
L165.363 312
L165.771 329.28
L165.907 335.04
L166.043 335.04
L166.18 338.88
L166.452 335.04
L166.996 321.6
L167.132 321.6
L167.268 319.68
L167.404 319.68
L167.54 333.12
L167.677 335.04
L167.949 327.36
L168.085 327.36
L168.221 325.44
L168.493 325.44
L168.629 327.36
L168.901 327.36
L169.038 329.28
L169.174 329.28
L169.31 331.2
L169.582 331.2
L169.718 333.12
L169.99 333.12
L170.126 335.04
L170.943 335.04
L171.079 333.12
L171.215 333.12
L171.487 336.96
L171.623 335.04
L171.896 329.28
L172.032 331.2
L172.168 331.2
L172.304 329.28
L172.44 321.6
L172.712 331.2
L172.984 323.52
L173.12 319.68
L173.393 308.16
L173.801 308.16
L173.937 306.24
L174.209 306.24
L174.345 304.32
L174.481 298.56
L174.754 298.56
L174.89 300.48
L175.434 300.48
L175.57 298.56
L175.842 298.56
L175.979 296.64
L176.115 296.64
L176.387 288.96
L176.931 288.96
L177.067 290.88
L177.476 290.88
L177.748 287.04
L177.884 287.04
L178.02 285.12
L178.292 285.12
L178.837 269.76
L179.245 269.76
L179.381 271.68
L179.517 271.68
L179.653 273.6
L179.925 269.76
L180.198 269.76
L180.334 267.84
L180.47 267.84
L180.606 265.92
L180.878 265.92
L181.014 264
L181.422 264
L181.559 265.92
L182.103 265.92
L182.239 267.84
L182.647 256.32
L183.328 256.32
L183.464 254.4
L184.008 254.4
L184.144 256.32
L184.689 256.32
L184.825 254.4
L185.505 254.4
L185.641 256.32
L186.186 256.32
L186.322 258.24
L186.594 258.24
L186.73 256.32
L187.139 256.32
L187.275 254.4
L187.411 254.4
L187.547 252.48
L187.683 252.48
L187.955 248.64
L188.091 248.64
L188.227 250.56
L189.316 250.56
L189.452 248.64
L189.588 248.64
L189.724 246.72
L189.86 248.64
L190.405 248.64
L190.541 246.72
L190.677 246.72
L191.221 248.64
L191.358 246.72
L191.494 246.72
L191.63 244.8
L192.582 244.8
L192.719 246.72
L192.855 246.72
L192.991 244.8
L194.08 244.8
L194.216 242.88
L194.488 246.72
L195.577 246.72
L195.713 248.64
L196.665 248.64
L196.801 246.72
L197.074 246.72
L197.346 242.88
L197.482 242.88
L197.618 244.8
L198.162 244.8
L198.299 246.72
L198.435 246.72
L198.571 244.8
L198.843 244.8
L198.979 246.72
L202.381 246.72
L202.518 244.8
L202.79 244.8
L202.926 242.88
L203.062 239.04
L203.198 239.04
L203.47 242.88
L203.606 242.88
L203.742 244.8
L204.423 244.8
L204.559 246.72
L204.695 246.72
L204.831 248.64
L205.24 248.64
L205.376 250.56
L205.648 250.56
L205.784 252.48
L205.92 250.56
L206.056 250.56
L206.192 248.64
L206.328 248.64
L206.464 246.72
L206.6 246.72
L206.737 244.8
L208.506 244.8
L208.642 242.88
L208.914 242.88
L209.05 244.8
L209.186 244.8
L209.322 246.72
L209.731 246.72
L210.139 240.96
L210.956 240.96
L211.092 239.04
L211.364 239.04
L211.636 231.36
L211.908 231.36
L212.18 235.2
L212.317 235.2
L212.453 237.12
L212.589 237.12
L212.725 239.04
L212.861 239.04
L212.997 240.96
L213.133 240.96
L213.405 244.8
L213.541 242.88
L213.95 233.28
L214.086 231.36
L214.222 231.36
L214.358 229.44
L214.494 229.44
L214.902 239.04
L215.039 239.04
L215.175 240.96
L215.311 240.96
L215.447 244.8
L215.583 242.88
L215.719 242.88
L215.855 240.96
L215.991 240.96
L224.429 315.84
L224.565 315.84
L224.838 321.6
L224.974 321.6
L225.11 323.52
L225.246 323.52
L225.382 325.44
L225.518 325.44
L225.79 321.6
L226.062 331.2
L226.199 331.2
L226.471 340.8
L226.607 340.8
L226.879 336
L227.151 336
L227.287 337.92
L227.423 337.92
L227.56 338.88
L227.696 340.8
L227.968 340.8
L228.104 338.88
L228.376 338.88
L229.329 327.36
L229.465 327.84
L229.873 329.28
L230.145 323.52
L230.281 321.6
L230.69 321.6
L230.826 323.52
L230.962 323.52
L231.234 319.68
L231.506 323.52
L231.779 323.52
L232.051 325.44
L232.459 325.44
L232.595 323.52
L232.731 323.52
L233.003 319.68
L233.276 319.68
L233.412 317.76
L233.548 313.92
L233.684 317.76
L233.956 310.08
L234.092 310.08
L234.228 312
L234.364 310.08
L234.637 310.08
L234.773 308.16
L235.181 308.16
L235.453 312
L235.589 312
L235.861 315.84
L235.998 315.84
L236.134 317.76
L236.95 317.76
L237.086 315.84
L237.222 315.84
L237.767 317.76
L237.903 315.84
L238.039 317.76
L238.175 317.76
L238.311 315.84
L238.447 315.84
L238.583 317.76
L238.72 317.76
L238.856 319.68
L239.128 319.68
L239.264 317.76
L239.4 317.76
L239.672 321.6
L239.808 321.6
L239.944 323.52
L240.353 323.52
L240.625 327.36
L241.033 327.36
L241.169 329.28
L241.578 329.28
L241.714 327.36
L242.53 327.36
L242.802 323.52
L243.075 323.52
L243.211 321.6
L243.347 323.52
L243.483 323.52
L243.619 325.44
L243.755 325.44
L243.891 327.36
L244.3 327.36
L244.436 325.44
L244.98 325.44
L245.116 327.36
L245.252 327.36
L245.524 331.2
L245.66 331.2
L245.797 333.12
L245.933 333.12
L246.069 331.2
L246.477 331.2
L246.613 333.12
L246.749 332.16
L246.885 332.16
L247.566 331.2
L247.974 329.28
L248.655 329.28
L248.791 331.2
L249.063 331.2
L249.199 329.28
L250.288 329.28
L250.424 327.36
L253.146 327.36
L253.282 329.28
L254.099 329.28
L254.507 323.52
L254.643 319.68
L254.779 321.6
L254.915 319.68
L255.051 319.68
L255.323 327.36
L255.46 327.36
L255.596 329.28
L255.732 327.36
L256.14 327.36
L256.276 329.28
L256.412 329.28
L256.548 331.2
L256.82 331.2
L256.957 329.28
L257.229 329.28
L257.365 331.2
L257.909 331.2
L258.181 327.36
L258.318 329.28
L258.59 329.28
L258.726 327.36
L258.998 327.36
L259.27 324.891
L260.087 321.6
L260.359 321.6
L260.495 319.68
L260.767 319.68
L260.903 317.76
L261.312 317.76
L261.584 321.6
L261.856 327.36
L261.992 327.36
L262.128 329.28
L262.4 329.28
L262.537 331.2
L262.673 331.2
L262.809 333.12
L263.081 333.12
L263.353 336.96
L263.489 336.96
L263.625 333.12
L263.761 335.04
L264.306 335.04
L264.442 333.12
L264.714 333.12
L264.85 331.2
L265.259 331.2
L265.531 327.36
L265.667 327.36
L265.939 321.6
L266.075 319.68
L266.211 315.84
L266.347 315.84
L266.483 313.92
L266.62 313.92
L266.756 310.08
L267.028 310.08
L267.164 312
L267.844 312
L267.98 313.92
L274.105 269.76
L274.241 267.84
L274.377 267.84
L274.513 265.92
L274.649 265.92
L274.785 264
L275.058 267.84
L275.194 267.84
L275.33 269.76
L275.874 262.08
L276.01 262.08
L276.282 246.72
L276.419 244.8
L276.555 246.72
L276.827 240.96
L277.235 235.2
L277.371 235.2
L277.507 233.28
L277.643 233.28
L277.78 235.2
L278.324 235.2
L278.868 227.52
L279.004 227.52
L279.14 225.6
L279.549 225.6
L279.685 223.68
L279.821 223.68
L280.229 217.92
L280.638 204.48
L280.91 196.8
L281.046 198.72
L281.318 206.4
L281.59 206.4
L281.726 208.32
L281.999 208.32
L282.271 202.56
L282.407 202.56
L282.543 200.64
L283.087 200.64
L283.223 198.72
L283.36 198.72
L283.496 196.8
L283.768 191.04
L284.04 187.2
L284.176 187.2
L284.584 192.96
L284.72 192.96
L284.857 194.88
L284.993 194.88
L285.129 196.8
L285.401 196.8
L285.537 194.88
L285.673 194.88
L286.081 200.64
L286.354 200.64
L286.49 198.72
L286.762 198.72
L287.306 191.04
L287.579 183.36
L287.715 183.36
L288.123 171.84
L288.259 171.84
L288.667 166.08
L288.803 166.08
L288.94 164.16
L289.076 164.16
L289.212 162.24
L289.348 162.24
L289.62 152.64
L289.756 150.72
L289.892 152.64
L290.028 152.64
L290.164 154.56
L290.3 154.56
L290.573 150.72
L290.981 150.72
L291.117 148.8
L291.525 148.8
L291.798 144.96
L291.934 144.96
L292.07 146.88
L292.478 146.88
L292.614 148.8
L293.159 148.8
L293.431 152.64
L293.703 152.64
L293.839 150.72
L294.52 150.72
L294.656 148.8
L294.792 148.8
L294.928 146.88
L295.2 146.88
L295.336 144.96
L295.744 144.96
L295.88 143.04
L296.969 143.04
L297.241 127.68
L297.378 123.84
L297.65 112.32
L297.786 108.48
L297.922 108.48
L298.466 95.04
L298.875 73.92
L299.011 72
L299.419 77.76
L299.691 83.52
L299.963 87.36
L300.1 95.04
L300.236 95.04
L300.372 98.88
L300.644 93.12
L300.78 96.96
L301.052 89.28
L301.188 87.36
L302.005 66.24
L302.141 68.16
L302.821 68.16
L302.958 66.24
L303.094 70.08
L303.23 70.08
L303.366 68.16
L303.774 68.16
L303.91 70.08
L304.046 70.08
L304.182 66.24
L304.727 66.24
L304.863 68.16
L305.135 68.16
L305.407 64.32
L306.088 64.32
L306.224 62.4
L306.496 54.72
L306.768 54.72
L306.904 48.96
L307.04 48.96
L307.177 50.88
L307.313 50.88
L307.449 52.8
L307.585 52.8
L307.721 54.72
L307.993 66.24
L308.401 77.76
L308.674 91.2
L308.946 91.2
L309.218 95.04
L309.354 95.04
L309.49 98.88
L309.626 98.88
L309.899 108.48
L310.443 158.4
L310.715 143.04
L310.851 100.8
L311.532 81.6
L311.804 81.6
L311.94 73.92
L312.212 81.6
L312.348 91.2
L312.484 91.2
L312.757 100.8
L313.029 85.44
L313.165 81.6
L313.301 85.44
L313.437 85.44
L313.709 110.4
L314.254 139.2
L314.39 196.8
L314.526 196.8
L315.07 231.36
L315.206 235.2
L315.479 250.56
L320.514 335.04
L320.786 335.04
L320.922 333.12
L321.331 333.12
L321.467 335.04
L321.603 335.04
L322.147 329.28
L322.556 338.88
L322.692 336.96
L322.828 336.96
L322.964 338.88
L323.1 336.96
L323.372 336.96
L323.644 340.8
L323.78 340.8
L324.053 348.48
L324.189 346.56
L324.325 346.56
L324.461 344.64
L324.597 344.64
L324.733 338.88
L325.141 348.48
L325.278 346.56
L325.414 346.56
L325.55 344.64
L326.094 352.32
L326.502 352.32
L326.639 350.4
L326.775 342.72
L328.544 342.72
L328.68 344.64
L328.816 342.72
L329.36 342.72
L329.497 338.88
L329.633 338.88
L329.769 336.96
L330.313 336.96
L330.449 335.04
L330.585 335.04
L330.858 331.2
L331.266 331.2
L332.082 300.48
L332.219 306.24
L332.355 304.32
L332.491 304.32
L332.627 302.4
L332.763 304.32
L333.035 304.32
L333.171 306.24
L333.443 306.24
L333.58 308.16
L333.852 313.92
L333.988 313.92
L334.124 315.84
L334.26 315.84
L334.532 312
L335.349 312
L335.485 313.92
L336.165 313.92
L336.301 312
L336.438 312
L336.574 313.92
L337.118 313.92
L337.254 312
L337.39 312
L337.526 313.92
L337.935 313.92
L338.071 312
L338.751 312
L338.887 313.92
L339.16 313.92
L339.432 310.08
L339.568 310.08
L339.704 312
L340.657 312
L341.065 313.92
L342.154 313.92
L342.698 312
L342.97 312
L343.651 310.08
L344.603 310.08
L344.74 309.12
L345.148 309.12
L345.284 308.16
L345.556 308.16
L345.692 309.12
L345.828 309.12
L345.964 310.08
L346.1 310.08
L346.373 308.16
L347.053 308.16
L347.189 306.24
L347.325 306.24
L347.461 304.32
L347.598 304.32
L348.822 296.64
L348.959 296.64
L349.231 300.48
L349.367 300.48
L349.775 294.72
L350.047 288.96
L350.32 285.12
L350.864 285.12
L351 283.2
L351.408 283.2
L351.68 269.76
L352.225 235.2
L352.497 262.08
L352.633 260.16
L352.769 252.48
L353.041 260.16
L353.178 262.08
L353.314 262.08
L353.45 260.16
L353.722 254.4
L354.13 264
L354.266 264
L354.402 262.08
L354.539 262.08
L354.675 260.16
L354.811 260.16
L355.083 256.32
L355.219 258.24
L355.491 258.24
L355.627 256.32
L355.9 260.16
L356.036 260.16
L356.308 265.92
L356.444 267.84
L356.58 267.84
L357.26 277.44
L357.397 283.2
L357.533 283.2
L357.805 279.36
L357.941 279.36
L358.077 281.28
L358.485 275.52
L358.758 256.32
L358.894 252.48
L359.03 254.4
L359.166 258.24
L359.438 267.84
L359.846 256.32
L361.207 267.84
L361.343 271.68
L361.48 267.84
L361.752 267.84
L361.888 269.76
L362.024 269.76
L362.16 271.68
L362.296 271.68
L362.432 269.76
L362.568 269.76
L362.704 267.84
L362.84 269.76
L362.977 267.84
L363.113 267.84
L363.657 275.52
L363.793 279.36
L363.929 279.36
L364.474 271.68
L364.61 271.68
L364.746 267.84
L364.882 269.76
L365.154 269.76
L365.426 273.6
L365.562 273.6
L365.835 269.76
L365.971 269.76
L366.379 283.2
L366.515 285.12
L366.787 285.12
L366.923 283.2
L367.06 283.2
L367.332 288.96
L367.604 292.8
L367.74 300.48
L367.876 292.8
L373.456 302.4
L373.592 300.48
L374 290.88
L374.273 296.64
L374.409 296.64
L374.545 298.56
L374.681 294.72
L374.817 294.72
L374.953 296.64
L375.089 296.64
L375.361 306.24
L375.634 310.08
L375.906 310.08
L376.178 306.24
L376.314 306.24
L376.45 310.08
L376.859 310.08
L376.995 308.16
L377.131 308.16
L377.267 306.24
L377.403 306.24
L377.539 302.4
L377.675 302.4
L377.811 300.48
L378.083 300.48
L378.22 298.56
L378.628 298.56
L378.764 300.48
L379.036 300.48
L379.444 290.88
L379.58 288.96
L379.717 288.96
L379.853 287.04
L380.533 287.04
L380.805 283.2
L381.214 283.2
L381.35 285.12
L381.758 285.12
L382.03 281.28
L382.575 265.92
L382.847 271.68
L382.983 271.68
L383.119 273.6
L383.255 273.6
L383.527 269.76
L383.663 264
L383.8 264
L383.936 265.92
L384.072 265.92
L384.344 268.8
L385.024 273.6
L385.297 273.6
L385.433 271.68
L385.569 271.68
L385.705 273.6
L385.841 273.6
L385.977 275.52
L387.202 275.52
L387.338 277.44
L387.746 277.44
L388.019 273.6
L388.563 273.6
L388.699 271.68
L388.835 271.68
L388.971 273.6
L389.652 273.6
L389.788 275.52
L389.924 275.52
L390.06 273.6
L391.693 273.6
L392.101 279.36
L392.238 279.36
L392.646 281.28
L392.782 281.28
L392.918 279.36
L393.326 279.36
L393.462 281.28
L393.599 281.28
L393.735 283.2
L393.871 283.2
L394.007 285.12
L394.143 285.12
L394.279 287.04
L394.551 287.04
L394.823 283.2
L395.096 277.44
L395.504 277.44
L395.64 279.36
L395.776 279.36
L395.912 277.44
L396.593 277.44
L397.001 271.68
L397.137 271.68
L397.409 275.52
L397.681 275.52
L397.818 273.6
L398.09 273.6
L398.226 275.52
L398.634 275.52
L398.77 273.6
L399.315 273.6
L399.451 275.52
L399.859 275.52
L399.995 279.36
L401.084 279.36
L401.356 283.2
L401.492 283.2
L401.628 285.12
L402.173 285.12
L402.445 281.28
L402.717 281.28
L402.989 277.44
L403.261 267.84
L403.398 269.76
L403.534 273.6
L403.67 273.6
L403.942 277.44
L404.35 287.04
L404.622 290.88
L404.895 298.56
L405.031 298.56
L405.303 294.72
L405.439 290.88
L405.575 290.88
L405.711 292.8
L405.983 292.8
L406.12 296.64
L406.256 296.64
L406.664 302.4
L406.8 302.4
L407.072 298.56
L407.208 298.56
L407.48 302.4
L407.753 302.4
L408.025 306.24
L408.161 306.24
L408.297 308.16
L408.569 308.16
L408.705 310.08
L408.841 310.08
L408.978 308.16
L409.25 300.48
L409.522 296.64
L409.794 302.4
L409.93 302.4
L410.066 300.48
L410.202 302.4
L410.339 302.4
L410.747 312
L410.883 312
L411.291 321.6
L411.7 327.36
L411.836 331.2
L412.244 325.44
L412.38 325.44
L412.652 331.2
L413.469 331.2
L413.605 333.12
L413.741 336.96
L413.877 336.96
L414.013 338.88
L414.149 338.88
L415.102 342.72
L415.238 344.64
L415.646 344.64
L415.782 342.72
L416.191 333.12
L416.327 333.12
L416.463 331.2
L416.599 336.96
L417.143 336.96
L417.28 331.2
L417.416 331.2
L417.688 306.24
L417.824 298.56
L418.232 304.32
L418.504 310.08
L418.777 310.08
L419.049 306.24
L422.451 298.56
L422.86 292.8
L422.996 294.72
L423.132 294.72
L423.268 298.56
L423.812 290.88
L424.357 269.76
L424.493 271.68
L424.629 275.52
L424.901 265.92
L425.037 265.92
L425.173 267.84
L425.309 267.84
L425.445 264
L425.581 264
L425.854 254.4
L425.99 246.72
L426.126 246.72
L426.262 248.64
L426.534 244.8
L426.67 240.96
L426.942 225.6
L427.215 216
L427.487 196.8
L427.623 192.96
L427.895 200.64
L428.031 200.64
L428.303 204.48
L428.44 204.48
L428.712 212.16
L429.256 196.8
L429.664 208.32
L429.937 208.32
L430.073 206.4
L430.617 206.4
L430.753 208.32
L430.889 208.32
L431.161 204.48
L431.434 204.48
L431.57 200.64
L431.706 200.64
L432.114 183.36
L432.25 179.52
L432.522 183.36
L432.659 183.36
L432.795 185.28
L433.203 185.28
L433.475 189.12
L434.564 189.12
L434.7 191.04
L435.108 191.04
L435.244 189.12
L436.333 189.12
L436.469 187.2
L437.014 187.2
L437.15 175.68
L437.286 173.76
L437.422 173.76
L437.558 175.68
L437.966 169.92
L438.375 158.4
L438.511 158.4
L438.783 146.88
L438.919 143.04
L439.055 143.04
L439.191 146.88
L439.327 144.96
L439.463 144.96
L440.008 152.64
L440.144 152.64
L440.28 158.4
L440.416 154.56
L440.552 158.4
L440.688 158.4
L440.96 164.16
L441.233 164.16
L441.369 162.24
L441.505 166.08
L441.641 166.08
L441.777 169.92
L441.913 169.92
L442.049 173.76
L442.185 173.76
L442.321 175.68
L442.458 175.68
L442.594 177.6
L442.866 177.6
L443.002 173.76
L443.138 173.76
L443.274 169.92
L443.41 169.92
L443.819 164.16
L443.955 164.16
L444.091 168
L444.227 168
L444.499 150.72
L445.18 164.16
L445.588 158.4
L445.724 158.4
L445.996 162.24
L446.132 162.24
L446.268 164.16
L446.404 164.16
L446.677 168
L446.813 168
L447.221 173.76
L447.493 169.92
L447.765 173.76
L447.901 173.76
L448.174 177.6
L448.446 173.76
L448.718 173.76
L448.854 171.84
L448.99 173.76
L449.262 181.44
L449.399 181.44
L449.535 185.28
L449.671 185.28
L449.807 187.2
L449.943 187.2
L450.079 185.28
L450.215 185.28
L450.351 183.36
L450.623 183.36
L450.76 177.6
L450.896 177.6
L451.168 160.32
L451.304 160.32
L451.44 169.92
L451.848 169.92
L451.984 171.84
L452.12 171.84
L452.257 173.76
L452.393 173.76
L452.529 175.68
L452.937 175.68
L453.073 177.6
L453.618 177.6
L453.754 179.52
L454.026 179.52
L454.162 177.6
L454.57 177.6
L454.706 173.76
L454.842 173.76
L454.979 169.92
L455.251 169.92
L455.523 166.08
L455.659 166.08
L455.931 162.24
L456.067 162.24
L456.203 166.08
L456.476 166.08
L456.612 168
L457.156 154.56
L457.292 160.32
L457.428 160.32
L457.7 166.08
L457.837 164.16
L457.973 164.16
L458.109 162.24
L458.245 162.24
L458.381 158.4
L458.517 158.4
L458.789 144.96
L458.925 143.04
L459.061 139.2
L459.334 150.72
L459.47 154.56
L459.606 154.56
L459.878 150.72
L460.014 150.72
L460.559 164.16
L460.695 166.08
L460.831 169.92
L461.239 192.96
L461.375 192.96
L461.511 191.04
L461.92 200.64
L462.056 202.56
L462.192 212.16
L462.328 212.16
L462.736 254.4
L462.872 254.4
L463.144 246.72
L463.28 246.72
L463.553 212.16
L463.825 219.84
L463.961 227.52
L464.641 192.96
L464.778 189.12
L464.914 192.96
L465.05 192.96
L465.186 196.8
L465.322 208.32
L465.594 212.16
L465.73 212.16
L465.866 208.32
L466.002 208.32
L466.139 204.48
L466.275 204.48
L466.411 208.32
L466.547 216
L466.683 216
L466.819 212.16
L466.955 212.16
L473.488 288.96
L473.624 287.04
L473.76 287.04
L473.896 298.56
L474.032 300.48
L474.168 304.32
L474.304 302.4
L474.44 298.56
L474.577 300.48
L474.713 298.56
L475.121 285.12
L475.393 290.88
L475.529 288.96
L475.801 283.2
L475.938 285.12
L476.074 285.12
L476.21 287.04
L476.618 279.36
L476.89 279.36
L477.026 277.44
L477.299 271.68
L477.435 271.68
L477.571 262.08
L477.707 262.08
L477.843 260.16
L477.979 262.08
L478.251 262.08
L479.204 248.64
L479.476 239.04
L480.02 225.6
L480.157 225.6
L480.293 227.52
L480.565 227.52
L480.701 229.44
L480.837 229.44
L480.973 231.36
L481.109 231.36
L481.245 229.44
L481.518 229.44
L481.654 227.52
L481.926 227.52
L482.062 225.6
L482.334 217.92
L482.742 217.92
L482.879 219.84
L483.015 219.84
L483.151 223.68
L483.423 223.68
L483.559 225.6
L483.967 225.6
L484.103 227.52
L484.376 233.28
L484.512 235.2
L485.328 235.2
L485.6 239.04
L485.737 239.04
L485.873 237.12
L486.825 237.12
L486.961 239.04
L487.642 239.04
L487.778 240.96
L487.914 240.96
L488.05 242.88
L488.186 242.88
L488.322 244.8
L488.595 244.8
L488.731 242.88
L489.275 242.88
L489.411 244.8
L489.82 244.8
L489.956 242.88
L490.908 242.88
L491.044 240.96
L491.453 240.96
L491.589 237.12
L491.725 237.12
L491.861 240.96
L491.997 240.96
L492.133 242.88
L492.405 242.88
L492.541 244.8
L492.814 244.8
L492.95 242.88
L493.086 242.88
L493.222 240.96
L493.494 240.96
L493.766 244.8
L494.175 244.8
L494.311 242.88
L494.719 242.88
L494.855 240.96
L494.991 240.96
L495.127 242.88
L495.672 242.88
L495.944 239.04
L496.08 239.04
L496.216 237.12
L496.352 233.28
L496.488 239.04
L496.76 239.04
L496.897 240.96
L497.169 240.96
L497.305 239.04
L497.577 242.88
L497.985 242.88
L498.121 244.8
L499.21 244.8
L499.346 246.72
L499.755 246.72
L499.891 248.64
L500.027 248.64
L500.163 244.8
L500.299 244.8
L500.435 246.72
L500.571 246.72
L500.707 248.64
L500.98 248.64
L501.388 253.12
L501.524 254.4
L501.796 254.4
L501.932 252.48
L502.068 252.48
L502.477 246.72
L502.613 246.72
L502.885 242.88
L503.293 225.6
L503.429 223.68
L503.838 212.16
L504.11 200.64
L504.79 181.44
L505.062 135.36
L505.199 120
L505.607 139.2
L506.015 144.96
L506.287 154.56
L506.696 129.6
L506.832 125.76
L506.968 154.56
L507.24 158.4
L507.376 139.2
L507.512 139.2
L507.648 127.68
L507.784 129.6
L508.193 144.96
L508.329 146.88
L508.601 143.04
L508.737 146.88
L508.873 144.96
L509.554 144.96
L509.69 141.12
L509.826 141.12
L509.962 143.04
L510.234 152.64
L510.37 152.64
L510.642 158.4
L510.779 158.4
L511.051 133.44
L511.459 121.92
L511.595 121.92
L511.731 127.68
L511.867 121.92
L512.684 144.96
L512.82 144.96
L513.364 120
L513.5 110.4
L513.637 116.16
L513.773 116.16
L514.589 125.76
L514.998 93.12
L515.27 93.12
L515.406 89.28
L516.086 139.2
L516.222 139.2
L516.359 129.6
L518.4 165.287
L518.4 165.287" style="fill:none;stroke:#0000ff;"/>
   </g>
   <g id="line2d_3">
    <path clip-path="url(#p7ff5b81e1d)" d="
M451.984 167.227
L452.529 153.895
L453.073 154.735
L453.754 162.82
L454.162 163.917
L454.979 157.406
L455.387 154.567
L455.931 150.417
L456.34 149.053
L456.884 149.977
L457.428 149.147
L457.973 147.178
L458.517 149.539
L459.061 144.822
L459.606 132.723
L460.15 133.702
L460.967 154.519
L461.239 159.478
L461.92 184.224
L462.328 191.668
L463.008 217.987
L463.553 241.322
L463.961 248.388
L465.594 194.05
L466.139 209.637
L466.683 212.411
L467.227 239.114
L467.772 215.041
L468.452 229.453
L468.86 231.925
L469.405 224.797
L469.949 245.207
L470.494 241.521
L471.174 255.365
L471.582 257.454
L472.535 269.236
L472.671 270.656
L473.216 268.67
L473.76 273.304
L474.304 273.515
L474.849 282.137
L475.393 277.901
L476.21 264.864
L476.89 255.6
L477.026 253.582
L477.571 253.622
L478.115 242.559
L478.66 242.605
L479.34 234.52
L479.748 231.556
L480.837 208.964
L481.381 219.173
L481.926 219.545
L482.47 226.545
L483.151 215.573
L483.559 213.865
L484.103 216.572
L485.328 236.626
L486.281 242.235
L486.825 239.163
L487.37 239.11
L487.914 242.132
L488.459 241.459
L489.003 247.906
L489.547 246.001
L490.092 247.249
L490.772 244.338
L491.317 243.228
L491.725 242.921
L492.269 238.397
L492.95 242.876
L493.358 244.591
L493.902 236.738
L494.447 236.832
L494.991 236.274
L495.536 234.341
L496.216 234.127
L496.624 233.787
L497.305 232.325
L497.713 231.906
L498.394 237.875
L498.802 239.298
L499.346 239.349
L499.891 241.891
L501.252 242.471
L501.66 243.063
L502.613 245.245
L503.157 239.701
L504.654 194.008
L505.199 179.389
L505.335 175.958
L505.879 145.466
L506.423 140.953
L507.104 146.2
L507.512 150.52
L508.057 147.27
L508.601 129.253
L509.145 140.328
L509.69 126.366
L510.234 152.085
L510.779 150.616
L511.323 158.664
L512.003 138.154
L512.412 135.228
L513.092 140.772
L513.5 145.961
L514.589 128.685
L515.134 127.136
L515.678 110.869
L516.767 132.904
L517.311 138.111
L517.856 137.439
L518.4 146.088
L518.4 146.088" style="fill:none;stroke:#ff0000;"/>
   </g>
   <g id="matplotlib.axis_1">
    <g id="xtick_1">
     <g id="line2d_4">
      <path clip-path="url(#p7ff5b81e1d)" d="
M116.776 388.8
L116.776 43.2" style="fill:none;stroke:#000000;stroke-dasharray:1.000000,3.000000;stroke-dashoffset:0.0;stroke-linecap:butt;stroke-width:0.5;"/>
     </g>
     <g id="line2d_5">
      <defs>
       <path d="
M0 0
L0 -4" id="mcb557df647" style="stroke:#000000;stroke-linecap:butt;stroke-width:0.5;"/>
      </defs>
      <g>
       <use style="stroke:#000000;stroke-linecap:butt;stroke-width:0.5;" x="116.776097561" xlink:href="#mcb557df647" y="388.8"/>
      </g>
     </g>
     <g id="line2d_6">
      <defs>
       <path d="
M0 0
L0 4" id="mdad270ee8e" style="stroke:#000000;stroke-linecap:butt;stroke-width:0.5;"/>
      </defs>
      <g>
       <use style="stroke:#000000;stroke-linecap:butt;stroke-width:0.5;" x="116.776097561" xlink:href="#mdad270ee8e" y="43.2"/>
      </g>
     </g>
     <g id="text_1">
      <!-- 2006 -->
      <defs>
       <path d="
M31.7812 66.4062
Q24.1719 66.4062 20.3281 58.9062
Q16.5 51.4219 16.5 36.375
Q16.5 21.3906 20.3281 13.8906
Q24.1719 6.39062 31.7812 6.39062
Q39.4531 6.39062 43.2812 13.8906
Q47.125 21.3906 47.125 36.375
Q47.125 51.4219 43.2812 58.9062
Q39.4531 66.4062 31.7812 66.4062
M31.7812 74.2188
Q44.0469 74.2188 50.5156 64.5156
Q56.9844 54.8281 56.9844 36.375
Q56.9844 17.9688 50.5156 8.26562
Q44.0469 -1.42188 31.7812 -1.42188
Q19.5312 -1.42188 13.0625 8.26562
Q6.59375 17.9688 6.59375 36.375
Q6.59375 54.8281 13.0625 64.5156
Q19.5312 74.2188 31.7812 74.2188" id="DejaVuSans-30"/>
       <path d="
M19.1875 8.29688
L53.6094 8.29688
L53.6094 0
L7.32812 0
L7.32812 8.29688
Q12.9375 14.1094 22.625 23.8906
Q32.3281 33.6875 34.8125 36.5312
Q39.5469 41.8438 41.4219 45.5312
Q43.3125 49.2188 43.3125 52.7812
Q43.3125 58.5938 39.2344 62.25
Q35.1562 65.9219 28.6094 65.9219
Q23.9688 65.9219 18.8125 64.3125
Q13.6719 62.7031 7.8125 59.4219
L7.8125 69.3906
Q13.7656 71.7812 18.9375 73
Q24.125 74.2188 28.4219 74.2188
Q39.75 74.2188 46.4844 68.5469
Q53.2188 62.8906 53.2188 53.4219
Q53.2188 48.9219 51.5312 44.8906
Q49.8594 40.875 45.4062 35.4062
Q44.1875 33.9844 37.6406 27.2188
Q31.1094 20.4531 19.1875 8.29688" id="DejaVuSans-32"/>
       <path d="
M33.0156 40.375
Q26.375 40.375 22.4844 35.8281
Q18.6094 31.2969 18.6094 23.3906
Q18.6094 15.5312 22.4844 10.9531
Q26.375 6.39062 33.0156 6.39062
Q39.6562 6.39062 43.5312 10.9531
Q47.4062 15.5312 47.4062 23.3906
Q47.4062 31.2969 43.5312 35.8281
Q39.6562 40.375 33.0156 40.375
M52.5938 71.2969
L52.5938 62.3125
Q48.875 64.0625 45.0938 64.9844
Q41.3125 65.9219 37.5938 65.9219
Q27.8281 65.9219 22.6719 59.3281
Q17.5312 52.7344 16.7969 39.4062
Q19.6719 43.6562 24.0156 45.9219
Q28.375 48.1875 33.5938 48.1875
Q44.5781 48.1875 50.9531 41.5156
Q57.3281 34.8594 57.3281 23.3906
Q57.3281 12.1562 50.6875 5.35938
Q44.0469 -1.42188 33.0156 -1.42188
Q20.3594 -1.42188 13.6719 8.26562
Q6.98438 17.9688 6.98438 36.375
Q6.98438 53.6562 15.1875 63.9375
Q23.3906 74.2188 37.2031 74.2188
Q40.9219 74.2188 44.7031 73.4844
Q48.4844 72.75 52.5938 71.2969" id="DejaVuSans-36"/>
      </defs>
      <g transform="translate(102.323597561 401.70625)scale(0.12 -0.12)">
       <use xlink:href="#DejaVuSans-32"/>
       <use x="63.623046875" xlink:href="#DejaVuSans-30"/>
       <use x="127.24609375" xlink:href="#DejaVuSans-30"/>
       <use x="190.869140625" xlink:href="#DejaVuSans-36"/>
      </g>
     </g>
    </g>
    <g id="xtick_2">
     <g id="line2d_7">
      <path clip-path="url(#p7ff5b81e1d)" d="
M166.452 388.8
L166.452 43.2" style="fill:none;stroke:#000000;stroke-dasharray:1.000000,3.000000;stroke-dashoffset:0.0;stroke-linecap:butt;stroke-width:0.5;"/>
     </g>
     <g id="line2d_8">
      <g>
       <use style="stroke:#000000;stroke-linecap:butt;stroke-width:0.5;" x="166.451707317" xlink:href="#mcb557df647" y="388.8"/>
      </g>
     </g>
     <g id="line2d_9">
      <g>
       <use style="stroke:#000000;stroke-linecap:butt;stroke-width:0.5;" x="166.451707317" xlink:href="#mdad270ee8e" y="43.2"/>
      </g>
     </g>
     <g id="text_2">
      <!-- 2007 -->
      <defs>
       <path d="
M8.20312 72.9062
L55.0781 72.9062
L55.0781 68.7031
L28.6094 0
L18.3125 0
L43.2188 64.5938
L8.20312 64.5938
z
" id="DejaVuSans-37"/>
      </defs>
      <g transform="translate(152.134207317 401.70625)scale(0.12 -0.12)">
       <use xlink:href="#DejaVuSans-32"/>
       <use x="63.623046875" xlink:href="#DejaVuSans-30"/>
       <use x="127.24609375" xlink:href="#DejaVuSans-30"/>
       <use x="190.869140625" xlink:href="#DejaVuSans-37"/>
      </g>
     </g>
    </g>
    <g id="xtick_3">
     <g id="line2d_10">
      <path clip-path="url(#p7ff5b81e1d)" d="
M216.127 388.8
L216.127 43.2" style="fill:none;stroke:#000000;stroke-dasharray:1.000000,3.000000;stroke-dashoffset:0.0;stroke-linecap:butt;stroke-width:0.5;"/>
     </g>
     <g id="line2d_11">
      <g>
       <use style="stroke:#000000;stroke-linecap:butt;stroke-width:0.5;" x="216.127317073" xlink:href="#mcb557df647" y="388.8"/>
      </g>
     </g>
     <g id="line2d_12">
      <g>
       <use style="stroke:#000000;stroke-linecap:butt;stroke-width:0.5;" x="216.127317073" xlink:href="#mdad270ee8e" y="43.2"/>
      </g>
     </g>
     <g id="text_3">
      <!-- 2008 -->
      <defs>
       <path d="
M31.7812 34.625
Q24.75 34.625 20.7188 30.8594
Q16.7031 27.0938 16.7031 20.5156
Q16.7031 13.9219 20.7188 10.1562
Q24.75 6.39062 31.7812 6.39062
Q38.8125 6.39062 42.8594 10.1719
Q46.9219 13.9688 46.9219 20.5156
Q46.9219 27.0938 42.8906 30.8594
Q38.875 34.625 31.7812 34.625
M21.9219 38.8125
Q15.5781 40.375 12.0312 44.7188
Q8.5 49.0781 8.5 55.3281
Q8.5 64.0625 14.7188 69.1406
Q20.9531 74.2188 31.7812 74.2188
Q42.6719 74.2188 48.875 69.1406
Q55.0781 64.0625 55.0781 55.3281
Q55.0781 49.0781 51.5312 44.7188
Q48 40.375 41.7031 38.8125
Q48.8281 37.1562 52.7969 32.3125
Q56.7812 27.4844 56.7812 20.5156
Q56.7812 9.90625 50.3125 4.23438
Q43.8438 -1.42188 31.7812 -1.42188
Q19.7344 -1.42188 13.25 4.23438
Q6.78125 9.90625 6.78125 20.5156
Q6.78125 27.4844 10.7812 32.3125
Q14.7969 37.1562 21.9219 38.8125
M18.3125 54.3906
Q18.3125 48.7344 21.8438 45.5625
Q25.3906 42.3906 31.7812 42.3906
Q38.1406 42.3906 41.7188 45.5625
Q45.3125 48.7344 45.3125 54.3906
Q45.3125 60.0625 41.7188 63.2344
Q38.1406 66.4062 31.7812 66.4062
Q25.3906 66.4062 21.8438 63.2344
Q18.3125 60.0625 18.3125 54.3906" id="DejaVuSans-38"/>
      </defs>
      <g transform="translate(201.707629573 401.70625)scale(0.12 -0.12)">
       <use xlink:href="#DejaVuSans-32"/>
       <use x="63.623046875" xlink:href="#DejaVuSans-30"/>
       <use x="127.24609375" xlink:href="#DejaVuSans-30"/>
       <use x="190.869140625" xlink:href="#DejaVuSans-38"/>
      </g>
     </g>
    </g>
    <g id="xtick_4">
     <g id="line2d_13">
      <path clip-path="url(#p7ff5b81e1d)" d="
M265.939 388.8
L265.939 43.2" style="fill:none;stroke:#000000;stroke-dasharray:1.000000,3.000000;stroke-dashoffset:0.0;stroke-linecap:butt;stroke-width:0.5;"/>
     </g>
     <g id="line2d_14">
      <g>
       <use style="stroke:#000000;stroke-linecap:butt;stroke-width:0.5;" x="265.93902439" xlink:href="#mcb557df647" y="388.8"/>
      </g>
     </g>
     <g id="line2d_15">
      <g>
       <use style="stroke:#000000;stroke-linecap:butt;stroke-width:0.5;" x="265.93902439" xlink:href="#mdad270ee8e" y="43.2"/>
      </g>
     </g>
     <g id="text_4">
      <!-- 2009 -->
      <defs>
       <path d="
M10.9844 1.51562
L10.9844 10.5
Q14.7031 8.73438 18.5 7.8125
Q22.3125 6.89062 25.9844 6.89062
Q35.75 6.89062 40.8906 13.4531
Q46.0469 20.0156 46.7812 33.4062
Q43.9531 29.2031 39.5938 26.9531
Q35.25 24.7031 29.9844 24.7031
Q19.0469 24.7031 12.6719 31.3125
Q6.29688 37.9375 6.29688 49.4219
Q6.29688 60.6406 12.9375 67.4219
Q19.5781 74.2188 30.6094 74.2188
Q43.2656 74.2188 49.9219 64.5156
Q56.5938 54.8281 56.5938 36.375
Q56.5938 19.1406 48.4062 8.85938
Q40.2344 -1.42188 26.4219 -1.42188
Q22.7031 -1.42188 18.8906 -0.6875
Q15.0938 0.046875 10.9844 1.51562
M30.6094 32.4219
Q37.25 32.4219 41.125 36.9531
Q45.0156 41.5 45.0156 49.4219
Q45.0156 57.2812 41.125 61.8438
Q37.25 66.4062 30.6094 66.4062
Q23.9688 66.4062 20.0938 61.8438
Q16.2188 57.2812 16.2188 49.4219
Q16.2188 41.5 20.0938 36.9531
Q23.9688 32.4219 30.6094 32.4219" id="DejaVuSans-39"/>
      </defs>
      <g transform="translate(251.53058689 401.70625)scale(0.12 -0.12)">
       <use xlink:href="#DejaVuSans-32"/>
       <use x="63.623046875" xlink:href="#DejaVuSans-30"/>
       <use x="127.24609375" xlink:href="#DejaVuSans-30"/>
       <use x="190.869140625" xlink:href="#DejaVuSans-39"/>
      </g>
     </g>
    </g>
    <g id="xtick_5">
     <g id="line2d_16">
      <path clip-path="url(#p7ff5b81e1d)" d="
M315.615 388.8
L315.615 43.2" style="fill:none;stroke:#000000;stroke-dasharray:1.000000,3.000000;stroke-dashoffset:0.0;stroke-linecap:butt;stroke-width:0.5;"/>
     </g>
     <g id="line2d_17">
      <g>
       <use style="stroke:#000000;stroke-linecap:butt;stroke-width:0.5;" x="315.614634146" xlink:href="#mcb557df647" y="388.8"/>
      </g>
     </g>
     <g id="line2d_18">
      <g>
       <use style="stroke:#000000;stroke-linecap:butt;stroke-width:0.5;" x="315.614634146" xlink:href="#mdad270ee8e" y="43.2"/>
      </g>
     </g>
     <g id="text_5">
      <!-- 2010 -->
      <defs>
       <path d="
M12.4062 8.29688
L28.5156 8.29688
L28.5156 63.9219
L10.9844 60.4062
L10.9844 69.3906
L28.4219 72.9062
L38.2812 72.9062
L38.2812 8.29688
L54.3906 8.29688
L54.3906 0
L12.4062 0
z
" id="DejaVuSans-31"/>
      </defs>
      <g transform="translate(301.182759146 401.70625)scale(0.12 -0.12)">
       <use xlink:href="#DejaVuSans-32"/>
       <use x="63.623046875" xlink:href="#DejaVuSans-30"/>
       <use x="127.24609375" xlink:href="#DejaVuSans-31"/>
       <use x="190.869140625" xlink:href="#DejaVuSans-30"/>
      </g>
     </g>
    </g>
    <g id="xtick_6">
     <g id="line2d_19">
      <path clip-path="url(#p7ff5b81e1d)" d="
M365.29 388.8
L365.29 43.2" style="fill:none;stroke:#000000;stroke-dasharray:1.000000,3.000000;stroke-dashoffset:0.0;stroke-linecap:butt;stroke-width:0.5;"/>
     </g>
     <g id="line2d_20">
      <g>
       <use style="stroke:#000000;stroke-linecap:butt;stroke-width:0.5;" x="365.290243902" xlink:href="#mcb557df647" y="388.8"/>
      </g>
     </g>
     <g id="line2d_21">
      <g>
       <use style="stroke:#000000;stroke-linecap:butt;stroke-width:0.5;" x="365.290243902" xlink:href="#mdad270ee8e" y="43.2"/>
      </g>
     </g>
     <g id="text_6">
      <!-- 2011 -->
      <g transform="translate(351.013993902 401.70625)scale(0.12 -0.12)">
       <use xlink:href="#DejaVuSans-32"/>
       <use x="63.623046875" xlink:href="#DejaVuSans-30"/>
       <use x="127.24609375" xlink:href="#DejaVuSans-31"/>
       <use x="190.869140625" xlink:href="#DejaVuSans-31"/>
      </g>
     </g>
    </g>
    <g id="xtick_7">
     <g id="line2d_22">
      <path clip-path="url(#p7ff5b81e1d)" d="
M414.966 388.8
L414.966 43.2" style="fill:none;stroke:#000000;stroke-dasharray:1.000000,3.000000;stroke-dashoffset:0.0;stroke-linecap:butt;stroke-width:0.5;"/>
     </g>
     <g id="line2d_23">
      <g>
       <use style="stroke:#000000;stroke-linecap:butt;stroke-width:0.5;" x="414.965853659" xlink:href="#mcb557df647" y="388.8"/>
      </g>
     </g>
     <g id="line2d_24">
      <g>
       <use style="stroke:#000000;stroke-linecap:butt;stroke-width:0.5;" x="414.965853659" xlink:href="#mdad270ee8e" y="43.2"/>
      </g>
     </g>
     <g id="text_7">
      <!-- 2012 -->
      <g transform="translate(400.736478659 401.70625)scale(0.12 -0.12)">
       <use xlink:href="#DejaVuSans-32"/>
       <use x="63.623046875" xlink:href="#DejaVuSans-30"/>
       <use x="127.24609375" xlink:href="#DejaVuSans-31"/>
       <use x="190.869140625" xlink:href="#DejaVuSans-32"/>
      </g>
     </g>
    </g>
    <g id="xtick_8">
     <g id="line2d_25">
      <path clip-path="url(#p7ff5b81e1d)" d="
M464.778 388.8
L464.778 43.2" style="fill:none;stroke:#000000;stroke-dasharray:1.000000,3.000000;stroke-dashoffset:0.0;stroke-linecap:butt;stroke-width:0.5;"/>
     </g>
     <g id="line2d_26">
      <g>
       <use style="stroke:#000000;stroke-linecap:butt;stroke-width:0.5;" x="464.777560976" xlink:href="#mcb557df647" y="388.8"/>
      </g>
     </g>
     <g id="line2d_27">
      <g>
       <use style="stroke:#000000;stroke-linecap:butt;stroke-width:0.5;" x="464.777560976" xlink:href="#mdad270ee8e" y="43.2"/>
      </g>
     </g>
     <g id="text_8">
      <!-- 2013 -->
      <defs>
       <path d="
M40.5781 39.3125
Q47.6562 37.7969 51.625 33
Q55.6094 28.2188 55.6094 21.1875
Q55.6094 10.4062 48.1875 4.48438
Q40.7656 -1.42188 27.0938 -1.42188
Q22.5156 -1.42188 17.6562 -0.515625
Q12.7969 0.390625 7.625 2.20312
L7.625 11.7188
Q11.7188 9.32812 16.5938 8.10938
Q21.4844 6.89062 26.8125 6.89062
Q36.0781 6.89062 40.9375 10.5469
Q45.7969 14.2031 45.7969 21.1875
Q45.7969 27.6406 41.2812 31.2656
Q36.7656 34.9062 28.7188 34.9062
L20.2188 34.9062
L20.2188 43.0156
L29.1094 43.0156
Q36.375 43.0156 40.2344 45.9219
Q44.0938 48.8281 44.0938 54.2969
Q44.0938 59.9062 40.1094 62.9062
Q36.1406 65.9219 28.7188 65.9219
Q24.6562 65.9219 20.0156 65.0312
Q15.375 64.1562 9.8125 62.3125
L9.8125 71.0938
Q15.4375 72.6562 20.3438 73.4375
Q25.25 74.2188 29.5938 74.2188
Q40.8281 74.2188 47.3594 69.1094
Q53.9062 64.0156 53.9062 55.3281
Q53.9062 49.2656 50.4375 45.0938
Q46.9688 40.9219 40.5781 39.3125" id="DejaVuSans-33"/>
      </defs>
      <g transform="translate(450.428185976 401.70625)scale(0.12 -0.12)">
       <use xlink:href="#DejaVuSans-32"/>
       <use x="63.623046875" xlink:href="#DejaVuSans-30"/>
       <use x="127.24609375" xlink:href="#DejaVuSans-31"/>
       <use x="190.869140625" xlink:href="#DejaVuSans-33"/>
      </g>
     </g>
    </g>
    <g id="xtick_9">
     <g id="line2d_28">
      <path clip-path="url(#p7ff5b81e1d)" d="
M514.453 388.8
L514.453 43.2" style="fill:none;stroke:#000000;stroke-dasharray:1.000000,3.000000;stroke-dashoffset:0.0;stroke-linecap:butt;stroke-width:0.5;"/>
     </g>
     <g id="line2d_29">
      <g>
       <use style="stroke:#000000;stroke-linecap:butt;stroke-width:0.5;" x="514.453170732" xlink:href="#mcb557df647" y="388.8"/>
      </g>
     </g>
     <g id="line2d_30">
      <g>
       <use style="stroke:#000000;stroke-linecap:butt;stroke-width:0.5;" x="514.453170732" xlink:href="#mdad270ee8e" y="43.2"/>
      </g>
     </g>
     <g id="text_9">
      <!-- 2014 -->
      <defs>
       <path d="
M37.7969 64.3125
L12.8906 25.3906
L37.7969 25.3906
z

M35.2031 72.9062
L47.6094 72.9062
L47.6094 25.3906
L58.0156 25.3906
L58.0156 17.1875
L47.6094 17.1875
L47.6094 0
L37.7969 0
L37.7969 17.1875
L4.89062 17.1875
L4.89062 26.7031
z
" id="DejaVuSans-34"/>
      </defs>
      <g transform="translate(499.959420732 401.70625)scale(0.12 -0.12)">
       <use xlink:href="#DejaVuSans-32"/>
       <use x="63.623046875" xlink:href="#DejaVuSans-30"/>
       <use x="127.24609375" xlink:href="#DejaVuSans-31"/>
       <use x="190.869140625" xlink:href="#DejaVuSans-34"/>
      </g>
     </g>
    </g>
   </g>
   <g id="matplotlib.axis_2">
    <g id="ytick_1">
     <g id="line2d_31">
      <path clip-path="url(#p7ff5b81e1d)" d="
M72 388.8
L518.4 388.8" style="fill:none;stroke:#000000;stroke-dasharray:1.000000,3.000000;stroke-dashoffset:0.0;stroke-linecap:butt;stroke-width:0.5;"/>
     </g>
     <g id="line2d_32">
      <defs>
       <path d="
M0 0
L4 0" id="mc8fcea1516" style="stroke:#000000;stroke-linecap:butt;stroke-width:0.5;"/>
      </defs>
      <g>
       <use style="stroke:#000000;stroke-linecap:butt;stroke-width:0.5;" x="72.0" xlink:href="#mc8fcea1516" y="388.8"/>
      </g>
     </g>
     <g id="line2d_33">
      <defs>
       <path d="
M0 0
L-4 0" id="m0d5b0a6425" style="stroke:#000000;stroke-linecap:butt;stroke-width:0.5;"/>
      </defs>
      <g>
       <use style="stroke:#000000;stroke-linecap:butt;stroke-width:0.5;" x="518.4" xlink:href="#m0d5b0a6425" y="388.8"/>
      </g>
     </g>
     <g id="text_10">
      <!-- 0 -->
      <g transform="translate(61.953125 393.1678125)scale(0.12 -0.12)">
       <use xlink:href="#DejaVuSans-30"/>
      </g>
     </g>
    </g>
    <g id="ytick_2">
     <g id="line2d_34">
      <path clip-path="url(#p7ff5b81e1d)" d="
M72 350.4
L518.4 350.4" style="fill:none;stroke:#000000;stroke-dasharray:1.000000,3.000000;stroke-dashoffset:0.0;stroke-linecap:butt;stroke-width:0.5;"/>
     </g>
     <g id="line2d_35">
      <g>
       <use style="stroke:#000000;stroke-linecap:butt;stroke-width:0.5;" x="72.0" xlink:href="#mc8fcea1516" y="350.4"/>
      </g>
     </g>
     <g id="line2d_36">
      <g>
       <use style="stroke:#000000;stroke-linecap:butt;stroke-width:0.5;" x="518.4" xlink:href="#m0d5b0a6425" y="350.4"/>
      </g>
     </g>
     <g id="text_11">
      <!-- 2 -->
      <g transform="translate(62.44625 354.853125)scale(0.12 -0.12)">
       <use xlink:href="#DejaVuSans-32"/>
      </g>
     </g>
    </g>
    <g id="ytick_3">
     <g id="line2d_37">
      <path clip-path="url(#p7ff5b81e1d)" d="
M72 312
L518.4 312" style="fill:none;stroke:#000000;stroke-dasharray:1.000000,3.000000;stroke-dashoffset:0.0;stroke-linecap:butt;stroke-width:0.5;"/>
     </g>
     <g id="line2d_38">
      <g>
       <use style="stroke:#000000;stroke-linecap:butt;stroke-width:0.5;" x="72.0" xlink:href="#mc8fcea1516" y="312.0"/>
      </g>
     </g>
     <g id="line2d_39">
      <g>
       <use style="stroke:#000000;stroke-linecap:butt;stroke-width:0.5;" x="518.4" xlink:href="#m0d5b0a6425" y="312.0"/>
      </g>
     </g>
     <g id="text_12">
      <!-- 4 -->
      <g transform="translate(61.625 316.374375)scale(0.12 -0.12)">
       <use xlink:href="#DejaVuSans-34"/>
      </g>
     </g>
    </g>
    <g id="ytick_4">
     <g id="line2d_40">
      <path clip-path="url(#p7ff5b81e1d)" d="
M72 273.6
L518.4 273.6" style="fill:none;stroke:#000000;stroke-dasharray:1.000000,3.000000;stroke-dashoffset:0.0;stroke-linecap:butt;stroke-width:0.5;"/>
     </g>
     <g id="line2d_41">
      <g>
       <use style="stroke:#000000;stroke-linecap:butt;stroke-width:0.5;" x="72.0" xlink:href="#mc8fcea1516" y="273.6"/>
      </g>
     </g>
     <g id="line2d_42">
      <g>
       <use style="stroke:#000000;stroke-linecap:butt;stroke-width:0.5;" x="518.4" xlink:href="#m0d5b0a6425" y="273.6"/>
      </g>
     </g>
     <g id="text_13">
      <!-- 6 -->
      <g transform="translate(61.95875 277.9678125)scale(0.12 -0.12)">
       <use xlink:href="#DejaVuSans-36"/>
      </g>
     </g>
    </g>
    <g id="ytick_5">
     <g id="line2d_43">
      <path clip-path="url(#p7ff5b81e1d)" d="
M72 235.2
L518.4 235.2" style="fill:none;stroke:#000000;stroke-dasharray:1.000000,3.000000;stroke-dashoffset:0.0;stroke-linecap:butt;stroke-width:0.5;"/>
     </g>
     <g id="line2d_44">
      <g>
       <use style="stroke:#000000;stroke-linecap:butt;stroke-width:0.5;" x="72.0" xlink:href="#mc8fcea1516" y="235.2"/>
      </g>
     </g>
     <g id="line2d_45">
      <g>
       <use style="stroke:#000000;stroke-linecap:butt;stroke-width:0.5;" x="518.4" xlink:href="#m0d5b0a6425" y="235.2"/>
      </g>
     </g>
     <g id="text_14">
      <!-- 8 -->
      <g transform="translate(62.0 239.5678125)scale(0.12 -0.12)">
       <use xlink:href="#DejaVuSans-38"/>
      </g>
     </g>
    </g>
    <g id="ytick_6">
     <g id="line2d_46">
      <path clip-path="url(#p7ff5b81e1d)" d="
M72 196.8
L518.4 196.8" style="fill:none;stroke:#000000;stroke-dasharray:1.000000,3.000000;stroke-dashoffset:0.0;stroke-linecap:butt;stroke-width:0.5;"/>
     </g>
     <g id="line2d_47">
      <g>
       <use style="stroke:#000000;stroke-linecap:butt;stroke-width:0.5;" x="72.0" xlink:href="#mc8fcea1516" y="196.8"/>
      </g>
     </g>
     <g id="line2d_48">
      <g>
       <use style="stroke:#000000;stroke-linecap:butt;stroke-width:0.5;" x="518.4" xlink:href="#m0d5b0a6425" y="196.8"/>
      </g>
     </g>
     <g id="text_15">
      <!-- 10 -->
      <g transform="translate(54.845 201.1678125)scale(0.12 -0.12)">
       <use xlink:href="#DejaVuSans-31"/>
       <use x="63.623046875" xlink:href="#DejaVuSans-30"/>
      </g>
     </g>
    </g>
    <g id="ytick_7">
     <g id="line2d_49">
      <path clip-path="url(#p7ff5b81e1d)" d="
M72 158.4
L518.4 158.4" style="fill:none;stroke:#000000;stroke-dasharray:1.000000,3.000000;stroke-dashoffset:0.0;stroke-linecap:butt;stroke-width:0.5;"/>
     </g>
     <g id="line2d_50">
      <g>
       <use style="stroke:#000000;stroke-linecap:butt;stroke-width:0.5;" x="72.0" xlink:href="#mc8fcea1516" y="158.4"/>
      </g>
     </g>
     <g id="line2d_51">
      <g>
       <use style="stroke:#000000;stroke-linecap:butt;stroke-width:0.5;" x="518.4" xlink:href="#m0d5b0a6425" y="158.4"/>
      </g>
     </g>
     <g id="text_16">
      <!-- 12 -->
      <g transform="translate(55.25 162.853125)scale(0.12 -0.12)">
       <use xlink:href="#DejaVuSans-31"/>
       <use x="63.623046875" xlink:href="#DejaVuSans-32"/>
      </g>
     </g>
    </g>
    <g id="ytick_8">
     <g id="line2d_52">
      <path clip-path="url(#p7ff5b81e1d)" d="
M72 120
L518.4 120" style="fill:none;stroke:#000000;stroke-dasharray:1.000000,3.000000;stroke-dashoffset:0.0;stroke-linecap:butt;stroke-width:0.5;"/>
     </g>
     <g id="line2d_53">
      <g>
       <use style="stroke:#000000;stroke-linecap:butt;stroke-width:0.5;" x="72.0" xlink:href="#mc8fcea1516" y="120.0"/>
      </g>
     </g>
     <g id="line2d_54">
      <g>
       <use style="stroke:#000000;stroke-linecap:butt;stroke-width:0.5;" x="518.4" xlink:href="#m0d5b0a6425" y="120.0"/>
      </g>
     </g>
     <g id="text_17">
      <!-- 14 -->
      <g transform="translate(54.72125 124.374375)scale(0.12 -0.12)">
       <use xlink:href="#DejaVuSans-31"/>
       <use x="63.623046875" xlink:href="#DejaVuSans-34"/>
      </g>
     </g>
    </g>
    <g id="ytick_9">
     <g id="line2d_55">
      <path clip-path="url(#p7ff5b81e1d)" d="
M72 81.6
L518.4 81.6" style="fill:none;stroke:#000000;stroke-dasharray:1.000000,3.000000;stroke-dashoffset:0.0;stroke-linecap:butt;stroke-width:0.5;"/>
     </g>
     <g id="line2d_56">
      <g>
       <use style="stroke:#000000;stroke-linecap:butt;stroke-width:0.5;" x="72.0" xlink:href="#mc8fcea1516" y="81.6"/>
      </g>
     </g>
     <g id="line2d_57">
      <g>
       <use style="stroke:#000000;stroke-linecap:butt;stroke-width:0.5;" x="518.4" xlink:href="#m0d5b0a6425" y="81.6"/>
      </g>
     </g>
     <g id="text_18">
      <!-- 16 -->
      <g transform="translate(54.80375 85.9678125)scale(0.12 -0.12)">
       <use xlink:href="#DejaVuSans-31"/>
       <use x="63.623046875" xlink:href="#DejaVuSans-36"/>
      </g>
     </g>
    </g>
    <g id="ytick_10">
     <g id="line2d_58">
      <path clip-path="url(#p7ff5b81e1d)" d="
M72 43.2
L518.4 43.2" style="fill:none;stroke:#000000;stroke-dasharray:1.000000,3.000000;stroke-dashoffset:0.0;stroke-linecap:butt;stroke-width:0.5;"/>
     </g>
     <g id="line2d_59">
      <g>
       <use style="stroke:#000000;stroke-linecap:butt;stroke-width:0.5;" x="72.0" xlink:href="#mc8fcea1516" y="43.2"/>
      </g>
     </g>
     <g id="line2d_60">
      <g>
       <use style="stroke:#000000;stroke-linecap:butt;stroke-width:0.5;" x="518.4" xlink:href="#m0d5b0a6425" y="43.2"/>
      </g>
     </g>
     <g id="text_19">
      <!-- 18 -->
      <g transform="translate(54.869375 47.5678125)scale(0.12 -0.12)">
       <use xlink:href="#DejaVuSans-31"/>
       <use x="63.623046875" xlink:href="#DejaVuSans-38"/>
      </g>
     </g>
    </g>
   </g>
   <g id="patch_3">
    <path d="
M72 43.2
L518.4 43.2" style="fill:none;stroke:#000000;"/>
   </g>
   <g id="patch_4">
    <path d="
M518.4 388.8
L518.4 43.2" style="fill:none;stroke:#000000;"/>
   </g>
   <g id="patch_5">
    <path d="
M72 388.8
L518.4 388.8" style="fill:none;stroke:#000000;"/>
   </g>
   <g id="patch_6">
    <path d="
M72 388.8
L72 43.2" style="fill:none;stroke:#000000;"/>
   </g>
   <g id="text_20">
    <!--  -->
    <g transform="translate(295.2 -22.6589)scale(0.144 -0.144)"/>
    <!-- model: (10, 10) - ../data/csv/19-05/wholesale-daily-('West Bengal', 'Champadanga', 'Potato', 'Jyoti', 0.85).csv,  -->
    <defs>
     <path d="
M19.6719 64.7969
L19.6719 37.4062
L32.0781 37.4062
Q38.9688 37.4062 42.7188 40.9688
Q46.4844 44.5312 46.4844 51.125
Q46.4844 57.6719 42.7188 61.2344
Q38.9688 64.7969 32.0781 64.7969
z

M9.8125 72.9062
L32.0781 72.9062
Q44.3438 72.9062 50.6094 67.3594
Q56.8906 61.8125 56.8906 51.125
Q56.8906 40.3281 50.6094 34.8125
Q44.3438 29.2969 32.0781 29.2969
L19.6719 29.2969
L19.6719 0
L9.8125 0
z
" id="DejaVuSans-50"/>
     <path d="
M11.7188 12.4062
L22.0156 12.4062
L22.0156 0
L11.7188 0
z

M11.7188 51.7031
L22.0156 51.7031
L22.0156 39.3125
L11.7188 39.3125
z
" id="DejaVuSans-3a"/>
     <path id="DejaVuSans-20"/>
     <path d="
M17.9219 72.9062
L17.9219 45.7969
L9.625 45.7969
L9.625 72.9062
z
" id="DejaVuSans-27"/>
     <path d="
M54.8906 33.0156
L54.8906 0
L45.9062 0
L45.9062 32.7188
Q45.9062 40.4844 42.875 44.3281
Q39.8438 48.1875 33.7969 48.1875
Q26.5156 48.1875 22.3125 43.5469
Q18.1094 38.9219 18.1094 30.9062
L18.1094 0
L9.07812 0
L9.07812 75.9844
L18.1094 75.9844
L18.1094 46.1875
Q21.3438 51.125 25.7031 53.5625
Q30.0781 56 35.7969 56
Q45.2188 56 50.0469 50.1719
Q54.8906 44.3438 54.8906 33.0156" id="DejaVuSans-68"/>
     <path d="
M9.42188 54.6875
L18.4062 54.6875
L18.4062 0
L9.42188 0
z

M9.42188 75.9844
L18.4062 75.9844
L18.4062 64.5938
L9.42188 64.5938
z
" id="DejaVuSans-69"/>
     <path d="
M32.1719 -5.07812
Q28.375 -14.8438 24.75 -17.8125
Q21.1406 -20.7969 15.0938 -20.7969
L7.90625 -20.7969
L7.90625 -13.2812
L13.1875 -13.2812
Q16.8906 -13.2812 18.9375 -11.5156
Q21 -9.76562 23.4844 -3.21875
L25.0938 0.875
L2.98438 54.6875
L12.5 54.6875
L29.5938 11.9219
L46.6875 54.6875
L56.2031 54.6875
z
" id="DejaVuSans-79"/>
     <path d="
M45.4062 46.3906
L45.4062 75.9844
L54.3906 75.9844
L54.3906 0
L45.4062 0
L45.4062 8.20312
Q42.5781 3.32812 38.25 0.953125
Q33.9375 -1.42188 27.875 -1.42188
Q17.9688 -1.42188 11.7344 6.48438
Q5.51562 14.4062 5.51562 27.2969
Q5.51562 40.1875 11.7344 48.0938
Q17.9688 56 27.875 56
Q33.9375 56 38.25 53.625
Q42.5781 51.2656 45.4062 46.3906
M14.7969 27.2969
Q14.7969 17.3906 18.875 11.75
Q22.9531 6.10938 30.0781 6.10938
Q37.2031 6.10938 41.2969 11.75
Q45.4062 17.3906 45.4062 27.2969
Q45.4062 37.2031 41.2969 42.8438
Q37.2031 48.4844 30.0781 48.4844
Q22.9531 48.4844 18.875 42.8438
Q14.7969 37.2031 14.7969 27.2969" id="DejaVuSans-64"/>
     <path d="
M8.01562 75.875
L15.8281 75.875
Q23.1406 64.3594 26.7812 53.3125
Q30.4219 42.2812 30.4219 31.3906
Q30.4219 20.4531 26.7812 9.375
Q23.1406 -1.70312 15.8281 -13.1875
L8.01562 -13.1875
Q14.5 -2 17.7031 9.0625
Q20.9062 20.125 20.9062 31.3906
Q20.9062 42.6719 17.7031 53.6562
Q14.5 64.6562 8.01562 75.875" id="DejaVuSans-29"/>
     <path d="
M48.7812 52.5938
L48.7812 44.1875
Q44.9688 46.2969 41.1406 47.3438
Q37.3125 48.3906 33.4062 48.3906
Q24.6562 48.3906 19.8125 42.8438
Q14.9844 37.3125 14.9844 27.2969
Q14.9844 17.2812 19.8125 11.7344
Q24.6562 6.20312 33.4062 6.20312
Q37.3125 6.20312 41.1406 7.25
Q44.9688 8.29688 48.7812 10.4062
L48.7812 2.09375
Q45.0156 0.34375 40.9844 -0.53125
Q36.9688 -1.42188 32.4219 -1.42188
Q20.0625 -1.42188 12.7812 6.34375
Q5.51562 14.1094 5.51562 27.2969
Q5.51562 40.6719 12.8594 48.3281
Q20.2188 56 33.0156 56
Q37.1562 56 41.1094 55.1406
Q45.0625 54.2969 48.7812 52.5938" id="DejaVuSans-63"/>
     <path d="
M34.2812 27.4844
Q23.3906 27.4844 19.1875 25
Q14.9844 22.5156 14.9844 16.5
Q14.9844 11.7188 18.1406 8.90625
Q21.2969 6.10938 26.7031 6.10938
Q34.1875 6.10938 38.7031 11.4062
Q43.2188 16.7031 43.2188 25.4844
L43.2188 27.4844
z

M52.2031 31.2031
L52.2031 0
L43.2188 0
L43.2188 8.29688
Q40.1406 3.32812 35.5469 0.953125
Q30.9531 -1.42188 24.3125 -1.42188
Q15.9219 -1.42188 10.9531 3.29688
Q6 8.01562 6 15.9219
Q6 25.1406 12.1719 29.8281
Q18.3594 34.5156 30.6094 34.5156
L43.2188 34.5156
L43.2188 35.4062
Q43.2188 41.6094 39.1406 45
Q35.0625 48.3906 27.6875 48.3906
Q23 48.3906 18.5469 47.2656
Q14.1094 46.1406 10.0156 43.8906
L10.0156 52.2031
Q14.9375 54.1094 19.5781 55.0469
Q24.2188 56 28.6094 56
Q40.4844 56 46.3438 49.8438
Q52.2031 43.7031 52.2031 31.2031" id="DejaVuSans-61"/>
     <path d="
M19.6719 34.8125
L19.6719 8.10938
L35.5 8.10938
Q43.4531 8.10938 47.2812 11.4062
Q51.125 14.7031 51.125 21.4844
Q51.125 28.3281 47.2812 31.5625
Q43.4531 34.8125 35.5 34.8125
z

M19.6719 64.7969
L19.6719 42.8281
L34.2812 42.8281
Q41.5 42.8281 45.0312 45.5312
Q48.5781 48.25 48.5781 53.8125
Q48.5781 59.3281 45.0312 62.0625
Q41.5 64.7969 34.2812 64.7969
z

M9.8125 72.9062
L35.0156 72.9062
Q46.2969 72.9062 52.3906 68.2188
Q58.5 63.5312 58.5 54.8906
Q58.5 48.1875 55.375 44.2344
Q52.25 40.2812 46.1875 39.3125
Q53.4688 37.75 57.5 32.7812
Q61.5312 27.8281 61.5312 20.4062
Q61.5312 10.6406 54.8906 5.3125
Q48.25 0 35.9844 0
L9.8125 0
z
" id="DejaVuSans-42"/>
     <path d="
M64.4062 67.2812
L64.4062 56.8906
Q59.4219 61.5312 53.7812 63.8125
Q48.1406 66.1094 41.7969 66.1094
Q29.2969 66.1094 22.6562 58.4688
Q16.0156 50.8281 16.0156 36.375
Q16.0156 21.9688 22.6562 14.3281
Q29.2969 6.6875 41.7969 6.6875
Q48.1406 6.6875 53.7812 8.98438
Q59.4219 11.2812 64.4062 15.9219
L64.4062 5.60938
Q59.2344 2.09375 53.4375 0.328125
Q47.6562 -1.42188 41.2188 -1.42188
Q24.6562 -1.42188 15.125 8.70312
Q5.60938 18.8438 5.60938 36.375
Q5.60938 53.9531 15.125 64.0781
Q24.6562 74.2188 41.2188 74.2188
Q47.75 74.2188 53.5312 72.4844
Q59.3281 70.75 64.4062 67.2812" id="DejaVuSans-43"/>
     <path d="
M45.4062 27.9844
Q45.4062 37.75 41.375 43.1094
Q37.3594 48.4844 30.0781 48.4844
Q22.8594 48.4844 18.8281 43.1094
Q14.7969 37.75 14.7969 27.9844
Q14.7969 18.2656 18.8281 12.8906
Q22.8594 7.51562 30.0781 7.51562
Q37.3594 7.51562 41.375 12.8906
Q45.4062 18.2656 45.4062 27.9844
M54.3906 6.78125
Q54.3906 -7.17188 48.1875 -13.9844
Q42 -20.7969 29.2031 -20.7969
Q24.4688 -20.7969 20.2656 -20.0938
Q16.0625 -19.3906 12.1094 -17.9219
L12.1094 -9.1875
Q16.0625 -11.3281 19.9219 -12.3438
Q23.7812 -13.375 27.7812 -13.375
Q36.625 -13.375 41.0156 -8.76562
Q45.4062 -4.15625 45.4062 5.17188
L45.4062 9.625
Q42.625 4.78125 38.2812 2.39062
Q33.9375 0 27.875 0
Q17.8281 0 11.6719 7.65625
Q5.51562 15.3281 5.51562 27.9844
Q5.51562 40.6719 11.6719 48.3281
Q17.8281 56 27.875 56
Q33.9375 56 38.2812 53.6094
Q42.625 51.2188 45.4062 46.3906
L45.4062 54.6875
L54.3906 54.6875
z
" id="DejaVuSans-67"/>
     <path d="
M31 75.875
Q24.4688 64.6562 21.2812 53.6562
Q18.1094 42.6719 18.1094 31.3906
Q18.1094 20.125 21.3125 9.0625
Q24.5156 -2 31 -13.1875
L23.1875 -13.1875
Q15.875 -1.70312 12.2344 9.375
Q8.59375 20.4531 8.59375 31.3906
Q8.59375 42.2812 12.2031 53.3125
Q15.8281 64.3594 23.1875 75.875
z
" id="DejaVuSans-28"/>
     <path d="
M11.7188 12.4062
L22.0156 12.4062
L22.0156 4
L14.0156 -11.625
L7.71875 -11.625
L11.7188 4
z
" id="DejaVuSans-2c"/>
     <path d="
M56.2031 29.5938
L56.2031 25.2031
L14.8906 25.2031
Q15.4844 15.9219 20.4844 11.0625
Q25.4844 6.20312 34.4219 6.20312
Q39.5938 6.20312 44.4531 7.46875
Q49.3125 8.73438 54.1094 11.2812
L54.1094 2.78125
Q49.2656 0.734375 44.1875 -0.34375
Q39.1094 -1.42188 33.8906 -1.42188
Q20.7969 -1.42188 13.1562 6.1875
Q5.51562 13.8125 5.51562 26.8125
Q5.51562 40.2344 12.7656 48.1094
Q20.0156 56 32.3281 56
Q43.3594 56 49.7812 48.8906
Q56.2031 41.7969 56.2031 29.5938
M47.2188 32.2344
Q47.125 39.5938 43.0938 43.9844
Q39.0625 48.3906 32.4219 48.3906
Q24.9062 48.3906 20.3906 44.1406
Q15.875 39.8906 15.1875 32.1719
z
" id="DejaVuSans-65"/>
     <path d="
M25.3906 72.9062
L33.6875 72.9062
L8.29688 -9.28125
L0 -9.28125
z
" id="DejaVuSans-2f"/>
     <path d="
M9.8125 72.9062
L19.6719 72.9062
L19.6719 5.07812
Q19.6719 -8.10938 14.6719 -14.0625
Q9.67188 -20.0156 -1.42188 -20.0156
L-5.17188 -20.0156
L-5.17188 -11.7188
L-2.09375 -11.7188
Q4.4375 -11.7188 7.125 -8.04688
Q9.8125 -4.39062 9.8125 5.07812
z
" id="DejaVuSans-4a"/>
     <path d="
M4.89062 31.3906
L31.2031 31.3906
L31.2031 23.3906
L4.89062 23.3906
z
" id="DejaVuSans-2d"/>
     <path d="
M10.6875 12.4062
L21 12.4062
L21 0
L10.6875 0
z
" id="DejaVuSans-2e"/>
     <path d="
M30.6094 48.3906
Q23.3906 48.3906 19.1875 42.75
Q14.9844 37.1094 14.9844 27.2969
Q14.9844 17.4844 19.1562 11.8438
Q23.3438 6.20312 30.6094 6.20312
Q37.7969 6.20312 41.9844 11.8594
Q46.1875 17.5312 46.1875 27.2969
Q46.1875 37.0156 41.9844 42.7031
Q37.7969 48.3906 30.6094 48.3906
M30.6094 56
Q42.3281 56 49.0156 48.375
Q55.7188 40.7656 55.7188 27.2969
Q55.7188 13.875 49.0156 6.21875
Q42.3281 -1.42188 30.6094 -1.42188
Q18.8438 -1.42188 12.1719 6.21875
Q5.51562 13.875 5.51562 27.2969
Q5.51562 40.7656 12.1719 48.375
Q18.8438 56 30.6094 56" id="DejaVuSans-6f"/>
     <path d="
M52 44.1875
Q55.375 50.25 60.0625 53.125
Q64.75 56 71.0938 56
Q79.6406 56 84.2812 50.0156
Q88.9219 44.0469 88.9219 33.0156
L88.9219 0
L79.8906 0
L79.8906 32.7188
Q79.8906 40.5781 77.0938 44.375
Q74.3125 48.1875 68.6094 48.1875
Q61.625 48.1875 57.5625 43.5469
Q53.5156 38.9219 53.5156 30.9062
L53.5156 0
L44.4844 0
L44.4844 32.7188
Q44.4844 40.625 41.7031 44.4062
Q38.9219 48.1875 33.1094 48.1875
Q26.2188 48.1875 22.1562 43.5312
Q18.1094 38.875 18.1094 30.9062
L18.1094 0
L9.07812 0
L9.07812 54.6875
L18.1094 54.6875
L18.1094 46.1875
Q21.1875 51.2188 25.4844 53.6094
Q29.7812 56 35.6875 56
Q41.6562 56 45.8281 52.9688
Q50 49.9531 52 44.1875" id="DejaVuSans-6d"/>
     <path d="
M54.8906 33.0156
L54.8906 0
L45.9062 0
L45.9062 32.7188
Q45.9062 40.4844 42.875 44.3281
Q39.8438 48.1875 33.7969 48.1875
Q26.5156 48.1875 22.3125 43.5469
Q18.1094 38.9219 18.1094 30.9062
L18.1094 0
L9.07812 0
L9.07812 54.6875
L18.1094 54.6875
L18.1094 46.1875
Q21.3438 51.125 25.7031 53.5625
Q30.0781 56 35.7969 56
Q45.2188 56 50.0469 50.1719
Q54.8906 44.3438 54.8906 33.0156" id="DejaVuSans-6e"/>
     <path d="
M9.42188 75.9844
L18.4062 75.9844
L18.4062 0
L9.42188 0
z
" id="DejaVuSans-6c"/>
     <path d="
M10.7969 72.9062
L49.5156 72.9062
L49.5156 64.5938
L19.8281 64.5938
L19.8281 46.7344
Q21.9688 47.4688 24.1094 47.8281
Q26.2656 48.1875 28.4219 48.1875
Q40.625 48.1875 47.75 41.5
Q54.8906 34.8125 54.8906 23.3906
Q54.8906 11.625 47.5625 5.09375
Q40.2344 -1.42188 26.9062 -1.42188
Q22.3125 -1.42188 17.5469 -0.640625
Q12.7969 0.140625 7.71875 1.70312
L7.71875 11.625
Q12.1094 9.23438 16.7969 8.0625
Q21.4844 6.89062 26.7031 6.89062
Q35.1562 6.89062 40.0781 11.3281
Q45.0156 15.7656 45.0156 23.3906
Q45.0156 31 40.0781 35.4375
Q35.1562 39.8906 26.7031 39.8906
Q22.75 39.8906 18.8125 39.0156
Q14.8906 38.1406 10.7969 36.2812
z
" id="DejaVuSans-35"/>
     <path d="
M18.3125 70.2188
L18.3125 54.6875
L36.8125 54.6875
L36.8125 47.7031
L18.3125 47.7031
L18.3125 18.0156
Q18.3125 11.3281 20.1406 9.42188
Q21.9688 7.51562 27.5938 7.51562
L36.8125 7.51562
L36.8125 0
L27.5938 0
Q17.1875 0 13.2344 3.875
Q9.28125 7.76562 9.28125 18.0156
L9.28125 47.7031
L2.6875 47.7031
L2.6875 54.6875
L9.28125 54.6875
L9.28125 70.2188
z
" id="DejaVuSans-74"/>
     <path d="
M4.20312 54.6875
L13.1875 54.6875
L24.4219 12.0156
L35.5938 54.6875
L46.1875 54.6875
L57.4219 12.0156
L68.6094 54.6875
L77.5938 54.6875
L63.2812 0
L52.6875 0
L40.9219 44.8281
L29.1094 0
L18.5 0
z
" id="DejaVuSans-77"/>
     <path d="
M2.98438 54.6875
L12.5 54.6875
L29.5938 8.79688
L46.6875 54.6875
L56.2031 54.6875
L35.6875 0
L23.4844 0
z
" id="DejaVuSans-76"/>
     <path d="
M3.32812 72.9062
L13.2812 72.9062
L28.6094 11.2812
L43.8906 72.9062
L54.9844 72.9062
L70.3125 11.2812
L85.5938 72.9062
L95.6094 72.9062
L77.2969 0
L64.8906 0
L49.5156 63.2812
L33.9844 0
L21.5781 0
z
" id="DejaVuSans-57"/>
     <path d="
M18.1094 8.20312
L18.1094 -20.7969
L9.07812 -20.7969
L9.07812 54.6875
L18.1094 54.6875
L18.1094 46.3906
Q20.9531 51.2656 25.2656 53.625
Q29.5938 56 35.5938 56
Q45.5625 56 51.7812 48.0938
Q58.0156 40.1875 58.0156 27.2969
Q58.0156 14.4062 51.7812 6.48438
Q45.5625 -1.42188 35.5938 -1.42188
Q29.5938 -1.42188 25.2656 0.953125
Q20.9531 3.32812 18.1094 8.20312
M48.6875 27.2969
Q48.6875 37.2031 44.6094 42.8438
Q40.5312 48.4844 33.4062 48.4844
Q26.2656 48.4844 22.1875 42.8438
Q18.1094 37.2031 18.1094 27.2969
Q18.1094 17.3906 22.1875 11.75
Q26.2656 6.10938 33.4062 6.10938
Q40.5312 6.10938 44.6094 11.75
Q48.6875 17.3906 48.6875 27.2969" id="DejaVuSans-70"/>
     <path d="
M44.2812 53.0781
L44.2812 44.5781
Q40.4844 46.5312 36.375 47.5
Q32.2812 48.4844 27.875 48.4844
Q21.1875 48.4844 17.8438 46.4375
Q14.5 44.3906 14.5 40.2812
Q14.5 37.1562 16.8906 35.375
Q19.2812 33.5938 26.5156 31.9844
L29.5938 31.2969
Q39.1562 29.25 43.1875 25.5156
Q47.2188 21.7812 47.2188 15.0938
Q47.2188 7.46875 41.1875 3.01562
Q35.1562 -1.42188 24.6094 -1.42188
Q20.2188 -1.42188 15.4531 -0.5625
Q10.6875 0.296875 5.42188 2
L5.42188 11.2812
Q10.4062 8.6875 15.2344 7.39062
Q20.0625 6.10938 24.8125 6.10938
Q31.1562 6.10938 34.5625 8.28125
Q37.9844 10.4531 37.9844 14.4062
Q37.9844 18.0625 35.5156 20.0156
Q33.0625 21.9688 24.7031 23.7812
L21.5781 24.5156
Q13.2344 26.2656 9.51562 29.9062
Q5.8125 33.5469 5.8125 39.8906
Q5.8125 47.6094 11.2812 51.7969
Q16.75 56 26.8125 56
Q31.7812 56 36.1719 55.2656
Q40.5781 54.5469 44.2812 53.0781" id="DejaVuSans-73"/>
    </defs>
    <g transform="translate(-96.83775 -5.9351)scale(0.144 -0.144)">
     <use xlink:href="#DejaVuSans-6d"/>
     <use x="97.412109375" xlink:href="#DejaVuSans-6f"/>
     <use x="158.59375" xlink:href="#DejaVuSans-64"/>
     <use x="222.0703125" xlink:href="#DejaVuSans-65"/>
     <use x="283.59375" xlink:href="#DejaVuSans-6c"/>
     <use x="311.376953125" xlink:href="#DejaVuSans-3a"/>
     <use x="345.068359375" xlink:href="#DejaVuSans-20"/>
     <use x="376.85546875" xlink:href="#DejaVuSans-28"/>
     <use x="415.869140625" xlink:href="#DejaVuSans-31"/>
     <use x="479.4921875" xlink:href="#DejaVuSans-30"/>
     <use x="543.115234375" xlink:href="#DejaVuSans-2c"/>
     <use x="574.90234375" xlink:href="#DejaVuSans-20"/>
     <use x="606.689453125" xlink:href="#DejaVuSans-31"/>
     <use x="670.3125" xlink:href="#DejaVuSans-30"/>
     <use x="733.935546875" xlink:href="#DejaVuSans-29"/>
     <use x="772.94921875" xlink:href="#DejaVuSans-20"/>
     <use x="804.736328125" xlink:href="#DejaVuSans-2d"/>
     <use x="840.8203125" xlink:href="#DejaVuSans-20"/>
     <use x="872.607421875" xlink:href="#DejaVuSans-2e"/>
     <use x="904.39453125" xlink:href="#DejaVuSans-2e"/>
     <use x="936.181640625" xlink:href="#DejaVuSans-2f"/>
     <use x="969.873046875" xlink:href="#DejaVuSans-64"/>
     <use x="1033.34960938" xlink:href="#DejaVuSans-61"/>
     <use x="1094.62890625" xlink:href="#DejaVuSans-74"/>
     <use x="1133.83789062" xlink:href="#DejaVuSans-61"/>
     <use x="1195.1171875" xlink:href="#DejaVuSans-2f"/>
     <use x="1228.80859375" xlink:href="#DejaVuSans-63"/>
     <use x="1283.7890625" xlink:href="#DejaVuSans-73"/>
     <use x="1335.88867188" xlink:href="#DejaVuSans-76"/>
     <use x="1395.06835938" xlink:href="#DejaVuSans-2f"/>
     <use x="1428.75976562" xlink:href="#DejaVuSans-31"/>
     <use x="1492.3828125" xlink:href="#DejaVuSans-39"/>
     <use x="1556.00585938" xlink:href="#DejaVuSans-2d"/>
     <use x="1592.08984375" xlink:href="#DejaVuSans-30"/>
     <use x="1655.71289062" xlink:href="#DejaVuSans-35"/>
     <use x="1719.3359375" xlink:href="#DejaVuSans-2f"/>
     <use x="1753.02734375" xlink:href="#DejaVuSans-77"/>
     <use x="1834.81445312" xlink:href="#DejaVuSans-68"/>
     <use x="1898.19335938" xlink:href="#DejaVuSans-6f"/>
     <use x="1959.375" xlink:href="#DejaVuSans-6c"/>
     <use x="1987.15820312" xlink:href="#DejaVuSans-65"/>
     <use x="2048.68164062" xlink:href="#DejaVuSans-73"/>
     <use x="2100.78125" xlink:href="#DejaVuSans-61"/>
     <use x="2162.06054688" xlink:href="#DejaVuSans-6c"/>
     <use x="2189.84375" xlink:href="#DejaVuSans-65"/>
     <use x="2251.3671875" xlink:href="#DejaVuSans-2d"/>
     <use x="2287.45117188" xlink:href="#DejaVuSans-64"/>
     <use x="2350.92773438" xlink:href="#DejaVuSans-61"/>
     <use x="2412.20703125" xlink:href="#DejaVuSans-69"/>
     <use x="2439.99023438" xlink:href="#DejaVuSans-6c"/>
     <use x="2467.7734375" xlink:href="#DejaVuSans-79"/>
     <use x="2525.203125" xlink:href="#DejaVuSans-2d"/>
     <use x="2561.28710938" xlink:href="#DejaVuSans-28"/>
     <use x="2600.30078125" xlink:href="#DejaVuSans-27"/>
     <use x="2627.79101562" xlink:href="#DejaVuSans-57"/>
     <use x="2720.79296875" xlink:href="#DejaVuSans-65"/>
     <use x="2782.31640625" xlink:href="#DejaVuSans-73"/>
     <use x="2834.41601562" xlink:href="#DejaVuSans-74"/>
     <use x="2873.625" xlink:href="#DejaVuSans-20"/>
     <use x="2905.41210938" xlink:href="#DejaVuSans-42"/>
     <use x="2974.015625" xlink:href="#DejaVuSans-65"/>
     <use x="3035.5390625" xlink:href="#DejaVuSans-6e"/>
     <use x="3098.91796875" xlink:href="#DejaVuSans-67"/>
     <use x="3162.39453125" xlink:href="#DejaVuSans-61"/>
     <use x="3223.67382812" xlink:href="#DejaVuSans-6c"/>
     <use x="3251.45703125" xlink:href="#DejaVuSans-27"/>
     <use x="3278.94726562" xlink:href="#DejaVuSans-2c"/>
     <use x="3310.734375" xlink:href="#DejaVuSans-20"/>
     <use x="3342.52148438" xlink:href="#DejaVuSans-27"/>
     <use x="3370.01171875" xlink:href="#DejaVuSans-43"/>
     <use x="3439.8359375" xlink:href="#DejaVuSans-68"/>
     <use x="3503.21484375" xlink:href="#DejaVuSans-61"/>
     <use x="3564.49414062" xlink:href="#DejaVuSans-6d"/>
     <use x="3661.90625" xlink:href="#DejaVuSans-70"/>
     <use x="3725.3828125" xlink:href="#DejaVuSans-61"/>
     <use x="3786.66210938" xlink:href="#DejaVuSans-64"/>
     <use x="3850.13867188" xlink:href="#DejaVuSans-61"/>
     <use x="3911.41796875" xlink:href="#DejaVuSans-6e"/>
     <use x="3974.796875" xlink:href="#DejaVuSans-67"/>
     <use x="4038.2734375" xlink:href="#DejaVuSans-61"/>
     <use x="4099.55273438" xlink:href="#DejaVuSans-27"/>
     <use x="4127.04296875" xlink:href="#DejaVuSans-2c"/>
     <use x="4158.83007812" xlink:href="#DejaVuSans-20"/>
     <use x="4190.6171875" xlink:href="#DejaVuSans-27"/>
     <use x="4218.10742188" xlink:href="#DejaVuSans-50"/>
     <use x="4274.78515625" xlink:href="#DejaVuSans-6f"/>
     <use x="4335.96679688" xlink:href="#DejaVuSans-74"/>
     <use x="4375.17578125" xlink:href="#DejaVuSans-61"/>
     <use x="4436.45507812" xlink:href="#DejaVuSans-74"/>
     <use x="4475.6640625" xlink:href="#DejaVuSans-6f"/>
     <use x="4536.84570312" xlink:href="#DejaVuSans-27"/>
     <use x="4564.3359375" xlink:href="#DejaVuSans-2c"/>
     <use x="4596.12304688" xlink:href="#DejaVuSans-20"/>
     <use x="4627.91015625" xlink:href="#DejaVuSans-27"/>
     <use x="4655.40039062" xlink:href="#DejaVuSans-4a"/>
     <use x="4684.89257812" xlink:href="#DejaVuSans-79"/>
     <use x="4744.07226562" xlink:href="#DejaVuSans-6f"/>
     <use x="4805.25390625" xlink:href="#DejaVuSans-74"/>
     <use x="4844.46289062" xlink:href="#DejaVuSans-69"/>
     <use x="4872.24609375" xlink:href="#DejaVuSans-27"/>
     <use x="4899.73632812" xlink:href="#DejaVuSans-2c"/>
     <use x="4931.5234375" xlink:href="#DejaVuSans-20"/>
     <use x="4963.31054688" xlink:href="#DejaVuSans-30"/>
     <use x="5026.93359375" xlink:href="#DejaVuSans-2e"/>
     <use x="5058.72070312" xlink:href="#DejaVuSans-38"/>
     <use x="5122.34375" xlink:href="#DejaVuSans-35"/>
     <use x="5185.96679688" xlink:href="#DejaVuSans-29"/>
     <use x="5224.98046875" xlink:href="#DejaVuSans-2e"/>
     <use x="5256.76757812" xlink:href="#DejaVuSans-63"/>
     <use x="5311.74804688" xlink:href="#DejaVuSans-73"/>
     <use x="5363.84765625" xlink:href="#DejaVuSans-76"/>
     <use x="5423.02734375" xlink:href="#DejaVuSans-2c"/>
     <use x="5454.81445312" xlink:href="#DejaVuSans-20"/>
    </g>
    <!-- epoch: 291 -->
    <g transform="translate(255.479625 10.7887)scale(0.144 -0.144)">
     <use xlink:href="#DejaVuSans-65"/>
     <use x="61.5234375" xlink:href="#DejaVuSans-70"/>
     <use x="125.0" xlink:href="#DejaVuSans-6f"/>
     <use x="186.181640625" xlink:href="#DejaVuSans-63"/>
     <use x="241.162109375" xlink:href="#DejaVuSans-68"/>
     <use x="304.541015625" xlink:href="#DejaVuSans-3a"/>
     <use x="338.232421875" xlink:href="#DejaVuSans-20"/>
     <use x="370.01953125" xlink:href="#DejaVuSans-32"/>
     <use x="433.642578125" xlink:href="#DejaVuSans-39"/>
     <use x="497.265625" xlink:href="#DejaVuSans-31"/>
    </g>
    <!-- test err: 0.0091 -->
    <defs>
     <path d="
M41.1094 46.2969
Q39.5938 47.1719 37.8125 47.5781
Q36.0312 48 33.8906 48
Q26.2656 48 22.1875 43.0469
Q18.1094 38.0938 18.1094 28.8125
L18.1094 0
L9.07812 0
L9.07812 54.6875
L18.1094 54.6875
L18.1094 46.1875
Q20.9531 51.1719 25.4844 53.5781
Q30.0312 56 36.5312 56
Q37.4531 56 38.5781 55.875
Q39.7031 55.7656 41.0625 55.5156
z
" id="DejaVuSans-72"/>
    </defs>
    <g transform="translate(239.745375 27.5125)scale(0.144 -0.144)">
     <use xlink:href="#DejaVuSans-74"/>
     <use x="39.208984375" xlink:href="#DejaVuSans-65"/>
     <use x="100.732421875" xlink:href="#DejaVuSans-73"/>
     <use x="152.83203125" xlink:href="#DejaVuSans-74"/>
     <use x="192.041015625" xlink:href="#DejaVuSans-20"/>
     <use x="223.828125" xlink:href="#DejaVuSans-65"/>
     <use x="285.3515625" xlink:href="#DejaVuSans-72"/>
     <use x="324.71484375" xlink:href="#DejaVuSans-72"/>
     <use x="364.078125" xlink:href="#DejaVuSans-3a"/>
     <use x="397.76953125" xlink:href="#DejaVuSans-20"/>
     <use x="429.556640625" xlink:href="#DejaVuSans-30"/>
     <use x="493.1796875" xlink:href="#DejaVuSans-2e"/>
     <use x="524.966796875" xlink:href="#DejaVuSans-30"/>
     <use x="588.58984375" xlink:href="#DejaVuSans-30"/>
     <use x="652.212890625" xlink:href="#DejaVuSans-39"/>
     <use x="715.8359375" xlink:href="#DejaVuSans-31"/>
    </g>
   </g>
   <g id="legend_1">
    <g id="patch_7">
     <path d="
M79.2 115.339
L162.947 115.339
L162.947 50.4
L79.2 50.4
L79.2 115.339
z
" style="fill:#ffffff;stroke:#000000;"/>
    </g>
    <g id="line2d_61">
     <path d="
M89.28 62.0617
L109.44 62.0617" style="fill:none;stroke:#008000;"/>
    </g>
    <g id="line2d_62"/>
    <g id="text_21">
     <!-- pred -->
     <g transform="translate(125.28 67.10175)scale(0.144 -0.144)">
      <use xlink:href="#DejaVuSans-70"/>
      <use x="63.4765625" xlink:href="#DejaVuSans-72"/>
      <use x="102.33984375" xlink:href="#DejaVuSans-65"/>
      <use x="163.86328125" xlink:href="#DejaVuSans-64"/>
     </g>
    </g>
    <g id="line2d_63">
     <path d="
M89.28 83.1983
L109.44 83.1983" style="fill:none;stroke:#0000ff;"/>
    </g>
    <g id="line2d_64"/>
    <g id="text_22">
     <!-- train -->
     <g transform="translate(125.28 88.23825)scale(0.144 -0.144)">
      <use xlink:href="#DejaVuSans-74"/>
      <use x="39.208984375" xlink:href="#DejaVuSans-72"/>
      <use x="80.322265625" xlink:href="#DejaVuSans-61"/>
      <use x="141.6015625" xlink:href="#DejaVuSans-69"/>
      <use x="169.384765625" xlink:href="#DejaVuSans-6e"/>
     </g>
    </g>
    <g id="line2d_65">
     <path d="
M89.28 104.335
L109.44 104.335" style="fill:none;stroke:#ff0000;"/>
    </g>
    <g id="line2d_66"/>
    <g id="text_23">
     <!-- test -->
     <g transform="translate(125.28 109.37475)scale(0.144 -0.144)">
      <use xlink:href="#DejaVuSans-74"/>
      <use x="39.208984375" xlink:href="#DejaVuSans-65"/>
      <use x="100.732421875" xlink:href="#DejaVuSans-73"/>
      <use x="152.83203125" xlink:href="#DejaVuSans-74"/>
     </g>
    </g>
   </g>
  </g>
 </g>
 <defs>
  <clipPath id="p7ff5b81e1d">
   <rect height="345.6" width="446.4" x="72.0" y="43.2"/>
  </clipPath>
 </defs>
</svg>
