<?xml version="1.0" encoding="utf-8" standalone="no"?>
<!DOCTYPE svg PUBLIC "-//W3C//DTD SVG 1.1//EN"
  "http://www.w3.org/Graphics/SVG/1.1/DTD/svg11.dtd">
<!-- Created with matplotlib (http://matplotlib.org/) -->
<svg height="432pt" version="1.1" viewBox="0 0 576 432" width="576pt" xmlns="http://www.w3.org/2000/svg" xmlns:xlink="http://www.w3.org/1999/xlink">
 <defs>
  <style type="text/css">
*{stroke-linecap:square;stroke-linejoin:round;}
  </style>
 </defs>
 <g id="figure_1">
  <g id="patch_1">
   <path d="
M0 432
L576 432
L576 0
L0 0
z
" style="fill:#ffffff;"/>
  </g>
  <g id="axes_1">
   <g id="patch_2">
    <path d="
M72 388.8
L518.4 388.8
L518.4 43.2
L72 43.2
z
" style="fill:#ffffff;"/>
   </g>
   <g id="line2d_1">
    <path clip-path="url(#p7ff5b81e1d)" d="
M72 348.252
L72.5444 350.801
L73.6332 347.537
L74.1776 346.986
L74.722 344.162
L75.9468 330.8
L76.4912 327.81
L76.8995 326.529
L78.2605 308.02
L78.5327 303.93
L79.0771 302.754
L79.6215 307.522
L80.1659 306.436
L80.7102 313.192
L81.5268 301.385
L82.0712 294.524
L82.7517 285.994
L82.8878 284.465
L83.4322 285.26
L83.9766 272.768
L84.6571 275.317
L85.0654 275.868
L85.7459 279.429
L86.2902 282.819
L86.9707 284.57
L87.2429 285.407
L87.7873 271.931
L88.3317 272.286
L88.8761 273.905
L89.9649 269.514
L90.6454 268.468
L91.0537 268.253
L91.598 269.812
L92.1424 284.18
L93.6395 287.083
L95.4088 289.137
L96.9059 294.416
L97.042 294.803
L98.1307 291.097
L98.8112 290.525
L99.2195 290.449
L99.9 292.205
L100.444 294.141
L100.989 295.007
L101.397 295.094
L102.35 298.772
L102.486 299.364
L103.302 298.141
L103.575 297.849
L104.119 296.111
L104.8 289.9
L105.344 287.313
L106.024 285.71
L107.113 283.763
L107.385 283.143
L108.202 274.842
L108.61 269.257
L109.291 259.376
L109.563 256.448
L110.107 255.897
L110.652 247.822
L111.196 252.425
L111.877 246.916
L112.285 242.136
L112.965 247.06
L113.374 248.223
L114.326 260.751
L114.599 264.786
L115.007 272.381
L116.096 239.444
L116.64 239.095
L117.32 257.527
L117.865 261.77
L118.273 263.013
L120.451 328.793
L121.131 331.485
L121.54 331.996
L122.084 328.599
L122.628 328.259
L123.173 322.753
L123.717 321.84
L124.398 318.619
L124.806 318.008
L125.486 303.524
L126.167 298.07
L126.439 295.539
L126.983 295.753
L127.528 292.894
L128.48 292.957
L128.617 292.949
L129.297 285.477
L129.705 284.457
L131.339 265.878
L131.475 266.531
L131.883 268.489
L132.427 266.735
L133.244 269.377
L133.516 269.975
L134.06 269.65
L134.605 267.756
L135.83 272.882
L136.919 274.114
L137.327 274.015
L137.871 275.219
L138.416 274.7
L139.913 270.548
L140.185 270.09
L141.274 269.433
L141.818 269.632
L142.907 270.51
L143.996 270.105
L144.948 270.27
L145.493 271.273
L146.037 275.206
L147.126 275.542
L147.806 276.976
L148.215 277.161
L148.895 275.429
L149.44 273.585
L149.848 272.908
L150.392 268.016
L150.937 267.242
L151.889 260.986
L152.161 259.972
L152.57 259.248
L153.659 261.049
L154.339 253.929
L154.883 249.935
L155.428 245.275
L155.836 243.745
L156.925 250.231
L157.061 249.93
L157.469 249.027
L158.014 246.039
L158.558 250.764
L159.102 248.826
L160.055 253.552
L160.191 254.139
L160.872 259.608
L162.233 264.792
L162.369 265.217
L162.913 268.55
L163.458 265.394
L164.002 269.6
L165.907 311.288
L166.452 317.99
L166.724 320.553
L167.268 318.985
L167.949 322.122
L168.901 324.088
L169.718 327.452
L170.262 329.317
L170.535 330.387
L171.079 324.303
L171.623 326.138
L172.168 325.8
L173.257 317.35
L174.073 303.59
L174.481 297.017
L175.026 291.504
L175.434 285.501
L175.979 284.648
L176.523 280.979
L177.067 280.812
L178.156 277.364
L178.7 278.382
L179.381 270.624
L179.925 267.378
L180.47 263.744
L181.15 261.03
L181.422 259.776
L181.967 260.751
L182.511 263.317
L183.192 259.444
L183.736 254.363
L184.28 248.512
L184.689 245.929
L185.369 250.109
L185.914 254.085
L186.322 255.802
L187.002 253.152
L187.411 252.813
L187.955 250.862
L189.044 251.918
L189.588 250.776
L190.541 244.851
L190.677 244.152
L191.358 243.705
L191.766 243.606
L192.31 245.015
L192.855 243.441
L193.399 244.183
L194.352 243.54
L194.624 243.517
L195.032 243.662
L195.577 249.482
L196.121 249.631
L196.665 249.036
L197.21 249.375
L198.026 247.135
L198.435 246.079
L198.843 245.651
L199.387 246.684
L199.932 243.983
L200.612 245.837
L201.293 246.572
L201.565 246.754
L202.109 246.442
L202.926 244.916
L203.198 244.526
L203.742 247.498
L204.287 247.355
L204.967 249.273
L205.784 252.518
L206.192 253.604
L206.464 254.215
L207.281 249.48
L207.553 247.537
L208.098 253.02
L208.778 254.282
L209.459 255.756
L209.731 256.185
L210.275 257.898
L210.956 255.413
L211.364 255.053
L212.317 245.091
L212.453 243.485
L212.997 242.819
L213.814 251.756
L214.086 255.291
L215.311 238.78
L215.719 236.232
L216.4 250.839
L216.944 266.438
L217.488 277.909
L217.897 289.458
L218.441 282.775
L219.258 303.869
L219.53 309.458
L220.619 300.207
L221.163 314.778
L221.707 316.946
L222.388 324.303
L222.796 326.049
L223.34 322.762
L223.885 315.024
L224.429 324.05
L224.974 318.687
L225.518 318.624
L226.199 324.203
L226.607 325.992
L227.423 332.936
L227.696 334.524
L228.24 333.367
L228.784 335.79
L230.826 325.842
L230.962 325.375
L231.642 321.03
L232.731 317.338
L233.14 314.972
L233.684 315.415
L234.228 314.895
L235.861 302.72
L236.542 306.335
L236.95 306.791
L237.767 313.305
L238.039 315
L239.808 315.293
L240.217 315.584
L240.761 316.778
L241.714 320.435
L241.85 320.882
L242.666 319.814
L242.939 319.586
L243.891 316.636
L244.027 316.281
L244.572 313.535
L245.116 315.374
L245.797 321.596
L246.341 323.332
L246.885 325.267
L247.294 325.926
L247.838 324.318
L248.382 324.348
L248.927 323.833
L249.607 319.598
L250.424 318.458
L250.56 318.295
L251.24 318.662
L252.601 319.801
L253.01 319.848
L253.282 319.845
L253.962 323.533
L254.507 324.14
L254.915 324.181
L255.596 318.487
L256.004 317.605
L257.229 325.682
L257.637 326.728
L258.726 324.078
L259.27 321.868
L259.815 323.842
L261.04 319.096
L261.448 318.414
L262.673 324.445
L263.081 325.021
L264.17 328.874
L264.714 328.701
L265.259 329.003
L266.347 324.288
L267.028 314.448
L267.98 298.289
L268.525 298.772
L269.205 312.59
L269.75 317.813
L270.158 318.881
L270.839 298.306
L271.247 293.635
L271.927 294.759
L272.336 295.703
L272.88 290.585
L273.56 279.235
L273.969 276.068
L274.649 252.11
L275.33 247.222
L275.738 245.236
L276.282 243.343
L276.963 240.236
L277.235 239.228
L278.324 224.741
L278.868 224.359
L279.549 216.346
L279.957 214.947
L280.501 214.84
L281.318 201.326
L281.59 198.204
L282.135 199.94
L282.815 186.573
L283.223 183.433
L283.768 185.32
L284.312 183.234
L284.857 177.454
L285.537 183.691
L285.945 188.646
L286.762 173.334
L287.034 167.207
L287.579 173.336
L288.259 171.947
L288.803 169.86
L289.212 167.596
L290.437 147.496
L290.845 142.983
L291.389 142.498
L291.934 139.396
L292.478 141.444
L293.022 141.663
L293.703 139.539
L294.247 137.527
L294.656 136.859
L295.2 121.762
L295.744 120.266
L296.833 122.945
L297.514 116.747
L299.011 96.3317
L299.555 85.9209
L300.1 85.4982
L300.644 91.5865
L301.324 89.2839
L301.733 88.9324
L302.277 87.8481
L303.366 71.615
L303.91 77.7171
L304.455 77.0704
L304.999 78.1538
L305.543 81.5624
L306.088 80.3747
L306.768 75.0853
L307.177 70.2215
L307.721 72.3629
L309.354 98.5375
L310.035 105.902
L310.443 112.194
L310.987 131.14
L311.532 133.896
L312.076 106.152
L312.62 113.895
L313.165 108.952
L313.845 124.202
L314.254 127.737
L314.934 178.435
L316.023 292.847
L316.431 298.51
L316.976 314.286
L317.52 299.601
L318.609 328.54
L319.153 336.412
L319.698 331.008
L320.242 335.098
L321.331 330.025
L322.011 330.254
L322.42 330.171
L323.1 331.981
L324.053 336.244
L324.733 339.653
L325.414 340.277
L325.686 340.451
L326.23 339.781
L326.775 340.499
L327.319 338.169
L328.272 330.843
L328.68 328.765
L328.952 327.585
L329.497 327.965
L330.041 329.563
L330.585 328.748
L331.674 316.216
L332.219 313.901
L333.035 303.431
L333.307 301.032
L333.852 301.921
L334.532 306.896
L334.94 308.574
L335.485 308.026
L336.029 311.563
L336.574 302.174
L337.254 306.116
L337.662 307.229
L338.751 299.402
L338.887 299.581
L339.432 300.138
L339.84 300.199
L340.52 305.838
L340.929 306.965
L341.473 305.892
L342.154 306.06
L342.698 305.748
L343.106 305.3
L343.651 305.816
L344.195 307.088
L344.74 313.042
L345.284 311.887
L345.828 312.37
L346.509 313.721
L347.053 313.856
L347.598 313.834
L348.006 314.065
L348.55 312.451
L349.231 302.791
L350.728 293.324
L351.408 286.476
L351.817 284.018
L352.361 273.863
L353.041 250.665
L353.45 246.248
L353.994 250.94
L354.539 249.511
L355.627 257.511
L356.172 253.459
L356.716 254.825
L357.26 264.228
L358.077 262.88
L358.349 262.581
L359.03 265.034
L361.071 267.973
L361.616 266.29
L362.977 271.425
L363.249 271.731
L364.338 275.556
L365.426 273.934
L366.107 271.199
L366.515 270.314
L367.06 276.413
L368.42 314.502
L368.965 322.47
L369.237 325.573
L369.781 321.548
L371.415 327.919
L372.095 326.228
L372.503 325.847
L373.184 314.219
L374.137 290.743
L374.681 288.455
L375.225 283.852
L375.77 287.145
L376.45 294.772
L376.995 296.092
L377.403 296.356
L377.947 314.949
L379.036 306.205
L379.58 303.23
L380.261 295.416
L380.805 288.587
L381.214 287.059
L382.03 278.374
L382.439 274.205
L382.847 272.144
L383.527 263.683
L383.936 260.691
L384.752 268.016
L385.297 272.628
L385.569 274.381
L386.113 264.157
L387.202 261.545
L387.882 264.345
L388.291 264.748
L389.107 262.513
L389.924 260.947
L390.604 261.609
L391.013 261.692
L392.646 265.001
L393.326 268.787
L393.735 269.812
L394.415 285.603
L394.96 289.354
L395.368 290.228
L396.32 283.34
L397.545 273.314
L398.09 273.159
L398.634 269.813
L399.179 270.427
L399.995 276.311
L400.54 280.213
L401.084 282.84
L401.356 283.88
L401.9 283.504
L402.445 284.627
L402.989 291.554
L403.942 273.065
L404.078 270.101
L404.622 268.457
L405.167 272.283
L406.392 311.769
L406.8 315.146
L407.344 312.377
L407.889 313.311
L408.433 308.792
L408.978 308.208
L409.522 309.163
L410.202 303.537
L410.611 302.76
L411.155 304.855
L411.836 312.758
L413.06 330.738
L413.333 333.031
L413.877 331.122
L414.421 331.431
L414.966 330.397
L415.51 326.625
L416.055 327.892
L416.599 326.331
L417.416 319.728
L418.232 314.048
L419.049 302.659
L419.457 296.901
L420.138 289.759
L420.41 286.455
L420.954 286.755
L421.635 285.376
L422.043 284.169
L422.587 290.377
L423.132 290.543
L423.676 287.438
L424.22 287.856
L424.765 282.661
L426.398 236.176
L427.079 232.99
L427.487 232.34
L428.44 203.332
L428.712 198.605
L429.12 195.133
L429.664 196.571
L430.345 207.605
L430.753 210.828
L432.522 189.325
L433.067 177.49
L433.475 174.13
L434.156 181.493
L434.7 185.478
L435.108 189.783
L435.925 185.967
L436.741 181.93
L437.286 185.298
L438.102 176.637
L439.055 163.915
L440.144 143.738
L440.552 139.485
L441.641 147.137
L442.73 156.08
L443.41 165.555
L443.819 168.243
L444.363 179.474
L445.043 162.454
L445.452 148.796
L445.996 150.55
L446.677 162.947
L447.221 167.573
L447.765 173.03
L448.174 174.143
L448.854 179.269
L449.807 189.816
L450.351 191.491
L450.896 195.701
L451.44 191.898
L452.12 177.826
L452.529 164.91
L453.754 170.904
L454.162 173.246
L455.659 168.246
L456.34 167.072
L457.02 151.607
L457.428 149.521
L458.109 150.262
L458.517 150.93
L459.061 155.269
L460.15 139.304
L460.831 147.784
L461.239 149.068
L462.056 181.534
L462.6 202.045
L463.144 214.503
L463.417 219.18
L463.961 236.539
L464.505 209.774
L465.05 215.908
L465.594 202.667
L466.139 218.747
L466.819 252.66
L467.363 260.963
L467.772 264.188
L468.316 264.429
L468.86 266.884
L469.813 284.481
L469.949 286.667
L470.494 279.684
L471.038 281.468
L471.582 281.155
L472.127 279.955
L472.671 284.607
L473.216 275.649
L473.896 279.594
L474.849 280.894
L475.393 280.669
L475.938 278.521
L476.754 269.871
L477.026 267.843
L477.707 256.999
L478.115 254.589
L478.932 243.526
L479.204 239.044
L479.748 240.846
L480.293 238.982
L481.381 218.275
L481.926 214.515
L482.47 205.937
L483.015 206.758
L483.967 213.322
L484.103 214.094
L484.648 221.018
L485.328 237.797
L485.737 243.747
L486.281 242.578
L486.825 244.929
L487.37 244.714
L487.914 242.47
L488.459 243.474
L489.003 245.585
L489.683 252.403
L490.092 253.291
L490.636 252.181
L491.861 246.661
L492.678 240.865
L492.814 240.035
L493.358 240.18
L493.902 241.928
L494.583 246.783
L495.127 251.298
L495.536 252.299
L496.624 249.05
L497.441 245.093
L498.258 242.151
L499.482 242.84
L499.891 242.664
L500.98 243.853
L501.524 247.25
L502.068 245.306
L502.613 245.353
L503.157 244.463
L503.701 236.025
L504.518 215.364
L504.79 210.098
L505.879 155.751
L506.832 143.364
L507.104 139.462
L507.512 132.238
L508.057 152.508
L508.601 152.208
L509.281 157.195
L509.69 161.176
L510.642 150.909
L510.779 149.635
L511.323 158.609
L511.867 155.756
L512.412 139.994
L512.956 143.395
L513.5 137.963
L514.045 137.015
L514.589 124.189
L515.134 134.744
L515.678 115.528
L516.495 195.795
L516.903 230.757
L517.311 240.195
L517.992 271.868
L518.4 276.364
L518.4 276.364" style="fill:none;stroke:#008000;"/>
   </g>
   <g id="line2d_2">
    <path clip-path="url(#p7ff5b81e1d)" d="
M72 356.16
L72.1361 356.16
L72.2722 356.16
L72.4083 358.08
L72.5444 358.08
L72.9527 354.24
L73.2249 354.24
L73.361 356.16
L73.4971 356.16
L73.6332 346.56
L73.7693 346.56
L73.9054 348.48
L74.1776 348.48
L74.3137 352.32
L74.4498 350.4
L74.5859 350.4
L75.2663 335.04
L75.4024 336.96
L76.0829 336.96
L76.219 331.2
L76.4912 331.2
L76.7634 319.68
L76.8995 315.84
L77.1717 321.6
L77.3078 315.84
L77.4439 315.84
L77.8522 304.32
L77.9883 304.32
L78.2605 313.92
L78.6688 313.92
L78.8049 312
L79.0771 312
L79.3493 306.24
L79.4854 306.24
L79.6215 304.32
L79.7576 304.32
L80.0298 310.08
L80.1659 312
L80.302 300.48
L80.8463 292.8
L80.9824 292.8
L81.1185 294.72
L81.5268 294.72
L81.6629 288.96
L81.799 288.96
L82.0712 285.12
L83.0239 285.12
L83.16 273.6
L83.8405 273.6
L84.1127 281.28
L84.3849 281.28
L84.521 285.12
L86.018 285.12
L86.6985 287.04
L88.74 287.04
L88.8761 283.2
L90.7815 283.2
L90.9176 285.12
L91.598 285.12
L91.7341 283.2
L91.8702 283.2
L92.0063 285.12
L92.5507 285.12
L92.6868 288.96
L92.8229 287.04
L93.2312 287.04
L93.3673 288.96
L94.7283 288.96
L94.8644 290.88
L95.0005 290.88
L95.4088 292.8
L96.6337 292.8
L96.7698 288.96
L97.178 288.96
L98.1307 290.88
L99.9 290.88
L100.036 292.8
L101.261 292.8
L101.397 296.64
L101.941 296.64
L102.078 294.72
L102.35 294.72
L102.486 292.8
L102.622 292.8
L103.03 294.72
L103.302 294.72
L103.439 292.8
L103.711 292.8
L103.847 285.12
L104.391 285.12
L104.527 287.04
L104.8 287.04
L105.208 285.12
L106.16 285.12
L106.297 281.28
L106.977 281.28
L107.249 269.76
L107.385 267.84
L107.521 267.84
L107.658 269.76
L107.794 273.6
L107.93 271.68
L108.066 271.68
L108.202 265.92
L108.338 265.92
L108.474 267.84
L108.746 267.84
L109.155 258.24
L109.427 258.24
L109.563 260.16
L109.699 258.24
L109.971 258.24
L110.107 250.56
L110.38 250.56
L110.652 265.92
L110.788 265.92
L110.924 254.4
L111.196 254.4
L111.332 250.56
L111.468 250.56
L111.604 242.88
L111.74 242.88
L111.877 244.8
L112.013 250.56
L112.285 250.56
L112.557 265.92
L112.693 262.08
L112.829 262.08
L112.965 264
L113.101 264
L113.238 265.92
L113.374 264
L113.51 265.92
L113.646 265.92
L113.782 267.84
L113.918 267.84
L114.19 271.68
L114.326 265.92
L114.462 269.76
L114.735 269.76
L115.007 242.88
L115.143 246.72
L115.279 239.04
L115.415 239.04
L115.687 244.8
L115.96 248.64
L116.504 262.08
L116.912 262.08
L117.048 254.4
L117.457 254.4
L117.593 256.32
L117.729 254.4
L117.865 254.4
L118.001 288.96
L118.273 288.96
L118.545 300.48
L118.681 300.48
L118.954 308.16
L119.09 319.68
L119.498 319.68
L119.634 312
L119.77 312
L119.906 319.68
L120.042 315.84
L120.315 323.52
L120.451 321.6
L120.587 323.52
L120.723 327.36
L121.812 327.36
L121.948 317.76
L122.084 317.76
L122.22 319.68
L122.356 323.52
L122.492 323.52
L122.628 321.6
L122.764 321.6
L122.9 319.68
L123.717 319.68
L123.853 321.6
L123.989 321.6
L124.125 319.68
L124.398 308.16
L124.67 304.32
L124.806 304.32
L124.942 306.24
L125.214 306.24
L125.35 304.32
L125.895 304.32
L126.031 302.4
L126.167 302.4
L126.303 300.48
L126.439 300.48
L126.575 302.4
L126.847 292.8
L126.983 292.8
L127.12 296.64
L127.256 296.64
L127.664 302.4
L127.8 302.4
L127.936 300.48
L128.072 296.64
L128.48 296.64
L128.753 292.8
L129.025 287.68
L129.297 285.12
L129.705 285.12
L129.841 283.2
L129.978 273.6
L130.658 273.6
L130.794 277.44
L130.93 275.52
L131.066 275.52
L131.202 277.44
L131.339 275.52
L131.475 275.52
L131.611 277.44
L131.747 277.44
L131.883 275.52
L132.291 275.52
L132.836 265.92
L132.972 265.92
L133.244 268.32
L133.652 269.76
L134.197 269.76
L134.333 271.68
L134.741 271.68
L134.877 273.6
L135.285 273.6
L135.421 271.68
L136.102 271.68
L136.238 273.6
L136.646 273.6
L136.782 275.52
L136.919 273.6
L137.055 273.6
L137.191 275.52
L137.599 275.52
L137.735 273.6
L137.871 273.6
L138.007 271.68
L139.913 271.68
L140.049 269.76
L140.865 269.76
L141.001 271.68
L142.362 271.68
L142.499 269.76
L142.907 269.76
L143.043 271.68
L146.173 271.68
L146.309 273.6
L147.806 273.6
L148.079 269.76
L148.487 269.76
L148.623 267.84
L148.759 269.76
L149.44 269.76
L149.576 271.68
L149.712 271.68
L149.848 267.84
L149.984 267.84
L150.12 265.92
L150.392 265.92
L150.528 264
L150.664 264
L150.8 260.16
L150.937 260.16
L151.073 262.08
L151.345 262.08
L151.481 260.16
L151.617 262.08
L152.842 262.08
L152.978 260.16
L153.114 260.16
L153.25 256.32
L153.386 256.32
L153.522 254.4
L154.339 254.4
L154.475 248.64
L154.883 250.56
L155.428 250.56
L155.564 254.4
L156.108 254.4
L156.244 260.16
L156.925 248.64
L157.469 250.56
L158.422 248.64
L158.558 252.48
L159.239 252.48
L159.375 254.4
L159.919 254.4
L160.055 258.24
L160.191 258.24
L160.463 264
L160.872 264
L161.008 258.24
L161.824 258.24
L161.96 260.16
L162.097 260.16
L162.233 262.08
L162.369 265.92
L162.777 256.32
L163.049 256.32
L163.185 260.16
L163.458 271.68
L163.73 275.52
L164.274 294.72
L164.682 294.72
L164.955 308.16
L165.091 306.24
L170.807 340.8
L171.487 340.8
L171.623 336.96
L171.76 323.52
L171.896 331.2
L172.304 327.36
L172.44 312
L172.576 312
L172.712 331.2
L173.12 317.12
L173.393 308.16
L174.481 306.24
L174.754 292.8
L175.298 298.56
L175.434 296.64
L175.57 296.64
L175.706 288.96
L176.115 288.96
L176.251 290.88
L176.387 290.88
L177.067 287.04
L177.476 288.96
L177.748 286.4
L178.02 285.12
L178.292 281.28
L178.428 273.6
L179.109 271.68
L179.517 271.68
L179.925 269.76
L180.334 265.152
L180.878 262.08
L181.014 264
L181.15 264
L181.967 269.76
L182.103 269.76
L182.92 254.4
L183.192 254.4
L183.464 250.56
L183.6 250.56
L183.736 252.48
L183.872 250.56
L184.008 250.56
L184.144 254.4
L184.28 254.4
L184.417 260.16
L184.553 260.16
L184.961 254.4
L185.097 258.24
L185.233 258.24
L187.275 254.4
L187.547 254.4
L187.683 252.48
L187.819 252.48
L187.955 254.4
L188.5 254.4
L188.636 252.48
L189.18 252.48
L189.316 250.56
L189.452 250.56
L189.588 246.72
L189.724 248.64
L189.86 246.72
L190.133 246.72
L190.405 242.88
L190.541 244.8
L191.085 244.8
L191.221 246.72
L191.766 246.72
L192.038 242.88
L192.446 242.88
L192.582 246.72
L192.855 246.72
L192.991 244.8
L193.127 244.8
L193.263 246.72
L193.399 246.72
L193.535 244.8
L194.08 244.8
L194.216 245.952
L194.488 245.952
L194.624 246.72
L196.393 246.72
L196.529 244.8
L197.346 244.8
L197.482 242.88
L197.754 242.88
L197.89 244.8
L198.026 244.8
L198.162 242.88
L198.299 242.88
L198.435 244.8
L199.523 244.8
L199.66 246.72
L201.701 246.72
L201.837 244.8
L202.518 244.8
L203.062 242.88
L203.606 242.88
L204.831 248.64
L205.376 248.64
L205.512 250.56
L205.92 250.56
L206.056 242.88
L207.009 242.88
L207.825 246.72
L208.37 246.72
L208.506 244.8
L208.914 248.64
L210.003 248.64
L210.139 246.72
L210.275 246.72
L210.411 242.88
L210.547 246.72
L210.683 246.72
L211.228 239.04
L211.364 235.2
L212.18 235.2
L212.317 237.12
L212.589 237.12
L212.725 239.04
L212.997 246.72
L213.269 246.72
L213.541 250.56
L213.678 250.56
L213.95 235.2
L214.222 225.6
L214.358 225.6
L214.63 228.48
L215.583 235.2
L215.719 267.84
L215.855 267.84
L215.991 269.76
L216.127 273.6
L216.263 262.08
L216.4 281.28
L216.536 281.28
L216.808 273.6
L217.08 273.6
L217.216 281.28
L217.352 281.28
L217.488 288.96
L217.76 285.12
L217.897 277.44
L218.033 281.28
L218.169 288.96
L218.305 288.96
L218.441 304.32
L218.577 304.32
L218.849 308.16
L218.985 306.24
L219.121 306.24
L219.258 308.16
L219.394 306.24
L219.53 273.6
L219.666 273.6
L219.938 319.68
L220.074 312
L220.346 312
L220.482 319.68
L221.163 319.68
L221.435 324.48
L221.843 327.36
L221.98 321.6
L222.116 323.52
L222.252 321.6
L222.796 321.6
L222.932 319.68
L223.068 323.52
L223.204 323.52
L223.34 321.6
L223.749 321.6
L223.885 319.68
L224.701 319.68
L224.974 327.36
L225.11 327.36
L225.246 331.2
L225.79 331.2
L226.471 340.8
L226.607 344.64
L226.879 344.64
L227.151 340.8
L227.423 340.8
L227.56 338.88
L227.968 338.88
L228.92 331.2
L229.465 331.2
L229.873 329.28
L230.281 323.52
L230.418 323.52
L230.554 321.6
L231.098 321.6
L231.506 317.76
L231.642 317.76
L231.779 319.68
L232.595 319.68
L232.731 317.76
L233.14 317.76
L233.276 315.84
L233.412 315.84
L234.228 305.856
L234.364 304.32
L234.5 300.48
L234.773 300.48
L234.909 298.56
L235.181 298.56
L235.317 304.32
L235.589 304.32
L235.861 313.92
L235.998 313.92
L236.134 315.84
L236.814 315.84
L236.95 317.76
L237.086 315.84
L237.767 315.84
L237.903 312
L238.175 316.608
L238.72 319.68
L238.992 319.68
L239.128 317.76
L239.264 319.68
L239.536 319.68
L239.672 321.6
L240.08 321.6
L240.217 323.52
L240.353 323.52
L240.625 327.36
L240.897 327.36
L241.033 323.52
L241.169 325.44
L241.714 325.44
L241.85 323.52
L243.075 323.52
L243.211 312
L243.483 317.76
L243.619 317.76
L244.436 323.52
L244.572 325.44
L245.116 325.44
L245.252 327.36
L245.66 327.36
L245.797 329.28
L245.933 329.28
L246.069 331.2
L246.613 331.2
L246.885 327.36
L248.791 327.36
L248.927 329.28
L249.063 327.36
L249.199 327.36
L249.335 323.52
L249.743 323.52
L249.88 325.44
L250.424 325.44
L250.56 327.36
L254.371 327.36
L254.643 319.68
L254.779 319.68
L255.051 304.32
L255.187 315.84
L255.596 319.68
L255.732 327.36
L256.14 327.36
L256.548 331.2
L256.957 331.2
L257.229 327.36
L257.365 327.36
L257.501 329.28
L257.773 329.28
L257.909 331.2
L258.318 331.2
L258.454 329.28
L258.59 331.2
L258.998 331.2
L259.27 327.36
L259.406 323.52
L259.542 323.52
L259.679 321.6
L260.359 321.6
L260.495 323.52
L260.767 323.52
L260.903 321.6
L261.312 321.6
L261.448 325.44
L261.72 325.44
L261.856 327.36
L262.673 327.36
L263.217 338.88
L263.625 338.88
L263.898 331.2
L264.034 331.2
L264.17 335.04
L264.578 335.04
L264.714 338.88
L264.85 338.88
L264.986 336.96
L265.122 331.2
L265.259 331.2
L265.531 327.36
L266.075 327.36
L266.483 309.12
L266.892 300.48
L267.436 300.48
L267.572 304.32
L267.708 300.48
L267.844 304.32
L268.117 317.76
L268.253 319.68
L268.389 319.68
L268.525 323.52
L268.797 315.84
L269.75 312
L269.886 304.32
L270.022 304.32
L270.158 308.16
L270.294 308.16
L270.43 312
L270.566 312
L270.839 304.32
L271.111 308.16
L271.247 308.16
L271.383 306.24
L271.655 306.24
L271.791 304.32
L272.063 296.64
L272.2 296.64
L272.336 292.8
L272.472 292.8
L272.744 288.96
L273.288 288.96
L273.56 281.28
L273.833 269.76
L273.969 269.76
L274.105 267.84
L274.241 264
L274.513 264
L274.649 265.92
L274.785 265.92
L275.058 258.24
L275.738 258.24
L275.874 254.4
L276.01 254.4
L276.146 250.56
L276.419 231.36
L276.555 235.2
L276.691 242.88
L276.963 242.88
L277.235 231.36
L277.371 235.2
L277.916 235.2
L278.052 231.36
L278.188 235.2
L278.324 231.36
L278.46 231.36
L278.732 219.84
L278.868 216
L279.004 219.84
L279.14 216
L279.413 216
L279.549 219.84
L280.093 219.84
L280.229 216
L280.365 200.64
L280.91 200.64
L281.046 196.8
L281.999 196.8
L282.135 189.12
L283.087 189.12
L283.223 187.2
L283.36 187.2
L283.496 185.28
L283.632 185.28
L283.904 177.6
L284.04 177.6
L284.176 179.52
L284.448 179.52
L284.584 177.6
L284.857 187.2
L284.993 187.2
L285.401 196.8
L285.537 196.8
L285.809 177.6
L285.945 177.6
L286.081 181.44
L286.49 181.44
L286.762 189.12
L287.306 189.12
L287.442 185.28
L287.579 185.28
L287.715 187.2
L287.851 185.28
L287.987 185.28
L288.123 187.2
L288.259 187.2
L288.395 185.28
L289.076 158.4
L289.348 158.4
L289.484 148.8
L289.756 152.64
L290.028 152.64
L290.164 150.72
L290.3 146.88
L291.117 146.88
L291.389 139.2
L291.661 144.96
L291.798 143.04
L292.07 146.88
L292.206 146.88
L292.342 148.8
L292.478 146.88
L293.022 146.88
L293.159 139.2
L293.295 143.04
L294.111 143.04
L294.247 146.88
L294.52 146.88
L294.656 148.8
L295.064 148.8
L295.2 143.04
L295.472 143.04
L295.608 146.88
L295.744 146.88
L295.88 144.96
L296.289 144.96
L296.425 143.04
L296.561 143.04
L296.833 139.2
L296.969 135.36
L297.105 127.68
L297.514 127.68
L297.786 120
L297.922 120
L298.058 108.48
L298.194 108.48
L298.602 91.2
L298.739 91.2
L298.875 89.28
L299.011 70.08
L299.147 70.08
L299.419 81.6
L299.827 81.6
L299.963 89.28
L301.597 89.28
L301.733 85.44
L302.141 66.24
L303.502 66.24
L303.638 70.08
L303.774 66.24
L304.046 66.24
L304.182 70.08
L304.863 70.08
L305.135 75.84
L305.271 75.84
L305.407 73.92
L306.088 73.92
L306.36 58.56
L306.496 54.72
L306.632 47.04
L306.768 48.96
L306.904 48.96
L307.04 50.88
L307.177 54.72
L307.449 54.72
L307.721 62.4
L307.857 62.4
L308.265 81.6
L308.401 81.6
L308.538 85.44
L308.674 85.44
L308.81 89.28
L308.946 89.28
L309.082 100.8
L309.354 100.8
L309.49 108.48
L309.626 108.48
L309.899 120
L310.171 146.88
L310.307 146.88
L310.443 158.4
L310.579 158.4
L310.851 123.84
L311.26 62.4
L311.532 112.32
L311.668 112.32
L311.804 89.28
L311.94 89.28
L312.076 81.6
L312.212 81.6
L312.348 116.16
L312.484 120
L312.62 120
L312.757 110.4
L312.893 110.4
L313.029 108.48
L313.165 108.48
L313.301 100.8
L313.573 120
L313.709 120
L313.981 148.8
L314.118 158.4
L314.39 189.12
L314.526 235.2
L314.662 235.2
L314.798 273.6
L315.751 273.6
L315.887 292.8
L316.023 292.8
L316.159 304.32
L316.295 300.48
L316.431 302.4
L316.567 300.48
L316.84 312
L316.976 304.32
L317.384 315.84
L317.52 315.84
L317.656 331.2
L317.792 319.68
L317.928 331.2
L318.064 323.52
L318.2 327.36
L318.473 327.36
L318.609 331.2
L318.881 331.2
L319.289 342.72
L319.425 342.72
L319.834 331.2
L320.106 338.88
L320.242 336.96
L320.378 331.2
L320.514 333.12
L320.65 331.2
L320.922 338.88
L321.059 335.04
L321.331 338.88
L321.739 338.88
L321.875 336.96
L322.011 336.96
L322.283 342.72
L323.1 342.72
L323.236 346.56
L323.78 346.56
L324.053 352.32
L324.189 354.24
L324.325 350.4
L324.461 350.4
L324.869 348.48
L325.005 350.4
L325.414 350.4
L325.55 352.32
L325.686 350.4
L325.822 350.4
L326.094 354.24
L326.366 354.24
L326.502 350.4
L326.639 342.72
L326.775 342.72
L326.911 335.04
L327.319 335.04
L327.455 338.88
L328.136 338.88
L328.272 336.96
L329.497 336.96
L332.219 300.48
L332.355 296.64
L332.491 296.64
L332.627 292.8
L332.899 300.48
L333.035 300.48
L333.307 304.32
L333.443 315.84
L333.716 315.84
L334.124 296.64
L334.26 294.72
L334.532 300.48
L335.077 300.48
L335.213 302.4
L335.485 312
L336.71 312
L336.982 304.32
L337.118 308.16
L337.254 306.24
L337.39 308.16
L338.615 308.16
L338.751 306.24
L338.887 306.24
L339.023 302.4
L339.16 304.32
L339.568 304.32
L339.704 308.16
L340.52 308.16
L340.793 305.6
L341.065 304.32
L341.201 304.32
L341.609 306.24
L344.603 306.24
L344.74 304.32
L345.012 304.32
L345.42 308.16
L345.964 308.16
L346.509 306.24
L347.189 306.24
L347.325 308.16
L347.461 308.16
L347.734 300.48
L347.87 300.48
L348.006 302.4
L348.142 302.4
L348.959 292.8
L349.095 294.72
L349.367 294.72
L349.775 296.64
L350.183 287.04
L350.592 281.28
L350.728 281.28
L350.864 283.2
L351 283.2
L351.136 281.28
L351.272 281.28
L351.408 279.36
L351.544 279.36
L352.225 244.8
L352.361 248.64
L352.497 260.16
L352.633 258.24
L352.769 260.16
L353.041 260.16
L353.178 258.24
L353.314 262.08
L353.45 262.08
L353.586 260.16
L353.722 254.4
L353.858 254.4
L353.994 256.32
L354.13 256.32
L361.207 265.92
L361.343 269.76
L362.977 269.76
L363.113 273.6
L363.793 273.6
L365.426 267.84
L365.699 267.84
L365.835 269.76
L365.971 273.6
L366.379 273.6
L366.515 281.28
L366.651 281.28
L366.923 304.32
L367.06 306.24
L367.196 304.32
L367.332 304.32
L367.468 308.16
L367.604 308.16
L367.74 319.68
L368.012 323.52
L368.148 321.6
L368.284 321.6
L368.42 319.68
L368.829 319.68
L368.965 323.52
L369.237 323.52
L369.509 331.2
L370.462 331.2
L370.598 333.12
L370.734 331.2
L370.87 335.04
L371.006 331.2
L371.279 331.2
L371.415 335.04
L371.551 331.2
L371.959 331.2
L372.095 325.44
L372.231 325.44
L372.776 308.16
L372.912 292.8
L373.048 292.8
L373.32 304.32
L373.592 308.16
L373.864 300.48
L374 302.4
L374.137 302.4
L374.273 304.32
L374.409 304.32
L374.681 298.56
L374.817 300.48
L375.089 300.48
L375.225 302.4
L375.361 302.4
L375.634 308.16
L375.906 308.16
L376.042 306.24
L376.178 302.4
L376.314 304.32
L376.722 304.32
L376.859 308.16
L377.403 308.16
L377.539 306.24
L377.811 306.24
L378.083 300.48
L378.22 298.56
L378.9 298.56
L379.036 296.64
L379.308 288.96
L379.853 288.96
L379.989 285.12
L380.669 285.12
L380.805 283.2
L381.214 273.6
L382.166 273.6
L382.439 258.24
L382.847 258.24
L382.983 262.08
L383.119 262.08
L383.255 264
L383.391 262.08
L383.527 262.08
L383.663 254.4
L383.8 265.92
L383.936 267.84
L384.072 267.84
L384.208 265.92
L384.344 269.76
L385.16 269.76
L385.297 271.68
L385.569 271.68
L385.705 269.76
L387.066 269.76
L387.202 271.68
L388.019 271.68
L388.155 269.76
L388.291 269.76
L388.427 267.84
L388.563 267.84
L388.699 269.76
L389.243 269.76
L389.38 267.84
L390.468 267.84
L390.604 269.76
L391.965 269.76
L392.101 271.68
L392.238 271.68
L392.374 275.52
L393.054 275.52
L393.19 273.6
L393.871 283.2
L394.279 283.2
L394.415 285.12
L394.687 285.12
L394.823 281.28
L394.96 281.28
L395.232 275.52
L395.368 273.6
L395.504 273.6
L398.498 264
L398.77 273.6
L399.587 273.6
L399.995 279.36
L400.131 277.44
L400.267 277.44
L400.403 279.36
L401.356 277.44
L401.492 277.44
L401.628 279.36
L401.764 279.36
L401.9 281.28
L402.173 281.28
L402.309 283.2
L402.445 283.2
L402.717 279.36
L402.853 275.52
L403.125 254.4
L403.261 254.4
L403.534 262.08
L403.67 262.08
L403.806 264
L403.942 264
L404.078 265.92
L404.35 277.44
L404.486 279.36
L404.622 279.36
L405.031 300.48
L405.167 304.32
L405.439 304.32
L406.8 300.48
L406.936 302.4
L407.617 302.4
L407.753 298.56
L407.889 300.48
L408.433 300.48
L408.569 304.32
L408.978 304.32
L409.114 302.4
L409.25 302.4
L409.386 300.48
L409.522 296.64
L410.339 308.16
L410.747 308.16
L411.155 317.76
L411.291 315.84
L411.563 323.52
L411.836 329.28
L412.244 335.04
L412.38 331.2
L412.516 331.2
L412.652 335.04
L412.788 335.04
L413.06 329.28
L413.197 327.36
L413.333 331.2
L413.605 331.2
L413.741 335.04
L414.285 335.04
L414.421 336.96
L414.558 340.8
L415.102 340.8
L415.782 338.88
L416.055 335.04
L416.191 331.2
L417.143 331.2
L417.552 319.68
L418.096 319.68
L418.232 317.76
L418.368 317.76
L418.504 319.68
L418.777 319.68
L419.185 315.84
L419.457 300.48
L419.865 306.24
L420.001 304.32
L420.138 304.32
L420.274 302.4
L420.41 308.16
L420.818 302.4
L420.954 304.32
L421.09 308.16
L421.226 308.16
L421.362 300.48
L421.499 308.16
L421.635 304.32
L421.771 308.16
L422.315 308.16
L422.587 304.32
L422.86 296.64
L422.996 300.48
L423.268 300.48
L423.404 302.4
L423.676 302.4
L423.812 294.72
L423.948 296.64
L424.493 279.36
L424.629 281.28
L425.037 254.4
L425.581 254.4
L425.718 256.32
L425.854 256.32
L425.99 254.4
L426.534 254.4
L426.806 239.04
L426.942 225.6
L427.079 223.68
L427.759 196.8
L427.895 196.8
L428.167 206.4
L428.303 202.56
L428.44 208.32
L428.576 204.48
L429.392 204.48
L429.664 210.24
L430.209 210.24
L430.345 212.16
L430.617 198.72
L430.753 204.48
L431.025 204.48
L431.161 202.56
L431.298 196.8
L431.434 196.8
L431.57 189.12
L431.706 189.12
L431.842 185.28
L432.114 173.76
L432.522 173.76
L432.659 177.6
L432.795 185.28
L433.339 185.28
L433.747 189.76
L434.02 192.96
L434.156 191.04
L434.292 187.2
L434.428 187.2
L434.564 189.12
L434.972 189.12
L435.108 187.2
L435.925 187.2
L436.061 185.28
L436.197 185.28
L436.333 187.2
L436.878 187.2
L437.014 185.28
L437.286 175.68
L437.966 175.68
L438.375 164.16
L438.511 156.48
L438.647 156.48
L438.783 158.4
L438.919 156.48
L439.055 144.96
L439.191 146.88
L439.6 146.88
L439.736 148.8
L440.008 148.8
L440.416 160.32
L440.96 160.32
L441.097 162.24
L441.641 162.24
L441.913 169.92
L442.049 171.84
L442.458 171.84
L442.73 177.6
L442.866 177.6
L443.002 175.68
L443.274 175.68
L443.41 171.84
L443.546 171.84
L443.819 168
L443.955 162.24
L444.091 164.16
L444.227 164.16
L444.363 146.88
L444.499 146.88
L444.635 141.12
L444.771 120
L445.043 158.4
L445.18 156.48
L445.316 158.4
L445.452 158.4
L445.588 160.32
L445.724 160.32
L445.86 162.24
L446.404 162.24
L446.54 166.08
L446.813 166.08
L446.949 169.92
L447.629 169.92
L448.038 175.68
L448.854 175.68
L449.126 177.6
L449.399 177.6
L449.535 185.28
L450.623 185.28
L451.304 164.16
L451.44 166.08
L451.712 173.76
L452.393 173.76
L452.529 177.6
L454.298 177.6
L454.57 181.44
L454.706 177.6
L454.842 177.6
L456.34 162.24
L456.476 166.08
L457.428 164.16
L457.564 164.16
L457.973 169.92
L458.245 169.92
L458.381 173.76
L458.517 173.76
L458.925 146.88
L459.061 143.04
L459.198 150.72
L459.334 150.72
L459.47 158.4
L460.15 158.4
L460.422 171.84
L460.967 171.84
L461.375 206.4
L461.511 206.4
L461.647 216
L461.783 216
L461.92 208.32
L462.056 212.16
L462.192 212.16
L462.328 216
L462.464 239.04
L462.736 239.04
L462.872 242.88
L463.008 250.56
L463.144 246.72
L463.28 219.84
L463.553 219.84
L463.689 208.32
L463.825 208.32
L463.961 204.48
L464.097 204.48
L464.233 216
L464.369 216
L464.505 204.48
L464.778 204.48
L464.914 189.12
L465.186 196.8
L465.322 196.8
L465.458 204.48
L465.594 258.24
L465.73 254.4
L465.866 246.72
L466.139 254.4
L466.275 254.4
L466.547 246.72
L466.683 250.56
L466.819 258.24
L466.955 258.24
L467.091 262.08
L467.227 262.08
L467.363 260.16
L467.5 260.16
L467.636 258.24
L467.908 265.92
L468.044 265.92
L468.18 269.76
L468.452 279.36
L468.588 281.28
L468.724 281.28
L468.86 273.6
L469.133 273.6
L469.269 277.44
L469.405 277.44
L469.541 281.28
L469.677 281.28
L469.813 285.12
L469.949 283.2
L470.085 283.2
L470.221 285.12
L470.494 285.12
L470.63 290.88
L470.766 290.88
L471.174 273.6
L471.31 262.08
L471.582 288.96
L472.263 288.96
L472.399 292.8
L473.216 292.8
L473.352 281.28
L473.624 285.12
L473.76 292.8
L474.168 292.8
L474.44 304.32
L474.577 298.56
L474.713 300.48
L474.985 288.96
L475.121 285.12
L475.529 288.96
L475.665 285.12
L475.801 285.12
L475.938 281.28
L476.074 281.28
L476.21 285.12
L476.346 283.2
L476.754 283.2
L476.89 281.28
L477.026 281.28
L477.162 277.44
L477.299 277.44
L477.979 258.24
L478.115 258.24
L478.251 269.76
L478.387 265.92
L478.523 265.92
L478.66 262.08
L478.796 262.08
L479.068 242.88
L479.204 265.92
L479.476 265.92
L479.612 262.08
L480.02 235.2
L480.157 231.36
L480.293 223.68
L480.429 223.68
L480.837 235.2
L480.973 227.52
L481.381 227.52
L481.654 216
L481.79 216
L481.926 212.16
L482.062 217.92
L482.198 216
L482.742 216
L482.879 219.84
L483.015 227.52
L483.151 227.52
L483.287 231.36
L483.831 231.36
L483.967 235.2
L484.103 235.2
L484.24 237.12
L484.376 237.12
L484.512 239.04
L484.648 239.04
L484.784 242.88
L485.056 242.88
L485.192 240.96
L485.328 240.96
L485.464 239.04
L486.825 239.04
L486.961 240.96
L487.778 240.96
L488.731 248.64
L488.867 248.64
L489.003 250.56
L489.411 250.56
L489.547 248.64
L489.683 248.64
L489.956 244.8
L490.092 244.8
L490.228 246.72
L490.364 246.72
L490.5 244.8
L490.772 244.8
L490.908 242.88
L491.18 242.88
L491.317 237.12
L491.589 237.12
L491.725 235.2
L492.269 235.2
L492.405 239.04
L493.494 239.04
L493.766 244.8
L493.902 244.8
L494.039 248.64
L494.175 248.64
L494.311 246.72
L495.263 246.72
L495.672 240.96
L496.08 240.96
L496.216 239.04
L496.352 235.2
L496.488 239.04
L496.624 237.12
L496.76 239.04
L496.897 239.04
L497.169 242.88
L497.577 242.88
L497.713 244.8
L497.985 244.8
L498.121 242.88
L499.21 242.88
L499.346 244.8
L499.482 242.88
L499.619 244.8
L500.299 244.8
L500.435 246.72
L500.843 246.72
L500.98 248.64
L501.252 248.64
L501.388 250.56
L501.66 250.56
L501.796 248.64
L502.204 248.64
L502.34 246.72
L502.749 246.72
L502.885 242.88
L503.021 235.2
L503.157 219.84
L503.701 219.84
L503.838 216
L503.974 216
L504.246 196.8
L504.382 177.6
L504.518 177.6
L504.79 154.56
L504.926 158.4
L505.199 110.4
L505.335 135.36
L505.471 135.36
L505.607 127.68
L505.879 154.56
L506.015 158.4
L506.151 154.56
L506.287 154.56
L506.56 110.4
L506.832 158.4
L506.968 148.8
L507.104 158.4
L507.376 158.4
L507.648 177.6
L507.784 139.2
L507.92 139.2
L508.057 158.4
L508.601 158.4
L508.737 154.56
L508.873 154.56
L509.009 146.88
L509.145 146.88
L509.281 148.8
L509.418 148.8
L509.554 146.88
L509.69 146.88
L509.826 135.36
L509.962 139.2
L510.098 139.2
L510.234 146.88
L510.37 146.88
L510.642 162.24
L510.915 150.72
L511.051 150.72
L511.187 135.36
L511.323 135.36
L511.595 112.32
L511.867 139.2
L512.003 139.2
L512.14 135.36
L512.412 135.36
L512.548 139.2
L512.684 139.2
L512.82 143.04
L512.956 143.04
L513.092 139.2
L513.228 139.2
L513.364 104.64
L513.5 100.8
L513.637 100.8
L513.773 104.64
L513.909 104.64
L514.045 127.68
L514.317 127.68
L514.725 104.64
L514.861 104.64
L514.998 100.8
L515.27 100.8
L515.406 104.64
L515.678 227.52
L515.814 227.52
L515.95 196.8
L516.086 196.8
L516.222 204.48
L516.359 204.48
L516.495 235.2
L516.767 235.2
L516.903 231.36
L517.039 231.36
L517.175 235.2
L517.447 254.4
L517.583 258.24
L517.72 258.24
L517.856 265.92
L518.264 265.92
L518.4 269.76
L518.4 269.76" style="fill:none;stroke:#0000ff;"/>
   </g>
   <g id="line2d_3">
    <path clip-path="url(#p7ff5b81e1d)" d="
M451.984 182.132
L452.529 164.91
L453.754 170.904
L454.162 173.246
L455.659 168.246
L456.34 167.072
L457.02 151.607
L457.428 149.521
L458.109 150.262
L458.517 150.93
L459.061 155.269
L460.15 139.304
L460.831 147.784
L461.239 149.068
L462.056 181.534
L462.6 202.045
L463.144 214.503
L463.417 219.18
L463.961 236.539
L464.505 209.774
L465.05 215.908
L465.594 202.667
L466.139 218.747
L466.819 252.66
L467.363 260.963
L467.772 264.188
L468.316 264.429
L468.86 266.884
L469.813 284.481
L469.949 286.667
L470.494 279.684
L471.038 281.468
L471.582 281.155
L472.127 279.955
L472.671 284.607
L473.216 275.649
L473.896 279.594
L474.849 280.894
L475.393 280.669
L475.938 278.521
L476.754 269.871
L477.026 267.843
L477.707 256.999
L478.115 254.589
L478.932 243.526
L479.204 239.044
L479.748 240.846
L480.293 238.982
L481.381 218.275
L481.926 214.515
L482.47 205.937
L483.015 206.758
L483.967 213.322
L484.103 214.094
L484.648 221.018
L485.328 237.797
L485.737 243.747
L486.281 242.578
L486.825 244.929
L487.37 244.714
L487.914 242.47
L488.459 243.474
L489.003 245.585
L489.683 252.403
L490.092 253.291
L490.636 252.181
L491.861 246.661
L492.678 240.865
L492.814 240.035
L493.358 240.18
L493.902 241.928
L494.583 246.783
L495.127 251.298
L495.536 252.299
L496.624 249.05
L497.441 245.093
L498.258 242.151
L499.482 242.84
L499.891 242.664
L500.98 243.853
L501.524 247.25
L502.068 245.306
L502.613 245.353
L503.157 244.463
L503.701 236.025
L504.518 215.364
L504.79 210.098
L505.879 155.751
L506.832 143.364
L507.104 139.462
L507.512 132.238
L508.057 152.508
L508.601 152.208
L509.281 157.195
L509.69 161.176
L510.642 150.909
L510.779 149.635
L511.323 158.609
L511.867 155.756
L512.412 139.994
L512.956 143.395
L513.5 137.963
L514.045 137.015
L514.589 124.189
L515.134 134.744
L515.678 115.528
L516.495 195.795
L516.903 230.757
L517.311 240.195
L517.992 271.868
L518.4 276.364
L518.4 276.364" style="fill:none;stroke:#ff0000;"/>
   </g>
   <g id="matplotlib.axis_1">
    <g id="xtick_1">
     <g id="line2d_4">
      <path clip-path="url(#p7ff5b81e1d)" d="
M116.776 388.8
L116.776 43.2" style="fill:none;stroke:#000000;stroke-dasharray:1.000000,3.000000;stroke-dashoffset:0.0;stroke-linecap:butt;stroke-width:0.5;"/>
     </g>
     <g id="line2d_5">
      <defs>
       <path d="
M0 0
L0 -4" id="mcb557df647" style="stroke:#000000;stroke-linecap:butt;stroke-width:0.5;"/>
      </defs>
      <g>
       <use style="stroke:#000000;stroke-linecap:butt;stroke-width:0.5;" x="116.776097561" xlink:href="#mcb557df647" y="388.8"/>
      </g>
     </g>
     <g id="line2d_6">
      <defs>
       <path d="
M0 0
L0 4" id="mdad270ee8e" style="stroke:#000000;stroke-linecap:butt;stroke-width:0.5;"/>
      </defs>
      <g>
       <use style="stroke:#000000;stroke-linecap:butt;stroke-width:0.5;" x="116.776097561" xlink:href="#mdad270ee8e" y="43.2"/>
      </g>
     </g>
     <g id="text_1">
      <!-- 2006 -->
      <defs>
       <path d="
M31.7812 66.4062
Q24.1719 66.4062 20.3281 58.9062
Q16.5 51.4219 16.5 36.375
Q16.5 21.3906 20.3281 13.8906
Q24.1719 6.39062 31.7812 6.39062
Q39.4531 6.39062 43.2812 13.8906
Q47.125 21.3906 47.125 36.375
Q47.125 51.4219 43.2812 58.9062
Q39.4531 66.4062 31.7812 66.4062
M31.7812 74.2188
Q44.0469 74.2188 50.5156 64.5156
Q56.9844 54.8281 56.9844 36.375
Q56.9844 17.9688 50.5156 8.26562
Q44.0469 -1.42188 31.7812 -1.42188
Q19.5312 -1.42188 13.0625 8.26562
Q6.59375 17.9688 6.59375 36.375
Q6.59375 54.8281 13.0625 64.5156
Q19.5312 74.2188 31.7812 74.2188" id="DejaVuSans-30"/>
       <path d="
M19.1875 8.29688
L53.6094 8.29688
L53.6094 0
L7.32812 0
L7.32812 8.29688
Q12.9375 14.1094 22.625 23.8906
Q32.3281 33.6875 34.8125 36.5312
Q39.5469 41.8438 41.4219 45.5312
Q43.3125 49.2188 43.3125 52.7812
Q43.3125 58.5938 39.2344 62.25
Q35.1562 65.9219 28.6094 65.9219
Q23.9688 65.9219 18.8125 64.3125
Q13.6719 62.7031 7.8125 59.4219
L7.8125 69.3906
Q13.7656 71.7812 18.9375 73
Q24.125 74.2188 28.4219 74.2188
Q39.75 74.2188 46.4844 68.5469
Q53.2188 62.8906 53.2188 53.4219
Q53.2188 48.9219 51.5312 44.8906
Q49.8594 40.875 45.4062 35.4062
Q44.1875 33.9844 37.6406 27.2188
Q31.1094 20.4531 19.1875 8.29688" id="DejaVuSans-32"/>
       <path d="
M33.0156 40.375
Q26.375 40.375 22.4844 35.8281
Q18.6094 31.2969 18.6094 23.3906
Q18.6094 15.5312 22.4844 10.9531
Q26.375 6.39062 33.0156 6.39062
Q39.6562 6.39062 43.5312 10.9531
Q47.4062 15.5312 47.4062 23.3906
Q47.4062 31.2969 43.5312 35.8281
Q39.6562 40.375 33.0156 40.375
M52.5938 71.2969
L52.5938 62.3125
Q48.875 64.0625 45.0938 64.9844
Q41.3125 65.9219 37.5938 65.9219
Q27.8281 65.9219 22.6719 59.3281
Q17.5312 52.7344 16.7969 39.4062
Q19.6719 43.6562 24.0156 45.9219
Q28.375 48.1875 33.5938 48.1875
Q44.5781 48.1875 50.9531 41.5156
Q57.3281 34.8594 57.3281 23.3906
Q57.3281 12.1562 50.6875 5.35938
Q44.0469 -1.42188 33.0156 -1.42188
Q20.3594 -1.42188 13.6719 8.26562
Q6.98438 17.9688 6.98438 36.375
Q6.98438 53.6562 15.1875 63.9375
Q23.3906 74.2188 37.2031 74.2188
Q40.9219 74.2188 44.7031 73.4844
Q48.4844 72.75 52.5938 71.2969" id="DejaVuSans-36"/>
      </defs>
      <g transform="translate(102.323597561 401.70625)scale(0.12 -0.12)">
       <use xlink:href="#DejaVuSans-32"/>
       <use x="63.623046875" xlink:href="#DejaVuSans-30"/>
       <use x="127.24609375" xlink:href="#DejaVuSans-30"/>
       <use x="190.869140625" xlink:href="#DejaVuSans-36"/>
      </g>
     </g>
    </g>
    <g id="xtick_2">
     <g id="line2d_7">
      <path clip-path="url(#p7ff5b81e1d)" d="
M166.452 388.8
L166.452 43.2" style="fill:none;stroke:#000000;stroke-dasharray:1.000000,3.000000;stroke-dashoffset:0.0;stroke-linecap:butt;stroke-width:0.5;"/>
     </g>
     <g id="line2d_8">
      <g>
       <use style="stroke:#000000;stroke-linecap:butt;stroke-width:0.5;" x="166.451707317" xlink:href="#mcb557df647" y="388.8"/>
      </g>
     </g>
     <g id="line2d_9">
      <g>
       <use style="stroke:#000000;stroke-linecap:butt;stroke-width:0.5;" x="166.451707317" xlink:href="#mdad270ee8e" y="43.2"/>
      </g>
     </g>
     <g id="text_2">
      <!-- 2007 -->
      <defs>
       <path d="
M8.20312 72.9062
L55.0781 72.9062
L55.0781 68.7031
L28.6094 0
L18.3125 0
L43.2188 64.5938
L8.20312 64.5938
z
" id="DejaVuSans-37"/>
      </defs>
      <g transform="translate(152.134207317 401.70625)scale(0.12 -0.12)">
       <use xlink:href="#DejaVuSans-32"/>
       <use x="63.623046875" xlink:href="#DejaVuSans-30"/>
       <use x="127.24609375" xlink:href="#DejaVuSans-30"/>
       <use x="190.869140625" xlink:href="#DejaVuSans-37"/>
      </g>
     </g>
    </g>
    <g id="xtick_3">
     <g id="line2d_10">
      <path clip-path="url(#p7ff5b81e1d)" d="
M216.127 388.8
L216.127 43.2" style="fill:none;stroke:#000000;stroke-dasharray:1.000000,3.000000;stroke-dashoffset:0.0;stroke-linecap:butt;stroke-width:0.5;"/>
     </g>
     <g id="line2d_11">
      <g>
       <use style="stroke:#000000;stroke-linecap:butt;stroke-width:0.5;" x="216.127317073" xlink:href="#mcb557df647" y="388.8"/>
      </g>
     </g>
     <g id="line2d_12">
      <g>
       <use style="stroke:#000000;stroke-linecap:butt;stroke-width:0.5;" x="216.127317073" xlink:href="#mdad270ee8e" y="43.2"/>
      </g>
     </g>
     <g id="text_3">
      <!-- 2008 -->
      <defs>
       <path d="
M31.7812 34.625
Q24.75 34.625 20.7188 30.8594
Q16.7031 27.0938 16.7031 20.5156
Q16.7031 13.9219 20.7188 10.1562
Q24.75 6.39062 31.7812 6.39062
Q38.8125 6.39062 42.8594 10.1719
Q46.9219 13.9688 46.9219 20.5156
Q46.9219 27.0938 42.8906 30.8594
Q38.875 34.625 31.7812 34.625
M21.9219 38.8125
Q15.5781 40.375 12.0312 44.7188
Q8.5 49.0781 8.5 55.3281
Q8.5 64.0625 14.7188 69.1406
Q20.9531 74.2188 31.7812 74.2188
Q42.6719 74.2188 48.875 69.1406
Q55.0781 64.0625 55.0781 55.3281
Q55.0781 49.0781 51.5312 44.7188
Q48 40.375 41.7031 38.8125
Q48.8281 37.1562 52.7969 32.3125
Q56.7812 27.4844 56.7812 20.5156
Q56.7812 9.90625 50.3125 4.23438
Q43.8438 -1.42188 31.7812 -1.42188
Q19.7344 -1.42188 13.25 4.23438
Q6.78125 9.90625 6.78125 20.5156
Q6.78125 27.4844 10.7812 32.3125
Q14.7969 37.1562 21.9219 38.8125
M18.3125 54.3906
Q18.3125 48.7344 21.8438 45.5625
Q25.3906 42.3906 31.7812 42.3906
Q38.1406 42.3906 41.7188 45.5625
Q45.3125 48.7344 45.3125 54.3906
Q45.3125 60.0625 41.7188 63.2344
Q38.1406 66.4062 31.7812 66.4062
Q25.3906 66.4062 21.8438 63.2344
Q18.3125 60.0625 18.3125 54.3906" id="DejaVuSans-38"/>
      </defs>
      <g transform="translate(201.707629573 401.70625)scale(0.12 -0.12)">
       <use xlink:href="#DejaVuSans-32"/>
       <use x="63.623046875" xlink:href="#DejaVuSans-30"/>
       <use x="127.24609375" xlink:href="#DejaVuSans-30"/>
       <use x="190.869140625" xlink:href="#DejaVuSans-38"/>
      </g>
     </g>
    </g>
    <g id="xtick_4">
     <g id="line2d_13">
      <path clip-path="url(#p7ff5b81e1d)" d="
M265.939 388.8
L265.939 43.2" style="fill:none;stroke:#000000;stroke-dasharray:1.000000,3.000000;stroke-dashoffset:0.0;stroke-linecap:butt;stroke-width:0.5;"/>
     </g>
     <g id="line2d_14">
      <g>
       <use style="stroke:#000000;stroke-linecap:butt;stroke-width:0.5;" x="265.93902439" xlink:href="#mcb557df647" y="388.8"/>
      </g>
     </g>
     <g id="line2d_15">
      <g>
       <use style="stroke:#000000;stroke-linecap:butt;stroke-width:0.5;" x="265.93902439" xlink:href="#mdad270ee8e" y="43.2"/>
      </g>
     </g>
     <g id="text_4">
      <!-- 2009 -->
      <defs>
       <path d="
M10.9844 1.51562
L10.9844 10.5
Q14.7031 8.73438 18.5 7.8125
Q22.3125 6.89062 25.9844 6.89062
Q35.75 6.89062 40.8906 13.4531
Q46.0469 20.0156 46.7812 33.4062
Q43.9531 29.2031 39.5938 26.9531
Q35.25 24.7031 29.9844 24.7031
Q19.0469 24.7031 12.6719 31.3125
Q6.29688 37.9375 6.29688 49.4219
Q6.29688 60.6406 12.9375 67.4219
Q19.5781 74.2188 30.6094 74.2188
Q43.2656 74.2188 49.9219 64.5156
Q56.5938 54.8281 56.5938 36.375
Q56.5938 19.1406 48.4062 8.85938
Q40.2344 -1.42188 26.4219 -1.42188
Q22.7031 -1.42188 18.8906 -0.6875
Q15.0938 0.046875 10.9844 1.51562
M30.6094 32.4219
Q37.25 32.4219 41.125 36.9531
Q45.0156 41.5 45.0156 49.4219
Q45.0156 57.2812 41.125 61.8438
Q37.25 66.4062 30.6094 66.4062
Q23.9688 66.4062 20.0938 61.8438
Q16.2188 57.2812 16.2188 49.4219
Q16.2188 41.5 20.0938 36.9531
Q23.9688 32.4219 30.6094 32.4219" id="DejaVuSans-39"/>
      </defs>
      <g transform="translate(251.53058689 401.70625)scale(0.12 -0.12)">
       <use xlink:href="#DejaVuSans-32"/>
       <use x="63.623046875" xlink:href="#DejaVuSans-30"/>
       <use x="127.24609375" xlink:href="#DejaVuSans-30"/>
       <use x="190.869140625" xlink:href="#DejaVuSans-39"/>
      </g>
     </g>
    </g>
    <g id="xtick_5">
     <g id="line2d_16">
      <path clip-path="url(#p7ff5b81e1d)" d="
M315.615 388.8
L315.615 43.2" style="fill:none;stroke:#000000;stroke-dasharray:1.000000,3.000000;stroke-dashoffset:0.0;stroke-linecap:butt;stroke-width:0.5;"/>
     </g>
     <g id="line2d_17">
      <g>
       <use style="stroke:#000000;stroke-linecap:butt;stroke-width:0.5;" x="315.614634146" xlink:href="#mcb557df647" y="388.8"/>
      </g>
     </g>
     <g id="line2d_18">
      <g>
       <use style="stroke:#000000;stroke-linecap:butt;stroke-width:0.5;" x="315.614634146" xlink:href="#mdad270ee8e" y="43.2"/>
      </g>
     </g>
     <g id="text_5">
      <!-- 2010 -->
      <defs>
       <path d="
M12.4062 8.29688
L28.5156 8.29688
L28.5156 63.9219
L10.9844 60.4062
L10.9844 69.3906
L28.4219 72.9062
L38.2812 72.9062
L38.2812 8.29688
L54.3906 8.29688
L54.3906 0
L12.4062 0
z
" id="DejaVuSans-31"/>
      </defs>
      <g transform="translate(301.182759146 401.70625)scale(0.12 -0.12)">
       <use xlink:href="#DejaVuSans-32"/>
       <use x="63.623046875" xlink:href="#DejaVuSans-30"/>
       <use x="127.24609375" xlink:href="#DejaVuSans-31"/>
       <use x="190.869140625" xlink:href="#DejaVuSans-30"/>
      </g>
     </g>
    </g>
    <g id="xtick_6">
     <g id="line2d_19">
      <path clip-path="url(#p7ff5b81e1d)" d="
M365.29 388.8
L365.29 43.2" style="fill:none;stroke:#000000;stroke-dasharray:1.000000,3.000000;stroke-dashoffset:0.0;stroke-linecap:butt;stroke-width:0.5;"/>
     </g>
     <g id="line2d_20">
      <g>
       <use style="stroke:#000000;stroke-linecap:butt;stroke-width:0.5;" x="365.290243902" xlink:href="#mcb557df647" y="388.8"/>
      </g>
     </g>
     <g id="line2d_21">
      <g>
       <use style="stroke:#000000;stroke-linecap:butt;stroke-width:0.5;" x="365.290243902" xlink:href="#mdad270ee8e" y="43.2"/>
      </g>
     </g>
     <g id="text_6">
      <!-- 2011 -->
      <g transform="translate(351.013993902 401.70625)scale(0.12 -0.12)">
       <use xlink:href="#DejaVuSans-32"/>
       <use x="63.623046875" xlink:href="#DejaVuSans-30"/>
       <use x="127.24609375" xlink:href="#DejaVuSans-31"/>
       <use x="190.869140625" xlink:href="#DejaVuSans-31"/>
      </g>
     </g>
    </g>
    <g id="xtick_7">
     <g id="line2d_22">
      <path clip-path="url(#p7ff5b81e1d)" d="
M414.966 388.8
L414.966 43.2" style="fill:none;stroke:#000000;stroke-dasharray:1.000000,3.000000;stroke-dashoffset:0.0;stroke-linecap:butt;stroke-width:0.5;"/>
     </g>
     <g id="line2d_23">
      <g>
       <use style="stroke:#000000;stroke-linecap:butt;stroke-width:0.5;" x="414.965853659" xlink:href="#mcb557df647" y="388.8"/>
      </g>
     </g>
     <g id="line2d_24">
      <g>
       <use style="stroke:#000000;stroke-linecap:butt;stroke-width:0.5;" x="414.965853659" xlink:href="#mdad270ee8e" y="43.2"/>
      </g>
     </g>
     <g id="text_7">
      <!-- 2012 -->
      <g transform="translate(400.736478659 401.70625)scale(0.12 -0.12)">
       <use xlink:href="#DejaVuSans-32"/>
       <use x="63.623046875" xlink:href="#DejaVuSans-30"/>
       <use x="127.24609375" xlink:href="#DejaVuSans-31"/>
       <use x="190.869140625" xlink:href="#DejaVuSans-32"/>
      </g>
     </g>
    </g>
    <g id="xtick_8">
     <g id="line2d_25">
      <path clip-path="url(#p7ff5b81e1d)" d="
M464.778 388.8
L464.778 43.2" style="fill:none;stroke:#000000;stroke-dasharray:1.000000,3.000000;stroke-dashoffset:0.0;stroke-linecap:butt;stroke-width:0.5;"/>
     </g>
     <g id="line2d_26">
      <g>
       <use style="stroke:#000000;stroke-linecap:butt;stroke-width:0.5;" x="464.777560976" xlink:href="#mcb557df647" y="388.8"/>
      </g>
     </g>
     <g id="line2d_27">
      <g>
       <use style="stroke:#000000;stroke-linecap:butt;stroke-width:0.5;" x="464.777560976" xlink:href="#mdad270ee8e" y="43.2"/>
      </g>
     </g>
     <g id="text_8">
      <!-- 2013 -->
      <defs>
       <path d="
M40.5781 39.3125
Q47.6562 37.7969 51.625 33
Q55.6094 28.2188 55.6094 21.1875
Q55.6094 10.4062 48.1875 4.48438
Q40.7656 -1.42188 27.0938 -1.42188
Q22.5156 -1.42188 17.6562 -0.515625
Q12.7969 0.390625 7.625 2.20312
L7.625 11.7188
Q11.7188 9.32812 16.5938 8.10938
Q21.4844 6.89062 26.8125 6.89062
Q36.0781 6.89062 40.9375 10.5469
Q45.7969 14.2031 45.7969 21.1875
Q45.7969 27.6406 41.2812 31.2656
Q36.7656 34.9062 28.7188 34.9062
L20.2188 34.9062
L20.2188 43.0156
L29.1094 43.0156
Q36.375 43.0156 40.2344 45.9219
Q44.0938 48.8281 44.0938 54.2969
Q44.0938 59.9062 40.1094 62.9062
Q36.1406 65.9219 28.7188 65.9219
Q24.6562 65.9219 20.0156 65.0312
Q15.375 64.1562 9.8125 62.3125
L9.8125 71.0938
Q15.4375 72.6562 20.3438 73.4375
Q25.25 74.2188 29.5938 74.2188
Q40.8281 74.2188 47.3594 69.1094
Q53.9062 64.0156 53.9062 55.3281
Q53.9062 49.2656 50.4375 45.0938
Q46.9688 40.9219 40.5781 39.3125" id="DejaVuSans-33"/>
      </defs>
      <g transform="translate(450.428185976 401.70625)scale(0.12 -0.12)">
       <use xlink:href="#DejaVuSans-32"/>
       <use x="63.623046875" xlink:href="#DejaVuSans-30"/>
       <use x="127.24609375" xlink:href="#DejaVuSans-31"/>
       <use x="190.869140625" xlink:href="#DejaVuSans-33"/>
      </g>
     </g>
    </g>
    <g id="xtick_9">
     <g id="line2d_28">
      <path clip-path="url(#p7ff5b81e1d)" d="
M514.453 388.8
L514.453 43.2" style="fill:none;stroke:#000000;stroke-dasharray:1.000000,3.000000;stroke-dashoffset:0.0;stroke-linecap:butt;stroke-width:0.5;"/>
     </g>
     <g id="line2d_29">
      <g>
       <use style="stroke:#000000;stroke-linecap:butt;stroke-width:0.5;" x="514.453170732" xlink:href="#mcb557df647" y="388.8"/>
      </g>
     </g>
     <g id="line2d_30">
      <g>
       <use style="stroke:#000000;stroke-linecap:butt;stroke-width:0.5;" x="514.453170732" xlink:href="#mdad270ee8e" y="43.2"/>
      </g>
     </g>
     <g id="text_9">
      <!-- 2014 -->
      <defs>
       <path d="
M37.7969 64.3125
L12.8906 25.3906
L37.7969 25.3906
z

M35.2031 72.9062
L47.6094 72.9062
L47.6094 25.3906
L58.0156 25.3906
L58.0156 17.1875
L47.6094 17.1875
L47.6094 0
L37.7969 0
L37.7969 17.1875
L4.89062 17.1875
L4.89062 26.7031
z
" id="DejaVuSans-34"/>
      </defs>
      <g transform="translate(499.959420732 401.70625)scale(0.12 -0.12)">
       <use xlink:href="#DejaVuSans-32"/>
       <use x="63.623046875" xlink:href="#DejaVuSans-30"/>
       <use x="127.24609375" xlink:href="#DejaVuSans-31"/>
       <use x="190.869140625" xlink:href="#DejaVuSans-34"/>
      </g>
     </g>
    </g>
   </g>
   <g id="matplotlib.axis_2">
    <g id="ytick_1">
     <g id="line2d_31">
      <path clip-path="url(#p7ff5b81e1d)" d="
M72 388.8
L518.4 388.8" style="fill:none;stroke:#000000;stroke-dasharray:1.000000,3.000000;stroke-dashoffset:0.0;stroke-linecap:butt;stroke-width:0.5;"/>
     </g>
     <g id="line2d_32">
      <defs>
       <path d="
M0 0
L4 0" id="mc8fcea1516" style="stroke:#000000;stroke-linecap:butt;stroke-width:0.5;"/>
      </defs>
      <g>
       <use style="stroke:#000000;stroke-linecap:butt;stroke-width:0.5;" x="72.0" xlink:href="#mc8fcea1516" y="388.8"/>
      </g>
     </g>
     <g id="line2d_33">
      <defs>
       <path d="
M0 0
L-4 0" id="m0d5b0a6425" style="stroke:#000000;stroke-linecap:butt;stroke-width:0.5;"/>
      </defs>
      <g>
       <use style="stroke:#000000;stroke-linecap:butt;stroke-width:0.5;" x="518.4" xlink:href="#m0d5b0a6425" y="388.8"/>
      </g>
     </g>
     <g id="text_10">
      <!-- 0 -->
      <g transform="translate(61.953125 393.1678125)scale(0.12 -0.12)">
       <use xlink:href="#DejaVuSans-30"/>
      </g>
     </g>
    </g>
    <g id="ytick_2">
     <g id="line2d_34">
      <path clip-path="url(#p7ff5b81e1d)" d="
M72 350.4
L518.4 350.4" style="fill:none;stroke:#000000;stroke-dasharray:1.000000,3.000000;stroke-dashoffset:0.0;stroke-linecap:butt;stroke-width:0.5;"/>
     </g>
     <g id="line2d_35">
      <g>
       <use style="stroke:#000000;stroke-linecap:butt;stroke-width:0.5;" x="72.0" xlink:href="#mc8fcea1516" y="350.4"/>
      </g>
     </g>
     <g id="line2d_36">
      <g>
       <use style="stroke:#000000;stroke-linecap:butt;stroke-width:0.5;" x="518.4" xlink:href="#m0d5b0a6425" y="350.4"/>
      </g>
     </g>
     <g id="text_11">
      <!-- 2 -->
      <g transform="translate(62.44625 354.853125)scale(0.12 -0.12)">
       <use xlink:href="#DejaVuSans-32"/>
      </g>
     </g>
    </g>
    <g id="ytick_3">
     <g id="line2d_37">
      <path clip-path="url(#p7ff5b81e1d)" d="
M72 312
L518.4 312" style="fill:none;stroke:#000000;stroke-dasharray:1.000000,3.000000;stroke-dashoffset:0.0;stroke-linecap:butt;stroke-width:0.5;"/>
     </g>
     <g id="line2d_38">
      <g>
       <use style="stroke:#000000;stroke-linecap:butt;stroke-width:0.5;" x="72.0" xlink:href="#mc8fcea1516" y="312.0"/>
      </g>
     </g>
     <g id="line2d_39">
      <g>
       <use style="stroke:#000000;stroke-linecap:butt;stroke-width:0.5;" x="518.4" xlink:href="#m0d5b0a6425" y="312.0"/>
      </g>
     </g>
     <g id="text_12">
      <!-- 4 -->
      <g transform="translate(61.625 316.374375)scale(0.12 -0.12)">
       <use xlink:href="#DejaVuSans-34"/>
      </g>
     </g>
    </g>
    <g id="ytick_4">
     <g id="line2d_40">
      <path clip-path="url(#p7ff5b81e1d)" d="
M72 273.6
L518.4 273.6" style="fill:none;stroke:#000000;stroke-dasharray:1.000000,3.000000;stroke-dashoffset:0.0;stroke-linecap:butt;stroke-width:0.5;"/>
     </g>
     <g id="line2d_41">
      <g>
       <use style="stroke:#000000;stroke-linecap:butt;stroke-width:0.5;" x="72.0" xlink:href="#mc8fcea1516" y="273.6"/>
      </g>
     </g>
     <g id="line2d_42">
      <g>
       <use style="stroke:#000000;stroke-linecap:butt;stroke-width:0.5;" x="518.4" xlink:href="#m0d5b0a6425" y="273.6"/>
      </g>
     </g>
     <g id="text_13">
      <!-- 6 -->
      <g transform="translate(61.95875 277.9678125)scale(0.12 -0.12)">
       <use xlink:href="#DejaVuSans-36"/>
      </g>
     </g>
    </g>
    <g id="ytick_5">
     <g id="line2d_43">
      <path clip-path="url(#p7ff5b81e1d)" d="
M72 235.2
L518.4 235.2" style="fill:none;stroke:#000000;stroke-dasharray:1.000000,3.000000;stroke-dashoffset:0.0;stroke-linecap:butt;stroke-width:0.5;"/>
     </g>
     <g id="line2d_44">
      <g>
       <use style="stroke:#000000;stroke-linecap:butt;stroke-width:0.5;" x="72.0" xlink:href="#mc8fcea1516" y="235.2"/>
      </g>
     </g>
     <g id="line2d_45">
      <g>
       <use style="stroke:#000000;stroke-linecap:butt;stroke-width:0.5;" x="518.4" xlink:href="#m0d5b0a6425" y="235.2"/>
      </g>
     </g>
     <g id="text_14">
      <!-- 8 -->
      <g transform="translate(62.0 239.5678125)scale(0.12 -0.12)">
       <use xlink:href="#DejaVuSans-38"/>
      </g>
     </g>
    </g>
    <g id="ytick_6">
     <g id="line2d_46">
      <path clip-path="url(#p7ff5b81e1d)" d="
M72 196.8
L518.4 196.8" style="fill:none;stroke:#000000;stroke-dasharray:1.000000,3.000000;stroke-dashoffset:0.0;stroke-linecap:butt;stroke-width:0.5;"/>
     </g>
     <g id="line2d_47">
      <g>
       <use style="stroke:#000000;stroke-linecap:butt;stroke-width:0.5;" x="72.0" xlink:href="#mc8fcea1516" y="196.8"/>
      </g>
     </g>
     <g id="line2d_48">
      <g>
       <use style="stroke:#000000;stroke-linecap:butt;stroke-width:0.5;" x="518.4" xlink:href="#m0d5b0a6425" y="196.8"/>
      </g>
     </g>
     <g id="text_15">
      <!-- 10 -->
      <g transform="translate(54.845 201.1678125)scale(0.12 -0.12)">
       <use xlink:href="#DejaVuSans-31"/>
       <use x="63.623046875" xlink:href="#DejaVuSans-30"/>
      </g>
     </g>
    </g>
    <g id="ytick_7">
     <g id="line2d_49">
      <path clip-path="url(#p7ff5b81e1d)" d="
M72 158.4
L518.4 158.4" style="fill:none;stroke:#000000;stroke-dasharray:1.000000,3.000000;stroke-dashoffset:0.0;stroke-linecap:butt;stroke-width:0.5;"/>
     </g>
     <g id="line2d_50">
      <g>
       <use style="stroke:#000000;stroke-linecap:butt;stroke-width:0.5;" x="72.0" xlink:href="#mc8fcea1516" y="158.4"/>
      </g>
     </g>
     <g id="line2d_51">
      <g>
       <use style="stroke:#000000;stroke-linecap:butt;stroke-width:0.5;" x="518.4" xlink:href="#m0d5b0a6425" y="158.4"/>
      </g>
     </g>
     <g id="text_16">
      <!-- 12 -->
      <g transform="translate(55.25 162.853125)scale(0.12 -0.12)">
       <use xlink:href="#DejaVuSans-31"/>
       <use x="63.623046875" xlink:href="#DejaVuSans-32"/>
      </g>
     </g>
    </g>
    <g id="ytick_8">
     <g id="line2d_52">
      <path clip-path="url(#p7ff5b81e1d)" d="
M72 120
L518.4 120" style="fill:none;stroke:#000000;stroke-dasharray:1.000000,3.000000;stroke-dashoffset:0.0;stroke-linecap:butt;stroke-width:0.5;"/>
     </g>
     <g id="line2d_53">
      <g>
       <use style="stroke:#000000;stroke-linecap:butt;stroke-width:0.5;" x="72.0" xlink:href="#mc8fcea1516" y="120.0"/>
      </g>
     </g>
     <g id="line2d_54">
      <g>
       <use style="stroke:#000000;stroke-linecap:butt;stroke-width:0.5;" x="518.4" xlink:href="#m0d5b0a6425" y="120.0"/>
      </g>
     </g>
     <g id="text_17">
      <!-- 14 -->
      <g transform="translate(54.72125 124.374375)scale(0.12 -0.12)">
       <use xlink:href="#DejaVuSans-31"/>
       <use x="63.623046875" xlink:href="#DejaVuSans-34"/>
      </g>
     </g>
    </g>
    <g id="ytick_9">
     <g id="line2d_55">
      <path clip-path="url(#p7ff5b81e1d)" d="
M72 81.6
L518.4 81.6" style="fill:none;stroke:#000000;stroke-dasharray:1.000000,3.000000;stroke-dashoffset:0.0;stroke-linecap:butt;stroke-width:0.5;"/>
     </g>
     <g id="line2d_56">
      <g>
       <use style="stroke:#000000;stroke-linecap:butt;stroke-width:0.5;" x="72.0" xlink:href="#mc8fcea1516" y="81.6"/>
      </g>
     </g>
     <g id="line2d_57">
      <g>
       <use style="stroke:#000000;stroke-linecap:butt;stroke-width:0.5;" x="518.4" xlink:href="#m0d5b0a6425" y="81.6"/>
      </g>
     </g>
     <g id="text_18">
      <!-- 16 -->
      <g transform="translate(54.80375 85.9678125)scale(0.12 -0.12)">
       <use xlink:href="#DejaVuSans-31"/>
       <use x="63.623046875" xlink:href="#DejaVuSans-36"/>
      </g>
     </g>
    </g>
    <g id="ytick_10">
     <g id="line2d_58">
      <path clip-path="url(#p7ff5b81e1d)" d="
M72 43.2
L518.4 43.2" style="fill:none;stroke:#000000;stroke-dasharray:1.000000,3.000000;stroke-dashoffset:0.0;stroke-linecap:butt;stroke-width:0.5;"/>
     </g>
     <g id="line2d_59">
      <g>
       <use style="stroke:#000000;stroke-linecap:butt;stroke-width:0.5;" x="72.0" xlink:href="#mc8fcea1516" y="43.2"/>
      </g>
     </g>
     <g id="line2d_60">
      <g>
       <use style="stroke:#000000;stroke-linecap:butt;stroke-width:0.5;" x="518.4" xlink:href="#m0d5b0a6425" y="43.2"/>
      </g>
     </g>
     <g id="text_19">
      <!-- 18 -->
      <g transform="translate(54.869375 47.5678125)scale(0.12 -0.12)">
       <use xlink:href="#DejaVuSans-31"/>
       <use x="63.623046875" xlink:href="#DejaVuSans-38"/>
      </g>
     </g>
    </g>
   </g>
   <g id="patch_3">
    <path d="
M72 43.2
L518.4 43.2" style="fill:none;stroke:#000000;"/>
   </g>
   <g id="patch_4">
    <path d="
M518.4 388.8
L518.4 43.2" style="fill:none;stroke:#000000;"/>
   </g>
   <g id="patch_5">
    <path d="
M72 388.8
L518.4 388.8" style="fill:none;stroke:#000000;"/>
   </g>
   <g id="patch_6">
    <path d="
M72 388.8
L72 43.2" style="fill:none;stroke:#000000;"/>
   </g>
   <g id="text_20">
    <!--  -->
    <g transform="translate(295.2 -22.6589)scale(0.144 -0.144)"/>
    <!-- model: (10, 10) - ../data/csv/19-05/wholesale-daily-('West Bengal', 'Burdwan', 'Potato', 'Jyoti', 0.89).csv,  -->
    <defs>
     <path d="
M19.6719 64.7969
L19.6719 37.4062
L32.0781 37.4062
Q38.9688 37.4062 42.7188 40.9688
Q46.4844 44.5312 46.4844 51.125
Q46.4844 57.6719 42.7188 61.2344
Q38.9688 64.7969 32.0781 64.7969
z

M9.8125 72.9062
L32.0781 72.9062
Q44.3438 72.9062 50.6094 67.3594
Q56.8906 61.8125 56.8906 51.125
Q56.8906 40.3281 50.6094 34.8125
Q44.3438 29.2969 32.0781 29.2969
L19.6719 29.2969
L19.6719 0
L9.8125 0
z
" id="DejaVuSans-50"/>
     <path d="
M11.7188 12.4062
L22.0156 12.4062
L22.0156 0
L11.7188 0
z

M11.7188 51.7031
L22.0156 51.7031
L22.0156 39.3125
L11.7188 39.3125
z
" id="DejaVuSans-3a"/>
     <path id="DejaVuSans-20"/>
     <path d="
M17.9219 72.9062
L17.9219 45.7969
L9.625 45.7969
L9.625 72.9062
z
" id="DejaVuSans-27"/>
     <path d="
M54.8906 33.0156
L54.8906 0
L45.9062 0
L45.9062 32.7188
Q45.9062 40.4844 42.875 44.3281
Q39.8438 48.1875 33.7969 48.1875
Q26.5156 48.1875 22.3125 43.5469
Q18.1094 38.9219 18.1094 30.9062
L18.1094 0
L9.07812 0
L9.07812 75.9844
L18.1094 75.9844
L18.1094 46.1875
Q21.3438 51.125 25.7031 53.5625
Q30.0781 56 35.7969 56
Q45.2188 56 50.0469 50.1719
Q54.8906 44.3438 54.8906 33.0156" id="DejaVuSans-68"/>
     <path d="
M9.42188 54.6875
L18.4062 54.6875
L18.4062 0
L9.42188 0
z

M9.42188 75.9844
L18.4062 75.9844
L18.4062 64.5938
L9.42188 64.5938
z
" id="DejaVuSans-69"/>
     <path d="
M32.1719 -5.07812
Q28.375 -14.8438 24.75 -17.8125
Q21.1406 -20.7969 15.0938 -20.7969
L7.90625 -20.7969
L7.90625 -13.2812
L13.1875 -13.2812
Q16.8906 -13.2812 18.9375 -11.5156
Q21 -9.76562 23.4844 -3.21875
L25.0938 0.875
L2.98438 54.6875
L12.5 54.6875
L29.5938 11.9219
L46.6875 54.6875
L56.2031 54.6875
z
" id="DejaVuSans-79"/>
     <path d="
M45.4062 46.3906
L45.4062 75.9844
L54.3906 75.9844
L54.3906 0
L45.4062 0
L45.4062 8.20312
Q42.5781 3.32812 38.25 0.953125
Q33.9375 -1.42188 27.875 -1.42188
Q17.9688 -1.42188 11.7344 6.48438
Q5.51562 14.4062 5.51562 27.2969
Q5.51562 40.1875 11.7344 48.0938
Q17.9688 56 27.875 56
Q33.9375 56 38.25 53.625
Q42.5781 51.2656 45.4062 46.3906
M14.7969 27.2969
Q14.7969 17.3906 18.875 11.75
Q22.9531 6.10938 30.0781 6.10938
Q37.2031 6.10938 41.2969 11.75
Q45.4062 17.3906 45.4062 27.2969
Q45.4062 37.2031 41.2969 42.8438
Q37.2031 48.4844 30.0781 48.4844
Q22.9531 48.4844 18.875 42.8438
Q14.7969 37.2031 14.7969 27.2969" id="DejaVuSans-64"/>
     <path d="
M8.01562 75.875
L15.8281 75.875
Q23.1406 64.3594 26.7812 53.3125
Q30.4219 42.2812 30.4219 31.3906
Q30.4219 20.4531 26.7812 9.375
Q23.1406 -1.70312 15.8281 -13.1875
L8.01562 -13.1875
Q14.5 -2 17.7031 9.0625
Q20.9062 20.125 20.9062 31.3906
Q20.9062 42.6719 17.7031 53.6562
Q14.5 64.6562 8.01562 75.875" id="DejaVuSans-29"/>
     <path d="
M48.7812 52.5938
L48.7812 44.1875
Q44.9688 46.2969 41.1406 47.3438
Q37.3125 48.3906 33.4062 48.3906
Q24.6562 48.3906 19.8125 42.8438
Q14.9844 37.3125 14.9844 27.2969
Q14.9844 17.2812 19.8125 11.7344
Q24.6562 6.20312 33.4062 6.20312
Q37.3125 6.20312 41.1406 7.25
Q44.9688 8.29688 48.7812 10.4062
L48.7812 2.09375
Q45.0156 0.34375 40.9844 -0.53125
Q36.9688 -1.42188 32.4219 -1.42188
Q20.0625 -1.42188 12.7812 6.34375
Q5.51562 14.1094 5.51562 27.2969
Q5.51562 40.6719 12.8594 48.3281
Q20.2188 56 33.0156 56
Q37.1562 56 41.1094 55.1406
Q45.0625 54.2969 48.7812 52.5938" id="DejaVuSans-63"/>
     <path d="
M34.2812 27.4844
Q23.3906 27.4844 19.1875 25
Q14.9844 22.5156 14.9844 16.5
Q14.9844 11.7188 18.1406 8.90625
Q21.2969 6.10938 26.7031 6.10938
Q34.1875 6.10938 38.7031 11.4062
Q43.2188 16.7031 43.2188 25.4844
L43.2188 27.4844
z

M52.2031 31.2031
L52.2031 0
L43.2188 0
L43.2188 8.29688
Q40.1406 3.32812 35.5469 0.953125
Q30.9531 -1.42188 24.3125 -1.42188
Q15.9219 -1.42188 10.9531 3.29688
Q6 8.01562 6 15.9219
Q6 25.1406 12.1719 29.8281
Q18.3594 34.5156 30.6094 34.5156
L43.2188 34.5156
L43.2188 35.4062
Q43.2188 41.6094 39.1406 45
Q35.0625 48.3906 27.6875 48.3906
Q23 48.3906 18.5469 47.2656
Q14.1094 46.1406 10.0156 43.8906
L10.0156 52.2031
Q14.9375 54.1094 19.5781 55.0469
Q24.2188 56 28.6094 56
Q40.4844 56 46.3438 49.8438
Q52.2031 43.7031 52.2031 31.2031" id="DejaVuSans-61"/>
     <path d="
M19.6719 34.8125
L19.6719 8.10938
L35.5 8.10938
Q43.4531 8.10938 47.2812 11.4062
Q51.125 14.7031 51.125 21.4844
Q51.125 28.3281 47.2812 31.5625
Q43.4531 34.8125 35.5 34.8125
z

M19.6719 64.7969
L19.6719 42.8281
L34.2812 42.8281
Q41.5 42.8281 45.0312 45.5312
Q48.5781 48.25 48.5781 53.8125
Q48.5781 59.3281 45.0312 62.0625
Q41.5 64.7969 34.2812 64.7969
z

M9.8125 72.9062
L35.0156 72.9062
Q46.2969 72.9062 52.3906 68.2188
Q58.5 63.5312 58.5 54.8906
Q58.5 48.1875 55.375 44.2344
Q52.25 40.2812 46.1875 39.3125
Q53.4688 37.75 57.5 32.7812
Q61.5312 27.8281 61.5312 20.4062
Q61.5312 10.6406 54.8906 5.3125
Q48.25 0 35.9844 0
L9.8125 0
z
" id="DejaVuSans-42"/>
     <path d="
M45.4062 27.9844
Q45.4062 37.75 41.375 43.1094
Q37.3594 48.4844 30.0781 48.4844
Q22.8594 48.4844 18.8281 43.1094
Q14.7969 37.75 14.7969 27.9844
Q14.7969 18.2656 18.8281 12.8906
Q22.8594 7.51562 30.0781 7.51562
Q37.3594 7.51562 41.375 12.8906
Q45.4062 18.2656 45.4062 27.9844
M54.3906 6.78125
Q54.3906 -7.17188 48.1875 -13.9844
Q42 -20.7969 29.2031 -20.7969
Q24.4688 -20.7969 20.2656 -20.0938
Q16.0625 -19.3906 12.1094 -17.9219
L12.1094 -9.1875
Q16.0625 -11.3281 19.9219 -12.3438
Q23.7812 -13.375 27.7812 -13.375
Q36.625 -13.375 41.0156 -8.76562
Q45.4062 -4.15625 45.4062 5.17188
L45.4062 9.625
Q42.625 4.78125 38.2812 2.39062
Q33.9375 0 27.875 0
Q17.8281 0 11.6719 7.65625
Q5.51562 15.3281 5.51562 27.9844
Q5.51562 40.6719 11.6719 48.3281
Q17.8281 56 27.875 56
Q33.9375 56 38.2812 53.6094
Q42.625 51.2188 45.4062 46.3906
L45.4062 54.6875
L54.3906 54.6875
z
" id="DejaVuSans-67"/>
     <path d="
M31 75.875
Q24.4688 64.6562 21.2812 53.6562
Q18.1094 42.6719 18.1094 31.3906
Q18.1094 20.125 21.3125 9.0625
Q24.5156 -2 31 -13.1875
L23.1875 -13.1875
Q15.875 -1.70312 12.2344 9.375
Q8.59375 20.4531 8.59375 31.3906
Q8.59375 42.2812 12.2031 53.3125
Q15.8281 64.3594 23.1875 75.875
z
" id="DejaVuSans-28"/>
     <path d="
M11.7188 12.4062
L22.0156 12.4062
L22.0156 4
L14.0156 -11.625
L7.71875 -11.625
L11.7188 4
z
" id="DejaVuSans-2c"/>
     <path d="
M56.2031 29.5938
L56.2031 25.2031
L14.8906 25.2031
Q15.4844 15.9219 20.4844 11.0625
Q25.4844 6.20312 34.4219 6.20312
Q39.5938 6.20312 44.4531 7.46875
Q49.3125 8.73438 54.1094 11.2812
L54.1094 2.78125
Q49.2656 0.734375 44.1875 -0.34375
Q39.1094 -1.42188 33.8906 -1.42188
Q20.7969 -1.42188 13.1562 6.1875
Q5.51562 13.8125 5.51562 26.8125
Q5.51562 40.2344 12.7656 48.1094
Q20.0156 56 32.3281 56
Q43.3594 56 49.7812 48.8906
Q56.2031 41.7969 56.2031 29.5938
M47.2188 32.2344
Q47.125 39.5938 43.0938 43.9844
Q39.0625 48.3906 32.4219 48.3906
Q24.9062 48.3906 20.3906 44.1406
Q15.875 39.8906 15.1875 32.1719
z
" id="DejaVuSans-65"/>
     <path d="
M25.3906 72.9062
L33.6875 72.9062
L8.29688 -9.28125
L0 -9.28125
z
" id="DejaVuSans-2f"/>
     <path d="
M9.8125 72.9062
L19.6719 72.9062
L19.6719 5.07812
Q19.6719 -8.10938 14.6719 -14.0625
Q9.67188 -20.0156 -1.42188 -20.0156
L-5.17188 -20.0156
L-5.17188 -11.7188
L-2.09375 -11.7188
Q4.4375 -11.7188 7.125 -8.04688
Q9.8125 -4.39062 9.8125 5.07812
z
" id="DejaVuSans-4a"/>
     <path d="
M4.89062 31.3906
L31.2031 31.3906
L31.2031 23.3906
L4.89062 23.3906
z
" id="DejaVuSans-2d"/>
     <path d="
M10.6875 12.4062
L21 12.4062
L21 0
L10.6875 0
z
" id="DejaVuSans-2e"/>
     <path d="
M30.6094 48.3906
Q23.3906 48.3906 19.1875 42.75
Q14.9844 37.1094 14.9844 27.2969
Q14.9844 17.4844 19.1562 11.8438
Q23.3438 6.20312 30.6094 6.20312
Q37.7969 6.20312 41.9844 11.8594
Q46.1875 17.5312 46.1875 27.2969
Q46.1875 37.0156 41.9844 42.7031
Q37.7969 48.3906 30.6094 48.3906
M30.6094 56
Q42.3281 56 49.0156 48.375
Q55.7188 40.7656 55.7188 27.2969
Q55.7188 13.875 49.0156 6.21875
Q42.3281 -1.42188 30.6094 -1.42188
Q18.8438 -1.42188 12.1719 6.21875
Q5.51562 13.875 5.51562 27.2969
Q5.51562 40.7656 12.1719 48.375
Q18.8438 56 30.6094 56" id="DejaVuSans-6f"/>
     <path d="
M52 44.1875
Q55.375 50.25 60.0625 53.125
Q64.75 56 71.0938 56
Q79.6406 56 84.2812 50.0156
Q88.9219 44.0469 88.9219 33.0156
L88.9219 0
L79.8906 0
L79.8906 32.7188
Q79.8906 40.5781 77.0938 44.375
Q74.3125 48.1875 68.6094 48.1875
Q61.625 48.1875 57.5625 43.5469
Q53.5156 38.9219 53.5156 30.9062
L53.5156 0
L44.4844 0
L44.4844 32.7188
Q44.4844 40.625 41.7031 44.4062
Q38.9219 48.1875 33.1094 48.1875
Q26.2188 48.1875 22.1562 43.5312
Q18.1094 38.875 18.1094 30.9062
L18.1094 0
L9.07812 0
L9.07812 54.6875
L18.1094 54.6875
L18.1094 46.1875
Q21.1875 51.2188 25.4844 53.6094
Q29.7812 56 35.6875 56
Q41.6562 56 45.8281 52.9688
Q50 49.9531 52 44.1875" id="DejaVuSans-6d"/>
     <path d="
M54.8906 33.0156
L54.8906 0
L45.9062 0
L45.9062 32.7188
Q45.9062 40.4844 42.875 44.3281
Q39.8438 48.1875 33.7969 48.1875
Q26.5156 48.1875 22.3125 43.5469
Q18.1094 38.9219 18.1094 30.9062
L18.1094 0
L9.07812 0
L9.07812 54.6875
L18.1094 54.6875
L18.1094 46.1875
Q21.3438 51.125 25.7031 53.5625
Q30.0781 56 35.7969 56
Q45.2188 56 50.0469 50.1719
Q54.8906 44.3438 54.8906 33.0156" id="DejaVuSans-6e"/>
     <path d="
M9.42188 75.9844
L18.4062 75.9844
L18.4062 0
L9.42188 0
z
" id="DejaVuSans-6c"/>
     <path d="
M10.7969 72.9062
L49.5156 72.9062
L49.5156 64.5938
L19.8281 64.5938
L19.8281 46.7344
Q21.9688 47.4688 24.1094 47.8281
Q26.2656 48.1875 28.4219 48.1875
Q40.625 48.1875 47.75 41.5
Q54.8906 34.8125 54.8906 23.3906
Q54.8906 11.625 47.5625 5.09375
Q40.2344 -1.42188 26.9062 -1.42188
Q22.3125 -1.42188 17.5469 -0.640625
Q12.7969 0.140625 7.71875 1.70312
L7.71875 11.625
Q12.1094 9.23438 16.7969 8.0625
Q21.4844 6.89062 26.7031 6.89062
Q35.1562 6.89062 40.0781 11.3281
Q45.0156 15.7656 45.0156 23.3906
Q45.0156 31 40.0781 35.4375
Q35.1562 39.8906 26.7031 39.8906
Q22.75 39.8906 18.8125 39.0156
Q14.8906 38.1406 10.7969 36.2812
z
" id="DejaVuSans-35"/>
     <path d="
M8.5 21.5781
L8.5 54.6875
L17.4844 54.6875
L17.4844 21.9219
Q17.4844 14.1562 20.5 10.2656
Q23.5312 6.39062 29.5938 6.39062
Q36.8594 6.39062 41.0781 11.0312
Q45.3125 15.6719 45.3125 23.6875
L45.3125 54.6875
L54.2969 54.6875
L54.2969 0
L45.3125 0
L45.3125 8.40625
Q42.0469 3.42188 37.7188 1
Q33.4062 -1.42188 27.6875 -1.42188
Q18.2656 -1.42188 13.375 4.4375
Q8.5 10.2969 8.5 21.5781
M31.1094 56
z
" id="DejaVuSans-75"/>
     <path d="
M18.3125 70.2188
L18.3125 54.6875
L36.8125 54.6875
L36.8125 47.7031
L18.3125 47.7031
L18.3125 18.0156
Q18.3125 11.3281 20.1406 9.42188
Q21.9688 7.51562 27.5938 7.51562
L36.8125 7.51562
L36.8125 0
L27.5938 0
Q17.1875 0 13.2344 3.875
Q9.28125 7.76562 9.28125 18.0156
L9.28125 47.7031
L2.6875 47.7031
L2.6875 54.6875
L9.28125 54.6875
L9.28125 70.2188
z
" id="DejaVuSans-74"/>
     <path d="
M4.20312 54.6875
L13.1875 54.6875
L24.4219 12.0156
L35.5938 54.6875
L46.1875 54.6875
L57.4219 12.0156
L68.6094 54.6875
L77.5938 54.6875
L63.2812 0
L52.6875 0
L40.9219 44.8281
L29.1094 0
L18.5 0
z
" id="DejaVuSans-77"/>
     <path d="
M2.98438 54.6875
L12.5 54.6875
L29.5938 8.79688
L46.6875 54.6875
L56.2031 54.6875
L35.6875 0
L23.4844 0
z
" id="DejaVuSans-76"/>
     <path d="
M3.32812 72.9062
L13.2812 72.9062
L28.6094 11.2812
L43.8906 72.9062
L54.9844 72.9062
L70.3125 11.2812
L85.5938 72.9062
L95.6094 72.9062
L77.2969 0
L64.8906 0
L49.5156 63.2812
L33.9844 0
L21.5781 0
z
" id="DejaVuSans-57"/>
     <path d="
M44.2812 53.0781
L44.2812 44.5781
Q40.4844 46.5312 36.375 47.5
Q32.2812 48.4844 27.875 48.4844
Q21.1875 48.4844 17.8438 46.4375
Q14.5 44.3906 14.5 40.2812
Q14.5 37.1562 16.8906 35.375
Q19.2812 33.5938 26.5156 31.9844
L29.5938 31.2969
Q39.1562 29.25 43.1875 25.5156
Q47.2188 21.7812 47.2188 15.0938
Q47.2188 7.46875 41.1875 3.01562
Q35.1562 -1.42188 24.6094 -1.42188
Q20.2188 -1.42188 15.4531 -0.5625
Q10.6875 0.296875 5.42188 2
L5.42188 11.2812
Q10.4062 8.6875 15.2344 7.39062
Q20.0625 6.10938 24.8125 6.10938
Q31.1562 6.10938 34.5625 8.28125
Q37.9844 10.4531 37.9844 14.4062
Q37.9844 18.0625 35.5156 20.0156
Q33.0625 21.9688 24.7031 23.7812
L21.5781 24.5156
Q13.2344 26.2656 9.51562 29.9062
Q5.8125 33.5469 5.8125 39.8906
Q5.8125 47.6094 11.2812 51.7969
Q16.75 56 26.8125 56
Q31.7812 56 36.1719 55.2656
Q40.5781 54.5469 44.2812 53.0781" id="DejaVuSans-73"/>
     <path d="
M41.1094 46.2969
Q39.5938 47.1719 37.8125 47.5781
Q36.0312 48 33.8906 48
Q26.2656 48 22.1875 43.0469
Q18.1094 38.0938 18.1094 28.8125
L18.1094 0
L9.07812 0
L9.07812 54.6875
L18.1094 54.6875
L18.1094 46.1875
Q20.9531 51.1719 25.4844 53.5781
Q30.0312 56 36.5312 56
Q37.4531 56 38.5781 55.875
Q39.7031 55.7656 41.0625 55.5156
z
" id="DejaVuSans-72"/>
    </defs>
    <g transform="translate(-76.080375 -5.9351)scale(0.144 -0.144)">
     <use xlink:href="#DejaVuSans-6d"/>
     <use x="97.412109375" xlink:href="#DejaVuSans-6f"/>
     <use x="158.59375" xlink:href="#DejaVuSans-64"/>
     <use x="222.0703125" xlink:href="#DejaVuSans-65"/>
     <use x="283.59375" xlink:href="#DejaVuSans-6c"/>
     <use x="311.376953125" xlink:href="#DejaVuSans-3a"/>
     <use x="345.068359375" xlink:href="#DejaVuSans-20"/>
     <use x="376.85546875" xlink:href="#DejaVuSans-28"/>
     <use x="415.869140625" xlink:href="#DejaVuSans-31"/>
     <use x="479.4921875" xlink:href="#DejaVuSans-30"/>
     <use x="543.115234375" xlink:href="#DejaVuSans-2c"/>
     <use x="574.90234375" xlink:href="#DejaVuSans-20"/>
     <use x="606.689453125" xlink:href="#DejaVuSans-31"/>
     <use x="670.3125" xlink:href="#DejaVuSans-30"/>
     <use x="733.935546875" xlink:href="#DejaVuSans-29"/>
     <use x="772.94921875" xlink:href="#DejaVuSans-20"/>
     <use x="804.736328125" xlink:href="#DejaVuSans-2d"/>
     <use x="840.8203125" xlink:href="#DejaVuSans-20"/>
     <use x="872.607421875" xlink:href="#DejaVuSans-2e"/>
     <use x="904.39453125" xlink:href="#DejaVuSans-2e"/>
     <use x="936.181640625" xlink:href="#DejaVuSans-2f"/>
     <use x="969.873046875" xlink:href="#DejaVuSans-64"/>
     <use x="1033.34960938" xlink:href="#DejaVuSans-61"/>
     <use x="1094.62890625" xlink:href="#DejaVuSans-74"/>
     <use x="1133.83789062" xlink:href="#DejaVuSans-61"/>
     <use x="1195.1171875" xlink:href="#DejaVuSans-2f"/>
     <use x="1228.80859375" xlink:href="#DejaVuSans-63"/>
     <use x="1283.7890625" xlink:href="#DejaVuSans-73"/>
     <use x="1335.88867188" xlink:href="#DejaVuSans-76"/>
     <use x="1395.06835938" xlink:href="#DejaVuSans-2f"/>
     <use x="1428.75976562" xlink:href="#DejaVuSans-31"/>
     <use x="1492.3828125" xlink:href="#DejaVuSans-39"/>
     <use x="1556.00585938" xlink:href="#DejaVuSans-2d"/>
     <use x="1592.08984375" xlink:href="#DejaVuSans-30"/>
     <use x="1655.71289062" xlink:href="#DejaVuSans-35"/>
     <use x="1719.3359375" xlink:href="#DejaVuSans-2f"/>
     <use x="1753.02734375" xlink:href="#DejaVuSans-77"/>
     <use x="1834.81445312" xlink:href="#DejaVuSans-68"/>
     <use x="1898.19335938" xlink:href="#DejaVuSans-6f"/>
     <use x="1959.375" xlink:href="#DejaVuSans-6c"/>
     <use x="1987.15820312" xlink:href="#DejaVuSans-65"/>
     <use x="2048.68164062" xlink:href="#DejaVuSans-73"/>
     <use x="2100.78125" xlink:href="#DejaVuSans-61"/>
     <use x="2162.06054688" xlink:href="#DejaVuSans-6c"/>
     <use x="2189.84375" xlink:href="#DejaVuSans-65"/>
     <use x="2251.3671875" xlink:href="#DejaVuSans-2d"/>
     <use x="2287.45117188" xlink:href="#DejaVuSans-64"/>
     <use x="2350.92773438" xlink:href="#DejaVuSans-61"/>
     <use x="2412.20703125" xlink:href="#DejaVuSans-69"/>
     <use x="2439.99023438" xlink:href="#DejaVuSans-6c"/>
     <use x="2467.7734375" xlink:href="#DejaVuSans-79"/>
     <use x="2525.203125" xlink:href="#DejaVuSans-2d"/>
     <use x="2561.28710938" xlink:href="#DejaVuSans-28"/>
     <use x="2600.30078125" xlink:href="#DejaVuSans-27"/>
     <use x="2627.79101562" xlink:href="#DejaVuSans-57"/>
     <use x="2720.79296875" xlink:href="#DejaVuSans-65"/>
     <use x="2782.31640625" xlink:href="#DejaVuSans-73"/>
     <use x="2834.41601562" xlink:href="#DejaVuSans-74"/>
     <use x="2873.625" xlink:href="#DejaVuSans-20"/>
     <use x="2905.41210938" xlink:href="#DejaVuSans-42"/>
     <use x="2974.015625" xlink:href="#DejaVuSans-65"/>
     <use x="3035.5390625" xlink:href="#DejaVuSans-6e"/>
     <use x="3098.91796875" xlink:href="#DejaVuSans-67"/>
     <use x="3162.39453125" xlink:href="#DejaVuSans-61"/>
     <use x="3223.67382812" xlink:href="#DejaVuSans-6c"/>
     <use x="3251.45703125" xlink:href="#DejaVuSans-27"/>
     <use x="3278.94726562" xlink:href="#DejaVuSans-2c"/>
     <use x="3310.734375" xlink:href="#DejaVuSans-20"/>
     <use x="3342.52148438" xlink:href="#DejaVuSans-27"/>
     <use x="3370.01171875" xlink:href="#DejaVuSans-42"/>
     <use x="3438.61523438" xlink:href="#DejaVuSans-75"/>
     <use x="3501.99414062" xlink:href="#DejaVuSans-72"/>
     <use x="3541.35742188" xlink:href="#DejaVuSans-64"/>
     <use x="3604.83398438" xlink:href="#DejaVuSans-77"/>
     <use x="3686.62109375" xlink:href="#DejaVuSans-61"/>
     <use x="3747.90039062" xlink:href="#DejaVuSans-6e"/>
     <use x="3811.27929688" xlink:href="#DejaVuSans-27"/>
     <use x="3838.76953125" xlink:href="#DejaVuSans-2c"/>
     <use x="3870.55664062" xlink:href="#DejaVuSans-20"/>
     <use x="3902.34375" xlink:href="#DejaVuSans-27"/>
     <use x="3929.83398438" xlink:href="#DejaVuSans-50"/>
     <use x="3986.51171875" xlink:href="#DejaVuSans-6f"/>
     <use x="4047.69335938" xlink:href="#DejaVuSans-74"/>
     <use x="4086.90234375" xlink:href="#DejaVuSans-61"/>
     <use x="4148.18164062" xlink:href="#DejaVuSans-74"/>
     <use x="4187.390625" xlink:href="#DejaVuSans-6f"/>
     <use x="4248.57226562" xlink:href="#DejaVuSans-27"/>
     <use x="4276.0625" xlink:href="#DejaVuSans-2c"/>
     <use x="4307.84960938" xlink:href="#DejaVuSans-20"/>
     <use x="4339.63671875" xlink:href="#DejaVuSans-27"/>
     <use x="4367.12695312" xlink:href="#DejaVuSans-4a"/>
     <use x="4396.61914062" xlink:href="#DejaVuSans-79"/>
     <use x="4455.79882812" xlink:href="#DejaVuSans-6f"/>
     <use x="4516.98046875" xlink:href="#DejaVuSans-74"/>
     <use x="4556.18945312" xlink:href="#DejaVuSans-69"/>
     <use x="4583.97265625" xlink:href="#DejaVuSans-27"/>
     <use x="4611.46289062" xlink:href="#DejaVuSans-2c"/>
     <use x="4643.25" xlink:href="#DejaVuSans-20"/>
     <use x="4675.03710938" xlink:href="#DejaVuSans-30"/>
     <use x="4738.66015625" xlink:href="#DejaVuSans-2e"/>
     <use x="4770.44726562" xlink:href="#DejaVuSans-38"/>
     <use x="4834.0703125" xlink:href="#DejaVuSans-39"/>
     <use x="4897.69335938" xlink:href="#DejaVuSans-29"/>
     <use x="4936.70703125" xlink:href="#DejaVuSans-2e"/>
     <use x="4968.49414062" xlink:href="#DejaVuSans-63"/>
     <use x="5023.47460938" xlink:href="#DejaVuSans-73"/>
     <use x="5075.57421875" xlink:href="#DejaVuSans-76"/>
     <use x="5134.75390625" xlink:href="#DejaVuSans-2c"/>
     <use x="5166.54101562" xlink:href="#DejaVuSans-20"/>
    </g>
    <!-- epoch: 291 -->
    <defs>
     <path d="
M18.1094 8.20312
L18.1094 -20.7969
L9.07812 -20.7969
L9.07812 54.6875
L18.1094 54.6875
L18.1094 46.3906
Q20.9531 51.2656 25.2656 53.625
Q29.5938 56 35.5938 56
Q45.5625 56 51.7812 48.0938
Q58.0156 40.1875 58.0156 27.2969
Q58.0156 14.4062 51.7812 6.48438
Q45.5625 -1.42188 35.5938 -1.42188
Q29.5938 -1.42188 25.2656 0.953125
Q20.9531 3.32812 18.1094 8.20312
M48.6875 27.2969
Q48.6875 37.2031 44.6094 42.8438
Q40.5312 48.4844 33.4062 48.4844
Q26.2656 48.4844 22.1875 42.8438
Q18.1094 37.2031 18.1094 27.2969
Q18.1094 17.3906 22.1875 11.75
Q26.2656 6.10938 33.4062 6.10938
Q40.5312 6.10938 44.6094 11.75
Q48.6875 17.3906 48.6875 27.2969" id="DejaVuSans-70"/>
    </defs>
    <g transform="translate(255.479625 10.7887)scale(0.144 -0.144)">
     <use xlink:href="#DejaVuSans-65"/>
     <use x="61.5234375" xlink:href="#DejaVuSans-70"/>
     <use x="125.0" xlink:href="#DejaVuSans-6f"/>
     <use x="186.181640625" xlink:href="#DejaVuSans-63"/>
     <use x="241.162109375" xlink:href="#DejaVuSans-68"/>
     <use x="304.541015625" xlink:href="#DejaVuSans-3a"/>
     <use x="338.232421875" xlink:href="#DejaVuSans-20"/>
     <use x="370.01953125" xlink:href="#DejaVuSans-32"/>
     <use x="433.642578125" xlink:href="#DejaVuSans-39"/>
     <use x="497.265625" xlink:href="#DejaVuSans-31"/>
    </g>
    <!-- test err: 0.0161 -->
    <g transform="translate(239.745375 27.5125)scale(0.144 -0.144)">
     <use xlink:href="#DejaVuSans-74"/>
     <use x="39.208984375" xlink:href="#DejaVuSans-65"/>
     <use x="100.732421875" xlink:href="#DejaVuSans-73"/>
     <use x="152.83203125" xlink:href="#DejaVuSans-74"/>
     <use x="192.041015625" xlink:href="#DejaVuSans-20"/>
     <use x="223.828125" xlink:href="#DejaVuSans-65"/>
     <use x="285.3515625" xlink:href="#DejaVuSans-72"/>
     <use x="324.71484375" xlink:href="#DejaVuSans-72"/>
     <use x="364.078125" xlink:href="#DejaVuSans-3a"/>
     <use x="397.76953125" xlink:href="#DejaVuSans-20"/>
     <use x="429.556640625" xlink:href="#DejaVuSans-30"/>
     <use x="493.1796875" xlink:href="#DejaVuSans-2e"/>
     <use x="524.966796875" xlink:href="#DejaVuSans-30"/>
     <use x="588.58984375" xlink:href="#DejaVuSans-31"/>
     <use x="652.212890625" xlink:href="#DejaVuSans-36"/>
     <use x="715.8359375" xlink:href="#DejaVuSans-31"/>
    </g>
   </g>
   <g id="legend_1">
    <g id="patch_7">
     <path d="
M79.2 115.339
L162.947 115.339
L162.947 50.4
L79.2 50.4
L79.2 115.339
z
" style="fill:#ffffff;stroke:#000000;"/>
    </g>
    <g id="line2d_61">
     <path d="
M89.28 62.0617
L109.44 62.0617" style="fill:none;stroke:#008000;"/>
    </g>
    <g id="line2d_62"/>
    <g id="text_21">
     <!-- pred -->
     <g transform="translate(125.28 67.10175)scale(0.144 -0.144)">
      <use xlink:href="#DejaVuSans-70"/>
      <use x="63.4765625" xlink:href="#DejaVuSans-72"/>
      <use x="102.33984375" xlink:href="#DejaVuSans-65"/>
      <use x="163.86328125" xlink:href="#DejaVuSans-64"/>
     </g>
    </g>
    <g id="line2d_63">
     <path d="
M89.28 83.1983
L109.44 83.1983" style="fill:none;stroke:#0000ff;"/>
    </g>
    <g id="line2d_64"/>
    <g id="text_22">
     <!-- train -->
     <g transform="translate(125.28 88.23825)scale(0.144 -0.144)">
      <use xlink:href="#DejaVuSans-74"/>
      <use x="39.208984375" xlink:href="#DejaVuSans-72"/>
      <use x="80.322265625" xlink:href="#DejaVuSans-61"/>
      <use x="141.6015625" xlink:href="#DejaVuSans-69"/>
      <use x="169.384765625" xlink:href="#DejaVuSans-6e"/>
     </g>
    </g>
    <g id="line2d_65">
     <path d="
M89.28 104.335
L109.44 104.335" style="fill:none;stroke:#ff0000;"/>
    </g>
    <g id="line2d_66"/>
    <g id="text_23">
     <!-- test -->
     <g transform="translate(125.28 109.37475)scale(0.144 -0.144)">
      <use xlink:href="#DejaVuSans-74"/>
      <use x="39.208984375" xlink:href="#DejaVuSans-65"/>
      <use x="100.732421875" xlink:href="#DejaVuSans-73"/>
      <use x="152.83203125" xlink:href="#DejaVuSans-74"/>
     </g>
    </g>
   </g>
  </g>
 </g>
 <defs>
  <clipPath id="p7ff5b81e1d">
   <rect height="345.6" width="446.4" x="72.0" y="43.2"/>
  </clipPath>
 </defs>
</svg>
