<?xml version="1.0" encoding="utf-8" standalone="no"?>
<!DOCTYPE svg PUBLIC "-//W3C//DTD SVG 1.1//EN"
  "http://www.w3.org/Graphics/SVG/1.1/DTD/svg11.dtd">
<!-- Created with matplotlib (http://matplotlib.org/) -->
<svg height="432pt" version="1.1" viewBox="0 0 576 432" width="576pt" xmlns="http://www.w3.org/2000/svg" xmlns:xlink="http://www.w3.org/1999/xlink">
 <defs>
  <style type="text/css">
*{stroke-linecap:square;stroke-linejoin:round;}
  </style>
 </defs>
 <g id="figure_1">
  <g id="patch_1">
   <path d="
M0 432
L576 432
L576 0
L0 0
z
" style="fill:#ffffff;"/>
  </g>
  <g id="axes_1">
   <g id="patch_2">
    <path d="
M72 388.8
L518.4 388.8
L518.4 43.2
L72 43.2
z
" style="fill:#ffffff;"/>
   </g>
   <g id="line2d_1">
    <path clip-path="url(#p7ff5b81e1d)" d="
M72 283.548
L72.5444 282.533
L73.0888 283.99
L73.7693 281.961
L74.1776 281.374
L74.722 282.342
L75.4024 281.252
L75.9468 280.047
L76.4912 279.588
L77.0356 279.482
L77.58 279.512
L77.9883 279.311
L78.6688 278.338
L79.0771 278.051
L79.6215 278.282
L80.1659 277.816
L80.7102 278.479
L81.2546 277.933
L81.799 278.473
L82.3434 277.892
L82.8878 278.29
L83.4322 277.96
L84.3849 275.648
L84.6571 275.336
L85.2015 275.153
L85.6098 274.861
L86.2902 276.317
L86.6985 276.58
L87.2429 275.963
L87.9234 279.244
L88.3317 279.812
L88.8761 278.869
L89.4205 279.24
L89.9649 278.796
L90.5093 279.025
L91.0537 278.165
L91.598 278.211
L92.2785 276.02
L93.2312 274.959
L93.7756 275.925
L94.7283 275.878
L94.8644 275.89
L95.4088 274.842
L95.9532 275.134
L96.4976 270.411
L97.042 270.983
L98.1307 269.934
L98.6751 270.209
L99.2195 269.944
L100.308 270.861
L101.125 270.429
L101.397 270.226
L101.941 270.798
L102.486 270.292
L103.03 270.622
L103.575 269.893
L104.119 270.54
L104.663 268.891
L105.208 269.175
L105.752 268.627
L106.433 268.997
L106.977 268.954
L107.385 269.087
L107.93 268.217
L108.474 269.248
L109.019 276.269
L109.835 276.647
L110.107 276.706
L110.652 277.624
L111.196 277.048
L112.013 277.577
L112.285 277.673
L112.829 276.505
L113.646 277.145
L113.918 277.284
L114.599 275.808
L115.687 274.572
L116.64 274.961
L117.184 269.892
L118.409 269.413
L119.362 269.851
L120.042 269.355
L120.995 269.46
L121.54 272.541
L122.22 272.424
L122.764 272.507
L123.309 272.412
L123.853 272.52
L124.67 272.265
L124.806 272.208
L125.35 270.81
L126.167 271.054
L126.439 271.202
L127.12 270.853
L128.48 270.912
L128.617 270.867
L129.569 271.684
L129.705 271.777
L130.386 271.185
L130.794 271.098
L131.883 269.347
L132.427 268.559
L133.516 270.381
L134.06 269.977
L134.605 270.482
L135.285 269.829
L135.694 269.237
L136.238 278.518
L136.782 270.403
L137.327 280.863
L137.871 280.849
L138.552 270.223
L138.96 266.32
L139.504 270.971
L140.049 267.937
L140.593 276.695
L141.41 267.82
L141.682 265.602
L142.226 265.263
L142.907 265.728
L143.451 265.74
L143.86 265.497
L144.54 265.891
L144.948 265.904
L145.765 264.897
L146.718 263.64
L147.398 262.878
L147.67 262.654
L148.351 260.919
L148.759 260.334
L149.303 260.827
L149.848 260.179
L150.392 268.262
L150.937 268.399
L151.617 267.448
L152.025 267.276
L152.57 267.547
L153.114 266.312
L153.659 267.314
L154.203 264.237
L154.747 264.264
L155.292 263.759
L155.972 262.198
L156.38 261.655
L157.469 262.062
L158.014 263.918
L158.558 259.242
L159.239 261.879
L159.783 262.785
L160.327 263.058
L160.736 263.026
L161.28 262.392
L161.824 262.593
L162.777 259.308
L163.594 255.911
L164.138 251.981
L164.546 250.83
L165.091 252.029
L165.635 251.278
L166.18 251.524
L166.724 254.844
L168.493 249.779
L168.901 249.42
L169.446 247.636
L169.99 247.659
L170.535 248.274
L171.079 246.852
L171.623 247.23
L172.44 246.919
L172.712 246.878
L173.257 247.301
L174.345 245.516
L174.89 252.036
L175.706 252.057
L175.979 251.989
L177.067 250.722
L177.612 250.484
L178.156 251.132
L178.7 250.654
L179.245 251.499
L180.742 249.982
L180.878 249.773
L181.422 249.971
L181.967 248.95
L182.511 249.582
L183.056 251.727
L183.872 250.721
L184.144 250.501
L184.689 251.52
L185.369 250.972
L185.778 250.934
L186.458 250.049
L186.866 249.931
L187.411 244.534
L188.5 244.311
L189.044 244.732
L189.724 244.243
L190.133 243.663
L190.677 243.737
L191.221 242.185
L191.766 242.42
L192.446 241.232
L193.399 241.014
L193.943 240.063
L194.76 236.815
L195.032 236.05
L195.713 238.771
L196.121 239.395
L196.801 238.675
L197.618 237.266
L198.162 236.423
L198.843 235.473
L199.387 235.898
L199.932 229.931
L200.476 229.711
L201.157 229.964
L201.837 229.822
L202.109 229.703
L203.742 226.581
L203.879 226.705
L204.831 227.474
L205.784 227.342
L205.92 227.305
L206.464 227.744
L207.009 227.387
L208.098 229.954
L208.914 228.942
L209.322 228.678
L209.731 228.631
L210.82 232.538
L211.636 233.406
L211.908 233.783
L212.453 237.588
L213.133 238.08
L213.678 239.002
L214.63 241.061
L215.175 242.01
L215.719 240.127
L216.4 230.931
L217.08 226.707
L217.352 225.48
L218.577 228.516
L219.258 230.602
L219.53 231.236
L220.074 227.063
L220.619 230.653
L221.163 229.986
L221.707 228.186
L222.252 229.087
L222.932 228.193
L223.34 228.06
L223.885 226.592
L224.429 221.084
L224.974 220.421
L226.199 213.027
L226.743 208.044
L227.287 206.098
L227.832 205.465
L228.24 205.408
L228.784 209.062
L229.465 207.53
L230.009 207.246
L230.554 207.257
L230.962 207.398
L231.642 205.039
L232.051 203.092
L232.595 203.128
L233.14 200.914
L233.956 200.964
L234.228 200.93
L235.045 199.457
L235.317 199.132
L235.861 196.058
L236.406 196.055
L237.495 189.019
L238.039 188.333
L238.72 186.233
L239.672 184.489
L240.217 181.921
L240.761 181.755
L241.305 184.556
L242.394 182.475
L242.939 182.616
L243.483 183.49
L244.3 182.246
L244.844 181.827
L245.116 181.685
L245.66 187.514
L246.205 185.817
L246.749 187.455
L247.702 186.497
L248.11 186.157
L248.519 185.989
L248.927 186.024
L249.471 186.785
L250.016 185.69
L250.56 188.722
L251.649 187.961
L253.282 192.369
L253.962 184.876
L254.915 180.316
L255.46 177.897
L256.14 182.07
L257.093 189.984
L257.909 193.617
L258.181 195.077
L258.998 191.695
L259.679 188.766
L259.951 188.121
L260.359 187.717
L260.903 185.984
L261.448 186.28
L261.992 196.664
L263.489 197.156
L263.625 197.178
L264.714 195.818
L265.259 196.515
L265.803 198.718
L266.347 197.402
L266.892 197.671
L267.436 193.147
L267.98 207.73
L268.797 182.88
L269.205 172.757
L269.614 159.436
L270.294 196.027
L270.702 202.363
L271.247 167.616
L271.791 194.661
L272.336 195.989
L272.88 193.797
L273.424 194.425
L273.969 196
L274.649 187.914
L275.058 186.073
L275.738 188.304
L276.146 188.683
L276.691 186.364
L277.643 187.7
L277.78 187.916
L278.596 186.54
L279.004 185.944
L279.413 185.165
L279.957 185.255
L280.501 183.539
L281.046 183.571
L281.59 182.852
L282.135 183.558
L282.679 176.646
L283.223 175.595
L283.904 175.607
L284.584 175.742
L285.401 175.604
L285.945 174.538
L286.626 174.812
L287.17 174.781
L287.579 174.995
L288.123 172.553
L288.667 172.52
L289.348 170.918
L289.756 170.693
L290.3 167.848
L290.845 172.813
L291.389 173.21
L291.934 174.266
L292.614 172.097
L293.159 171.349
L293.567 171.147
L294.656 166.784
L295.336 168.496
L295.744 168.678
L296.289 169.71
L296.969 166.98
L297.378 164.658
L297.922 164.529
L298.602 166.04
L299.011 166.219
L299.555 164.692
L300.1 166.048
L301.324 162.619
L302.005 161.685
L302.277 161.42
L302.958 163.126
L303.366 163.403
L303.91 162.429
L304.455 162.978
L304.999 162.629
L305.543 163.136
L306.088 162.576
L307.177 163.587
L307.857 165.523
L308.401 165.958
L308.946 166.496
L309.49 166.428
L309.899 166.2
L310.443 166.575
L310.987 166.13
L311.532 160.573
L312.076 160.357
L312.62 160.92
L313.845 159.522
L314.254 159.27
L314.934 160.654
L315.342 161.07
L315.887 166.384
L316.703 164.991
L317.112 164.362
L317.52 164.252
L318.337 162.79
L319.017 161.479
L319.153 161.246
L319.698 161.203
L320.242 155.507
L321.059 158.118
L321.331 158.721
L321.875 157.549
L322.692 154.277
L322.964 153.501
L323.508 153.91
L324.189 159.833
L324.733 161.574
L325.141 162.227
L325.958 159.138
L326.23 157.915
L326.775 157.574
L327.319 158.259
L327.863 159.879
L328.544 159.953
L328.952 159.781
L330.177 157.868
L330.721 157.232
L331.13 157.071
L331.674 158.466
L332.355 157.464
L332.899 156.396
L334.396 155.519
L335.213 157.664
L335.485 158.54
L336.165 157.785
L336.71 156.773
L337.935 153.398
L338.207 152.412
L339.16 154.948
L339.432 155.588
L339.84 156.263
L340.384 155.715
L342.018 151.386
L342.562 153.992
L343.787 149.593
L345.012 149.578
L345.284 149.428
L345.828 147.943
L346.373 151.567
L346.917 149.224
L347.461 150.159
L348.006 148.977
L348.55 150.062
L349.231 152.684
L349.639 153.076
L350.183 154.528
L351.136 154.168
L351.272 154.14
L351.817 152.805
L352.361 152.989
L352.905 149.038
L353.586 148.66
L353.994 148.74
L354.539 149.862
L355.083 149.52
L355.763 147.215
L356.172 146.691
L356.716 147.824
L357.397 147.847
L357.941 148.196
L358.349 148.64
L358.894 150.681
L360.119 146.799
L360.527 146.743
L361.071 148.055
L361.616 147.144
L362.16 145.336
L362.704 145.572
L363.385 144.985
L363.793 144.872
L364.338 144.009
L364.882 144.203
L365.426 146.216
L365.971 145.5
L366.515 145.723
L368.693 156.253
L369.237 161.061
L369.918 155.552
L370.326 154.8
L370.87 155.22
L371.415 158.125
L371.959 158.493
L372.503 160.408
L373.048 158.407
L373.592 163.71
L374.137 163.051
L374.681 164.582
L375.77 160.215
L376.314 161.439
L376.859 159.703
L377.403 160.689
L377.947 157.2
L378.764 156.584
L379.172 156.255
L379.58 156.118
L380.261 156.508
L380.669 156.442
L381.214 155.793
L381.758 160.062
L383.255 158.887
L383.391 158.765
L384.072 158.991
L385.297 159.056
L385.569 159.114
L386.113 160.826
L386.658 159.16
L387.202 160.728
L387.882 158.856
L388.427 158.078
L388.835 157.736
L389.38 158.387
L389.924 155.99
L390.468 147.549
L391.013 148.439
L391.557 147.881
L392.101 145.763
L392.646 147.71
L393.19 147.715
L393.735 146.658
L394.279 143.963
L394.823 143.834
L395.368 144.32
L396.048 143.405
L396.457 142.54
L397.001 143.048
L397.545 142.14
L398.09 143.002
L398.634 145.892
L399.179 145.727
L399.859 144.794
L400.267 144.578
L400.948 145.197
L401.356 145.225
L401.9 146.419
L402.445 146.236
L402.989 142.05
L403.806 142.608
L404.078 142.723
L404.622 141.969
L405.167 143.226
L405.711 143.236
L406.8 144.922
L407.344 144.569
L407.889 145.635
L408.433 145.581
L409.114 147.46
L409.522 147.791
L410.066 146.844
L411.563 156.687
L411.7 157.321
L412.244 152.824
L412.788 155.255
L413.333 154.761
L414.421 156.648
L414.966 152.201
L415.51 153.649
L416.327 151.418
L416.599 150.893
L417.143 152.065
L417.688 151.943
L418.232 150.726
L418.777 145.324
L419.321 152.148
L419.865 151.889
L420.546 149.749
L420.954 149.034
L421.499 151.555
L422.043 150.327
L422.723 151.268
L423.132 151.496
L423.676 148.554
L424.22 148.292
L425.037 149.121
L425.445 149.29
L425.854 149.302
L426.534 150.735
L426.942 150.878
L427.487 149.272
L428.031 150.784
L428.576 148.553
L429.256 151.058
L429.664 151.582
L430.345 149.259
L430.753 148.831
L431.298 146.635
L431.978 141.272
L432.386 140.168
L433.203 142.594
L433.475 143.204
L434.156 140.309
L434.7 139.371
L435.244 139.292
L435.653 139.419
L436.197 136.265
L436.741 136.489
L437.286 137.713
L437.83 131.836
L438.375 130.79
L438.919 127.55
L439.463 131.116
L440.008 129.119
L440.552 130.691
L441.233 125.76
L441.641 125.099
L442.185 119.493
L442.73 122.126
L443.274 120.812
L443.819 123.169
L444.499 119.636
L444.907 118.93
L445.724 115.6
L446.677 112.784
L447.085 112.75
L447.629 111.297
L448.174 112.57
L449.943 109.966
L450.351 109.937
L451.032 109.07
L451.44 108.811
L451.984 110.636
L452.529 109.751
L453.481 111.027
L453.618 111.176
L454.162 110.827
L454.706 113.233
L455.251 113.174
L455.795 116.189
L456.34 114.036
L456.884 116.531
L457.428 113.448
L457.973 116.625
L458.517 116.072
L459.061 120.374
L459.606 116.447
L460.15 121.454
L460.695 117.709
L461.239 122.357
L461.783 120.867
L462.328 121.627
L462.872 124.353
L463.417 121.736
L463.961 126.284
L464.505 122.74
L465.05 126.522
L465.866 124.091
L466.139 123.503
L466.683 125.53
L467.636 122.513
L467.908 121.334
L468.316 119.249
L468.86 118.856
L469.405 119.188
L469.949 118.758
L470.494 117.443
L471.038 117.67
L471.582 113.851
L472.127 114.58
L472.671 112.132
L473.216 112.374
L473.76 111.667
L474.304 109.772
L474.849 111.275
L475.393 107.047
L475.938 108.298
L476.482 108.024
L477.026 109.289
L477.843 106.737
L478.523 105.464
L478.796 105.226
L479.204 105.166
L479.748 102.81
L480.293 103.28
L480.837 100.379
L481.381 100.27
L481.926 97.7299
L482.606 99.692
L483.015 100.381
L483.559 96.1495
L484.103 96.6008
L484.648 93.1984
L485.192 95.7928
L485.737 94.2777
L486.281 94.2459
L486.825 95.2803
L487.37 92.222
L487.914 93.3076
L488.459 92.1124
L489.003 92.9014
L489.683 94.8958
L490.228 95.1734
L490.636 95.1324
L491.317 92.3311
L491.725 91.3296
L492.269 88.4263
L492.814 90.4881
L493.766 87.1528
L494.447 84.4632
L494.991 84.657
L495.536 79.9621
L496.08 79.9146
L496.624 81.0649
L497.169 80.6519
L497.713 82.4099
L498.258 81.1469
L498.802 82.1961
L499.891 80.6605
L500.98 77.5431
L501.524 79.5075
L502.068 74.4526
L502.613 77.5146
L503.157 75.3821
L503.701 76.1478
L504.246 73.8996
L504.79 75.3506
L505.471 79.1122
L505.879 80.4401
L506.423 85.0989
L506.968 84.3211
L507.512 86.0416
L508.057 83.497
L508.601 84.1678
L509.281 88.3137
L509.69 89.3305
L510.37 94.3424
L510.779 98.453
L511.323 98.2773
L512.14 93.8261
L512.412 92.7274
L512.956 92.9675
L513.5 96.2002
L514.045 95.1293
L514.725 89.6851
L515.406 88.5243
L515.678 88.1903
L516.222 83.4583
L516.767 86.2741
L517.311 86.5265
L517.856 85.6842
L518.4 82.42
L518.4 82.42" style="fill:none;stroke:#008000;"/>
   </g>
   <g id="line2d_2">
    <path clip-path="url(#p7ff5b81e1d)" d="
M72 284.544
L72.5444 289.92
L72.8166 287.04
L73.2249 288.96
L73.361 286.08
L73.4971 286.08
L73.6332 285.12
L73.7693 285.12
L74.3137 284.16
L74.4498 283.2
L74.5859 285.12
L74.722 284.16
L75.2663 284.16
L75.4024 283.2
L75.5385 284.16
L76.0829 281.28
L76.219 283.2
L76.3551 283.2
L76.4912 281.28
L77.0356 281.28
L77.1717 280.32
L77.3078 281.28
L77.9883 280.32
L78.1244 281.28
L78.941 279.36
L79.0771 281.28
L79.8937 278.4
L80.1659 281.28
L80.302 279.36
L80.8463 279.36
L81.1185 281.92
L81.3907 283.2
L81.9351 280.32
L82.0712 279.36
L82.3434 281.28
L82.8878 278.4
L83.0239 277.44
L83.16 279.36
L83.2961 278.4
L83.7044 278.4
L83.8405 279.36
L83.9766 279.36
L84.1127 281.28
L84.2488 280.32
L84.6571 280.32
L84.9293 278.4
L85.0654 279.36
L85.2015 281.28
L85.6098 279.36
L85.7459 277.44
L86.018 280.32
L86.1541 281.28
L86.5624 279.36
L86.6985 280.32
L86.8346 279.36
L86.9707 279.36
L87.1068 278.4
L87.5151 279.36
L87.6512 281.28
L88.0595 278.4
L88.4678 278.4
L88.6039 279.36
L88.74 279.36
L88.8761 280.32
L89.6927 278.4
L89.8288 280.32
L90.101 277.76
L90.3732 274.56
L90.6454 274.56
L90.7815 273.6
L90.9176 275.52
L91.3259 273.6
L91.462 275.52
L91.7341 273.6
L91.8702 275.52
L92.4146 275.52
L92.5507 274.56
L92.6868 274.56
L92.8229 276.48
L93.3673 273.6
L93.5034 274.56
L93.7756 273.6
L94.1839 273.984
L94.32 274.56
L94.4561 273.984
L94.7283 275.52
L95.2727 273.984
L95.4088 275.52
L95.5449 275.52
L95.681 273.984
L96.0893 274.56
L96.3615 273.6
L96.4976 274.56
L96.7698 274.496
L97.042 274.368
L97.178 273.984
L97.3141 274.56
L97.4502 273.6
L98.1307 275.52
L98.2668 275.52
L98.539 273.984
L98.9473 274.56
L99.0834 273.984
L99.2195 274.56
L99.4917 274.656
L100.172 275.136
L100.308 275.52
L100.444 273.984
L100.853 273.984
L101.261 275.52
L101.397 274.56
L101.805 275.52
L101.941 273.984
L102.35 275.52
L102.758 275.136
L102.894 275.52
L103.166 273.6
L103.302 274.56
L103.711 274.56
L103.847 273.984
L103.983 275.52
L104.255 273.984
L104.663 275.52
L104.8 275.136
L104.936 275.52
L105.344 274.56
L105.616 274.56
L105.752 273.984
L105.888 275.52
L106.024 274.56
L106.16 274.56
L106.705 273.6
L106.841 275.52
L106.977 275.52
L107.113 273.6
L107.658 273.984
L107.93 275.52
L108.066 276.48
L109.427 277.44
L109.563 275.52
L109.699 275.52
L109.971 277.44
L110.652 276.48
L110.924 278.4
L111.332 277.44
L111.468 278.4
L111.604 277.44
L111.74 279.36
L112.013 278.784
L112.285 278.4
L112.557 276.48
L112.693 277.056
L112.965 276.16
L113.238 275.52
L113.374 275.52
L113.51 274.56
L113.646 274.56
L113.782 275.52
L114.326 273.984
L114.462 275.136
L114.599 277.44
L114.735 274.56
L115.279 274.56
L115.415 273.984
L115.687 275.52
L116.232 273.6
L116.368 274.56
L116.504 273.984
L116.776 274.88
L117.048 275.52
L117.184 275.136
L117.32 275.136
L117.865 274.176
L118.137 273.984
L118.545 275.136
L118.954 275.136
L119.362 274.56
L119.498 273.984
L119.906 273.984
L120.042 274.368
L120.451 274.176
L120.859 274.368
L120.995 274.56
L121.131 273.984
L121.403 273.984
L121.812 274.368
L121.948 268.8
L122.084 274.56
L122.9 273.6
L123.037 274.56
L123.173 273.984
L123.309 273.984
L123.717 274.368
L123.853 273.984
L123.989 274.368
L124.125 273.984
L124.261 274.368
L124.942 274.368
L125.078 273.6
L125.622 273.6
L125.895 275.52
L126.439 274.304
L126.711 273.888
L127.256 273.6
L127.528 273.6
L127.664 274.56
L127.8 273.984
L127.936 273.984
L128.072 274.56
L129.433 273.6
L129.569 273.984
L129.705 271.68
L129.841 271.68
L129.978 272.64
L130.386 270.72
L130.522 270.72
L130.658 271.68
L130.794 271.68
L130.93 270.72
L131.339 271.68
L131.475 270.72
L131.611 270.72
L131.883 268.8
L132.291 269.76
L132.427 271.68
L132.7 269.76
L132.836 271.68
L133.244 271.68
L133.516 269.76
L133.652 271.68
L133.788 270.72
L134.197 270.72
L134.333 268.8
L134.469 270.72
L134.605 269.76
L134.741 269.76
L135.149 268.8
L135.285 269.76
L135.421 269.76
L135.558 268.8
L135.694 310.08
L136.102 269.76
L136.238 269.76
L136.374 267.84
L136.51 267.84
L136.646 269.76
L137.055 267.84
L137.191 267.84
L137.327 268.8
L137.463 268.8
L137.599 267.84
L138.007 271.68
L138.143 269.76
L138.28 271.68
L138.552 267.84
L138.96 268.8
L139.096 269.76
L139.232 267.84
L139.368 268.8
L139.504 268.8
L139.913 269.76
L140.185 267.84
L140.321 267.84
L140.457 268.8
L140.865 267.84
L141.001 268.8
L141.138 268.8
L141.41 266.88
L141.818 268.8
L141.954 267.84
L142.09 269.76
L142.226 268.8
L142.362 269.76
L142.771 269.76
L142.907 268.8
L145.901 267.84
L146.037 265.92
L146.173 265.92
L146.581 264
L146.718 264
L146.854 264.96
L146.99 264
L147.126 264.96
L147.942 264
L148.079 262.08
L148.487 264
L148.623 265.92
L148.759 264.96
L148.895 265.92
L149.576 262.08
L149.712 262.08
L149.848 264
L150.528 264
L150.664 265.92
L150.937 263.04
L151.345 262.08
L151.481 261.12
L151.617 261.12
L151.753 262.08
L151.889 264
L152.298 264.96
L152.434 265.92
L152.57 264
L152.706 264
L152.842 265.92
L153.25 264
L153.386 264
L153.522 265.92
L153.659 262.08
L153.795 264
L154.339 262.08
L154.475 262.08
L154.611 260.16
L154.747 262.08
L155.156 259.2
L155.292 260.16
L155.564 260.16
L155.7 259.2
L156.108 264
L156.244 264
L156.38 262.08
L156.517 262.08
L156.789 264.96
L157.333 268.8
L157.469 267.84
L157.741 268.992
L158.286 269.76
L158.422 270.72
L158.694 269.44
L158.966 268.8
L159.102 268.8
L159.375 271.68
L159.783 267.2
L159.919 265.92
L160.055 265.92
L160.191 267.84
L160.327 267.84
L160.463 266.88
L160.872 267.84
L161.008 265.92
L161.416 267.84
L162.369 254.4
L162.913 257.28
L163.049 254.4
L163.185 254.4
L163.458 255.68
L163.73 256.32
L163.866 258.24
L164.002 258.24
L164.138 256.32
L164.274 258.24
L164.819 258.24
L164.955 259.2
L165.091 258.24
L165.227 256.32
L165.635 257.28
L165.771 257.28
L165.907 254.4
L166.18 254.4
L166.588 250.56
L166.724 254.4
L166.86 249.6
L166.996 250.56
L167.132 250.56
L167.54 248.64
L167.677 248.64
L167.813 249.6
L167.949 249.6
L168.629 253.632
L168.765 254.4
L168.901 251.52
L169.038 251.52
L169.446 249.6
L169.582 250.56
L169.718 250.56
L170.807 252.48
L170.943 254.4
L171.351 251.52
L171.487 254.4
L171.76 250.56
L171.896 252.48
L172.304 247.68
L172.44 248.64
L172.576 248.64
L172.712 250.56
L172.848 249.6
L173.393 252.48
L173.529 254.4
L173.665 254.4
L173.801 250.56
L174.209 251.52
L174.345 250.56
L174.481 250.56
L174.618 249.6
L174.754 249.6
L175.162 250.56
L175.298 249.6
L175.434 249.6
L175.57 267.84
L175.706 248.64
L176.115 249.6
L176.251 249.6
L176.387 250.56
L176.659 248.64
L177.067 248.64
L177.203 249.6
L177.34 249.6
L177.476 250.56
L178.02 250.56
L178.156 249.6
L178.292 249.6
L178.428 248.64
L178.564 248.64
L178.973 247.68
L179.109 248.64
L179.245 246.72
L179.381 246.72
L179.517 247.68
L179.925 247.68
L180.061 246.72
L180.198 246.72
L180.334 247.68
L180.47 246.72
L180.878 248.64
L181.286 244.8
L181.422 244.8
L181.831 246.72
L182.103 244.8
L182.239 244.8
L182.375 246.72
L182.783 245.76
L182.92 246.72
L183.192 246.72
L183.328 244.8
L183.736 245.76
L183.872 245.76
L184.008 246.72
L184.144 246.72
L184.28 245.76
L184.689 245.76
L184.825 244.8
L184.961 246.72
L185.233 244.8
L185.641 246.72
L185.778 244.8
L185.914 244.8
L186.05 245.76
L186.186 244.8
L186.594 245.76
L186.73 246.72
L186.866 246.72
L187.002 244.8
L187.139 245.76
L187.547 244.8
L187.683 244.8
L188.091 243.84
L188.5 244.8
L188.636 245.76
L188.772 244.8
L188.908 244.8
L189.044 246.72
L189.452 244.8
L189.588 244.8
L189.86 241.92
L189.997 242.88
L190.541 242.88
L190.677 240.96
L190.813 241.92
L190.949 244.8
L191.358 244.8
L191.63 242.88
L191.766 244.8
L191.902 242.88
L192.31 241.92
L192.446 241.92
L192.582 242.88
L192.719 237.12
L192.855 239.04
L193.263 236.16
L193.399 237.12
L193.535 236.16
L193.671 237.12
L193.943 235.84
L194.216 235.2
L194.488 237.12
L194.624 237.12
L194.76 235.2
L195.168 235.2
L195.304 237.12
L195.44 235.2
L195.577 235.2
L195.713 236.16
L196.121 233.28
L196.257 236.16
L196.393 232.32
L196.529 235.2
L196.665 234.24
L197.074 235.2
L197.482 233.28
L197.618 233.28
L198.026 235.2
L198.162 235.2
L198.299 231.36
L198.435 235.2
L198.571 232.32
L199.251 233.28
L199.387 235.2
L199.523 235.2
L199.932 233.28
L200.068 231.36
L200.204 232.32
L200.34 235.2
L200.476 233.28
L200.884 232.32
L201.02 232.32
L201.157 235.2
L201.293 232.32
L201.429 233.28
L201.837 231.36
L201.973 229.44
L202.109 229.44
L202.245 227.52
L202.381 230.4
L203.062 230.4
L203.198 233.28
L203.334 231.36
L204.015 233.28
L204.151 231.36
L204.287 232.32
L204.695 232.32
L204.831 230.4
L204.967 230.4
L205.376 232.64
L205.648 233.28
L205.784 235.2
L205.92 235.2
L206.056 232.32
L206.192 235.2
L207.009 235.2
L207.281 232.64
L207.553 231.36
L207.825 235.2
L207.961 235.2
L208.098 231.36
L208.506 231.36
L208.642 235.2
L208.778 235.2
L209.05 237.6
L209.459 239.04
L209.731 237.12
L209.867 237.12
L210.003 235.2
L210.411 239.04
L210.547 239.04
L210.683 237.12
L210.82 239.04
L211.364 240
L211.5 239.04
L211.636 239.04
L211.772 240
L211.908 239.04
L212.317 240
L212.453 239.04
L212.589 240.96
L212.725 240
L212.861 240
L213.269 240.96
L213.814 248.64
L214.494 239.04
L214.766 235.2
L215.311 220.8
L215.583 230.4
L215.719 229.44
L216.536 230.4
L216.672 229.44
L217.08 229.44
L217.352 235.2
L217.488 237.12
L217.624 237.12
L218.033 235.2
L218.169 239.04
L218.441 236.16
L218.577 235.2
L218.985 235.2
L219.121 233.28
L219.258 235.2
L219.394 233.28
L219.938 235.2
L220.21 230.4
L220.346 231.36
L220.482 230.4
L221.163 231.36
L221.299 229.44
L221.435 231.36
L221.843 228.48
L221.98 228.48
L222.116 229.44
L222.252 229.44
L222.524 228.16
L222.796 227.52
L222.932 228.48
L223.068 228.48
L223.204 229.44
L223.34 227.52
L223.749 227.52
L223.885 228.48
L224.701 216
L224.838 213.12
L224.974 214.08
L225.11 216
L225.246 212.16
L225.654 211.2
L225.79 212.16
L226.062 210.24
L226.199 210.24
L226.607 209.28
L226.743 210.24
L226.879 210.24
L227.423 207.12
L227.56 206.4
L227.696 207.36
L227.832 206.4
L227.968 206.4
L228.24 208.96
L228.648 211.2
L228.784 212.16
L229.057 210.24
L229.465 211.2
L229.601 210.24
L229.737 208.32
L229.873 208.32
L230.009 207.36
L230.418 208.32
L230.554 208.32
L230.69 207.36
L230.826 207.36
L230.962 206.4
L231.37 208.32
L231.506 206.4
L231.642 206.4
L231.915 208.32
L232.323 205.44
L232.459 206.4
L232.595 206.4
L232.731 207.36
L232.867 207.36
L233.276 204.48
L233.412 204.48
L233.548 203.52
L233.956 205.76
L234.228 206.4
L234.364 204.48
L234.5 198.72
L234.637 200.64
L234.909 199.36
L235.181 198.72
L235.453 196.8
L235.589 194.88
L235.725 196.8
L236.27 193.92
L236.406 192.96
L237.086 192.96
L237.222 192
L237.359 192.96
L237.767 190.72
L238.039 190.08
L238.175 189.12
L238.311 189.12
L238.447 190.08
L238.583 192.96
L238.992 192
L239.264 189.12
L239.4 189.12
L239.536 190.08
L240.217 187.2
L240.353 189.12
L240.489 189.12
L240.897 187.2
L241.033 189.12
L241.169 189.12
L241.305 187.2
L241.441 187.2
L241.85 188.16
L241.986 189.12
L242.122 187.2
L242.394 189.12
L242.802 187.2
L242.939 189.12
L243.075 189.12
L243.347 186.24
L243.755 186.24
L244.027 184.32
L244.163 185.28
L244.3 187.2
L244.708 186.24
L244.844 185.28
L244.98 185.28
L245.116 183.36
L245.388 184.64
L245.66 185.28
L245.797 183.36
L245.933 185.28
L246.069 184.32
L246.205 184.32
L246.613 182.4
L246.749 184.32
L246.885 183.36
L247.566 184.32
L247.838 182.4
L248.11 189.12
L248.519 191.04
L248.927 185.28
L249.199 186.56
L249.471 187.2
L249.607 189.12
L249.743 188.16
L249.88 189.12
L250.016 187.2
L250.696 192.96
L250.832 196.8
L250.968 194.88
L251.377 193.92
L251.649 192
L251.785 194.88
L252.057 193.6
L252.329 192.96
L252.601 192.96
L252.738 191.04
L253.01 185.92
L253.418 182.4
L253.826 182.4
L254.235 180.48
L254.507 185.28
L254.643 184.32
L255.051 186.56
L255.187 187.2
L255.323 187.2
L255.46 189.12
L255.596 189.12
L255.732 191.04
L256.14 191.04
L256.412 192.96
L256.548 194.88
L256.684 194.88
L256.957 192.96
L257.637 192.96
L258.045 193.92
L258.181 194.88
L258.318 194.88
L258.454 193.92
L258.59 192
L258.998 192.96
L259.542 189.12
L259.951 192.96
L260.223 191.04
L260.495 192.96
L260.767 192.96
L260.903 191.04
L261.176 192.96
L261.312 192.96
L261.448 192
L261.856 192.96
L261.992 192
L262.128 192.96
L262.537 190.848
L263.081 190.08
L263.353 188.16
L263.761 189.12
L263.898 191.04
L264.034 190.08
L264.306 193.92
L264.85 196.8
L265.122 192
L265.395 193.28
L265.667 193.92
L265.939 192
L266.075 384
L266.62 192
L266.756 192
L267.028 190.08
L267.436 192.32
L267.572 192.96
L267.844 192.96
L268.117 190.08
L268.525 190.08
L268.661 191.04
L268.933 188.16
L269.069 187.2
L269.614 189.12
L269.886 187.2
L270.022 189.12
L270.566 184.32
L270.702 185.28
L270.975 188.16
L271.383 186.24
L271.655 192.96
L271.791 192
L271.927 192.96
L272.472 188.48
L272.744 187.2
L272.88 189.12
L273.288 190.08
L273.424 191.04
L273.56 191.04
L273.833 192.96
L274.241 191.04
L274.513 192.96
L274.649 194.88
L276.146 192.96
L276.282 191.04
L276.555 192.96
L276.691 192
L277.099 192.96
L277.235 192
L277.507 189.12
L277.643 188.16
L278.052 189.12
L278.188 187.2
L278.324 188.16
L278.868 184.96
L279.004 184.32
L279.14 184.32
L279.277 185.28
L279.413 187.2
L279.549 185.28
L279.957 185.28
L280.093 187.2
L280.229 187.2
L280.501 183.36
L280.91 182.4
L281.046 183.36
L281.182 182.4
L281.318 183.36
L281.454 182.4
L281.862 182.4
L281.999 183.36
L282.135 183.36
L282.271 185.28
L282.543 184
L282.815 183.36
L282.951 182.4
L283.087 182.4
L283.36 180.48
L284.176 182.4
L284.312 182.4
L284.72 181.44
L284.993 183.36
L285.129 181.44
L285.265 182.4
L285.673 180.48
L285.945 182.4
L286.081 180.48
L286.626 181.44
L286.762 181.44
L286.898 183.36
L287.034 182.4
L287.306 179.52
L287.579 177.6
L287.715 180.48
L287.987 178.56
L288.123 178.56
L288.531 177.6
L288.667 177.6
L288.803 179.52
L288.94 175.68
L289.076 175.68
L289.484 177.6
L289.756 172.8
L289.892 172.8
L290.3 177.28
L290.437 178.56
L290.573 178.56
L290.709 179.52
L290.845 179.52
L290.981 178.56
L291.389 179.52
L291.525 177.6
L291.661 177.6
L291.934 174.72
L292.342 172.8
L292.478 168
L292.75 171.84
L292.886 171.84
L293.295 169.92
L293.567 171.84
L293.703 173.76
L293.839 170.88
L294.247 169.92
L294.383 169.92
L294.52 168
L294.656 168
L294.928 169.28
L295.2 169.92
L295.472 172.8
L295.608 169.92
L295.744 169.92
L296.153 166.08
L296.425 162.24
L296.561 162.24
L297.105 161.28
L297.65 168
L298.058 166.08
L298.194 166.08
L298.33 164.16
L298.466 172.8
L298.602 163.2
L299.011 164.16
L299.555 160.32
L299.963 160.32
L300.1 163.2
L300.236 161.28
L300.372 162.24
L300.508 160.32
L300.916 162.24
L301.052 160.32
L301.188 160.32
L301.324 163.2
L301.597 163.2
L301.733 161.28
L301.869 161.28
L302.005 160.32
L302.141 158.4
L302.277 158.4
L302.821 162.24
L302.958 159.36
L303.23 163.2
L303.366 160.32
L303.774 163.2
L303.91 160.32
L304.046 160.32
L304.182 163.2
L304.319 163.2
L304.591 158.4
L304.863 162.24
L305.135 160.32
L305.543 160.32
L305.68 161.28
L305.816 165.12
L305.952 163.2
L306.088 166.08
L306.224 163.2
L306.36 163.2
L306.496 168
L306.768 164.16
L306.904 165.12
L307.04 164.16
L307.585 170.4
L307.857 172.8
L307.993 169.92
L308.129 171.84
L308.538 172.8
L308.674 173.76
L308.81 173.76
L309.218 171.52
L309.49 170.88
L309.626 169.92
L309.762 172.8
L309.899 171.84
L310.035 172.8
L310.443 172.8
L310.579 175.68
L310.715 172.8
L310.851 173.76
L310.987 172.8
L311.123 172.8
L311.26 171.84
L311.532 168
L311.668 168
L311.804 166.08
L311.94 168
L312.348 168
L312.62 165.12
L312.757 164.16
L312.893 166.08
L313.301 166.08
L313.437 163.2
L313.573 168
L313.709 168
L313.845 169.92
L314.254 166.08
L314.39 168
L314.526 165.12
L314.662 166.08
L314.798 166.08
L315.206 168
L315.615 163.2
L315.887 164.48
L316.159 165.12
L316.295 163.2
L316.431 163.2
L316.567 166.08
L316.703 166.08
L317.112 163.2
L317.384 158.4
L317.656 158.4
L318.064 156.48
L318.2 158.4
L318.337 158.4
L318.473 156.48
L318.745 158.784
L319.289 160.32
L319.425 163.2
L319.561 163.2
L319.97 164.16
L320.106 162.24
L320.242 163.2
L320.378 160.32
L320.514 162.24
L320.922 158.4
L321.195 158.4
L321.739 155.2
L321.875 154.56
L322.011 155.52
L322.147 158.4
L322.42 158.4
L322.964 162.56
L323.236 163.2
L324.053 163.2
L324.189 160.32
L324.325 162.24
L324.869 159.36
L325.005 158.4
L326.094 158.4
L326.366 162.24
L326.502 162.24
L326.639 163.2
L326.911 158.4
L327.047 163.2
L327.319 163.2
L327.455 160.32
L327.727 166.08
L328.136 161.28
L328.272 160.32
L328.408 160.32
L328.68 163.2
L328.816 162.24
L328.952 160.32
L329.088 160.32
L329.497 161.28
L329.633 161.28
L329.769 162.24
L329.905 162.24
L330.177 158.4
L330.449 158.4
L330.585 160.32
L330.721 160.32
L330.858 163.2
L330.994 163.2
L331.13 161.28
L331.402 161.28
L331.538 162.24
L331.674 158.4
L331.946 158.4
L332.082 156.48
L332.355 156.48
L332.491 158.4
L332.763 158.4
L333.171 153.6
L333.307 158.4
L333.443 158.4
L333.58 160.32
L333.716 160.32
L333.852 158.4
L334.124 158.4
L334.26 163.2
L334.396 160.32
L334.532 160.32
L335.077 163.2
L335.213 163.2
L335.349 160.32
L335.485 160.32
L335.621 158.4
L336.029 158.4
L336.165 153.6
L336.301 154.56
L336.438 153.6
L336.574 153.6
L336.71 154.56
L336.846 154.56
L336.982 153.6
L337.118 154.56
L337.254 153.6
L337.39 153.6
L337.526 154.56
L337.662 154.56
L337.799 153.6
L337.935 153.6
L338.207 158.4
L338.615 158.4
L338.751 160.32
L339.023 160.32
L339.16 158.4
L339.432 153.6
L339.568 153.6
L339.704 158.4
L339.976 158.4
L340.112 156.48
L340.248 156.48
L340.384 158.4
L340.52 156.48
L340.657 158.4
L340.929 158.4
L341.065 156.48
L341.201 158.4
L341.337 153.6
L341.745 153.6
L341.881 154.56
L342.154 158.4
L342.29 158.4
L342.562 153.6
L342.834 153.6
L342.97 152.64
L343.106 148.8
L343.242 150.72
L343.379 148.8
L343.787 152.64
L343.923 148.8
L344.059 150.72
L344.195 148.8
L344.331 150.72
L344.467 150.72
L344.603 152.64
L344.74 151.68
L344.876 148.8
L345.012 150.72
L345.148 150.72
L345.284 148.8
L345.42 153.6
L345.556 153.6
L345.692 152.64
L345.828 153.6
L345.964 153.6
L346.1 151.68
L346.237 152.64
L346.373 150.72
L346.509 150.72
L346.645 148.8
L346.781 148.8
L346.917 150.72
L347.053 150.72
L347.189 151.68
L347.325 150.72
L347.461 150.72
L347.598 148.8
L347.734 148.8
L348.006 151.68
L348.142 148.8
L348.278 148.8
L348.55 152.64
L348.686 152.64
L348.822 151.68
L348.959 152.64
L349.095 151.68
L349.231 151.68
L349.503 153.6
L349.639 153.6
L349.911 150.72
L350.183 153.6
L350.32 152.64
L350.456 150.72
L350.592 153.6
L350.728 152.64
L351 148.8
L351.817 148.8
L351.953 145.92
L352.089 148.8
L352.225 148.8
L352.497 153.6
L352.633 148.8
L352.769 150.72
L352.905 150.72
L353.041 148.8
L353.178 148.8
L353.314 150.72
L353.722 145.92
L353.858 148.8
L354.13 148.8
L354.266 146.88
L354.402 148.8
L354.539 148.8
L354.675 147.84
L354.811 148.8
L354.947 148.8
L355.219 144
L355.355 144.96
L355.491 144
L355.627 144.96
L355.763 144
L355.9 144
L356.172 148.8
L356.308 144.96
L356.716 153.6
L356.852 148.8
L356.988 148.8
L357.124 153.6
L357.26 153.6
L357.397 150.72
L357.669 150.72
L357.805 148.8
L357.941 150.72
L358.077 148.8
L358.213 148.8
L358.349 151.68
L358.485 148.8
L358.758 148.8
L358.894 150.72
L359.03 144.96
L359.166 144
L359.302 144.96
L359.438 148.8
L359.574 144
L359.846 144
L359.982 148.8
L360.255 144
L360.391 146.88
L360.527 145.92
L360.663 144
L360.935 144
L361.071 146.88
L361.207 145.92
L361.343 144
L361.752 144
L361.888 146.88
L362.16 144
L362.296 144
L363.113 146.88
L363.249 144
L363.521 144
L363.657 141.12
L363.929 144
L364.065 148.8
L364.474 144
L364.61 144
L364.746 148.8
L364.882 148.8
L365.018 150.72
L365.29 146.88
L365.426 146.88
L365.562 150.72
L365.971 144
L366.379 148.8
L366.515 153.6
L366.651 153.6
L366.787 158.4
L366.923 158.4
L367.06 163.2
L367.468 163.2
L367.604 168
L367.74 167.04
L367.876 163.2
L368.148 168
L368.284 168
L368.42 166.08
L368.557 168
L368.693 168
L368.829 172.8
L368.965 172.8
L369.237 163.2
L369.509 163.2
L369.645 168
L369.781 168
L369.918 162.24
L370.19 168
L370.326 168
L370.462 170.88
L370.734 166.08
L370.87 171.84
L371.006 168
L371.279 168
L371.415 163.2
L371.551 164.16
L371.823 168
L372.095 168
L372.231 166.08
L372.367 168
L372.503 168
L372.64 165.12
L372.776 165.12
L372.912 166.08
L373.048 164.16
L373.184 164.16
L373.456 166.08
L373.592 168
L374 163.2
L374.273 161.28
L374.409 163.2
L374.545 160.32
L374.681 161.28
L374.817 160.32
L374.953 158.4
L375.089 158.4
L375.361 163.2
L375.498 161.28
L375.634 161.28
L375.906 162.56
L376.178 163.2
L376.314 163.2
L376.45 161.28
L376.586 163.2
L376.722 163.2
L377.131 160.32
L377.267 163.2
L377.403 162.24
L377.539 163.2
L377.675 162.24
L377.811 162.24
L377.947 163.2
L378.083 165.12
L378.22 163.2
L378.492 163.2
L378.628 160.32
L378.764 160.32
L378.9 158.4
L379.036 162.24
L379.172 161.28
L379.308 161.28
L379.444 162.24
L379.717 160.32
L379.853 160.32
L379.989 158.4
L380.125 161.28
L380.261 158.4
L380.533 158.4
L380.669 160.32
L380.941 160.32
L381.078 158.4
L381.214 158.4
L381.35 160.32
L381.486 158.4
L381.894 158.4
L382.03 161.28
L382.166 158.4
L382.302 158.4
L382.439 156.48
L382.575 156.48
L382.847 160.32
L382.983 160.32
L383.119 158.4
L383.255 158.4
L383.391 162.24
L383.527 162.24
L383.663 163.2
L383.936 158.4
L384.208 163.2
L384.344 158.4
L384.48 162.24
L384.616 162.24
L384.752 163.2
L384.888 160.32
L385.297 160.32
L385.433 158.4
L385.705 158.4
L385.841 157.44
L385.977 158.4
L386.113 153.6
L386.249 158.4
L386.521 158.4
L386.658 157.44
L386.794 155.52
L386.93 156.48
L387.202 156.48
L387.338 153.6
L387.61 153.6
L387.746 152.64
L387.882 152.64
L388.155 154.56
L388.291 153.6
L388.427 153.6
L388.835 158.4
L388.971 158.4
L389.243 153.6
L389.652 153.6
L389.788 155.52
L389.924 153.6
L390.06 154.56
L390.196 154.56
L390.332 152.64
L390.468 152.64
L390.604 153.6
L390.74 152.64
L390.877 153.6
L391.013 153.6
L391.149 152.64
L391.421 152.64
L391.557 154.176
L391.693 153.6
L391.829 153.6
L391.965 154.56
L392.101 152.64
L392.238 152.64
L392.374 151.68
L392.51 153.6
L392.646 153.6
L392.782 151.68
L393.054 153.6
L393.19 153.6
L393.326 154.56
L393.462 151.68
L393.599 153.6
L393.735 153.6
L393.871 152.64
L394.279 154.56
L394.415 154.56
L394.687 152.64
L394.823 153.6
L394.96 153.6
L395.096 152.64
L395.232 150.72
L395.504 152.64
L395.776 148.8
L396.32 148.8
L396.593 153.6
L396.729 152.64
L396.865 152.64
L397.001 150.72
L397.137 150.72
L397.273 148.8
L397.409 151.68
L397.545 151.68
L397.681 150.72
L397.818 153.6
L397.954 153.6
L398.362 151.36
L398.498 150.72
L398.634 148.8
L399.042 152.64
L399.179 150.72
L399.315 153.6
L399.451 152.64
L399.995 152.64
L400.131 153.6
L400.403 150.72
L400.54 153.6
L400.812 153.6
L400.948 150.72
L401.22 153.6
L401.356 154.56
L401.492 151.68
L401.628 153.6
L401.9 153.6
L402.037 152.64
L402.309 148.8
L402.445 151.68
L402.853 148.8
L403.67 148.8
L403.806 150.72
L403.942 150.72
L404.078 148.8
L404.214 150.72
L404.35 149.76
L404.486 150.72
L404.622 150.72
L404.759 148.8
L404.895 151.68
L405.303 151.68
L405.439 153.6
L406.12 153.6
L406.256 158.4
L406.664 153.6
L406.8 158.4
L407.072 153.6
L407.208 154.56
L407.344 158.4
L407.889 155.52
L408.161 153.6
L408.569 155.52
L408.841 153.6
L408.978 158.4
L409.522 151.68
L409.658 153.6
L409.794 153.6
L409.93 151.68
L410.066 158.4
L410.611 148.8
L410.747 150.72
L410.883 148.8
L411.019 151.68
L411.427 152.64
L411.563 150.72
L411.7 153.6
L411.836 150.72
L412.38 150.72
L412.652 163.2
L412.788 160.32
L412.924 164.16
L413.06 164.16
L413.469 158.4
L413.605 158.4
L413.741 163.2
L414.013 153.6
L414.149 153.6
L414.421 148.8
L414.83 153.6
L414.966 150.72
L415.102 150.72
L415.238 148.8
L415.51 158.4
L415.646 152.64
L415.782 153.6
L415.919 153.6
L416.055 150.72
L416.191 152.64
L416.327 148.8
L416.463 152.64
L416.599 148.8
L416.735 153.6
L416.871 153.6
L417.007 152.64
L417.143 149.76
L417.28 150.72
L417.416 152.64
L417.552 148.8
L417.688 151.872
L417.824 151.872
L418.232 148.8
L418.368 153.6
L418.504 129.6
L418.64 152.64
L418.777 150.72
L418.913 150.72
L419.185 153.6
L419.321 148.8
L419.457 148.8
L419.593 150.72
L419.865 150.72
L420.001 148.8
L420.138 148.8
L420.274 152.64
L420.41 150.72
L420.546 153.6
L420.682 153.6
L420.818 158.4
L421.09 152.64
L421.226 153.6
L421.362 152.64
L421.499 150.72
L421.771 150.72
L421.907 152.64
L422.179 150.72
L422.315 150.72
L422.451 158.4
L422.587 153.6
L422.723 153.6
L422.86 152.64
L423.268 146.88
L423.812 150.72
L424.765 150.72
L424.901 158.4
L425.037 155.52
L425.173 155.52
L425.309 158.4
L425.445 158.4
L425.581 155.52
L425.718 156.48
L426.126 148.8
L426.262 153.6
L426.67 154.56
L426.806 153.6
L427.079 148.8
L427.623 148.8
L427.759 146.88
L427.895 148.8
L428.303 148.8
L428.44 150.72
L428.712 146.88
L428.848 153.6
L428.984 151.68
L429.12 153.6
L429.528 150.72
L429.664 148.8
L429.8 148.8
L429.937 146.88
L430.753 146.88
L430.889 145.92
L431.025 146.88
L431.434 146.88
L431.57 148.8
L431.842 145.92
L431.978 145.92
L432.386 148.8
L432.522 153.6
L432.659 150.72
L432.795 153.6
L433.339 153.6
L433.611 146.88
L433.747 146.88
L433.883 144.96
L434.292 144
L435.244 144
L435.38 143.04
L435.517 143.04
L435.653 144
L435.789 144
L436.197 139.2
L436.469 139.2
L436.605 141.12
L436.741 141.12
L437.15 139.2
L437.422 127.68
L437.558 124.8
L437.694 124.8
L438.102 127.68
L438.375 123.84
L438.511 124.8
L438.783 128.32
L439.055 129.6
L439.463 129.6
L439.6 134.4
L440.008 134.4
L440.28 125.76
L440.416 129.6
L440.688 127.04
L440.96 125.76
L441.097 126.72
L441.505 121.92
L443.955 115.2
L444.363 118.08
L447.221 110.4
L447.765 116.16
L447.901 112.32
L448.038 114.24
L448.174 114.24
L448.582 112.32
L449.671 115.269
L451.44 116.16
L451.576 118.08
L451.848 114.24
L452.12 116.928
L452.665 120
L452.937 120
L453.345 118.08
L453.481 120
L453.754 110.4
L453.89 120
L454.434 124.8
L454.57 124.8
L454.706 123.84
L454.842 123.84
L455.251 129.6
L455.659 123.84
L455.795 127.68
L456.203 125.76
L456.34 129.6
L456.476 129.6
L456.612 125.76
L456.748 127.68
L457.292 123.84
L457.428 129.6
L457.564 127.68
L457.7 127.68
L458.109 124.8
L458.517 129.6
L458.653 139.2
L459.061 120
L459.606 127.68
L459.742 127.68
L459.878 129.6
L460.014 129.6
L460.422 124.8
L460.695 132.8
L460.967 143.04
L461.92 129.6
L462.056 139.2
L463.008 139.2
L463.144 135.36
L463.28 135.36
L463.417 137.28
L463.825 135.36
L463.961 131.52
L464.097 131.52
L464.233 129.6
L464.778 129.6
L464.914 131.52
L465.05 129.6
L465.322 129.6
L465.73 127.68
L465.866 131.52
L466.002 131.52
L466.139 129.6
L466.275 129.6
L466.683 127.68
L466.955 124.8
L467.091 123.84
L467.227 124.8
L467.636 124.8
L467.772 123.84
L467.908 124.8
L468.588 121.92
L468.724 120
L469.541 120
L469.677 116.16
L469.949 116.16
L470.221 118.72
L470.494 120
L470.63 115.2
L470.766 116.16
L471.038 116.16
L471.446 115.2
L471.582 114.24
L471.719 115.2
L471.991 115.2
L472.399 114.24
L472.535 116.16
L472.671 115.2
L472.807 120
L472.943 118.08
L473.352 118.08
L473.488 116.16
L473.76 116.16
L473.896 117.12
L474.304 115.2
L474.44 115.2
L474.577 113.28
L474.713 114.24
L474.849 110.4
L475.257 112.32
L475.393 110.4
L475.529 110.4
L475.665 105.6
L475.801 110.4
L476.21 112.32
L476.618 110.4
L476.754 110.4
L477.162 105.6
L477.299 100.8
L477.435 100.8
L477.571 104.64
L477.707 104.64
L478.115 105.6
L478.387 105.6
L478.523 110.4
L478.66 110.4
L479.068 104.64
L479.204 104.64
L479.34 103.68
L479.476 104.64
L479.612 104.64
L480.02 100.8
L480.157 100.8
L480.293 98.88
L480.429 98.88
L480.565 100.8
L481.245 96.96
L481.518 100.8
L481.926 96
L482.062 96.96
L482.198 100.8
L482.334 96.96
L482.47 100.8
L482.879 96
L485.328 96
L485.737 95.04
L486.281 95.04
L486.689 91.2
L486.825 91.2
L486.961 89.28
L487.098 91.2
L487.642 91.2
L488.05 86.4
L488.186 86.4
L488.595 85.44
L488.731 85.44
L488.867 86.4
L489.139 82.56
L489.547 81.6
L489.683 83.52
L489.82 81.6
L489.956 81.6
L490.092 83.52
L490.5 81.6
L490.636 81.6
L490.772 76.8
L491.044 76.8
L491.453 75.84
L491.589 72
L491.861 72
L491.997 76.8
L492.541 76.8
L492.678 73.92
L492.814 73.92
L493.086 75.2
L493.766 76.8
L493.902 76.8
L494.311 78.72
L494.583 78.72
L495.808 75.84
L496.216 72
L497.169 72
L497.577 67.2
L497.713 67.2
L498.121 72
L498.258 67.2
L498.394 67.2
L498.666 70.08
L499.074 67.2
L499.21 67.2
L499.346 66.24
L499.482 67.2
L499.619 71.04
L500.027 67.2
L500.435 67.2
L500.571 72
L501.116 72
L501.252 67.2
L501.388 72
L501.524 72
L502.34 81.6
L503.021 81.6
L503.293 86.4
L503.701 82.88
L503.838 81.6
L504.382 81.6
L504.79 86.4
L504.926 86.4
L505.062 85.44
L505.199 86.4
L505.335 86.4
L505.743 91.2
L506.423 91.2
L506.968 89.28
L507.104 91.2
L507.24 91.2
L507.784 84.48
L507.92 81.6
L510.098 81.6
L510.506 76.8
L510.642 76.8
L510.779 81.6
L510.915 81.6
L511.051 76.8
L511.459 77.76
L511.731 72
L512.412 72
L512.548 73.92
L512.684 73.92
L512.82 74.88
L512.956 74.88
L513.5 71.68
L513.773 71.04
L513.909 71.04
L514.317 72
L514.861 72
L514.998 72.96
L515.134 72
L515.406 72
L515.678 67.2
L515.95 70.08
L516.495 73.92
L516.631 73.92
L517.039 76.16
L517.175 76.8
L517.311 73.92
L517.583 76.8
L517.856 75.52
L518.128 74.88
L518.264 74.88
L518.4 73.92
L518.4 73.92" style="fill:none;stroke:#0000ff;"/>
   </g>
   <g id="line2d_3">
    <path clip-path="url(#p7ff5b81e1d)" d="
M451.984 110.636
L452.529 109.751
L453.481 111.027
L453.618 111.176
L454.162 110.827
L454.706 113.233
L455.251 113.174
L455.795 116.189
L456.34 114.036
L456.884 116.531
L457.428 113.448
L457.973 116.625
L458.517 116.072
L459.061 120.374
L459.606 116.447
L460.15 121.454
L460.695 117.709
L461.239 122.357
L461.783 120.867
L462.328 121.627
L462.872 124.353
L463.417 121.736
L463.961 126.284
L464.505 122.74
L465.05 126.522
L465.866 124.091
L466.139 123.503
L466.683 125.53
L467.636 122.513
L467.908 121.334
L468.316 119.249
L468.86 118.856
L469.405 119.188
L469.949 118.758
L470.494 117.443
L471.038 117.67
L471.582 113.851
L472.127 114.58
L472.671 112.132
L473.216 112.374
L473.76 111.667
L474.304 109.772
L474.849 111.275
L475.393 107.047
L475.938 108.298
L476.482 108.024
L477.026 109.289
L477.843 106.737
L478.523 105.464
L478.796 105.226
L479.204 105.166
L479.748 102.81
L480.293 103.28
L480.837 100.379
L481.381 100.27
L481.926 97.7299
L482.606 99.692
L483.015 100.381
L483.559 96.1495
L484.103 96.6008
L484.648 93.1984
L485.192 95.7928
L485.737 94.2777
L486.281 94.2459
L486.825 95.2803
L487.37 92.222
L487.914 93.3076
L488.459 92.1124
L489.003 92.9014
L489.683 94.8958
L490.228 95.1734
L490.636 95.1324
L491.317 92.3311
L491.725 91.3296
L492.269 88.4263
L492.814 90.4881
L493.766 87.1528
L494.447 84.4632
L494.991 84.657
L495.536 79.9621
L496.08 79.9146
L496.624 81.0649
L497.169 80.6519
L497.713 82.4099
L498.258 81.1469
L498.802 82.1961
L499.891 80.6605
L500.98 77.5431
L501.524 79.5075
L502.068 74.4526
L502.613 77.5146
L503.157 75.3821
L503.701 76.1478
L504.246 73.8996
L504.79 75.3506
L505.471 79.1122
L505.879 80.4401
L506.423 85.0989
L506.968 84.3211
L507.512 86.0416
L508.057 83.497
L508.601 84.1678
L509.281 88.3137
L509.69 89.3305
L510.37 94.3424
L510.779 98.453
L511.323 98.2773
L512.14 93.8261
L512.412 92.7274
L512.956 92.9675
L513.5 96.2002
L514.045 95.1293
L514.725 89.6851
L515.406 88.5243
L515.678 88.1903
L516.222 83.4583
L516.767 86.2741
L517.311 86.5265
L517.856 85.6842
L518.4 82.42
L518.4 82.42" style="fill:none;stroke:#ff0000;"/>
   </g>
   <g id="matplotlib.axis_1">
    <g id="xtick_1">
     <g id="line2d_4">
      <path clip-path="url(#p7ff5b81e1d)" d="
M116.776 388.8
L116.776 43.2" style="fill:none;stroke:#000000;stroke-dasharray:1.000000,3.000000;stroke-dashoffset:0.0;stroke-linecap:butt;stroke-width:0.5;"/>
     </g>
     <g id="line2d_5">
      <defs>
       <path d="
M0 0
L0 -4" id="mcb557df647" style="stroke:#000000;stroke-linecap:butt;stroke-width:0.5;"/>
      </defs>
      <g>
       <use style="stroke:#000000;stroke-linecap:butt;stroke-width:0.5;" x="116.776097561" xlink:href="#mcb557df647" y="388.8"/>
      </g>
     </g>
     <g id="line2d_6">
      <defs>
       <path d="
M0 0
L0 4" id="mdad270ee8e" style="stroke:#000000;stroke-linecap:butt;stroke-width:0.5;"/>
      </defs>
      <g>
       <use style="stroke:#000000;stroke-linecap:butt;stroke-width:0.5;" x="116.776097561" xlink:href="#mdad270ee8e" y="43.2"/>
      </g>
     </g>
     <g id="text_1">
      <!-- 2006 -->
      <defs>
       <path d="
M31.7812 66.4062
Q24.1719 66.4062 20.3281 58.9062
Q16.5 51.4219 16.5 36.375
Q16.5 21.3906 20.3281 13.8906
Q24.1719 6.39062 31.7812 6.39062
Q39.4531 6.39062 43.2812 13.8906
Q47.125 21.3906 47.125 36.375
Q47.125 51.4219 43.2812 58.9062
Q39.4531 66.4062 31.7812 66.4062
M31.7812 74.2188
Q44.0469 74.2188 50.5156 64.5156
Q56.9844 54.8281 56.9844 36.375
Q56.9844 17.9688 50.5156 8.26562
Q44.0469 -1.42188 31.7812 -1.42188
Q19.5312 -1.42188 13.0625 8.26562
Q6.59375 17.9688 6.59375 36.375
Q6.59375 54.8281 13.0625 64.5156
Q19.5312 74.2188 31.7812 74.2188" id="DejaVuSans-30"/>
       <path d="
M19.1875 8.29688
L53.6094 8.29688
L53.6094 0
L7.32812 0
L7.32812 8.29688
Q12.9375 14.1094 22.625 23.8906
Q32.3281 33.6875 34.8125 36.5312
Q39.5469 41.8438 41.4219 45.5312
Q43.3125 49.2188 43.3125 52.7812
Q43.3125 58.5938 39.2344 62.25
Q35.1562 65.9219 28.6094 65.9219
Q23.9688 65.9219 18.8125 64.3125
Q13.6719 62.7031 7.8125 59.4219
L7.8125 69.3906
Q13.7656 71.7812 18.9375 73
Q24.125 74.2188 28.4219 74.2188
Q39.75 74.2188 46.4844 68.5469
Q53.2188 62.8906 53.2188 53.4219
Q53.2188 48.9219 51.5312 44.8906
Q49.8594 40.875 45.4062 35.4062
Q44.1875 33.9844 37.6406 27.2188
Q31.1094 20.4531 19.1875 8.29688" id="DejaVuSans-32"/>
       <path d="
M33.0156 40.375
Q26.375 40.375 22.4844 35.8281
Q18.6094 31.2969 18.6094 23.3906
Q18.6094 15.5312 22.4844 10.9531
Q26.375 6.39062 33.0156 6.39062
Q39.6562 6.39062 43.5312 10.9531
Q47.4062 15.5312 47.4062 23.3906
Q47.4062 31.2969 43.5312 35.8281
Q39.6562 40.375 33.0156 40.375
M52.5938 71.2969
L52.5938 62.3125
Q48.875 64.0625 45.0938 64.9844
Q41.3125 65.9219 37.5938 65.9219
Q27.8281 65.9219 22.6719 59.3281
Q17.5312 52.7344 16.7969 39.4062
Q19.6719 43.6562 24.0156 45.9219
Q28.375 48.1875 33.5938 48.1875
Q44.5781 48.1875 50.9531 41.5156
Q57.3281 34.8594 57.3281 23.3906
Q57.3281 12.1562 50.6875 5.35938
Q44.0469 -1.42188 33.0156 -1.42188
Q20.3594 -1.42188 13.6719 8.26562
Q6.98438 17.9688 6.98438 36.375
Q6.98438 53.6562 15.1875 63.9375
Q23.3906 74.2188 37.2031 74.2188
Q40.9219 74.2188 44.7031 73.4844
Q48.4844 72.75 52.5938 71.2969" id="DejaVuSans-36"/>
      </defs>
      <g transform="translate(102.323597561 401.70625)scale(0.12 -0.12)">
       <use xlink:href="#DejaVuSans-32"/>
       <use x="63.623046875" xlink:href="#DejaVuSans-30"/>
       <use x="127.24609375" xlink:href="#DejaVuSans-30"/>
       <use x="190.869140625" xlink:href="#DejaVuSans-36"/>
      </g>
     </g>
    </g>
    <g id="xtick_2">
     <g id="line2d_7">
      <path clip-path="url(#p7ff5b81e1d)" d="
M166.452 388.8
L166.452 43.2" style="fill:none;stroke:#000000;stroke-dasharray:1.000000,3.000000;stroke-dashoffset:0.0;stroke-linecap:butt;stroke-width:0.5;"/>
     </g>
     <g id="line2d_8">
      <g>
       <use style="stroke:#000000;stroke-linecap:butt;stroke-width:0.5;" x="166.451707317" xlink:href="#mcb557df647" y="388.8"/>
      </g>
     </g>
     <g id="line2d_9">
      <g>
       <use style="stroke:#000000;stroke-linecap:butt;stroke-width:0.5;" x="166.451707317" xlink:href="#mdad270ee8e" y="43.2"/>
      </g>
     </g>
     <g id="text_2">
      <!-- 2007 -->
      <defs>
       <path d="
M8.20312 72.9062
L55.0781 72.9062
L55.0781 68.7031
L28.6094 0
L18.3125 0
L43.2188 64.5938
L8.20312 64.5938
z
" id="DejaVuSans-37"/>
      </defs>
      <g transform="translate(152.134207317 401.70625)scale(0.12 -0.12)">
       <use xlink:href="#DejaVuSans-32"/>
       <use x="63.623046875" xlink:href="#DejaVuSans-30"/>
       <use x="127.24609375" xlink:href="#DejaVuSans-30"/>
       <use x="190.869140625" xlink:href="#DejaVuSans-37"/>
      </g>
     </g>
    </g>
    <g id="xtick_3">
     <g id="line2d_10">
      <path clip-path="url(#p7ff5b81e1d)" d="
M216.127 388.8
L216.127 43.2" style="fill:none;stroke:#000000;stroke-dasharray:1.000000,3.000000;stroke-dashoffset:0.0;stroke-linecap:butt;stroke-width:0.5;"/>
     </g>
     <g id="line2d_11">
      <g>
       <use style="stroke:#000000;stroke-linecap:butt;stroke-width:0.5;" x="216.127317073" xlink:href="#mcb557df647" y="388.8"/>
      </g>
     </g>
     <g id="line2d_12">
      <g>
       <use style="stroke:#000000;stroke-linecap:butt;stroke-width:0.5;" x="216.127317073" xlink:href="#mdad270ee8e" y="43.2"/>
      </g>
     </g>
     <g id="text_3">
      <!-- 2008 -->
      <defs>
       <path d="
M31.7812 34.625
Q24.75 34.625 20.7188 30.8594
Q16.7031 27.0938 16.7031 20.5156
Q16.7031 13.9219 20.7188 10.1562
Q24.75 6.39062 31.7812 6.39062
Q38.8125 6.39062 42.8594 10.1719
Q46.9219 13.9688 46.9219 20.5156
Q46.9219 27.0938 42.8906 30.8594
Q38.875 34.625 31.7812 34.625
M21.9219 38.8125
Q15.5781 40.375 12.0312 44.7188
Q8.5 49.0781 8.5 55.3281
Q8.5 64.0625 14.7188 69.1406
Q20.9531 74.2188 31.7812 74.2188
Q42.6719 74.2188 48.875 69.1406
Q55.0781 64.0625 55.0781 55.3281
Q55.0781 49.0781 51.5312 44.7188
Q48 40.375 41.7031 38.8125
Q48.8281 37.1562 52.7969 32.3125
Q56.7812 27.4844 56.7812 20.5156
Q56.7812 9.90625 50.3125 4.23438
Q43.8438 -1.42188 31.7812 -1.42188
Q19.7344 -1.42188 13.25 4.23438
Q6.78125 9.90625 6.78125 20.5156
Q6.78125 27.4844 10.7812 32.3125
Q14.7969 37.1562 21.9219 38.8125
M18.3125 54.3906
Q18.3125 48.7344 21.8438 45.5625
Q25.3906 42.3906 31.7812 42.3906
Q38.1406 42.3906 41.7188 45.5625
Q45.3125 48.7344 45.3125 54.3906
Q45.3125 60.0625 41.7188 63.2344
Q38.1406 66.4062 31.7812 66.4062
Q25.3906 66.4062 21.8438 63.2344
Q18.3125 60.0625 18.3125 54.3906" id="DejaVuSans-38"/>
      </defs>
      <g transform="translate(201.707629573 401.70625)scale(0.12 -0.12)">
       <use xlink:href="#DejaVuSans-32"/>
       <use x="63.623046875" xlink:href="#DejaVuSans-30"/>
       <use x="127.24609375" xlink:href="#DejaVuSans-30"/>
       <use x="190.869140625" xlink:href="#DejaVuSans-38"/>
      </g>
     </g>
    </g>
    <g id="xtick_4">
     <g id="line2d_13">
      <path clip-path="url(#p7ff5b81e1d)" d="
M265.939 388.8
L265.939 43.2" style="fill:none;stroke:#000000;stroke-dasharray:1.000000,3.000000;stroke-dashoffset:0.0;stroke-linecap:butt;stroke-width:0.5;"/>
     </g>
     <g id="line2d_14">
      <g>
       <use style="stroke:#000000;stroke-linecap:butt;stroke-width:0.5;" x="265.93902439" xlink:href="#mcb557df647" y="388.8"/>
      </g>
     </g>
     <g id="line2d_15">
      <g>
       <use style="stroke:#000000;stroke-linecap:butt;stroke-width:0.5;" x="265.93902439" xlink:href="#mdad270ee8e" y="43.2"/>
      </g>
     </g>
     <g id="text_4">
      <!-- 2009 -->
      <defs>
       <path d="
M10.9844 1.51562
L10.9844 10.5
Q14.7031 8.73438 18.5 7.8125
Q22.3125 6.89062 25.9844 6.89062
Q35.75 6.89062 40.8906 13.4531
Q46.0469 20.0156 46.7812 33.4062
Q43.9531 29.2031 39.5938 26.9531
Q35.25 24.7031 29.9844 24.7031
Q19.0469 24.7031 12.6719 31.3125
Q6.29688 37.9375 6.29688 49.4219
Q6.29688 60.6406 12.9375 67.4219
Q19.5781 74.2188 30.6094 74.2188
Q43.2656 74.2188 49.9219 64.5156
Q56.5938 54.8281 56.5938 36.375
Q56.5938 19.1406 48.4062 8.85938
Q40.2344 -1.42188 26.4219 -1.42188
Q22.7031 -1.42188 18.8906 -0.6875
Q15.0938 0.046875 10.9844 1.51562
M30.6094 32.4219
Q37.25 32.4219 41.125 36.9531
Q45.0156 41.5 45.0156 49.4219
Q45.0156 57.2812 41.125 61.8438
Q37.25 66.4062 30.6094 66.4062
Q23.9688 66.4062 20.0938 61.8438
Q16.2188 57.2812 16.2188 49.4219
Q16.2188 41.5 20.0938 36.9531
Q23.9688 32.4219 30.6094 32.4219" id="DejaVuSans-39"/>
      </defs>
      <g transform="translate(251.53058689 401.70625)scale(0.12 -0.12)">
       <use xlink:href="#DejaVuSans-32"/>
       <use x="63.623046875" xlink:href="#DejaVuSans-30"/>
       <use x="127.24609375" xlink:href="#DejaVuSans-30"/>
       <use x="190.869140625" xlink:href="#DejaVuSans-39"/>
      </g>
     </g>
    </g>
    <g id="xtick_5">
     <g id="line2d_16">
      <path clip-path="url(#p7ff5b81e1d)" d="
M315.615 388.8
L315.615 43.2" style="fill:none;stroke:#000000;stroke-dasharray:1.000000,3.000000;stroke-dashoffset:0.0;stroke-linecap:butt;stroke-width:0.5;"/>
     </g>
     <g id="line2d_17">
      <g>
       <use style="stroke:#000000;stroke-linecap:butt;stroke-width:0.5;" x="315.614634146" xlink:href="#mcb557df647" y="388.8"/>
      </g>
     </g>
     <g id="line2d_18">
      <g>
       <use style="stroke:#000000;stroke-linecap:butt;stroke-width:0.5;" x="315.614634146" xlink:href="#mdad270ee8e" y="43.2"/>
      </g>
     </g>
     <g id="text_5">
      <!-- 2010 -->
      <defs>
       <path d="
M12.4062 8.29688
L28.5156 8.29688
L28.5156 63.9219
L10.9844 60.4062
L10.9844 69.3906
L28.4219 72.9062
L38.2812 72.9062
L38.2812 8.29688
L54.3906 8.29688
L54.3906 0
L12.4062 0
z
" id="DejaVuSans-31"/>
      </defs>
      <g transform="translate(301.182759146 401.70625)scale(0.12 -0.12)">
       <use xlink:href="#DejaVuSans-32"/>
       <use x="63.623046875" xlink:href="#DejaVuSans-30"/>
       <use x="127.24609375" xlink:href="#DejaVuSans-31"/>
       <use x="190.869140625" xlink:href="#DejaVuSans-30"/>
      </g>
     </g>
    </g>
    <g id="xtick_6">
     <g id="line2d_19">
      <path clip-path="url(#p7ff5b81e1d)" d="
M365.29 388.8
L365.29 43.2" style="fill:none;stroke:#000000;stroke-dasharray:1.000000,3.000000;stroke-dashoffset:0.0;stroke-linecap:butt;stroke-width:0.5;"/>
     </g>
     <g id="line2d_20">
      <g>
       <use style="stroke:#000000;stroke-linecap:butt;stroke-width:0.5;" x="365.290243902" xlink:href="#mcb557df647" y="388.8"/>
      </g>
     </g>
     <g id="line2d_21">
      <g>
       <use style="stroke:#000000;stroke-linecap:butt;stroke-width:0.5;" x="365.290243902" xlink:href="#mdad270ee8e" y="43.2"/>
      </g>
     </g>
     <g id="text_6">
      <!-- 2011 -->
      <g transform="translate(351.013993902 401.70625)scale(0.12 -0.12)">
       <use xlink:href="#DejaVuSans-32"/>
       <use x="63.623046875" xlink:href="#DejaVuSans-30"/>
       <use x="127.24609375" xlink:href="#DejaVuSans-31"/>
       <use x="190.869140625" xlink:href="#DejaVuSans-31"/>
      </g>
     </g>
    </g>
    <g id="xtick_7">
     <g id="line2d_22">
      <path clip-path="url(#p7ff5b81e1d)" d="
M414.966 388.8
L414.966 43.2" style="fill:none;stroke:#000000;stroke-dasharray:1.000000,3.000000;stroke-dashoffset:0.0;stroke-linecap:butt;stroke-width:0.5;"/>
     </g>
     <g id="line2d_23">
      <g>
       <use style="stroke:#000000;stroke-linecap:butt;stroke-width:0.5;" x="414.965853659" xlink:href="#mcb557df647" y="388.8"/>
      </g>
     </g>
     <g id="line2d_24">
      <g>
       <use style="stroke:#000000;stroke-linecap:butt;stroke-width:0.5;" x="414.965853659" xlink:href="#mdad270ee8e" y="43.2"/>
      </g>
     </g>
     <g id="text_7">
      <!-- 2012 -->
      <g transform="translate(400.736478659 401.70625)scale(0.12 -0.12)">
       <use xlink:href="#DejaVuSans-32"/>
       <use x="63.623046875" xlink:href="#DejaVuSans-30"/>
       <use x="127.24609375" xlink:href="#DejaVuSans-31"/>
       <use x="190.869140625" xlink:href="#DejaVuSans-32"/>
      </g>
     </g>
    </g>
    <g id="xtick_8">
     <g id="line2d_25">
      <path clip-path="url(#p7ff5b81e1d)" d="
M464.778 388.8
L464.778 43.2" style="fill:none;stroke:#000000;stroke-dasharray:1.000000,3.000000;stroke-dashoffset:0.0;stroke-linecap:butt;stroke-width:0.5;"/>
     </g>
     <g id="line2d_26">
      <g>
       <use style="stroke:#000000;stroke-linecap:butt;stroke-width:0.5;" x="464.777560976" xlink:href="#mcb557df647" y="388.8"/>
      </g>
     </g>
     <g id="line2d_27">
      <g>
       <use style="stroke:#000000;stroke-linecap:butt;stroke-width:0.5;" x="464.777560976" xlink:href="#mdad270ee8e" y="43.2"/>
      </g>
     </g>
     <g id="text_8">
      <!-- 2013 -->
      <defs>
       <path d="
M40.5781 39.3125
Q47.6562 37.7969 51.625 33
Q55.6094 28.2188 55.6094 21.1875
Q55.6094 10.4062 48.1875 4.48438
Q40.7656 -1.42188 27.0938 -1.42188
Q22.5156 -1.42188 17.6562 -0.515625
Q12.7969 0.390625 7.625 2.20312
L7.625 11.7188
Q11.7188 9.32812 16.5938 8.10938
Q21.4844 6.89062 26.8125 6.89062
Q36.0781 6.89062 40.9375 10.5469
Q45.7969 14.2031 45.7969 21.1875
Q45.7969 27.6406 41.2812 31.2656
Q36.7656 34.9062 28.7188 34.9062
L20.2188 34.9062
L20.2188 43.0156
L29.1094 43.0156
Q36.375 43.0156 40.2344 45.9219
Q44.0938 48.8281 44.0938 54.2969
Q44.0938 59.9062 40.1094 62.9062
Q36.1406 65.9219 28.7188 65.9219
Q24.6562 65.9219 20.0156 65.0312
Q15.375 64.1562 9.8125 62.3125
L9.8125 71.0938
Q15.4375 72.6562 20.3438 73.4375
Q25.25 74.2188 29.5938 74.2188
Q40.8281 74.2188 47.3594 69.1094
Q53.9062 64.0156 53.9062 55.3281
Q53.9062 49.2656 50.4375 45.0938
Q46.9688 40.9219 40.5781 39.3125" id="DejaVuSans-33"/>
      </defs>
      <g transform="translate(450.428185976 401.70625)scale(0.12 -0.12)">
       <use xlink:href="#DejaVuSans-32"/>
       <use x="63.623046875" xlink:href="#DejaVuSans-30"/>
       <use x="127.24609375" xlink:href="#DejaVuSans-31"/>
       <use x="190.869140625" xlink:href="#DejaVuSans-33"/>
      </g>
     </g>
    </g>
    <g id="xtick_9">
     <g id="line2d_28">
      <path clip-path="url(#p7ff5b81e1d)" d="
M514.453 388.8
L514.453 43.2" style="fill:none;stroke:#000000;stroke-dasharray:1.000000,3.000000;stroke-dashoffset:0.0;stroke-linecap:butt;stroke-width:0.5;"/>
     </g>
     <g id="line2d_29">
      <g>
       <use style="stroke:#000000;stroke-linecap:butt;stroke-width:0.5;" x="514.453170732" xlink:href="#mcb557df647" y="388.8"/>
      </g>
     </g>
     <g id="line2d_30">
      <g>
       <use style="stroke:#000000;stroke-linecap:butt;stroke-width:0.5;" x="514.453170732" xlink:href="#mdad270ee8e" y="43.2"/>
      </g>
     </g>
     <g id="text_9">
      <!-- 2014 -->
      <defs>
       <path d="
M37.7969 64.3125
L12.8906 25.3906
L37.7969 25.3906
z

M35.2031 72.9062
L47.6094 72.9062
L47.6094 25.3906
L58.0156 25.3906
L58.0156 17.1875
L47.6094 17.1875
L47.6094 0
L37.7969 0
L37.7969 17.1875
L4.89062 17.1875
L4.89062 26.7031
z
" id="DejaVuSans-34"/>
      </defs>
      <g transform="translate(499.959420732 401.70625)scale(0.12 -0.12)">
       <use xlink:href="#DejaVuSans-32"/>
       <use x="63.623046875" xlink:href="#DejaVuSans-30"/>
       <use x="127.24609375" xlink:href="#DejaVuSans-31"/>
       <use x="190.869140625" xlink:href="#DejaVuSans-34"/>
      </g>
     </g>
    </g>
   </g>
   <g id="matplotlib.axis_2">
    <g id="ytick_1">
     <g id="line2d_31">
      <path clip-path="url(#p7ff5b81e1d)" d="
M72 388.8
L518.4 388.8" style="fill:none;stroke:#000000;stroke-dasharray:1.000000,3.000000;stroke-dashoffset:0.0;stroke-linecap:butt;stroke-width:0.5;"/>
     </g>
     <g id="line2d_32">
      <defs>
       <path d="
M0 0
L4 0" id="mc8fcea1516" style="stroke:#000000;stroke-linecap:butt;stroke-width:0.5;"/>
      </defs>
      <g>
       <use style="stroke:#000000;stroke-linecap:butt;stroke-width:0.5;" x="72.0" xlink:href="#mc8fcea1516" y="388.8"/>
      </g>
     </g>
     <g id="line2d_33">
      <defs>
       <path d="
M0 0
L-4 0" id="m0d5b0a6425" style="stroke:#000000;stroke-linecap:butt;stroke-width:0.5;"/>
      </defs>
      <g>
       <use style="stroke:#000000;stroke-linecap:butt;stroke-width:0.5;" x="518.4" xlink:href="#m0d5b0a6425" y="388.8"/>
      </g>
     </g>
     <g id="text_10">
      <!-- 4 -->
      <g transform="translate(61.625 393.174375)scale(0.12 -0.12)">
       <use xlink:href="#DejaVuSans-34"/>
      </g>
     </g>
    </g>
    <g id="ytick_2">
     <g id="line2d_34">
      <path clip-path="url(#p7ff5b81e1d)" d="
M72 350.4
L518.4 350.4" style="fill:none;stroke:#000000;stroke-dasharray:1.000000,3.000000;stroke-dashoffset:0.0;stroke-linecap:butt;stroke-width:0.5;"/>
     </g>
     <g id="line2d_35">
      <g>
       <use style="stroke:#000000;stroke-linecap:butt;stroke-width:0.5;" x="72.0" xlink:href="#mc8fcea1516" y="350.4"/>
      </g>
     </g>
     <g id="line2d_36">
      <g>
       <use style="stroke:#000000;stroke-linecap:butt;stroke-width:0.5;" x="518.4" xlink:href="#m0d5b0a6425" y="350.4"/>
      </g>
     </g>
     <g id="text_11">
      <!-- 6 -->
      <g transform="translate(61.95875 354.7678125)scale(0.12 -0.12)">
       <use xlink:href="#DejaVuSans-36"/>
      </g>
     </g>
    </g>
    <g id="ytick_3">
     <g id="line2d_37">
      <path clip-path="url(#p7ff5b81e1d)" d="
M72 312
L518.4 312" style="fill:none;stroke:#000000;stroke-dasharray:1.000000,3.000000;stroke-dashoffset:0.0;stroke-linecap:butt;stroke-width:0.5;"/>
     </g>
     <g id="line2d_38">
      <g>
       <use style="stroke:#000000;stroke-linecap:butt;stroke-width:0.5;" x="72.0" xlink:href="#mc8fcea1516" y="312.0"/>
      </g>
     </g>
     <g id="line2d_39">
      <g>
       <use style="stroke:#000000;stroke-linecap:butt;stroke-width:0.5;" x="518.4" xlink:href="#m0d5b0a6425" y="312.0"/>
      </g>
     </g>
     <g id="text_12">
      <!-- 8 -->
      <g transform="translate(62.0 316.3678125)scale(0.12 -0.12)">
       <use xlink:href="#DejaVuSans-38"/>
      </g>
     </g>
    </g>
    <g id="ytick_4">
     <g id="line2d_40">
      <path clip-path="url(#p7ff5b81e1d)" d="
M72 273.6
L518.4 273.6" style="fill:none;stroke:#000000;stroke-dasharray:1.000000,3.000000;stroke-dashoffset:0.0;stroke-linecap:butt;stroke-width:0.5;"/>
     </g>
     <g id="line2d_41">
      <g>
       <use style="stroke:#000000;stroke-linecap:butt;stroke-width:0.5;" x="72.0" xlink:href="#mc8fcea1516" y="273.6"/>
      </g>
     </g>
     <g id="line2d_42">
      <g>
       <use style="stroke:#000000;stroke-linecap:butt;stroke-width:0.5;" x="518.4" xlink:href="#m0d5b0a6425" y="273.6"/>
      </g>
     </g>
     <g id="text_13">
      <!-- 10 -->
      <g transform="translate(54.845 277.9678125)scale(0.12 -0.12)">
       <use xlink:href="#DejaVuSans-31"/>
       <use x="63.623046875" xlink:href="#DejaVuSans-30"/>
      </g>
     </g>
    </g>
    <g id="ytick_5">
     <g id="line2d_43">
      <path clip-path="url(#p7ff5b81e1d)" d="
M72 235.2
L518.4 235.2" style="fill:none;stroke:#000000;stroke-dasharray:1.000000,3.000000;stroke-dashoffset:0.0;stroke-linecap:butt;stroke-width:0.5;"/>
     </g>
     <g id="line2d_44">
      <g>
       <use style="stroke:#000000;stroke-linecap:butt;stroke-width:0.5;" x="72.0" xlink:href="#mc8fcea1516" y="235.2"/>
      </g>
     </g>
     <g id="line2d_45">
      <g>
       <use style="stroke:#000000;stroke-linecap:butt;stroke-width:0.5;" x="518.4" xlink:href="#m0d5b0a6425" y="235.2"/>
      </g>
     </g>
     <g id="text_14">
      <!-- 12 -->
      <g transform="translate(55.25 239.653125)scale(0.12 -0.12)">
       <use xlink:href="#DejaVuSans-31"/>
       <use x="63.623046875" xlink:href="#DejaVuSans-32"/>
      </g>
     </g>
    </g>
    <g id="ytick_6">
     <g id="line2d_46">
      <path clip-path="url(#p7ff5b81e1d)" d="
M72 196.8
L518.4 196.8" style="fill:none;stroke:#000000;stroke-dasharray:1.000000,3.000000;stroke-dashoffset:0.0;stroke-linecap:butt;stroke-width:0.5;"/>
     </g>
     <g id="line2d_47">
      <g>
       <use style="stroke:#000000;stroke-linecap:butt;stroke-width:0.5;" x="72.0" xlink:href="#mc8fcea1516" y="196.8"/>
      </g>
     </g>
     <g id="line2d_48">
      <g>
       <use style="stroke:#000000;stroke-linecap:butt;stroke-width:0.5;" x="518.4" xlink:href="#m0d5b0a6425" y="196.8"/>
      </g>
     </g>
     <g id="text_15">
      <!-- 14 -->
      <g transform="translate(54.72125 201.174375)scale(0.12 -0.12)">
       <use xlink:href="#DejaVuSans-31"/>
       <use x="63.623046875" xlink:href="#DejaVuSans-34"/>
      </g>
     </g>
    </g>
    <g id="ytick_7">
     <g id="line2d_49">
      <path clip-path="url(#p7ff5b81e1d)" d="
M72 158.4
L518.4 158.4" style="fill:none;stroke:#000000;stroke-dasharray:1.000000,3.000000;stroke-dashoffset:0.0;stroke-linecap:butt;stroke-width:0.5;"/>
     </g>
     <g id="line2d_50">
      <g>
       <use style="stroke:#000000;stroke-linecap:butt;stroke-width:0.5;" x="72.0" xlink:href="#mc8fcea1516" y="158.4"/>
      </g>
     </g>
     <g id="line2d_51">
      <g>
       <use style="stroke:#000000;stroke-linecap:butt;stroke-width:0.5;" x="518.4" xlink:href="#m0d5b0a6425" y="158.4"/>
      </g>
     </g>
     <g id="text_16">
      <!-- 16 -->
      <g transform="translate(54.80375 162.7678125)scale(0.12 -0.12)">
       <use xlink:href="#DejaVuSans-31"/>
       <use x="63.623046875" xlink:href="#DejaVuSans-36"/>
      </g>
     </g>
    </g>
    <g id="ytick_8">
     <g id="line2d_52">
      <path clip-path="url(#p7ff5b81e1d)" d="
M72 120
L518.4 120" style="fill:none;stroke:#000000;stroke-dasharray:1.000000,3.000000;stroke-dashoffset:0.0;stroke-linecap:butt;stroke-width:0.5;"/>
     </g>
     <g id="line2d_53">
      <g>
       <use style="stroke:#000000;stroke-linecap:butt;stroke-width:0.5;" x="72.0" xlink:href="#mc8fcea1516" y="120.0"/>
      </g>
     </g>
     <g id="line2d_54">
      <g>
       <use style="stroke:#000000;stroke-linecap:butt;stroke-width:0.5;" x="518.4" xlink:href="#m0d5b0a6425" y="120.0"/>
      </g>
     </g>
     <g id="text_17">
      <!-- 18 -->
      <g transform="translate(54.869375 124.3678125)scale(0.12 -0.12)">
       <use xlink:href="#DejaVuSans-31"/>
       <use x="63.623046875" xlink:href="#DejaVuSans-38"/>
      </g>
     </g>
    </g>
    <g id="ytick_9">
     <g id="line2d_55">
      <path clip-path="url(#p7ff5b81e1d)" d="
M72 81.6
L518.4 81.6" style="fill:none;stroke:#000000;stroke-dasharray:1.000000,3.000000;stroke-dashoffset:0.0;stroke-linecap:butt;stroke-width:0.5;"/>
     </g>
     <g id="line2d_56">
      <g>
       <use style="stroke:#000000;stroke-linecap:butt;stroke-width:0.5;" x="72.0" xlink:href="#mc8fcea1516" y="81.6"/>
      </g>
     </g>
     <g id="line2d_57">
      <g>
       <use style="stroke:#000000;stroke-linecap:butt;stroke-width:0.5;" x="518.4" xlink:href="#m0d5b0a6425" y="81.6"/>
      </g>
     </g>
     <g id="text_18">
      <!-- 20 -->
      <g transform="translate(54.40625 85.9678125)scale(0.12 -0.12)">
       <use xlink:href="#DejaVuSans-32"/>
       <use x="63.623046875" xlink:href="#DejaVuSans-30"/>
      </g>
     </g>
    </g>
    <g id="ytick_10">
     <g id="line2d_58">
      <path clip-path="url(#p7ff5b81e1d)" d="
M72 43.2
L518.4 43.2" style="fill:none;stroke:#000000;stroke-dasharray:1.000000,3.000000;stroke-dashoffset:0.0;stroke-linecap:butt;stroke-width:0.5;"/>
     </g>
     <g id="line2d_59">
      <g>
       <use style="stroke:#000000;stroke-linecap:butt;stroke-width:0.5;" x="72.0" xlink:href="#mc8fcea1516" y="43.2"/>
      </g>
     </g>
     <g id="line2d_60">
      <g>
       <use style="stroke:#000000;stroke-linecap:butt;stroke-width:0.5;" x="518.4" xlink:href="#m0d5b0a6425" y="43.2"/>
      </g>
     </g>
     <g id="text_19">
      <!-- 22 -->
      <g transform="translate(54.81125 47.653125)scale(0.12 -0.12)">
       <use xlink:href="#DejaVuSans-32"/>
       <use x="63.623046875" xlink:href="#DejaVuSans-32"/>
      </g>
     </g>
    </g>
   </g>
   <g id="patch_3">
    <path d="
M72 43.2
L518.4 43.2" style="fill:none;stroke:#000000;"/>
   </g>
   <g id="patch_4">
    <path d="
M518.4 388.8
L518.4 43.2" style="fill:none;stroke:#000000;"/>
   </g>
   <g id="patch_5">
    <path d="
M72 388.8
L518.4 388.8" style="fill:none;stroke:#000000;"/>
   </g>
   <g id="patch_6">
    <path d="
M72 388.8
L72 43.2" style="fill:none;stroke:#000000;"/>
   </g>
   <g id="text_20">
    <!--  -->
    <g transform="translate(295.2 -22.6589)scale(0.144 -0.144)"/>
    <!-- model: (15, 20) - ../data/csv/19-05/wholesale-daily-('Uttar Pradesh', 'Bareilly', 'Rice', 'Coarse', 0.83).csv,  -->
    <defs>
     <path d="
M19.6719 64.7969
L19.6719 37.4062
L32.0781 37.4062
Q38.9688 37.4062 42.7188 40.9688
Q46.4844 44.5312 46.4844 51.125
Q46.4844 57.6719 42.7188 61.2344
Q38.9688 64.7969 32.0781 64.7969
z

M9.8125 72.9062
L32.0781 72.9062
Q44.3438 72.9062 50.6094 67.3594
Q56.8906 61.8125 56.8906 51.125
Q56.8906 40.3281 50.6094 34.8125
Q44.3438 29.2969 32.0781 29.2969
L19.6719 29.2969
L19.6719 0
L9.8125 0
z
" id="DejaVuSans-50"/>
     <path d="
M11.7188 12.4062
L22.0156 12.4062
L22.0156 0
L11.7188 0
z

M11.7188 51.7031
L22.0156 51.7031
L22.0156 39.3125
L11.7188 39.3125
z
" id="DejaVuSans-3a"/>
     <path id="DejaVuSans-20"/>
     <path d="
M17.9219 72.9062
L17.9219 45.7969
L9.625 45.7969
L9.625 72.9062
z
" id="DejaVuSans-27"/>
     <path d="
M54.8906 33.0156
L54.8906 0
L45.9062 0
L45.9062 32.7188
Q45.9062 40.4844 42.875 44.3281
Q39.8438 48.1875 33.7969 48.1875
Q26.5156 48.1875 22.3125 43.5469
Q18.1094 38.9219 18.1094 30.9062
L18.1094 0
L9.07812 0
L9.07812 75.9844
L18.1094 75.9844
L18.1094 46.1875
Q21.3438 51.125 25.7031 53.5625
Q30.0781 56 35.7969 56
Q45.2188 56 50.0469 50.1719
Q54.8906 44.3438 54.8906 33.0156" id="DejaVuSans-68"/>
     <path d="
M9.42188 54.6875
L18.4062 54.6875
L18.4062 0
L9.42188 0
z

M9.42188 75.9844
L18.4062 75.9844
L18.4062 64.5938
L9.42188 64.5938
z
" id="DejaVuSans-69"/>
     <path d="
M32.1719 -5.07812
Q28.375 -14.8438 24.75 -17.8125
Q21.1406 -20.7969 15.0938 -20.7969
L7.90625 -20.7969
L7.90625 -13.2812
L13.1875 -13.2812
Q16.8906 -13.2812 18.9375 -11.5156
Q21 -9.76562 23.4844 -3.21875
L25.0938 0.875
L2.98438 54.6875
L12.5 54.6875
L29.5938 11.9219
L46.6875 54.6875
L56.2031 54.6875
z
" id="DejaVuSans-79"/>
     <path d="
M45.4062 46.3906
L45.4062 75.9844
L54.3906 75.9844
L54.3906 0
L45.4062 0
L45.4062 8.20312
Q42.5781 3.32812 38.25 0.953125
Q33.9375 -1.42188 27.875 -1.42188
Q17.9688 -1.42188 11.7344 6.48438
Q5.51562 14.4062 5.51562 27.2969
Q5.51562 40.1875 11.7344 48.0938
Q17.9688 56 27.875 56
Q33.9375 56 38.25 53.625
Q42.5781 51.2656 45.4062 46.3906
M14.7969 27.2969
Q14.7969 17.3906 18.875 11.75
Q22.9531 6.10938 30.0781 6.10938
Q37.2031 6.10938 41.2969 11.75
Q45.4062 17.3906 45.4062 27.2969
Q45.4062 37.2031 41.2969 42.8438
Q37.2031 48.4844 30.0781 48.4844
Q22.9531 48.4844 18.875 42.8438
Q14.7969 37.2031 14.7969 27.2969" id="DejaVuSans-64"/>
     <path d="
M8.01562 75.875
L15.8281 75.875
Q23.1406 64.3594 26.7812 53.3125
Q30.4219 42.2812 30.4219 31.3906
Q30.4219 20.4531 26.7812 9.375
Q23.1406 -1.70312 15.8281 -13.1875
L8.01562 -13.1875
Q14.5 -2 17.7031 9.0625
Q20.9062 20.125 20.9062 31.3906
Q20.9062 42.6719 17.7031 53.6562
Q14.5 64.6562 8.01562 75.875" id="DejaVuSans-29"/>
     <path d="
M48.7812 52.5938
L48.7812 44.1875
Q44.9688 46.2969 41.1406 47.3438
Q37.3125 48.3906 33.4062 48.3906
Q24.6562 48.3906 19.8125 42.8438
Q14.9844 37.3125 14.9844 27.2969
Q14.9844 17.2812 19.8125 11.7344
Q24.6562 6.20312 33.4062 6.20312
Q37.3125 6.20312 41.1406 7.25
Q44.9688 8.29688 48.7812 10.4062
L48.7812 2.09375
Q45.0156 0.34375 40.9844 -0.53125
Q36.9688 -1.42188 32.4219 -1.42188
Q20.0625 -1.42188 12.7812 6.34375
Q5.51562 14.1094 5.51562 27.2969
Q5.51562 40.6719 12.8594 48.3281
Q20.2188 56 33.0156 56
Q37.1562 56 41.1094 55.1406
Q45.0625 54.2969 48.7812 52.5938" id="DejaVuSans-63"/>
     <path d="
M34.2812 27.4844
Q23.3906 27.4844 19.1875 25
Q14.9844 22.5156 14.9844 16.5
Q14.9844 11.7188 18.1406 8.90625
Q21.2969 6.10938 26.7031 6.10938
Q34.1875 6.10938 38.7031 11.4062
Q43.2188 16.7031 43.2188 25.4844
L43.2188 27.4844
z

M52.2031 31.2031
L52.2031 0
L43.2188 0
L43.2188 8.29688
Q40.1406 3.32812 35.5469 0.953125
Q30.9531 -1.42188 24.3125 -1.42188
Q15.9219 -1.42188 10.9531 3.29688
Q6 8.01562 6 15.9219
Q6 25.1406 12.1719 29.8281
Q18.3594 34.5156 30.6094 34.5156
L43.2188 34.5156
L43.2188 35.4062
Q43.2188 41.6094 39.1406 45
Q35.0625 48.3906 27.6875 48.3906
Q23 48.3906 18.5469 47.2656
Q14.1094 46.1406 10.0156 43.8906
L10.0156 52.2031
Q14.9375 54.1094 19.5781 55.0469
Q24.2188 56 28.6094 56
Q40.4844 56 46.3438 49.8438
Q52.2031 43.7031 52.2031 31.2031" id="DejaVuSans-61"/>
     <path d="
M19.6719 34.8125
L19.6719 8.10938
L35.5 8.10938
Q43.4531 8.10938 47.2812 11.4062
Q51.125 14.7031 51.125 21.4844
Q51.125 28.3281 47.2812 31.5625
Q43.4531 34.8125 35.5 34.8125
z

M19.6719 64.7969
L19.6719 42.8281
L34.2812 42.8281
Q41.5 42.8281 45.0312 45.5312
Q48.5781 48.25 48.5781 53.8125
Q48.5781 59.3281 45.0312 62.0625
Q41.5 64.7969 34.2812 64.7969
z

M9.8125 72.9062
L35.0156 72.9062
Q46.2969 72.9062 52.3906 68.2188
Q58.5 63.5312 58.5 54.8906
Q58.5 48.1875 55.375 44.2344
Q52.25 40.2812 46.1875 39.3125
Q53.4688 37.75 57.5 32.7812
Q61.5312 27.8281 61.5312 20.4062
Q61.5312 10.6406 54.8906 5.3125
Q48.25 0 35.9844 0
L9.8125 0
z
" id="DejaVuSans-42"/>
     <path d="
M64.4062 67.2812
L64.4062 56.8906
Q59.4219 61.5312 53.7812 63.8125
Q48.1406 66.1094 41.7969 66.1094
Q29.2969 66.1094 22.6562 58.4688
Q16.0156 50.8281 16.0156 36.375
Q16.0156 21.9688 22.6562 14.3281
Q29.2969 6.6875 41.7969 6.6875
Q48.1406 6.6875 53.7812 8.98438
Q59.4219 11.2812 64.4062 15.9219
L64.4062 5.60938
Q59.2344 2.09375 53.4375 0.328125
Q47.6562 -1.42188 41.2188 -1.42188
Q24.6562 -1.42188 15.125 8.70312
Q5.60938 18.8438 5.60938 36.375
Q5.60938 53.9531 15.125 64.0781
Q24.6562 74.2188 41.2188 74.2188
Q47.75 74.2188 53.5312 72.4844
Q59.3281 70.75 64.4062 67.2812" id="DejaVuSans-43"/>
     <path d="
M44.3906 34.1875
Q47.5625 33.1094 50.5625 29.5938
Q53.5625 26.0781 56.5938 19.9219
L66.6094 0
L56 0
L46.6875 18.7031
Q43.0625 26.0312 39.6719 28.4219
Q36.2812 30.8125 30.4219 30.8125
L19.6719 30.8125
L19.6719 0
L9.8125 0
L9.8125 72.9062
L32.0781 72.9062
Q44.5781 72.9062 50.7344 67.6719
Q56.8906 62.4531 56.8906 51.9062
Q56.8906 45.0156 53.6875 40.4688
Q50.4844 35.9375 44.3906 34.1875
M19.6719 64.7969
L19.6719 38.9219
L32.0781 38.9219
Q39.2031 38.9219 42.8438 42.2188
Q46.4844 45.5156 46.4844 51.9062
Q46.4844 58.2969 42.8438 61.5469
Q39.2031 64.7969 32.0781 64.7969
z
" id="DejaVuSans-52"/>
     <path d="
M31 75.875
Q24.4688 64.6562 21.2812 53.6562
Q18.1094 42.6719 18.1094 31.3906
Q18.1094 20.125 21.3125 9.0625
Q24.5156 -2 31 -13.1875
L23.1875 -13.1875
Q15.875 -1.70312 12.2344 9.375
Q8.59375 20.4531 8.59375 31.3906
Q8.59375 42.2812 12.2031 53.3125
Q15.8281 64.3594 23.1875 75.875
z
" id="DejaVuSans-28"/>
     <path d="
M11.7188 12.4062
L22.0156 12.4062
L22.0156 4
L14.0156 -11.625
L7.71875 -11.625
L11.7188 4
z
" id="DejaVuSans-2c"/>
     <path d="
M56.2031 29.5938
L56.2031 25.2031
L14.8906 25.2031
Q15.4844 15.9219 20.4844 11.0625
Q25.4844 6.20312 34.4219 6.20312
Q39.5938 6.20312 44.4531 7.46875
Q49.3125 8.73438 54.1094 11.2812
L54.1094 2.78125
Q49.2656 0.734375 44.1875 -0.34375
Q39.1094 -1.42188 33.8906 -1.42188
Q20.7969 -1.42188 13.1562 6.1875
Q5.51562 13.8125 5.51562 26.8125
Q5.51562 40.2344 12.7656 48.1094
Q20.0156 56 32.3281 56
Q43.3594 56 49.7812 48.8906
Q56.2031 41.7969 56.2031 29.5938
M47.2188 32.2344
Q47.125 39.5938 43.0938 43.9844
Q39.0625 48.3906 32.4219 48.3906
Q24.9062 48.3906 20.3906 44.1406
Q15.875 39.8906 15.1875 32.1719
z
" id="DejaVuSans-65"/>
     <path d="
M25.3906 72.9062
L33.6875 72.9062
L8.29688 -9.28125
L0 -9.28125
z
" id="DejaVuSans-2f"/>
     <path d="
M4.89062 31.3906
L31.2031 31.3906
L31.2031 23.3906
L4.89062 23.3906
z
" id="DejaVuSans-2d"/>
     <path d="
M10.6875 12.4062
L21 12.4062
L21 0
L10.6875 0
z
" id="DejaVuSans-2e"/>
     <path d="
M30.6094 48.3906
Q23.3906 48.3906 19.1875 42.75
Q14.9844 37.1094 14.9844 27.2969
Q14.9844 17.4844 19.1562 11.8438
Q23.3438 6.20312 30.6094 6.20312
Q37.7969 6.20312 41.9844 11.8594
Q46.1875 17.5312 46.1875 27.2969
Q46.1875 37.0156 41.9844 42.7031
Q37.7969 48.3906 30.6094 48.3906
M30.6094 56
Q42.3281 56 49.0156 48.375
Q55.7188 40.7656 55.7188 27.2969
Q55.7188 13.875 49.0156 6.21875
Q42.3281 -1.42188 30.6094 -1.42188
Q18.8438 -1.42188 12.1719 6.21875
Q5.51562 13.875 5.51562 27.2969
Q5.51562 40.7656 12.1719 48.375
Q18.8438 56 30.6094 56" id="DejaVuSans-6f"/>
     <path d="
M52 44.1875
Q55.375 50.25 60.0625 53.125
Q64.75 56 71.0938 56
Q79.6406 56 84.2812 50.0156
Q88.9219 44.0469 88.9219 33.0156
L88.9219 0
L79.8906 0
L79.8906 32.7188
Q79.8906 40.5781 77.0938 44.375
Q74.3125 48.1875 68.6094 48.1875
Q61.625 48.1875 57.5625 43.5469
Q53.5156 38.9219 53.5156 30.9062
L53.5156 0
L44.4844 0
L44.4844 32.7188
Q44.4844 40.625 41.7031 44.4062
Q38.9219 48.1875 33.1094 48.1875
Q26.2188 48.1875 22.1562 43.5312
Q18.1094 38.875 18.1094 30.9062
L18.1094 0
L9.07812 0
L9.07812 54.6875
L18.1094 54.6875
L18.1094 46.1875
Q21.1875 51.2188 25.4844 53.6094
Q29.7812 56 35.6875 56
Q41.6562 56 45.8281 52.9688
Q50 49.9531 52 44.1875" id="DejaVuSans-6d"/>
     <path d="
M9.42188 75.9844
L18.4062 75.9844
L18.4062 0
L9.42188 0
z
" id="DejaVuSans-6c"/>
     <path d="
M10.7969 72.9062
L49.5156 72.9062
L49.5156 64.5938
L19.8281 64.5938
L19.8281 46.7344
Q21.9688 47.4688 24.1094 47.8281
Q26.2656 48.1875 28.4219 48.1875
Q40.625 48.1875 47.75 41.5
Q54.8906 34.8125 54.8906 23.3906
Q54.8906 11.625 47.5625 5.09375
Q40.2344 -1.42188 26.9062 -1.42188
Q22.3125 -1.42188 17.5469 -0.640625
Q12.7969 0.140625 7.71875 1.70312
L7.71875 11.625
Q12.1094 9.23438 16.7969 8.0625
Q21.4844 6.89062 26.7031 6.89062
Q35.1562 6.89062 40.0781 11.3281
Q45.0156 15.7656 45.0156 23.3906
Q45.0156 31 40.0781 35.4375
Q35.1562 39.8906 26.7031 39.8906
Q22.75 39.8906 18.8125 39.0156
Q14.8906 38.1406 10.7969 36.2812
z
" id="DejaVuSans-35"/>
     <path d="
M8.6875 72.9062
L18.6094 72.9062
L18.6094 28.6094
Q18.6094 16.8906 22.8438 11.7344
Q27.0938 6.59375 36.625 6.59375
Q46.0938 6.59375 50.3438 11.7344
Q54.5938 16.8906 54.5938 28.6094
L54.5938 72.9062
L64.5 72.9062
L64.5 27.3906
Q64.5 13.1406 57.4375 5.85938
Q50.3906 -1.42188 36.625 -1.42188
Q22.7969 -1.42188 15.7344 5.85938
Q8.6875 13.1406 8.6875 27.3906
z
" id="DejaVuSans-55"/>
     <path d="
M18.3125 70.2188
L18.3125 54.6875
L36.8125 54.6875
L36.8125 47.7031
L18.3125 47.7031
L18.3125 18.0156
Q18.3125 11.3281 20.1406 9.42188
Q21.9688 7.51562 27.5938 7.51562
L36.8125 7.51562
L36.8125 0
L27.5938 0
Q17.1875 0 13.2344 3.875
Q9.28125 7.76562 9.28125 18.0156
L9.28125 47.7031
L2.6875 47.7031
L2.6875 54.6875
L9.28125 54.6875
L9.28125 70.2188
z
" id="DejaVuSans-74"/>
     <path d="
M4.20312 54.6875
L13.1875 54.6875
L24.4219 12.0156
L35.5938 54.6875
L46.1875 54.6875
L57.4219 12.0156
L68.6094 54.6875
L77.5938 54.6875
L63.2812 0
L52.6875 0
L40.9219 44.8281
L29.1094 0
L18.5 0
z
" id="DejaVuSans-77"/>
     <path d="
M2.98438 54.6875
L12.5 54.6875
L29.5938 8.79688
L46.6875 54.6875
L56.2031 54.6875
L35.6875 0
L23.4844 0
z
" id="DejaVuSans-76"/>
     <path d="
M44.2812 53.0781
L44.2812 44.5781
Q40.4844 46.5312 36.375 47.5
Q32.2812 48.4844 27.875 48.4844
Q21.1875 48.4844 17.8438 46.4375
Q14.5 44.3906 14.5 40.2812
Q14.5 37.1562 16.8906 35.375
Q19.2812 33.5938 26.5156 31.9844
L29.5938 31.2969
Q39.1562 29.25 43.1875 25.5156
Q47.2188 21.7812 47.2188 15.0938
Q47.2188 7.46875 41.1875 3.01562
Q35.1562 -1.42188 24.6094 -1.42188
Q20.2188 -1.42188 15.4531 -0.5625
Q10.6875 0.296875 5.42188 2
L5.42188 11.2812
Q10.4062 8.6875 15.2344 7.39062
Q20.0625 6.10938 24.8125 6.10938
Q31.1562 6.10938 34.5625 8.28125
Q37.9844 10.4531 37.9844 14.4062
Q37.9844 18.0625 35.5156 20.0156
Q33.0625 21.9688 24.7031 23.7812
L21.5781 24.5156
Q13.2344 26.2656 9.51562 29.9062
Q5.8125 33.5469 5.8125 39.8906
Q5.8125 47.6094 11.2812 51.7969
Q16.75 56 26.8125 56
Q31.7812 56 36.1719 55.2656
Q40.5781 54.5469 44.2812 53.0781" id="DejaVuSans-73"/>
     <path d="
M41.1094 46.2969
Q39.5938 47.1719 37.8125 47.5781
Q36.0312 48 33.8906 48
Q26.2656 48 22.1875 43.0469
Q18.1094 38.0938 18.1094 28.8125
L18.1094 0
L9.07812 0
L9.07812 54.6875
L18.1094 54.6875
L18.1094 46.1875
Q20.9531 51.1719 25.4844 53.5781
Q30.0312 56 36.5312 56
Q37.4531 56 38.5781 55.875
Q39.7031 55.7656 41.0625 55.5156
z
" id="DejaVuSans-72"/>
    </defs>
    <g transform="translate(-77.540625 -5.9351)scale(0.144 -0.144)">
     <use xlink:href="#DejaVuSans-6d"/>
     <use x="97.412109375" xlink:href="#DejaVuSans-6f"/>
     <use x="158.59375" xlink:href="#DejaVuSans-64"/>
     <use x="222.0703125" xlink:href="#DejaVuSans-65"/>
     <use x="283.59375" xlink:href="#DejaVuSans-6c"/>
     <use x="311.376953125" xlink:href="#DejaVuSans-3a"/>
     <use x="345.068359375" xlink:href="#DejaVuSans-20"/>
     <use x="376.85546875" xlink:href="#DejaVuSans-28"/>
     <use x="415.869140625" xlink:href="#DejaVuSans-31"/>
     <use x="479.4921875" xlink:href="#DejaVuSans-35"/>
     <use x="543.115234375" xlink:href="#DejaVuSans-2c"/>
     <use x="574.90234375" xlink:href="#DejaVuSans-20"/>
     <use x="606.689453125" xlink:href="#DejaVuSans-32"/>
     <use x="670.3125" xlink:href="#DejaVuSans-30"/>
     <use x="733.935546875" xlink:href="#DejaVuSans-29"/>
     <use x="772.94921875" xlink:href="#DejaVuSans-20"/>
     <use x="804.736328125" xlink:href="#DejaVuSans-2d"/>
     <use x="840.8203125" xlink:href="#DejaVuSans-20"/>
     <use x="872.607421875" xlink:href="#DejaVuSans-2e"/>
     <use x="904.39453125" xlink:href="#DejaVuSans-2e"/>
     <use x="936.181640625" xlink:href="#DejaVuSans-2f"/>
     <use x="969.873046875" xlink:href="#DejaVuSans-64"/>
     <use x="1033.34960938" xlink:href="#DejaVuSans-61"/>
     <use x="1094.62890625" xlink:href="#DejaVuSans-74"/>
     <use x="1133.83789062" xlink:href="#DejaVuSans-61"/>
     <use x="1195.1171875" xlink:href="#DejaVuSans-2f"/>
     <use x="1228.80859375" xlink:href="#DejaVuSans-63"/>
     <use x="1283.7890625" xlink:href="#DejaVuSans-73"/>
     <use x="1335.88867188" xlink:href="#DejaVuSans-76"/>
     <use x="1395.06835938" xlink:href="#DejaVuSans-2f"/>
     <use x="1428.75976562" xlink:href="#DejaVuSans-31"/>
     <use x="1492.3828125" xlink:href="#DejaVuSans-39"/>
     <use x="1556.00585938" xlink:href="#DejaVuSans-2d"/>
     <use x="1592.08984375" xlink:href="#DejaVuSans-30"/>
     <use x="1655.71289062" xlink:href="#DejaVuSans-35"/>
     <use x="1719.3359375" xlink:href="#DejaVuSans-2f"/>
     <use x="1753.02734375" xlink:href="#DejaVuSans-77"/>
     <use x="1834.81445312" xlink:href="#DejaVuSans-68"/>
     <use x="1898.19335938" xlink:href="#DejaVuSans-6f"/>
     <use x="1959.375" xlink:href="#DejaVuSans-6c"/>
     <use x="1987.15820312" xlink:href="#DejaVuSans-65"/>
     <use x="2048.68164062" xlink:href="#DejaVuSans-73"/>
     <use x="2100.78125" xlink:href="#DejaVuSans-61"/>
     <use x="2162.06054688" xlink:href="#DejaVuSans-6c"/>
     <use x="2189.84375" xlink:href="#DejaVuSans-65"/>
     <use x="2251.3671875" xlink:href="#DejaVuSans-2d"/>
     <use x="2287.45117188" xlink:href="#DejaVuSans-64"/>
     <use x="2350.92773438" xlink:href="#DejaVuSans-61"/>
     <use x="2412.20703125" xlink:href="#DejaVuSans-69"/>
     <use x="2439.99023438" xlink:href="#DejaVuSans-6c"/>
     <use x="2467.7734375" xlink:href="#DejaVuSans-79"/>
     <use x="2525.203125" xlink:href="#DejaVuSans-2d"/>
     <use x="2561.28710938" xlink:href="#DejaVuSans-28"/>
     <use x="2600.30078125" xlink:href="#DejaVuSans-27"/>
     <use x="2627.79101562" xlink:href="#DejaVuSans-55"/>
     <use x="2700.984375" xlink:href="#DejaVuSans-74"/>
     <use x="2740.19335938" xlink:href="#DejaVuSans-74"/>
     <use x="2779.40234375" xlink:href="#DejaVuSans-61"/>
     <use x="2840.68164062" xlink:href="#DejaVuSans-72"/>
     <use x="2881.79492188" xlink:href="#DejaVuSans-20"/>
     <use x="2913.58203125" xlink:href="#DejaVuSans-50"/>
     <use x="2972.13476562" xlink:href="#DejaVuSans-72"/>
     <use x="3013.24804688" xlink:href="#DejaVuSans-61"/>
     <use x="3074.52734375" xlink:href="#DejaVuSans-64"/>
     <use x="3138.00390625" xlink:href="#DejaVuSans-65"/>
     <use x="3199.52734375" xlink:href="#DejaVuSans-73"/>
     <use x="3251.62695312" xlink:href="#DejaVuSans-68"/>
     <use x="3315.00585938" xlink:href="#DejaVuSans-27"/>
     <use x="3342.49609375" xlink:href="#DejaVuSans-2c"/>
     <use x="3374.28320312" xlink:href="#DejaVuSans-20"/>
     <use x="3406.0703125" xlink:href="#DejaVuSans-27"/>
     <use x="3433.56054688" xlink:href="#DejaVuSans-42"/>
     <use x="3502.1640625" xlink:href="#DejaVuSans-61"/>
     <use x="3563.44335938" xlink:href="#DejaVuSans-72"/>
     <use x="3602.30664062" xlink:href="#DejaVuSans-65"/>
     <use x="3663.83007812" xlink:href="#DejaVuSans-69"/>
     <use x="3691.61328125" xlink:href="#DejaVuSans-6c"/>
     <use x="3719.39648438" xlink:href="#DejaVuSans-6c"/>
     <use x="3747.1796875" xlink:href="#DejaVuSans-79"/>
     <use x="3806.359375" xlink:href="#DejaVuSans-27"/>
     <use x="3833.84960938" xlink:href="#DejaVuSans-2c"/>
     <use x="3865.63671875" xlink:href="#DejaVuSans-20"/>
     <use x="3897.42382812" xlink:href="#DejaVuSans-27"/>
     <use x="3924.9140625" xlink:href="#DejaVuSans-52"/>
     <use x="3994.39648438" xlink:href="#DejaVuSans-69"/>
     <use x="4022.1796875" xlink:href="#DejaVuSans-63"/>
     <use x="4077.16015625" xlink:href="#DejaVuSans-65"/>
     <use x="4138.68359375" xlink:href="#DejaVuSans-27"/>
     <use x="4166.17382812" xlink:href="#DejaVuSans-2c"/>
     <use x="4197.9609375" xlink:href="#DejaVuSans-20"/>
     <use x="4229.74804688" xlink:href="#DejaVuSans-27"/>
     <use x="4257.23828125" xlink:href="#DejaVuSans-43"/>
     <use x="4327.0625" xlink:href="#DejaVuSans-6f"/>
     <use x="4388.24414062" xlink:href="#DejaVuSans-61"/>
     <use x="4449.5234375" xlink:href="#DejaVuSans-72"/>
     <use x="4490.63671875" xlink:href="#DejaVuSans-73"/>
     <use x="4542.73632812" xlink:href="#DejaVuSans-65"/>
     <use x="4604.25976562" xlink:href="#DejaVuSans-27"/>
     <use x="4631.75" xlink:href="#DejaVuSans-2c"/>
     <use x="4663.53710938" xlink:href="#DejaVuSans-20"/>
     <use x="4695.32421875" xlink:href="#DejaVuSans-30"/>
     <use x="4758.94726562" xlink:href="#DejaVuSans-2e"/>
     <use x="4790.734375" xlink:href="#DejaVuSans-38"/>
     <use x="4854.35742188" xlink:href="#DejaVuSans-33"/>
     <use x="4917.98046875" xlink:href="#DejaVuSans-29"/>
     <use x="4956.99414062" xlink:href="#DejaVuSans-2e"/>
     <use x="4988.78125" xlink:href="#DejaVuSans-63"/>
     <use x="5043.76171875" xlink:href="#DejaVuSans-73"/>
     <use x="5095.86132812" xlink:href="#DejaVuSans-76"/>
     <use x="5155.04101562" xlink:href="#DejaVuSans-2c"/>
     <use x="5186.828125" xlink:href="#DejaVuSans-20"/>
    </g>
    <!-- epoch: 291 -->
    <defs>
     <path d="
M18.1094 8.20312
L18.1094 -20.7969
L9.07812 -20.7969
L9.07812 54.6875
L18.1094 54.6875
L18.1094 46.3906
Q20.9531 51.2656 25.2656 53.625
Q29.5938 56 35.5938 56
Q45.5625 56 51.7812 48.0938
Q58.0156 40.1875 58.0156 27.2969
Q58.0156 14.4062 51.7812 6.48438
Q45.5625 -1.42188 35.5938 -1.42188
Q29.5938 -1.42188 25.2656 0.953125
Q20.9531 3.32812 18.1094 8.20312
M48.6875 27.2969
Q48.6875 37.2031 44.6094 42.8438
Q40.5312 48.4844 33.4062 48.4844
Q26.2656 48.4844 22.1875 42.8438
Q18.1094 37.2031 18.1094 27.2969
Q18.1094 17.3906 22.1875 11.75
Q26.2656 6.10938 33.4062 6.10938
Q40.5312 6.10938 44.6094 11.75
Q48.6875 17.3906 48.6875 27.2969" id="DejaVuSans-70"/>
    </defs>
    <g transform="translate(255.479625 10.7887)scale(0.144 -0.144)">
     <use xlink:href="#DejaVuSans-65"/>
     <use x="61.5234375" xlink:href="#DejaVuSans-70"/>
     <use x="125.0" xlink:href="#DejaVuSans-6f"/>
     <use x="186.181640625" xlink:href="#DejaVuSans-63"/>
     <use x="241.162109375" xlink:href="#DejaVuSans-68"/>
     <use x="304.541015625" xlink:href="#DejaVuSans-3a"/>
     <use x="338.232421875" xlink:href="#DejaVuSans-20"/>
     <use x="370.01953125" xlink:href="#DejaVuSans-32"/>
     <use x="433.642578125" xlink:href="#DejaVuSans-39"/>
     <use x="497.265625" xlink:href="#DejaVuSans-31"/>
    </g>
    <!-- test err: 0.0040 -->
    <g transform="translate(239.558625 27.5125)scale(0.144 -0.144)">
     <use xlink:href="#DejaVuSans-74"/>
     <use x="39.208984375" xlink:href="#DejaVuSans-65"/>
     <use x="100.732421875" xlink:href="#DejaVuSans-73"/>
     <use x="152.83203125" xlink:href="#DejaVuSans-74"/>
     <use x="192.041015625" xlink:href="#DejaVuSans-20"/>
     <use x="223.828125" xlink:href="#DejaVuSans-65"/>
     <use x="285.3515625" xlink:href="#DejaVuSans-72"/>
     <use x="324.71484375" xlink:href="#DejaVuSans-72"/>
     <use x="364.078125" xlink:href="#DejaVuSans-3a"/>
     <use x="397.76953125" xlink:href="#DejaVuSans-20"/>
     <use x="429.556640625" xlink:href="#DejaVuSans-30"/>
     <use x="493.1796875" xlink:href="#DejaVuSans-2e"/>
     <use x="524.966796875" xlink:href="#DejaVuSans-30"/>
     <use x="588.58984375" xlink:href="#DejaVuSans-30"/>
     <use x="652.212890625" xlink:href="#DejaVuSans-34"/>
     <use x="715.8359375" xlink:href="#DejaVuSans-30"/>
    </g>
   </g>
   <g id="legend_1">
    <g id="patch_7">
     <path d="
M79.2 115.339
L162.947 115.339
L162.947 50.4
L79.2 50.4
L79.2 115.339
z
" style="fill:#ffffff;stroke:#000000;"/>
    </g>
    <g id="line2d_61">
     <path d="
M89.28 62.0617
L109.44 62.0617" style="fill:none;stroke:#008000;"/>
    </g>
    <g id="line2d_62"/>
    <g id="text_21">
     <!-- pred -->
     <g transform="translate(125.28 67.10175)scale(0.144 -0.144)">
      <use xlink:href="#DejaVuSans-70"/>
      <use x="63.4765625" xlink:href="#DejaVuSans-72"/>
      <use x="102.33984375" xlink:href="#DejaVuSans-65"/>
      <use x="163.86328125" xlink:href="#DejaVuSans-64"/>
     </g>
    </g>
    <g id="line2d_63">
     <path d="
M89.28 83.1983
L109.44 83.1983" style="fill:none;stroke:#0000ff;"/>
    </g>
    <g id="line2d_64"/>
    <g id="text_22">
     <!-- train -->
     <defs>
      <path d="
M54.8906 33.0156
L54.8906 0
L45.9062 0
L45.9062 32.7188
Q45.9062 40.4844 42.875 44.3281
Q39.8438 48.1875 33.7969 48.1875
Q26.5156 48.1875 22.3125 43.5469
Q18.1094 38.9219 18.1094 30.9062
L18.1094 0
L9.07812 0
L9.07812 54.6875
L18.1094 54.6875
L18.1094 46.1875
Q21.3438 51.125 25.7031 53.5625
Q30.0781 56 35.7969 56
Q45.2188 56 50.0469 50.1719
Q54.8906 44.3438 54.8906 33.0156" id="DejaVuSans-6e"/>
     </defs>
     <g transform="translate(125.28 88.23825)scale(0.144 -0.144)">
      <use xlink:href="#DejaVuSans-74"/>
      <use x="39.208984375" xlink:href="#DejaVuSans-72"/>
      <use x="80.322265625" xlink:href="#DejaVuSans-61"/>
      <use x="141.6015625" xlink:href="#DejaVuSans-69"/>
      <use x="169.384765625" xlink:href="#DejaVuSans-6e"/>
     </g>
    </g>
    <g id="line2d_65">
     <path d="
M89.28 104.335
L109.44 104.335" style="fill:none;stroke:#ff0000;"/>
    </g>
    <g id="line2d_66"/>
    <g id="text_23">
     <!-- test -->
     <g transform="translate(125.28 109.37475)scale(0.144 -0.144)">
      <use xlink:href="#DejaVuSans-74"/>
      <use x="39.208984375" xlink:href="#DejaVuSans-65"/>
      <use x="100.732421875" xlink:href="#DejaVuSans-73"/>
      <use x="152.83203125" xlink:href="#DejaVuSans-74"/>
     </g>
    </g>
   </g>
  </g>
 </g>
 <defs>
  <clipPath id="p7ff5b81e1d">
   <rect height="345.6" width="446.4" x="72.0" y="43.2"/>
  </clipPath>
 </defs>
</svg>
